ISO-10303-21;
HEADER;
FILE_DESCRIPTION(('FreeCAD Model'),'2;1');
FILE_NAME('Open CASCADE Shape Model','2026-01-03T20:38:13',('Author'),(
    ''),'Open CASCADE STEP processor 7.8','FreeCAD','Unknown');
FILE_SCHEMA(('AUTOMOTIVE_DESIGN { 1 0 10303 214 1 1 1 1 }'));
ENDSEC;
DATA;
#1 = APPLICATION_PROTOCOL_DEFINITION('international standard',
  'automotive_design',2000,#2);
#2 = APPLICATION_CONTEXT(
  'core data for automotive mechanical design processes');
#3 = SHAPE_DEFINITION_REPRESENTATION(#4,#10);
#4 = PRODUCT_DEFINITION_SHAPE('','',#5);
#5 = PRODUCT_DEFINITION('design','',#6,#9);
#6 = PRODUCT_DEFINITION_FORMATION('','',#7);
#7 = PRODUCT('JST_ZH_B4B','JST_ZH_B4B','',(#8));
#8 = PRODUCT_CONTEXT('',#2,'mechanical');
#9 = PRODUCT_DEFINITION_CONTEXT('part definition',#2,'design');
#10 = SHAPE_REPRESENTATION('',(#11,#15,#19),#23);
#11 = AXIS2_PLACEMENT_3D('',#12,#13,#14);
#12 = CARTESIAN_POINT('',(0.,0.,0.));
#13 = DIRECTION('',(0.,0.,1.));
#14 = DIRECTION('',(1.,0.,-0.));
#15 = AXIS2_PLACEMENT_3D('',#16,#17,#18);
#16 = CARTESIAN_POINT('',(0.,0.,0.));
#17 = DIRECTION('',(0.,0.,1.));
#18 = DIRECTION('',(1.,0.,0.));
#19 = AXIS2_PLACEMENT_3D('',#20,#21,#22);
#20 = CARTESIAN_POINT('',(0.,0.,-2.7));
#21 = DIRECTION('',(0.,0.,1.));
#22 = DIRECTION('',(1.,0.,0.));
#23 = ( GEOMETRIC_REPRESENTATION_CONTEXT(3) 
GLOBAL_UNCERTAINTY_ASSIGNED_CONTEXT((#27)) GLOBAL_UNIT_ASSIGNED_CONTEXT(
(#24,#25,#26)) REPRESENTATION_CONTEXT('Context #1',
  '3D Context with UNIT and UNCERTAINTY') );
#24 = ( LENGTH_UNIT() NAMED_UNIT(*) SI_UNIT(.MILLI.,.METRE.) );
#25 = ( NAMED_UNIT(*) PLANE_ANGLE_UNIT() SI_UNIT($,.RADIAN.) );
#26 = ( NAMED_UNIT(*) SI_UNIT($,.STERADIAN.) SOLID_ANGLE_UNIT() );
#27 = UNCERTAINTY_MEASURE_WITH_UNIT(LENGTH_MEASURE(5.E-07),#24,
  'distance_accuracy_value','confusion accuracy');
#28 = PRODUCT_RELATED_PRODUCT_CATEGORY('part',$,(#7));
#29 = SHAPE_DEFINITION_REPRESENTATION(#30,#36);
#30 = PRODUCT_DEFINITION_SHAPE('','',#31);
#31 = PRODUCT_DEFINITION('design','',#32,#35);
#32 = PRODUCT_DEFINITION_FORMATION('','',#33);
#33 = PRODUCT('Pocket004','Pocket004','',(#34));
#34 = PRODUCT_CONTEXT('',#2,'mechanical');
#35 = PRODUCT_DEFINITION_CONTEXT('part definition',#2,'design');
#36 = ADVANCED_BREP_SHAPE_REPRESENTATION('',(#11,#37),#1815);
#37 = MANIFOLD_SOLID_BREP('',#38);
#38 = CLOSED_SHELL('',(#39,#177,#208,#232,#257,#281,#306,#330,#354,#410,
    #434,#594,#618,#642,#666,#690,#782,#831,#870,#943,#967,#991,#1065,
    #1096,#1120,#1144,#1161,#1192,#1216,#1240,#1257,#1288,#1312,#1336,
    #1353,#1384,#1408,#1432,#1449,#1480,#1504,#1528,#1545,#1576,#1600,
    #1624,#1641,#1658,#1675,#1711,#1728,#1745,#1762,#1779,#1791,#1803));
#39 = ADVANCED_FACE('',(#40),#172,.F.);
#40 = FACE_BOUND('',#41,.F.);
#41 = EDGE_LOOP('',(#42,#52,#60,#68,#76,#84,#92,#100,#108,#116,#124,#132
    ,#140,#149,#157,#166));
#42 = ORIENTED_EDGE('',*,*,#43,.F.);
#43 = EDGE_CURVE('',#44,#46,#48,.T.);
#44 = VERTEX_POINT('',#45);
#45 = CARTESIAN_POINT('',(3.081342500954E-33,0.7,4.5));
#46 = VERTEX_POINT('',#47);
#47 = CARTESIAN_POINT('',(3.081633321085E-33,1.,4.2));
#48 = LINE('',#49,#50);
#49 = CARTESIAN_POINT('',(0.,2.6,2.6));
#50 = VECTOR('',#51,1.);
#51 = DIRECTION('',(0.,0.707106781187,-0.707106781187));
#52 = ORIENTED_EDGE('',*,*,#53,.T.);
#53 = EDGE_CURVE('',#44,#54,#56,.T.);
#54 = VERTEX_POINT('',#55);
#55 = CARTESIAN_POINT('',(0.,0.,4.5));
#56 = LINE('',#57,#58);
#57 = CARTESIAN_POINT('',(0.,3.5,4.5));
#58 = VECTOR('',#59,1.);
#59 = DIRECTION('',(0.,-1.,0.));
#60 = ORIENTED_EDGE('',*,*,#61,.F.);
#61 = EDGE_CURVE('',#62,#54,#64,.T.);
#62 = VERTEX_POINT('',#63);
#63 = CARTESIAN_POINT('',(0.,0.,0.9));
#64 = LINE('',#65,#66);
#65 = CARTESIAN_POINT('',(0.,0.,0.));
#66 = VECTOR('',#67,1.);
#67 = DIRECTION('',(0.,0.,1.));
#68 = ORIENTED_EDGE('',*,*,#69,.F.);
#69 = EDGE_CURVE('',#70,#62,#72,.T.);
#70 = VERTEX_POINT('',#71);
#71 = CARTESIAN_POINT('',(0.,0.25,0.9));
#72 = LINE('',#73,#74);
#73 = CARTESIAN_POINT('',(0.,0.25,0.9));
#74 = VECTOR('',#75,1.);
#75 = DIRECTION('',(0.,-1.,0.));
#76 = ORIENTED_EDGE('',*,*,#77,.F.);
#77 = EDGE_CURVE('',#78,#70,#80,.T.);
#78 = VERTEX_POINT('',#79);
#79 = CARTESIAN_POINT('',(0.,0.25,0.5));
#80 = LINE('',#81,#82);
#81 = CARTESIAN_POINT('',(0.,0.25,0.5));
#82 = VECTOR('',#83,1.);
#83 = DIRECTION('',(0.,0.,1.));
#84 = ORIENTED_EDGE('',*,*,#85,.F.);
#85 = EDGE_CURVE('',#86,#78,#88,.T.);
#86 = VERTEX_POINT('',#87);
#87 = CARTESIAN_POINT('',(0.,0.,0.5));
#88 = LINE('',#89,#90);
#89 = CARTESIAN_POINT('',(0.,0.,0.5));
#90 = VECTOR('',#91,1.);
#91 = DIRECTION('',(0.,1.,0.));
#92 = ORIENTED_EDGE('',*,*,#93,.F.);
#93 = EDGE_CURVE('',#94,#86,#96,.T.);
#94 = VERTEX_POINT('',#95);
#95 = CARTESIAN_POINT('',(0.,0.,0.));
#96 = LINE('',#97,#98);
#97 = CARTESIAN_POINT('',(0.,0.,0.));
#98 = VECTOR('',#99,1.);
#99 = DIRECTION('',(0.,0.,1.));
#100 = ORIENTED_EDGE('',*,*,#101,.F.);
#101 = EDGE_CURVE('',#102,#94,#104,.T.);
#102 = VERTEX_POINT('',#103);
#103 = CARTESIAN_POINT('',(0.,3.5,0.));
#104 = LINE('',#105,#106);
#105 = CARTESIAN_POINT('',(0.,3.5,0.));
#106 = VECTOR('',#107,1.);
#107 = DIRECTION('',(0.,-1.,0.));
#108 = ORIENTED_EDGE('',*,*,#109,.T.);
#109 = EDGE_CURVE('',#102,#110,#112,.T.);
#110 = VERTEX_POINT('',#111);
#111 = CARTESIAN_POINT('',(0.,3.5,4.5));
#112 = LINE('',#113,#114);
#113 = CARTESIAN_POINT('',(0.,3.5,0.));
#114 = VECTOR('',#115,1.);
#115 = DIRECTION('',(0.,0.,1.));
#116 = ORIENTED_EDGE('',*,*,#117,.T.);
#117 = EDGE_CURVE('',#110,#118,#120,.T.);
#118 = VERTEX_POINT('',#119);
#119 = CARTESIAN_POINT('',(0.,2.4,4.5));
#120 = LINE('',#121,#122);
#121 = CARTESIAN_POINT('',(0.,3.5,4.5));
#122 = VECTOR('',#123,1.);
#123 = DIRECTION('',(0.,-1.,0.));
#124 = ORIENTED_EDGE('',*,*,#125,.F.);
#125 = EDGE_CURVE('',#126,#118,#128,.T.);
#126 = VERTEX_POINT('',#127);
#127 = CARTESIAN_POINT('',(0.,2.1,4.2));
#128 = LINE('',#129,#130);
#129 = CARTESIAN_POINT('',(-4.440892098501E-17,1.475,3.575));
#130 = VECTOR('',#131,1.);
#131 = DIRECTION('',(0.,0.707106781187,0.707106781187));
#132 = ORIENTED_EDGE('',*,*,#133,.T.);
#133 = EDGE_CURVE('',#126,#134,#136,.T.);
#134 = VERTEX_POINT('',#135);
#135 = CARTESIAN_POINT('',(0.,2.1,2.500131));
#136 = LINE('',#137,#138);
#137 = CARTESIAN_POINT('',(0.,2.1,4.500131));
#138 = VECTOR('',#139,1.);
#139 = DIRECTION('',(0.,0.,-1.));
#140 = ORIENTED_EDGE('',*,*,#141,.T.);
#141 = EDGE_CURVE('',#134,#142,#144,.T.);
#142 = VERTEX_POINT('',#143);
#143 = CARTESIAN_POINT('',(0.,1.6,2.000131));
#144 = CIRCLE('',#145,0.5);
#145 = AXIS2_PLACEMENT_3D('',#146,#147,#148);
#146 = CARTESIAN_POINT('',(0.,1.6,2.500131));
#147 = DIRECTION('',(-1.,0.,0.));
#148 = DIRECTION('',(0.,-1.,0.));
#149 = ORIENTED_EDGE('',*,*,#150,.T.);
#150 = EDGE_CURVE('',#142,#151,#153,.T.);
#151 = VERTEX_POINT('',#152);
#152 = CARTESIAN_POINT('',(0.,1.5,2.000131));
#153 = LINE('',#154,#155);
#154 = CARTESIAN_POINT('',(0.,1.6,2.000131));
#155 = VECTOR('',#156,1.);
#156 = DIRECTION('',(0.,-1.,0.));
#157 = ORIENTED_EDGE('',*,*,#158,.T.);
#158 = EDGE_CURVE('',#151,#159,#161,.T.);
#159 = VERTEX_POINT('',#160);
#160 = CARTESIAN_POINT('',(0.,1.,2.500131));
#161 = CIRCLE('',#162,0.5);
#162 = AXIS2_PLACEMENT_3D('',#163,#164,#165);
#163 = CARTESIAN_POINT('',(0.,1.5,2.500131));
#164 = DIRECTION('',(-1.,0.,0.));
#165 = DIRECTION('',(0.,-1.,0.));
#166 = ORIENTED_EDGE('',*,*,#167,.T.);
#167 = EDGE_CURVE('',#159,#46,#168,.T.);
#168 = LINE('',#169,#170);
#169 = CARTESIAN_POINT('',(0.,1.,2.500131));
#170 = VECTOR('',#171,1.);
#171 = DIRECTION('',(0.,0.,1.));
#172 = PLANE('',#173);
#173 = AXIS2_PLACEMENT_3D('',#174,#175,#176);
#174 = CARTESIAN_POINT('',(0.,3.5,0.));
#175 = DIRECTION('',(1.,0.,0.));
#176 = DIRECTION('',(0.,-1.,0.));
#177 = ADVANCED_FACE('',(#178),#203,.F.);
#178 = FACE_BOUND('',#179,.T.);
#179 = EDGE_LOOP('',(#180,#181,#189,#197));
#180 = ORIENTED_EDGE('',*,*,#43,.F.);
#181 = ORIENTED_EDGE('',*,*,#182,.T.);
#182 = EDGE_CURVE('',#44,#183,#185,.T.);
#183 = VERTEX_POINT('',#184);
#184 = CARTESIAN_POINT('',(0.4,0.7,4.5));
#185 = LINE('',#186,#187);
#186 = CARTESIAN_POINT('',(0.,0.7,4.5));
#187 = VECTOR('',#188,1.);
#188 = DIRECTION('',(1.,0.,0.));
#189 = ORIENTED_EDGE('',*,*,#190,.T.);
#190 = EDGE_CURVE('',#183,#191,#193,.T.);
#191 = VERTEX_POINT('',#192);
#192 = CARTESIAN_POINT('',(0.4,1.,4.2));
#193 = LINE('',#194,#195);
#194 = CARTESIAN_POINT('',(0.4,1.4,3.8));
#195 = VECTOR('',#196,1.);
#196 = DIRECTION('',(0.,0.707106781187,-0.707106781187));
#197 = ORIENTED_EDGE('',*,*,#198,.F.);
#198 = EDGE_CURVE('',#46,#191,#199,.T.);
#199 = LINE('',#200,#201);
#200 = CARTESIAN_POINT('',(0.,1.,4.2));
#201 = VECTOR('',#202,1.);
#202 = DIRECTION('',(1.,0.,0.));
#203 = PLANE('',#204);
#204 = AXIS2_PLACEMENT_3D('',#205,#206,#207);
#205 = CARTESIAN_POINT('',(0.,0.85,4.35));
#206 = DIRECTION('',(4.827584719484E-18,-0.707106781187,-0.707106781187)
  );
#207 = DIRECTION('',(-1.,-3.413617891899E-18,-3.413617891899E-18));
#208 = ADVANCED_FACE('',(#209),#227,.F.);
#209 = FACE_BOUND('',#210,.F.);
#210 = EDGE_LOOP('',(#211,#212,#220,#226));
#211 = ORIENTED_EDGE('',*,*,#167,.F.);
#212 = ORIENTED_EDGE('',*,*,#213,.T.);
#213 = EDGE_CURVE('',#159,#214,#216,.T.);
#214 = VERTEX_POINT('',#215);
#215 = CARTESIAN_POINT('',(0.4,1.,2.500131));
#216 = LINE('',#217,#218);
#217 = CARTESIAN_POINT('',(0.,1.,2.500131));
#218 = VECTOR('',#219,1.);
#219 = DIRECTION('',(1.,0.,0.));
#220 = ORIENTED_EDGE('',*,*,#221,.T.);
#221 = EDGE_CURVE('',#214,#191,#222,.T.);
#222 = LINE('',#223,#224);
#223 = CARTESIAN_POINT('',(0.4,1.,3.5000655));
#224 = VECTOR('',#225,1.);
#225 = DIRECTION('',(0.,0.,1.));
#226 = ORIENTED_EDGE('',*,*,#198,.F.);
#227 = PLANE('',#228);
#228 = AXIS2_PLACEMENT_3D('',#229,#230,#231);
#229 = CARTESIAN_POINT('',(0.,1.,2.500131));
#230 = DIRECTION('',(0.,-1.,0.));
#231 = DIRECTION('',(0.,0.,1.));
#232 = ADVANCED_FACE('',(#233),#252,.F.);
#233 = FACE_BOUND('',#234,.F.);
#234 = EDGE_LOOP('',(#235,#236,#244,#251));
#235 = ORIENTED_EDGE('',*,*,#158,.F.);
#236 = ORIENTED_EDGE('',*,*,#237,.T.);
#237 = EDGE_CURVE('',#151,#238,#240,.T.);
#238 = VERTEX_POINT('',#239);
#239 = CARTESIAN_POINT('',(0.4,1.5,2.000131));
#240 = LINE('',#241,#242);
#241 = CARTESIAN_POINT('',(0.,1.5,2.000131));
#242 = VECTOR('',#243,1.);
#243 = DIRECTION('',(1.,0.,0.));
#244 = ORIENTED_EDGE('',*,*,#245,.T.);
#245 = EDGE_CURVE('',#238,#214,#246,.T.);
#246 = CIRCLE('',#247,0.5);
#247 = AXIS2_PLACEMENT_3D('',#248,#249,#250);
#248 = CARTESIAN_POINT('',(0.4,1.5,2.500131));
#249 = DIRECTION('',(-1.,0.,0.));
#250 = DIRECTION('',(0.,-1.,0.));
#251 = ORIENTED_EDGE('',*,*,#213,.F.);
#252 = CYLINDRICAL_SURFACE('',#253,0.5);
#253 = AXIS2_PLACEMENT_3D('',#254,#255,#256);
#254 = CARTESIAN_POINT('',(0.,1.5,2.500131));
#255 = DIRECTION('',(-1.,0.,0.));
#256 = DIRECTION('',(0.,-1.,0.));
#257 = ADVANCED_FACE('',(#258),#276,.F.);
#258 = FACE_BOUND('',#259,.F.);
#259 = EDGE_LOOP('',(#260,#261,#269,#275));
#260 = ORIENTED_EDGE('',*,*,#150,.F.);
#261 = ORIENTED_EDGE('',*,*,#262,.T.);
#262 = EDGE_CURVE('',#142,#263,#265,.T.);
#263 = VERTEX_POINT('',#264);
#264 = CARTESIAN_POINT('',(0.4,1.6,2.000131));
#265 = LINE('',#266,#267);
#266 = CARTESIAN_POINT('',(0.,1.6,2.000131));
#267 = VECTOR('',#268,1.);
#268 = DIRECTION('',(1.,0.,0.));
#269 = ORIENTED_EDGE('',*,*,#270,.T.);
#270 = EDGE_CURVE('',#263,#238,#271,.T.);
#271 = LINE('',#272,#273);
#272 = CARTESIAN_POINT('',(0.4,2.4,2.000131));
#273 = VECTOR('',#274,1.);
#274 = DIRECTION('',(-0.,-1.,-0.));
#275 = ORIENTED_EDGE('',*,*,#237,.F.);
#276 = PLANE('',#277);
#277 = AXIS2_PLACEMENT_3D('',#278,#279,#280);
#278 = CARTESIAN_POINT('',(0.,1.6,2.000131));
#279 = DIRECTION('',(0.,0.,-1.));
#280 = DIRECTION('',(0.,-1.,0.));
#281 = ADVANCED_FACE('',(#282),#301,.F.);
#282 = FACE_BOUND('',#283,.F.);
#283 = EDGE_LOOP('',(#284,#285,#293,#300));
#284 = ORIENTED_EDGE('',*,*,#141,.F.);
#285 = ORIENTED_EDGE('',*,*,#286,.T.);
#286 = EDGE_CURVE('',#134,#287,#289,.T.);
#287 = VERTEX_POINT('',#288);
#288 = CARTESIAN_POINT('',(0.4,2.1,2.500131));
#289 = LINE('',#290,#291);
#290 = CARTESIAN_POINT('',(0.,2.1,2.500131));
#291 = VECTOR('',#292,1.);
#292 = DIRECTION('',(1.,0.,0.));
#293 = ORIENTED_EDGE('',*,*,#294,.T.);
#294 = EDGE_CURVE('',#287,#263,#295,.T.);
#295 = CIRCLE('',#296,0.5);
#296 = AXIS2_PLACEMENT_3D('',#297,#298,#299);
#297 = CARTESIAN_POINT('',(0.4,1.6,2.500131));
#298 = DIRECTION('',(-1.,0.,0.));
#299 = DIRECTION('',(0.,-1.,0.));
#300 = ORIENTED_EDGE('',*,*,#262,.F.);
#301 = CYLINDRICAL_SURFACE('',#302,0.5);
#302 = AXIS2_PLACEMENT_3D('',#303,#304,#305);
#303 = CARTESIAN_POINT('',(0.,1.6,2.500131));
#304 = DIRECTION('',(-1.,0.,0.));
#305 = DIRECTION('',(0.,-1.,0.));
#306 = ADVANCED_FACE('',(#307),#325,.F.);
#307 = FACE_BOUND('',#308,.F.);
#308 = EDGE_LOOP('',(#309,#310,#318,#324));
#309 = ORIENTED_EDGE('',*,*,#133,.F.);
#310 = ORIENTED_EDGE('',*,*,#311,.F.);
#311 = EDGE_CURVE('',#312,#126,#314,.T.);
#312 = VERTEX_POINT('',#313);
#313 = CARTESIAN_POINT('',(0.4,2.1,4.2));
#314 = LINE('',#315,#316);
#315 = CARTESIAN_POINT('',(0.4,2.1,4.2));
#316 = VECTOR('',#317,1.);
#317 = DIRECTION('',(-1.,0.,0.));
#318 = ORIENTED_EDGE('',*,*,#319,.T.);
#319 = EDGE_CURVE('',#312,#287,#320,.T.);
#320 = LINE('',#321,#322);
#321 = CARTESIAN_POINT('',(0.4,2.1,4.5000655));
#322 = VECTOR('',#323,1.);
#323 = DIRECTION('',(0.,0.,-1.));
#324 = ORIENTED_EDGE('',*,*,#286,.F.);
#325 = PLANE('',#326);
#326 = AXIS2_PLACEMENT_3D('',#327,#328,#329);
#327 = CARTESIAN_POINT('',(0.,2.1,4.500131));
#328 = DIRECTION('',(0.,1.,0.));
#329 = DIRECTION('',(0.,0.,-1.));
#330 = ADVANCED_FACE('',(#331),#349,.F.);
#331 = FACE_BOUND('',#332,.F.);
#332 = EDGE_LOOP('',(#333,#341,#342,#343));
#333 = ORIENTED_EDGE('',*,*,#334,.F.);
#334 = EDGE_CURVE('',#312,#335,#337,.T.);
#335 = VERTEX_POINT('',#336);
#336 = CARTESIAN_POINT('',(0.4,2.4,4.5));
#337 = LINE('',#338,#339);
#338 = CARTESIAN_POINT('',(0.4,2.525,4.625));
#339 = VECTOR('',#340,1.);
#340 = DIRECTION('',(0.,0.707106781187,0.707106781187));
#341 = ORIENTED_EDGE('',*,*,#311,.T.);
#342 = ORIENTED_EDGE('',*,*,#125,.T.);
#343 = ORIENTED_EDGE('',*,*,#344,.F.);
#344 = EDGE_CURVE('',#335,#118,#345,.T.);
#345 = LINE('',#346,#347);
#346 = CARTESIAN_POINT('',(0.4,2.4,4.5));
#347 = VECTOR('',#348,1.);
#348 = DIRECTION('',(-1.,0.,0.));
#349 = PLANE('',#350);
#350 = AXIS2_PLACEMENT_3D('',#351,#352,#353);
#351 = CARTESIAN_POINT('',(0.4,2.25,4.35));
#352 = DIRECTION('',(-9.293197397199E-19,0.707106781187,-0.707106781187)
  );
#353 = DIRECTION('',(-1.,-6.571282898464E-19,6.571282898464E-19));
#354 = ADVANCED_FACE('',(#355),#405,.T.);
#355 = FACE_BOUND('',#356,.T.);
#356 = EDGE_LOOP('',(#357,#358,#359,#367,#375,#383,#391,#399));
#357 = ORIENTED_EDGE('',*,*,#117,.T.);
#358 = ORIENTED_EDGE('',*,*,#344,.F.);
#359 = ORIENTED_EDGE('',*,*,#360,.F.);
#360 = EDGE_CURVE('',#361,#335,#363,.T.);
#361 = VERTEX_POINT('',#362);
#362 = CARTESIAN_POINT('',(0.4,3.2,4.5));
#363 = LINE('',#364,#365);
#364 = CARTESIAN_POINT('',(0.4,3.2,4.5));
#365 = VECTOR('',#366,1.);
#366 = DIRECTION('',(0.,-1.,0.));
#367 = ORIENTED_EDGE('',*,*,#368,.F.);
#368 = EDGE_CURVE('',#369,#361,#371,.T.);
#369 = VERTEX_POINT('',#370);
#370 = CARTESIAN_POINT('',(7.1,3.2,4.5));
#371 = LINE('',#372,#373);
#372 = CARTESIAN_POINT('',(7.1,3.2,4.5));
#373 = VECTOR('',#374,1.);
#374 = DIRECTION('',(-1.,0.,0.));
#375 = ORIENTED_EDGE('',*,*,#376,.T.);
#376 = EDGE_CURVE('',#369,#377,#379,.T.);
#377 = VERTEX_POINT('',#378);
#378 = CARTESIAN_POINT('',(7.1,2.4,4.5));
#379 = LINE('',#380,#381);
#380 = CARTESIAN_POINT('',(7.1,3.2,4.5));
#381 = VECTOR('',#382,1.);
#382 = DIRECTION('',(0.,-1.,0.));
#383 = ORIENTED_EDGE('',*,*,#384,.F.);
#384 = EDGE_CURVE('',#385,#377,#387,.T.);
#385 = VERTEX_POINT('',#386);
#386 = CARTESIAN_POINT('',(7.5,2.4,4.5));
#387 = LINE('',#388,#389);
#388 = CARTESIAN_POINT('',(7.5,2.4,4.5));
#389 = VECTOR('',#390,1.);
#390 = DIRECTION('',(-1.,0.,0.));
#391 = ORIENTED_EDGE('',*,*,#392,.T.);
#392 = EDGE_CURVE('',#385,#393,#395,.T.);
#393 = VERTEX_POINT('',#394);
#394 = CARTESIAN_POINT('',(7.5,3.5,4.5));
#395 = LINE('',#396,#397);
#396 = CARTESIAN_POINT('',(7.5,0.,4.5));
#397 = VECTOR('',#398,1.);
#398 = DIRECTION('',(0.,1.,0.));
#399 = ORIENTED_EDGE('',*,*,#400,.T.);
#400 = EDGE_CURVE('',#393,#110,#401,.T.);
#401 = LINE('',#402,#403);
#402 = CARTESIAN_POINT('',(7.5,3.5,4.5));
#403 = VECTOR('',#404,1.);
#404 = DIRECTION('',(-1.,0.,0.));
#405 = PLANE('',#406);
#406 = AXIS2_PLACEMENT_3D('',#407,#408,#409);
#407 = CARTESIAN_POINT('',(3.75,1.75,4.5));
#408 = DIRECTION('',(0.,0.,1.));
#409 = DIRECTION('',(1.,0.,0.));
#410 = ADVANCED_FACE('',(#411),#429,.F.);
#411 = FACE_BOUND('',#412,.F.);
#412 = EDGE_LOOP('',(#413,#421,#422,#423));
#413 = ORIENTED_EDGE('',*,*,#414,.T.);
#414 = EDGE_CURVE('',#415,#393,#417,.T.);
#415 = VERTEX_POINT('',#416);
#416 = CARTESIAN_POINT('',(7.5,3.5,0.));
#417 = LINE('',#418,#419);
#418 = CARTESIAN_POINT('',(7.5,3.5,0.));
#419 = VECTOR('',#420,1.);
#420 = DIRECTION('',(0.,0.,1.));
#421 = ORIENTED_EDGE('',*,*,#400,.T.);
#422 = ORIENTED_EDGE('',*,*,#109,.F.);
#423 = ORIENTED_EDGE('',*,*,#424,.F.);
#424 = EDGE_CURVE('',#415,#102,#425,.T.);
#425 = LINE('',#426,#427);
#426 = CARTESIAN_POINT('',(7.5,3.5,0.));
#427 = VECTOR('',#428,1.);
#428 = DIRECTION('',(-1.,0.,0.));
#429 = PLANE('',#430);
#430 = AXIS2_PLACEMENT_3D('',#431,#432,#433);
#431 = CARTESIAN_POINT('',(7.5,3.5,0.));
#432 = DIRECTION('',(0.,-1.,0.));
#433 = DIRECTION('',(-1.,0.,0.));
#434 = ADVANCED_FACE('',(#435,#453,#487,#521,#555),#589,.F.);
#435 = FACE_BOUND('',#436,.F.);
#436 = EDGE_LOOP('',(#437,#445,#451,#452));
#437 = ORIENTED_EDGE('',*,*,#438,.T.);
#438 = EDGE_CURVE('',#94,#439,#441,.T.);
#439 = VERTEX_POINT('',#440);
#440 = CARTESIAN_POINT('',(7.5,0.,0.));
#441 = LINE('',#442,#443);
#442 = CARTESIAN_POINT('',(0.,0.,0.));
#443 = VECTOR('',#444,1.);
#444 = DIRECTION('',(1.,0.,0.));
#445 = ORIENTED_EDGE('',*,*,#446,.T.);
#446 = EDGE_CURVE('',#439,#415,#447,.T.);
#447 = LINE('',#448,#449);
#448 = CARTESIAN_POINT('',(7.5,0.,0.));
#449 = VECTOR('',#450,1.);
#450 = DIRECTION('',(0.,1.,0.));
#451 = ORIENTED_EDGE('',*,*,#424,.T.);
#452 = ORIENTED_EDGE('',*,*,#101,.T.);
#453 = FACE_BOUND('',#454,.F.);
#454 = EDGE_LOOP('',(#455,#465,#473,#481));
#455 = ORIENTED_EDGE('',*,*,#456,.F.);
#456 = EDGE_CURVE('',#457,#459,#461,.T.);
#457 = VERTEX_POINT('',#458);
#458 = CARTESIAN_POINT('',(4.25,1.55,0.));
#459 = VERTEX_POINT('',#460);
#460 = CARTESIAN_POINT('',(4.25,1.05,0.));
#461 = LINE('',#462,#463);
#462 = CARTESIAN_POINT('',(4.25,1.55,0.));
#463 = VECTOR('',#464,1.);
#464 = DIRECTION('',(0.,-1.,0.));
#465 = ORIENTED_EDGE('',*,*,#466,.F.);
#466 = EDGE_CURVE('',#467,#457,#469,.T.);
#467 = VERTEX_POINT('',#468);
#468 = CARTESIAN_POINT('',(4.75,1.55,0.));
#469 = LINE('',#470,#471);
#470 = CARTESIAN_POINT('',(4.75,1.55,0.));
#471 = VECTOR('',#472,1.);
#472 = DIRECTION('',(-1.,0.,0.));
#473 = ORIENTED_EDGE('',*,*,#474,.F.);
#474 = EDGE_CURVE('',#475,#467,#477,.T.);
#475 = VERTEX_POINT('',#476);
#476 = CARTESIAN_POINT('',(4.75,1.05,0.));
#477 = LINE('',#478,#479);
#478 = CARTESIAN_POINT('',(4.75,1.05,0.));
#479 = VECTOR('',#480,1.);
#480 = DIRECTION('',(0.,1.,0.));
#481 = ORIENTED_EDGE('',*,*,#482,.F.);
#482 = EDGE_CURVE('',#459,#475,#483,.T.);
#483 = LINE('',#484,#485);
#484 = CARTESIAN_POINT('',(4.25,1.05,0.));
#485 = VECTOR('',#486,1.);
#486 = DIRECTION('',(1.,0.,0.));
#487 = FACE_BOUND('',#488,.F.);
#488 = EDGE_LOOP('',(#489,#499,#507,#515));
#489 = ORIENTED_EDGE('',*,*,#490,.F.);
#490 = EDGE_CURVE('',#491,#493,#495,.T.);
#491 = VERTEX_POINT('',#492);
#492 = CARTESIAN_POINT('',(5.75,1.55,0.));
#493 = VERTEX_POINT('',#494);
#494 = CARTESIAN_POINT('',(5.75,1.05,0.));
#495 = LINE('',#496,#497);
#496 = CARTESIAN_POINT('',(5.75,1.55,0.));
#497 = VECTOR('',#498,1.);
#498 = DIRECTION('',(0.,-1.,0.));
#499 = ORIENTED_EDGE('',*,*,#500,.F.);
#500 = EDGE_CURVE('',#501,#491,#503,.T.);
#501 = VERTEX_POINT('',#502);
#502 = CARTESIAN_POINT('',(6.25,1.55,0.));
#503 = LINE('',#504,#505);
#504 = CARTESIAN_POINT('',(6.25,1.55,0.));
#505 = VECTOR('',#506,1.);
#506 = DIRECTION('',(-1.,0.,0.));
#507 = ORIENTED_EDGE('',*,*,#508,.F.);
#508 = EDGE_CURVE('',#509,#501,#511,.T.);
#509 = VERTEX_POINT('',#510);
#510 = CARTESIAN_POINT('',(6.25,1.05,0.));
#511 = LINE('',#512,#513);
#512 = CARTESIAN_POINT('',(6.25,1.05,0.));
#513 = VECTOR('',#514,1.);
#514 = DIRECTION('',(0.,1.,0.));
#515 = ORIENTED_EDGE('',*,*,#516,.F.);
#516 = EDGE_CURVE('',#493,#509,#517,.T.);
#517 = LINE('',#518,#519);
#518 = CARTESIAN_POINT('',(5.75,1.05,0.));
#519 = VECTOR('',#520,1.);
#520 = DIRECTION('',(1.,0.,0.));
#521 = FACE_BOUND('',#522,.F.);
#522 = EDGE_LOOP('',(#523,#533,#541,#549));
#523 = ORIENTED_EDGE('',*,*,#524,.F.);
#524 = EDGE_CURVE('',#525,#527,#529,.T.);
#525 = VERTEX_POINT('',#526);
#526 = CARTESIAN_POINT('',(1.25,1.55,0.));
#527 = VERTEX_POINT('',#528);
#528 = CARTESIAN_POINT('',(1.25,1.05,0.));
#529 = LINE('',#530,#531);
#530 = CARTESIAN_POINT('',(1.25,1.55,0.));
#531 = VECTOR('',#532,1.);
#532 = DIRECTION('',(0.,-1.,0.));
#533 = ORIENTED_EDGE('',*,*,#534,.F.);
#534 = EDGE_CURVE('',#535,#525,#537,.T.);
#535 = VERTEX_POINT('',#536);
#536 = CARTESIAN_POINT('',(1.75,1.55,0.));
#537 = LINE('',#538,#539);
#538 = CARTESIAN_POINT('',(1.75,1.55,0.));
#539 = VECTOR('',#540,1.);
#540 = DIRECTION('',(-1.,0.,0.));
#541 = ORIENTED_EDGE('',*,*,#542,.F.);
#542 = EDGE_CURVE('',#543,#535,#545,.T.);
#543 = VERTEX_POINT('',#544);
#544 = CARTESIAN_POINT('',(1.75,1.05,0.));
#545 = LINE('',#546,#547);
#546 = CARTESIAN_POINT('',(1.75,1.05,0.));
#547 = VECTOR('',#548,1.);
#548 = DIRECTION('',(0.,1.,0.));
#549 = ORIENTED_EDGE('',*,*,#550,.F.);
#550 = EDGE_CURVE('',#527,#543,#551,.T.);
#551 = LINE('',#552,#553);
#552 = CARTESIAN_POINT('',(1.25,1.05,0.));
#553 = VECTOR('',#554,1.);
#554 = DIRECTION('',(1.,0.,0.));
#555 = FACE_BOUND('',#556,.F.);
#556 = EDGE_LOOP('',(#557,#567,#575,#583));
#557 = ORIENTED_EDGE('',*,*,#558,.F.);
#558 = EDGE_CURVE('',#559,#561,#563,.T.);
#559 = VERTEX_POINT('',#560);
#560 = CARTESIAN_POINT('',(2.75,1.55,0.));
#561 = VERTEX_POINT('',#562);
#562 = CARTESIAN_POINT('',(2.75,1.05,0.));
#563 = LINE('',#564,#565);
#564 = CARTESIAN_POINT('',(2.75,1.55,0.));
#565 = VECTOR('',#566,1.);
#566 = DIRECTION('',(0.,-1.,0.));
#567 = ORIENTED_EDGE('',*,*,#568,.F.);
#568 = EDGE_CURVE('',#569,#559,#571,.T.);
#569 = VERTEX_POINT('',#570);
#570 = CARTESIAN_POINT('',(3.25,1.55,0.));
#571 = LINE('',#572,#573);
#572 = CARTESIAN_POINT('',(3.25,1.55,0.));
#573 = VECTOR('',#574,1.);
#574 = DIRECTION('',(-1.,0.,0.));
#575 = ORIENTED_EDGE('',*,*,#576,.F.);
#576 = EDGE_CURVE('',#577,#569,#579,.T.);
#577 = VERTEX_POINT('',#578);
#578 = CARTESIAN_POINT('',(3.25,1.05,0.));
#579 = LINE('',#580,#581);
#580 = CARTESIAN_POINT('',(3.25,1.05,0.));
#581 = VECTOR('',#582,1.);
#582 = DIRECTION('',(0.,1.,0.));
#583 = ORIENTED_EDGE('',*,*,#584,.F.);
#584 = EDGE_CURVE('',#561,#577,#585,.T.);
#585 = LINE('',#586,#587);
#586 = CARTESIAN_POINT('',(2.75,1.05,0.));
#587 = VECTOR('',#588,1.);
#588 = DIRECTION('',(1.,0.,0.));
#589 = PLANE('',#590);
#590 = AXIS2_PLACEMENT_3D('',#591,#592,#593);
#591 = CARTESIAN_POINT('',(3.75,1.75,0.));
#592 = DIRECTION('',(0.,0.,1.));
#593 = DIRECTION('',(1.,0.,0.));
#594 = ADVANCED_FACE('',(#595),#613,.F.);
#595 = FACE_BOUND('',#596,.F.);
#596 = EDGE_LOOP('',(#597,#598,#599,#607));
#597 = ORIENTED_EDGE('',*,*,#438,.F.);
#598 = ORIENTED_EDGE('',*,*,#93,.T.);
#599 = ORIENTED_EDGE('',*,*,#600,.T.);
#600 = EDGE_CURVE('',#86,#601,#603,.T.);
#601 = VERTEX_POINT('',#602);
#602 = CARTESIAN_POINT('',(7.5,0.,0.5));
#603 = LINE('',#604,#605);
#604 = CARTESIAN_POINT('',(0.,0.,0.5));
#605 = VECTOR('',#606,1.);
#606 = DIRECTION('',(1.,0.,0.));
#607 = ORIENTED_EDGE('',*,*,#608,.F.);
#608 = EDGE_CURVE('',#439,#601,#609,.T.);
#609 = LINE('',#610,#611);
#610 = CARTESIAN_POINT('',(7.5,0.,0.));
#611 = VECTOR('',#612,1.);
#612 = DIRECTION('',(0.,0.,1.));
#613 = PLANE('',#614);
#614 = AXIS2_PLACEMENT_3D('',#615,#616,#617);
#615 = CARTESIAN_POINT('',(0.,0.,0.));
#616 = DIRECTION('',(0.,1.,0.));
#617 = DIRECTION('',(1.,0.,0.));
#618 = ADVANCED_FACE('',(#619),#637,.T.);
#619 = FACE_BOUND('',#620,.T.);
#620 = EDGE_LOOP('',(#621,#622,#623,#631));
#621 = ORIENTED_EDGE('',*,*,#85,.F.);
#622 = ORIENTED_EDGE('',*,*,#600,.T.);
#623 = ORIENTED_EDGE('',*,*,#624,.T.);
#624 = EDGE_CURVE('',#601,#625,#627,.T.);
#625 = VERTEX_POINT('',#626);
#626 = CARTESIAN_POINT('',(7.5,0.25,0.5));
#627 = LINE('',#628,#629);
#628 = CARTESIAN_POINT('',(7.5,0.,0.5));
#629 = VECTOR('',#630,1.);
#630 = DIRECTION('',(0.,1.,0.));
#631 = ORIENTED_EDGE('',*,*,#632,.F.);
#632 = EDGE_CURVE('',#78,#625,#633,.T.);
#633 = LINE('',#634,#635);
#634 = CARTESIAN_POINT('',(0.,0.25,0.5));
#635 = VECTOR('',#636,1.);
#636 = DIRECTION('',(1.,0.,0.));
#637 = PLANE('',#638);
#638 = AXIS2_PLACEMENT_3D('',#639,#640,#641);
#639 = CARTESIAN_POINT('',(0.,0.,0.5));
#640 = DIRECTION('',(0.,0.,1.));
#641 = DIRECTION('',(0.,1.,0.));
#642 = ADVANCED_FACE('',(#643),#661,.T.);
#643 = FACE_BOUND('',#644,.T.);
#644 = EDGE_LOOP('',(#645,#646,#647,#655));
#645 = ORIENTED_EDGE('',*,*,#77,.F.);
#646 = ORIENTED_EDGE('',*,*,#632,.T.);
#647 = ORIENTED_EDGE('',*,*,#648,.T.);
#648 = EDGE_CURVE('',#625,#649,#651,.T.);
#649 = VERTEX_POINT('',#650);
#650 = CARTESIAN_POINT('',(7.5,0.25,0.9));
#651 = LINE('',#652,#653);
#652 = CARTESIAN_POINT('',(7.5,0.25,0.25));
#653 = VECTOR('',#654,1.);
#654 = DIRECTION('',(0.,0.,1.));
#655 = ORIENTED_EDGE('',*,*,#656,.F.);
#656 = EDGE_CURVE('',#70,#649,#657,.T.);
#657 = LINE('',#658,#659);
#658 = CARTESIAN_POINT('',(0.,0.25,0.9));
#659 = VECTOR('',#660,1.);
#660 = DIRECTION('',(1.,0.,0.));
#661 = PLANE('',#662);
#662 = AXIS2_PLACEMENT_3D('',#663,#664,#665);
#663 = CARTESIAN_POINT('',(0.,0.25,0.5));
#664 = DIRECTION('',(0.,-1.,0.));
#665 = DIRECTION('',(0.,0.,1.));
#666 = ADVANCED_FACE('',(#667),#685,.T.);
#667 = FACE_BOUND('',#668,.T.);
#668 = EDGE_LOOP('',(#669,#670,#671,#679));
#669 = ORIENTED_EDGE('',*,*,#69,.F.);
#670 = ORIENTED_EDGE('',*,*,#656,.T.);
#671 = ORIENTED_EDGE('',*,*,#672,.T.);
#672 = EDGE_CURVE('',#649,#673,#675,.T.);
#673 = VERTEX_POINT('',#674);
#674 = CARTESIAN_POINT('',(7.5,0.,0.9));
#675 = LINE('',#676,#677);
#676 = CARTESIAN_POINT('',(7.5,0.125,0.9));
#677 = VECTOR('',#678,1.);
#678 = DIRECTION('',(-0.,-1.,-0.));
#679 = ORIENTED_EDGE('',*,*,#680,.F.);
#680 = EDGE_CURVE('',#62,#673,#681,.T.);
#681 = LINE('',#682,#683);
#682 = CARTESIAN_POINT('',(0.,0.,0.9));
#683 = VECTOR('',#684,1.);
#684 = DIRECTION('',(1.,0.,0.));
#685 = PLANE('',#686);
#686 = AXIS2_PLACEMENT_3D('',#687,#688,#689);
#687 = CARTESIAN_POINT('',(0.,0.25,0.9));
#688 = DIRECTION('',(0.,0.,-1.));
#689 = DIRECTION('',(0.,-1.,0.));
#690 = ADVANCED_FACE('',(#691,#709,#743),#777,.F.);
#691 = FACE_BOUND('',#692,.F.);
#692 = EDGE_LOOP('',(#693,#694,#695,#703));
#693 = ORIENTED_EDGE('',*,*,#680,.F.);
#694 = ORIENTED_EDGE('',*,*,#61,.T.);
#695 = ORIENTED_EDGE('',*,*,#696,.T.);
#696 = EDGE_CURVE('',#54,#697,#699,.T.);
#697 = VERTEX_POINT('',#698);
#698 = CARTESIAN_POINT('',(7.5,0.,4.5));
#699 = LINE('',#700,#701);
#700 = CARTESIAN_POINT('',(0.,0.,4.5));
#701 = VECTOR('',#702,1.);
#702 = DIRECTION('',(1.,0.,0.));
#703 = ORIENTED_EDGE('',*,*,#704,.F.);
#704 = EDGE_CURVE('',#673,#697,#705,.T.);
#705 = LINE('',#706,#707);
#706 = CARTESIAN_POINT('',(7.5,0.,0.));
#707 = VECTOR('',#708,1.);
#708 = DIRECTION('',(0.,0.,1.));
#709 = FACE_BOUND('',#710,.F.);
#710 = EDGE_LOOP('',(#711,#721,#729,#737));
#711 = ORIENTED_EDGE('',*,*,#712,.T.);
#712 = EDGE_CURVE('',#713,#715,#717,.T.);
#713 = VERTEX_POINT('',#714);
#714 = CARTESIAN_POINT('',(0.5,5.728750807066E-16,2.58));
#715 = VERTEX_POINT('',#716);
#716 = CARTESIAN_POINT('',(0.5,3.508304757815E-16,1.58));
#717 = LINE('',#718,#719);
#718 = CARTESIAN_POINT('',(0.5,5.728750807066E-16,2.58));
#719 = VECTOR('',#720,1.);
#720 = DIRECTION('',(0.,-2.22044604925E-16,-1.));
#721 = ORIENTED_EDGE('',*,*,#722,.T.);
#722 = EDGE_CURVE('',#715,#723,#725,.T.);
#723 = VERTEX_POINT('',#724);
#724 = CARTESIAN_POINT('',(1.2,3.508304757815E-16,1.58));
#725 = LINE('',#726,#727);
#726 = CARTESIAN_POINT('',(0.5,3.508304757815E-16,1.58));
#727 = VECTOR('',#728,1.);
#728 = DIRECTION('',(1.,0.,0.));
#729 = ORIENTED_EDGE('',*,*,#730,.T.);
#730 = EDGE_CURVE('',#723,#731,#733,.T.);
#731 = VERTEX_POINT('',#732);
#732 = CARTESIAN_POINT('',(1.2,5.728750807066E-16,2.58));
#733 = LINE('',#734,#735);
#734 = CARTESIAN_POINT('',(1.2,3.508304757815E-16,1.58));
#735 = VECTOR('',#736,1.);
#736 = DIRECTION('',(0.,2.22044604925E-16,1.));
#737 = ORIENTED_EDGE('',*,*,#738,.T.);
#738 = EDGE_CURVE('',#731,#713,#739,.T.);
#739 = LINE('',#740,#741);
#740 = CARTESIAN_POINT('',(1.2,5.728750807066E-16,2.58));
#741 = VECTOR('',#742,1.);
#742 = DIRECTION('',(-1.,0.,0.));
#743 = FACE_BOUND('',#744,.F.);
#744 = EDGE_LOOP('',(#745,#755,#763,#771));
#745 = ORIENTED_EDGE('',*,*,#746,.T.);
#746 = EDGE_CURVE('',#747,#749,#751,.T.);
#747 = VERTEX_POINT('',#748);
#748 = CARTESIAN_POINT('',(6.9,5.551115123126E-16,2.5));
#749 = VERTEX_POINT('',#750);
#750 = CARTESIAN_POINT('',(6.2,5.551115123126E-16,2.5));
#751 = LINE('',#752,#753);
#752 = CARTESIAN_POINT('',(6.9,5.551115123126E-16,2.5));
#753 = VECTOR('',#754,1.);
#754 = DIRECTION('',(-1.,0.,0.));
#755 = ORIENTED_EDGE('',*,*,#756,.T.);
#756 = EDGE_CURVE('',#749,#757,#759,.T.);
#757 = VERTEX_POINT('',#758);
#758 = CARTESIAN_POINT('',(6.2,3.330669073875E-16,1.5));
#759 = LINE('',#760,#761);
#760 = CARTESIAN_POINT('',(6.2,5.551115123126E-16,2.5));
#761 = VECTOR('',#762,1.);
#762 = DIRECTION('',(0.,-2.22044604925E-16,-1.));
#763 = ORIENTED_EDGE('',*,*,#764,.T.);
#764 = EDGE_CURVE('',#757,#765,#767,.T.);
#765 = VERTEX_POINT('',#766);
#766 = CARTESIAN_POINT('',(6.9,3.330669073875E-16,1.5));
#767 = LINE('',#768,#769);
#768 = CARTESIAN_POINT('',(6.2,3.330669073875E-16,1.5));
#769 = VECTOR('',#770,1.);
#770 = DIRECTION('',(1.,0.,0.));
#771 = ORIENTED_EDGE('',*,*,#772,.T.);
#772 = EDGE_CURVE('',#765,#747,#773,.T.);
#773 = LINE('',#774,#775);
#774 = CARTESIAN_POINT('',(6.9,3.330669073875E-16,1.5));
#775 = VECTOR('',#776,1.);
#776 = DIRECTION('',(0.,2.22044604925E-16,1.));
#777 = PLANE('',#778);
#778 = AXIS2_PLACEMENT_3D('',#779,#780,#781);
#779 = CARTESIAN_POINT('',(0.,0.,0.));
#780 = DIRECTION('',(0.,1.,0.));
#781 = DIRECTION('',(1.,0.,0.));
#782 = ADVANCED_FACE('',(#783),#826,.T.);
#783 = FACE_BOUND('',#784,.T.);
#784 = EDGE_LOOP('',(#785,#786,#787,#795,#803,#811,#819,#825));
#785 = ORIENTED_EDGE('',*,*,#53,.T.);
#786 = ORIENTED_EDGE('',*,*,#696,.T.);
#787 = ORIENTED_EDGE('',*,*,#788,.T.);
#788 = EDGE_CURVE('',#697,#789,#791,.T.);
#789 = VERTEX_POINT('',#790);
#790 = CARTESIAN_POINT('',(7.5,0.7,4.5));
#791 = LINE('',#792,#793);
#792 = CARTESIAN_POINT('',(7.5,0.,4.5));
#793 = VECTOR('',#794,1.);
#794 = DIRECTION('',(0.,1.,0.));
#795 = ORIENTED_EDGE('',*,*,#796,.F.);
#796 = EDGE_CURVE('',#797,#789,#799,.T.);
#797 = VERTEX_POINT('',#798);
#798 = CARTESIAN_POINT('',(7.1,0.7,4.5));
#799 = LINE('',#800,#801);
#800 = CARTESIAN_POINT('',(7.1,0.7,4.5));
#801 = VECTOR('',#802,1.);
#802 = DIRECTION('',(1.,0.,0.));
#803 = ORIENTED_EDGE('',*,*,#804,.T.);
#804 = EDGE_CURVE('',#797,#805,#807,.T.);
#805 = VERTEX_POINT('',#806);
#806 = CARTESIAN_POINT('',(7.1,0.3,4.5));
#807 = LINE('',#808,#809);
#808 = CARTESIAN_POINT('',(7.1,3.2,4.5));
#809 = VECTOR('',#810,1.);
#810 = DIRECTION('',(0.,-1.,0.));
#811 = ORIENTED_EDGE('',*,*,#812,.F.);
#812 = EDGE_CURVE('',#813,#805,#815,.T.);
#813 = VERTEX_POINT('',#814);
#814 = CARTESIAN_POINT('',(0.4,0.3,4.5));
#815 = LINE('',#816,#817);
#816 = CARTESIAN_POINT('',(0.4,0.3,4.5));
#817 = VECTOR('',#818,1.);
#818 = DIRECTION('',(1.,0.,0.));
#819 = ORIENTED_EDGE('',*,*,#820,.F.);
#820 = EDGE_CURVE('',#183,#813,#821,.T.);
#821 = LINE('',#822,#823);
#822 = CARTESIAN_POINT('',(0.4,3.2,4.5));
#823 = VECTOR('',#824,1.);
#824 = DIRECTION('',(0.,-1.,0.));
#825 = ORIENTED_EDGE('',*,*,#182,.F.);
#826 = PLANE('',#827);
#827 = AXIS2_PLACEMENT_3D('',#828,#829,#830);
#828 = CARTESIAN_POINT('',(3.75,1.75,4.5));
#829 = DIRECTION('',(0.,0.,1.));
#830 = DIRECTION('',(1.,0.,0.));
#831 = ADVANCED_FACE('',(#832),#865,.F.);
#832 = FACE_BOUND('',#833,.F.);
#833 = EDGE_LOOP('',(#834,#835,#843,#851,#857,#858,#859,#860,#861,#862,
    #863,#864));
#834 = ORIENTED_EDGE('',*,*,#360,.F.);
#835 = ORIENTED_EDGE('',*,*,#836,.T.);
#836 = EDGE_CURVE('',#361,#837,#839,.T.);
#837 = VERTEX_POINT('',#838);
#838 = CARTESIAN_POINT('',(0.4,3.2,1.));
#839 = LINE('',#840,#841);
#840 = CARTESIAN_POINT('',(0.4,3.2,4.5));
#841 = VECTOR('',#842,1.);
#842 = DIRECTION('',(-0.,-0.,-1.));
#843 = ORIENTED_EDGE('',*,*,#844,.T.);
#844 = EDGE_CURVE('',#837,#845,#847,.T.);
#845 = VERTEX_POINT('',#846);
#846 = CARTESIAN_POINT('',(0.4,0.3,1.));
#847 = LINE('',#848,#849);
#848 = CARTESIAN_POINT('',(0.4,3.2,1.));
#849 = VECTOR('',#850,1.);
#850 = DIRECTION('',(0.,-1.,0.));
#851 = ORIENTED_EDGE('',*,*,#852,.F.);
#852 = EDGE_CURVE('',#813,#845,#853,.T.);
#853 = LINE('',#854,#855);
#854 = CARTESIAN_POINT('',(0.4,0.3,4.5));
#855 = VECTOR('',#856,1.);
#856 = DIRECTION('',(-0.,-0.,-1.));
#857 = ORIENTED_EDGE('',*,*,#820,.F.);
#858 = ORIENTED_EDGE('',*,*,#190,.T.);
#859 = ORIENTED_EDGE('',*,*,#221,.F.);
#860 = ORIENTED_EDGE('',*,*,#245,.F.);
#861 = ORIENTED_EDGE('',*,*,#270,.F.);
#862 = ORIENTED_EDGE('',*,*,#294,.F.);
#863 = ORIENTED_EDGE('',*,*,#319,.F.);
#864 = ORIENTED_EDGE('',*,*,#334,.T.);
#865 = PLANE('',#866);
#866 = AXIS2_PLACEMENT_3D('',#867,#868,#869);
#867 = CARTESIAN_POINT('',(0.4,3.2,4.5));
#868 = DIRECTION('',(-1.,0.,0.));
#869 = DIRECTION('',(0.,-1.,0.));
#870 = ADVANCED_FACE('',(#871),#938,.F.);
#871 = FACE_BOUND('',#872,.F.);
#872 = EDGE_LOOP('',(#873,#881,#882,#883,#884,#885,#886,#887,#888,#889,
    #890,#898,#906,#915,#923,#932));
#873 = ORIENTED_EDGE('',*,*,#874,.F.);
#874 = EDGE_CURVE('',#385,#875,#877,.T.);
#875 = VERTEX_POINT('',#876);
#876 = CARTESIAN_POINT('',(7.5,2.1,4.2));
#877 = LINE('',#878,#879);
#878 = CARTESIAN_POINT('',(7.5,0.6,2.7));
#879 = VECTOR('',#880,1.);
#880 = DIRECTION('',(-0.,-0.707106781187,-0.707106781187));
#881 = ORIENTED_EDGE('',*,*,#392,.T.);
#882 = ORIENTED_EDGE('',*,*,#414,.F.);
#883 = ORIENTED_EDGE('',*,*,#446,.F.);
#884 = ORIENTED_EDGE('',*,*,#608,.T.);
#885 = ORIENTED_EDGE('',*,*,#624,.T.);
#886 = ORIENTED_EDGE('',*,*,#648,.T.);
#887 = ORIENTED_EDGE('',*,*,#672,.T.);
#888 = ORIENTED_EDGE('',*,*,#704,.T.);
#889 = ORIENTED_EDGE('',*,*,#788,.T.);
#890 = ORIENTED_EDGE('',*,*,#891,.T.);
#891 = EDGE_CURVE('',#789,#892,#894,.T.);
#892 = VERTEX_POINT('',#893);
#893 = CARTESIAN_POINT('',(7.5,1.,4.2));
#894 = LINE('',#895,#896);
#895 = CARTESIAN_POINT('',(7.5,1.725,3.475));
#896 = VECTOR('',#897,1.);
#897 = DIRECTION('',(0.,0.707106781187,-0.707106781187));
#898 = ORIENTED_EDGE('',*,*,#899,.F.);
#899 = EDGE_CURVE('',#900,#892,#902,.T.);
#900 = VERTEX_POINT('',#901);
#901 = CARTESIAN_POINT('',(7.5,1.,2.500131));
#902 = LINE('',#903,#904);
#903 = CARTESIAN_POINT('',(7.5,1.,1.2500655));
#904 = VECTOR('',#905,1.);
#905 = DIRECTION('',(0.,0.,1.));
#906 = ORIENTED_EDGE('',*,*,#907,.F.);
#907 = EDGE_CURVE('',#908,#900,#910,.T.);
#908 = VERTEX_POINT('',#909);
#909 = CARTESIAN_POINT('',(7.5,1.5,2.000131));
#910 = CIRCLE('',#911,0.5);
#911 = AXIS2_PLACEMENT_3D('',#912,#913,#914);
#912 = CARTESIAN_POINT('',(7.5,1.5,2.500131));
#913 = DIRECTION('',(-1.,0.,0.));
#914 = DIRECTION('',(0.,-1.,0.));
#915 = ORIENTED_EDGE('',*,*,#916,.F.);
#916 = EDGE_CURVE('',#917,#908,#919,.T.);
#917 = VERTEX_POINT('',#918);
#918 = CARTESIAN_POINT('',(7.5,1.6,2.000131));
#919 = LINE('',#920,#921);
#920 = CARTESIAN_POINT('',(7.5,0.8,2.000131));
#921 = VECTOR('',#922,1.);
#922 = DIRECTION('',(-0.,-1.,-0.));
#923 = ORIENTED_EDGE('',*,*,#924,.F.);
#924 = EDGE_CURVE('',#925,#917,#927,.T.);
#925 = VERTEX_POINT('',#926);
#926 = CARTESIAN_POINT('',(7.5,2.1,2.500131));
#927 = CIRCLE('',#928,0.5);
#928 = AXIS2_PLACEMENT_3D('',#929,#930,#931);
#929 = CARTESIAN_POINT('',(7.5,1.6,2.500131));
#930 = DIRECTION('',(-1.,0.,0.));
#931 = DIRECTION('',(0.,-1.,0.));
#932 = ORIENTED_EDGE('',*,*,#933,.F.);
#933 = EDGE_CURVE('',#875,#925,#934,.T.);
#934 = LINE('',#935,#936);
#935 = CARTESIAN_POINT('',(7.5,2.1,2.2500655));
#936 = VECTOR('',#937,1.);
#937 = DIRECTION('',(0.,0.,-1.));
#938 = PLANE('',#939);
#939 = AXIS2_PLACEMENT_3D('',#940,#941,#942);
#940 = CARTESIAN_POINT('',(7.5,0.,0.));
#941 = DIRECTION('',(-1.,0.,0.));
#942 = DIRECTION('',(0.,1.,0.));
#943 = ADVANCED_FACE('',(#944),#962,.F.);
#944 = FACE_BOUND('',#945,.F.);
#945 = EDGE_LOOP('',(#946,#954,#960,#961));
#946 = ORIENTED_EDGE('',*,*,#947,.T.);
#947 = EDGE_CURVE('',#369,#948,#950,.T.);
#948 = VERTEX_POINT('',#949);
#949 = CARTESIAN_POINT('',(7.1,3.2,1.));
#950 = LINE('',#951,#952);
#951 = CARTESIAN_POINT('',(7.1,3.2,4.5));
#952 = VECTOR('',#953,1.);
#953 = DIRECTION('',(-0.,-0.,-1.));
#954 = ORIENTED_EDGE('',*,*,#955,.T.);
#955 = EDGE_CURVE('',#948,#837,#956,.T.);
#956 = LINE('',#957,#958);
#957 = CARTESIAN_POINT('',(7.1,3.2,1.));
#958 = VECTOR('',#959,1.);
#959 = DIRECTION('',(-1.,0.,0.));
#960 = ORIENTED_EDGE('',*,*,#836,.F.);
#961 = ORIENTED_EDGE('',*,*,#368,.F.);
#962 = PLANE('',#963);
#963 = AXIS2_PLACEMENT_3D('',#964,#965,#966);
#964 = CARTESIAN_POINT('',(7.1,3.2,4.5));
#965 = DIRECTION('',(0.,1.,0.));
#966 = DIRECTION('',(-1.,0.,0.));
#967 = ADVANCED_FACE('',(#968),#986,.F.);
#968 = FACE_BOUND('',#969,.T.);
#969 = EDGE_LOOP('',(#970,#971,#972,#980));
#970 = ORIENTED_EDGE('',*,*,#874,.F.);
#971 = ORIENTED_EDGE('',*,*,#384,.T.);
#972 = ORIENTED_EDGE('',*,*,#973,.T.);
#973 = EDGE_CURVE('',#377,#974,#976,.T.);
#974 = VERTEX_POINT('',#975);
#975 = CARTESIAN_POINT('',(7.1,2.1,4.2));
#976 = LINE('',#977,#978);
#977 = CARTESIAN_POINT('',(7.1,2.525,4.625));
#978 = VECTOR('',#979,1.);
#979 = DIRECTION('',(-0.,-0.707106781187,-0.707106781187));
#980 = ORIENTED_EDGE('',*,*,#981,.F.);
#981 = EDGE_CURVE('',#875,#974,#982,.T.);
#982 = LINE('',#983,#984);
#983 = CARTESIAN_POINT('',(7.5,2.1,4.2));
#984 = VECTOR('',#985,1.);
#985 = DIRECTION('',(-1.,0.,0.));
#986 = PLANE('',#987);
#987 = AXIS2_PLACEMENT_3D('',#988,#989,#990);
#988 = CARTESIAN_POINT('',(7.5,2.25,4.35));
#989 = DIRECTION('',(-9.293197397199E-19,0.707106781187,-0.707106781187)
  );
#990 = DIRECTION('',(1.,6.571282898464E-19,-6.571282898464E-19));
#991 = ADVANCED_FACE('',(#992),#1060,.T.);
#992 = FACE_BOUND('',#993,.T.);
#993 = EDGE_LOOP('',(#994,#995,#996,#1004,#1010,#1011,#1019,#1027,#1036,
    #1044,#1053,#1059));
#994 = ORIENTED_EDGE('',*,*,#376,.F.);
#995 = ORIENTED_EDGE('',*,*,#947,.T.);
#996 = ORIENTED_EDGE('',*,*,#997,.T.);
#997 = EDGE_CURVE('',#948,#998,#1000,.T.);
#998 = VERTEX_POINT('',#999);
#999 = CARTESIAN_POINT('',(7.1,0.3,1.));
#1000 = LINE('',#1001,#1002);
#1001 = CARTESIAN_POINT('',(7.1,3.2,1.));
#1002 = VECTOR('',#1003,1.);
#1003 = DIRECTION('',(0.,-1.,0.));
#1004 = ORIENTED_EDGE('',*,*,#1005,.F.);
#1005 = EDGE_CURVE('',#805,#998,#1006,.T.);
#1006 = LINE('',#1007,#1008);
#1007 = CARTESIAN_POINT('',(7.1,0.3,4.5));
#1008 = VECTOR('',#1009,1.);
#1009 = DIRECTION('',(-0.,-0.,-1.));
#1010 = ORIENTED_EDGE('',*,*,#804,.F.);
#1011 = ORIENTED_EDGE('',*,*,#1012,.T.);
#1012 = EDGE_CURVE('',#797,#1013,#1015,.T.);
#1013 = VERTEX_POINT('',#1014);
#1014 = CARTESIAN_POINT('',(7.1,1.,4.2));
#1015 = LINE('',#1016,#1017);
#1016 = CARTESIAN_POINT('',(7.1,1.4,3.8));
#1017 = VECTOR('',#1018,1.);
#1018 = DIRECTION('',(0.,0.707106781187,-0.707106781187));
#1019 = ORIENTED_EDGE('',*,*,#1020,.F.);
#1020 = EDGE_CURVE('',#1021,#1013,#1023,.T.);
#1021 = VERTEX_POINT('',#1022);
#1022 = CARTESIAN_POINT('',(7.1,1.,2.500131));
#1023 = LINE('',#1024,#1025);
#1024 = CARTESIAN_POINT('',(7.1,1.,3.5000655));
#1025 = VECTOR('',#1026,1.);
#1026 = DIRECTION('',(0.,0.,1.));
#1027 = ORIENTED_EDGE('',*,*,#1028,.F.);
#1028 = EDGE_CURVE('',#1029,#1021,#1031,.T.);
#1029 = VERTEX_POINT('',#1030);
#1030 = CARTESIAN_POINT('',(7.1,1.5,2.000131));
#1031 = CIRCLE('',#1032,0.5);
#1032 = AXIS2_PLACEMENT_3D('',#1033,#1034,#1035);
#1033 = CARTESIAN_POINT('',(7.1,1.5,2.500131));
#1034 = DIRECTION('',(-1.,0.,0.));
#1035 = DIRECTION('',(0.,-1.,0.));
#1036 = ORIENTED_EDGE('',*,*,#1037,.F.);
#1037 = EDGE_CURVE('',#1038,#1029,#1040,.T.);
#1038 = VERTEX_POINT('',#1039);
#1039 = CARTESIAN_POINT('',(7.1,1.6,2.000131));
#1040 = LINE('',#1041,#1042);
#1041 = CARTESIAN_POINT('',(7.1,2.4,2.000131));
#1042 = VECTOR('',#1043,1.);
#1043 = DIRECTION('',(-0.,-1.,-0.));
#1044 = ORIENTED_EDGE('',*,*,#1045,.F.);
#1045 = EDGE_CURVE('',#1046,#1038,#1048,.T.);
#1046 = VERTEX_POINT('',#1047);
#1047 = CARTESIAN_POINT('',(7.1,2.1,2.500131));
#1048 = CIRCLE('',#1049,0.5);
#1049 = AXIS2_PLACEMENT_3D('',#1050,#1051,#1052);
#1050 = CARTESIAN_POINT('',(7.1,1.6,2.500131));
#1051 = DIRECTION('',(-1.,0.,0.));
#1052 = DIRECTION('',(0.,-1.,0.));
#1053 = ORIENTED_EDGE('',*,*,#1054,.F.);
#1054 = EDGE_CURVE('',#974,#1046,#1055,.T.);
#1055 = LINE('',#1056,#1057);
#1056 = CARTESIAN_POINT('',(7.1,2.1,4.5000655));
#1057 = VECTOR('',#1058,1.);
#1058 = DIRECTION('',(0.,0.,-1.));
#1059 = ORIENTED_EDGE('',*,*,#973,.F.);
#1060 = PLANE('',#1061);
#1061 = AXIS2_PLACEMENT_3D('',#1062,#1063,#1064);
#1062 = CARTESIAN_POINT('',(7.1,3.2,4.5));
#1063 = DIRECTION('',(-1.,0.,0.));
#1064 = DIRECTION('',(0.,-1.,0.));
#1065 = ADVANCED_FACE('',(#1066),#1091,.T.);
#1066 = FACE_BOUND('',#1067,.T.);
#1067 = EDGE_LOOP('',(#1068,#1076,#1084,#1090));
#1068 = ORIENTED_EDGE('',*,*,#1069,.T.);
#1069 = EDGE_CURVE('',#457,#1070,#1072,.T.);
#1070 = VERTEX_POINT('',#1071);
#1071 = CARTESIAN_POINT('',(4.25,1.55,1.));
#1072 = LINE('',#1073,#1074);
#1073 = CARTESIAN_POINT('',(4.25,1.55,0.));
#1074 = VECTOR('',#1075,1.);
#1075 = DIRECTION('',(0.,0.,1.));
#1076 = ORIENTED_EDGE('',*,*,#1077,.T.);
#1077 = EDGE_CURVE('',#1070,#1078,#1080,.T.);
#1078 = VERTEX_POINT('',#1079);
#1079 = CARTESIAN_POINT('',(4.25,1.05,1.));
#1080 = LINE('',#1081,#1082);
#1081 = CARTESIAN_POINT('',(4.25,1.55,1.));
#1082 = VECTOR('',#1083,1.);
#1083 = DIRECTION('',(0.,-1.,0.));
#1084 = ORIENTED_EDGE('',*,*,#1085,.F.);
#1085 = EDGE_CURVE('',#459,#1078,#1086,.T.);
#1086 = LINE('',#1087,#1088);
#1087 = CARTESIAN_POINT('',(4.25,1.05,0.));
#1088 = VECTOR('',#1089,1.);
#1089 = DIRECTION('',(0.,0.,1.));
#1090 = ORIENTED_EDGE('',*,*,#456,.F.);
#1091 = PLANE('',#1092);
#1092 = AXIS2_PLACEMENT_3D('',#1093,#1094,#1095);
#1093 = CARTESIAN_POINT('',(4.25,1.55,0.));
#1094 = DIRECTION('',(1.,0.,-0.));
#1095 = DIRECTION('',(0.,-1.,0.));
#1096 = ADVANCED_FACE('',(#1097),#1115,.T.);
#1097 = FACE_BOUND('',#1098,.T.);
#1098 = EDGE_LOOP('',(#1099,#1100,#1108,#1114));
#1099 = ORIENTED_EDGE('',*,*,#1085,.T.);
#1100 = ORIENTED_EDGE('',*,*,#1101,.T.);
#1101 = EDGE_CURVE('',#1078,#1102,#1104,.T.);
#1102 = VERTEX_POINT('',#1103);
#1103 = CARTESIAN_POINT('',(4.75,1.05,1.));
#1104 = LINE('',#1105,#1106);
#1105 = CARTESIAN_POINT('',(4.25,1.05,1.));
#1106 = VECTOR('',#1107,1.);
#1107 = DIRECTION('',(1.,0.,0.));
#1108 = ORIENTED_EDGE('',*,*,#1109,.F.);
#1109 = EDGE_CURVE('',#475,#1102,#1110,.T.);
#1110 = LINE('',#1111,#1112);
#1111 = CARTESIAN_POINT('',(4.75,1.05,0.));
#1112 = VECTOR('',#1113,1.);
#1113 = DIRECTION('',(0.,0.,1.));
#1114 = ORIENTED_EDGE('',*,*,#482,.F.);
#1115 = PLANE('',#1116);
#1116 = AXIS2_PLACEMENT_3D('',#1117,#1118,#1119);
#1117 = CARTESIAN_POINT('',(4.25,1.05,0.));
#1118 = DIRECTION('',(0.,1.,0.));
#1119 = DIRECTION('',(1.,0.,0.));
#1120 = ADVANCED_FACE('',(#1121),#1139,.T.);
#1121 = FACE_BOUND('',#1122,.T.);
#1122 = EDGE_LOOP('',(#1123,#1124,#1132,#1138));
#1123 = ORIENTED_EDGE('',*,*,#1109,.T.);
#1124 = ORIENTED_EDGE('',*,*,#1125,.T.);
#1125 = EDGE_CURVE('',#1102,#1126,#1128,.T.);
#1126 = VERTEX_POINT('',#1127);
#1127 = CARTESIAN_POINT('',(4.75,1.55,1.));
#1128 = LINE('',#1129,#1130);
#1129 = CARTESIAN_POINT('',(4.75,1.05,1.));
#1130 = VECTOR('',#1131,1.);
#1131 = DIRECTION('',(0.,1.,0.));
#1132 = ORIENTED_EDGE('',*,*,#1133,.F.);
#1133 = EDGE_CURVE('',#467,#1126,#1134,.T.);
#1134 = LINE('',#1135,#1136);
#1135 = CARTESIAN_POINT('',(4.75,1.55,0.));
#1136 = VECTOR('',#1137,1.);
#1137 = DIRECTION('',(0.,0.,1.));
#1138 = ORIENTED_EDGE('',*,*,#474,.F.);
#1139 = PLANE('',#1140);
#1140 = AXIS2_PLACEMENT_3D('',#1141,#1142,#1143);
#1141 = CARTESIAN_POINT('',(4.75,1.05,0.));
#1142 = DIRECTION('',(-1.,0.,0.));
#1143 = DIRECTION('',(0.,1.,0.));
#1144 = ADVANCED_FACE('',(#1145),#1156,.T.);
#1145 = FACE_BOUND('',#1146,.T.);
#1146 = EDGE_LOOP('',(#1147,#1148,#1154,#1155));
#1147 = ORIENTED_EDGE('',*,*,#1133,.T.);
#1148 = ORIENTED_EDGE('',*,*,#1149,.T.);
#1149 = EDGE_CURVE('',#1126,#1070,#1150,.T.);
#1150 = LINE('',#1151,#1152);
#1151 = CARTESIAN_POINT('',(4.75,1.55,1.));
#1152 = VECTOR('',#1153,1.);
#1153 = DIRECTION('',(-1.,0.,0.));
#1154 = ORIENTED_EDGE('',*,*,#1069,.F.);
#1155 = ORIENTED_EDGE('',*,*,#466,.F.);
#1156 = PLANE('',#1157);
#1157 = AXIS2_PLACEMENT_3D('',#1158,#1159,#1160);
#1158 = CARTESIAN_POINT('',(4.75,1.55,0.));
#1159 = DIRECTION('',(0.,-1.,0.));
#1160 = DIRECTION('',(-1.,0.,0.));
#1161 = ADVANCED_FACE('',(#1162),#1187,.T.);
#1162 = FACE_BOUND('',#1163,.T.);
#1163 = EDGE_LOOP('',(#1164,#1172,#1180,#1186));
#1164 = ORIENTED_EDGE('',*,*,#1165,.T.);
#1165 = EDGE_CURVE('',#491,#1166,#1168,.T.);
#1166 = VERTEX_POINT('',#1167);
#1167 = CARTESIAN_POINT('',(5.75,1.55,1.));
#1168 = LINE('',#1169,#1170);
#1169 = CARTESIAN_POINT('',(5.75,1.55,0.));
#1170 = VECTOR('',#1171,1.);
#1171 = DIRECTION('',(0.,0.,1.));
#1172 = ORIENTED_EDGE('',*,*,#1173,.T.);
#1173 = EDGE_CURVE('',#1166,#1174,#1176,.T.);
#1174 = VERTEX_POINT('',#1175);
#1175 = CARTESIAN_POINT('',(5.75,1.05,1.));
#1176 = LINE('',#1177,#1178);
#1177 = CARTESIAN_POINT('',(5.75,1.55,1.));
#1178 = VECTOR('',#1179,1.);
#1179 = DIRECTION('',(0.,-1.,0.));
#1180 = ORIENTED_EDGE('',*,*,#1181,.F.);
#1181 = EDGE_CURVE('',#493,#1174,#1182,.T.);
#1182 = LINE('',#1183,#1184);
#1183 = CARTESIAN_POINT('',(5.75,1.05,0.));
#1184 = VECTOR('',#1185,1.);
#1185 = DIRECTION('',(0.,0.,1.));
#1186 = ORIENTED_EDGE('',*,*,#490,.F.);
#1187 = PLANE('',#1188);
#1188 = AXIS2_PLACEMENT_3D('',#1189,#1190,#1191);
#1189 = CARTESIAN_POINT('',(5.75,1.55,0.));
#1190 = DIRECTION('',(1.,0.,-0.));
#1191 = DIRECTION('',(0.,-1.,0.));
#1192 = ADVANCED_FACE('',(#1193),#1211,.T.);
#1193 = FACE_BOUND('',#1194,.T.);
#1194 = EDGE_LOOP('',(#1195,#1196,#1204,#1210));
#1195 = ORIENTED_EDGE('',*,*,#1181,.T.);
#1196 = ORIENTED_EDGE('',*,*,#1197,.T.);
#1197 = EDGE_CURVE('',#1174,#1198,#1200,.T.);
#1198 = VERTEX_POINT('',#1199);
#1199 = CARTESIAN_POINT('',(6.25,1.05,1.));
#1200 = LINE('',#1201,#1202);
#1201 = CARTESIAN_POINT('',(5.75,1.05,1.));
#1202 = VECTOR('',#1203,1.);
#1203 = DIRECTION('',(1.,0.,0.));
#1204 = ORIENTED_EDGE('',*,*,#1205,.F.);
#1205 = EDGE_CURVE('',#509,#1198,#1206,.T.);
#1206 = LINE('',#1207,#1208);
#1207 = CARTESIAN_POINT('',(6.25,1.05,0.));
#1208 = VECTOR('',#1209,1.);
#1209 = DIRECTION('',(0.,0.,1.));
#1210 = ORIENTED_EDGE('',*,*,#516,.F.);
#1211 = PLANE('',#1212);
#1212 = AXIS2_PLACEMENT_3D('',#1213,#1214,#1215);
#1213 = CARTESIAN_POINT('',(5.75,1.05,0.));
#1214 = DIRECTION('',(0.,1.,0.));
#1215 = DIRECTION('',(1.,0.,0.));
#1216 = ADVANCED_FACE('',(#1217),#1235,.T.);
#1217 = FACE_BOUND('',#1218,.T.);
#1218 = EDGE_LOOP('',(#1219,#1220,#1228,#1234));
#1219 = ORIENTED_EDGE('',*,*,#1205,.T.);
#1220 = ORIENTED_EDGE('',*,*,#1221,.T.);
#1221 = EDGE_CURVE('',#1198,#1222,#1224,.T.);
#1222 = VERTEX_POINT('',#1223);
#1223 = CARTESIAN_POINT('',(6.25,1.55,1.));
#1224 = LINE('',#1225,#1226);
#1225 = CARTESIAN_POINT('',(6.25,1.05,1.));
#1226 = VECTOR('',#1227,1.);
#1227 = DIRECTION('',(0.,1.,0.));
#1228 = ORIENTED_EDGE('',*,*,#1229,.F.);
#1229 = EDGE_CURVE('',#501,#1222,#1230,.T.);
#1230 = LINE('',#1231,#1232);
#1231 = CARTESIAN_POINT('',(6.25,1.55,0.));
#1232 = VECTOR('',#1233,1.);
#1233 = DIRECTION('',(0.,0.,1.));
#1234 = ORIENTED_EDGE('',*,*,#508,.F.);
#1235 = PLANE('',#1236);
#1236 = AXIS2_PLACEMENT_3D('',#1237,#1238,#1239);
#1237 = CARTESIAN_POINT('',(6.25,1.05,0.));
#1238 = DIRECTION('',(-1.,0.,0.));
#1239 = DIRECTION('',(0.,1.,0.));
#1240 = ADVANCED_FACE('',(#1241),#1252,.T.);
#1241 = FACE_BOUND('',#1242,.T.);
#1242 = EDGE_LOOP('',(#1243,#1244,#1250,#1251));
#1243 = ORIENTED_EDGE('',*,*,#1229,.T.);
#1244 = ORIENTED_EDGE('',*,*,#1245,.T.);
#1245 = EDGE_CURVE('',#1222,#1166,#1246,.T.);
#1246 = LINE('',#1247,#1248);
#1247 = CARTESIAN_POINT('',(6.25,1.55,1.));
#1248 = VECTOR('',#1249,1.);
#1249 = DIRECTION('',(-1.,0.,0.));
#1250 = ORIENTED_EDGE('',*,*,#1165,.F.);
#1251 = ORIENTED_EDGE('',*,*,#500,.F.);
#1252 = PLANE('',#1253);
#1253 = AXIS2_PLACEMENT_3D('',#1254,#1255,#1256);
#1254 = CARTESIAN_POINT('',(6.25,1.55,0.));
#1255 = DIRECTION('',(0.,-1.,0.));
#1256 = DIRECTION('',(-1.,0.,0.));
#1257 = ADVANCED_FACE('',(#1258),#1283,.T.);
#1258 = FACE_BOUND('',#1259,.T.);
#1259 = EDGE_LOOP('',(#1260,#1268,#1276,#1282));
#1260 = ORIENTED_EDGE('',*,*,#1261,.T.);
#1261 = EDGE_CURVE('',#525,#1262,#1264,.T.);
#1262 = VERTEX_POINT('',#1263);
#1263 = CARTESIAN_POINT('',(1.25,1.55,1.));
#1264 = LINE('',#1265,#1266);
#1265 = CARTESIAN_POINT('',(1.25,1.55,0.));
#1266 = VECTOR('',#1267,1.);
#1267 = DIRECTION('',(0.,0.,1.));
#1268 = ORIENTED_EDGE('',*,*,#1269,.T.);
#1269 = EDGE_CURVE('',#1262,#1270,#1272,.T.);
#1270 = VERTEX_POINT('',#1271);
#1271 = CARTESIAN_POINT('',(1.25,1.05,1.));
#1272 = LINE('',#1273,#1274);
#1273 = CARTESIAN_POINT('',(1.25,1.55,1.));
#1274 = VECTOR('',#1275,1.);
#1275 = DIRECTION('',(0.,-1.,0.));
#1276 = ORIENTED_EDGE('',*,*,#1277,.F.);
#1277 = EDGE_CURVE('',#527,#1270,#1278,.T.);
#1278 = LINE('',#1279,#1280);
#1279 = CARTESIAN_POINT('',(1.25,1.05,0.));
#1280 = VECTOR('',#1281,1.);
#1281 = DIRECTION('',(0.,0.,1.));
#1282 = ORIENTED_EDGE('',*,*,#524,.F.);
#1283 = PLANE('',#1284);
#1284 = AXIS2_PLACEMENT_3D('',#1285,#1286,#1287);
#1285 = CARTESIAN_POINT('',(1.25,1.55,0.));
#1286 = DIRECTION('',(1.,0.,-0.));
#1287 = DIRECTION('',(0.,-1.,0.));
#1288 = ADVANCED_FACE('',(#1289),#1307,.T.);
#1289 = FACE_BOUND('',#1290,.T.);
#1290 = EDGE_LOOP('',(#1291,#1292,#1300,#1306));
#1291 = ORIENTED_EDGE('',*,*,#1277,.T.);
#1292 = ORIENTED_EDGE('',*,*,#1293,.T.);
#1293 = EDGE_CURVE('',#1270,#1294,#1296,.T.);
#1294 = VERTEX_POINT('',#1295);
#1295 = CARTESIAN_POINT('',(1.75,1.05,1.));
#1296 = LINE('',#1297,#1298);
#1297 = CARTESIAN_POINT('',(1.25,1.05,1.));
#1298 = VECTOR('',#1299,1.);
#1299 = DIRECTION('',(1.,0.,0.));
#1300 = ORIENTED_EDGE('',*,*,#1301,.F.);
#1301 = EDGE_CURVE('',#543,#1294,#1302,.T.);
#1302 = LINE('',#1303,#1304);
#1303 = CARTESIAN_POINT('',(1.75,1.05,0.));
#1304 = VECTOR('',#1305,1.);
#1305 = DIRECTION('',(0.,0.,1.));
#1306 = ORIENTED_EDGE('',*,*,#550,.F.);
#1307 = PLANE('',#1308);
#1308 = AXIS2_PLACEMENT_3D('',#1309,#1310,#1311);
#1309 = CARTESIAN_POINT('',(1.25,1.05,0.));
#1310 = DIRECTION('',(0.,1.,0.));
#1311 = DIRECTION('',(1.,0.,0.));
#1312 = ADVANCED_FACE('',(#1313),#1331,.T.);
#1313 = FACE_BOUND('',#1314,.T.);
#1314 = EDGE_LOOP('',(#1315,#1316,#1324,#1330));
#1315 = ORIENTED_EDGE('',*,*,#1301,.T.);
#1316 = ORIENTED_EDGE('',*,*,#1317,.T.);
#1317 = EDGE_CURVE('',#1294,#1318,#1320,.T.);
#1318 = VERTEX_POINT('',#1319);
#1319 = CARTESIAN_POINT('',(1.75,1.55,1.));
#1320 = LINE('',#1321,#1322);
#1321 = CARTESIAN_POINT('',(1.75,1.05,1.));
#1322 = VECTOR('',#1323,1.);
#1323 = DIRECTION('',(0.,1.,0.));
#1324 = ORIENTED_EDGE('',*,*,#1325,.F.);
#1325 = EDGE_CURVE('',#535,#1318,#1326,.T.);
#1326 = LINE('',#1327,#1328);
#1327 = CARTESIAN_POINT('',(1.75,1.55,0.));
#1328 = VECTOR('',#1329,1.);
#1329 = DIRECTION('',(0.,0.,1.));
#1330 = ORIENTED_EDGE('',*,*,#542,.F.);
#1331 = PLANE('',#1332);
#1332 = AXIS2_PLACEMENT_3D('',#1333,#1334,#1335);
#1333 = CARTESIAN_POINT('',(1.75,1.05,0.));
#1334 = DIRECTION('',(-1.,0.,0.));
#1335 = DIRECTION('',(0.,1.,0.));
#1336 = ADVANCED_FACE('',(#1337),#1348,.T.);
#1337 = FACE_BOUND('',#1338,.T.);
#1338 = EDGE_LOOP('',(#1339,#1340,#1346,#1347));
#1339 = ORIENTED_EDGE('',*,*,#1325,.T.);
#1340 = ORIENTED_EDGE('',*,*,#1341,.T.);
#1341 = EDGE_CURVE('',#1318,#1262,#1342,.T.);
#1342 = LINE('',#1343,#1344);
#1343 = CARTESIAN_POINT('',(1.75,1.55,1.));
#1344 = VECTOR('',#1345,1.);
#1345 = DIRECTION('',(-1.,0.,0.));
#1346 = ORIENTED_EDGE('',*,*,#1261,.F.);
#1347 = ORIENTED_EDGE('',*,*,#534,.F.);
#1348 = PLANE('',#1349);
#1349 = AXIS2_PLACEMENT_3D('',#1350,#1351,#1352);
#1350 = CARTESIAN_POINT('',(1.75,1.55,0.));
#1351 = DIRECTION('',(0.,-1.,0.));
#1352 = DIRECTION('',(-1.,0.,0.));
#1353 = ADVANCED_FACE('',(#1354),#1379,.T.);
#1354 = FACE_BOUND('',#1355,.T.);
#1355 = EDGE_LOOP('',(#1356,#1364,#1372,#1378));
#1356 = ORIENTED_EDGE('',*,*,#1357,.T.);
#1357 = EDGE_CURVE('',#559,#1358,#1360,.T.);
#1358 = VERTEX_POINT('',#1359);
#1359 = CARTESIAN_POINT('',(2.75,1.55,1.));
#1360 = LINE('',#1361,#1362);
#1361 = CARTESIAN_POINT('',(2.75,1.55,0.));
#1362 = VECTOR('',#1363,1.);
#1363 = DIRECTION('',(0.,0.,1.));
#1364 = ORIENTED_EDGE('',*,*,#1365,.T.);
#1365 = EDGE_CURVE('',#1358,#1366,#1368,.T.);
#1366 = VERTEX_POINT('',#1367);
#1367 = CARTESIAN_POINT('',(2.75,1.05,1.));
#1368 = LINE('',#1369,#1370);
#1369 = CARTESIAN_POINT('',(2.75,1.55,1.));
#1370 = VECTOR('',#1371,1.);
#1371 = DIRECTION('',(0.,-1.,0.));
#1372 = ORIENTED_EDGE('',*,*,#1373,.F.);
#1373 = EDGE_CURVE('',#561,#1366,#1374,.T.);
#1374 = LINE('',#1375,#1376);
#1375 = CARTESIAN_POINT('',(2.75,1.05,0.));
#1376 = VECTOR('',#1377,1.);
#1377 = DIRECTION('',(0.,0.,1.));
#1378 = ORIENTED_EDGE('',*,*,#558,.F.);
#1379 = PLANE('',#1380);
#1380 = AXIS2_PLACEMENT_3D('',#1381,#1382,#1383);
#1381 = CARTESIAN_POINT('',(2.75,1.55,0.));
#1382 = DIRECTION('',(1.,0.,-0.));
#1383 = DIRECTION('',(0.,-1.,0.));
#1384 = ADVANCED_FACE('',(#1385),#1403,.T.);
#1385 = FACE_BOUND('',#1386,.T.);
#1386 = EDGE_LOOP('',(#1387,#1388,#1396,#1402));
#1387 = ORIENTED_EDGE('',*,*,#1373,.T.);
#1388 = ORIENTED_EDGE('',*,*,#1389,.T.);
#1389 = EDGE_CURVE('',#1366,#1390,#1392,.T.);
#1390 = VERTEX_POINT('',#1391);
#1391 = CARTESIAN_POINT('',(3.25,1.05,1.));
#1392 = LINE('',#1393,#1394);
#1393 = CARTESIAN_POINT('',(2.75,1.05,1.));
#1394 = VECTOR('',#1395,1.);
#1395 = DIRECTION('',(1.,0.,0.));
#1396 = ORIENTED_EDGE('',*,*,#1397,.F.);
#1397 = EDGE_CURVE('',#577,#1390,#1398,.T.);
#1398 = LINE('',#1399,#1400);
#1399 = CARTESIAN_POINT('',(3.25,1.05,0.));
#1400 = VECTOR('',#1401,1.);
#1401 = DIRECTION('',(0.,0.,1.));
#1402 = ORIENTED_EDGE('',*,*,#584,.F.);
#1403 = PLANE('',#1404);
#1404 = AXIS2_PLACEMENT_3D('',#1405,#1406,#1407);
#1405 = CARTESIAN_POINT('',(2.75,1.05,0.));
#1406 = DIRECTION('',(0.,1.,0.));
#1407 = DIRECTION('',(1.,0.,0.));
#1408 = ADVANCED_FACE('',(#1409),#1427,.T.);
#1409 = FACE_BOUND('',#1410,.T.);
#1410 = EDGE_LOOP('',(#1411,#1412,#1420,#1426));
#1411 = ORIENTED_EDGE('',*,*,#1397,.T.);
#1412 = ORIENTED_EDGE('',*,*,#1413,.T.);
#1413 = EDGE_CURVE('',#1390,#1414,#1416,.T.);
#1414 = VERTEX_POINT('',#1415);
#1415 = CARTESIAN_POINT('',(3.25,1.55,1.));
#1416 = LINE('',#1417,#1418);
#1417 = CARTESIAN_POINT('',(3.25,1.05,1.));
#1418 = VECTOR('',#1419,1.);
#1419 = DIRECTION('',(0.,1.,0.));
#1420 = ORIENTED_EDGE('',*,*,#1421,.F.);
#1421 = EDGE_CURVE('',#569,#1414,#1422,.T.);
#1422 = LINE('',#1423,#1424);
#1423 = CARTESIAN_POINT('',(3.25,1.55,0.));
#1424 = VECTOR('',#1425,1.);
#1425 = DIRECTION('',(0.,0.,1.));
#1426 = ORIENTED_EDGE('',*,*,#576,.F.);
#1427 = PLANE('',#1428);
#1428 = AXIS2_PLACEMENT_3D('',#1429,#1430,#1431);
#1429 = CARTESIAN_POINT('',(3.25,1.05,0.));
#1430 = DIRECTION('',(-1.,0.,0.));
#1431 = DIRECTION('',(0.,1.,0.));
#1432 = ADVANCED_FACE('',(#1433),#1444,.T.);
#1433 = FACE_BOUND('',#1434,.T.);
#1434 = EDGE_LOOP('',(#1435,#1436,#1442,#1443));
#1435 = ORIENTED_EDGE('',*,*,#1421,.T.);
#1436 = ORIENTED_EDGE('',*,*,#1437,.T.);
#1437 = EDGE_CURVE('',#1414,#1358,#1438,.T.);
#1438 = LINE('',#1439,#1440);
#1439 = CARTESIAN_POINT('',(3.25,1.55,1.));
#1440 = VECTOR('',#1441,1.);
#1441 = DIRECTION('',(-1.,0.,0.));
#1442 = ORIENTED_EDGE('',*,*,#1357,.F.);
#1443 = ORIENTED_EDGE('',*,*,#568,.F.);
#1444 = PLANE('',#1445);
#1445 = AXIS2_PLACEMENT_3D('',#1446,#1447,#1448);
#1446 = CARTESIAN_POINT('',(3.25,1.55,0.));
#1447 = DIRECTION('',(0.,-1.,0.));
#1448 = DIRECTION('',(-1.,0.,0.));
#1449 = ADVANCED_FACE('',(#1450),#1475,.F.);
#1450 = FACE_BOUND('',#1451,.F.);
#1451 = EDGE_LOOP('',(#1452,#1460,#1468,#1474));
#1452 = ORIENTED_EDGE('',*,*,#1453,.T.);
#1453 = EDGE_CURVE('',#713,#1454,#1456,.T.);
#1454 = VERTEX_POINT('',#1455);
#1455 = CARTESIAN_POINT('',(0.5,0.15,2.58));
#1456 = LINE('',#1457,#1458);
#1457 = CARTESIAN_POINT('',(0.5,5.728750807066E-16,2.58));
#1458 = VECTOR('',#1459,1.);
#1459 = DIRECTION('',(0.,1.,-2.22044604925E-16));
#1460 = ORIENTED_EDGE('',*,*,#1461,.T.);
#1461 = EDGE_CURVE('',#1454,#1462,#1464,.T.);
#1462 = VERTEX_POINT('',#1463);
#1463 = CARTESIAN_POINT('',(0.5,0.15,1.58));
#1464 = LINE('',#1465,#1466);
#1465 = CARTESIAN_POINT('',(0.5,0.15,2.58));
#1466 = VECTOR('',#1467,1.);
#1467 = DIRECTION('',(0.,-2.22044604925E-16,-1.));
#1468 = ORIENTED_EDGE('',*,*,#1469,.F.);
#1469 = EDGE_CURVE('',#715,#1462,#1470,.T.);
#1470 = LINE('',#1471,#1472);
#1471 = CARTESIAN_POINT('',(0.5,3.508304757815E-16,1.58));
#1472 = VECTOR('',#1473,1.);
#1473 = DIRECTION('',(0.,1.,-2.22044604925E-16));
#1474 = ORIENTED_EDGE('',*,*,#712,.F.);
#1475 = PLANE('',#1476);
#1476 = AXIS2_PLACEMENT_3D('',#1477,#1478,#1479);
#1477 = CARTESIAN_POINT('',(0.5,5.728750807066E-16,2.58));
#1478 = DIRECTION('',(-1.,0.,0.));
#1479 = DIRECTION('',(0.,-2.22044604925E-16,-1.));
#1480 = ADVANCED_FACE('',(#1481),#1499,.F.);
#1481 = FACE_BOUND('',#1482,.F.);
#1482 = EDGE_LOOP('',(#1483,#1491,#1497,#1498));
#1483 = ORIENTED_EDGE('',*,*,#1484,.T.);
#1484 = EDGE_CURVE('',#731,#1485,#1487,.T.);
#1485 = VERTEX_POINT('',#1486);
#1486 = CARTESIAN_POINT('',(1.2,0.15,2.58));
#1487 = LINE('',#1488,#1489);
#1488 = CARTESIAN_POINT('',(1.2,5.728750807066E-16,2.58));
#1489 = VECTOR('',#1490,1.);
#1490 = DIRECTION('',(0.,1.,-2.22044604925E-16));
#1491 = ORIENTED_EDGE('',*,*,#1492,.T.);
#1492 = EDGE_CURVE('',#1485,#1454,#1493,.T.);
#1493 = LINE('',#1494,#1495);
#1494 = CARTESIAN_POINT('',(1.2,0.15,2.58));
#1495 = VECTOR('',#1496,1.);
#1496 = DIRECTION('',(-1.,0.,0.));
#1497 = ORIENTED_EDGE('',*,*,#1453,.F.);
#1498 = ORIENTED_EDGE('',*,*,#738,.F.);
#1499 = PLANE('',#1500);
#1500 = AXIS2_PLACEMENT_3D('',#1501,#1502,#1503);
#1501 = CARTESIAN_POINT('',(1.2,5.728750807066E-16,2.58));
#1502 = DIRECTION('',(0.,2.22044604925E-16,1.));
#1503 = DIRECTION('',(-1.,0.,0.));
#1504 = ADVANCED_FACE('',(#1505),#1523,.F.);
#1505 = FACE_BOUND('',#1506,.F.);
#1506 = EDGE_LOOP('',(#1507,#1515,#1521,#1522));
#1507 = ORIENTED_EDGE('',*,*,#1508,.T.);
#1508 = EDGE_CURVE('',#723,#1509,#1511,.T.);
#1509 = VERTEX_POINT('',#1510);
#1510 = CARTESIAN_POINT('',(1.2,0.15,1.58));
#1511 = LINE('',#1512,#1513);
#1512 = CARTESIAN_POINT('',(1.2,3.508304757815E-16,1.58));
#1513 = VECTOR('',#1514,1.);
#1514 = DIRECTION('',(0.,1.,-2.22044604925E-16));
#1515 = ORIENTED_EDGE('',*,*,#1516,.T.);
#1516 = EDGE_CURVE('',#1509,#1485,#1517,.T.);
#1517 = LINE('',#1518,#1519);
#1518 = CARTESIAN_POINT('',(1.2,0.15,1.58));
#1519 = VECTOR('',#1520,1.);
#1520 = DIRECTION('',(0.,2.22044604925E-16,1.));
#1521 = ORIENTED_EDGE('',*,*,#1484,.F.);
#1522 = ORIENTED_EDGE('',*,*,#730,.F.);
#1523 = PLANE('',#1524);
#1524 = AXIS2_PLACEMENT_3D('',#1525,#1526,#1527);
#1525 = CARTESIAN_POINT('',(1.2,3.508304757815E-16,1.58));
#1526 = DIRECTION('',(1.,0.,0.));
#1527 = DIRECTION('',(0.,2.22044604925E-16,1.));
#1528 = ADVANCED_FACE('',(#1529),#1540,.F.);
#1529 = FACE_BOUND('',#1530,.F.);
#1530 = EDGE_LOOP('',(#1531,#1532,#1538,#1539));
#1531 = ORIENTED_EDGE('',*,*,#1469,.T.);
#1532 = ORIENTED_EDGE('',*,*,#1533,.T.);
#1533 = EDGE_CURVE('',#1462,#1509,#1534,.T.);
#1534 = LINE('',#1535,#1536);
#1535 = CARTESIAN_POINT('',(0.5,0.15,1.58));
#1536 = VECTOR('',#1537,1.);
#1537 = DIRECTION('',(1.,0.,0.));
#1538 = ORIENTED_EDGE('',*,*,#1508,.F.);
#1539 = ORIENTED_EDGE('',*,*,#722,.F.);
#1540 = PLANE('',#1541);
#1541 = AXIS2_PLACEMENT_3D('',#1542,#1543,#1544);
#1542 = CARTESIAN_POINT('',(0.5,3.508304757815E-16,1.58));
#1543 = DIRECTION('',(0.,-2.22044604925E-16,-1.));
#1544 = DIRECTION('',(1.,0.,0.));
#1545 = ADVANCED_FACE('',(#1546),#1571,.F.);
#1546 = FACE_BOUND('',#1547,.F.);
#1547 = EDGE_LOOP('',(#1548,#1556,#1564,#1570));
#1548 = ORIENTED_EDGE('',*,*,#1549,.T.);
#1549 = EDGE_CURVE('',#747,#1550,#1552,.T.);
#1550 = VERTEX_POINT('',#1551);
#1551 = CARTESIAN_POINT('',(6.9,0.15,2.5));
#1552 = LINE('',#1553,#1554);
#1553 = CARTESIAN_POINT('',(6.9,5.551115123126E-16,2.5));
#1554 = VECTOR('',#1555,1.);
#1555 = DIRECTION('',(0.,1.,-2.22044604925E-16));
#1556 = ORIENTED_EDGE('',*,*,#1557,.T.);
#1557 = EDGE_CURVE('',#1550,#1558,#1560,.T.);
#1558 = VERTEX_POINT('',#1559);
#1559 = CARTESIAN_POINT('',(6.2,0.15,2.5));
#1560 = LINE('',#1561,#1562);
#1561 = CARTESIAN_POINT('',(6.9,0.15,2.5));
#1562 = VECTOR('',#1563,1.);
#1563 = DIRECTION('',(-1.,0.,0.));
#1564 = ORIENTED_EDGE('',*,*,#1565,.F.);
#1565 = EDGE_CURVE('',#749,#1558,#1566,.T.);
#1566 = LINE('',#1567,#1568);
#1567 = CARTESIAN_POINT('',(6.2,5.551115123126E-16,2.5));
#1568 = VECTOR('',#1569,1.);
#1569 = DIRECTION('',(0.,1.,-2.22044604925E-16));
#1570 = ORIENTED_EDGE('',*,*,#746,.F.);
#1571 = PLANE('',#1572);
#1572 = AXIS2_PLACEMENT_3D('',#1573,#1574,#1575);
#1573 = CARTESIAN_POINT('',(6.9,5.551115123126E-16,2.5));
#1574 = DIRECTION('',(0.,2.22044604925E-16,1.));
#1575 = DIRECTION('',(-1.,0.,0.));
#1576 = ADVANCED_FACE('',(#1577),#1595,.F.);
#1577 = FACE_BOUND('',#1578,.F.);
#1578 = EDGE_LOOP('',(#1579,#1587,#1593,#1594));
#1579 = ORIENTED_EDGE('',*,*,#1580,.T.);
#1580 = EDGE_CURVE('',#765,#1581,#1583,.T.);
#1581 = VERTEX_POINT('',#1582);
#1582 = CARTESIAN_POINT('',(6.9,0.15,1.5));
#1583 = LINE('',#1584,#1585);
#1584 = CARTESIAN_POINT('',(6.9,3.330669073875E-16,1.5));
#1585 = VECTOR('',#1586,1.);
#1586 = DIRECTION('',(0.,1.,-2.22044604925E-16));
#1587 = ORIENTED_EDGE('',*,*,#1588,.T.);
#1588 = EDGE_CURVE('',#1581,#1550,#1589,.T.);
#1589 = LINE('',#1590,#1591);
#1590 = CARTESIAN_POINT('',(6.9,0.15,1.5));
#1591 = VECTOR('',#1592,1.);
#1592 = DIRECTION('',(0.,2.22044604925E-16,1.));
#1593 = ORIENTED_EDGE('',*,*,#1549,.F.);
#1594 = ORIENTED_EDGE('',*,*,#772,.F.);
#1595 = PLANE('',#1596);
#1596 = AXIS2_PLACEMENT_3D('',#1597,#1598,#1599);
#1597 = CARTESIAN_POINT('',(6.9,3.330669073875E-16,1.5));
#1598 = DIRECTION('',(1.,0.,0.));
#1599 = DIRECTION('',(0.,2.22044604925E-16,1.));
#1600 = ADVANCED_FACE('',(#1601),#1619,.F.);
#1601 = FACE_BOUND('',#1602,.F.);
#1602 = EDGE_LOOP('',(#1603,#1611,#1617,#1618));
#1603 = ORIENTED_EDGE('',*,*,#1604,.T.);
#1604 = EDGE_CURVE('',#757,#1605,#1607,.T.);
#1605 = VERTEX_POINT('',#1606);
#1606 = CARTESIAN_POINT('',(6.2,0.15,1.5));
#1607 = LINE('',#1608,#1609);
#1608 = CARTESIAN_POINT('',(6.2,3.330669073875E-16,1.5));
#1609 = VECTOR('',#1610,1.);
#1610 = DIRECTION('',(0.,1.,-2.22044604925E-16));
#1611 = ORIENTED_EDGE('',*,*,#1612,.T.);
#1612 = EDGE_CURVE('',#1605,#1581,#1613,.T.);
#1613 = LINE('',#1614,#1615);
#1614 = CARTESIAN_POINT('',(6.2,0.15,1.5));
#1615 = VECTOR('',#1616,1.);
#1616 = DIRECTION('',(1.,0.,0.));
#1617 = ORIENTED_EDGE('',*,*,#1580,.F.);
#1618 = ORIENTED_EDGE('',*,*,#764,.F.);
#1619 = PLANE('',#1620);
#1620 = AXIS2_PLACEMENT_3D('',#1621,#1622,#1623);
#1621 = CARTESIAN_POINT('',(6.2,3.330669073875E-16,1.5));
#1622 = DIRECTION('',(0.,-2.22044604925E-16,-1.));
#1623 = DIRECTION('',(1.,0.,0.));
#1624 = ADVANCED_FACE('',(#1625),#1636,.F.);
#1625 = FACE_BOUND('',#1626,.F.);
#1626 = EDGE_LOOP('',(#1627,#1628,#1634,#1635));
#1627 = ORIENTED_EDGE('',*,*,#1565,.T.);
#1628 = ORIENTED_EDGE('',*,*,#1629,.T.);
#1629 = EDGE_CURVE('',#1558,#1605,#1630,.T.);
#1630 = LINE('',#1631,#1632);
#1631 = CARTESIAN_POINT('',(6.2,0.15,2.5));
#1632 = VECTOR('',#1633,1.);
#1633 = DIRECTION('',(0.,-2.22044604925E-16,-1.));
#1634 = ORIENTED_EDGE('',*,*,#1604,.F.);
#1635 = ORIENTED_EDGE('',*,*,#756,.F.);
#1636 = PLANE('',#1637);
#1637 = AXIS2_PLACEMENT_3D('',#1638,#1639,#1640);
#1638 = CARTESIAN_POINT('',(6.2,5.551115123126E-16,2.5));
#1639 = DIRECTION('',(-1.,0.,0.));
#1640 = DIRECTION('',(0.,-2.22044604925E-16,-1.));
#1641 = ADVANCED_FACE('',(#1642),#1653,.F.);
#1642 = FACE_BOUND('',#1643,.F.);
#1643 = EDGE_LOOP('',(#1644,#1645,#1651,#1652));
#1644 = ORIENTED_EDGE('',*,*,#852,.T.);
#1645 = ORIENTED_EDGE('',*,*,#1646,.T.);
#1646 = EDGE_CURVE('',#845,#998,#1647,.T.);
#1647 = LINE('',#1648,#1649);
#1648 = CARTESIAN_POINT('',(0.4,0.3,1.));
#1649 = VECTOR('',#1650,1.);
#1650 = DIRECTION('',(1.,0.,0.));
#1651 = ORIENTED_EDGE('',*,*,#1005,.F.);
#1652 = ORIENTED_EDGE('',*,*,#812,.F.);
#1653 = PLANE('',#1654);
#1654 = AXIS2_PLACEMENT_3D('',#1655,#1656,#1657);
#1655 = CARTESIAN_POINT('',(0.4,0.3,4.5));
#1656 = DIRECTION('',(0.,-1.,0.));
#1657 = DIRECTION('',(1.,0.,0.));
#1658 = ADVANCED_FACE('',(#1659),#1670,.F.);
#1659 = FACE_BOUND('',#1660,.T.);
#1660 = EDGE_LOOP('',(#1661,#1662,#1663,#1664));
#1661 = ORIENTED_EDGE('',*,*,#1012,.F.);
#1662 = ORIENTED_EDGE('',*,*,#796,.T.);
#1663 = ORIENTED_EDGE('',*,*,#891,.T.);
#1664 = ORIENTED_EDGE('',*,*,#1665,.F.);
#1665 = EDGE_CURVE('',#1013,#892,#1666,.T.);
#1666 = LINE('',#1667,#1668);
#1667 = CARTESIAN_POINT('',(7.1,1.,4.2));
#1668 = VECTOR('',#1669,1.);
#1669 = DIRECTION('',(1.,0.,0.));
#1670 = PLANE('',#1671);
#1671 = AXIS2_PLACEMENT_3D('',#1672,#1673,#1674);
#1672 = CARTESIAN_POINT('',(7.1,0.85,4.35));
#1673 = DIRECTION('',(4.827584719484E-18,-0.707106781187,-0.707106781187
    ));
#1674 = DIRECTION('',(-1.,-3.413617891899E-18,-3.413617891899E-18));
#1675 = ADVANCED_FACE('',(#1676,#1682,#1688,#1694,#1700),#1706,.T.);
#1676 = FACE_BOUND('',#1677,.T.);
#1677 = EDGE_LOOP('',(#1678,#1679,#1680,#1681));
#1678 = ORIENTED_EDGE('',*,*,#955,.T.);
#1679 = ORIENTED_EDGE('',*,*,#844,.T.);
#1680 = ORIENTED_EDGE('',*,*,#1646,.T.);
#1681 = ORIENTED_EDGE('',*,*,#997,.F.);
#1682 = FACE_BOUND('',#1683,.T.);
#1683 = EDGE_LOOP('',(#1684,#1685,#1686,#1687));
#1684 = ORIENTED_EDGE('',*,*,#1077,.F.);
#1685 = ORIENTED_EDGE('',*,*,#1149,.F.);
#1686 = ORIENTED_EDGE('',*,*,#1125,.F.);
#1687 = ORIENTED_EDGE('',*,*,#1101,.F.);
#1688 = FACE_BOUND('',#1689,.T.);
#1689 = EDGE_LOOP('',(#1690,#1691,#1692,#1693));
#1690 = ORIENTED_EDGE('',*,*,#1173,.F.);
#1691 = ORIENTED_EDGE('',*,*,#1245,.F.);
#1692 = ORIENTED_EDGE('',*,*,#1221,.F.);
#1693 = ORIENTED_EDGE('',*,*,#1197,.F.);
#1694 = FACE_BOUND('',#1695,.T.);
#1695 = EDGE_LOOP('',(#1696,#1697,#1698,#1699));
#1696 = ORIENTED_EDGE('',*,*,#1269,.F.);
#1697 = ORIENTED_EDGE('',*,*,#1341,.F.);
#1698 = ORIENTED_EDGE('',*,*,#1317,.F.);
#1699 = ORIENTED_EDGE('',*,*,#1293,.F.);
#1700 = FACE_BOUND('',#1701,.T.);
#1701 = EDGE_LOOP('',(#1702,#1703,#1704,#1705));
#1702 = ORIENTED_EDGE('',*,*,#1365,.F.);
#1703 = ORIENTED_EDGE('',*,*,#1437,.F.);
#1704 = ORIENTED_EDGE('',*,*,#1413,.F.);
#1705 = ORIENTED_EDGE('',*,*,#1389,.F.);
#1706 = PLANE('',#1707);
#1707 = AXIS2_PLACEMENT_3D('',#1708,#1709,#1710);
#1708 = CARTESIAN_POINT('',(3.75,1.75,1.));
#1709 = DIRECTION('',(0.,0.,1.));
#1710 = DIRECTION('',(1.,0.,0.));
#1711 = ADVANCED_FACE('',(#1712),#1723,.F.);
#1712 = FACE_BOUND('',#1713,.F.);
#1713 = EDGE_LOOP('',(#1714,#1715,#1721,#1722));
#1714 = ORIENTED_EDGE('',*,*,#933,.T.);
#1715 = ORIENTED_EDGE('',*,*,#1716,.F.);
#1716 = EDGE_CURVE('',#1046,#925,#1717,.T.);
#1717 = LINE('',#1718,#1719);
#1718 = CARTESIAN_POINT('',(0.,2.1,2.500131));
#1719 = VECTOR('',#1720,1.);
#1720 = DIRECTION('',(1.,0.,0.));
#1721 = ORIENTED_EDGE('',*,*,#1054,.F.);
#1722 = ORIENTED_EDGE('',*,*,#981,.F.);
#1723 = PLANE('',#1724);
#1724 = AXIS2_PLACEMENT_3D('',#1725,#1726,#1727);
#1725 = CARTESIAN_POINT('',(0.,2.1,4.500131));
#1726 = DIRECTION('',(0.,1.,0.));
#1727 = DIRECTION('',(0.,0.,-1.));
#1728 = ADVANCED_FACE('',(#1729),#1740,.F.);
#1729 = FACE_BOUND('',#1730,.F.);
#1730 = EDGE_LOOP('',(#1731,#1732,#1733,#1734));
#1731 = ORIENTED_EDGE('',*,*,#1045,.F.);
#1732 = ORIENTED_EDGE('',*,*,#1716,.T.);
#1733 = ORIENTED_EDGE('',*,*,#924,.T.);
#1734 = ORIENTED_EDGE('',*,*,#1735,.F.);
#1735 = EDGE_CURVE('',#1038,#917,#1736,.T.);
#1736 = LINE('',#1737,#1738);
#1737 = CARTESIAN_POINT('',(0.,1.6,2.000131));
#1738 = VECTOR('',#1739,1.);
#1739 = DIRECTION('',(1.,0.,0.));
#1740 = CYLINDRICAL_SURFACE('',#1741,0.5);
#1741 = AXIS2_PLACEMENT_3D('',#1742,#1743,#1744);
#1742 = CARTESIAN_POINT('',(0.,1.6,2.500131));
#1743 = DIRECTION('',(-1.,0.,0.));
#1744 = DIRECTION('',(0.,-1.,0.));
#1745 = ADVANCED_FACE('',(#1746),#1757,.F.);
#1746 = FACE_BOUND('',#1747,.F.);
#1747 = EDGE_LOOP('',(#1748,#1749,#1750,#1751));
#1748 = ORIENTED_EDGE('',*,*,#1037,.F.);
#1749 = ORIENTED_EDGE('',*,*,#1735,.T.);
#1750 = ORIENTED_EDGE('',*,*,#916,.T.);
#1751 = ORIENTED_EDGE('',*,*,#1752,.F.);
#1752 = EDGE_CURVE('',#1029,#908,#1753,.T.);
#1753 = LINE('',#1754,#1755);
#1754 = CARTESIAN_POINT('',(0.,1.5,2.000131));
#1755 = VECTOR('',#1756,1.);
#1756 = DIRECTION('',(1.,0.,0.));
#1757 = PLANE('',#1758);
#1758 = AXIS2_PLACEMENT_3D('',#1759,#1760,#1761);
#1759 = CARTESIAN_POINT('',(0.,1.6,2.000131));
#1760 = DIRECTION('',(0.,0.,-1.));
#1761 = DIRECTION('',(0.,-1.,0.));
#1762 = ADVANCED_FACE('',(#1763),#1774,.F.);
#1763 = FACE_BOUND('',#1764,.F.);
#1764 = EDGE_LOOP('',(#1765,#1766,#1767,#1768));
#1765 = ORIENTED_EDGE('',*,*,#1028,.F.);
#1766 = ORIENTED_EDGE('',*,*,#1752,.T.);
#1767 = ORIENTED_EDGE('',*,*,#907,.T.);
#1768 = ORIENTED_EDGE('',*,*,#1769,.F.);
#1769 = EDGE_CURVE('',#1021,#900,#1770,.T.);
#1770 = LINE('',#1771,#1772);
#1771 = CARTESIAN_POINT('',(0.,1.,2.500131));
#1772 = VECTOR('',#1773,1.);
#1773 = DIRECTION('',(1.,0.,0.));
#1774 = CYLINDRICAL_SURFACE('',#1775,0.5);
#1775 = AXIS2_PLACEMENT_3D('',#1776,#1777,#1778);
#1776 = CARTESIAN_POINT('',(0.,1.5,2.500131));
#1777 = DIRECTION('',(-1.,0.,0.));
#1778 = DIRECTION('',(0.,-1.,0.));
#1779 = ADVANCED_FACE('',(#1780),#1786,.F.);
#1780 = FACE_BOUND('',#1781,.F.);
#1781 = EDGE_LOOP('',(#1782,#1783,#1784,#1785));
#1782 = ORIENTED_EDGE('',*,*,#1020,.F.);
#1783 = ORIENTED_EDGE('',*,*,#1769,.T.);
#1784 = ORIENTED_EDGE('',*,*,#899,.T.);
#1785 = ORIENTED_EDGE('',*,*,#1665,.F.);
#1786 = PLANE('',#1787);
#1787 = AXIS2_PLACEMENT_3D('',#1788,#1789,#1790);
#1788 = CARTESIAN_POINT('',(0.,1.,2.500131));
#1789 = DIRECTION('',(0.,-1.,0.));
#1790 = DIRECTION('',(0.,0.,1.));
#1791 = ADVANCED_FACE('',(#1792),#1798,.F.);
#1792 = FACE_BOUND('',#1793,.T.);
#1793 = EDGE_LOOP('',(#1794,#1795,#1796,#1797));
#1794 = ORIENTED_EDGE('',*,*,#1533,.T.);
#1795 = ORIENTED_EDGE('',*,*,#1516,.T.);
#1796 = ORIENTED_EDGE('',*,*,#1492,.T.);
#1797 = ORIENTED_EDGE('',*,*,#1461,.T.);
#1798 = PLANE('',#1799);
#1799 = AXIS2_PLACEMENT_3D('',#1800,#1801,#1802);
#1800 = CARTESIAN_POINT('',(3.7,0.15,2.04));
#1801 = DIRECTION('',(0.,1.,0.));
#1802 = DIRECTION('',(0.,0.,1.));
#1803 = ADVANCED_FACE('',(#1804),#1810,.F.);
#1804 = FACE_BOUND('',#1805,.T.);
#1805 = EDGE_LOOP('',(#1806,#1807,#1808,#1809));
#1806 = ORIENTED_EDGE('',*,*,#1629,.T.);
#1807 = ORIENTED_EDGE('',*,*,#1612,.T.);
#1808 = ORIENTED_EDGE('',*,*,#1588,.T.);
#1809 = ORIENTED_EDGE('',*,*,#1557,.T.);
#1810 = PLANE('',#1811);
#1811 = AXIS2_PLACEMENT_3D('',#1812,#1813,#1814);
#1812 = CARTESIAN_POINT('',(3.7,0.15,2.04));
#1813 = DIRECTION('',(0.,1.,0.));
#1814 = DIRECTION('',(0.,0.,1.));
#1815 = ( GEOMETRIC_REPRESENTATION_CONTEXT(3) 
GLOBAL_UNCERTAINTY_ASSIGNED_CONTEXT((#1819)) 
GLOBAL_UNIT_ASSIGNED_CONTEXT((#1816,#1817,#1818)) REPRESENTATION_CONTEXT
('Context #1','3D Context with UNIT and UNCERTAINTY') );
#1816 = ( LENGTH_UNIT() NAMED_UNIT(*) SI_UNIT(.MILLI.,.METRE.) );
#1817 = ( NAMED_UNIT(*) PLANE_ANGLE_UNIT() SI_UNIT($,.RADIAN.) );
#1818 = ( NAMED_UNIT(*) SI_UNIT($,.STERADIAN.) SOLID_ANGLE_UNIT() );
#1819 = UNCERTAINTY_MEASURE_WITH_UNIT(LENGTH_MEASURE(1.E-06),#1816,
  'distance_accuracy_value','confusion accuracy');
#1820 = CONTEXT_DEPENDENT_SHAPE_REPRESENTATION(#1821,#1823);
#1821 = ( REPRESENTATION_RELATIONSHIP('','',#36,#10) 
REPRESENTATION_RELATIONSHIP_WITH_TRANSFORMATION(#1822) 
SHAPE_REPRESENTATION_RELATIONSHIP() );
#1822 = ITEM_DEFINED_TRANSFORMATION('','',#11,#15);
#1823 = PRODUCT_DEFINITION_SHAPE('Placement','Placement of an item',
  #1824);
#1824 = NEXT_ASSEMBLY_USAGE_OCCURRENCE('1','Pocket004','',#5,#31,$);
#1825 = PRODUCT_RELATED_PRODUCT_CATEGORY('part',$,(#33));
#1826 = SHAPE_DEFINITION_REPRESENTATION(#1827,#1833);
#1827 = PRODUCT_DEFINITION_SHAPE('','',#1828);
#1828 = PRODUCT_DEFINITION('design','',#1829,#1832);
#1829 = PRODUCT_DEFINITION_FORMATION('','',#1830);
#1830 = PRODUCT('Array','Array','',(#1831));
#1831 = PRODUCT_CONTEXT('',#2,'mechanical');
#1832 = PRODUCT_DEFINITION_CONTEXT('part definition',#2,'design');
#1833 = SHAPE_REPRESENTATION('',(#11,#1834,#1838,#1842,#1846),#1850);
#1834 = AXIS2_PLACEMENT_3D('',#1835,#1836,#1837);
#1835 = CARTESIAN_POINT('',(0.,0.,0.));
#1836 = DIRECTION('',(0.,0.,1.));
#1837 = DIRECTION('',(1.,0.,0.));
#1838 = AXIS2_PLACEMENT_3D('',#1839,#1840,#1841);
#1839 = CARTESIAN_POINT('',(1.5,0.,0.));
#1840 = DIRECTION('',(0.,0.,1.));
#1841 = DIRECTION('',(1.,0.,0.));
#1842 = AXIS2_PLACEMENT_3D('',#1843,#1844,#1845);
#1843 = CARTESIAN_POINT('',(3.,0.,0.));
#1844 = DIRECTION('',(0.,0.,1.));
#1845 = DIRECTION('',(1.,0.,0.));
#1846 = AXIS2_PLACEMENT_3D('',#1847,#1848,#1849);
#1847 = CARTESIAN_POINT('',(4.5,0.,0.));
#1848 = DIRECTION('',(0.,0.,1.));
#1849 = DIRECTION('',(1.,0.,0.));
#1850 = ( GEOMETRIC_REPRESENTATION_CONTEXT(3) 
GLOBAL_UNCERTAINTY_ASSIGNED_CONTEXT((#1854)) 
GLOBAL_UNIT_ASSIGNED_CONTEXT((#1851,#1852,#1853)) REPRESENTATION_CONTEXT
('Context #1','3D Context with UNIT and UNCERTAINTY') );
#1851 = ( LENGTH_UNIT() NAMED_UNIT(*) SI_UNIT(.MILLI.,.METRE.) );
#1852 = ( NAMED_UNIT(*) PLANE_ANGLE_UNIT() SI_UNIT($,.RADIAN.) );
#1853 = ( NAMED_UNIT(*) SI_UNIT($,.STERADIAN.) SOLID_ANGLE_UNIT() );
#1854 = UNCERTAINTY_MEASURE_WITH_UNIT(LENGTH_MEASURE(1.E-07),#1851,
  'distance_accuracy_value','confusion accuracy');
#1855 = CONTEXT_DEPENDENT_SHAPE_REPRESENTATION(#1856,#1858);
#1856 = ( REPRESENTATION_RELATIONSHIP('','',#1833,#10) 
REPRESENTATION_RELATIONSHIP_WITH_TRANSFORMATION(#1857) 
SHAPE_REPRESENTATION_RELATIONSHIP() );
#1857 = ITEM_DEFINED_TRANSFORMATION('','',#11,#19);
#1858 = PRODUCT_DEFINITION_SHAPE('Placement','Placement of an item',
  #1859);
#1859 = NEXT_ASSEMBLY_USAGE_OCCURRENCE('6','Array','',#5,#1828,$);
#1860 = PRODUCT_RELATED_PRODUCT_CATEGORY('part',$,(#1830));
#1861 = SHAPE_DEFINITION_REPRESENTATION(#1862,#1868);
#1862 = PRODUCT_DEFINITION_SHAPE('','',#1863);
#1863 = PRODUCT_DEFINITION('design','',#1864,#1867);
#1864 = PRODUCT_DEFINITION_FORMATION('','',#1865);
#1865 = PRODUCT('Chamfer001','Chamfer001','',(#1866));
#1866 = PRODUCT_CONTEXT('',#2,'mechanical');
#1867 = PRODUCT_DEFINITION_CONTEXT('part definition',#2,'design');
#1868 = ADVANCED_BREP_SHAPE_REPRESENTATION('',(#11,#1869),#2211);
#1869 = MANIFOLD_SOLID_BREP('',#1870);
#1870 = CLOSED_SHELL('',(#1871,#1911,#1942,#1973,#2004,#2035,#2057,#2081
    ,#2105,#2129,#2146,#2170,#2187,#2199));
#1871 = ADVANCED_FACE('',(#1872),#1906,.F.);
#1872 = FACE_BOUND('',#1873,.F.);
#1873 = EDGE_LOOP('',(#1874,#1884,#1892,#1900));
#1874 = ORIENTED_EDGE('',*,*,#1875,.T.);
#1875 = EDGE_CURVE('',#1876,#1878,#1880,.T.);
#1876 = VERTEX_POINT('',#1877);
#1877 = CARTESIAN_POINT('',(1.25,1.05,0.15));
#1878 = VERTEX_POINT('',#1879);
#1879 = CARTESIAN_POINT('',(1.25,1.05,6.55));
#1880 = LINE('',#1881,#1882);
#1881 = CARTESIAN_POINT('',(1.25,1.05,0.));
#1882 = VECTOR('',#1883,1.);
#1883 = DIRECTION('',(0.,0.,1.));
#1884 = ORIENTED_EDGE('',*,*,#1885,.T.);
#1885 = EDGE_CURVE('',#1878,#1886,#1888,.T.);
#1886 = VERTEX_POINT('',#1887);
#1887 = CARTESIAN_POINT('',(1.75,1.05,6.55));
#1888 = LINE('',#1889,#1890);
#1889 = CARTESIAN_POINT('',(1.25,1.05,6.55));
#1890 = VECTOR('',#1891,1.);
#1891 = DIRECTION('',(1.,0.,0.));
#1892 = ORIENTED_EDGE('',*,*,#1893,.F.);
#1893 = EDGE_CURVE('',#1894,#1886,#1896,.T.);
#1894 = VERTEX_POINT('',#1895);
#1895 = CARTESIAN_POINT('',(1.75,1.05,0.15));
#1896 = LINE('',#1897,#1898);
#1897 = CARTESIAN_POINT('',(1.75,1.05,0.));
#1898 = VECTOR('',#1899,1.);
#1899 = DIRECTION('',(0.,0.,1.));
#1900 = ORIENTED_EDGE('',*,*,#1901,.F.);
#1901 = EDGE_CURVE('',#1876,#1894,#1902,.T.);
#1902 = LINE('',#1903,#1904);
#1903 = CARTESIAN_POINT('',(1.25,1.05,0.15));
#1904 = VECTOR('',#1905,1.);
#1905 = DIRECTION('',(1.,0.,0.));
#1906 = PLANE('',#1907);
#1907 = AXIS2_PLACEMENT_3D('',#1908,#1909,#1910);
#1908 = CARTESIAN_POINT('',(1.25,1.05,0.));
#1909 = DIRECTION('',(0.,1.,0.));
#1910 = DIRECTION('',(1.,0.,0.));
#1911 = ADVANCED_FACE('',(#1912),#1937,.F.);
#1912 = FACE_BOUND('',#1913,.F.);
#1913 = EDGE_LOOP('',(#1914,#1924,#1930,#1931));
#1914 = ORIENTED_EDGE('',*,*,#1915,.T.);
#1915 = EDGE_CURVE('',#1916,#1918,#1920,.T.);
#1916 = VERTEX_POINT('',#1917);
#1917 = CARTESIAN_POINT('',(1.25,1.55,0.15));
#1918 = VERTEX_POINT('',#1919);
#1919 = CARTESIAN_POINT('',(1.25,1.55,6.55));
#1920 = LINE('',#1921,#1922);
#1921 = CARTESIAN_POINT('',(1.25,1.55,0.));
#1922 = VECTOR('',#1923,1.);
#1923 = DIRECTION('',(0.,0.,1.));
#1924 = ORIENTED_EDGE('',*,*,#1925,.T.);
#1925 = EDGE_CURVE('',#1918,#1878,#1926,.T.);
#1926 = LINE('',#1927,#1928);
#1927 = CARTESIAN_POINT('',(1.25,1.55,6.55));
#1928 = VECTOR('',#1929,1.);
#1929 = DIRECTION('',(0.,-1.,0.));
#1930 = ORIENTED_EDGE('',*,*,#1875,.F.);
#1931 = ORIENTED_EDGE('',*,*,#1932,.F.);
#1932 = EDGE_CURVE('',#1916,#1876,#1933,.T.);
#1933 = LINE('',#1934,#1935);
#1934 = CARTESIAN_POINT('',(1.25,1.55,0.15));
#1935 = VECTOR('',#1936,1.);
#1936 = DIRECTION('',(0.,-1.,0.));
#1937 = PLANE('',#1938);
#1938 = AXIS2_PLACEMENT_3D('',#1939,#1940,#1941);
#1939 = CARTESIAN_POINT('',(1.25,1.55,0.));
#1940 = DIRECTION('',(1.,0.,0.));
#1941 = DIRECTION('',(0.,-1.,0.));
#1942 = ADVANCED_FACE('',(#1943),#1968,.T.);
#1943 = FACE_BOUND('',#1944,.F.);
#1944 = EDGE_LOOP('',(#1945,#1953,#1954,#1962));
#1945 = ORIENTED_EDGE('',*,*,#1946,.F.);
#1946 = EDGE_CURVE('',#1876,#1947,#1949,.T.);
#1947 = VERTEX_POINT('',#1948);
#1948 = CARTESIAN_POINT('',(1.4,1.2,-0.));
#1949 = LINE('',#1950,#1951);
#1950 = CARTESIAN_POINT('',(1.383333333333,1.183333333333,
    1.666666666667E-02));
#1951 = VECTOR('',#1952,1.);
#1952 = DIRECTION('',(0.57735026919,0.57735026919,-0.57735026919));
#1953 = ORIENTED_EDGE('',*,*,#1901,.T.);
#1954 = ORIENTED_EDGE('',*,*,#1955,.T.);
#1955 = EDGE_CURVE('',#1894,#1956,#1958,.T.);
#1956 = VERTEX_POINT('',#1957);
#1957 = CARTESIAN_POINT('',(1.6,1.2,-0.));
#1958 = LINE('',#1959,#1960);
#1959 = CARTESIAN_POINT('',(1.616666666667,1.183333333333,
    1.666666666667E-02));
#1960 = VECTOR('',#1961,1.);
#1961 = DIRECTION('',(-0.57735026919,0.57735026919,-0.57735026919));
#1962 = ORIENTED_EDGE('',*,*,#1963,.F.);
#1963 = EDGE_CURVE('',#1947,#1956,#1964,.T.);
#1964 = LINE('',#1965,#1966);
#1965 = CARTESIAN_POINT('',(1.25,1.2,0.));
#1966 = VECTOR('',#1967,1.);
#1967 = DIRECTION('',(1.,0.,0.));
#1968 = PLANE('',#1969);
#1969 = AXIS2_PLACEMENT_3D('',#1970,#1971,#1972);
#1970 = CARTESIAN_POINT('',(1.25,1.125,7.5E-02));
#1971 = DIRECTION('',(-0.,-0.707106781187,-0.707106781187));
#1972 = DIRECTION('',(-1.,0.,-0.));
#1973 = ADVANCED_FACE('',(#1974),#1999,.F.);
#1974 = FACE_BOUND('',#1975,.T.);
#1975 = EDGE_LOOP('',(#1976,#1984,#1985,#1993));
#1976 = ORIENTED_EDGE('',*,*,#1977,.F.);
#1977 = EDGE_CURVE('',#1878,#1978,#1980,.T.);
#1978 = VERTEX_POINT('',#1979);
#1979 = CARTESIAN_POINT('',(1.4,1.2,6.7));
#1980 = LINE('',#1981,#1982);
#1981 = CARTESIAN_POINT('',(1.383333333333,1.183333333333,6.683333333333
    ));
#1982 = VECTOR('',#1983,1.);
#1983 = DIRECTION('',(0.57735026919,0.57735026919,0.57735026919));
#1984 = ORIENTED_EDGE('',*,*,#1885,.T.);
#1985 = ORIENTED_EDGE('',*,*,#1986,.T.);
#1986 = EDGE_CURVE('',#1886,#1987,#1989,.T.);
#1987 = VERTEX_POINT('',#1988);
#1988 = CARTESIAN_POINT('',(1.6,1.2,6.7));
#1989 = LINE('',#1990,#1991);
#1990 = CARTESIAN_POINT('',(1.616666666667,1.183333333333,6.683333333333
    ));
#1991 = VECTOR('',#1992,1.);
#1992 = DIRECTION('',(-0.57735026919,0.57735026919,0.57735026919));
#1993 = ORIENTED_EDGE('',*,*,#1994,.F.);
#1994 = EDGE_CURVE('',#1978,#1987,#1995,.T.);
#1995 = LINE('',#1996,#1997);
#1996 = CARTESIAN_POINT('',(1.25,1.2,6.7));
#1997 = VECTOR('',#1998,1.);
#1998 = DIRECTION('',(1.,0.,0.));
#1999 = PLANE('',#2000);
#2000 = AXIS2_PLACEMENT_3D('',#2001,#2002,#2003);
#2001 = CARTESIAN_POINT('',(1.25,1.125,6.625));
#2002 = DIRECTION('',(-0.,0.707106781187,-0.707106781187));
#2003 = DIRECTION('',(-1.,-0.,0.));
#2004 = ADVANCED_FACE('',(#2005),#2030,.F.);
#2005 = FACE_BOUND('',#2006,.F.);
#2006 = EDGE_LOOP('',(#2007,#2008,#2016,#2024));
#2007 = ORIENTED_EDGE('',*,*,#1893,.T.);
#2008 = ORIENTED_EDGE('',*,*,#2009,.T.);
#2009 = EDGE_CURVE('',#1886,#2010,#2012,.T.);
#2010 = VERTEX_POINT('',#2011);
#2011 = CARTESIAN_POINT('',(1.75,1.55,6.55));
#2012 = LINE('',#2013,#2014);
#2013 = CARTESIAN_POINT('',(1.75,1.05,6.55));
#2014 = VECTOR('',#2015,1.);
#2015 = DIRECTION('',(0.,1.,0.));
#2016 = ORIENTED_EDGE('',*,*,#2017,.F.);
#2017 = EDGE_CURVE('',#2018,#2010,#2020,.T.);
#2018 = VERTEX_POINT('',#2019);
#2019 = CARTESIAN_POINT('',(1.75,1.55,0.15));
#2020 = LINE('',#2021,#2022);
#2021 = CARTESIAN_POINT('',(1.75,1.55,0.));
#2022 = VECTOR('',#2023,1.);
#2023 = DIRECTION('',(0.,0.,1.));
#2024 = ORIENTED_EDGE('',*,*,#2025,.F.);
#2025 = EDGE_CURVE('',#1894,#2018,#2026,.T.);
#2026 = LINE('',#2027,#2028);
#2027 = CARTESIAN_POINT('',(1.75,1.05,0.15));
#2028 = VECTOR('',#2029,1.);
#2029 = DIRECTION('',(0.,1.,0.));
#2030 = PLANE('',#2031);
#2031 = AXIS2_PLACEMENT_3D('',#2032,#2033,#2034);
#2032 = CARTESIAN_POINT('',(1.75,1.05,0.));
#2033 = DIRECTION('',(-1.,0.,0.));
#2034 = DIRECTION('',(0.,1.,0.));
#2035 = ADVANCED_FACE('',(#2036),#2052,.F.);
#2036 = FACE_BOUND('',#2037,.F.);
#2037 = EDGE_LOOP('',(#2038,#2039,#2045,#2046));
#2038 = ORIENTED_EDGE('',*,*,#2017,.T.);
#2039 = ORIENTED_EDGE('',*,*,#2040,.T.);
#2040 = EDGE_CURVE('',#2010,#1918,#2041,.T.);
#2041 = LINE('',#2042,#2043);
#2042 = CARTESIAN_POINT('',(1.75,1.55,6.55));
#2043 = VECTOR('',#2044,1.);
#2044 = DIRECTION('',(-1.,0.,0.));
#2045 = ORIENTED_EDGE('',*,*,#1915,.F.);
#2046 = ORIENTED_EDGE('',*,*,#2047,.F.);
#2047 = EDGE_CURVE('',#2018,#1916,#2048,.T.);
#2048 = LINE('',#2049,#2050);
#2049 = CARTESIAN_POINT('',(1.75,1.55,0.15));
#2050 = VECTOR('',#2051,1.);
#2051 = DIRECTION('',(-1.,0.,0.));
#2052 = PLANE('',#2053);
#2053 = AXIS2_PLACEMENT_3D('',#2054,#2055,#2056);
#2054 = CARTESIAN_POINT('',(1.75,1.55,0.));
#2055 = DIRECTION('',(0.,-1.,0.));
#2056 = DIRECTION('',(-1.,0.,0.));
#2057 = ADVANCED_FACE('',(#2058),#2076,.T.);
#2058 = FACE_BOUND('',#2059,.F.);
#2059 = EDGE_LOOP('',(#2060,#2068,#2069,#2070));
#2060 = ORIENTED_EDGE('',*,*,#2061,.F.);
#2061 = EDGE_CURVE('',#1916,#2062,#2064,.T.);
#2062 = VERTEX_POINT('',#2063);
#2063 = CARTESIAN_POINT('',(1.4,1.4,0.));
#2064 = LINE('',#2065,#2066);
#2065 = CARTESIAN_POINT('',(1.383333333333,1.416666666667,
    1.666666666667E-02));
#2066 = VECTOR('',#2067,1.);
#2067 = DIRECTION('',(0.57735026919,-0.57735026919,-0.57735026919));
#2068 = ORIENTED_EDGE('',*,*,#1932,.T.);
#2069 = ORIENTED_EDGE('',*,*,#1946,.T.);
#2070 = ORIENTED_EDGE('',*,*,#2071,.F.);
#2071 = EDGE_CURVE('',#2062,#1947,#2072,.T.);
#2072 = LINE('',#2073,#2074);
#2073 = CARTESIAN_POINT('',(1.4,1.55,0.));
#2074 = VECTOR('',#2075,1.);
#2075 = DIRECTION('',(0.,-1.,0.));
#2076 = PLANE('',#2077);
#2077 = AXIS2_PLACEMENT_3D('',#2078,#2079,#2080);
#2078 = CARTESIAN_POINT('',(1.325,1.55,7.5E-02));
#2079 = DIRECTION('',(-0.707106781187,-0.,-0.707106781187));
#2080 = DIRECTION('',(-0.,1.,-0.));
#2081 = ADVANCED_FACE('',(#2082),#2100,.F.);
#2082 = FACE_BOUND('',#2083,.T.);
#2083 = EDGE_LOOP('',(#2084,#2092,#2093,#2094));
#2084 = ORIENTED_EDGE('',*,*,#2085,.F.);
#2085 = EDGE_CURVE('',#1918,#2086,#2088,.T.);
#2086 = VERTEX_POINT('',#2087);
#2087 = CARTESIAN_POINT('',(1.4,1.4,6.7));
#2088 = LINE('',#2089,#2090);
#2089 = CARTESIAN_POINT('',(1.383333333333,1.416666666667,6.683333333333
    ));
#2090 = VECTOR('',#2091,1.);
#2091 = DIRECTION('',(0.57735026919,-0.57735026919,0.57735026919));
#2092 = ORIENTED_EDGE('',*,*,#1925,.T.);
#2093 = ORIENTED_EDGE('',*,*,#1977,.T.);
#2094 = ORIENTED_EDGE('',*,*,#2095,.F.);
#2095 = EDGE_CURVE('',#2086,#1978,#2096,.T.);
#2096 = LINE('',#2097,#2098);
#2097 = CARTESIAN_POINT('',(1.4,1.55,6.7));
#2098 = VECTOR('',#2099,1.);
#2099 = DIRECTION('',(0.,-1.,0.));
#2100 = PLANE('',#2101);
#2101 = AXIS2_PLACEMENT_3D('',#2102,#2103,#2104);
#2102 = CARTESIAN_POINT('',(1.325,1.55,6.625));
#2103 = DIRECTION('',(0.707106781187,0.,-0.707106781187));
#2104 = DIRECTION('',(-0.,1.,-0.));
#2105 = ADVANCED_FACE('',(#2106),#2124,.F.);
#2106 = FACE_BOUND('',#2107,.F.);
#2107 = EDGE_LOOP('',(#2108,#2109,#2117,#2123));
#2108 = ORIENTED_EDGE('',*,*,#1963,.T.);
#2109 = ORIENTED_EDGE('',*,*,#2110,.T.);
#2110 = EDGE_CURVE('',#1956,#2111,#2113,.T.);
#2111 = VERTEX_POINT('',#2112);
#2112 = CARTESIAN_POINT('',(1.6,1.4,-0.));
#2113 = LINE('',#2114,#2115);
#2114 = CARTESIAN_POINT('',(1.6,1.05,0.));
#2115 = VECTOR('',#2116,1.);
#2116 = DIRECTION('',(0.,1.,0.));
#2117 = ORIENTED_EDGE('',*,*,#2118,.T.);
#2118 = EDGE_CURVE('',#2111,#2062,#2119,.T.);
#2119 = LINE('',#2120,#2121);
#2120 = CARTESIAN_POINT('',(1.75,1.4,0.));
#2121 = VECTOR('',#2122,1.);
#2122 = DIRECTION('',(-1.,0.,0.));
#2123 = ORIENTED_EDGE('',*,*,#2071,.T.);
#2124 = PLANE('',#2125);
#2125 = AXIS2_PLACEMENT_3D('',#2126,#2127,#2128);
#2126 = CARTESIAN_POINT('',(1.5,1.3,0.));
#2127 = DIRECTION('',(0.,0.,1.));
#2128 = DIRECTION('',(1.,0.,0.));
#2129 = ADVANCED_FACE('',(#2130),#2141,.T.);
#2130 = FACE_BOUND('',#2131,.F.);
#2131 = EDGE_LOOP('',(#2132,#2133,#2134,#2140));
#2132 = ORIENTED_EDGE('',*,*,#1955,.F.);
#2133 = ORIENTED_EDGE('',*,*,#2025,.T.);
#2134 = ORIENTED_EDGE('',*,*,#2135,.T.);
#2135 = EDGE_CURVE('',#2018,#2111,#2136,.T.);
#2136 = LINE('',#2137,#2138);
#2137 = CARTESIAN_POINT('',(1.616666666667,1.416666666667,
    1.666666666667E-02));
#2138 = VECTOR('',#2139,1.);
#2139 = DIRECTION('',(-0.57735026919,-0.57735026919,-0.57735026919));
#2140 = ORIENTED_EDGE('',*,*,#2110,.F.);
#2141 = PLANE('',#2142);
#2142 = AXIS2_PLACEMENT_3D('',#2143,#2144,#2145);
#2143 = CARTESIAN_POINT('',(1.675,1.05,7.5E-02));
#2144 = DIRECTION('',(0.707106781187,0.,-0.707106781187));
#2145 = DIRECTION('',(-0.,-1.,-0.));
#2146 = ADVANCED_FACE('',(#2147),#2165,.T.);
#2147 = FACE_BOUND('',#2148,.T.);
#2148 = EDGE_LOOP('',(#2149,#2150,#2158,#2164));
#2149 = ORIENTED_EDGE('',*,*,#1994,.T.);
#2150 = ORIENTED_EDGE('',*,*,#2151,.T.);
#2151 = EDGE_CURVE('',#1987,#2152,#2154,.T.);
#2152 = VERTEX_POINT('',#2153);
#2153 = CARTESIAN_POINT('',(1.6,1.4,6.7));
#2154 = LINE('',#2155,#2156);
#2155 = CARTESIAN_POINT('',(1.6,1.05,6.7));
#2156 = VECTOR('',#2157,1.);
#2157 = DIRECTION('',(0.,1.,0.));
#2158 = ORIENTED_EDGE('',*,*,#2159,.T.);
#2159 = EDGE_CURVE('',#2152,#2086,#2160,.T.);
#2160 = LINE('',#2161,#2162);
#2161 = CARTESIAN_POINT('',(1.75,1.4,6.7));
#2162 = VECTOR('',#2163,1.);
#2163 = DIRECTION('',(-1.,0.,0.));
#2164 = ORIENTED_EDGE('',*,*,#2095,.T.);
#2165 = PLANE('',#2166);
#2166 = AXIS2_PLACEMENT_3D('',#2167,#2168,#2169);
#2167 = CARTESIAN_POINT('',(1.5,1.3,6.7));
#2168 = DIRECTION('',(0.,0.,1.));
#2169 = DIRECTION('',(1.,0.,0.));
#2170 = ADVANCED_FACE('',(#2171),#2182,.F.);
#2171 = FACE_BOUND('',#2172,.T.);
#2172 = EDGE_LOOP('',(#2173,#2174,#2175,#2181));
#2173 = ORIENTED_EDGE('',*,*,#1986,.F.);
#2174 = ORIENTED_EDGE('',*,*,#2009,.T.);
#2175 = ORIENTED_EDGE('',*,*,#2176,.T.);
#2176 = EDGE_CURVE('',#2010,#2152,#2177,.T.);
#2177 = LINE('',#2178,#2179);
#2178 = CARTESIAN_POINT('',(1.616666666667,1.416666666667,6.683333333333
    ));
#2179 = VECTOR('',#2180,1.);
#2180 = DIRECTION('',(-0.57735026919,-0.57735026919,0.57735026919));
#2181 = ORIENTED_EDGE('',*,*,#2151,.F.);
#2182 = PLANE('',#2183);
#2183 = AXIS2_PLACEMENT_3D('',#2184,#2185,#2186);
#2184 = CARTESIAN_POINT('',(1.675,1.05,6.625));
#2185 = DIRECTION('',(-0.707106781187,-0.,-0.707106781187));
#2186 = DIRECTION('',(-0.,-1.,0.));
#2187 = ADVANCED_FACE('',(#2188),#2194,.T.);
#2188 = FACE_BOUND('',#2189,.F.);
#2189 = EDGE_LOOP('',(#2190,#2191,#2192,#2193));
#2190 = ORIENTED_EDGE('',*,*,#2135,.F.);
#2191 = ORIENTED_EDGE('',*,*,#2047,.T.);
#2192 = ORIENTED_EDGE('',*,*,#2061,.T.);
#2193 = ORIENTED_EDGE('',*,*,#2118,.F.);
#2194 = PLANE('',#2195);
#2195 = AXIS2_PLACEMENT_3D('',#2196,#2197,#2198);
#2196 = CARTESIAN_POINT('',(1.75,1.475,7.5E-02));
#2197 = DIRECTION('',(0.,0.707106781187,-0.707106781187));
#2198 = DIRECTION('',(1.,-0.,0.));
#2199 = ADVANCED_FACE('',(#2200),#2206,.F.);
#2200 = FACE_BOUND('',#2201,.T.);
#2201 = EDGE_LOOP('',(#2202,#2203,#2204,#2205));
#2202 = ORIENTED_EDGE('',*,*,#2176,.F.);
#2203 = ORIENTED_EDGE('',*,*,#2040,.T.);
#2204 = ORIENTED_EDGE('',*,*,#2085,.T.);
#2205 = ORIENTED_EDGE('',*,*,#2159,.F.);
#2206 = PLANE('',#2207);
#2207 = AXIS2_PLACEMENT_3D('',#2208,#2209,#2210);
#2208 = CARTESIAN_POINT('',(1.75,1.475,6.625));
#2209 = DIRECTION('',(0.,-0.707106781187,-0.707106781187));
#2210 = DIRECTION('',(1.,0.,-0.));
#2211 = ( GEOMETRIC_REPRESENTATION_CONTEXT(3) 
GLOBAL_UNCERTAINTY_ASSIGNED_CONTEXT((#2215)) 
GLOBAL_UNIT_ASSIGNED_CONTEXT((#2212,#2213,#2214)) REPRESENTATION_CONTEXT
('Context #1','3D Context with UNIT and UNCERTAINTY') );
#2212 = ( LENGTH_UNIT() NAMED_UNIT(*) SI_UNIT(.MILLI.,.METRE.) );
#2213 = ( NAMED_UNIT(*) PLANE_ANGLE_UNIT() SI_UNIT($,.RADIAN.) );
#2214 = ( NAMED_UNIT(*) SI_UNIT($,.STERADIAN.) SOLID_ANGLE_UNIT() );
#2215 = UNCERTAINTY_MEASURE_WITH_UNIT(LENGTH_MEASURE(1.E-07),#2212,
  'distance_accuracy_value','confusion accuracy');
#2216 = CONTEXT_DEPENDENT_SHAPE_REPRESENTATION(#2217,#2219);
#2217 = ( REPRESENTATION_RELATIONSHIP('','',#1868,#1833) 
REPRESENTATION_RELATIONSHIP_WITH_TRANSFORMATION(#2218) 
SHAPE_REPRESENTATION_RELATIONSHIP() );
#2218 = ITEM_DEFINED_TRANSFORMATION('','',#11,#1834);
#2219 = PRODUCT_DEFINITION_SHAPE('Placement','Placement of an item',
  #2220);
#2220 = NEXT_ASSEMBLY_USAGE_OCCURRENCE('2','0','',#1828,#1863,$);
#2221 = PRODUCT_RELATED_PRODUCT_CATEGORY('part',$,(#1865));
#2222 = CONTEXT_DEPENDENT_SHAPE_REPRESENTATION(#2223,#2225);
#2223 = ( REPRESENTATION_RELATIONSHIP('','',#1868,#1833) 
REPRESENTATION_RELATIONSHIP_WITH_TRANSFORMATION(#2224) 
SHAPE_REPRESENTATION_RELATIONSHIP() );
#2224 = ITEM_DEFINED_TRANSFORMATION('','',#11,#1838);
#2225 = PRODUCT_DEFINITION_SHAPE('Placement','Placement of an item',
  #2226);
#2226 = NEXT_ASSEMBLY_USAGE_OCCURRENCE('3','1','',#1828,#1863,$);
#2227 = CONTEXT_DEPENDENT_SHAPE_REPRESENTATION(#2228,#2230);
#2228 = ( REPRESENTATION_RELATIONSHIP('','',#1868,#1833) 
REPRESENTATION_RELATIONSHIP_WITH_TRANSFORMATION(#2229) 
SHAPE_REPRESENTATION_RELATIONSHIP() );
#2229 = ITEM_DEFINED_TRANSFORMATION('','',#11,#1842);
#2230 = PRODUCT_DEFINITION_SHAPE('Placement','Placement of an item',
  #2231);
#2231 = NEXT_ASSEMBLY_USAGE_OCCURRENCE('4','2','',#1828,#1863,$);
#2232 = CONTEXT_DEPENDENT_SHAPE_REPRESENTATION(#2233,#2235);
#2233 = ( REPRESENTATION_RELATIONSHIP('','',#1868,#1833) 
REPRESENTATION_RELATIONSHIP_WITH_TRANSFORMATION(#2234) 
SHAPE_REPRESENTATION_RELATIONSHIP() );
#2234 = ITEM_DEFINED_TRANSFORMATION('','',#11,#1846);
#2235 = PRODUCT_DEFINITION_SHAPE('Placement','Placement of an item',
  #2236);
#2236 = NEXT_ASSEMBLY_USAGE_OCCURRENCE('5','3','',#1828,#1863,$);
#2237 = MECHANICAL_DESIGN_GEOMETRIC_PRESENTATION_REPRESENTATION('',(
    #2238),#2211);
#2238 = STYLED_ITEM('color',(#2239),#1869);
#2239 = PRESENTATION_STYLE_ASSIGNMENT((#2240,#2246));
#2240 = SURFACE_STYLE_USAGE(.BOTH.,#2241);
#2241 = SURFACE_SIDE_STYLE('',(#2242));
#2242 = SURFACE_STYLE_FILL_AREA(#2243);
#2243 = FILL_AREA_STYLE('',(#2244));
#2244 = FILL_AREA_STYLE_COLOUR('',#2245);
#2245 = COLOUR_RGB('',0.925490190256,0.925490190256,0.925490190256);
#2246 = CURVE_STYLE('',#2247,POSITIVE_LENGTH_MEASURE(0.1),#2248);
#2247 = DRAUGHTING_PRE_DEFINED_CURVE_FONT('continuous');
#2248 = COLOUR_RGB('',9.803921802644E-02,9.803921802644E-02,
  9.803921802644E-02);
#2249 = MECHANICAL_DESIGN_GEOMETRIC_PRESENTATION_REPRESENTATION('',(
    #2250),#1815);
#2250 = STYLED_ITEM('color',(#2251),#37);
#2251 = PRESENTATION_STYLE_ASSIGNMENT((#2252,#2258));
#2252 = SURFACE_STYLE_USAGE(.BOTH.,#2253);
#2253 = SURFACE_SIDE_STYLE('',(#2254));
#2254 = SURFACE_STYLE_FILL_AREA(#2255);
#2255 = FILL_AREA_STYLE('',(#2256));
#2256 = FILL_AREA_STYLE_COLOUR('',#2257);
#2257 = COLOUR_RGB('',0.447058818107,0.474509808674,0.501960817233);
#2258 = CURVE_STYLE('',#2259,POSITIVE_LENGTH_MEASURE(0.1),#2248);
#2259 = DRAUGHTING_PRE_DEFINED_CURVE_FONT('continuous');
ENDSEC;
END-ISO-10303-21;
