ISO-10303-21;
HEADER;
FILE_DESCRIPTION(('FreeCAD Model'),'2;1');
FILE_NAME('Open CASCADE Shape Model','2026-01-03T21:42:13',('Author'),(
    ''),'Open CASCADE STEP processor 7.8','FreeCAD','Unknown');
FILE_SCHEMA(('AUTOMOTIVE_DESIGN { 1 0 10303 214 1 1 1 1 }'));
ENDSEC;
DATA;
#1 = APPLICATION_PROTOCOL_DEFINITION('international standard',
  'automotive_design',2000,#2);
#2 = APPLICATION_CONTEXT(
  'core data for automotive mechanical design processes');
#3 = SHAPE_DEFINITION_REPRESENTATION(#4,#10);
#4 = PRODUCT_DEFINITION_SHAPE('','',#5);
#5 = PRODUCT_DEFINITION('design','',#6,#9);
#6 = PRODUCT_DEFINITION_FORMATION('','',#7);
#7 = PRODUCT('JST_ZH_B3B','JST_ZH_B3B','',(#8));
#8 = PRODUCT_CONTEXT('',#2,'mechanical');
#9 = PRODUCT_DEFINITION_CONTEXT('part definition',#2,'design');
#10 = SHAPE_REPRESENTATION('',(#11,#15,#19),#23);
#11 = AXIS2_PLACEMENT_3D('',#12,#13,#14);
#12 = CARTESIAN_POINT('',(0.,0.,0.));
#13 = DIRECTION('',(0.,0.,1.));
#14 = DIRECTION('',(1.,0.,-0.));
#15 = AXIS2_PLACEMENT_3D('',#16,#17,#18);
#16 = CARTESIAN_POINT('',(0.,0.,-2.7));
#17 = DIRECTION('',(0.,0.,1.));
#18 = DIRECTION('',(1.,0.,0.));
#19 = AXIS2_PLACEMENT_3D('',#20,#21,#22);
#20 = CARTESIAN_POINT('',(0.,0.,0.));
#21 = DIRECTION('',(0.,0.,1.));
#22 = DIRECTION('',(1.,0.,0.));
#23 = ( GEOMETRIC_REPRESENTATION_CONTEXT(3) 
GLOBAL_UNCERTAINTY_ASSIGNED_CONTEXT((#27)) GLOBAL_UNIT_ASSIGNED_CONTEXT(
(#24,#25,#26)) REPRESENTATION_CONTEXT('Context #1',
  '3D Context with UNIT and UNCERTAINTY') );
#24 = ( LENGTH_UNIT() NAMED_UNIT(*) SI_UNIT(.MILLI.,.METRE.) );
#25 = ( NAMED_UNIT(*) PLANE_ANGLE_UNIT() SI_UNIT($,.RADIAN.) );
#26 = ( NAMED_UNIT(*) SI_UNIT($,.STERADIAN.) SOLID_ANGLE_UNIT() );
#27 = UNCERTAINTY_MEASURE_WITH_UNIT(LENGTH_MEASURE(1.E-06),#24,
  'distance_accuracy_value','confusion accuracy');
#28 = PRODUCT_RELATED_PRODUCT_CATEGORY('part',$,(#7));
#29 = SHAPE_DEFINITION_REPRESENTATION(#30,#36);
#30 = PRODUCT_DEFINITION_SHAPE('','',#31);
#31 = PRODUCT_DEFINITION('design','',#32,#35);
#32 = PRODUCT_DEFINITION_FORMATION('','',#33);
#33 = PRODUCT('Array','Array','',(#34));
#34 = PRODUCT_CONTEXT('',#2,'mechanical');
#35 = PRODUCT_DEFINITION_CONTEXT('part definition',#2,'design');
#36 = SHAPE_REPRESENTATION('',(#11,#37,#41,#45),#49);
#37 = AXIS2_PLACEMENT_3D('',#38,#39,#40);
#38 = CARTESIAN_POINT('',(0.,0.,0.));
#39 = DIRECTION('',(0.,0.,1.));
#40 = DIRECTION('',(1.,0.,0.));
#41 = AXIS2_PLACEMENT_3D('',#42,#43,#44);
#42 = CARTESIAN_POINT('',(1.5,0.,0.));
#43 = DIRECTION('',(0.,0.,1.));
#44 = DIRECTION('',(1.,0.,0.));
#45 = AXIS2_PLACEMENT_3D('',#46,#47,#48);
#46 = CARTESIAN_POINT('',(3.,0.,0.));
#47 = DIRECTION('',(0.,0.,1.));
#48 = DIRECTION('',(1.,0.,0.));
#49 = ( GEOMETRIC_REPRESENTATION_CONTEXT(3) 
GLOBAL_UNCERTAINTY_ASSIGNED_CONTEXT((#53)) GLOBAL_UNIT_ASSIGNED_CONTEXT(
(#50,#51,#52)) REPRESENTATION_CONTEXT('Context #1',
  '3D Context with UNIT and UNCERTAINTY') );
#50 = ( LENGTH_UNIT() NAMED_UNIT(*) SI_UNIT(.MILLI.,.METRE.) );
#51 = ( NAMED_UNIT(*) PLANE_ANGLE_UNIT() SI_UNIT($,.RADIAN.) );
#52 = ( NAMED_UNIT(*) SI_UNIT($,.STERADIAN.) SOLID_ANGLE_UNIT() );
#53 = UNCERTAINTY_MEASURE_WITH_UNIT(LENGTH_MEASURE(1.E-07),#50,
  'distance_accuracy_value','confusion accuracy');
#54 = CONTEXT_DEPENDENT_SHAPE_REPRESENTATION(#55,#57);
#55 = ( REPRESENTATION_RELATIONSHIP('','',#36,#10) 
REPRESENTATION_RELATIONSHIP_WITH_TRANSFORMATION(#56) 
SHAPE_REPRESENTATION_RELATIONSHIP() );
#56 = ITEM_DEFINED_TRANSFORMATION('','',#11,#15);
#57 = PRODUCT_DEFINITION_SHAPE('Placement','Placement of an item',#58);
#58 = NEXT_ASSEMBLY_USAGE_OCCURRENCE('4','Array','',#5,#31,$);
#59 = PRODUCT_RELATED_PRODUCT_CATEGORY('part',$,(#33));
#60 = SHAPE_DEFINITION_REPRESENTATION(#61,#67);
#61 = PRODUCT_DEFINITION_SHAPE('','',#62);
#62 = PRODUCT_DEFINITION('design','',#63,#66);
#63 = PRODUCT_DEFINITION_FORMATION('','',#64);
#64 = PRODUCT('Chamfer001','Chamfer001','',(#65));
#65 = PRODUCT_CONTEXT('',#2,'mechanical');
#66 = PRODUCT_DEFINITION_CONTEXT('part definition',#2,'design');
#67 = ADVANCED_BREP_SHAPE_REPRESENTATION('',(#11,#68),#410);
#68 = MANIFOLD_SOLID_BREP('',#69);
#69 = CLOSED_SHELL('',(#70,#110,#141,#172,#203,#234,#256,#280,#304,#328,
    #345,#369,#386,#398));
#70 = ADVANCED_FACE('',(#71),#105,.F.);
#71 = FACE_BOUND('',#72,.F.);
#72 = EDGE_LOOP('',(#73,#83,#91,#99));
#73 = ORIENTED_EDGE('',*,*,#74,.T.);
#74 = EDGE_CURVE('',#75,#77,#79,.T.);
#75 = VERTEX_POINT('',#76);
#76 = CARTESIAN_POINT('',(1.25,1.05,0.15));
#77 = VERTEX_POINT('',#78);
#78 = CARTESIAN_POINT('',(1.25,1.05,6.55));
#79 = LINE('',#80,#81);
#80 = CARTESIAN_POINT('',(1.25,1.05,0.));
#81 = VECTOR('',#82,1.);
#82 = DIRECTION('',(0.,0.,1.));
#83 = ORIENTED_EDGE('',*,*,#84,.T.);
#84 = EDGE_CURVE('',#77,#85,#87,.T.);
#85 = VERTEX_POINT('',#86);
#86 = CARTESIAN_POINT('',(1.75,1.05,6.55));
#87 = LINE('',#88,#89);
#88 = CARTESIAN_POINT('',(1.25,1.05,6.55));
#89 = VECTOR('',#90,1.);
#90 = DIRECTION('',(1.,0.,0.));
#91 = ORIENTED_EDGE('',*,*,#92,.F.);
#92 = EDGE_CURVE('',#93,#85,#95,.T.);
#93 = VERTEX_POINT('',#94);
#94 = CARTESIAN_POINT('',(1.75,1.05,0.15));
#95 = LINE('',#96,#97);
#96 = CARTESIAN_POINT('',(1.75,1.05,0.));
#97 = VECTOR('',#98,1.);
#98 = DIRECTION('',(0.,0.,1.));
#99 = ORIENTED_EDGE('',*,*,#100,.F.);
#100 = EDGE_CURVE('',#75,#93,#101,.T.);
#101 = LINE('',#102,#103);
#102 = CARTESIAN_POINT('',(1.25,1.05,0.15));
#103 = VECTOR('',#104,1.);
#104 = DIRECTION('',(1.,0.,0.));
#105 = PLANE('',#106);
#106 = AXIS2_PLACEMENT_3D('',#107,#108,#109);
#107 = CARTESIAN_POINT('',(1.25,1.05,0.));
#108 = DIRECTION('',(0.,1.,0.));
#109 = DIRECTION('',(1.,0.,0.));
#110 = ADVANCED_FACE('',(#111),#136,.F.);
#111 = FACE_BOUND('',#112,.F.);
#112 = EDGE_LOOP('',(#113,#123,#129,#130));
#113 = ORIENTED_EDGE('',*,*,#114,.T.);
#114 = EDGE_CURVE('',#115,#117,#119,.T.);
#115 = VERTEX_POINT('',#116);
#116 = CARTESIAN_POINT('',(1.25,1.55,0.15));
#117 = VERTEX_POINT('',#118);
#118 = CARTESIAN_POINT('',(1.25,1.55,6.55));
#119 = LINE('',#120,#121);
#120 = CARTESIAN_POINT('',(1.25,1.55,0.));
#121 = VECTOR('',#122,1.);
#122 = DIRECTION('',(0.,0.,1.));
#123 = ORIENTED_EDGE('',*,*,#124,.T.);
#124 = EDGE_CURVE('',#117,#77,#125,.T.);
#125 = LINE('',#126,#127);
#126 = CARTESIAN_POINT('',(1.25,1.55,6.55));
#127 = VECTOR('',#128,1.);
#128 = DIRECTION('',(0.,-1.,0.));
#129 = ORIENTED_EDGE('',*,*,#74,.F.);
#130 = ORIENTED_EDGE('',*,*,#131,.F.);
#131 = EDGE_CURVE('',#115,#75,#132,.T.);
#132 = LINE('',#133,#134);
#133 = CARTESIAN_POINT('',(1.25,1.55,0.15));
#134 = VECTOR('',#135,1.);
#135 = DIRECTION('',(0.,-1.,0.));
#136 = PLANE('',#137);
#137 = AXIS2_PLACEMENT_3D('',#138,#139,#140);
#138 = CARTESIAN_POINT('',(1.25,1.55,0.));
#139 = DIRECTION('',(1.,0.,0.));
#140 = DIRECTION('',(0.,-1.,0.));
#141 = ADVANCED_FACE('',(#142),#167,.T.);
#142 = FACE_BOUND('',#143,.F.);
#143 = EDGE_LOOP('',(#144,#152,#153,#161));
#144 = ORIENTED_EDGE('',*,*,#145,.F.);
#145 = EDGE_CURVE('',#75,#146,#148,.T.);
#146 = VERTEX_POINT('',#147);
#147 = CARTESIAN_POINT('',(1.4,1.2,-0.));
#148 = LINE('',#149,#150);
#149 = CARTESIAN_POINT('',(1.383333333333,1.183333333333,
    1.666666666667E-02));
#150 = VECTOR('',#151,1.);
#151 = DIRECTION('',(0.57735026919,0.57735026919,-0.57735026919));
#152 = ORIENTED_EDGE('',*,*,#100,.T.);
#153 = ORIENTED_EDGE('',*,*,#154,.T.);
#154 = EDGE_CURVE('',#93,#155,#157,.T.);
#155 = VERTEX_POINT('',#156);
#156 = CARTESIAN_POINT('',(1.6,1.2,-0.));
#157 = LINE('',#158,#159);
#158 = CARTESIAN_POINT('',(1.616666666667,1.183333333333,
    1.666666666667E-02));
#159 = VECTOR('',#160,1.);
#160 = DIRECTION('',(-0.57735026919,0.57735026919,-0.57735026919));
#161 = ORIENTED_EDGE('',*,*,#162,.F.);
#162 = EDGE_CURVE('',#146,#155,#163,.T.);
#163 = LINE('',#164,#165);
#164 = CARTESIAN_POINT('',(1.25,1.2,0.));
#165 = VECTOR('',#166,1.);
#166 = DIRECTION('',(1.,0.,0.));
#167 = PLANE('',#168);
#168 = AXIS2_PLACEMENT_3D('',#169,#170,#171);
#169 = CARTESIAN_POINT('',(1.25,1.125,7.5E-02));
#170 = DIRECTION('',(-0.,-0.707106781187,-0.707106781187));
#171 = DIRECTION('',(-1.,0.,-0.));
#172 = ADVANCED_FACE('',(#173),#198,.F.);
#173 = FACE_BOUND('',#174,.T.);
#174 = EDGE_LOOP('',(#175,#183,#184,#192));
#175 = ORIENTED_EDGE('',*,*,#176,.F.);
#176 = EDGE_CURVE('',#77,#177,#179,.T.);
#177 = VERTEX_POINT('',#178);
#178 = CARTESIAN_POINT('',(1.4,1.2,6.7));
#179 = LINE('',#180,#181);
#180 = CARTESIAN_POINT('',(1.383333333333,1.183333333333,6.683333333333)
  );
#181 = VECTOR('',#182,1.);
#182 = DIRECTION('',(0.57735026919,0.57735026919,0.57735026919));
#183 = ORIENTED_EDGE('',*,*,#84,.T.);
#184 = ORIENTED_EDGE('',*,*,#185,.T.);
#185 = EDGE_CURVE('',#85,#186,#188,.T.);
#186 = VERTEX_POINT('',#187);
#187 = CARTESIAN_POINT('',(1.6,1.2,6.7));
#188 = LINE('',#189,#190);
#189 = CARTESIAN_POINT('',(1.616666666667,1.183333333333,6.683333333333)
  );
#190 = VECTOR('',#191,1.);
#191 = DIRECTION('',(-0.57735026919,0.57735026919,0.57735026919));
#192 = ORIENTED_EDGE('',*,*,#193,.F.);
#193 = EDGE_CURVE('',#177,#186,#194,.T.);
#194 = LINE('',#195,#196);
#195 = CARTESIAN_POINT('',(1.25,1.2,6.7));
#196 = VECTOR('',#197,1.);
#197 = DIRECTION('',(1.,0.,0.));
#198 = PLANE('',#199);
#199 = AXIS2_PLACEMENT_3D('',#200,#201,#202);
#200 = CARTESIAN_POINT('',(1.25,1.125,6.625));
#201 = DIRECTION('',(-0.,0.707106781187,-0.707106781187));
#202 = DIRECTION('',(-1.,-0.,0.));
#203 = ADVANCED_FACE('',(#204),#229,.F.);
#204 = FACE_BOUND('',#205,.F.);
#205 = EDGE_LOOP('',(#206,#207,#215,#223));
#206 = ORIENTED_EDGE('',*,*,#92,.T.);
#207 = ORIENTED_EDGE('',*,*,#208,.T.);
#208 = EDGE_CURVE('',#85,#209,#211,.T.);
#209 = VERTEX_POINT('',#210);
#210 = CARTESIAN_POINT('',(1.75,1.55,6.55));
#211 = LINE('',#212,#213);
#212 = CARTESIAN_POINT('',(1.75,1.05,6.55));
#213 = VECTOR('',#214,1.);
#214 = DIRECTION('',(0.,1.,0.));
#215 = ORIENTED_EDGE('',*,*,#216,.F.);
#216 = EDGE_CURVE('',#217,#209,#219,.T.);
#217 = VERTEX_POINT('',#218);
#218 = CARTESIAN_POINT('',(1.75,1.55,0.15));
#219 = LINE('',#220,#221);
#220 = CARTESIAN_POINT('',(1.75,1.55,0.));
#221 = VECTOR('',#222,1.);
#222 = DIRECTION('',(0.,0.,1.));
#223 = ORIENTED_EDGE('',*,*,#224,.F.);
#224 = EDGE_CURVE('',#93,#217,#225,.T.);
#225 = LINE('',#226,#227);
#226 = CARTESIAN_POINT('',(1.75,1.05,0.15));
#227 = VECTOR('',#228,1.);
#228 = DIRECTION('',(0.,1.,0.));
#229 = PLANE('',#230);
#230 = AXIS2_PLACEMENT_3D('',#231,#232,#233);
#231 = CARTESIAN_POINT('',(1.75,1.05,0.));
#232 = DIRECTION('',(-1.,0.,0.));
#233 = DIRECTION('',(0.,1.,0.));
#234 = ADVANCED_FACE('',(#235),#251,.F.);
#235 = FACE_BOUND('',#236,.F.);
#236 = EDGE_LOOP('',(#237,#238,#244,#245));
#237 = ORIENTED_EDGE('',*,*,#216,.T.);
#238 = ORIENTED_EDGE('',*,*,#239,.T.);
#239 = EDGE_CURVE('',#209,#117,#240,.T.);
#240 = LINE('',#241,#242);
#241 = CARTESIAN_POINT('',(1.75,1.55,6.55));
#242 = VECTOR('',#243,1.);
#243 = DIRECTION('',(-1.,0.,0.));
#244 = ORIENTED_EDGE('',*,*,#114,.F.);
#245 = ORIENTED_EDGE('',*,*,#246,.F.);
#246 = EDGE_CURVE('',#217,#115,#247,.T.);
#247 = LINE('',#248,#249);
#248 = CARTESIAN_POINT('',(1.75,1.55,0.15));
#249 = VECTOR('',#250,1.);
#250 = DIRECTION('',(-1.,0.,0.));
#251 = PLANE('',#252);
#252 = AXIS2_PLACEMENT_3D('',#253,#254,#255);
#253 = CARTESIAN_POINT('',(1.75,1.55,0.));
#254 = DIRECTION('',(0.,-1.,0.));
#255 = DIRECTION('',(-1.,0.,0.));
#256 = ADVANCED_FACE('',(#257),#275,.T.);
#257 = FACE_BOUND('',#258,.F.);
#258 = EDGE_LOOP('',(#259,#267,#268,#269));
#259 = ORIENTED_EDGE('',*,*,#260,.F.);
#260 = EDGE_CURVE('',#115,#261,#263,.T.);
#261 = VERTEX_POINT('',#262);
#262 = CARTESIAN_POINT('',(1.4,1.4,0.));
#263 = LINE('',#264,#265);
#264 = CARTESIAN_POINT('',(1.383333333333,1.416666666667,
    1.666666666667E-02));
#265 = VECTOR('',#266,1.);
#266 = DIRECTION('',(0.57735026919,-0.57735026919,-0.57735026919));
#267 = ORIENTED_EDGE('',*,*,#131,.T.);
#268 = ORIENTED_EDGE('',*,*,#145,.T.);
#269 = ORIENTED_EDGE('',*,*,#270,.F.);
#270 = EDGE_CURVE('',#261,#146,#271,.T.);
#271 = LINE('',#272,#273);
#272 = CARTESIAN_POINT('',(1.4,1.55,0.));
#273 = VECTOR('',#274,1.);
#274 = DIRECTION('',(0.,-1.,0.));
#275 = PLANE('',#276);
#276 = AXIS2_PLACEMENT_3D('',#277,#278,#279);
#277 = CARTESIAN_POINT('',(1.325,1.55,7.5E-02));
#278 = DIRECTION('',(-0.707106781187,-0.,-0.707106781187));
#279 = DIRECTION('',(-0.,1.,-0.));
#280 = ADVANCED_FACE('',(#281),#299,.F.);
#281 = FACE_BOUND('',#282,.T.);
#282 = EDGE_LOOP('',(#283,#291,#292,#293));
#283 = ORIENTED_EDGE('',*,*,#284,.F.);
#284 = EDGE_CURVE('',#117,#285,#287,.T.);
#285 = VERTEX_POINT('',#286);
#286 = CARTESIAN_POINT('',(1.4,1.4,6.7));
#287 = LINE('',#288,#289);
#288 = CARTESIAN_POINT('',(1.383333333333,1.416666666667,6.683333333333)
  );
#289 = VECTOR('',#290,1.);
#290 = DIRECTION('',(0.57735026919,-0.57735026919,0.57735026919));
#291 = ORIENTED_EDGE('',*,*,#124,.T.);
#292 = ORIENTED_EDGE('',*,*,#176,.T.);
#293 = ORIENTED_EDGE('',*,*,#294,.F.);
#294 = EDGE_CURVE('',#285,#177,#295,.T.);
#295 = LINE('',#296,#297);
#296 = CARTESIAN_POINT('',(1.4,1.55,6.7));
#297 = VECTOR('',#298,1.);
#298 = DIRECTION('',(0.,-1.,0.));
#299 = PLANE('',#300);
#300 = AXIS2_PLACEMENT_3D('',#301,#302,#303);
#301 = CARTESIAN_POINT('',(1.325,1.55,6.625));
#302 = DIRECTION('',(0.707106781187,0.,-0.707106781187));
#303 = DIRECTION('',(-0.,1.,-0.));
#304 = ADVANCED_FACE('',(#305),#323,.F.);
#305 = FACE_BOUND('',#306,.F.);
#306 = EDGE_LOOP('',(#307,#308,#316,#322));
#307 = ORIENTED_EDGE('',*,*,#162,.T.);
#308 = ORIENTED_EDGE('',*,*,#309,.T.);
#309 = EDGE_CURVE('',#155,#310,#312,.T.);
#310 = VERTEX_POINT('',#311);
#311 = CARTESIAN_POINT('',(1.6,1.4,-0.));
#312 = LINE('',#313,#314);
#313 = CARTESIAN_POINT('',(1.6,1.05,0.));
#314 = VECTOR('',#315,1.);
#315 = DIRECTION('',(0.,1.,0.));
#316 = ORIENTED_EDGE('',*,*,#317,.T.);
#317 = EDGE_CURVE('',#310,#261,#318,.T.);
#318 = LINE('',#319,#320);
#319 = CARTESIAN_POINT('',(1.75,1.4,0.));
#320 = VECTOR('',#321,1.);
#321 = DIRECTION('',(-1.,0.,0.));
#322 = ORIENTED_EDGE('',*,*,#270,.T.);
#323 = PLANE('',#324);
#324 = AXIS2_PLACEMENT_3D('',#325,#326,#327);
#325 = CARTESIAN_POINT('',(1.5,1.3,0.));
#326 = DIRECTION('',(0.,0.,1.));
#327 = DIRECTION('',(1.,0.,0.));
#328 = ADVANCED_FACE('',(#329),#340,.T.);
#329 = FACE_BOUND('',#330,.F.);
#330 = EDGE_LOOP('',(#331,#332,#333,#339));
#331 = ORIENTED_EDGE('',*,*,#154,.F.);
#332 = ORIENTED_EDGE('',*,*,#224,.T.);
#333 = ORIENTED_EDGE('',*,*,#334,.T.);
#334 = EDGE_CURVE('',#217,#310,#335,.T.);
#335 = LINE('',#336,#337);
#336 = CARTESIAN_POINT('',(1.616666666667,1.416666666667,
    1.666666666667E-02));
#337 = VECTOR('',#338,1.);
#338 = DIRECTION('',(-0.57735026919,-0.57735026919,-0.57735026919));
#339 = ORIENTED_EDGE('',*,*,#309,.F.);
#340 = PLANE('',#341);
#341 = AXIS2_PLACEMENT_3D('',#342,#343,#344);
#342 = CARTESIAN_POINT('',(1.675,1.05,7.5E-02));
#343 = DIRECTION('',(0.707106781187,0.,-0.707106781187));
#344 = DIRECTION('',(-0.,-1.,-0.));
#345 = ADVANCED_FACE('',(#346),#364,.T.);
#346 = FACE_BOUND('',#347,.T.);
#347 = EDGE_LOOP('',(#348,#349,#357,#363));
#348 = ORIENTED_EDGE('',*,*,#193,.T.);
#349 = ORIENTED_EDGE('',*,*,#350,.T.);
#350 = EDGE_CURVE('',#186,#351,#353,.T.);
#351 = VERTEX_POINT('',#352);
#352 = CARTESIAN_POINT('',(1.6,1.4,6.7));
#353 = LINE('',#354,#355);
#354 = CARTESIAN_POINT('',(1.6,1.05,6.7));
#355 = VECTOR('',#356,1.);
#356 = DIRECTION('',(0.,1.,0.));
#357 = ORIENTED_EDGE('',*,*,#358,.T.);
#358 = EDGE_CURVE('',#351,#285,#359,.T.);
#359 = LINE('',#360,#361);
#360 = CARTESIAN_POINT('',(1.75,1.4,6.7));
#361 = VECTOR('',#362,1.);
#362 = DIRECTION('',(-1.,0.,0.));
#363 = ORIENTED_EDGE('',*,*,#294,.T.);
#364 = PLANE('',#365);
#365 = AXIS2_PLACEMENT_3D('',#366,#367,#368);
#366 = CARTESIAN_POINT('',(1.5,1.3,6.7));
#367 = DIRECTION('',(0.,0.,1.));
#368 = DIRECTION('',(1.,0.,0.));
#369 = ADVANCED_FACE('',(#370),#381,.F.);
#370 = FACE_BOUND('',#371,.T.);
#371 = EDGE_LOOP('',(#372,#373,#374,#380));
#372 = ORIENTED_EDGE('',*,*,#185,.F.);
#373 = ORIENTED_EDGE('',*,*,#208,.T.);
#374 = ORIENTED_EDGE('',*,*,#375,.T.);
#375 = EDGE_CURVE('',#209,#351,#376,.T.);
#376 = LINE('',#377,#378);
#377 = CARTESIAN_POINT('',(1.616666666667,1.416666666667,6.683333333333)
  );
#378 = VECTOR('',#379,1.);
#379 = DIRECTION('',(-0.57735026919,-0.57735026919,0.57735026919));
#380 = ORIENTED_EDGE('',*,*,#350,.F.);
#381 = PLANE('',#382);
#382 = AXIS2_PLACEMENT_3D('',#383,#384,#385);
#383 = CARTESIAN_POINT('',(1.675,1.05,6.625));
#384 = DIRECTION('',(-0.707106781187,-0.,-0.707106781187));
#385 = DIRECTION('',(-0.,-1.,0.));
#386 = ADVANCED_FACE('',(#387),#393,.T.);
#387 = FACE_BOUND('',#388,.F.);
#388 = EDGE_LOOP('',(#389,#390,#391,#392));
#389 = ORIENTED_EDGE('',*,*,#334,.F.);
#390 = ORIENTED_EDGE('',*,*,#246,.T.);
#391 = ORIENTED_EDGE('',*,*,#260,.T.);
#392 = ORIENTED_EDGE('',*,*,#317,.F.);
#393 = PLANE('',#394);
#394 = AXIS2_PLACEMENT_3D('',#395,#396,#397);
#395 = CARTESIAN_POINT('',(1.75,1.475,7.5E-02));
#396 = DIRECTION('',(0.,0.707106781187,-0.707106781187));
#397 = DIRECTION('',(1.,-0.,0.));
#398 = ADVANCED_FACE('',(#399),#405,.F.);
#399 = FACE_BOUND('',#400,.T.);
#400 = EDGE_LOOP('',(#401,#402,#403,#404));
#401 = ORIENTED_EDGE('',*,*,#375,.F.);
#402 = ORIENTED_EDGE('',*,*,#239,.T.);
#403 = ORIENTED_EDGE('',*,*,#284,.T.);
#404 = ORIENTED_EDGE('',*,*,#358,.F.);
#405 = PLANE('',#406);
#406 = AXIS2_PLACEMENT_3D('',#407,#408,#409);
#407 = CARTESIAN_POINT('',(1.75,1.475,6.625));
#408 = DIRECTION('',(0.,-0.707106781187,-0.707106781187));
#409 = DIRECTION('',(1.,0.,-0.));
#410 = ( GEOMETRIC_REPRESENTATION_CONTEXT(3) 
GLOBAL_UNCERTAINTY_ASSIGNED_CONTEXT((#414)) GLOBAL_UNIT_ASSIGNED_CONTEXT
((#411,#412,#413)) REPRESENTATION_CONTEXT('Context #1',
  '3D Context with UNIT and UNCERTAINTY') );
#411 = ( LENGTH_UNIT() NAMED_UNIT(*) SI_UNIT(.MILLI.,.METRE.) );
#412 = ( NAMED_UNIT(*) PLANE_ANGLE_UNIT() SI_UNIT($,.RADIAN.) );
#413 = ( NAMED_UNIT(*) SI_UNIT($,.STERADIAN.) SOLID_ANGLE_UNIT() );
#414 = UNCERTAINTY_MEASURE_WITH_UNIT(LENGTH_MEASURE(1.E-07),#411,
  'distance_accuracy_value','confusion accuracy');
#415 = CONTEXT_DEPENDENT_SHAPE_REPRESENTATION(#416,#418);
#416 = ( REPRESENTATION_RELATIONSHIP('','',#67,#36) 
REPRESENTATION_RELATIONSHIP_WITH_TRANSFORMATION(#417) 
SHAPE_REPRESENTATION_RELATIONSHIP() );
#417 = ITEM_DEFINED_TRANSFORMATION('','',#11,#37);
#418 = PRODUCT_DEFINITION_SHAPE('Placement','Placement of an item',#419
  );
#419 = NEXT_ASSEMBLY_USAGE_OCCURRENCE('1','0','',#31,#62,$);
#420 = PRODUCT_RELATED_PRODUCT_CATEGORY('part',$,(#64));
#421 = CONTEXT_DEPENDENT_SHAPE_REPRESENTATION(#422,#424);
#422 = ( REPRESENTATION_RELATIONSHIP('','',#67,#36) 
REPRESENTATION_RELATIONSHIP_WITH_TRANSFORMATION(#423) 
SHAPE_REPRESENTATION_RELATIONSHIP() );
#423 = ITEM_DEFINED_TRANSFORMATION('','',#11,#41);
#424 = PRODUCT_DEFINITION_SHAPE('Placement','Placement of an item',#425
  );
#425 = NEXT_ASSEMBLY_USAGE_OCCURRENCE('2','1','',#31,#62,$);
#426 = CONTEXT_DEPENDENT_SHAPE_REPRESENTATION(#427,#429);
#427 = ( REPRESENTATION_RELATIONSHIP('','',#67,#36) 
REPRESENTATION_RELATIONSHIP_WITH_TRANSFORMATION(#428) 
SHAPE_REPRESENTATION_RELATIONSHIP() );
#428 = ITEM_DEFINED_TRANSFORMATION('','',#11,#45);
#429 = PRODUCT_DEFINITION_SHAPE('Placement','Placement of an item',#430
  );
#430 = NEXT_ASSEMBLY_USAGE_OCCURRENCE('3','2','',#31,#62,$);
#431 = SHAPE_DEFINITION_REPRESENTATION(#432,#438);
#432 = PRODUCT_DEFINITION_SHAPE('','',#433);
#433 = PRODUCT_DEFINITION('design','',#434,#437);
#434 = PRODUCT_DEFINITION_FORMATION('','',#435);
#435 = PRODUCT('Pocket004','Pocket004','',(#436));
#436 = PRODUCT_CONTEXT('',#2,'mechanical');
#437 = PRODUCT_DEFINITION_CONTEXT('part definition',#2,'design');
#438 = ADVANCED_BREP_SHAPE_REPRESENTATION('',(#11,#439),#2081);
#439 = MANIFOLD_SOLID_BREP('',#440);
#440 = CLOSED_SHELL('',(#441,#579,#610,#634,#659,#683,#708,#732,#756,
    #812,#836,#962,#986,#1010,#1034,#1058,#1150,#1199,#1238,#1311,#1335,
    #1359,#1433,#1464,#1488,#1512,#1529,#1560,#1584,#1608,#1625,#1656,
    #1680,#1704,#1721,#1752,#1776,#1800,#1817,#1848,#1872,#1896,#1913,
    #1930,#1947,#1977,#1994,#2011,#2028,#2045,#2057,#2069));
#441 = ADVANCED_FACE('',(#442),#574,.F.);
#442 = FACE_BOUND('',#443,.F.);
#443 = EDGE_LOOP('',(#444,#454,#462,#470,#478,#486,#494,#502,#510,#518,
    #526,#534,#542,#551,#559,#568));
#444 = ORIENTED_EDGE('',*,*,#445,.F.);
#445 = EDGE_CURVE('',#446,#448,#450,.T.);
#446 = VERTEX_POINT('',#447);
#447 = CARTESIAN_POINT('',(3.081342500954E-33,0.7,4.5));
#448 = VERTEX_POINT('',#449);
#449 = CARTESIAN_POINT('',(3.081633321085E-33,1.,4.2));
#450 = LINE('',#451,#452);
#451 = CARTESIAN_POINT('',(0.,2.6,2.6));
#452 = VECTOR('',#453,1.);
#453 = DIRECTION('',(0.,0.707106781187,-0.707106781187));
#454 = ORIENTED_EDGE('',*,*,#455,.T.);
#455 = EDGE_CURVE('',#446,#456,#458,.T.);
#456 = VERTEX_POINT('',#457);
#457 = CARTESIAN_POINT('',(0.,0.,4.5));
#458 = LINE('',#459,#460);
#459 = CARTESIAN_POINT('',(0.,3.5,4.5));
#460 = VECTOR('',#461,1.);
#461 = DIRECTION('',(0.,-1.,0.));
#462 = ORIENTED_EDGE('',*,*,#463,.F.);
#463 = EDGE_CURVE('',#464,#456,#466,.T.);
#464 = VERTEX_POINT('',#465);
#465 = CARTESIAN_POINT('',(0.,0.,0.9));
#466 = LINE('',#467,#468);
#467 = CARTESIAN_POINT('',(0.,0.,0.));
#468 = VECTOR('',#469,1.);
#469 = DIRECTION('',(0.,0.,1.));
#470 = ORIENTED_EDGE('',*,*,#471,.F.);
#471 = EDGE_CURVE('',#472,#464,#474,.T.);
#472 = VERTEX_POINT('',#473);
#473 = CARTESIAN_POINT('',(0.,0.25,0.9));
#474 = LINE('',#475,#476);
#475 = CARTESIAN_POINT('',(0.,0.25,0.9));
#476 = VECTOR('',#477,1.);
#477 = DIRECTION('',(0.,-1.,0.));
#478 = ORIENTED_EDGE('',*,*,#479,.F.);
#479 = EDGE_CURVE('',#480,#472,#482,.T.);
#480 = VERTEX_POINT('',#481);
#481 = CARTESIAN_POINT('',(0.,0.25,0.5));
#482 = LINE('',#483,#484);
#483 = CARTESIAN_POINT('',(0.,0.25,0.5));
#484 = VECTOR('',#485,1.);
#485 = DIRECTION('',(0.,0.,1.));
#486 = ORIENTED_EDGE('',*,*,#487,.F.);
#487 = EDGE_CURVE('',#488,#480,#490,.T.);
#488 = VERTEX_POINT('',#489);
#489 = CARTESIAN_POINT('',(0.,0.,0.5));
#490 = LINE('',#491,#492);
#491 = CARTESIAN_POINT('',(0.,0.,0.5));
#492 = VECTOR('',#493,1.);
#493 = DIRECTION('',(0.,1.,0.));
#494 = ORIENTED_EDGE('',*,*,#495,.F.);
#495 = EDGE_CURVE('',#496,#488,#498,.T.);
#496 = VERTEX_POINT('',#497);
#497 = CARTESIAN_POINT('',(0.,0.,0.));
#498 = LINE('',#499,#500);
#499 = CARTESIAN_POINT('',(0.,0.,0.));
#500 = VECTOR('',#501,1.);
#501 = DIRECTION('',(0.,0.,1.));
#502 = ORIENTED_EDGE('',*,*,#503,.F.);
#503 = EDGE_CURVE('',#504,#496,#506,.T.);
#504 = VERTEX_POINT('',#505);
#505 = CARTESIAN_POINT('',(0.,3.5,0.));
#506 = LINE('',#507,#508);
#507 = CARTESIAN_POINT('',(0.,3.5,0.));
#508 = VECTOR('',#509,1.);
#509 = DIRECTION('',(0.,-1.,0.));
#510 = ORIENTED_EDGE('',*,*,#511,.T.);
#511 = EDGE_CURVE('',#504,#512,#514,.T.);
#512 = VERTEX_POINT('',#513);
#513 = CARTESIAN_POINT('',(0.,3.5,4.5));
#514 = LINE('',#515,#516);
#515 = CARTESIAN_POINT('',(0.,3.5,0.));
#516 = VECTOR('',#517,1.);
#517 = DIRECTION('',(0.,0.,1.));
#518 = ORIENTED_EDGE('',*,*,#519,.T.);
#519 = EDGE_CURVE('',#512,#520,#522,.T.);
#520 = VERTEX_POINT('',#521);
#521 = CARTESIAN_POINT('',(0.,2.4,4.5));
#522 = LINE('',#523,#524);
#523 = CARTESIAN_POINT('',(0.,3.5,4.5));
#524 = VECTOR('',#525,1.);
#525 = DIRECTION('',(0.,-1.,0.));
#526 = ORIENTED_EDGE('',*,*,#527,.F.);
#527 = EDGE_CURVE('',#528,#520,#530,.T.);
#528 = VERTEX_POINT('',#529);
#529 = CARTESIAN_POINT('',(0.,2.1,4.2));
#530 = LINE('',#531,#532);
#531 = CARTESIAN_POINT('',(-4.440892098501E-17,1.475,3.575));
#532 = VECTOR('',#533,1.);
#533 = DIRECTION('',(0.,0.707106781187,0.707106781187));
#534 = ORIENTED_EDGE('',*,*,#535,.T.);
#535 = EDGE_CURVE('',#528,#536,#538,.T.);
#536 = VERTEX_POINT('',#537);
#537 = CARTESIAN_POINT('',(0.,2.1,2.500131));
#538 = LINE('',#539,#540);
#539 = CARTESIAN_POINT('',(0.,2.1,4.500131));
#540 = VECTOR('',#541,1.);
#541 = DIRECTION('',(0.,0.,-1.));
#542 = ORIENTED_EDGE('',*,*,#543,.T.);
#543 = EDGE_CURVE('',#536,#544,#546,.T.);
#544 = VERTEX_POINT('',#545);
#545 = CARTESIAN_POINT('',(0.,1.6,2.000131));
#546 = CIRCLE('',#547,0.5);
#547 = AXIS2_PLACEMENT_3D('',#548,#549,#550);
#548 = CARTESIAN_POINT('',(0.,1.6,2.500131));
#549 = DIRECTION('',(-1.,0.,0.));
#550 = DIRECTION('',(0.,-1.,0.));
#551 = ORIENTED_EDGE('',*,*,#552,.T.);
#552 = EDGE_CURVE('',#544,#553,#555,.T.);
#553 = VERTEX_POINT('',#554);
#554 = CARTESIAN_POINT('',(0.,1.5,2.000131));
#555 = LINE('',#556,#557);
#556 = CARTESIAN_POINT('',(0.,1.6,2.000131));
#557 = VECTOR('',#558,1.);
#558 = DIRECTION('',(0.,-1.,0.));
#559 = ORIENTED_EDGE('',*,*,#560,.T.);
#560 = EDGE_CURVE('',#553,#561,#563,.T.);
#561 = VERTEX_POINT('',#562);
#562 = CARTESIAN_POINT('',(0.,1.,2.500131));
#563 = CIRCLE('',#564,0.5);
#564 = AXIS2_PLACEMENT_3D('',#565,#566,#567);
#565 = CARTESIAN_POINT('',(0.,1.5,2.500131));
#566 = DIRECTION('',(-1.,0.,0.));
#567 = DIRECTION('',(0.,-1.,0.));
#568 = ORIENTED_EDGE('',*,*,#569,.T.);
#569 = EDGE_CURVE('',#561,#448,#570,.T.);
#570 = LINE('',#571,#572);
#571 = CARTESIAN_POINT('',(0.,1.,2.500131));
#572 = VECTOR('',#573,1.);
#573 = DIRECTION('',(0.,0.,1.));
#574 = PLANE('',#575);
#575 = AXIS2_PLACEMENT_3D('',#576,#577,#578);
#576 = CARTESIAN_POINT('',(0.,3.5,0.));
#577 = DIRECTION('',(1.,0.,0.));
#578 = DIRECTION('',(0.,-1.,0.));
#579 = ADVANCED_FACE('',(#580),#605,.F.);
#580 = FACE_BOUND('',#581,.T.);
#581 = EDGE_LOOP('',(#582,#583,#591,#599));
#582 = ORIENTED_EDGE('',*,*,#445,.F.);
#583 = ORIENTED_EDGE('',*,*,#584,.T.);
#584 = EDGE_CURVE('',#446,#585,#587,.T.);
#585 = VERTEX_POINT('',#586);
#586 = CARTESIAN_POINT('',(0.4,0.7,4.5));
#587 = LINE('',#588,#589);
#588 = CARTESIAN_POINT('',(0.,0.7,4.5));
#589 = VECTOR('',#590,1.);
#590 = DIRECTION('',(1.,0.,0.));
#591 = ORIENTED_EDGE('',*,*,#592,.T.);
#592 = EDGE_CURVE('',#585,#593,#595,.T.);
#593 = VERTEX_POINT('',#594);
#594 = CARTESIAN_POINT('',(0.4,1.,4.2));
#595 = LINE('',#596,#597);
#596 = CARTESIAN_POINT('',(0.4,1.4,3.8));
#597 = VECTOR('',#598,1.);
#598 = DIRECTION('',(0.,0.707106781187,-0.707106781187));
#599 = ORIENTED_EDGE('',*,*,#600,.F.);
#600 = EDGE_CURVE('',#448,#593,#601,.T.);
#601 = LINE('',#602,#603);
#602 = CARTESIAN_POINT('',(0.,1.,4.2));
#603 = VECTOR('',#604,1.);
#604 = DIRECTION('',(1.,0.,0.));
#605 = PLANE('',#606);
#606 = AXIS2_PLACEMENT_3D('',#607,#608,#609);
#607 = CARTESIAN_POINT('',(0.,0.85,4.35));
#608 = DIRECTION('',(4.827584719484E-18,-0.707106781187,-0.707106781187)
  );
#609 = DIRECTION('',(-1.,-3.413617891899E-18,-3.413617891899E-18));
#610 = ADVANCED_FACE('',(#611),#629,.F.);
#611 = FACE_BOUND('',#612,.F.);
#612 = EDGE_LOOP('',(#613,#614,#622,#628));
#613 = ORIENTED_EDGE('',*,*,#569,.F.);
#614 = ORIENTED_EDGE('',*,*,#615,.T.);
#615 = EDGE_CURVE('',#561,#616,#618,.T.);
#616 = VERTEX_POINT('',#617);
#617 = CARTESIAN_POINT('',(0.4,1.,2.500131));
#618 = LINE('',#619,#620);
#619 = CARTESIAN_POINT('',(0.,1.,2.500131));
#620 = VECTOR('',#621,1.);
#621 = DIRECTION('',(1.,0.,0.));
#622 = ORIENTED_EDGE('',*,*,#623,.T.);
#623 = EDGE_CURVE('',#616,#593,#624,.T.);
#624 = LINE('',#625,#626);
#625 = CARTESIAN_POINT('',(0.4,1.,3.5000655));
#626 = VECTOR('',#627,1.);
#627 = DIRECTION('',(0.,0.,1.));
#628 = ORIENTED_EDGE('',*,*,#600,.F.);
#629 = PLANE('',#630);
#630 = AXIS2_PLACEMENT_3D('',#631,#632,#633);
#631 = CARTESIAN_POINT('',(0.,1.,2.500131));
#632 = DIRECTION('',(0.,-1.,0.));
#633 = DIRECTION('',(0.,0.,1.));
#634 = ADVANCED_FACE('',(#635),#654,.F.);
#635 = FACE_BOUND('',#636,.F.);
#636 = EDGE_LOOP('',(#637,#638,#646,#653));
#637 = ORIENTED_EDGE('',*,*,#560,.F.);
#638 = ORIENTED_EDGE('',*,*,#639,.T.);
#639 = EDGE_CURVE('',#553,#640,#642,.T.);
#640 = VERTEX_POINT('',#641);
#641 = CARTESIAN_POINT('',(0.4,1.5,2.000131));
#642 = LINE('',#643,#644);
#643 = CARTESIAN_POINT('',(0.,1.5,2.000131));
#644 = VECTOR('',#645,1.);
#645 = DIRECTION('',(1.,0.,0.));
#646 = ORIENTED_EDGE('',*,*,#647,.T.);
#647 = EDGE_CURVE('',#640,#616,#648,.T.);
#648 = CIRCLE('',#649,0.5);
#649 = AXIS2_PLACEMENT_3D('',#650,#651,#652);
#650 = CARTESIAN_POINT('',(0.4,1.5,2.500131));
#651 = DIRECTION('',(-1.,0.,0.));
#652 = DIRECTION('',(0.,-1.,0.));
#653 = ORIENTED_EDGE('',*,*,#615,.F.);
#654 = CYLINDRICAL_SURFACE('',#655,0.5);
#655 = AXIS2_PLACEMENT_3D('',#656,#657,#658);
#656 = CARTESIAN_POINT('',(0.,1.5,2.500131));
#657 = DIRECTION('',(-1.,0.,0.));
#658 = DIRECTION('',(0.,-1.,0.));
#659 = ADVANCED_FACE('',(#660),#678,.F.);
#660 = FACE_BOUND('',#661,.F.);
#661 = EDGE_LOOP('',(#662,#663,#671,#677));
#662 = ORIENTED_EDGE('',*,*,#552,.F.);
#663 = ORIENTED_EDGE('',*,*,#664,.T.);
#664 = EDGE_CURVE('',#544,#665,#667,.T.);
#665 = VERTEX_POINT('',#666);
#666 = CARTESIAN_POINT('',(0.4,1.6,2.000131));
#667 = LINE('',#668,#669);
#668 = CARTESIAN_POINT('',(0.,1.6,2.000131));
#669 = VECTOR('',#670,1.);
#670 = DIRECTION('',(1.,0.,0.));
#671 = ORIENTED_EDGE('',*,*,#672,.T.);
#672 = EDGE_CURVE('',#665,#640,#673,.T.);
#673 = LINE('',#674,#675);
#674 = CARTESIAN_POINT('',(0.4,2.4,2.000131));
#675 = VECTOR('',#676,1.);
#676 = DIRECTION('',(-0.,-1.,-0.));
#677 = ORIENTED_EDGE('',*,*,#639,.F.);
#678 = PLANE('',#679);
#679 = AXIS2_PLACEMENT_3D('',#680,#681,#682);
#680 = CARTESIAN_POINT('',(0.,1.6,2.000131));
#681 = DIRECTION('',(0.,0.,-1.));
#682 = DIRECTION('',(0.,-1.,0.));
#683 = ADVANCED_FACE('',(#684),#703,.F.);
#684 = FACE_BOUND('',#685,.F.);
#685 = EDGE_LOOP('',(#686,#687,#695,#702));
#686 = ORIENTED_EDGE('',*,*,#543,.F.);
#687 = ORIENTED_EDGE('',*,*,#688,.T.);
#688 = EDGE_CURVE('',#536,#689,#691,.T.);
#689 = VERTEX_POINT('',#690);
#690 = CARTESIAN_POINT('',(0.4,2.1,2.500131));
#691 = LINE('',#692,#693);
#692 = CARTESIAN_POINT('',(0.,2.1,2.500131));
#693 = VECTOR('',#694,1.);
#694 = DIRECTION('',(1.,0.,0.));
#695 = ORIENTED_EDGE('',*,*,#696,.T.);
#696 = EDGE_CURVE('',#689,#665,#697,.T.);
#697 = CIRCLE('',#698,0.5);
#698 = AXIS2_PLACEMENT_3D('',#699,#700,#701);
#699 = CARTESIAN_POINT('',(0.4,1.6,2.500131));
#700 = DIRECTION('',(-1.,0.,0.));
#701 = DIRECTION('',(0.,-1.,0.));
#702 = ORIENTED_EDGE('',*,*,#664,.F.);
#703 = CYLINDRICAL_SURFACE('',#704,0.5);
#704 = AXIS2_PLACEMENT_3D('',#705,#706,#707);
#705 = CARTESIAN_POINT('',(0.,1.6,2.500131));
#706 = DIRECTION('',(-1.,0.,0.));
#707 = DIRECTION('',(0.,-1.,0.));
#708 = ADVANCED_FACE('',(#709),#727,.F.);
#709 = FACE_BOUND('',#710,.F.);
#710 = EDGE_LOOP('',(#711,#712,#720,#726));
#711 = ORIENTED_EDGE('',*,*,#535,.F.);
#712 = ORIENTED_EDGE('',*,*,#713,.F.);
#713 = EDGE_CURVE('',#714,#528,#716,.T.);
#714 = VERTEX_POINT('',#715);
#715 = CARTESIAN_POINT('',(0.4,2.1,4.2));
#716 = LINE('',#717,#718);
#717 = CARTESIAN_POINT('',(0.4,2.1,4.2));
#718 = VECTOR('',#719,1.);
#719 = DIRECTION('',(-1.,0.,0.));
#720 = ORIENTED_EDGE('',*,*,#721,.T.);
#721 = EDGE_CURVE('',#714,#689,#722,.T.);
#722 = LINE('',#723,#724);
#723 = CARTESIAN_POINT('',(0.4,2.1,4.5000655));
#724 = VECTOR('',#725,1.);
#725 = DIRECTION('',(0.,0.,-1.));
#726 = ORIENTED_EDGE('',*,*,#688,.F.);
#727 = PLANE('',#728);
#728 = AXIS2_PLACEMENT_3D('',#729,#730,#731);
#729 = CARTESIAN_POINT('',(0.,2.1,4.500131));
#730 = DIRECTION('',(0.,1.,0.));
#731 = DIRECTION('',(0.,0.,-1.));
#732 = ADVANCED_FACE('',(#733),#751,.F.);
#733 = FACE_BOUND('',#734,.F.);
#734 = EDGE_LOOP('',(#735,#743,#744,#745));
#735 = ORIENTED_EDGE('',*,*,#736,.F.);
#736 = EDGE_CURVE('',#714,#737,#739,.T.);
#737 = VERTEX_POINT('',#738);
#738 = CARTESIAN_POINT('',(0.4,2.4,4.5));
#739 = LINE('',#740,#741);
#740 = CARTESIAN_POINT('',(0.4,2.525,4.625));
#741 = VECTOR('',#742,1.);
#742 = DIRECTION('',(0.,0.707106781187,0.707106781187));
#743 = ORIENTED_EDGE('',*,*,#713,.T.);
#744 = ORIENTED_EDGE('',*,*,#527,.T.);
#745 = ORIENTED_EDGE('',*,*,#746,.F.);
#746 = EDGE_CURVE('',#737,#520,#747,.T.);
#747 = LINE('',#748,#749);
#748 = CARTESIAN_POINT('',(0.4,2.4,4.5));
#749 = VECTOR('',#750,1.);
#750 = DIRECTION('',(-1.,0.,0.));
#751 = PLANE('',#752);
#752 = AXIS2_PLACEMENT_3D('',#753,#754,#755);
#753 = CARTESIAN_POINT('',(0.4,2.25,4.35));
#754 = DIRECTION('',(-9.293197397199E-19,0.707106781187,-0.707106781187)
  );
#755 = DIRECTION('',(-1.,-6.571282898464E-19,6.571282898464E-19));
#756 = ADVANCED_FACE('',(#757),#807,.T.);
#757 = FACE_BOUND('',#758,.T.);
#758 = EDGE_LOOP('',(#759,#760,#761,#769,#777,#785,#793,#801));
#759 = ORIENTED_EDGE('',*,*,#519,.T.);
#760 = ORIENTED_EDGE('',*,*,#746,.F.);
#761 = ORIENTED_EDGE('',*,*,#762,.F.);
#762 = EDGE_CURVE('',#763,#737,#765,.T.);
#763 = VERTEX_POINT('',#764);
#764 = CARTESIAN_POINT('',(0.4,3.2,4.5));
#765 = LINE('',#766,#767);
#766 = CARTESIAN_POINT('',(0.4,3.2,4.5));
#767 = VECTOR('',#768,1.);
#768 = DIRECTION('',(0.,-1.,0.));
#769 = ORIENTED_EDGE('',*,*,#770,.F.);
#770 = EDGE_CURVE('',#771,#763,#773,.T.);
#771 = VERTEX_POINT('',#772);
#772 = CARTESIAN_POINT('',(5.6,3.2,4.5));
#773 = LINE('',#774,#775);
#774 = CARTESIAN_POINT('',(5.6,3.2,4.5));
#775 = VECTOR('',#776,1.);
#776 = DIRECTION('',(-1.,0.,0.));
#777 = ORIENTED_EDGE('',*,*,#778,.T.);
#778 = EDGE_CURVE('',#771,#779,#781,.T.);
#779 = VERTEX_POINT('',#780);
#780 = CARTESIAN_POINT('',(5.6,2.4,4.5));
#781 = LINE('',#782,#783);
#782 = CARTESIAN_POINT('',(5.6,3.2,4.5));
#783 = VECTOR('',#784,1.);
#784 = DIRECTION('',(0.,-1.,0.));
#785 = ORIENTED_EDGE('',*,*,#786,.F.);
#786 = EDGE_CURVE('',#787,#779,#789,.T.);
#787 = VERTEX_POINT('',#788);
#788 = CARTESIAN_POINT('',(6.,2.4,4.5));
#789 = LINE('',#790,#791);
#790 = CARTESIAN_POINT('',(6.,2.4,4.5));
#791 = VECTOR('',#792,1.);
#792 = DIRECTION('',(-1.,0.,0.));
#793 = ORIENTED_EDGE('',*,*,#794,.T.);
#794 = EDGE_CURVE('',#787,#795,#797,.T.);
#795 = VERTEX_POINT('',#796);
#796 = CARTESIAN_POINT('',(6.,3.5,4.5));
#797 = LINE('',#798,#799);
#798 = CARTESIAN_POINT('',(6.,0.,4.5));
#799 = VECTOR('',#800,1.);
#800 = DIRECTION('',(0.,1.,0.));
#801 = ORIENTED_EDGE('',*,*,#802,.T.);
#802 = EDGE_CURVE('',#795,#512,#803,.T.);
#803 = LINE('',#804,#805);
#804 = CARTESIAN_POINT('',(6.,3.5,4.5));
#805 = VECTOR('',#806,1.);
#806 = DIRECTION('',(-1.,0.,0.));
#807 = PLANE('',#808);
#808 = AXIS2_PLACEMENT_3D('',#809,#810,#811);
#809 = CARTESIAN_POINT('',(3.,1.75,4.5));
#810 = DIRECTION('',(0.,0.,1.));
#811 = DIRECTION('',(1.,0.,0.));
#812 = ADVANCED_FACE('',(#813),#831,.F.);
#813 = FACE_BOUND('',#814,.F.);
#814 = EDGE_LOOP('',(#815,#823,#824,#825));
#815 = ORIENTED_EDGE('',*,*,#816,.T.);
#816 = EDGE_CURVE('',#817,#795,#819,.T.);
#817 = VERTEX_POINT('',#818);
#818 = CARTESIAN_POINT('',(6.,3.5,0.));
#819 = LINE('',#820,#821);
#820 = CARTESIAN_POINT('',(6.,3.5,0.));
#821 = VECTOR('',#822,1.);
#822 = DIRECTION('',(0.,0.,1.));
#823 = ORIENTED_EDGE('',*,*,#802,.T.);
#824 = ORIENTED_EDGE('',*,*,#511,.F.);
#825 = ORIENTED_EDGE('',*,*,#826,.F.);
#826 = EDGE_CURVE('',#817,#504,#827,.T.);
#827 = LINE('',#828,#829);
#828 = CARTESIAN_POINT('',(6.,3.5,0.));
#829 = VECTOR('',#830,1.);
#830 = DIRECTION('',(-1.,0.,0.));
#831 = PLANE('',#832);
#832 = AXIS2_PLACEMENT_3D('',#833,#834,#835);
#833 = CARTESIAN_POINT('',(6.,3.5,0.));
#834 = DIRECTION('',(0.,-1.,0.));
#835 = DIRECTION('',(-1.,0.,0.));
#836 = ADVANCED_FACE('',(#837,#855,#889,#923),#957,.F.);
#837 = FACE_BOUND('',#838,.F.);
#838 = EDGE_LOOP('',(#839,#847,#853,#854));
#839 = ORIENTED_EDGE('',*,*,#840,.T.);
#840 = EDGE_CURVE('',#496,#841,#843,.T.);
#841 = VERTEX_POINT('',#842);
#842 = CARTESIAN_POINT('',(6.,0.,0.));
#843 = LINE('',#844,#845);
#844 = CARTESIAN_POINT('',(0.,0.,0.));
#845 = VECTOR('',#846,1.);
#846 = DIRECTION('',(1.,0.,0.));
#847 = ORIENTED_EDGE('',*,*,#848,.T.);
#848 = EDGE_CURVE('',#841,#817,#849,.T.);
#849 = LINE('',#850,#851);
#850 = CARTESIAN_POINT('',(6.,0.,0.));
#851 = VECTOR('',#852,1.);
#852 = DIRECTION('',(0.,1.,0.));
#853 = ORIENTED_EDGE('',*,*,#826,.T.);
#854 = ORIENTED_EDGE('',*,*,#503,.T.);
#855 = FACE_BOUND('',#856,.F.);
#856 = EDGE_LOOP('',(#857,#867,#875,#883));
#857 = ORIENTED_EDGE('',*,*,#858,.F.);
#858 = EDGE_CURVE('',#859,#861,#863,.T.);
#859 = VERTEX_POINT('',#860);
#860 = CARTESIAN_POINT('',(4.25,1.55,0.));
#861 = VERTEX_POINT('',#862);
#862 = CARTESIAN_POINT('',(4.25,1.05,0.));
#863 = LINE('',#864,#865);
#864 = CARTESIAN_POINT('',(4.25,1.55,0.));
#865 = VECTOR('',#866,1.);
#866 = DIRECTION('',(0.,-1.,0.));
#867 = ORIENTED_EDGE('',*,*,#868,.F.);
#868 = EDGE_CURVE('',#869,#859,#871,.T.);
#869 = VERTEX_POINT('',#870);
#870 = CARTESIAN_POINT('',(4.75,1.55,0.));
#871 = LINE('',#872,#873);
#872 = CARTESIAN_POINT('',(4.75,1.55,0.));
#873 = VECTOR('',#874,1.);
#874 = DIRECTION('',(-1.,0.,0.));
#875 = ORIENTED_EDGE('',*,*,#876,.F.);
#876 = EDGE_CURVE('',#877,#869,#879,.T.);
#877 = VERTEX_POINT('',#878);
#878 = CARTESIAN_POINT('',(4.75,1.05,0.));
#879 = LINE('',#880,#881);
#880 = CARTESIAN_POINT('',(4.75,1.05,0.));
#881 = VECTOR('',#882,1.);
#882 = DIRECTION('',(0.,1.,0.));
#883 = ORIENTED_EDGE('',*,*,#884,.F.);
#884 = EDGE_CURVE('',#861,#877,#885,.T.);
#885 = LINE('',#886,#887);
#886 = CARTESIAN_POINT('',(4.25,1.05,0.));
#887 = VECTOR('',#888,1.);
#888 = DIRECTION('',(1.,0.,0.));
#889 = FACE_BOUND('',#890,.F.);
#890 = EDGE_LOOP('',(#891,#901,#909,#917));
#891 = ORIENTED_EDGE('',*,*,#892,.F.);
#892 = EDGE_CURVE('',#893,#895,#897,.T.);
#893 = VERTEX_POINT('',#894);
#894 = CARTESIAN_POINT('',(1.25,1.55,0.));
#895 = VERTEX_POINT('',#896);
#896 = CARTESIAN_POINT('',(1.25,1.05,0.));
#897 = LINE('',#898,#899);
#898 = CARTESIAN_POINT('',(1.25,1.55,0.));
#899 = VECTOR('',#900,1.);
#900 = DIRECTION('',(0.,-1.,0.));
#901 = ORIENTED_EDGE('',*,*,#902,.F.);
#902 = EDGE_CURVE('',#903,#893,#905,.T.);
#903 = VERTEX_POINT('',#904);
#904 = CARTESIAN_POINT('',(1.75,1.55,0.));
#905 = LINE('',#906,#907);
#906 = CARTESIAN_POINT('',(1.75,1.55,0.));
#907 = VECTOR('',#908,1.);
#908 = DIRECTION('',(-1.,0.,0.));
#909 = ORIENTED_EDGE('',*,*,#910,.F.);
#910 = EDGE_CURVE('',#911,#903,#913,.T.);
#911 = VERTEX_POINT('',#912);
#912 = CARTESIAN_POINT('',(1.75,1.05,0.));
#913 = LINE('',#914,#915);
#914 = CARTESIAN_POINT('',(1.75,1.05,0.));
#915 = VECTOR('',#916,1.);
#916 = DIRECTION('',(0.,1.,0.));
#917 = ORIENTED_EDGE('',*,*,#918,.F.);
#918 = EDGE_CURVE('',#895,#911,#919,.T.);
#919 = LINE('',#920,#921);
#920 = CARTESIAN_POINT('',(1.25,1.05,0.));
#921 = VECTOR('',#922,1.);
#922 = DIRECTION('',(1.,0.,0.));
#923 = FACE_BOUND('',#924,.F.);
#924 = EDGE_LOOP('',(#925,#935,#943,#951));
#925 = ORIENTED_EDGE('',*,*,#926,.F.);
#926 = EDGE_CURVE('',#927,#929,#931,.T.);
#927 = VERTEX_POINT('',#928);
#928 = CARTESIAN_POINT('',(2.75,1.55,0.));
#929 = VERTEX_POINT('',#930);
#930 = CARTESIAN_POINT('',(2.75,1.05,0.));
#931 = LINE('',#932,#933);
#932 = CARTESIAN_POINT('',(2.75,1.55,0.));
#933 = VECTOR('',#934,1.);
#934 = DIRECTION('',(0.,-1.,0.));
#935 = ORIENTED_EDGE('',*,*,#936,.F.);
#936 = EDGE_CURVE('',#937,#927,#939,.T.);
#937 = VERTEX_POINT('',#938);
#938 = CARTESIAN_POINT('',(3.25,1.55,0.));
#939 = LINE('',#940,#941);
#940 = CARTESIAN_POINT('',(3.25,1.55,0.));
#941 = VECTOR('',#942,1.);
#942 = DIRECTION('',(-1.,0.,0.));
#943 = ORIENTED_EDGE('',*,*,#944,.F.);
#944 = EDGE_CURVE('',#945,#937,#947,.T.);
#945 = VERTEX_POINT('',#946);
#946 = CARTESIAN_POINT('',(3.25,1.05,0.));
#947 = LINE('',#948,#949);
#948 = CARTESIAN_POINT('',(3.25,1.05,0.));
#949 = VECTOR('',#950,1.);
#950 = DIRECTION('',(0.,1.,0.));
#951 = ORIENTED_EDGE('',*,*,#952,.F.);
#952 = EDGE_CURVE('',#929,#945,#953,.T.);
#953 = LINE('',#954,#955);
#954 = CARTESIAN_POINT('',(2.75,1.05,0.));
#955 = VECTOR('',#956,1.);
#956 = DIRECTION('',(1.,0.,0.));
#957 = PLANE('',#958);
#958 = AXIS2_PLACEMENT_3D('',#959,#960,#961);
#959 = CARTESIAN_POINT('',(3.,1.75,0.));
#960 = DIRECTION('',(0.,0.,1.));
#961 = DIRECTION('',(1.,0.,0.));
#962 = ADVANCED_FACE('',(#963),#981,.F.);
#963 = FACE_BOUND('',#964,.F.);
#964 = EDGE_LOOP('',(#965,#966,#967,#975));
#965 = ORIENTED_EDGE('',*,*,#840,.F.);
#966 = ORIENTED_EDGE('',*,*,#495,.T.);
#967 = ORIENTED_EDGE('',*,*,#968,.T.);
#968 = EDGE_CURVE('',#488,#969,#971,.T.);
#969 = VERTEX_POINT('',#970);
#970 = CARTESIAN_POINT('',(6.,0.,0.5));
#971 = LINE('',#972,#973);
#972 = CARTESIAN_POINT('',(0.,0.,0.5));
#973 = VECTOR('',#974,1.);
#974 = DIRECTION('',(1.,0.,0.));
#975 = ORIENTED_EDGE('',*,*,#976,.F.);
#976 = EDGE_CURVE('',#841,#969,#977,.T.);
#977 = LINE('',#978,#979);
#978 = CARTESIAN_POINT('',(6.,0.,0.));
#979 = VECTOR('',#980,1.);
#980 = DIRECTION('',(0.,0.,1.));
#981 = PLANE('',#982);
#982 = AXIS2_PLACEMENT_3D('',#983,#984,#985);
#983 = CARTESIAN_POINT('',(0.,0.,0.));
#984 = DIRECTION('',(0.,1.,0.));
#985 = DIRECTION('',(1.,0.,0.));
#986 = ADVANCED_FACE('',(#987),#1005,.T.);
#987 = FACE_BOUND('',#988,.T.);
#988 = EDGE_LOOP('',(#989,#990,#991,#999));
#989 = ORIENTED_EDGE('',*,*,#487,.F.);
#990 = ORIENTED_EDGE('',*,*,#968,.T.);
#991 = ORIENTED_EDGE('',*,*,#992,.T.);
#992 = EDGE_CURVE('',#969,#993,#995,.T.);
#993 = VERTEX_POINT('',#994);
#994 = CARTESIAN_POINT('',(6.,0.25,0.5));
#995 = LINE('',#996,#997);
#996 = CARTESIAN_POINT('',(6.,0.,0.5));
#997 = VECTOR('',#998,1.);
#998 = DIRECTION('',(0.,1.,0.));
#999 = ORIENTED_EDGE('',*,*,#1000,.F.);
#1000 = EDGE_CURVE('',#480,#993,#1001,.T.);
#1001 = LINE('',#1002,#1003);
#1002 = CARTESIAN_POINT('',(0.,0.25,0.5));
#1003 = VECTOR('',#1004,1.);
#1004 = DIRECTION('',(1.,0.,0.));
#1005 = PLANE('',#1006);
#1006 = AXIS2_PLACEMENT_3D('',#1007,#1008,#1009);
#1007 = CARTESIAN_POINT('',(0.,0.,0.5));
#1008 = DIRECTION('',(0.,0.,1.));
#1009 = DIRECTION('',(0.,1.,0.));
#1010 = ADVANCED_FACE('',(#1011),#1029,.T.);
#1011 = FACE_BOUND('',#1012,.T.);
#1012 = EDGE_LOOP('',(#1013,#1014,#1015,#1023));
#1013 = ORIENTED_EDGE('',*,*,#479,.F.);
#1014 = ORIENTED_EDGE('',*,*,#1000,.T.);
#1015 = ORIENTED_EDGE('',*,*,#1016,.T.);
#1016 = EDGE_CURVE('',#993,#1017,#1019,.T.);
#1017 = VERTEX_POINT('',#1018);
#1018 = CARTESIAN_POINT('',(6.,0.25,0.9));
#1019 = LINE('',#1020,#1021);
#1020 = CARTESIAN_POINT('',(6.,0.25,0.25));
#1021 = VECTOR('',#1022,1.);
#1022 = DIRECTION('',(0.,0.,1.));
#1023 = ORIENTED_EDGE('',*,*,#1024,.F.);
#1024 = EDGE_CURVE('',#472,#1017,#1025,.T.);
#1025 = LINE('',#1026,#1027);
#1026 = CARTESIAN_POINT('',(0.,0.25,0.9));
#1027 = VECTOR('',#1028,1.);
#1028 = DIRECTION('',(1.,0.,0.));
#1029 = PLANE('',#1030);
#1030 = AXIS2_PLACEMENT_3D('',#1031,#1032,#1033);
#1031 = CARTESIAN_POINT('',(0.,0.25,0.5));
#1032 = DIRECTION('',(0.,-1.,0.));
#1033 = DIRECTION('',(0.,0.,1.));
#1034 = ADVANCED_FACE('',(#1035),#1053,.T.);
#1035 = FACE_BOUND('',#1036,.T.);
#1036 = EDGE_LOOP('',(#1037,#1038,#1039,#1047));
#1037 = ORIENTED_EDGE('',*,*,#471,.F.);
#1038 = ORIENTED_EDGE('',*,*,#1024,.T.);
#1039 = ORIENTED_EDGE('',*,*,#1040,.T.);
#1040 = EDGE_CURVE('',#1017,#1041,#1043,.T.);
#1041 = VERTEX_POINT('',#1042);
#1042 = CARTESIAN_POINT('',(6.,0.,0.9));
#1043 = LINE('',#1044,#1045);
#1044 = CARTESIAN_POINT('',(6.,0.125,0.9));
#1045 = VECTOR('',#1046,1.);
#1046 = DIRECTION('',(-0.,-1.,-0.));
#1047 = ORIENTED_EDGE('',*,*,#1048,.F.);
#1048 = EDGE_CURVE('',#464,#1041,#1049,.T.);
#1049 = LINE('',#1050,#1051);
#1050 = CARTESIAN_POINT('',(0.,0.,0.9));
#1051 = VECTOR('',#1052,1.);
#1052 = DIRECTION('',(1.,0.,0.));
#1053 = PLANE('',#1054);
#1054 = AXIS2_PLACEMENT_3D('',#1055,#1056,#1057);
#1055 = CARTESIAN_POINT('',(0.,0.25,0.9));
#1056 = DIRECTION('',(0.,0.,-1.));
#1057 = DIRECTION('',(0.,-1.,0.));
#1058 = ADVANCED_FACE('',(#1059,#1077,#1111),#1145,.F.);
#1059 = FACE_BOUND('',#1060,.F.);
#1060 = EDGE_LOOP('',(#1061,#1062,#1063,#1071));
#1061 = ORIENTED_EDGE('',*,*,#1048,.F.);
#1062 = ORIENTED_EDGE('',*,*,#463,.T.);
#1063 = ORIENTED_EDGE('',*,*,#1064,.T.);
#1064 = EDGE_CURVE('',#456,#1065,#1067,.T.);
#1065 = VERTEX_POINT('',#1066);
#1066 = CARTESIAN_POINT('',(6.,0.,4.5));
#1067 = LINE('',#1068,#1069);
#1068 = CARTESIAN_POINT('',(0.,0.,4.5));
#1069 = VECTOR('',#1070,1.);
#1070 = DIRECTION('',(1.,0.,0.));
#1071 = ORIENTED_EDGE('',*,*,#1072,.F.);
#1072 = EDGE_CURVE('',#1041,#1065,#1073,.T.);
#1073 = LINE('',#1074,#1075);
#1074 = CARTESIAN_POINT('',(6.,0.,0.));
#1075 = VECTOR('',#1076,1.);
#1076 = DIRECTION('',(0.,0.,1.));
#1077 = FACE_BOUND('',#1078,.F.);
#1078 = EDGE_LOOP('',(#1079,#1089,#1097,#1105));
#1079 = ORIENTED_EDGE('',*,*,#1080,.T.);
#1080 = EDGE_CURVE('',#1081,#1083,#1085,.T.);
#1081 = VERTEX_POINT('',#1082);
#1082 = CARTESIAN_POINT('',(0.5,5.728750807066E-16,2.58));
#1083 = VERTEX_POINT('',#1084);
#1084 = CARTESIAN_POINT('',(0.5,3.508304757815E-16,1.58));
#1085 = LINE('',#1086,#1087);
#1086 = CARTESIAN_POINT('',(0.5,5.728750807066E-16,2.58));
#1087 = VECTOR('',#1088,1.);
#1088 = DIRECTION('',(0.,-2.22044604925E-16,-1.));
#1089 = ORIENTED_EDGE('',*,*,#1090,.T.);
#1090 = EDGE_CURVE('',#1083,#1091,#1093,.T.);
#1091 = VERTEX_POINT('',#1092);
#1092 = CARTESIAN_POINT('',(1.2,3.508304757815E-16,1.58));
#1093 = LINE('',#1094,#1095);
#1094 = CARTESIAN_POINT('',(0.5,3.508304757815E-16,1.58));
#1095 = VECTOR('',#1096,1.);
#1096 = DIRECTION('',(1.,0.,0.));
#1097 = ORIENTED_EDGE('',*,*,#1098,.T.);
#1098 = EDGE_CURVE('',#1091,#1099,#1101,.T.);
#1099 = VERTEX_POINT('',#1100);
#1100 = CARTESIAN_POINT('',(1.2,5.728750807066E-16,2.58));
#1101 = LINE('',#1102,#1103);
#1102 = CARTESIAN_POINT('',(1.2,3.508304757815E-16,1.58));
#1103 = VECTOR('',#1104,1.);
#1104 = DIRECTION('',(0.,2.22044604925E-16,1.));
#1105 = ORIENTED_EDGE('',*,*,#1106,.T.);
#1106 = EDGE_CURVE('',#1099,#1081,#1107,.T.);
#1107 = LINE('',#1108,#1109);
#1108 = CARTESIAN_POINT('',(1.2,5.728750807066E-16,2.58));
#1109 = VECTOR('',#1110,1.);
#1110 = DIRECTION('',(-1.,0.,0.));
#1111 = FACE_BOUND('',#1112,.F.);
#1112 = EDGE_LOOP('',(#1113,#1123,#1131,#1139));
#1113 = ORIENTED_EDGE('',*,*,#1114,.T.);
#1114 = EDGE_CURVE('',#1115,#1117,#1119,.T.);
#1115 = VERTEX_POINT('',#1116);
#1116 = CARTESIAN_POINT('',(5.4,5.551115123126E-16,2.5));
#1117 = VERTEX_POINT('',#1118);
#1118 = CARTESIAN_POINT('',(4.7,5.551115123126E-16,2.5));
#1119 = LINE('',#1120,#1121);
#1120 = CARTESIAN_POINT('',(5.4,5.551115123126E-16,2.5));
#1121 = VECTOR('',#1122,1.);
#1122 = DIRECTION('',(-1.,0.,0.));
#1123 = ORIENTED_EDGE('',*,*,#1124,.T.);
#1124 = EDGE_CURVE('',#1117,#1125,#1127,.T.);
#1125 = VERTEX_POINT('',#1126);
#1126 = CARTESIAN_POINT('',(4.7,3.330669073875E-16,1.5));
#1127 = LINE('',#1128,#1129);
#1128 = CARTESIAN_POINT('',(4.7,5.551115123126E-16,2.5));
#1129 = VECTOR('',#1130,1.);
#1130 = DIRECTION('',(0.,-2.22044604925E-16,-1.));
#1131 = ORIENTED_EDGE('',*,*,#1132,.T.);
#1132 = EDGE_CURVE('',#1125,#1133,#1135,.T.);
#1133 = VERTEX_POINT('',#1134);
#1134 = CARTESIAN_POINT('',(5.4,3.330669073875E-16,1.5));
#1135 = LINE('',#1136,#1137);
#1136 = CARTESIAN_POINT('',(4.7,3.330669073875E-16,1.5));
#1137 = VECTOR('',#1138,1.);
#1138 = DIRECTION('',(1.,0.,0.));
#1139 = ORIENTED_EDGE('',*,*,#1140,.T.);
#1140 = EDGE_CURVE('',#1133,#1115,#1141,.T.);
#1141 = LINE('',#1142,#1143);
#1142 = CARTESIAN_POINT('',(5.4,3.330669073875E-16,1.5));
#1143 = VECTOR('',#1144,1.);
#1144 = DIRECTION('',(0.,2.22044604925E-16,1.));
#1145 = PLANE('',#1146);
#1146 = AXIS2_PLACEMENT_3D('',#1147,#1148,#1149);
#1147 = CARTESIAN_POINT('',(0.,0.,0.));
#1148 = DIRECTION('',(0.,1.,0.));
#1149 = DIRECTION('',(1.,0.,0.));
#1150 = ADVANCED_FACE('',(#1151),#1194,.T.);
#1151 = FACE_BOUND('',#1152,.T.);
#1152 = EDGE_LOOP('',(#1153,#1154,#1155,#1163,#1171,#1179,#1187,#1193));
#1153 = ORIENTED_EDGE('',*,*,#455,.T.);
#1154 = ORIENTED_EDGE('',*,*,#1064,.T.);
#1155 = ORIENTED_EDGE('',*,*,#1156,.T.);
#1156 = EDGE_CURVE('',#1065,#1157,#1159,.T.);
#1157 = VERTEX_POINT('',#1158);
#1158 = CARTESIAN_POINT('',(6.,0.7,4.5));
#1159 = LINE('',#1160,#1161);
#1160 = CARTESIAN_POINT('',(6.,0.,4.5));
#1161 = VECTOR('',#1162,1.);
#1162 = DIRECTION('',(0.,1.,0.));
#1163 = ORIENTED_EDGE('',*,*,#1164,.F.);
#1164 = EDGE_CURVE('',#1165,#1157,#1167,.T.);
#1165 = VERTEX_POINT('',#1166);
#1166 = CARTESIAN_POINT('',(5.6,0.7,4.5));
#1167 = LINE('',#1168,#1169);
#1168 = CARTESIAN_POINT('',(5.6,0.7,4.5));
#1169 = VECTOR('',#1170,1.);
#1170 = DIRECTION('',(1.,0.,0.));
#1171 = ORIENTED_EDGE('',*,*,#1172,.T.);
#1172 = EDGE_CURVE('',#1165,#1173,#1175,.T.);
#1173 = VERTEX_POINT('',#1174);
#1174 = CARTESIAN_POINT('',(5.6,0.3,4.5));
#1175 = LINE('',#1176,#1177);
#1176 = CARTESIAN_POINT('',(5.6,3.2,4.5));
#1177 = VECTOR('',#1178,1.);
#1178 = DIRECTION('',(0.,-1.,0.));
#1179 = ORIENTED_EDGE('',*,*,#1180,.F.);
#1180 = EDGE_CURVE('',#1181,#1173,#1183,.T.);
#1181 = VERTEX_POINT('',#1182);
#1182 = CARTESIAN_POINT('',(0.4,0.3,4.5));
#1183 = LINE('',#1184,#1185);
#1184 = CARTESIAN_POINT('',(0.4,0.3,4.5));
#1185 = VECTOR('',#1186,1.);
#1186 = DIRECTION('',(1.,0.,0.));
#1187 = ORIENTED_EDGE('',*,*,#1188,.F.);
#1188 = EDGE_CURVE('',#585,#1181,#1189,.T.);
#1189 = LINE('',#1190,#1191);
#1190 = CARTESIAN_POINT('',(0.4,3.2,4.5));
#1191 = VECTOR('',#1192,1.);
#1192 = DIRECTION('',(0.,-1.,0.));
#1193 = ORIENTED_EDGE('',*,*,#584,.F.);
#1194 = PLANE('',#1195);
#1195 = AXIS2_PLACEMENT_3D('',#1196,#1197,#1198);
#1196 = CARTESIAN_POINT('',(3.,1.75,4.5));
#1197 = DIRECTION('',(0.,0.,1.));
#1198 = DIRECTION('',(1.,0.,0.));
#1199 = ADVANCED_FACE('',(#1200),#1233,.F.);
#1200 = FACE_BOUND('',#1201,.F.);
#1201 = EDGE_LOOP('',(#1202,#1203,#1211,#1219,#1225,#1226,#1227,#1228,
    #1229,#1230,#1231,#1232));
#1202 = ORIENTED_EDGE('',*,*,#762,.F.);
#1203 = ORIENTED_EDGE('',*,*,#1204,.T.);
#1204 = EDGE_CURVE('',#763,#1205,#1207,.T.);
#1205 = VERTEX_POINT('',#1206);
#1206 = CARTESIAN_POINT('',(0.4,3.2,1.));
#1207 = LINE('',#1208,#1209);
#1208 = CARTESIAN_POINT('',(0.4,3.2,4.5));
#1209 = VECTOR('',#1210,1.);
#1210 = DIRECTION('',(-0.,-0.,-1.));
#1211 = ORIENTED_EDGE('',*,*,#1212,.T.);
#1212 = EDGE_CURVE('',#1205,#1213,#1215,.T.);
#1213 = VERTEX_POINT('',#1214);
#1214 = CARTESIAN_POINT('',(0.4,0.3,1.));
#1215 = LINE('',#1216,#1217);
#1216 = CARTESIAN_POINT('',(0.4,3.2,1.));
#1217 = VECTOR('',#1218,1.);
#1218 = DIRECTION('',(0.,-1.,0.));
#1219 = ORIENTED_EDGE('',*,*,#1220,.F.);
#1220 = EDGE_CURVE('',#1181,#1213,#1221,.T.);
#1221 = LINE('',#1222,#1223);
#1222 = CARTESIAN_POINT('',(0.4,0.3,4.5));
#1223 = VECTOR('',#1224,1.);
#1224 = DIRECTION('',(-0.,-0.,-1.));
#1225 = ORIENTED_EDGE('',*,*,#1188,.F.);
#1226 = ORIENTED_EDGE('',*,*,#592,.T.);
#1227 = ORIENTED_EDGE('',*,*,#623,.F.);
#1228 = ORIENTED_EDGE('',*,*,#647,.F.);
#1229 = ORIENTED_EDGE('',*,*,#672,.F.);
#1230 = ORIENTED_EDGE('',*,*,#696,.F.);
#1231 = ORIENTED_EDGE('',*,*,#721,.F.);
#1232 = ORIENTED_EDGE('',*,*,#736,.T.);
#1233 = PLANE('',#1234);
#1234 = AXIS2_PLACEMENT_3D('',#1235,#1236,#1237);
#1235 = CARTESIAN_POINT('',(0.4,3.2,4.5));
#1236 = DIRECTION('',(-1.,0.,0.));
#1237 = DIRECTION('',(0.,-1.,0.));
#1238 = ADVANCED_FACE('',(#1239),#1306,.F.);
#1239 = FACE_BOUND('',#1240,.F.);
#1240 = EDGE_LOOP('',(#1241,#1249,#1250,#1251,#1252,#1253,#1254,#1255,
    #1256,#1257,#1258,#1266,#1274,#1283,#1291,#1300));
#1241 = ORIENTED_EDGE('',*,*,#1242,.F.);
#1242 = EDGE_CURVE('',#787,#1243,#1245,.T.);
#1243 = VERTEX_POINT('',#1244);
#1244 = CARTESIAN_POINT('',(6.,2.1,4.2));
#1245 = LINE('',#1246,#1247);
#1246 = CARTESIAN_POINT('',(6.,0.6,2.7));
#1247 = VECTOR('',#1248,1.);
#1248 = DIRECTION('',(-0.,-0.707106781187,-0.707106781187));
#1249 = ORIENTED_EDGE('',*,*,#794,.T.);
#1250 = ORIENTED_EDGE('',*,*,#816,.F.);
#1251 = ORIENTED_EDGE('',*,*,#848,.F.);
#1252 = ORIENTED_EDGE('',*,*,#976,.T.);
#1253 = ORIENTED_EDGE('',*,*,#992,.T.);
#1254 = ORIENTED_EDGE('',*,*,#1016,.T.);
#1255 = ORIENTED_EDGE('',*,*,#1040,.T.);
#1256 = ORIENTED_EDGE('',*,*,#1072,.T.);
#1257 = ORIENTED_EDGE('',*,*,#1156,.T.);
#1258 = ORIENTED_EDGE('',*,*,#1259,.T.);
#1259 = EDGE_CURVE('',#1157,#1260,#1262,.T.);
#1260 = VERTEX_POINT('',#1261);
#1261 = CARTESIAN_POINT('',(6.,1.,4.2));
#1262 = LINE('',#1263,#1264);
#1263 = CARTESIAN_POINT('',(6.,1.725,3.475));
#1264 = VECTOR('',#1265,1.);
#1265 = DIRECTION('',(0.,0.707106781187,-0.707106781187));
#1266 = ORIENTED_EDGE('',*,*,#1267,.F.);
#1267 = EDGE_CURVE('',#1268,#1260,#1270,.T.);
#1268 = VERTEX_POINT('',#1269);
#1269 = CARTESIAN_POINT('',(6.,1.,2.500131));
#1270 = LINE('',#1271,#1272);
#1271 = CARTESIAN_POINT('',(6.,1.,1.2500655));
#1272 = VECTOR('',#1273,1.);
#1273 = DIRECTION('',(0.,0.,1.));
#1274 = ORIENTED_EDGE('',*,*,#1275,.F.);
#1275 = EDGE_CURVE('',#1276,#1268,#1278,.T.);
#1276 = VERTEX_POINT('',#1277);
#1277 = CARTESIAN_POINT('',(6.,1.5,2.000131));
#1278 = CIRCLE('',#1279,0.5);
#1279 = AXIS2_PLACEMENT_3D('',#1280,#1281,#1282);
#1280 = CARTESIAN_POINT('',(6.,1.5,2.500131));
#1281 = DIRECTION('',(-1.,0.,0.));
#1282 = DIRECTION('',(0.,-1.,0.));
#1283 = ORIENTED_EDGE('',*,*,#1284,.F.);
#1284 = EDGE_CURVE('',#1285,#1276,#1287,.T.);
#1285 = VERTEX_POINT('',#1286);
#1286 = CARTESIAN_POINT('',(6.,1.6,2.000131));
#1287 = LINE('',#1288,#1289);
#1288 = CARTESIAN_POINT('',(6.,0.8,2.000131));
#1289 = VECTOR('',#1290,1.);
#1290 = DIRECTION('',(-0.,-1.,-0.));
#1291 = ORIENTED_EDGE('',*,*,#1292,.F.);
#1292 = EDGE_CURVE('',#1293,#1285,#1295,.T.);
#1293 = VERTEX_POINT('',#1294);
#1294 = CARTESIAN_POINT('',(6.,2.1,2.500131));
#1295 = CIRCLE('',#1296,0.5);
#1296 = AXIS2_PLACEMENT_3D('',#1297,#1298,#1299);
#1297 = CARTESIAN_POINT('',(6.,1.6,2.500131));
#1298 = DIRECTION('',(-1.,0.,0.));
#1299 = DIRECTION('',(0.,-1.,0.));
#1300 = ORIENTED_EDGE('',*,*,#1301,.F.);
#1301 = EDGE_CURVE('',#1243,#1293,#1302,.T.);
#1302 = LINE('',#1303,#1304);
#1303 = CARTESIAN_POINT('',(6.,2.1,2.2500655));
#1304 = VECTOR('',#1305,1.);
#1305 = DIRECTION('',(0.,0.,-1.));
#1306 = PLANE('',#1307);
#1307 = AXIS2_PLACEMENT_3D('',#1308,#1309,#1310);
#1308 = CARTESIAN_POINT('',(6.,0.,0.));
#1309 = DIRECTION('',(-1.,0.,0.));
#1310 = DIRECTION('',(0.,1.,0.));
#1311 = ADVANCED_FACE('',(#1312),#1330,.F.);
#1312 = FACE_BOUND('',#1313,.F.);
#1313 = EDGE_LOOP('',(#1314,#1322,#1328,#1329));
#1314 = ORIENTED_EDGE('',*,*,#1315,.T.);
#1315 = EDGE_CURVE('',#771,#1316,#1318,.T.);
#1316 = VERTEX_POINT('',#1317);
#1317 = CARTESIAN_POINT('',(5.6,3.2,1.));
#1318 = LINE('',#1319,#1320);
#1319 = CARTESIAN_POINT('',(5.6,3.2,4.5));
#1320 = VECTOR('',#1321,1.);
#1321 = DIRECTION('',(-0.,-0.,-1.));
#1322 = ORIENTED_EDGE('',*,*,#1323,.T.);
#1323 = EDGE_CURVE('',#1316,#1205,#1324,.T.);
#1324 = LINE('',#1325,#1326);
#1325 = CARTESIAN_POINT('',(5.6,3.2,1.));
#1326 = VECTOR('',#1327,1.);
#1327 = DIRECTION('',(-1.,0.,0.));
#1328 = ORIENTED_EDGE('',*,*,#1204,.F.);
#1329 = ORIENTED_EDGE('',*,*,#770,.F.);
#1330 = PLANE('',#1331);
#1331 = AXIS2_PLACEMENT_3D('',#1332,#1333,#1334);
#1332 = CARTESIAN_POINT('',(5.6,3.2,4.5));
#1333 = DIRECTION('',(0.,1.,0.));
#1334 = DIRECTION('',(-1.,0.,0.));
#1335 = ADVANCED_FACE('',(#1336),#1354,.F.);
#1336 = FACE_BOUND('',#1337,.T.);
#1337 = EDGE_LOOP('',(#1338,#1339,#1340,#1348));
#1338 = ORIENTED_EDGE('',*,*,#1242,.F.);
#1339 = ORIENTED_EDGE('',*,*,#786,.T.);
#1340 = ORIENTED_EDGE('',*,*,#1341,.T.);
#1341 = EDGE_CURVE('',#779,#1342,#1344,.T.);
#1342 = VERTEX_POINT('',#1343);
#1343 = CARTESIAN_POINT('',(5.6,2.1,4.2));
#1344 = LINE('',#1345,#1346);
#1345 = CARTESIAN_POINT('',(5.6,2.525,4.625));
#1346 = VECTOR('',#1347,1.);
#1347 = DIRECTION('',(-0.,-0.707106781187,-0.707106781187));
#1348 = ORIENTED_EDGE('',*,*,#1349,.F.);
#1349 = EDGE_CURVE('',#1243,#1342,#1350,.T.);
#1350 = LINE('',#1351,#1352);
#1351 = CARTESIAN_POINT('',(6.,2.1,4.2));
#1352 = VECTOR('',#1353,1.);
#1353 = DIRECTION('',(-1.,0.,0.));
#1354 = PLANE('',#1355);
#1355 = AXIS2_PLACEMENT_3D('',#1356,#1357,#1358);
#1356 = CARTESIAN_POINT('',(6.,2.25,4.35));
#1357 = DIRECTION('',(-9.293197397199E-19,0.707106781187,-0.707106781187
    ));
#1358 = DIRECTION('',(1.,6.571282898464E-19,-6.571282898464E-19));
#1359 = ADVANCED_FACE('',(#1360),#1428,.T.);
#1360 = FACE_BOUND('',#1361,.T.);
#1361 = EDGE_LOOP('',(#1362,#1363,#1364,#1372,#1378,#1379,#1387,#1395,
    #1404,#1412,#1421,#1427));
#1362 = ORIENTED_EDGE('',*,*,#778,.F.);
#1363 = ORIENTED_EDGE('',*,*,#1315,.T.);
#1364 = ORIENTED_EDGE('',*,*,#1365,.T.);
#1365 = EDGE_CURVE('',#1316,#1366,#1368,.T.);
#1366 = VERTEX_POINT('',#1367);
#1367 = CARTESIAN_POINT('',(5.6,0.3,1.));
#1368 = LINE('',#1369,#1370);
#1369 = CARTESIAN_POINT('',(5.6,3.2,1.));
#1370 = VECTOR('',#1371,1.);
#1371 = DIRECTION('',(0.,-1.,0.));
#1372 = ORIENTED_EDGE('',*,*,#1373,.F.);
#1373 = EDGE_CURVE('',#1173,#1366,#1374,.T.);
#1374 = LINE('',#1375,#1376);
#1375 = CARTESIAN_POINT('',(5.6,0.3,4.5));
#1376 = VECTOR('',#1377,1.);
#1377 = DIRECTION('',(-0.,-0.,-1.));
#1378 = ORIENTED_EDGE('',*,*,#1172,.F.);
#1379 = ORIENTED_EDGE('',*,*,#1380,.T.);
#1380 = EDGE_CURVE('',#1165,#1381,#1383,.T.);
#1381 = VERTEX_POINT('',#1382);
#1382 = CARTESIAN_POINT('',(5.6,1.,4.2));
#1383 = LINE('',#1384,#1385);
#1384 = CARTESIAN_POINT('',(5.6,1.4,3.8));
#1385 = VECTOR('',#1386,1.);
#1386 = DIRECTION('',(0.,0.707106781187,-0.707106781187));
#1387 = ORIENTED_EDGE('',*,*,#1388,.F.);
#1388 = EDGE_CURVE('',#1389,#1381,#1391,.T.);
#1389 = VERTEX_POINT('',#1390);
#1390 = CARTESIAN_POINT('',(5.6,1.,2.500131));
#1391 = LINE('',#1392,#1393);
#1392 = CARTESIAN_POINT('',(5.6,1.,3.5000655));
#1393 = VECTOR('',#1394,1.);
#1394 = DIRECTION('',(0.,0.,1.));
#1395 = ORIENTED_EDGE('',*,*,#1396,.F.);
#1396 = EDGE_CURVE('',#1397,#1389,#1399,.T.);
#1397 = VERTEX_POINT('',#1398);
#1398 = CARTESIAN_POINT('',(5.6,1.5,2.000131));
#1399 = CIRCLE('',#1400,0.5);
#1400 = AXIS2_PLACEMENT_3D('',#1401,#1402,#1403);
#1401 = CARTESIAN_POINT('',(5.6,1.5,2.500131));
#1402 = DIRECTION('',(-1.,0.,0.));
#1403 = DIRECTION('',(0.,-1.,0.));
#1404 = ORIENTED_EDGE('',*,*,#1405,.F.);
#1405 = EDGE_CURVE('',#1406,#1397,#1408,.T.);
#1406 = VERTEX_POINT('',#1407);
#1407 = CARTESIAN_POINT('',(5.6,1.6,2.000131));
#1408 = LINE('',#1409,#1410);
#1409 = CARTESIAN_POINT('',(5.6,2.4,2.000131));
#1410 = VECTOR('',#1411,1.);
#1411 = DIRECTION('',(-0.,-1.,-0.));
#1412 = ORIENTED_EDGE('',*,*,#1413,.F.);
#1413 = EDGE_CURVE('',#1414,#1406,#1416,.T.);
#1414 = VERTEX_POINT('',#1415);
#1415 = CARTESIAN_POINT('',(5.6,2.1,2.500131));
#1416 = CIRCLE('',#1417,0.5);
#1417 = AXIS2_PLACEMENT_3D('',#1418,#1419,#1420);
#1418 = CARTESIAN_POINT('',(5.6,1.6,2.500131));
#1419 = DIRECTION('',(-1.,0.,0.));
#1420 = DIRECTION('',(0.,-1.,0.));
#1421 = ORIENTED_EDGE('',*,*,#1422,.F.);
#1422 = EDGE_CURVE('',#1342,#1414,#1423,.T.);
#1423 = LINE('',#1424,#1425);
#1424 = CARTESIAN_POINT('',(5.6,2.1,4.5000655));
#1425 = VECTOR('',#1426,1.);
#1426 = DIRECTION('',(0.,0.,-1.));
#1427 = ORIENTED_EDGE('',*,*,#1341,.F.);
#1428 = PLANE('',#1429);
#1429 = AXIS2_PLACEMENT_3D('',#1430,#1431,#1432);
#1430 = CARTESIAN_POINT('',(5.6,3.2,4.5));
#1431 = DIRECTION('',(-1.,0.,0.));
#1432 = DIRECTION('',(0.,-1.,0.));
#1433 = ADVANCED_FACE('',(#1434),#1459,.T.);
#1434 = FACE_BOUND('',#1435,.T.);
#1435 = EDGE_LOOP('',(#1436,#1444,#1452,#1458));
#1436 = ORIENTED_EDGE('',*,*,#1437,.T.);
#1437 = EDGE_CURVE('',#859,#1438,#1440,.T.);
#1438 = VERTEX_POINT('',#1439);
#1439 = CARTESIAN_POINT('',(4.25,1.55,1.));
#1440 = LINE('',#1441,#1442);
#1441 = CARTESIAN_POINT('',(4.25,1.55,0.));
#1442 = VECTOR('',#1443,1.);
#1443 = DIRECTION('',(0.,0.,1.));
#1444 = ORIENTED_EDGE('',*,*,#1445,.T.);
#1445 = EDGE_CURVE('',#1438,#1446,#1448,.T.);
#1446 = VERTEX_POINT('',#1447);
#1447 = CARTESIAN_POINT('',(4.25,1.05,1.));
#1448 = LINE('',#1449,#1450);
#1449 = CARTESIAN_POINT('',(4.25,1.55,1.));
#1450 = VECTOR('',#1451,1.);
#1451 = DIRECTION('',(0.,-1.,0.));
#1452 = ORIENTED_EDGE('',*,*,#1453,.F.);
#1453 = EDGE_CURVE('',#861,#1446,#1454,.T.);
#1454 = LINE('',#1455,#1456);
#1455 = CARTESIAN_POINT('',(4.25,1.05,0.));
#1456 = VECTOR('',#1457,1.);
#1457 = DIRECTION('',(0.,0.,1.));
#1458 = ORIENTED_EDGE('',*,*,#858,.F.);
#1459 = PLANE('',#1460);
#1460 = AXIS2_PLACEMENT_3D('',#1461,#1462,#1463);
#1461 = CARTESIAN_POINT('',(4.25,1.55,0.));
#1462 = DIRECTION('',(1.,0.,-0.));
#1463 = DIRECTION('',(0.,-1.,0.));
#1464 = ADVANCED_FACE('',(#1465),#1483,.T.);
#1465 = FACE_BOUND('',#1466,.T.);
#1466 = EDGE_LOOP('',(#1467,#1468,#1476,#1482));
#1467 = ORIENTED_EDGE('',*,*,#1453,.T.);
#1468 = ORIENTED_EDGE('',*,*,#1469,.T.);
#1469 = EDGE_CURVE('',#1446,#1470,#1472,.T.);
#1470 = VERTEX_POINT('',#1471);
#1471 = CARTESIAN_POINT('',(4.75,1.05,1.));
#1472 = LINE('',#1473,#1474);
#1473 = CARTESIAN_POINT('',(4.25,1.05,1.));
#1474 = VECTOR('',#1475,1.);
#1475 = DIRECTION('',(1.,0.,0.));
#1476 = ORIENTED_EDGE('',*,*,#1477,.F.);
#1477 = EDGE_CURVE('',#877,#1470,#1478,.T.);
#1478 = LINE('',#1479,#1480);
#1479 = CARTESIAN_POINT('',(4.75,1.05,0.));
#1480 = VECTOR('',#1481,1.);
#1481 = DIRECTION('',(0.,0.,1.));
#1482 = ORIENTED_EDGE('',*,*,#884,.F.);
#1483 = PLANE('',#1484);
#1484 = AXIS2_PLACEMENT_3D('',#1485,#1486,#1487);
#1485 = CARTESIAN_POINT('',(4.25,1.05,0.));
#1486 = DIRECTION('',(0.,1.,0.));
#1487 = DIRECTION('',(1.,0.,0.));
#1488 = ADVANCED_FACE('',(#1489),#1507,.T.);
#1489 = FACE_BOUND('',#1490,.T.);
#1490 = EDGE_LOOP('',(#1491,#1492,#1500,#1506));
#1491 = ORIENTED_EDGE('',*,*,#1477,.T.);
#1492 = ORIENTED_EDGE('',*,*,#1493,.T.);
#1493 = EDGE_CURVE('',#1470,#1494,#1496,.T.);
#1494 = VERTEX_POINT('',#1495);
#1495 = CARTESIAN_POINT('',(4.75,1.55,1.));
#1496 = LINE('',#1497,#1498);
#1497 = CARTESIAN_POINT('',(4.75,1.05,1.));
#1498 = VECTOR('',#1499,1.);
#1499 = DIRECTION('',(0.,1.,0.));
#1500 = ORIENTED_EDGE('',*,*,#1501,.F.);
#1501 = EDGE_CURVE('',#869,#1494,#1502,.T.);
#1502 = LINE('',#1503,#1504);
#1503 = CARTESIAN_POINT('',(4.75,1.55,0.));
#1504 = VECTOR('',#1505,1.);
#1505 = DIRECTION('',(0.,0.,1.));
#1506 = ORIENTED_EDGE('',*,*,#876,.F.);
#1507 = PLANE('',#1508);
#1508 = AXIS2_PLACEMENT_3D('',#1509,#1510,#1511);
#1509 = CARTESIAN_POINT('',(4.75,1.05,0.));
#1510 = DIRECTION('',(-1.,0.,0.));
#1511 = DIRECTION('',(0.,1.,0.));
#1512 = ADVANCED_FACE('',(#1513),#1524,.T.);
#1513 = FACE_BOUND('',#1514,.T.);
#1514 = EDGE_LOOP('',(#1515,#1516,#1522,#1523));
#1515 = ORIENTED_EDGE('',*,*,#1501,.T.);
#1516 = ORIENTED_EDGE('',*,*,#1517,.T.);
#1517 = EDGE_CURVE('',#1494,#1438,#1518,.T.);
#1518 = LINE('',#1519,#1520);
#1519 = CARTESIAN_POINT('',(4.75,1.55,1.));
#1520 = VECTOR('',#1521,1.);
#1521 = DIRECTION('',(-1.,0.,0.));
#1522 = ORIENTED_EDGE('',*,*,#1437,.F.);
#1523 = ORIENTED_EDGE('',*,*,#868,.F.);
#1524 = PLANE('',#1525);
#1525 = AXIS2_PLACEMENT_3D('',#1526,#1527,#1528);
#1526 = CARTESIAN_POINT('',(4.75,1.55,0.));
#1527 = DIRECTION('',(0.,-1.,0.));
#1528 = DIRECTION('',(-1.,0.,0.));
#1529 = ADVANCED_FACE('',(#1530),#1555,.T.);
#1530 = FACE_BOUND('',#1531,.T.);
#1531 = EDGE_LOOP('',(#1532,#1540,#1548,#1554));
#1532 = ORIENTED_EDGE('',*,*,#1533,.T.);
#1533 = EDGE_CURVE('',#893,#1534,#1536,.T.);
#1534 = VERTEX_POINT('',#1535);
#1535 = CARTESIAN_POINT('',(1.25,1.55,1.));
#1536 = LINE('',#1537,#1538);
#1537 = CARTESIAN_POINT('',(1.25,1.55,0.));
#1538 = VECTOR('',#1539,1.);
#1539 = DIRECTION('',(0.,0.,1.));
#1540 = ORIENTED_EDGE('',*,*,#1541,.T.);
#1541 = EDGE_CURVE('',#1534,#1542,#1544,.T.);
#1542 = VERTEX_POINT('',#1543);
#1543 = CARTESIAN_POINT('',(1.25,1.05,1.));
#1544 = LINE('',#1545,#1546);
#1545 = CARTESIAN_POINT('',(1.25,1.55,1.));
#1546 = VECTOR('',#1547,1.);
#1547 = DIRECTION('',(0.,-1.,0.));
#1548 = ORIENTED_EDGE('',*,*,#1549,.F.);
#1549 = EDGE_CURVE('',#895,#1542,#1550,.T.);
#1550 = LINE('',#1551,#1552);
#1551 = CARTESIAN_POINT('',(1.25,1.05,0.));
#1552 = VECTOR('',#1553,1.);
#1553 = DIRECTION('',(0.,0.,1.));
#1554 = ORIENTED_EDGE('',*,*,#892,.F.);
#1555 = PLANE('',#1556);
#1556 = AXIS2_PLACEMENT_3D('',#1557,#1558,#1559);
#1557 = CARTESIAN_POINT('',(1.25,1.55,0.));
#1558 = DIRECTION('',(1.,0.,-0.));
#1559 = DIRECTION('',(0.,-1.,0.));
#1560 = ADVANCED_FACE('',(#1561),#1579,.T.);
#1561 = FACE_BOUND('',#1562,.T.);
#1562 = EDGE_LOOP('',(#1563,#1564,#1572,#1578));
#1563 = ORIENTED_EDGE('',*,*,#1549,.T.);
#1564 = ORIENTED_EDGE('',*,*,#1565,.T.);
#1565 = EDGE_CURVE('',#1542,#1566,#1568,.T.);
#1566 = VERTEX_POINT('',#1567);
#1567 = CARTESIAN_POINT('',(1.75,1.05,1.));
#1568 = LINE('',#1569,#1570);
#1569 = CARTESIAN_POINT('',(1.25,1.05,1.));
#1570 = VECTOR('',#1571,1.);
#1571 = DIRECTION('',(1.,0.,0.));
#1572 = ORIENTED_EDGE('',*,*,#1573,.F.);
#1573 = EDGE_CURVE('',#911,#1566,#1574,.T.);
#1574 = LINE('',#1575,#1576);
#1575 = CARTESIAN_POINT('',(1.75,1.05,0.));
#1576 = VECTOR('',#1577,1.);
#1577 = DIRECTION('',(0.,0.,1.));
#1578 = ORIENTED_EDGE('',*,*,#918,.F.);
#1579 = PLANE('',#1580);
#1580 = AXIS2_PLACEMENT_3D('',#1581,#1582,#1583);
#1581 = CARTESIAN_POINT('',(1.25,1.05,0.));
#1582 = DIRECTION('',(0.,1.,0.));
#1583 = DIRECTION('',(1.,0.,0.));
#1584 = ADVANCED_FACE('',(#1585),#1603,.T.);
#1585 = FACE_BOUND('',#1586,.T.);
#1586 = EDGE_LOOP('',(#1587,#1588,#1596,#1602));
#1587 = ORIENTED_EDGE('',*,*,#1573,.T.);
#1588 = ORIENTED_EDGE('',*,*,#1589,.T.);
#1589 = EDGE_CURVE('',#1566,#1590,#1592,.T.);
#1590 = VERTEX_POINT('',#1591);
#1591 = CARTESIAN_POINT('',(1.75,1.55,1.));
#1592 = LINE('',#1593,#1594);
#1593 = CARTESIAN_POINT('',(1.75,1.05,1.));
#1594 = VECTOR('',#1595,1.);
#1595 = DIRECTION('',(0.,1.,0.));
#1596 = ORIENTED_EDGE('',*,*,#1597,.F.);
#1597 = EDGE_CURVE('',#903,#1590,#1598,.T.);
#1598 = LINE('',#1599,#1600);
#1599 = CARTESIAN_POINT('',(1.75,1.55,0.));
#1600 = VECTOR('',#1601,1.);
#1601 = DIRECTION('',(0.,0.,1.));
#1602 = ORIENTED_EDGE('',*,*,#910,.F.);
#1603 = PLANE('',#1604);
#1604 = AXIS2_PLACEMENT_3D('',#1605,#1606,#1607);
#1605 = CARTESIAN_POINT('',(1.75,1.05,0.));
#1606 = DIRECTION('',(-1.,0.,0.));
#1607 = DIRECTION('',(0.,1.,0.));
#1608 = ADVANCED_FACE('',(#1609),#1620,.T.);
#1609 = FACE_BOUND('',#1610,.T.);
#1610 = EDGE_LOOP('',(#1611,#1612,#1618,#1619));
#1611 = ORIENTED_EDGE('',*,*,#1597,.T.);
#1612 = ORIENTED_EDGE('',*,*,#1613,.T.);
#1613 = EDGE_CURVE('',#1590,#1534,#1614,.T.);
#1614 = LINE('',#1615,#1616);
#1615 = CARTESIAN_POINT('',(1.75,1.55,1.));
#1616 = VECTOR('',#1617,1.);
#1617 = DIRECTION('',(-1.,0.,0.));
#1618 = ORIENTED_EDGE('',*,*,#1533,.F.);
#1619 = ORIENTED_EDGE('',*,*,#902,.F.);
#1620 = PLANE('',#1621);
#1621 = AXIS2_PLACEMENT_3D('',#1622,#1623,#1624);
#1622 = CARTESIAN_POINT('',(1.75,1.55,0.));
#1623 = DIRECTION('',(0.,-1.,0.));
#1624 = DIRECTION('',(-1.,0.,0.));
#1625 = ADVANCED_FACE('',(#1626),#1651,.T.);
#1626 = FACE_BOUND('',#1627,.T.);
#1627 = EDGE_LOOP('',(#1628,#1636,#1644,#1650));
#1628 = ORIENTED_EDGE('',*,*,#1629,.T.);
#1629 = EDGE_CURVE('',#927,#1630,#1632,.T.);
#1630 = VERTEX_POINT('',#1631);
#1631 = CARTESIAN_POINT('',(2.75,1.55,1.));
#1632 = LINE('',#1633,#1634);
#1633 = CARTESIAN_POINT('',(2.75,1.55,0.));
#1634 = VECTOR('',#1635,1.);
#1635 = DIRECTION('',(0.,0.,1.));
#1636 = ORIENTED_EDGE('',*,*,#1637,.T.);
#1637 = EDGE_CURVE('',#1630,#1638,#1640,.T.);
#1638 = VERTEX_POINT('',#1639);
#1639 = CARTESIAN_POINT('',(2.75,1.05,1.));
#1640 = LINE('',#1641,#1642);
#1641 = CARTESIAN_POINT('',(2.75,1.55,1.));
#1642 = VECTOR('',#1643,1.);
#1643 = DIRECTION('',(0.,-1.,0.));
#1644 = ORIENTED_EDGE('',*,*,#1645,.F.);
#1645 = EDGE_CURVE('',#929,#1638,#1646,.T.);
#1646 = LINE('',#1647,#1648);
#1647 = CARTESIAN_POINT('',(2.75,1.05,0.));
#1648 = VECTOR('',#1649,1.);
#1649 = DIRECTION('',(0.,0.,1.));
#1650 = ORIENTED_EDGE('',*,*,#926,.F.);
#1651 = PLANE('',#1652);
#1652 = AXIS2_PLACEMENT_3D('',#1653,#1654,#1655);
#1653 = CARTESIAN_POINT('',(2.75,1.55,0.));
#1654 = DIRECTION('',(1.,0.,-0.));
#1655 = DIRECTION('',(0.,-1.,0.));
#1656 = ADVANCED_FACE('',(#1657),#1675,.T.);
#1657 = FACE_BOUND('',#1658,.T.);
#1658 = EDGE_LOOP('',(#1659,#1660,#1668,#1674));
#1659 = ORIENTED_EDGE('',*,*,#1645,.T.);
#1660 = ORIENTED_EDGE('',*,*,#1661,.T.);
#1661 = EDGE_CURVE('',#1638,#1662,#1664,.T.);
#1662 = VERTEX_POINT('',#1663);
#1663 = CARTESIAN_POINT('',(3.25,1.05,1.));
#1664 = LINE('',#1665,#1666);
#1665 = CARTESIAN_POINT('',(2.75,1.05,1.));
#1666 = VECTOR('',#1667,1.);
#1667 = DIRECTION('',(1.,0.,0.));
#1668 = ORIENTED_EDGE('',*,*,#1669,.F.);
#1669 = EDGE_CURVE('',#945,#1662,#1670,.T.);
#1670 = LINE('',#1671,#1672);
#1671 = CARTESIAN_POINT('',(3.25,1.05,0.));
#1672 = VECTOR('',#1673,1.);
#1673 = DIRECTION('',(0.,0.,1.));
#1674 = ORIENTED_EDGE('',*,*,#952,.F.);
#1675 = PLANE('',#1676);
#1676 = AXIS2_PLACEMENT_3D('',#1677,#1678,#1679);
#1677 = CARTESIAN_POINT('',(2.75,1.05,0.));
#1678 = DIRECTION('',(0.,1.,0.));
#1679 = DIRECTION('',(1.,0.,0.));
#1680 = ADVANCED_FACE('',(#1681),#1699,.T.);
#1681 = FACE_BOUND('',#1682,.T.);
#1682 = EDGE_LOOP('',(#1683,#1684,#1692,#1698));
#1683 = ORIENTED_EDGE('',*,*,#1669,.T.);
#1684 = ORIENTED_EDGE('',*,*,#1685,.T.);
#1685 = EDGE_CURVE('',#1662,#1686,#1688,.T.);
#1686 = VERTEX_POINT('',#1687);
#1687 = CARTESIAN_POINT('',(3.25,1.55,1.));
#1688 = LINE('',#1689,#1690);
#1689 = CARTESIAN_POINT('',(3.25,1.05,1.));
#1690 = VECTOR('',#1691,1.);
#1691 = DIRECTION('',(0.,1.,0.));
#1692 = ORIENTED_EDGE('',*,*,#1693,.F.);
#1693 = EDGE_CURVE('',#937,#1686,#1694,.T.);
#1694 = LINE('',#1695,#1696);
#1695 = CARTESIAN_POINT('',(3.25,1.55,0.));
#1696 = VECTOR('',#1697,1.);
#1697 = DIRECTION('',(0.,0.,1.));
#1698 = ORIENTED_EDGE('',*,*,#944,.F.);
#1699 = PLANE('',#1700);
#1700 = AXIS2_PLACEMENT_3D('',#1701,#1702,#1703);
#1701 = CARTESIAN_POINT('',(3.25,1.05,0.));
#1702 = DIRECTION('',(-1.,0.,0.));
#1703 = DIRECTION('',(0.,1.,0.));
#1704 = ADVANCED_FACE('',(#1705),#1716,.T.);
#1705 = FACE_BOUND('',#1706,.T.);
#1706 = EDGE_LOOP('',(#1707,#1708,#1714,#1715));
#1707 = ORIENTED_EDGE('',*,*,#1693,.T.);
#1708 = ORIENTED_EDGE('',*,*,#1709,.T.);
#1709 = EDGE_CURVE('',#1686,#1630,#1710,.T.);
#1710 = LINE('',#1711,#1712);
#1711 = CARTESIAN_POINT('',(3.25,1.55,1.));
#1712 = VECTOR('',#1713,1.);
#1713 = DIRECTION('',(-1.,0.,0.));
#1714 = ORIENTED_EDGE('',*,*,#1629,.F.);
#1715 = ORIENTED_EDGE('',*,*,#936,.F.);
#1716 = PLANE('',#1717);
#1717 = AXIS2_PLACEMENT_3D('',#1718,#1719,#1720);
#1718 = CARTESIAN_POINT('',(3.25,1.55,0.));
#1719 = DIRECTION('',(0.,-1.,0.));
#1720 = DIRECTION('',(-1.,0.,0.));
#1721 = ADVANCED_FACE('',(#1722),#1747,.F.);
#1722 = FACE_BOUND('',#1723,.F.);
#1723 = EDGE_LOOP('',(#1724,#1732,#1740,#1746));
#1724 = ORIENTED_EDGE('',*,*,#1725,.T.);
#1725 = EDGE_CURVE('',#1081,#1726,#1728,.T.);
#1726 = VERTEX_POINT('',#1727);
#1727 = CARTESIAN_POINT('',(0.5,0.15,2.58));
#1728 = LINE('',#1729,#1730);
#1729 = CARTESIAN_POINT('',(0.5,5.728750807066E-16,2.58));
#1730 = VECTOR('',#1731,1.);
#1731 = DIRECTION('',(0.,1.,-2.22044604925E-16));
#1732 = ORIENTED_EDGE('',*,*,#1733,.T.);
#1733 = EDGE_CURVE('',#1726,#1734,#1736,.T.);
#1734 = VERTEX_POINT('',#1735);
#1735 = CARTESIAN_POINT('',(0.5,0.15,1.58));
#1736 = LINE('',#1737,#1738);
#1737 = CARTESIAN_POINT('',(0.5,0.15,2.58));
#1738 = VECTOR('',#1739,1.);
#1739 = DIRECTION('',(0.,-2.22044604925E-16,-1.));
#1740 = ORIENTED_EDGE('',*,*,#1741,.F.);
#1741 = EDGE_CURVE('',#1083,#1734,#1742,.T.);
#1742 = LINE('',#1743,#1744);
#1743 = CARTESIAN_POINT('',(0.5,3.508304757815E-16,1.58));
#1744 = VECTOR('',#1745,1.);
#1745 = DIRECTION('',(0.,1.,-2.22044604925E-16));
#1746 = ORIENTED_EDGE('',*,*,#1080,.F.);
#1747 = PLANE('',#1748);
#1748 = AXIS2_PLACEMENT_3D('',#1749,#1750,#1751);
#1749 = CARTESIAN_POINT('',(0.5,5.728750807066E-16,2.58));
#1750 = DIRECTION('',(-1.,0.,0.));
#1751 = DIRECTION('',(0.,-2.22044604925E-16,-1.));
#1752 = ADVANCED_FACE('',(#1753),#1771,.F.);
#1753 = FACE_BOUND('',#1754,.F.);
#1754 = EDGE_LOOP('',(#1755,#1763,#1769,#1770));
#1755 = ORIENTED_EDGE('',*,*,#1756,.T.);
#1756 = EDGE_CURVE('',#1099,#1757,#1759,.T.);
#1757 = VERTEX_POINT('',#1758);
#1758 = CARTESIAN_POINT('',(1.2,0.15,2.58));
#1759 = LINE('',#1760,#1761);
#1760 = CARTESIAN_POINT('',(1.2,5.728750807066E-16,2.58));
#1761 = VECTOR('',#1762,1.);
#1762 = DIRECTION('',(0.,1.,-2.22044604925E-16));
#1763 = ORIENTED_EDGE('',*,*,#1764,.T.);
#1764 = EDGE_CURVE('',#1757,#1726,#1765,.T.);
#1765 = LINE('',#1766,#1767);
#1766 = CARTESIAN_POINT('',(1.2,0.15,2.58));
#1767 = VECTOR('',#1768,1.);
#1768 = DIRECTION('',(-1.,0.,0.));
#1769 = ORIENTED_EDGE('',*,*,#1725,.F.);
#1770 = ORIENTED_EDGE('',*,*,#1106,.F.);
#1771 = PLANE('',#1772);
#1772 = AXIS2_PLACEMENT_3D('',#1773,#1774,#1775);
#1773 = CARTESIAN_POINT('',(1.2,5.728750807066E-16,2.58));
#1774 = DIRECTION('',(0.,2.22044604925E-16,1.));
#1775 = DIRECTION('',(-1.,0.,0.));
#1776 = ADVANCED_FACE('',(#1777),#1795,.F.);
#1777 = FACE_BOUND('',#1778,.F.);
#1778 = EDGE_LOOP('',(#1779,#1787,#1793,#1794));
#1779 = ORIENTED_EDGE('',*,*,#1780,.T.);
#1780 = EDGE_CURVE('',#1091,#1781,#1783,.T.);
#1781 = VERTEX_POINT('',#1782);
#1782 = CARTESIAN_POINT('',(1.2,0.15,1.58));
#1783 = LINE('',#1784,#1785);
#1784 = CARTESIAN_POINT('',(1.2,3.508304757815E-16,1.58));
#1785 = VECTOR('',#1786,1.);
#1786 = DIRECTION('',(0.,1.,-2.22044604925E-16));
#1787 = ORIENTED_EDGE('',*,*,#1788,.T.);
#1788 = EDGE_CURVE('',#1781,#1757,#1789,.T.);
#1789 = LINE('',#1790,#1791);
#1790 = CARTESIAN_POINT('',(1.2,0.15,1.58));
#1791 = VECTOR('',#1792,1.);
#1792 = DIRECTION('',(0.,2.22044604925E-16,1.));
#1793 = ORIENTED_EDGE('',*,*,#1756,.F.);
#1794 = ORIENTED_EDGE('',*,*,#1098,.F.);
#1795 = PLANE('',#1796);
#1796 = AXIS2_PLACEMENT_3D('',#1797,#1798,#1799);
#1797 = CARTESIAN_POINT('',(1.2,3.508304757815E-16,1.58));
#1798 = DIRECTION('',(1.,0.,0.));
#1799 = DIRECTION('',(0.,2.22044604925E-16,1.));
#1800 = ADVANCED_FACE('',(#1801),#1812,.F.);
#1801 = FACE_BOUND('',#1802,.F.);
#1802 = EDGE_LOOP('',(#1803,#1804,#1810,#1811));
#1803 = ORIENTED_EDGE('',*,*,#1741,.T.);
#1804 = ORIENTED_EDGE('',*,*,#1805,.T.);
#1805 = EDGE_CURVE('',#1734,#1781,#1806,.T.);
#1806 = LINE('',#1807,#1808);
#1807 = CARTESIAN_POINT('',(0.5,0.15,1.58));
#1808 = VECTOR('',#1809,1.);
#1809 = DIRECTION('',(1.,0.,0.));
#1810 = ORIENTED_EDGE('',*,*,#1780,.F.);
#1811 = ORIENTED_EDGE('',*,*,#1090,.F.);
#1812 = PLANE('',#1813);
#1813 = AXIS2_PLACEMENT_3D('',#1814,#1815,#1816);
#1814 = CARTESIAN_POINT('',(0.5,3.508304757815E-16,1.58));
#1815 = DIRECTION('',(0.,-2.22044604925E-16,-1.));
#1816 = DIRECTION('',(1.,0.,0.));
#1817 = ADVANCED_FACE('',(#1818),#1843,.F.);
#1818 = FACE_BOUND('',#1819,.F.);
#1819 = EDGE_LOOP('',(#1820,#1828,#1836,#1842));
#1820 = ORIENTED_EDGE('',*,*,#1821,.T.);
#1821 = EDGE_CURVE('',#1115,#1822,#1824,.T.);
#1822 = VERTEX_POINT('',#1823);
#1823 = CARTESIAN_POINT('',(5.4,0.15,2.5));
#1824 = LINE('',#1825,#1826);
#1825 = CARTESIAN_POINT('',(5.4,5.551115123126E-16,2.5));
#1826 = VECTOR('',#1827,1.);
#1827 = DIRECTION('',(0.,1.,-2.22044604925E-16));
#1828 = ORIENTED_EDGE('',*,*,#1829,.T.);
#1829 = EDGE_CURVE('',#1822,#1830,#1832,.T.);
#1830 = VERTEX_POINT('',#1831);
#1831 = CARTESIAN_POINT('',(4.7,0.15,2.5));
#1832 = LINE('',#1833,#1834);
#1833 = CARTESIAN_POINT('',(5.4,0.15,2.5));
#1834 = VECTOR('',#1835,1.);
#1835 = DIRECTION('',(-1.,0.,0.));
#1836 = ORIENTED_EDGE('',*,*,#1837,.F.);
#1837 = EDGE_CURVE('',#1117,#1830,#1838,.T.);
#1838 = LINE('',#1839,#1840);
#1839 = CARTESIAN_POINT('',(4.7,5.551115123126E-16,2.5));
#1840 = VECTOR('',#1841,1.);
#1841 = DIRECTION('',(0.,1.,-2.22044604925E-16));
#1842 = ORIENTED_EDGE('',*,*,#1114,.F.);
#1843 = PLANE('',#1844);
#1844 = AXIS2_PLACEMENT_3D('',#1845,#1846,#1847);
#1845 = CARTESIAN_POINT('',(5.4,5.551115123126E-16,2.5));
#1846 = DIRECTION('',(0.,2.22044604925E-16,1.));
#1847 = DIRECTION('',(-1.,0.,0.));
#1848 = ADVANCED_FACE('',(#1849),#1867,.F.);
#1849 = FACE_BOUND('',#1850,.F.);
#1850 = EDGE_LOOP('',(#1851,#1859,#1865,#1866));
#1851 = ORIENTED_EDGE('',*,*,#1852,.T.);
#1852 = EDGE_CURVE('',#1133,#1853,#1855,.T.);
#1853 = VERTEX_POINT('',#1854);
#1854 = CARTESIAN_POINT('',(5.4,0.15,1.5));
#1855 = LINE('',#1856,#1857);
#1856 = CARTESIAN_POINT('',(5.4,3.330669073875E-16,1.5));
#1857 = VECTOR('',#1858,1.);
#1858 = DIRECTION('',(0.,1.,-2.22044604925E-16));
#1859 = ORIENTED_EDGE('',*,*,#1860,.T.);
#1860 = EDGE_CURVE('',#1853,#1822,#1861,.T.);
#1861 = LINE('',#1862,#1863);
#1862 = CARTESIAN_POINT('',(5.4,0.15,1.5));
#1863 = VECTOR('',#1864,1.);
#1864 = DIRECTION('',(0.,2.22044604925E-16,1.));
#1865 = ORIENTED_EDGE('',*,*,#1821,.F.);
#1866 = ORIENTED_EDGE('',*,*,#1140,.F.);
#1867 = PLANE('',#1868);
#1868 = AXIS2_PLACEMENT_3D('',#1869,#1870,#1871);
#1869 = CARTESIAN_POINT('',(5.4,3.330669073875E-16,1.5));
#1870 = DIRECTION('',(1.,0.,0.));
#1871 = DIRECTION('',(0.,2.22044604925E-16,1.));
#1872 = ADVANCED_FACE('',(#1873),#1891,.F.);
#1873 = FACE_BOUND('',#1874,.F.);
#1874 = EDGE_LOOP('',(#1875,#1883,#1889,#1890));
#1875 = ORIENTED_EDGE('',*,*,#1876,.T.);
#1876 = EDGE_CURVE('',#1125,#1877,#1879,.T.);
#1877 = VERTEX_POINT('',#1878);
#1878 = CARTESIAN_POINT('',(4.7,0.15,1.5));
#1879 = LINE('',#1880,#1881);
#1880 = CARTESIAN_POINT('',(4.7,3.330669073875E-16,1.5));
#1881 = VECTOR('',#1882,1.);
#1882 = DIRECTION('',(0.,1.,-2.22044604925E-16));
#1883 = ORIENTED_EDGE('',*,*,#1884,.T.);
#1884 = EDGE_CURVE('',#1877,#1853,#1885,.T.);
#1885 = LINE('',#1886,#1887);
#1886 = CARTESIAN_POINT('',(4.7,0.15,1.5));
#1887 = VECTOR('',#1888,1.);
#1888 = DIRECTION('',(1.,0.,0.));
#1889 = ORIENTED_EDGE('',*,*,#1852,.F.);
#1890 = ORIENTED_EDGE('',*,*,#1132,.F.);
#1891 = PLANE('',#1892);
#1892 = AXIS2_PLACEMENT_3D('',#1893,#1894,#1895);
#1893 = CARTESIAN_POINT('',(4.7,3.330669073875E-16,1.5));
#1894 = DIRECTION('',(0.,-2.22044604925E-16,-1.));
#1895 = DIRECTION('',(1.,0.,0.));
#1896 = ADVANCED_FACE('',(#1897),#1908,.F.);
#1897 = FACE_BOUND('',#1898,.F.);
#1898 = EDGE_LOOP('',(#1899,#1900,#1906,#1907));
#1899 = ORIENTED_EDGE('',*,*,#1837,.T.);
#1900 = ORIENTED_EDGE('',*,*,#1901,.T.);
#1901 = EDGE_CURVE('',#1830,#1877,#1902,.T.);
#1902 = LINE('',#1903,#1904);
#1903 = CARTESIAN_POINT('',(4.7,0.15,2.5));
#1904 = VECTOR('',#1905,1.);
#1905 = DIRECTION('',(0.,-2.22044604925E-16,-1.));
#1906 = ORIENTED_EDGE('',*,*,#1876,.F.);
#1907 = ORIENTED_EDGE('',*,*,#1124,.F.);
#1908 = PLANE('',#1909);
#1909 = AXIS2_PLACEMENT_3D('',#1910,#1911,#1912);
#1910 = CARTESIAN_POINT('',(4.7,5.551115123126E-16,2.5));
#1911 = DIRECTION('',(-1.,0.,0.));
#1912 = DIRECTION('',(0.,-2.22044604925E-16,-1.));
#1913 = ADVANCED_FACE('',(#1914),#1925,.F.);
#1914 = FACE_BOUND('',#1915,.F.);
#1915 = EDGE_LOOP('',(#1916,#1917,#1923,#1924));
#1916 = ORIENTED_EDGE('',*,*,#1220,.T.);
#1917 = ORIENTED_EDGE('',*,*,#1918,.T.);
#1918 = EDGE_CURVE('',#1213,#1366,#1919,.T.);
#1919 = LINE('',#1920,#1921);
#1920 = CARTESIAN_POINT('',(0.4,0.3,1.));
#1921 = VECTOR('',#1922,1.);
#1922 = DIRECTION('',(1.,0.,0.));
#1923 = ORIENTED_EDGE('',*,*,#1373,.F.);
#1924 = ORIENTED_EDGE('',*,*,#1180,.F.);
#1925 = PLANE('',#1926);
#1926 = AXIS2_PLACEMENT_3D('',#1927,#1928,#1929);
#1927 = CARTESIAN_POINT('',(0.4,0.3,4.5));
#1928 = DIRECTION('',(0.,-1.,0.));
#1929 = DIRECTION('',(1.,0.,0.));
#1930 = ADVANCED_FACE('',(#1931),#1942,.F.);
#1931 = FACE_BOUND('',#1932,.T.);
#1932 = EDGE_LOOP('',(#1933,#1934,#1935,#1936));
#1933 = ORIENTED_EDGE('',*,*,#1380,.F.);
#1934 = ORIENTED_EDGE('',*,*,#1164,.T.);
#1935 = ORIENTED_EDGE('',*,*,#1259,.T.);
#1936 = ORIENTED_EDGE('',*,*,#1937,.F.);
#1937 = EDGE_CURVE('',#1381,#1260,#1938,.T.);
#1938 = LINE('',#1939,#1940);
#1939 = CARTESIAN_POINT('',(5.6,1.,4.2));
#1940 = VECTOR('',#1941,1.);
#1941 = DIRECTION('',(1.,0.,0.));
#1942 = PLANE('',#1943);
#1943 = AXIS2_PLACEMENT_3D('',#1944,#1945,#1946);
#1944 = CARTESIAN_POINT('',(5.6,0.85,4.35));
#1945 = DIRECTION('',(4.827584719484E-18,-0.707106781187,-0.707106781187
    ));
#1946 = DIRECTION('',(-1.,-3.413617891899E-18,-3.413617891899E-18));
#1947 = ADVANCED_FACE('',(#1948,#1954,#1960,#1966),#1972,.T.);
#1948 = FACE_BOUND('',#1949,.T.);
#1949 = EDGE_LOOP('',(#1950,#1951,#1952,#1953));
#1950 = ORIENTED_EDGE('',*,*,#1323,.T.);
#1951 = ORIENTED_EDGE('',*,*,#1212,.T.);
#1952 = ORIENTED_EDGE('',*,*,#1918,.T.);
#1953 = ORIENTED_EDGE('',*,*,#1365,.F.);
#1954 = FACE_BOUND('',#1955,.T.);
#1955 = EDGE_LOOP('',(#1956,#1957,#1958,#1959));
#1956 = ORIENTED_EDGE('',*,*,#1445,.F.);
#1957 = ORIENTED_EDGE('',*,*,#1517,.F.);
#1958 = ORIENTED_EDGE('',*,*,#1493,.F.);
#1959 = ORIENTED_EDGE('',*,*,#1469,.F.);
#1960 = FACE_BOUND('',#1961,.T.);
#1961 = EDGE_LOOP('',(#1962,#1963,#1964,#1965));
#1962 = ORIENTED_EDGE('',*,*,#1541,.F.);
#1963 = ORIENTED_EDGE('',*,*,#1613,.F.);
#1964 = ORIENTED_EDGE('',*,*,#1589,.F.);
#1965 = ORIENTED_EDGE('',*,*,#1565,.F.);
#1966 = FACE_BOUND('',#1967,.T.);
#1967 = EDGE_LOOP('',(#1968,#1969,#1970,#1971));
#1968 = ORIENTED_EDGE('',*,*,#1637,.F.);
#1969 = ORIENTED_EDGE('',*,*,#1709,.F.);
#1970 = ORIENTED_EDGE('',*,*,#1685,.F.);
#1971 = ORIENTED_EDGE('',*,*,#1661,.F.);
#1972 = PLANE('',#1973);
#1973 = AXIS2_PLACEMENT_3D('',#1974,#1975,#1976);
#1974 = CARTESIAN_POINT('',(3.,1.75,1.));
#1975 = DIRECTION('',(0.,0.,1.));
#1976 = DIRECTION('',(1.,0.,0.));
#1977 = ADVANCED_FACE('',(#1978),#1989,.F.);
#1978 = FACE_BOUND('',#1979,.F.);
#1979 = EDGE_LOOP('',(#1980,#1981,#1987,#1988));
#1980 = ORIENTED_EDGE('',*,*,#1301,.T.);
#1981 = ORIENTED_EDGE('',*,*,#1982,.F.);
#1982 = EDGE_CURVE('',#1414,#1293,#1983,.T.);
#1983 = LINE('',#1984,#1985);
#1984 = CARTESIAN_POINT('',(0.,2.1,2.500131));
#1985 = VECTOR('',#1986,1.);
#1986 = DIRECTION('',(1.,0.,0.));
#1987 = ORIENTED_EDGE('',*,*,#1422,.F.);
#1988 = ORIENTED_EDGE('',*,*,#1349,.F.);
#1989 = PLANE('',#1990);
#1990 = AXIS2_PLACEMENT_3D('',#1991,#1992,#1993);
#1991 = CARTESIAN_POINT('',(0.,2.1,4.500131));
#1992 = DIRECTION('',(0.,1.,0.));
#1993 = DIRECTION('',(0.,0.,-1.));
#1994 = ADVANCED_FACE('',(#1995),#2006,.F.);
#1995 = FACE_BOUND('',#1996,.F.);
#1996 = EDGE_LOOP('',(#1997,#1998,#1999,#2000));
#1997 = ORIENTED_EDGE('',*,*,#1413,.F.);
#1998 = ORIENTED_EDGE('',*,*,#1982,.T.);
#1999 = ORIENTED_EDGE('',*,*,#1292,.T.);
#2000 = ORIENTED_EDGE('',*,*,#2001,.F.);
#2001 = EDGE_CURVE('',#1406,#1285,#2002,.T.);
#2002 = LINE('',#2003,#2004);
#2003 = CARTESIAN_POINT('',(0.,1.6,2.000131));
#2004 = VECTOR('',#2005,1.);
#2005 = DIRECTION('',(1.,0.,0.));
#2006 = CYLINDRICAL_SURFACE('',#2007,0.5);
#2007 = AXIS2_PLACEMENT_3D('',#2008,#2009,#2010);
#2008 = CARTESIAN_POINT('',(0.,1.6,2.500131));
#2009 = DIRECTION('',(-1.,0.,0.));
#2010 = DIRECTION('',(0.,-1.,0.));
#2011 = ADVANCED_FACE('',(#2012),#2023,.F.);
#2012 = FACE_BOUND('',#2013,.F.);
#2013 = EDGE_LOOP('',(#2014,#2015,#2016,#2017));
#2014 = ORIENTED_EDGE('',*,*,#1405,.F.);
#2015 = ORIENTED_EDGE('',*,*,#2001,.T.);
#2016 = ORIENTED_EDGE('',*,*,#1284,.T.);
#2017 = ORIENTED_EDGE('',*,*,#2018,.F.);
#2018 = EDGE_CURVE('',#1397,#1276,#2019,.T.);
#2019 = LINE('',#2020,#2021);
#2020 = CARTESIAN_POINT('',(0.,1.5,2.000131));
#2021 = VECTOR('',#2022,1.);
#2022 = DIRECTION('',(1.,0.,0.));
#2023 = PLANE('',#2024);
#2024 = AXIS2_PLACEMENT_3D('',#2025,#2026,#2027);
#2025 = CARTESIAN_POINT('',(0.,1.6,2.000131));
#2026 = DIRECTION('',(0.,0.,-1.));
#2027 = DIRECTION('',(0.,-1.,0.));
#2028 = ADVANCED_FACE('',(#2029),#2040,.F.);
#2029 = FACE_BOUND('',#2030,.F.);
#2030 = EDGE_LOOP('',(#2031,#2032,#2033,#2034));
#2031 = ORIENTED_EDGE('',*,*,#1396,.F.);
#2032 = ORIENTED_EDGE('',*,*,#2018,.T.);
#2033 = ORIENTED_EDGE('',*,*,#1275,.T.);
#2034 = ORIENTED_EDGE('',*,*,#2035,.F.);
#2035 = EDGE_CURVE('',#1389,#1268,#2036,.T.);
#2036 = LINE('',#2037,#2038);
#2037 = CARTESIAN_POINT('',(0.,1.,2.500131));
#2038 = VECTOR('',#2039,1.);
#2039 = DIRECTION('',(1.,0.,0.));
#2040 = CYLINDRICAL_SURFACE('',#2041,0.5);
#2041 = AXIS2_PLACEMENT_3D('',#2042,#2043,#2044);
#2042 = CARTESIAN_POINT('',(0.,1.5,2.500131));
#2043 = DIRECTION('',(-1.,0.,0.));
#2044 = DIRECTION('',(0.,-1.,0.));
#2045 = ADVANCED_FACE('',(#2046),#2052,.F.);
#2046 = FACE_BOUND('',#2047,.F.);
#2047 = EDGE_LOOP('',(#2048,#2049,#2050,#2051));
#2048 = ORIENTED_EDGE('',*,*,#1388,.F.);
#2049 = ORIENTED_EDGE('',*,*,#2035,.T.);
#2050 = ORIENTED_EDGE('',*,*,#1267,.T.);
#2051 = ORIENTED_EDGE('',*,*,#1937,.F.);
#2052 = PLANE('',#2053);
#2053 = AXIS2_PLACEMENT_3D('',#2054,#2055,#2056);
#2054 = CARTESIAN_POINT('',(0.,1.,2.500131));
#2055 = DIRECTION('',(0.,-1.,0.));
#2056 = DIRECTION('',(0.,0.,1.));
#2057 = ADVANCED_FACE('',(#2058),#2064,.F.);
#2058 = FACE_BOUND('',#2059,.T.);
#2059 = EDGE_LOOP('',(#2060,#2061,#2062,#2063));
#2060 = ORIENTED_EDGE('',*,*,#1805,.T.);
#2061 = ORIENTED_EDGE('',*,*,#1788,.T.);
#2062 = ORIENTED_EDGE('',*,*,#1764,.T.);
#2063 = ORIENTED_EDGE('',*,*,#1733,.T.);
#2064 = PLANE('',#2065);
#2065 = AXIS2_PLACEMENT_3D('',#2066,#2067,#2068);
#2066 = CARTESIAN_POINT('',(2.95,0.15,2.04));
#2067 = DIRECTION('',(0.,1.,-2.22044604925E-16));
#2068 = DIRECTION('',(0.,2.22044604925E-16,1.));
#2069 = ADVANCED_FACE('',(#2070),#2076,.F.);
#2070 = FACE_BOUND('',#2071,.T.);
#2071 = EDGE_LOOP('',(#2072,#2073,#2074,#2075));
#2072 = ORIENTED_EDGE('',*,*,#1901,.T.);
#2073 = ORIENTED_EDGE('',*,*,#1884,.T.);
#2074 = ORIENTED_EDGE('',*,*,#1860,.T.);
#2075 = ORIENTED_EDGE('',*,*,#1829,.T.);
#2076 = PLANE('',#2077);
#2077 = AXIS2_PLACEMENT_3D('',#2078,#2079,#2080);
#2078 = CARTESIAN_POINT('',(2.95,0.15,2.04));
#2079 = DIRECTION('',(0.,1.,-2.22044604925E-16));
#2080 = DIRECTION('',(0.,2.22044604925E-16,1.));
#2081 = ( GEOMETRIC_REPRESENTATION_CONTEXT(3) 
GLOBAL_UNCERTAINTY_ASSIGNED_CONTEXT((#2085)) 
GLOBAL_UNIT_ASSIGNED_CONTEXT((#2082,#2083,#2084)) REPRESENTATION_CONTEXT
('Context #1','3D Context with UNIT and UNCERTAINTY') );
#2082 = ( LENGTH_UNIT() NAMED_UNIT(*) SI_UNIT(.MILLI.,.METRE.) );
#2083 = ( NAMED_UNIT(*) PLANE_ANGLE_UNIT() SI_UNIT($,.RADIAN.) );
#2084 = ( NAMED_UNIT(*) SI_UNIT($,.STERADIAN.) SOLID_ANGLE_UNIT() );
#2085 = UNCERTAINTY_MEASURE_WITH_UNIT(LENGTH_MEASURE(1.E-06),#2082,
  'distance_accuracy_value','confusion accuracy');
#2086 = CONTEXT_DEPENDENT_SHAPE_REPRESENTATION(#2087,#2089);
#2087 = ( REPRESENTATION_RELATIONSHIP('','',#438,#10) 
REPRESENTATION_RELATIONSHIP_WITH_TRANSFORMATION(#2088) 
SHAPE_REPRESENTATION_RELATIONSHIP() );
#2088 = ITEM_DEFINED_TRANSFORMATION('','',#11,#19);
#2089 = PRODUCT_DEFINITION_SHAPE('Placement','Placement of an item',
  #2090);
#2090 = NEXT_ASSEMBLY_USAGE_OCCURRENCE('5','Pocket004','',#5,#433,$);
#2091 = PRODUCT_RELATED_PRODUCT_CATEGORY('part',$,(#435));
#2092 = MECHANICAL_DESIGN_GEOMETRIC_PRESENTATION_REPRESENTATION('',(
    #2093),#410);
#2093 = STYLED_ITEM('color',(#2094),#68);
#2094 = PRESENTATION_STYLE_ASSIGNMENT((#2095,#2101));
#2095 = SURFACE_STYLE_USAGE(.BOTH.,#2096);
#2096 = SURFACE_SIDE_STYLE('',(#2097));
#2097 = SURFACE_STYLE_FILL_AREA(#2098);
#2098 = FILL_AREA_STYLE('',(#2099));
#2099 = FILL_AREA_STYLE_COLOUR('',#2100);
#2100 = COLOUR_RGB('',0.925490190256,0.925490190256,0.925490190256);
#2101 = CURVE_STYLE('',#2102,POSITIVE_LENGTH_MEASURE(0.1),#2103);
#2102 = DRAUGHTING_PRE_DEFINED_CURVE_FONT('continuous');
#2103 = COLOUR_RGB('',9.803921802644E-02,9.803921802644E-02,
  9.803921802644E-02);
#2104 = MECHANICAL_DESIGN_GEOMETRIC_PRESENTATION_REPRESENTATION('',(
    #2105),#2081);
#2105 = STYLED_ITEM('color',(#2106),#439);
#2106 = PRESENTATION_STYLE_ASSIGNMENT((#2107,#2113));
#2107 = SURFACE_STYLE_USAGE(.BOTH.,#2108);
#2108 = SURFACE_SIDE_STYLE('',(#2109));
#2109 = SURFACE_STYLE_FILL_AREA(#2110);
#2110 = FILL_AREA_STYLE('',(#2111));
#2111 = FILL_AREA_STYLE_COLOUR('',#2112);
#2112 = COLOUR_RGB('',0.447058818107,0.474509808674,0.501960817233);
#2113 = CURVE_STYLE('',#2114,POSITIVE_LENGTH_MEASURE(0.1),#2103);
#2114 = DRAUGHTING_PRE_DEFINED_CURVE_FONT('continuous');
ENDSEC;
END-ISO-10303-21;
