%TF.GenerationSoftware,KiCad,Pcbnew,9.0.3*%
%TF.CreationDate,2026-01-12T07:01:29-03:00*%
%TF.ProjectId,pi_controller,70695f63-6f6e-4747-926f-6c6c65722e6b,1.0*%
%TF.SameCoordinates,Original*%
%TF.FileFunction,Legend,Top*%
%TF.FilePolarity,Positive*%
%FSLAX46Y46*%
G04 Gerber Fmt 4.6, Leading zero omitted, Abs format (unit mm)*
G04 Created by KiCad (PCBNEW 9.0.3) date 2026-01-12 07:01:29*
%MOMM*%
%LPD*%
G01*
G04 APERTURE LIST*
%ADD10C,0.120000*%
%ADD11C,0.150000*%
%ADD12C,0.200000*%
%ADD13C,0.127000*%
G04 APERTURE END LIST*
D10*
X89834800Y-101498400D02*
X90728800Y-101498400D01*
X90728800Y-101707200D02*
X90728800Y-101498400D01*
X90728800Y-109733600D02*
X90728800Y-109524800D01*
X90728800Y-101727600D02*
X94335600Y-101726400D01*
D11*
X139878000Y-99923600D02*
G75*
G02*
X137998000Y-99923600I-940000J0D01*
G01*
X137998000Y-99923600D02*
G75*
G02*
X139878000Y-99923600I940000J0D01*
G01*
X139878000Y-111323600D02*
G75*
G02*
X137998000Y-111323600I-940000J0D01*
G01*
X137998000Y-111323600D02*
G75*
G02*
X139878000Y-111323600I940000J0D01*
G01*
X92878000Y-111323600D02*
G75*
G02*
X90998000Y-111323600I-940000J0D01*
G01*
X90998000Y-111323600D02*
G75*
G02*
X92878000Y-111323600I940000J0D01*
G01*
X140682023Y-116306213D02*
X89687400Y-116306600D01*
D10*
X90728800Y-109524800D02*
X94335600Y-109523600D01*
X89834800Y-109733600D02*
X90728800Y-109733600D01*
X89834800Y-109733600D02*
X89834800Y-101513600D01*
D11*
X141071600Y-95402400D02*
X141071600Y-115925600D01*
X92878000Y-99923600D02*
G75*
G02*
X90998000Y-99923600I-940000J0D01*
G01*
X90998000Y-99923600D02*
G75*
G02*
X92878000Y-99923600I940000J0D01*
G01*
D10*
X94348000Y-109523600D02*
X94348000Y-101723600D01*
D11*
X141071695Y-115934000D02*
G75*
G02*
X140690600Y-116306600I-372695J0D01*
G01*
X140699000Y-95021400D02*
G75*
G02*
X141071600Y-95394000I0J-372600D01*
G01*
X140699000Y-95021400D02*
X89687400Y-95021400D01*
X116808999Y-105466247D02*
X116475666Y-104990056D01*
X116237571Y-105466247D02*
X116237571Y-104466247D01*
X116237571Y-104466247D02*
X116618523Y-104466247D01*
X116618523Y-104466247D02*
X116713761Y-104513866D01*
X116713761Y-104513866D02*
X116761380Y-104561485D01*
X116761380Y-104561485D02*
X116808999Y-104656723D01*
X116808999Y-104656723D02*
X116808999Y-104799580D01*
X116808999Y-104799580D02*
X116761380Y-104894818D01*
X116761380Y-104894818D02*
X116713761Y-104942437D01*
X116713761Y-104942437D02*
X116618523Y-104990056D01*
X116618523Y-104990056D02*
X116237571Y-104990056D01*
X117666142Y-105466247D02*
X117666142Y-104942437D01*
X117666142Y-104942437D02*
X117618523Y-104847199D01*
X117618523Y-104847199D02*
X117523285Y-104799580D01*
X117523285Y-104799580D02*
X117332809Y-104799580D01*
X117332809Y-104799580D02*
X117237571Y-104847199D01*
X117666142Y-105418628D02*
X117570904Y-105466247D01*
X117570904Y-105466247D02*
X117332809Y-105466247D01*
X117332809Y-105466247D02*
X117237571Y-105418628D01*
X117237571Y-105418628D02*
X117189952Y-105323389D01*
X117189952Y-105323389D02*
X117189952Y-105228151D01*
X117189952Y-105228151D02*
X117237571Y-105132913D01*
X117237571Y-105132913D02*
X117332809Y-105085294D01*
X117332809Y-105085294D02*
X117570904Y-105085294D01*
X117570904Y-105085294D02*
X117666142Y-105037675D01*
X118094714Y-105418628D02*
X118189952Y-105466247D01*
X118189952Y-105466247D02*
X118380428Y-105466247D01*
X118380428Y-105466247D02*
X118475666Y-105418628D01*
X118475666Y-105418628D02*
X118523285Y-105323389D01*
X118523285Y-105323389D02*
X118523285Y-105275770D01*
X118523285Y-105275770D02*
X118475666Y-105180532D01*
X118475666Y-105180532D02*
X118380428Y-105132913D01*
X118380428Y-105132913D02*
X118237571Y-105132913D01*
X118237571Y-105132913D02*
X118142333Y-105085294D01*
X118142333Y-105085294D02*
X118094714Y-104990056D01*
X118094714Y-104990056D02*
X118094714Y-104942437D01*
X118094714Y-104942437D02*
X118142333Y-104847199D01*
X118142333Y-104847199D02*
X118237571Y-104799580D01*
X118237571Y-104799580D02*
X118380428Y-104799580D01*
X118380428Y-104799580D02*
X118475666Y-104847199D01*
X118951857Y-104799580D02*
X118951857Y-105799580D01*
X118951857Y-104847199D02*
X119047095Y-104799580D01*
X119047095Y-104799580D02*
X119237571Y-104799580D01*
X119237571Y-104799580D02*
X119332809Y-104847199D01*
X119332809Y-104847199D02*
X119380428Y-104894818D01*
X119380428Y-104894818D02*
X119428047Y-104990056D01*
X119428047Y-104990056D02*
X119428047Y-105275770D01*
X119428047Y-105275770D02*
X119380428Y-105371008D01*
X119380428Y-105371008D02*
X119332809Y-105418628D01*
X119332809Y-105418628D02*
X119237571Y-105466247D01*
X119237571Y-105466247D02*
X119047095Y-105466247D01*
X119047095Y-105466247D02*
X118951857Y-105418628D01*
X119856619Y-105466247D02*
X119856619Y-104466247D01*
X119856619Y-104847199D02*
X119951857Y-104799580D01*
X119951857Y-104799580D02*
X120142333Y-104799580D01*
X120142333Y-104799580D02*
X120237571Y-104847199D01*
X120237571Y-104847199D02*
X120285190Y-104894818D01*
X120285190Y-104894818D02*
X120332809Y-104990056D01*
X120332809Y-104990056D02*
X120332809Y-105275770D01*
X120332809Y-105275770D02*
X120285190Y-105371008D01*
X120285190Y-105371008D02*
X120237571Y-105418628D01*
X120237571Y-105418628D02*
X120142333Y-105466247D01*
X120142333Y-105466247D02*
X119951857Y-105466247D01*
X119951857Y-105466247D02*
X119856619Y-105418628D01*
X121142333Y-105418628D02*
X121047095Y-105466247D01*
X121047095Y-105466247D02*
X120856619Y-105466247D01*
X120856619Y-105466247D02*
X120761381Y-105418628D01*
X120761381Y-105418628D02*
X120713762Y-105323389D01*
X120713762Y-105323389D02*
X120713762Y-104942437D01*
X120713762Y-104942437D02*
X120761381Y-104847199D01*
X120761381Y-104847199D02*
X120856619Y-104799580D01*
X120856619Y-104799580D02*
X121047095Y-104799580D01*
X121047095Y-104799580D02*
X121142333Y-104847199D01*
X121142333Y-104847199D02*
X121189952Y-104942437D01*
X121189952Y-104942437D02*
X121189952Y-105037675D01*
X121189952Y-105037675D02*
X120713762Y-105132913D01*
X121618524Y-105466247D02*
X121618524Y-104799580D01*
X121618524Y-104990056D02*
X121666143Y-104894818D01*
X121666143Y-104894818D02*
X121713762Y-104847199D01*
X121713762Y-104847199D02*
X121809000Y-104799580D01*
X121809000Y-104799580D02*
X121904238Y-104799580D01*
X122237572Y-105466247D02*
X122237572Y-104799580D01*
X122237572Y-104990056D02*
X122285191Y-104894818D01*
X122285191Y-104894818D02*
X122332810Y-104847199D01*
X122332810Y-104847199D02*
X122428048Y-104799580D01*
X122428048Y-104799580D02*
X122523286Y-104799580D01*
X122761382Y-104799580D02*
X122999477Y-105466247D01*
X123237572Y-104799580D02*
X122999477Y-105466247D01*
X122999477Y-105466247D02*
X122904239Y-105704342D01*
X122904239Y-105704342D02*
X122856620Y-105751961D01*
X122856620Y-105751961D02*
X122761382Y-105799580D01*
X124380430Y-105466247D02*
X124380430Y-104466247D01*
X124380430Y-104466247D02*
X124761382Y-104466247D01*
X124761382Y-104466247D02*
X124856620Y-104513866D01*
X124856620Y-104513866D02*
X124904239Y-104561485D01*
X124904239Y-104561485D02*
X124951858Y-104656723D01*
X124951858Y-104656723D02*
X124951858Y-104799580D01*
X124951858Y-104799580D02*
X124904239Y-104894818D01*
X124904239Y-104894818D02*
X124856620Y-104942437D01*
X124856620Y-104942437D02*
X124761382Y-104990056D01*
X124761382Y-104990056D02*
X124380430Y-104990056D01*
X125380430Y-105466247D02*
X125380430Y-104799580D01*
X125380430Y-104466247D02*
X125332811Y-104513866D01*
X125332811Y-104513866D02*
X125380430Y-104561485D01*
X125380430Y-104561485D02*
X125428049Y-104513866D01*
X125428049Y-104513866D02*
X125380430Y-104466247D01*
X125380430Y-104466247D02*
X125380430Y-104561485D01*
X126618525Y-105466247D02*
X126618525Y-104466247D01*
X126618525Y-104466247D02*
X126999477Y-104466247D01*
X126999477Y-104466247D02*
X127094715Y-104513866D01*
X127094715Y-104513866D02*
X127142334Y-104561485D01*
X127142334Y-104561485D02*
X127189953Y-104656723D01*
X127189953Y-104656723D02*
X127189953Y-104799580D01*
X127189953Y-104799580D02*
X127142334Y-104894818D01*
X127142334Y-104894818D02*
X127094715Y-104942437D01*
X127094715Y-104942437D02*
X126999477Y-104990056D01*
X126999477Y-104990056D02*
X126618525Y-104990056D01*
X127618525Y-105466247D02*
X127618525Y-104799580D01*
X127618525Y-104466247D02*
X127570906Y-104513866D01*
X127570906Y-104513866D02*
X127618525Y-104561485D01*
X127618525Y-104561485D02*
X127666144Y-104513866D01*
X127666144Y-104513866D02*
X127618525Y-104466247D01*
X127618525Y-104466247D02*
X127618525Y-104561485D01*
X128523286Y-105418628D02*
X128428048Y-105466247D01*
X128428048Y-105466247D02*
X128237572Y-105466247D01*
X128237572Y-105466247D02*
X128142334Y-105418628D01*
X128142334Y-105418628D02*
X128094715Y-105371008D01*
X128094715Y-105371008D02*
X128047096Y-105275770D01*
X128047096Y-105275770D02*
X128047096Y-104990056D01*
X128047096Y-104990056D02*
X128094715Y-104894818D01*
X128094715Y-104894818D02*
X128142334Y-104847199D01*
X128142334Y-104847199D02*
X128237572Y-104799580D01*
X128237572Y-104799580D02*
X128428048Y-104799580D01*
X128428048Y-104799580D02*
X128523286Y-104847199D01*
X129094715Y-105466247D02*
X128999477Y-105418628D01*
X128999477Y-105418628D02*
X128951858Y-105371008D01*
X128951858Y-105371008D02*
X128904239Y-105275770D01*
X128904239Y-105275770D02*
X128904239Y-104990056D01*
X128904239Y-104990056D02*
X128951858Y-104894818D01*
X128951858Y-104894818D02*
X128999477Y-104847199D01*
X128999477Y-104847199D02*
X129094715Y-104799580D01*
X129094715Y-104799580D02*
X129237572Y-104799580D01*
X129237572Y-104799580D02*
X129332810Y-104847199D01*
X129332810Y-104847199D02*
X129380429Y-104894818D01*
X129380429Y-104894818D02*
X129428048Y-104990056D01*
X129428048Y-104990056D02*
X129428048Y-105275770D01*
X129428048Y-105275770D02*
X129380429Y-105371008D01*
X129380429Y-105371008D02*
X129332810Y-105418628D01*
X129332810Y-105418628D02*
X129237572Y-105466247D01*
X129237572Y-105466247D02*
X129094715Y-105466247D01*
X121523285Y-107028572D02*
X121666142Y-107076191D01*
X121666142Y-107076191D02*
X121904237Y-107076191D01*
X121904237Y-107076191D02*
X121999475Y-107028572D01*
X121999475Y-107028572D02*
X122047094Y-106980952D01*
X122047094Y-106980952D02*
X122094713Y-106885714D01*
X122094713Y-106885714D02*
X122094713Y-106790476D01*
X122094713Y-106790476D02*
X122047094Y-106695238D01*
X122047094Y-106695238D02*
X121999475Y-106647619D01*
X121999475Y-106647619D02*
X121904237Y-106600000D01*
X121904237Y-106600000D02*
X121713761Y-106552381D01*
X121713761Y-106552381D02*
X121618523Y-106504762D01*
X121618523Y-106504762D02*
X121570904Y-106457143D01*
X121570904Y-106457143D02*
X121523285Y-106361905D01*
X121523285Y-106361905D02*
X121523285Y-106266667D01*
X121523285Y-106266667D02*
X121570904Y-106171429D01*
X121570904Y-106171429D02*
X121618523Y-106123810D01*
X121618523Y-106123810D02*
X121713761Y-106076191D01*
X121713761Y-106076191D02*
X121951856Y-106076191D01*
X121951856Y-106076191D02*
X122094713Y-106123810D01*
X122666142Y-107076191D02*
X122570904Y-107028572D01*
X122570904Y-107028572D02*
X122523285Y-106933333D01*
X122523285Y-106933333D02*
X122523285Y-106076191D01*
X123189952Y-107076191D02*
X123094714Y-107028572D01*
X123094714Y-107028572D02*
X123047095Y-106980952D01*
X123047095Y-106980952D02*
X122999476Y-106885714D01*
X122999476Y-106885714D02*
X122999476Y-106600000D01*
X122999476Y-106600000D02*
X123047095Y-106504762D01*
X123047095Y-106504762D02*
X123094714Y-106457143D01*
X123094714Y-106457143D02*
X123189952Y-106409524D01*
X123189952Y-106409524D02*
X123332809Y-106409524D01*
X123332809Y-106409524D02*
X123428047Y-106457143D01*
X123428047Y-106457143D02*
X123475666Y-106504762D01*
X123475666Y-106504762D02*
X123523285Y-106600000D01*
X123523285Y-106600000D02*
X123523285Y-106885714D01*
X123523285Y-106885714D02*
X123475666Y-106980952D01*
X123475666Y-106980952D02*
X123428047Y-107028572D01*
X123428047Y-107028572D02*
X123332809Y-107076191D01*
X123332809Y-107076191D02*
X123189952Y-107076191D01*
X123809000Y-106409524D02*
X124189952Y-106409524D01*
X123951857Y-106076191D02*
X123951857Y-106933333D01*
X123951857Y-106933333D02*
X123999476Y-107028572D01*
X123999476Y-107028572D02*
X124094714Y-107076191D01*
X124094714Y-107076191D02*
X124189952Y-107076191D01*
D12*
X144164619Y-97420326D02*
X143164619Y-97420326D01*
X143259857Y-96991755D02*
X143212238Y-96944136D01*
X143212238Y-96944136D02*
X143164619Y-96848898D01*
X143164619Y-96848898D02*
X143164619Y-96610803D01*
X143164619Y-96610803D02*
X143212238Y-96515565D01*
X143212238Y-96515565D02*
X143259857Y-96467946D01*
X143259857Y-96467946D02*
X143355095Y-96420327D01*
X143355095Y-96420327D02*
X143450333Y-96420327D01*
X143450333Y-96420327D02*
X143593190Y-96467946D01*
X143593190Y-96467946D02*
X144164619Y-97039374D01*
X144164619Y-97039374D02*
X144164619Y-96420327D01*
X144069380Y-95420327D02*
X144117000Y-95467946D01*
X144117000Y-95467946D02*
X144164619Y-95610803D01*
X144164619Y-95610803D02*
X144164619Y-95706041D01*
X144164619Y-95706041D02*
X144117000Y-95848898D01*
X144117000Y-95848898D02*
X144021761Y-95944136D01*
X144021761Y-95944136D02*
X143926523Y-95991755D01*
X143926523Y-95991755D02*
X143736047Y-96039374D01*
X143736047Y-96039374D02*
X143593190Y-96039374D01*
X143593190Y-96039374D02*
X143402714Y-95991755D01*
X143402714Y-95991755D02*
X143307476Y-95944136D01*
X143307476Y-95944136D02*
X143212238Y-95848898D01*
X143212238Y-95848898D02*
X143164619Y-95706041D01*
X143164619Y-95706041D02*
X143164619Y-95610803D01*
X143164619Y-95610803D02*
X143212238Y-95467946D01*
X143212238Y-95467946D02*
X143259857Y-95420327D01*
X143012219Y-115251126D02*
X143821742Y-115251126D01*
X143821742Y-115251126D02*
X143916980Y-115203507D01*
X143916980Y-115203507D02*
X143964600Y-115155888D01*
X143964600Y-115155888D02*
X144012219Y-115060650D01*
X144012219Y-115060650D02*
X144012219Y-114870174D01*
X144012219Y-114870174D02*
X143964600Y-114774936D01*
X143964600Y-114774936D02*
X143916980Y-114727317D01*
X143916980Y-114727317D02*
X143821742Y-114679698D01*
X143821742Y-114679698D02*
X143012219Y-114679698D01*
X143726504Y-114251126D02*
X143726504Y-113774936D01*
X144012219Y-114346364D02*
X143012219Y-114013031D01*
X143012219Y-114013031D02*
X144012219Y-113679698D01*
X144012219Y-112774936D02*
X143536028Y-113108269D01*
X144012219Y-113346364D02*
X143012219Y-113346364D01*
X143012219Y-113346364D02*
X143012219Y-112965412D01*
X143012219Y-112965412D02*
X143059838Y-112870174D01*
X143059838Y-112870174D02*
X143107457Y-112822555D01*
X143107457Y-112822555D02*
X143202695Y-112774936D01*
X143202695Y-112774936D02*
X143345552Y-112774936D01*
X143345552Y-112774936D02*
X143440790Y-112822555D01*
X143440790Y-112822555D02*
X143488409Y-112870174D01*
X143488409Y-112870174D02*
X143536028Y-112965412D01*
X143536028Y-112965412D02*
X143536028Y-113346364D01*
X143012219Y-112489221D02*
X143012219Y-111917793D01*
X144012219Y-112203507D02*
X143012219Y-112203507D01*
D10*
%TO.C,J1*%
X116547800Y-64344000D02*
X116547800Y-60624000D01*
X116547800Y-62534000D02*
X116147800Y-62534000D01*
X116547800Y-61534000D02*
X116147800Y-61534000D01*
X116547800Y-60624000D02*
X110327800Y-60624000D01*
X116147800Y-63944000D02*
X116147800Y-60924000D01*
X116147800Y-60924000D02*
X110727800Y-60924000D01*
X114287800Y-63544000D02*
X114287800Y-63944000D01*
X114187800Y-63944000D02*
X114187800Y-63544000D01*
X114087800Y-63944000D02*
X114087800Y-63544000D01*
X114087800Y-63544000D02*
X114287800Y-63544000D01*
X112787800Y-63544000D02*
X112787800Y-63944000D01*
X112687800Y-63944000D02*
X112687800Y-63544000D01*
X112587800Y-63944000D02*
X112587800Y-63544000D01*
X112587800Y-63544000D02*
X112787800Y-63544000D01*
X111637800Y-60624000D02*
X111637800Y-60424000D01*
X111637800Y-60524000D02*
X111337800Y-60524000D01*
X111637800Y-60424000D02*
X111337800Y-60424000D01*
X111337800Y-60424000D02*
X111337800Y-60624000D01*
X110927800Y-60424000D02*
X110127800Y-60424000D01*
X110727800Y-63944000D02*
X116147800Y-63944000D01*
X110727800Y-60924000D02*
X110727800Y-63944000D01*
X110327800Y-64344000D02*
X116547800Y-64344000D01*
X110327800Y-62534000D02*
X110727800Y-62534000D01*
X110327800Y-61534000D02*
X110727800Y-61534000D01*
X110327800Y-60624000D02*
X110327800Y-64344000D01*
X110127800Y-60424000D02*
X110127800Y-61224000D01*
%TO.C,AN14*%
X132747000Y-71714000D02*
X132747000Y-70914000D01*
X132547000Y-71514000D02*
X132547000Y-67794000D01*
X132547000Y-70604000D02*
X132147000Y-70604000D01*
X132547000Y-69604000D02*
X132147000Y-69604000D01*
X132547000Y-67794000D02*
X126327000Y-67794000D01*
X132147000Y-71214000D02*
X132147000Y-68194000D01*
X132147000Y-68194000D02*
X126727000Y-68194000D01*
X131947000Y-71714000D02*
X132747000Y-71714000D01*
X131537000Y-71714000D02*
X131537000Y-71514000D01*
X131237000Y-71714000D02*
X131537000Y-71714000D01*
X131237000Y-71614000D02*
X131537000Y-71614000D01*
X131237000Y-71514000D02*
X131237000Y-71714000D01*
X130287000Y-68594000D02*
X130087000Y-68594000D01*
X130287000Y-68194000D02*
X130287000Y-68594000D01*
X130187000Y-68194000D02*
X130187000Y-68594000D01*
X130087000Y-68594000D02*
X130087000Y-68194000D01*
X128787000Y-68594000D02*
X128587000Y-68594000D01*
X128787000Y-68194000D02*
X128787000Y-68594000D01*
X128687000Y-68194000D02*
X128687000Y-68594000D01*
X128587000Y-68594000D02*
X128587000Y-68194000D01*
X126727000Y-71214000D02*
X132147000Y-71214000D01*
X126727000Y-68194000D02*
X126727000Y-71214000D01*
X126327000Y-71514000D02*
X132547000Y-71514000D01*
X126327000Y-70604000D02*
X126727000Y-70604000D01*
X126327000Y-69604000D02*
X126727000Y-69604000D01*
X126327000Y-67794000D02*
X126327000Y-71514000D01*
%TO.C,AN10*%
X125254000Y-71714000D02*
X125254000Y-70914000D01*
X125054000Y-71514000D02*
X125054000Y-67794000D01*
X125054000Y-70604000D02*
X124654000Y-70604000D01*
X125054000Y-69604000D02*
X124654000Y-69604000D01*
X125054000Y-67794000D02*
X118834000Y-67794000D01*
X124654000Y-71214000D02*
X124654000Y-68194000D01*
X124654000Y-68194000D02*
X119234000Y-68194000D01*
X124454000Y-71714000D02*
X125254000Y-71714000D01*
X124044000Y-71714000D02*
X124044000Y-71514000D01*
X123744000Y-71714000D02*
X124044000Y-71714000D01*
X123744000Y-71614000D02*
X124044000Y-71614000D01*
X123744000Y-71514000D02*
X123744000Y-71714000D01*
X122794000Y-68594000D02*
X122594000Y-68594000D01*
X122794000Y-68194000D02*
X122794000Y-68594000D01*
X122694000Y-68194000D02*
X122694000Y-68594000D01*
X122594000Y-68594000D02*
X122594000Y-68194000D01*
X121294000Y-68594000D02*
X121094000Y-68594000D01*
X121294000Y-68194000D02*
X121294000Y-68594000D01*
X121194000Y-68194000D02*
X121194000Y-68594000D01*
X121094000Y-68594000D02*
X121094000Y-68194000D01*
X119234000Y-71214000D02*
X124654000Y-71214000D01*
X119234000Y-68194000D02*
X119234000Y-71214000D01*
X118834000Y-71514000D02*
X125054000Y-71514000D01*
X118834000Y-70604000D02*
X119234000Y-70604000D01*
X118834000Y-69604000D02*
X119234000Y-69604000D01*
X118834000Y-67794000D02*
X118834000Y-71514000D01*
%TO.C,AN8*%
X140240000Y-66634000D02*
X140240000Y-65834000D01*
X140040000Y-66434000D02*
X140040000Y-62714000D01*
X140040000Y-65524000D02*
X139640000Y-65524000D01*
X140040000Y-64524000D02*
X139640000Y-64524000D01*
X140040000Y-62714000D02*
X133820000Y-62714000D01*
X139640000Y-66134000D02*
X139640000Y-63114000D01*
X139640000Y-63114000D02*
X134220000Y-63114000D01*
X139440000Y-66634000D02*
X140240000Y-66634000D01*
X139030000Y-66634000D02*
X139030000Y-66434000D01*
X138730000Y-66634000D02*
X139030000Y-66634000D01*
X138730000Y-66534000D02*
X139030000Y-66534000D01*
X138730000Y-66434000D02*
X138730000Y-66634000D01*
X137780000Y-63514000D02*
X137580000Y-63514000D01*
X137780000Y-63114000D02*
X137780000Y-63514000D01*
X137680000Y-63114000D02*
X137680000Y-63514000D01*
X137580000Y-63514000D02*
X137580000Y-63114000D01*
X136280000Y-63514000D02*
X136080000Y-63514000D01*
X136280000Y-63114000D02*
X136280000Y-63514000D01*
X136180000Y-63114000D02*
X136180000Y-63514000D01*
X136080000Y-63514000D02*
X136080000Y-63114000D01*
X134220000Y-66134000D02*
X139640000Y-66134000D01*
X134220000Y-63114000D02*
X134220000Y-66134000D01*
X133820000Y-66434000D02*
X140040000Y-66434000D01*
X133820000Y-65524000D02*
X134220000Y-65524000D01*
X133820000Y-64524000D02*
X134220000Y-64524000D01*
X133820000Y-62714000D02*
X133820000Y-66434000D01*
%TO.C,AN9*%
X125254000Y-66634000D02*
X125254000Y-65834000D01*
X125054000Y-66434000D02*
X125054000Y-62714000D01*
X125054000Y-65524000D02*
X124654000Y-65524000D01*
X125054000Y-64524000D02*
X124654000Y-64524000D01*
X125054000Y-62714000D02*
X118834000Y-62714000D01*
X124654000Y-66134000D02*
X124654000Y-63114000D01*
X124654000Y-63114000D02*
X119234000Y-63114000D01*
X124454000Y-66634000D02*
X125254000Y-66634000D01*
X124044000Y-66634000D02*
X124044000Y-66434000D01*
X123744000Y-66634000D02*
X124044000Y-66634000D01*
X123744000Y-66534000D02*
X124044000Y-66534000D01*
X123744000Y-66434000D02*
X123744000Y-66634000D01*
X122794000Y-63514000D02*
X122594000Y-63514000D01*
X122794000Y-63114000D02*
X122794000Y-63514000D01*
X122694000Y-63114000D02*
X122694000Y-63514000D01*
X122594000Y-63514000D02*
X122594000Y-63114000D01*
X121294000Y-63514000D02*
X121094000Y-63514000D01*
X121294000Y-63114000D02*
X121294000Y-63514000D01*
X121194000Y-63114000D02*
X121194000Y-63514000D01*
X121094000Y-63514000D02*
X121094000Y-63114000D01*
X119234000Y-66134000D02*
X124654000Y-66134000D01*
X119234000Y-63114000D02*
X119234000Y-66134000D01*
X118834000Y-66434000D02*
X125054000Y-66434000D01*
X118834000Y-65524000D02*
X119234000Y-65524000D01*
X118834000Y-64524000D02*
X119234000Y-64524000D01*
X118834000Y-62714000D02*
X118834000Y-66434000D01*
%TO.C,AN5*%
X140240000Y-81747000D02*
X140240000Y-80947000D01*
X140040000Y-81547000D02*
X140040000Y-77827000D01*
X140040000Y-80637000D02*
X139640000Y-80637000D01*
X140040000Y-79637000D02*
X139640000Y-79637000D01*
X140040000Y-77827000D02*
X133820000Y-77827000D01*
X139640000Y-81247000D02*
X139640000Y-78227000D01*
X139640000Y-78227000D02*
X134220000Y-78227000D01*
X139440000Y-81747000D02*
X140240000Y-81747000D01*
X139030000Y-81747000D02*
X139030000Y-81547000D01*
X138730000Y-81747000D02*
X139030000Y-81747000D01*
X138730000Y-81647000D02*
X139030000Y-81647000D01*
X138730000Y-81547000D02*
X138730000Y-81747000D01*
X137780000Y-78627000D02*
X137580000Y-78627000D01*
X137780000Y-78227000D02*
X137780000Y-78627000D01*
X137680000Y-78227000D02*
X137680000Y-78627000D01*
X137580000Y-78627000D02*
X137580000Y-78227000D01*
X136280000Y-78627000D02*
X136080000Y-78627000D01*
X136280000Y-78227000D02*
X136280000Y-78627000D01*
X136180000Y-78227000D02*
X136180000Y-78627000D01*
X136080000Y-78627000D02*
X136080000Y-78227000D01*
X134220000Y-81247000D02*
X139640000Y-81247000D01*
X134220000Y-78227000D02*
X134220000Y-81247000D01*
X133820000Y-81547000D02*
X140040000Y-81547000D01*
X133820000Y-80637000D02*
X134220000Y-80637000D01*
X133820000Y-79637000D02*
X134220000Y-79637000D01*
X133820000Y-77827000D02*
X133820000Y-81547000D01*
%TO.C,AN1*%
X147836000Y-81747000D02*
X147836000Y-80947000D01*
X147636000Y-81547000D02*
X147636000Y-77827000D01*
X147636000Y-80637000D02*
X147236000Y-80637000D01*
X147636000Y-79637000D02*
X147236000Y-79637000D01*
X147636000Y-77827000D02*
X141416000Y-77827000D01*
X147236000Y-81247000D02*
X147236000Y-78227000D01*
X147236000Y-78227000D02*
X141816000Y-78227000D01*
X147036000Y-81747000D02*
X147836000Y-81747000D01*
X146626000Y-81747000D02*
X146626000Y-81547000D01*
X146326000Y-81747000D02*
X146626000Y-81747000D01*
X146326000Y-81647000D02*
X146626000Y-81647000D01*
X146326000Y-81547000D02*
X146326000Y-81747000D01*
X145376000Y-78627000D02*
X145176000Y-78627000D01*
X145376000Y-78227000D02*
X145376000Y-78627000D01*
X145276000Y-78227000D02*
X145276000Y-78627000D01*
X145176000Y-78627000D02*
X145176000Y-78227000D01*
X143876000Y-78627000D02*
X143676000Y-78627000D01*
X143876000Y-78227000D02*
X143876000Y-78627000D01*
X143776000Y-78227000D02*
X143776000Y-78627000D01*
X143676000Y-78627000D02*
X143676000Y-78227000D01*
X141816000Y-81247000D02*
X147236000Y-81247000D01*
X141816000Y-78227000D02*
X141816000Y-81247000D01*
X141416000Y-81547000D02*
X147636000Y-81547000D01*
X141416000Y-80637000D02*
X141816000Y-80637000D01*
X141416000Y-79637000D02*
X141816000Y-79637000D01*
X141416000Y-77827000D02*
X141416000Y-81547000D01*
%TO.C,AN13*%
X125254000Y-81747000D02*
X125254000Y-80947000D01*
X125054000Y-81547000D02*
X125054000Y-77827000D01*
X125054000Y-80637000D02*
X124654000Y-80637000D01*
X125054000Y-79637000D02*
X124654000Y-79637000D01*
X125054000Y-77827000D02*
X118834000Y-77827000D01*
X124654000Y-81247000D02*
X124654000Y-78227000D01*
X124654000Y-78227000D02*
X119234000Y-78227000D01*
X124454000Y-81747000D02*
X125254000Y-81747000D01*
X124044000Y-81747000D02*
X124044000Y-81547000D01*
X123744000Y-81747000D02*
X124044000Y-81747000D01*
X123744000Y-81647000D02*
X124044000Y-81647000D01*
X123744000Y-81547000D02*
X123744000Y-81747000D01*
X122794000Y-78627000D02*
X122594000Y-78627000D01*
X122794000Y-78227000D02*
X122794000Y-78627000D01*
X122694000Y-78227000D02*
X122694000Y-78627000D01*
X122594000Y-78627000D02*
X122594000Y-78227000D01*
X121294000Y-78627000D02*
X121094000Y-78627000D01*
X121294000Y-78227000D02*
X121294000Y-78627000D01*
X121194000Y-78227000D02*
X121194000Y-78627000D01*
X121094000Y-78627000D02*
X121094000Y-78227000D01*
X119234000Y-81247000D02*
X124654000Y-81247000D01*
X119234000Y-78227000D02*
X119234000Y-81247000D01*
X118834000Y-81547000D02*
X125054000Y-81547000D01*
X118834000Y-80637000D02*
X119234000Y-80637000D01*
X118834000Y-79637000D02*
X119234000Y-79637000D01*
X118834000Y-77827000D02*
X118834000Y-81547000D01*
%TO.C,AN11*%
X125254000Y-76794000D02*
X125254000Y-75994000D01*
X125054000Y-76594000D02*
X125054000Y-72874000D01*
X125054000Y-75684000D02*
X124654000Y-75684000D01*
X125054000Y-74684000D02*
X124654000Y-74684000D01*
X125054000Y-72874000D02*
X118834000Y-72874000D01*
X124654000Y-76294000D02*
X124654000Y-73274000D01*
X124654000Y-73274000D02*
X119234000Y-73274000D01*
X124454000Y-76794000D02*
X125254000Y-76794000D01*
X124044000Y-76794000D02*
X124044000Y-76594000D01*
X123744000Y-76794000D02*
X124044000Y-76794000D01*
X123744000Y-76694000D02*
X124044000Y-76694000D01*
X123744000Y-76594000D02*
X123744000Y-76794000D01*
X122794000Y-73674000D02*
X122594000Y-73674000D01*
X122794000Y-73274000D02*
X122794000Y-73674000D01*
X122694000Y-73274000D02*
X122694000Y-73674000D01*
X122594000Y-73674000D02*
X122594000Y-73274000D01*
X121294000Y-73674000D02*
X121094000Y-73674000D01*
X121294000Y-73274000D02*
X121294000Y-73674000D01*
X121194000Y-73274000D02*
X121194000Y-73674000D01*
X121094000Y-73674000D02*
X121094000Y-73274000D01*
X119234000Y-76294000D02*
X124654000Y-76294000D01*
X119234000Y-73274000D02*
X119234000Y-76294000D01*
X118834000Y-76594000D02*
X125054000Y-76594000D01*
X118834000Y-75684000D02*
X119234000Y-75684000D01*
X118834000Y-74684000D02*
X119234000Y-74684000D01*
X118834000Y-72874000D02*
X118834000Y-76594000D01*
%TO.C,AN3*%
X147836000Y-71714000D02*
X147836000Y-70914000D01*
X147636000Y-71514000D02*
X147636000Y-67794000D01*
X147636000Y-70604000D02*
X147236000Y-70604000D01*
X147636000Y-69604000D02*
X147236000Y-69604000D01*
X147636000Y-67794000D02*
X141416000Y-67794000D01*
X147236000Y-71214000D02*
X147236000Y-68194000D01*
X147236000Y-68194000D02*
X141816000Y-68194000D01*
X147036000Y-71714000D02*
X147836000Y-71714000D01*
X146626000Y-71714000D02*
X146626000Y-71514000D01*
X146326000Y-71714000D02*
X146626000Y-71714000D01*
X146326000Y-71614000D02*
X146626000Y-71614000D01*
X146326000Y-71514000D02*
X146326000Y-71714000D01*
X145376000Y-68594000D02*
X145176000Y-68594000D01*
X145376000Y-68194000D02*
X145376000Y-68594000D01*
X145276000Y-68194000D02*
X145276000Y-68594000D01*
X145176000Y-68594000D02*
X145176000Y-68194000D01*
X143876000Y-68594000D02*
X143676000Y-68594000D01*
X143876000Y-68194000D02*
X143876000Y-68594000D01*
X143776000Y-68194000D02*
X143776000Y-68594000D01*
X143676000Y-68594000D02*
X143676000Y-68194000D01*
X141816000Y-71214000D02*
X147236000Y-71214000D01*
X141816000Y-68194000D02*
X141816000Y-71214000D01*
X141416000Y-71514000D02*
X147636000Y-71514000D01*
X141416000Y-70604000D02*
X141816000Y-70604000D01*
X141416000Y-69604000D02*
X141816000Y-69604000D01*
X141416000Y-67794000D02*
X141416000Y-71514000D01*
%TO.C,AN12*%
X132747000Y-66634000D02*
X132747000Y-65834000D01*
X132547000Y-66434000D02*
X132547000Y-62714000D01*
X132547000Y-65524000D02*
X132147000Y-65524000D01*
X132547000Y-64524000D02*
X132147000Y-64524000D01*
X132547000Y-62714000D02*
X126327000Y-62714000D01*
X132147000Y-66134000D02*
X132147000Y-63114000D01*
X132147000Y-63114000D02*
X126727000Y-63114000D01*
X131947000Y-66634000D02*
X132747000Y-66634000D01*
X131537000Y-66634000D02*
X131537000Y-66434000D01*
X131237000Y-66634000D02*
X131537000Y-66634000D01*
X131237000Y-66534000D02*
X131537000Y-66534000D01*
X131237000Y-66434000D02*
X131237000Y-66634000D01*
X130287000Y-63514000D02*
X130087000Y-63514000D01*
X130287000Y-63114000D02*
X130287000Y-63514000D01*
X130187000Y-63114000D02*
X130187000Y-63514000D01*
X130087000Y-63514000D02*
X130087000Y-63114000D01*
X128787000Y-63514000D02*
X128587000Y-63514000D01*
X128787000Y-63114000D02*
X128787000Y-63514000D01*
X128687000Y-63114000D02*
X128687000Y-63514000D01*
X128587000Y-63514000D02*
X128587000Y-63114000D01*
X126727000Y-66134000D02*
X132147000Y-66134000D01*
X126727000Y-63114000D02*
X126727000Y-66134000D01*
X126327000Y-66434000D02*
X132547000Y-66434000D01*
X126327000Y-65524000D02*
X126727000Y-65524000D01*
X126327000Y-64524000D02*
X126727000Y-64524000D01*
X126327000Y-62714000D02*
X126327000Y-66434000D01*
%TO.C,AN2*%
X147836000Y-76794000D02*
X147836000Y-75994000D01*
X147636000Y-76594000D02*
X147636000Y-72874000D01*
X147636000Y-75684000D02*
X147236000Y-75684000D01*
X147636000Y-74684000D02*
X147236000Y-74684000D01*
X147636000Y-72874000D02*
X141416000Y-72874000D01*
X147236000Y-76294000D02*
X147236000Y-73274000D01*
X147236000Y-73274000D02*
X141816000Y-73274000D01*
X147036000Y-76794000D02*
X147836000Y-76794000D01*
X146626000Y-76794000D02*
X146626000Y-76594000D01*
X146326000Y-76794000D02*
X146626000Y-76794000D01*
X146326000Y-76694000D02*
X146626000Y-76694000D01*
X146326000Y-76594000D02*
X146326000Y-76794000D01*
X145376000Y-73674000D02*
X145176000Y-73674000D01*
X145376000Y-73274000D02*
X145376000Y-73674000D01*
X145276000Y-73274000D02*
X145276000Y-73674000D01*
X145176000Y-73674000D02*
X145176000Y-73274000D01*
X143876000Y-73674000D02*
X143676000Y-73674000D01*
X143876000Y-73274000D02*
X143876000Y-73674000D01*
X143776000Y-73274000D02*
X143776000Y-73674000D01*
X143676000Y-73674000D02*
X143676000Y-73274000D01*
X141816000Y-76294000D02*
X147236000Y-76294000D01*
X141816000Y-73274000D02*
X141816000Y-76294000D01*
X141416000Y-76594000D02*
X147636000Y-76594000D01*
X141416000Y-75684000D02*
X141816000Y-75684000D01*
X141416000Y-74684000D02*
X141816000Y-74684000D01*
X141416000Y-72874000D02*
X141416000Y-76594000D01*
%TO.C,AN7*%
X140240000Y-71714000D02*
X140240000Y-70914000D01*
X140040000Y-71514000D02*
X140040000Y-67794000D01*
X140040000Y-70604000D02*
X139640000Y-70604000D01*
X140040000Y-69604000D02*
X139640000Y-69604000D01*
X140040000Y-67794000D02*
X133820000Y-67794000D01*
X139640000Y-71214000D02*
X139640000Y-68194000D01*
X139640000Y-68194000D02*
X134220000Y-68194000D01*
X139440000Y-71714000D02*
X140240000Y-71714000D01*
X139030000Y-71714000D02*
X139030000Y-71514000D01*
X138730000Y-71714000D02*
X139030000Y-71714000D01*
X138730000Y-71614000D02*
X139030000Y-71614000D01*
X138730000Y-71514000D02*
X138730000Y-71714000D01*
X137780000Y-68594000D02*
X137580000Y-68594000D01*
X137780000Y-68194000D02*
X137780000Y-68594000D01*
X137680000Y-68194000D02*
X137680000Y-68594000D01*
X137580000Y-68594000D02*
X137580000Y-68194000D01*
X136280000Y-68594000D02*
X136080000Y-68594000D01*
X136280000Y-68194000D02*
X136280000Y-68594000D01*
X136180000Y-68194000D02*
X136180000Y-68594000D01*
X136080000Y-68594000D02*
X136080000Y-68194000D01*
X134220000Y-71214000D02*
X139640000Y-71214000D01*
X134220000Y-68194000D02*
X134220000Y-71214000D01*
X133820000Y-71514000D02*
X140040000Y-71514000D01*
X133820000Y-70604000D02*
X134220000Y-70604000D01*
X133820000Y-69604000D02*
X134220000Y-69604000D01*
X133820000Y-67794000D02*
X133820000Y-71514000D01*
%TO.C,AN16*%
X132747000Y-81747000D02*
X132747000Y-80947000D01*
X132547000Y-81547000D02*
X132547000Y-77827000D01*
X132547000Y-80637000D02*
X132147000Y-80637000D01*
X132547000Y-79637000D02*
X132147000Y-79637000D01*
X132547000Y-77827000D02*
X126327000Y-77827000D01*
X132147000Y-81247000D02*
X132147000Y-78227000D01*
X132147000Y-78227000D02*
X126727000Y-78227000D01*
X131947000Y-81747000D02*
X132747000Y-81747000D01*
X131537000Y-81747000D02*
X131537000Y-81547000D01*
X131237000Y-81747000D02*
X131537000Y-81747000D01*
X131237000Y-81647000D02*
X131537000Y-81647000D01*
X131237000Y-81547000D02*
X131237000Y-81747000D01*
X130287000Y-78627000D02*
X130087000Y-78627000D01*
X130287000Y-78227000D02*
X130287000Y-78627000D01*
X130187000Y-78227000D02*
X130187000Y-78627000D01*
X130087000Y-78627000D02*
X130087000Y-78227000D01*
X128787000Y-78627000D02*
X128587000Y-78627000D01*
X128787000Y-78227000D02*
X128787000Y-78627000D01*
X128687000Y-78227000D02*
X128687000Y-78627000D01*
X128587000Y-78627000D02*
X128587000Y-78227000D01*
X126727000Y-81247000D02*
X132147000Y-81247000D01*
X126727000Y-78227000D02*
X126727000Y-81247000D01*
X126327000Y-81547000D02*
X132547000Y-81547000D01*
X126327000Y-80637000D02*
X126727000Y-80637000D01*
X126327000Y-79637000D02*
X126727000Y-79637000D01*
X126327000Y-77827000D02*
X126327000Y-81547000D01*
%TO.C,AN4*%
X147836000Y-66634000D02*
X147836000Y-65834000D01*
X147636000Y-66434000D02*
X147636000Y-62714000D01*
X147636000Y-65524000D02*
X147236000Y-65524000D01*
X147636000Y-64524000D02*
X147236000Y-64524000D01*
X147636000Y-62714000D02*
X141416000Y-62714000D01*
X147236000Y-66134000D02*
X147236000Y-63114000D01*
X147236000Y-63114000D02*
X141816000Y-63114000D01*
X147036000Y-66634000D02*
X147836000Y-66634000D01*
X146626000Y-66634000D02*
X146626000Y-66434000D01*
X146326000Y-66634000D02*
X146626000Y-66634000D01*
X146326000Y-66534000D02*
X146626000Y-66534000D01*
X146326000Y-66434000D02*
X146326000Y-66634000D01*
X145376000Y-63514000D02*
X145176000Y-63514000D01*
X145376000Y-63114000D02*
X145376000Y-63514000D01*
X145276000Y-63114000D02*
X145276000Y-63514000D01*
X145176000Y-63514000D02*
X145176000Y-63114000D01*
X143876000Y-63514000D02*
X143676000Y-63514000D01*
X143876000Y-63114000D02*
X143876000Y-63514000D01*
X143776000Y-63114000D02*
X143776000Y-63514000D01*
X143676000Y-63514000D02*
X143676000Y-63114000D01*
X141816000Y-66134000D02*
X147236000Y-66134000D01*
X141816000Y-63114000D02*
X141816000Y-66134000D01*
X141416000Y-66434000D02*
X147636000Y-66434000D01*
X141416000Y-65524000D02*
X141816000Y-65524000D01*
X141416000Y-64524000D02*
X141816000Y-64524000D01*
X141416000Y-62714000D02*
X141416000Y-66434000D01*
%TO.C,AN15*%
X132747000Y-76794000D02*
X132747000Y-75994000D01*
X132547000Y-76594000D02*
X132547000Y-72874000D01*
X132547000Y-75684000D02*
X132147000Y-75684000D01*
X132547000Y-74684000D02*
X132147000Y-74684000D01*
X132547000Y-72874000D02*
X126327000Y-72874000D01*
X132147000Y-76294000D02*
X132147000Y-73274000D01*
X132147000Y-73274000D02*
X126727000Y-73274000D01*
X131947000Y-76794000D02*
X132747000Y-76794000D01*
X131537000Y-76794000D02*
X131537000Y-76594000D01*
X131237000Y-76794000D02*
X131537000Y-76794000D01*
X131237000Y-76694000D02*
X131537000Y-76694000D01*
X131237000Y-76594000D02*
X131237000Y-76794000D01*
X130287000Y-73674000D02*
X130087000Y-73674000D01*
X130287000Y-73274000D02*
X130287000Y-73674000D01*
X130187000Y-73274000D02*
X130187000Y-73674000D01*
X130087000Y-73674000D02*
X130087000Y-73274000D01*
X128787000Y-73674000D02*
X128587000Y-73674000D01*
X128787000Y-73274000D02*
X128787000Y-73674000D01*
X128687000Y-73274000D02*
X128687000Y-73674000D01*
X128587000Y-73674000D02*
X128587000Y-73274000D01*
X126727000Y-76294000D02*
X132147000Y-76294000D01*
X126727000Y-73274000D02*
X126727000Y-76294000D01*
X126327000Y-76594000D02*
X132547000Y-76594000D01*
X126327000Y-75684000D02*
X126727000Y-75684000D01*
X126327000Y-74684000D02*
X126727000Y-74684000D01*
X126327000Y-72874000D02*
X126327000Y-76594000D01*
%TO.C,AN6*%
X140240000Y-76794000D02*
X140240000Y-75994000D01*
X140040000Y-76594000D02*
X140040000Y-72874000D01*
X140040000Y-75684000D02*
X139640000Y-75684000D01*
X140040000Y-74684000D02*
X139640000Y-74684000D01*
X140040000Y-72874000D02*
X133820000Y-72874000D01*
X139640000Y-76294000D02*
X139640000Y-73274000D01*
X139640000Y-73274000D02*
X134220000Y-73274000D01*
X139440000Y-76794000D02*
X140240000Y-76794000D01*
X139030000Y-76794000D02*
X139030000Y-76594000D01*
X138730000Y-76794000D02*
X139030000Y-76794000D01*
X138730000Y-76694000D02*
X139030000Y-76694000D01*
X138730000Y-76594000D02*
X138730000Y-76794000D01*
X137780000Y-73674000D02*
X137580000Y-73674000D01*
X137780000Y-73274000D02*
X137780000Y-73674000D01*
X137680000Y-73274000D02*
X137680000Y-73674000D01*
X137580000Y-73674000D02*
X137580000Y-73274000D01*
X136280000Y-73674000D02*
X136080000Y-73674000D01*
X136280000Y-73274000D02*
X136280000Y-73674000D01*
X136180000Y-73274000D02*
X136180000Y-73674000D01*
X136080000Y-73674000D02*
X136080000Y-73274000D01*
X134220000Y-76294000D02*
X139640000Y-76294000D01*
X134220000Y-73274000D02*
X134220000Y-76294000D01*
X133820000Y-76594000D02*
X140040000Y-76594000D01*
X133820000Y-75684000D02*
X134220000Y-75684000D01*
X133820000Y-74684000D02*
X134220000Y-74684000D01*
X133820000Y-72874000D02*
X133820000Y-76594000D01*
%TO.C,J31*%
X148745000Y-108081000D02*
X147945000Y-108081000D01*
X148545000Y-108281000D02*
X144825000Y-108281000D01*
X147635000Y-108281000D02*
X147635000Y-108681000D01*
X146635000Y-108281000D02*
X146635000Y-108681000D01*
X144825000Y-108281000D02*
X144825000Y-116001000D01*
X148245000Y-108681000D02*
X145225000Y-108681000D01*
X145225000Y-108681000D02*
X145225000Y-115601000D01*
X148745000Y-108881000D02*
X148745000Y-108081000D01*
X148745000Y-109291000D02*
X148545000Y-109291000D01*
X148745000Y-109591000D02*
X148745000Y-109291000D01*
X148645000Y-109591000D02*
X148645000Y-109291000D01*
X148545000Y-109591000D02*
X148745000Y-109591000D01*
X145625000Y-110541000D02*
X145625000Y-110741000D01*
X145225000Y-110541000D02*
X145625000Y-110541000D01*
X145225000Y-110641000D02*
X145625000Y-110641000D01*
X145625000Y-110741000D02*
X145225000Y-110741000D01*
X145625000Y-112041000D02*
X145625000Y-112241000D01*
X145225000Y-112041000D02*
X145625000Y-112041000D01*
X145225000Y-112141000D02*
X145625000Y-112141000D01*
X145625000Y-112241000D02*
X145225000Y-112241000D01*
X145625000Y-113541000D02*
X145625000Y-113741000D01*
X145225000Y-113541000D02*
X145625000Y-113541000D01*
X145225000Y-113641000D02*
X145625000Y-113641000D01*
X145625000Y-113741000D02*
X145225000Y-113741000D01*
X148245000Y-115601000D02*
X148245000Y-108681000D01*
X145225000Y-115601000D02*
X148245000Y-115601000D01*
X148545000Y-116001000D02*
X148545000Y-108281000D01*
X147635000Y-116001000D02*
X147635000Y-115601000D01*
X146635000Y-116001000D02*
X146635000Y-115601000D01*
X144825000Y-116001000D02*
X148545000Y-116001000D01*
%TO.C,J30*%
X148745000Y-95000000D02*
X147945000Y-95000000D01*
X148545000Y-95200000D02*
X144825000Y-95200000D01*
X147635000Y-95200000D02*
X147635000Y-95600000D01*
X146635000Y-95200000D02*
X146635000Y-95600000D01*
X144825000Y-95200000D02*
X144825000Y-102920000D01*
X148245000Y-95600000D02*
X145225000Y-95600000D01*
X145225000Y-95600000D02*
X145225000Y-102520000D01*
X148745000Y-95800000D02*
X148745000Y-95000000D01*
X148745000Y-96210000D02*
X148545000Y-96210000D01*
X148745000Y-96510000D02*
X148745000Y-96210000D01*
X148645000Y-96510000D02*
X148645000Y-96210000D01*
X148545000Y-96510000D02*
X148745000Y-96510000D01*
X145625000Y-97460000D02*
X145625000Y-97660000D01*
X145225000Y-97460000D02*
X145625000Y-97460000D01*
X145225000Y-97560000D02*
X145625000Y-97560000D01*
X145625000Y-97660000D02*
X145225000Y-97660000D01*
X145625000Y-98960000D02*
X145625000Y-99160000D01*
X145225000Y-98960000D02*
X145625000Y-98960000D01*
X145225000Y-99060000D02*
X145625000Y-99060000D01*
X145625000Y-99160000D02*
X145225000Y-99160000D01*
X145625000Y-100460000D02*
X145625000Y-100660000D01*
X145225000Y-100460000D02*
X145625000Y-100460000D01*
X145225000Y-100560000D02*
X145625000Y-100560000D01*
X145625000Y-100660000D02*
X145225000Y-100660000D01*
X148245000Y-102520000D02*
X148245000Y-95600000D01*
X145225000Y-102520000D02*
X148245000Y-102520000D01*
X148545000Y-102920000D02*
X148545000Y-95200000D01*
X147635000Y-102920000D02*
X147635000Y-102520000D01*
X146635000Y-102920000D02*
X146635000Y-102520000D01*
X144825000Y-102920000D02*
X148545000Y-102920000D01*
%TO.C,U6*%
X154128000Y-101283000D02*
X154128000Y-101573000D01*
X154128000Y-116903000D02*
X154128000Y-116613000D01*
X157988000Y-101283000D02*
X154128000Y-101283000D01*
X157988000Y-101283000D02*
X161848000Y-101283000D01*
X157988000Y-116903000D02*
X154128000Y-116903000D01*
X157988000Y-116903000D02*
X161848000Y-116903000D01*
X161848000Y-101283000D02*
X161848000Y-101573000D01*
X161848000Y-116903000D02*
X161848000Y-116613000D01*
X153288000Y-101573000D02*
X152948000Y-101103000D01*
X153628000Y-101103000D01*
X153288000Y-101573000D01*
G36*
X153288000Y-101573000D02*
G01*
X152948000Y-101103000D01*
X153628000Y-101103000D01*
X153288000Y-101573000D01*
G37*
D13*
%TO.C,Q1*%
X110163400Y-66539200D02*
X110163400Y-72759200D01*
X116963400Y-66539200D02*
X116963400Y-72759200D01*
X116963400Y-72759200D02*
X110163400Y-72759200D01*
D12*
X112403400Y-76175200D02*
G75*
G02*
X112203400Y-76175200I-100000J0D01*
G01*
X112203400Y-76175200D02*
G75*
G02*
X112403400Y-76175200I100000J0D01*
G01*
D10*
%TO.C,JSPI7*%
X162532000Y-65179000D02*
X162532000Y-64379000D01*
X162332000Y-64979000D02*
X162332000Y-61259000D01*
X162332000Y-64069000D02*
X161932000Y-64069000D01*
X162332000Y-63069000D02*
X161932000Y-63069000D01*
X162332000Y-61259000D02*
X151612000Y-61259000D01*
X161932000Y-64679000D02*
X161932000Y-61659000D01*
X161932000Y-61659000D02*
X152012000Y-61659000D01*
X161732000Y-65179000D02*
X162532000Y-65179000D01*
X161322000Y-65179000D02*
X161322000Y-64979000D01*
X161022000Y-65179000D02*
X161322000Y-65179000D01*
X161022000Y-65079000D02*
X161322000Y-65079000D01*
X161022000Y-64979000D02*
X161022000Y-65179000D01*
X160072000Y-62059000D02*
X159872000Y-62059000D01*
X160072000Y-61659000D02*
X160072000Y-62059000D01*
X159972000Y-61659000D02*
X159972000Y-62059000D01*
X159872000Y-62059000D02*
X159872000Y-61659000D01*
X158572000Y-62059000D02*
X158372000Y-62059000D01*
X158572000Y-61659000D02*
X158572000Y-62059000D01*
X158472000Y-61659000D02*
X158472000Y-62059000D01*
X158372000Y-62059000D02*
X158372000Y-61659000D01*
X157072000Y-62059000D02*
X156872000Y-62059000D01*
X157072000Y-61659000D02*
X157072000Y-62059000D01*
X156972000Y-61659000D02*
X156972000Y-62059000D01*
X156872000Y-62059000D02*
X156872000Y-61659000D01*
X155572000Y-62059000D02*
X155372000Y-62059000D01*
X155572000Y-61659000D02*
X155572000Y-62059000D01*
X155472000Y-61659000D02*
X155472000Y-62059000D01*
X155372000Y-62059000D02*
X155372000Y-61659000D01*
X154072000Y-62059000D02*
X153872000Y-62059000D01*
X154072000Y-61659000D02*
X154072000Y-62059000D01*
X153972000Y-61659000D02*
X153972000Y-62059000D01*
X153872000Y-62059000D02*
X153872000Y-61659000D01*
X152012000Y-64679000D02*
X161932000Y-64679000D01*
X152012000Y-61659000D02*
X152012000Y-64679000D01*
X151612000Y-64979000D02*
X162332000Y-64979000D01*
X151612000Y-64069000D02*
X152012000Y-64069000D01*
X151612000Y-63069000D02*
X152012000Y-63069000D01*
X151612000Y-61259000D02*
X151612000Y-64979000D01*
%TO.C,JSPI4*%
X154079000Y-65941000D02*
X153279000Y-65941000D01*
X153879000Y-66141000D02*
X150159000Y-66141000D01*
X152969000Y-66141000D02*
X152969000Y-66541000D01*
X151969000Y-66141000D02*
X151969000Y-66541000D01*
X150159000Y-66141000D02*
X150159000Y-76861000D01*
X153579000Y-66541000D02*
X150559000Y-66541000D01*
X150559000Y-66541000D02*
X150559000Y-76461000D01*
X154079000Y-66741000D02*
X154079000Y-65941000D01*
X154079000Y-67151000D02*
X153879000Y-67151000D01*
X154079000Y-67451000D02*
X154079000Y-67151000D01*
X153979000Y-67451000D02*
X153979000Y-67151000D01*
X153879000Y-67451000D02*
X154079000Y-67451000D01*
X150959000Y-68401000D02*
X150959000Y-68601000D01*
X150559000Y-68401000D02*
X150959000Y-68401000D01*
X150559000Y-68501000D02*
X150959000Y-68501000D01*
X150959000Y-68601000D02*
X150559000Y-68601000D01*
X150959000Y-69901000D02*
X150959000Y-70101000D01*
X150559000Y-69901000D02*
X150959000Y-69901000D01*
X150559000Y-70001000D02*
X150959000Y-70001000D01*
X150959000Y-70101000D02*
X150559000Y-70101000D01*
X150959000Y-71401000D02*
X150959000Y-71601000D01*
X150559000Y-71401000D02*
X150959000Y-71401000D01*
X150559000Y-71501000D02*
X150959000Y-71501000D01*
X150959000Y-71601000D02*
X150559000Y-71601000D01*
X150959000Y-72901000D02*
X150959000Y-73101000D01*
X150559000Y-72901000D02*
X150959000Y-72901000D01*
X150559000Y-73001000D02*
X150959000Y-73001000D01*
X150959000Y-73101000D02*
X150559000Y-73101000D01*
X150959000Y-74401000D02*
X150959000Y-74601000D01*
X150559000Y-74401000D02*
X150959000Y-74401000D01*
X150559000Y-74501000D02*
X150959000Y-74501000D01*
X150959000Y-74601000D02*
X150559000Y-74601000D01*
X153579000Y-76461000D02*
X153579000Y-66541000D01*
X150559000Y-76461000D02*
X153579000Y-76461000D01*
X153879000Y-76861000D02*
X153879000Y-66141000D01*
X152969000Y-76861000D02*
X152969000Y-76461000D01*
X151969000Y-76861000D02*
X151969000Y-76461000D01*
X150159000Y-76861000D02*
X153879000Y-76861000D01*
%TO.C,R9*%
X92607224Y-120664500D02*
X92097776Y-120664500D01*
X92607224Y-119619500D02*
X92097776Y-119619500D01*
%TO.C,C2*%
X104549244Y-82194348D02*
X104549244Y-83616852D01*
X102729244Y-82194348D02*
X102729244Y-83616852D01*
%TO.C,D42*%
X148755000Y-133946000D02*
X148755000Y-132246000D01*
X148755000Y-133946000D02*
X146095000Y-133946000D01*
X148755000Y-132246000D02*
X146095000Y-132246000D01*
%TO.C,U8*%
X100807200Y-105548200D02*
X100807200Y-107498200D01*
X100807200Y-105548200D02*
X100807200Y-103598200D01*
X110927200Y-105548200D02*
X110927200Y-107498200D01*
X110927200Y-105548200D02*
X110927200Y-103598200D01*
X100862200Y-108248200D02*
X100532200Y-108488200D01*
X100532200Y-108008200D01*
X100862200Y-108248200D01*
G36*
X100862200Y-108248200D02*
G01*
X100532200Y-108488200D01*
X100532200Y-108008200D01*
X100862200Y-108248200D01*
G37*
%TO.C,D23*%
X128948000Y-131390210D02*
X128948000Y-129690210D01*
X128948000Y-131390210D02*
X126288000Y-131390210D01*
X128948000Y-129690210D02*
X126288000Y-129690210D01*
%TO.C,F1*%
X108725800Y-64560036D02*
X108725800Y-65764164D01*
X106005800Y-64560036D02*
X106005800Y-65764164D01*
%TO.C,R10*%
X112419224Y-120664500D02*
X111909776Y-120664500D01*
X112419224Y-119619500D02*
X111909776Y-119619500D01*
%TO.C,JR1*%
X95310000Y-142046000D02*
X93980000Y-142046000D01*
X95310000Y-140716000D02*
X95310000Y-142046000D01*
X95310000Y-139446000D02*
X95310000Y-121606000D01*
X95310000Y-139446000D02*
X92710000Y-139446000D01*
X95310000Y-121606000D02*
X90110000Y-121606000D01*
X92710000Y-142046000D02*
X90110000Y-142046000D01*
X92710000Y-139446000D02*
X92710000Y-142046000D01*
X90110000Y-142046000D02*
X90110000Y-121606000D01*
%TO.C,D58*%
X99225000Y-141566000D02*
X99225000Y-139866000D01*
X99225000Y-141566000D02*
X96565000Y-141566000D01*
X99225000Y-139866000D02*
X96565000Y-139866000D01*
%TO.C,D31*%
X128948000Y-139010210D02*
X128948000Y-137310210D01*
X128948000Y-139010210D02*
X126288000Y-139010210D01*
X128948000Y-137310210D02*
X126288000Y-137310210D01*
%TO.C,D59*%
X109136000Y-141566000D02*
X109136000Y-139866000D01*
X109136000Y-141566000D02*
X106476000Y-141566000D01*
X109136000Y-139866000D02*
X106476000Y-139866000D01*
%TO.C,R12*%
X122325224Y-120648710D02*
X121815776Y-120648710D01*
X122325224Y-119603710D02*
X121815776Y-119603710D01*
%TO.C,R4*%
X107202500Y-86173276D02*
X107202500Y-86682724D01*
X106157500Y-86173276D02*
X106157500Y-86682724D01*
%TO.C,JR6*%
X144840000Y-142046000D02*
X143510000Y-142046000D01*
X144840000Y-140716000D02*
X144840000Y-142046000D01*
X144840000Y-139446000D02*
X144840000Y-121606000D01*
X144840000Y-139446000D02*
X142240000Y-139446000D01*
X144840000Y-121606000D02*
X139640000Y-121606000D01*
X142240000Y-142046000D02*
X139640000Y-142046000D01*
X142240000Y-139446000D02*
X142240000Y-142046000D01*
X139640000Y-142046000D02*
X139640000Y-121606000D01*
%TO.C,JR3*%
X115122000Y-142046000D02*
X113792000Y-142046000D01*
X115122000Y-140716000D02*
X115122000Y-142046000D01*
X115122000Y-139446000D02*
X115122000Y-121606000D01*
X115122000Y-139446000D02*
X112522000Y-139446000D01*
X115122000Y-121606000D02*
X109922000Y-121606000D01*
X112522000Y-142046000D02*
X109922000Y-142046000D01*
X112522000Y-139446000D02*
X112522000Y-142046000D01*
X109922000Y-142046000D02*
X109922000Y-121606000D01*
%TO.C,R25*%
X165343100Y-75337576D02*
X165343100Y-75847024D01*
X164298100Y-75337576D02*
X164298100Y-75847024D01*
%TO.C,R5*%
X109371224Y-91835500D02*
X108861776Y-91835500D01*
X109371224Y-90790500D02*
X108861776Y-90790500D01*
%TO.C,D10*%
X109136000Y-133946000D02*
X109136000Y-132246000D01*
X109136000Y-133946000D02*
X106476000Y-133946000D01*
X109136000Y-132246000D02*
X106476000Y-132246000D01*
%TO.C,D35*%
X119037000Y-123786000D02*
X119037000Y-122086000D01*
X119037000Y-123786000D02*
X116377000Y-123786000D01*
X119037000Y-122086000D02*
X116377000Y-122086000D01*
%TO.C,D3*%
X99225000Y-123786000D02*
X99225000Y-122086000D01*
X99225000Y-123786000D02*
X96565000Y-123786000D01*
X99225000Y-122086000D02*
X96565000Y-122086000D01*
%TO.C,D52*%
X168478000Y-126326000D02*
X168478000Y-124626000D01*
X168478000Y-126326000D02*
X165818000Y-126326000D01*
X168478000Y-124626000D02*
X165818000Y-124626000D01*
%TO.C,R29*%
X147686500Y-87581824D02*
X147686500Y-87072376D01*
X148731500Y-87581824D02*
X148731500Y-87072376D01*
%TO.C,R2*%
X92177324Y-75935100D02*
X91667876Y-75935100D01*
X92177324Y-74890100D02*
X91667876Y-74890100D01*
%TO.C,D13*%
X109136000Y-139026000D02*
X109136000Y-137326000D01*
X109136000Y-139026000D02*
X106476000Y-139026000D01*
X109136000Y-137326000D02*
X106476000Y-137326000D01*
%TO.C,D41*%
X148755000Y-136486000D02*
X148755000Y-134786000D01*
X148755000Y-136486000D02*
X146095000Y-136486000D01*
X148755000Y-134786000D02*
X146095000Y-134786000D01*
%TO.C,C4*%
X98175400Y-78486052D02*
X98175400Y-77063548D01*
X99995400Y-78486052D02*
X99995400Y-77063548D01*
%TO.C,D67*%
X100383000Y-75454000D02*
X100383000Y-77454000D01*
X100383000Y-75454000D02*
X104393000Y-75454000D01*
X100383000Y-77454000D02*
X104393000Y-77454000D01*
%TO.C,D22*%
X138844000Y-131406000D02*
X138844000Y-129706000D01*
X138844000Y-131406000D02*
X136184000Y-131406000D01*
X138844000Y-129706000D02*
X136184000Y-129706000D01*
%TO.C,JSPI2*%
X158905000Y-77752000D02*
X158105000Y-77752000D01*
X158705000Y-77952000D02*
X154985000Y-77952000D01*
X157795000Y-77952000D02*
X157795000Y-78352000D01*
X156795000Y-77952000D02*
X156795000Y-78352000D01*
X154985000Y-77952000D02*
X154985000Y-88672000D01*
X158405000Y-78352000D02*
X155385000Y-78352000D01*
X155385000Y-78352000D02*
X155385000Y-88272000D01*
X158905000Y-78552000D02*
X158905000Y-77752000D01*
X158905000Y-78962000D02*
X158705000Y-78962000D01*
X158905000Y-79262000D02*
X158905000Y-78962000D01*
X158805000Y-79262000D02*
X158805000Y-78962000D01*
X158705000Y-79262000D02*
X158905000Y-79262000D01*
X155785000Y-80212000D02*
X155785000Y-80412000D01*
X155385000Y-80212000D02*
X155785000Y-80212000D01*
X155385000Y-80312000D02*
X155785000Y-80312000D01*
X155785000Y-80412000D02*
X155385000Y-80412000D01*
X155785000Y-81712000D02*
X155785000Y-81912000D01*
X155385000Y-81712000D02*
X155785000Y-81712000D01*
X155385000Y-81812000D02*
X155785000Y-81812000D01*
X155785000Y-81912000D02*
X155385000Y-81912000D01*
X155785000Y-83212000D02*
X155785000Y-83412000D01*
X155385000Y-83212000D02*
X155785000Y-83212000D01*
X155385000Y-83312000D02*
X155785000Y-83312000D01*
X155785000Y-83412000D02*
X155385000Y-83412000D01*
X155785000Y-84712000D02*
X155785000Y-84912000D01*
X155385000Y-84712000D02*
X155785000Y-84712000D01*
X155385000Y-84812000D02*
X155785000Y-84812000D01*
X155785000Y-84912000D02*
X155385000Y-84912000D01*
X155785000Y-86212000D02*
X155785000Y-86412000D01*
X155385000Y-86212000D02*
X155785000Y-86212000D01*
X155385000Y-86312000D02*
X155785000Y-86312000D01*
X155785000Y-86412000D02*
X155385000Y-86412000D01*
X158405000Y-88272000D02*
X158405000Y-78352000D01*
X155385000Y-88272000D02*
X158405000Y-88272000D01*
X158705000Y-88672000D02*
X158705000Y-77952000D01*
X157795000Y-88672000D02*
X157795000Y-88272000D01*
X156795000Y-88672000D02*
X156795000Y-88272000D01*
X154985000Y-88672000D02*
X158705000Y-88672000D01*
%TO.C,L1*%
X99193400Y-80593400D02*
X99193400Y-87813400D01*
X97793400Y-80593400D02*
X99193400Y-80593400D01*
X92373400Y-80593400D02*
X93773400Y-80593400D01*
X99193400Y-87813400D02*
X97793400Y-87813400D01*
X93773400Y-87813400D02*
X92373400Y-87813400D01*
X92373400Y-87813400D02*
X92373400Y-80593400D01*
%TO.C,R26*%
X163282100Y-63399124D02*
X163282100Y-62889676D01*
X164327100Y-63399124D02*
X164327100Y-62889676D01*
%TO.C,R19*%
X164733500Y-98856076D02*
X164733500Y-99365524D01*
X163688500Y-98856076D02*
X163688500Y-99365524D01*
%TO.C,D32*%
X119042000Y-133946000D02*
X119042000Y-132246000D01*
X119042000Y-133946000D02*
X116382000Y-133946000D01*
X119042000Y-132246000D02*
X116382000Y-132246000D01*
%TO.C,D26*%
X119042000Y-128866000D02*
X119042000Y-127166000D01*
X119042000Y-128866000D02*
X116382000Y-128866000D01*
X119042000Y-127166000D02*
X116382000Y-127166000D01*
%TO.C,R20*%
X154355076Y-89799900D02*
X154864524Y-89799900D01*
X154355076Y-90844900D02*
X154864524Y-90844900D01*
%TO.C,D40*%
X148755000Y-139026000D02*
X148755000Y-137326000D01*
X148755000Y-139026000D02*
X146095000Y-139026000D01*
X148755000Y-137326000D02*
X146095000Y-137326000D01*
%TO.C,R3*%
X109982724Y-78373500D02*
X109473276Y-78373500D01*
X109982724Y-77328500D02*
X109473276Y-77328500D01*
%TO.C,C3*%
X102002000Y-82197402D02*
X102002000Y-83619906D01*
X100182000Y-82197402D02*
X100182000Y-83619906D01*
%TO.C,D2*%
X99225000Y-136486000D02*
X99225000Y-134786000D01*
X99225000Y-136486000D02*
X96565000Y-136486000D01*
X99225000Y-134786000D02*
X96565000Y-134786000D01*
%TO.C,D16*%
X128948000Y-123770210D02*
X128948000Y-122070210D01*
X128948000Y-123770210D02*
X126288000Y-123770210D01*
X128948000Y-122070210D02*
X126288000Y-122070210D01*
%TO.C,C1*%
X110746000Y-85553333D02*
X110746000Y-85845867D01*
X109726000Y-85553333D02*
X109726000Y-85845867D01*
%TO.C,R1*%
X94946838Y-73405276D02*
X94946838Y-73914724D01*
X93901838Y-73405276D02*
X93901838Y-73914724D01*
%TO.C,D60*%
X119042000Y-141566000D02*
X119042000Y-139866000D01*
X119042000Y-141566000D02*
X116382000Y-141566000D01*
X119042000Y-139866000D02*
X116382000Y-139866000D01*
%TO.C,D65*%
X168478000Y-141566000D02*
X168478000Y-139866000D01*
X168478000Y-141566000D02*
X165818000Y-141566000D01*
X168478000Y-139866000D02*
X165818000Y-139866000D01*
%TO.C,R11*%
X102513224Y-120664500D02*
X102003776Y-120664500D01*
X102513224Y-119619500D02*
X102003776Y-119619500D01*
%TO.C,D46*%
X148755163Y-123786000D02*
X148755163Y-122086000D01*
X148755163Y-123786000D02*
X146095163Y-123786000D01*
X148755163Y-122086000D02*
X146095163Y-122086000D01*
%TO.C,D44*%
X148755000Y-128866000D02*
X148755000Y-127166000D01*
X148755000Y-128866000D02*
X146095000Y-128866000D01*
X148755000Y-127166000D02*
X146095000Y-127166000D01*
%TO.C,C8*%
X101750400Y-92449867D02*
X101750400Y-92157333D01*
X102770400Y-92449867D02*
X102770400Y-92157333D01*
%TO.C,J28*%
X167707000Y-74572714D02*
X167707000Y-73242714D01*
X169037000Y-74572714D02*
X167707000Y-74572714D01*
X170307000Y-74572714D02*
X188147000Y-74572714D01*
X170307000Y-74572714D02*
X170307000Y-71972714D01*
X188147000Y-74572714D02*
X188147000Y-69372714D01*
X167707000Y-71972714D02*
X167707000Y-69372714D01*
X170307000Y-71972714D02*
X167707000Y-71972714D01*
X167707000Y-69372714D02*
X188147000Y-69372714D01*
%TO.C,D17*%
X138844000Y-126326000D02*
X138844000Y-124626000D01*
X138844000Y-126326000D02*
X136184000Y-126326000D01*
X138844000Y-124626000D02*
X136184000Y-124626000D01*
%TO.C,JR4*%
X125028000Y-142030210D02*
X123698000Y-142030210D01*
X125028000Y-140700210D02*
X125028000Y-142030210D01*
X125028000Y-139430210D02*
X125028000Y-121590210D01*
X125028000Y-139430210D02*
X122428000Y-139430210D01*
X125028000Y-121590210D02*
X119828000Y-121590210D01*
X122428000Y-142030210D02*
X119828000Y-142030210D01*
X122428000Y-139430210D02*
X122428000Y-142030210D01*
X119828000Y-142030210D02*
X119828000Y-121590210D01*
%TO.C,R7*%
X144032500Y-102615276D02*
X144032500Y-103124724D01*
X142987500Y-102615276D02*
X142987500Y-103124724D01*
%TO.C,D34*%
X119042000Y-131406000D02*
X119042000Y-129706000D01*
X119042000Y-131406000D02*
X116382000Y-131406000D01*
X119042000Y-129706000D02*
X116382000Y-129706000D01*
%TO.C,C15*%
X109448548Y-58068800D02*
X110871052Y-58068800D01*
X109448548Y-59888800D02*
X110871052Y-59888800D01*
%TO.C,U1*%
X95752500Y-78732011D02*
X96552500Y-78732011D01*
X95752500Y-78732011D02*
X94952500Y-78732011D01*
X95752500Y-75612011D02*
X96552500Y-75612011D01*
X95752500Y-75612011D02*
X94952500Y-75612011D01*
X97292500Y-79012011D02*
X96812500Y-79012011D01*
X97052500Y-78682011D01*
X97292500Y-79012011D01*
G36*
X97292500Y-79012011D02*
G01*
X96812500Y-79012011D01*
X97052500Y-78682011D01*
X97292500Y-79012011D01*
G37*
%TO.C,J2*%
X89659800Y-57891700D02*
X104359800Y-57891700D01*
X89659800Y-67091700D02*
X89659800Y-57891700D01*
X98459800Y-67091700D02*
X89659800Y-67091700D01*
X103509800Y-57691700D02*
X104559800Y-57691700D01*
X104359800Y-57891700D02*
X104359800Y-60491700D01*
X104359800Y-64491700D02*
X104359800Y-67091700D01*
X104359800Y-67091700D02*
X102459800Y-67091700D01*
X104559800Y-58741700D02*
X104559800Y-57691700D01*
%TO.C,U5*%
X152928000Y-95123000D02*
X152928000Y-97073000D01*
X152928000Y-95123000D02*
X152928000Y-93173000D01*
X163048000Y-95123000D02*
X163048000Y-97073000D01*
X163048000Y-95123000D02*
X163048000Y-93173000D01*
X152983000Y-97823000D02*
X152653000Y-98063000D01*
X152653000Y-97583000D01*
X152983000Y-97823000D01*
G36*
X152983000Y-97823000D02*
G01*
X152653000Y-98063000D01*
X152653000Y-97583000D01*
X152983000Y-97823000D01*
G37*
%TO.C,C14*%
X113663000Y-78632267D02*
X113663000Y-78339733D01*
X114683000Y-78632267D02*
X114683000Y-78339733D01*
%TO.C,D6*%
X109136000Y-128866000D02*
X109136000Y-127166000D01*
X109136000Y-128866000D02*
X106476000Y-128866000D01*
X109136000Y-127166000D02*
X106476000Y-127166000D01*
%TO.C,J27*%
X167707000Y-89740142D02*
X167707000Y-88410142D01*
X169037000Y-89740142D02*
X167707000Y-89740142D01*
X170307000Y-89740142D02*
X188147000Y-89740142D01*
X170307000Y-89740142D02*
X170307000Y-87140142D01*
X188147000Y-89740142D02*
X188147000Y-84540142D01*
X167707000Y-87140142D02*
X167707000Y-84540142D01*
X170307000Y-87140142D02*
X167707000Y-87140142D01*
X167707000Y-84540142D02*
X188147000Y-84540142D01*
%TO.C,D19*%
X138844000Y-123786000D02*
X138844000Y-122086000D01*
X138844000Y-123786000D02*
X136184000Y-123786000D01*
X138844000Y-122086000D02*
X136184000Y-122086000D01*
%TO.C,D48*%
X158661000Y-139026000D02*
X158661000Y-137326000D01*
X158661000Y-139026000D02*
X156001000Y-139026000D01*
X158661000Y-137326000D02*
X156001000Y-137326000D01*
%TO.C,D21*%
X128948000Y-128850210D02*
X128948000Y-127150210D01*
X128948000Y-128850210D02*
X126288000Y-128850210D01*
X128948000Y-127150210D02*
X126288000Y-127150210D01*
%TO.C,C12*%
X172472133Y-136599200D02*
X172764667Y-136599200D01*
X172472133Y-137619200D02*
X172764667Y-137619200D01*
%TO.C,D8*%
X109136000Y-131406000D02*
X109136000Y-129706000D01*
X109136000Y-131406000D02*
X106476000Y-131406000D01*
X109136000Y-129706000D02*
X106476000Y-129706000D01*
%TO.C,R6*%
X101106500Y-91998076D02*
X101106500Y-92507524D01*
X100061500Y-91998076D02*
X100061500Y-92507524D01*
%TO.C,J29*%
X167707000Y-66989000D02*
X167707000Y-65659000D01*
X169037000Y-66989000D02*
X167707000Y-66989000D01*
X170307000Y-66989000D02*
X188147000Y-66989000D01*
X170307000Y-66989000D02*
X170307000Y-64389000D01*
X188147000Y-66989000D02*
X188147000Y-61789000D01*
X167707000Y-64389000D02*
X167707000Y-61789000D01*
X170307000Y-64389000D02*
X167707000Y-64389000D01*
X167707000Y-61789000D02*
X188147000Y-61789000D01*
%TO.C,D12*%
X99225000Y-139026000D02*
X99225000Y-137326000D01*
X99225000Y-139026000D02*
X96565000Y-139026000D01*
X99225000Y-137326000D02*
X96565000Y-137326000D01*
%TO.C,D28*%
X128948000Y-136470210D02*
X128948000Y-134770210D01*
X128948000Y-136470210D02*
X126288000Y-136470210D01*
X128948000Y-134770210D02*
X126288000Y-134770210D01*
%TO.C,D24*%
X138844000Y-133946000D02*
X138844000Y-132246000D01*
X138844000Y-133946000D02*
X136184000Y-133946000D01*
X138844000Y-132246000D02*
X136184000Y-132246000D01*
%TO.C,D11*%
X99225000Y-133946000D02*
X99225000Y-132246000D01*
X99225000Y-133946000D02*
X96565000Y-133946000D01*
X99225000Y-132246000D02*
X96565000Y-132246000D01*
%TO.C,D18*%
X128948000Y-126310210D02*
X128948000Y-124610210D01*
X128948000Y-126310210D02*
X126288000Y-126310210D01*
X128948000Y-124610210D02*
X126288000Y-124610210D01*
%TO.C,D15*%
X109136000Y-126326000D02*
X109136000Y-124626000D01*
X109136000Y-126326000D02*
X106476000Y-126326000D01*
X109136000Y-124626000D02*
X106476000Y-124626000D01*
%TO.C,J35*%
X167707000Y-97323856D02*
X167707000Y-95993856D01*
X169037000Y-97323856D02*
X167707000Y-97323856D01*
X170307000Y-97323856D02*
X188147000Y-97323856D01*
X170307000Y-97323856D02*
X170307000Y-94723856D01*
X188147000Y-97323856D02*
X188147000Y-92123856D01*
X167707000Y-94723856D02*
X167707000Y-92123856D01*
X170307000Y-94723856D02*
X167707000Y-94723856D01*
X167707000Y-92123856D02*
X188147000Y-92123856D01*
%TO.C,J33*%
X167580000Y-120075000D02*
X167580000Y-118745000D01*
X168910000Y-120075000D02*
X167580000Y-120075000D01*
X170180000Y-120075000D02*
X188020000Y-120075000D01*
X170180000Y-120075000D02*
X170180000Y-117475000D01*
X188020000Y-120075000D02*
X188020000Y-114875000D01*
X167580000Y-117475000D02*
X167580000Y-114875000D01*
X170180000Y-117475000D02*
X167580000Y-117475000D01*
X167580000Y-114875000D02*
X188020000Y-114875000D01*
%TO.C,C10*%
X149712000Y-114376252D02*
X149712000Y-112953748D01*
X151532000Y-114376252D02*
X151532000Y-112953748D01*
%TO.C,JR7*%
X154746000Y-142046000D02*
X153416000Y-142046000D01*
X154746000Y-140716000D02*
X154746000Y-142046000D01*
X154746000Y-139446000D02*
X154746000Y-121606000D01*
X154746000Y-139446000D02*
X152146000Y-139446000D01*
X154746000Y-121606000D02*
X149546000Y-121606000D01*
X152146000Y-142046000D02*
X149546000Y-142046000D01*
X152146000Y-139446000D02*
X152146000Y-142046000D01*
X149546000Y-142046000D02*
X149546000Y-121606000D01*
%TO.C,JR2*%
X105216000Y-142046000D02*
X103886000Y-142046000D01*
X105216000Y-140716000D02*
X105216000Y-142046000D01*
X105216000Y-139446000D02*
X105216000Y-121606000D01*
X105216000Y-139446000D02*
X102616000Y-139446000D01*
X105216000Y-121606000D02*
X100016000Y-121606000D01*
X102616000Y-142046000D02*
X100016000Y-142046000D01*
X102616000Y-139446000D02*
X102616000Y-142046000D01*
X100016000Y-142046000D02*
X100016000Y-121606000D01*
%TO.C,D54*%
X168478000Y-123786000D02*
X168478000Y-122086000D01*
X168478000Y-123786000D02*
X165818000Y-123786000D01*
X168478000Y-122086000D02*
X165818000Y-122086000D01*
%TO.C,D43*%
X148755000Y-131406000D02*
X148755000Y-129706000D01*
X148755000Y-131406000D02*
X146095000Y-131406000D01*
X148755000Y-129706000D02*
X146095000Y-129706000D01*
%TO.C,D4*%
X109136000Y-123786000D02*
X109136000Y-122086000D01*
X109136000Y-123786000D02*
X106476000Y-123786000D01*
X109136000Y-122086000D02*
X106476000Y-122086000D01*
%TO.C,R16*%
X142137224Y-120664500D02*
X141627776Y-120664500D01*
X142137224Y-119619500D02*
X141627776Y-119619500D01*
%TO.C,D47*%
X158661000Y-123786000D02*
X158661000Y-122086000D01*
X158661000Y-123786000D02*
X156001000Y-123786000D01*
X158661000Y-122086000D02*
X156001000Y-122086000D01*
%TO.C,D63*%
X158661000Y-141566000D02*
X158661000Y-139866000D01*
X158661000Y-141566000D02*
X156001000Y-141566000D01*
X158661000Y-139866000D02*
X156001000Y-139866000D01*
%TO.C,D45*%
X148755000Y-126326000D02*
X148755000Y-124626000D01*
X148755000Y-126326000D02*
X146095000Y-126326000D01*
X148755000Y-124626000D02*
X146095000Y-124626000D01*
%TO.C,D50*%
X158661000Y-136486000D02*
X158661000Y-134786000D01*
X158661000Y-136486000D02*
X156001000Y-136486000D01*
X158661000Y-134786000D02*
X156001000Y-134786000D01*
%TO.C,R27*%
X144486100Y-87579924D02*
X144486100Y-87070476D01*
X145531100Y-87579924D02*
X145531100Y-87070476D01*
%TO.C,R8*%
X149337500Y-97687224D02*
X149337500Y-97177776D01*
X150382500Y-97687224D02*
X150382500Y-97177776D01*
%TO.C,R13*%
X132231224Y-120664500D02*
X131721776Y-120664500D01*
X132231224Y-119619500D02*
X131721776Y-119619500D01*
%TO.C,D39*%
X158661000Y-131406000D02*
X158661000Y-129706000D01*
X158661000Y-131406000D02*
X156001000Y-131406000D01*
X158661000Y-129706000D02*
X156001000Y-129706000D01*
%TO.C,J26*%
X167707000Y-82156428D02*
X167707000Y-80826428D01*
X169037000Y-82156428D02*
X167707000Y-82156428D01*
X170307000Y-82156428D02*
X188147000Y-82156428D01*
X170307000Y-82156428D02*
X170307000Y-79556428D01*
X188147000Y-82156428D02*
X188147000Y-76956428D01*
X167707000Y-79556428D02*
X167707000Y-76956428D01*
X170307000Y-79556428D02*
X167707000Y-79556428D01*
X167707000Y-76956428D02*
X188147000Y-76956428D01*
%TO.C,R14*%
X152043224Y-120664500D02*
X151533776Y-120664500D01*
X152043224Y-119619500D02*
X151533776Y-119619500D01*
%TO.C,R30*%
X103150576Y-77963500D02*
X103660024Y-77963500D01*
X103150576Y-79008500D02*
X103660024Y-79008500D01*
%TO.C,D51*%
X168478000Y-131406000D02*
X168478000Y-129706000D01*
X168478000Y-131406000D02*
X165818000Y-131406000D01*
X168478000Y-129706000D02*
X165818000Y-129706000D01*
%TO.C,J34*%
X167707000Y-112491284D02*
X167707000Y-111161284D01*
X169037000Y-112491284D02*
X167707000Y-112491284D01*
X170307000Y-112491284D02*
X188147000Y-112491284D01*
X170307000Y-112491284D02*
X170307000Y-109891284D01*
X188147000Y-112491284D02*
X188147000Y-107291284D01*
X167707000Y-109891284D02*
X167707000Y-107291284D01*
X170307000Y-109891284D02*
X167707000Y-109891284D01*
X167707000Y-107291284D02*
X188147000Y-107291284D01*
%TO.C,J32*%
X167707000Y-104907570D02*
X167707000Y-103577570D01*
X169037000Y-104907570D02*
X167707000Y-104907570D01*
X170307000Y-104907570D02*
X188147000Y-104907570D01*
X170307000Y-104907570D02*
X170307000Y-102307570D01*
X188147000Y-104907570D02*
X188147000Y-99707570D01*
X167707000Y-102307570D02*
X167707000Y-99707570D01*
X170307000Y-102307570D02*
X167707000Y-102307570D01*
X167707000Y-99707570D02*
X188147000Y-99707570D01*
%TO.C,D33*%
X119042000Y-136486000D02*
X119042000Y-134786000D01*
X119042000Y-136486000D02*
X116382000Y-136486000D01*
X119042000Y-134786000D02*
X116382000Y-134786000D01*
%TO.C,D55*%
X168478000Y-133946000D02*
X168478000Y-132246000D01*
X168478000Y-133946000D02*
X165818000Y-133946000D01*
X168478000Y-132246000D02*
X165818000Y-132246000D01*
%TO.C,JR8*%
X164558000Y-142046000D02*
X163228000Y-142046000D01*
X164558000Y-140716000D02*
X164558000Y-142046000D01*
X164558000Y-139446000D02*
X164558000Y-121606000D01*
X164558000Y-139446000D02*
X161958000Y-139446000D01*
X164558000Y-121606000D02*
X159358000Y-121606000D01*
X161958000Y-142046000D02*
X159358000Y-142046000D01*
X161958000Y-139446000D02*
X161958000Y-142046000D01*
X159358000Y-142046000D02*
X159358000Y-121606000D01*
%TO.C,D29*%
X119042000Y-126326000D02*
X119042000Y-124626000D01*
X119042000Y-126326000D02*
X116382000Y-126326000D01*
X119042000Y-124626000D02*
X116382000Y-124626000D01*
%TO.C,D7*%
X99225000Y-128866000D02*
X99225000Y-127166000D01*
X99225000Y-128866000D02*
X96565000Y-128866000D01*
X99225000Y-127166000D02*
X96565000Y-127166000D01*
%TO.C,D66*%
X109668200Y-69559200D02*
X105368200Y-69559200D01*
X109668200Y-69559200D02*
X109668200Y-75369200D01*
X105368200Y-69559200D02*
X105368200Y-75369200D01*
%TO.C,D38*%
X158661000Y-133946000D02*
X158661000Y-132246000D01*
X158661000Y-133946000D02*
X156001000Y-133946000D01*
X158661000Y-132246000D02*
X156001000Y-132246000D01*
%TO.C,D1*%
X107640000Y-80758000D02*
X105720000Y-80758000D01*
X105720000Y-80758000D02*
X105720000Y-83618000D01*
X107640000Y-83618000D02*
X107640000Y-80758000D01*
D11*
%TO.C,U2*%
X111245000Y-91648000D02*
X111470000Y-91648000D01*
X111245000Y-91648000D02*
X111245000Y-85898000D01*
X119895000Y-91648000D02*
X119670000Y-91648000D01*
X119895000Y-91648000D02*
X119895000Y-85898000D01*
X111245000Y-85898000D02*
X111470000Y-85898000D01*
X119895000Y-85898000D02*
X119670000Y-85898000D01*
D10*
X111495000Y-92148000D02*
X111165000Y-92388000D01*
X111165000Y-91908000D01*
X111495000Y-92148000D01*
G36*
X111495000Y-92148000D02*
G01*
X111165000Y-92388000D01*
X111165000Y-91908000D01*
X111495000Y-92148000D01*
G37*
%TO.C,Q2*%
X108295000Y-80820500D02*
X108295000Y-81470500D01*
X108295000Y-80820500D02*
X108295000Y-80170500D01*
X111415000Y-80820500D02*
X111415000Y-81470500D01*
X111415000Y-80820500D02*
X111415000Y-80170500D01*
X108345000Y-81983000D02*
X108015000Y-82223000D01*
X108015000Y-81743000D01*
X108345000Y-81983000D01*
G36*
X108345000Y-81983000D02*
G01*
X108015000Y-82223000D01*
X108015000Y-81743000D01*
X108345000Y-81983000D01*
G37*
%TO.C,R18*%
X113019100Y-78229376D02*
X113019100Y-78738824D01*
X111974100Y-78229376D02*
X111974100Y-78738824D01*
%TO.C,D37*%
X158661000Y-126326000D02*
X158661000Y-124626000D01*
X158661000Y-126326000D02*
X156001000Y-126326000D01*
X158661000Y-124626000D02*
X156001000Y-124626000D01*
%TO.C,R21*%
X157809476Y-89799900D02*
X158318924Y-89799900D01*
X157809476Y-90844900D02*
X158318924Y-90844900D01*
%TO.C,JSPI5*%
X158905000Y-65941000D02*
X158105000Y-65941000D01*
X158705000Y-66141000D02*
X154985000Y-66141000D01*
X157795000Y-66141000D02*
X157795000Y-66541000D01*
X156795000Y-66141000D02*
X156795000Y-66541000D01*
X154985000Y-66141000D02*
X154985000Y-76861000D01*
X158405000Y-66541000D02*
X155385000Y-66541000D01*
X155385000Y-66541000D02*
X155385000Y-76461000D01*
X158905000Y-66741000D02*
X158905000Y-65941000D01*
X158905000Y-67151000D02*
X158705000Y-67151000D01*
X158905000Y-67451000D02*
X158905000Y-67151000D01*
X158805000Y-67451000D02*
X158805000Y-67151000D01*
X158705000Y-67451000D02*
X158905000Y-67451000D01*
X155785000Y-68401000D02*
X155785000Y-68601000D01*
X155385000Y-68401000D02*
X155785000Y-68401000D01*
X155385000Y-68501000D02*
X155785000Y-68501000D01*
X155785000Y-68601000D02*
X155385000Y-68601000D01*
X155785000Y-69901000D02*
X155785000Y-70101000D01*
X155385000Y-69901000D02*
X155785000Y-69901000D01*
X155385000Y-70001000D02*
X155785000Y-70001000D01*
X155785000Y-70101000D02*
X155385000Y-70101000D01*
X155785000Y-71401000D02*
X155785000Y-71601000D01*
X155385000Y-71401000D02*
X155785000Y-71401000D01*
X155385000Y-71501000D02*
X155785000Y-71501000D01*
X155785000Y-71601000D02*
X155385000Y-71601000D01*
X155785000Y-72901000D02*
X155785000Y-73101000D01*
X155385000Y-72901000D02*
X155785000Y-72901000D01*
X155385000Y-73001000D02*
X155785000Y-73001000D01*
X155785000Y-73101000D02*
X155385000Y-73101000D01*
X155785000Y-74401000D02*
X155785000Y-74601000D01*
X155385000Y-74401000D02*
X155785000Y-74401000D01*
X155385000Y-74501000D02*
X155785000Y-74501000D01*
X155785000Y-74601000D02*
X155385000Y-74601000D01*
X158405000Y-76461000D02*
X158405000Y-66541000D01*
X155385000Y-76461000D02*
X158405000Y-76461000D01*
X158705000Y-76861000D02*
X158705000Y-66141000D01*
X157795000Y-76861000D02*
X157795000Y-76461000D01*
X156795000Y-76861000D02*
X156795000Y-76461000D01*
X154985000Y-76861000D02*
X158705000Y-76861000D01*
%TO.C,R17*%
X108838276Y-92695500D02*
X109347724Y-92695500D01*
X108838276Y-93740500D02*
X109347724Y-93740500D01*
%TO.C,D25*%
X128948000Y-133930210D02*
X128948000Y-132230210D01*
X128948000Y-133930210D02*
X126288000Y-133930210D01*
X128948000Y-132230210D02*
X126288000Y-132230210D01*
%TO.C,JSPI1*%
X154079000Y-77752000D02*
X153279000Y-77752000D01*
X153879000Y-77952000D02*
X150159000Y-77952000D01*
X152969000Y-77952000D02*
X152969000Y-78352000D01*
X151969000Y-77952000D02*
X151969000Y-78352000D01*
X150159000Y-77952000D02*
X150159000Y-88672000D01*
X153579000Y-78352000D02*
X150559000Y-78352000D01*
X150559000Y-78352000D02*
X150559000Y-88272000D01*
X154079000Y-78552000D02*
X154079000Y-77752000D01*
X154079000Y-78962000D02*
X153879000Y-78962000D01*
X154079000Y-79262000D02*
X154079000Y-78962000D01*
X153979000Y-79262000D02*
X153979000Y-78962000D01*
X153879000Y-79262000D02*
X154079000Y-79262000D01*
X150959000Y-80212000D02*
X150959000Y-80412000D01*
X150559000Y-80212000D02*
X150959000Y-80212000D01*
X150559000Y-80312000D02*
X150959000Y-80312000D01*
X150959000Y-80412000D02*
X150559000Y-80412000D01*
X150959000Y-81712000D02*
X150959000Y-81912000D01*
X150559000Y-81712000D02*
X150959000Y-81712000D01*
X150559000Y-81812000D02*
X150959000Y-81812000D01*
X150959000Y-81912000D02*
X150559000Y-81912000D01*
X150959000Y-83212000D02*
X150959000Y-83412000D01*
X150559000Y-83212000D02*
X150959000Y-83212000D01*
X150559000Y-83312000D02*
X150959000Y-83312000D01*
X150959000Y-83412000D02*
X150559000Y-83412000D01*
X150959000Y-84712000D02*
X150959000Y-84912000D01*
X150559000Y-84712000D02*
X150959000Y-84712000D01*
X150559000Y-84812000D02*
X150959000Y-84812000D01*
X150959000Y-84912000D02*
X150559000Y-84912000D01*
X150959000Y-86212000D02*
X150959000Y-86412000D01*
X150559000Y-86212000D02*
X150959000Y-86212000D01*
X150559000Y-86312000D02*
X150959000Y-86312000D01*
X150959000Y-86412000D02*
X150559000Y-86412000D01*
X153579000Y-88272000D02*
X153579000Y-78352000D01*
X150559000Y-88272000D02*
X153579000Y-88272000D01*
X153879000Y-88672000D02*
X153879000Y-77952000D01*
X152969000Y-88672000D02*
X152969000Y-88272000D01*
X151969000Y-88672000D02*
X151969000Y-88272000D01*
X150159000Y-88672000D02*
X153879000Y-88672000D01*
%TO.C,C5*%
X91776333Y-76502800D02*
X92068867Y-76502800D01*
X91776333Y-77522800D02*
X92068867Y-77522800D01*
%TO.C,C17*%
X93712848Y-69752800D02*
X95135352Y-69752800D01*
X93712848Y-71572800D02*
X95135352Y-71572800D01*
%TO.C,D20*%
X138844000Y-128866000D02*
X138844000Y-127166000D01*
X138844000Y-128866000D02*
X136184000Y-128866000D01*
X138844000Y-127166000D02*
X136184000Y-127166000D01*
D12*
%TO.C,Q3*%
X97094300Y-70434200D02*
G75*
G02*
X96894300Y-70434200I-100000J0D01*
G01*
X96894300Y-70434200D02*
G75*
G02*
X97094300Y-70434200I100000J0D01*
G01*
D13*
X98994300Y-69820200D02*
X102994300Y-69820200D01*
X98994300Y-74858200D02*
X102994300Y-74858200D01*
D10*
%TO.C,R22*%
X148397700Y-78232724D02*
X148397700Y-77723276D01*
X149442700Y-78232724D02*
X149442700Y-77723276D01*
%TO.C,U3*%
X103408000Y-91948000D02*
X103408000Y-92598000D01*
X103408000Y-91948000D02*
X103408000Y-91298000D01*
X106528000Y-91948000D02*
X106528000Y-92598000D01*
X106528000Y-91948000D02*
X106528000Y-91298000D01*
X103458000Y-93110500D02*
X103128000Y-93350500D01*
X103128000Y-92870500D01*
X103458000Y-93110500D01*
G36*
X103458000Y-93110500D02*
G01*
X103128000Y-93350500D01*
X103128000Y-92870500D01*
X103458000Y-93110500D01*
G37*
%TO.C,C9*%
X151432800Y-92195867D02*
X151432800Y-91903333D01*
X152452800Y-92195867D02*
X152452800Y-91903333D01*
%TO.C,D64*%
X148755000Y-141566000D02*
X148755000Y-139866000D01*
X148755000Y-141566000D02*
X146095000Y-141566000D01*
X148755000Y-139866000D02*
X146095000Y-139866000D01*
%TO.C,D9*%
X99225000Y-131406000D02*
X99225000Y-129706000D01*
X99225000Y-131406000D02*
X96565000Y-131406000D01*
X99225000Y-129706000D02*
X96565000Y-129706000D01*
%TO.C,D57*%
X168478000Y-136486000D02*
X168478000Y-134786000D01*
X168478000Y-136486000D02*
X165818000Y-136486000D01*
X168478000Y-134786000D02*
X165818000Y-134786000D01*
%TO.C,D49*%
X158661000Y-128866000D02*
X158661000Y-127166000D01*
X158661000Y-128866000D02*
X156001000Y-128866000D01*
X158661000Y-127166000D02*
X156001000Y-127166000D01*
%TO.C,R28*%
X146111700Y-87581824D02*
X146111700Y-87072376D01*
X147156700Y-87581824D02*
X147156700Y-87072376D01*
%TO.C,D5*%
X99225000Y-126326000D02*
X99225000Y-124626000D01*
X99225000Y-126326000D02*
X96565000Y-126326000D01*
X99225000Y-124626000D02*
X96565000Y-124626000D01*
%TO.C,JSPI6*%
X163731000Y-65941000D02*
X162931000Y-65941000D01*
X163531000Y-66141000D02*
X159811000Y-66141000D01*
X162621000Y-66141000D02*
X162621000Y-66541000D01*
X161621000Y-66141000D02*
X161621000Y-66541000D01*
X159811000Y-66141000D02*
X159811000Y-76861000D01*
X163231000Y-66541000D02*
X160211000Y-66541000D01*
X160211000Y-66541000D02*
X160211000Y-76461000D01*
X163731000Y-66741000D02*
X163731000Y-65941000D01*
X163731000Y-67151000D02*
X163531000Y-67151000D01*
X163731000Y-67451000D02*
X163731000Y-67151000D01*
X163631000Y-67451000D02*
X163631000Y-67151000D01*
X163531000Y-67451000D02*
X163731000Y-67451000D01*
X160611000Y-68401000D02*
X160611000Y-68601000D01*
X160211000Y-68401000D02*
X160611000Y-68401000D01*
X160211000Y-68501000D02*
X160611000Y-68501000D01*
X160611000Y-68601000D02*
X160211000Y-68601000D01*
X160611000Y-69901000D02*
X160611000Y-70101000D01*
X160211000Y-69901000D02*
X160611000Y-69901000D01*
X160211000Y-70001000D02*
X160611000Y-70001000D01*
X160611000Y-70101000D02*
X160211000Y-70101000D01*
X160611000Y-71401000D02*
X160611000Y-71601000D01*
X160211000Y-71401000D02*
X160611000Y-71401000D01*
X160211000Y-71501000D02*
X160611000Y-71501000D01*
X160611000Y-71601000D02*
X160211000Y-71601000D01*
X160611000Y-72901000D02*
X160611000Y-73101000D01*
X160211000Y-72901000D02*
X160611000Y-72901000D01*
X160211000Y-73001000D02*
X160611000Y-73001000D01*
X160611000Y-73101000D02*
X160211000Y-73101000D01*
X160611000Y-74401000D02*
X160611000Y-74601000D01*
X160211000Y-74401000D02*
X160611000Y-74401000D01*
X160211000Y-74501000D02*
X160611000Y-74501000D01*
X160611000Y-74601000D02*
X160211000Y-74601000D01*
X163231000Y-76461000D02*
X163231000Y-66541000D01*
X160211000Y-76461000D02*
X163231000Y-76461000D01*
X163531000Y-76861000D02*
X163531000Y-66141000D01*
X162621000Y-76861000D02*
X162621000Y-76461000D01*
X161621000Y-76861000D02*
X161621000Y-76461000D01*
X159811000Y-76861000D02*
X163531000Y-76861000D01*
%TO.C,C6*%
X92068867Y-79097600D02*
X91776333Y-79097600D01*
X92068867Y-78077600D02*
X91776333Y-78077600D01*
%TO.C,D36*%
X119042000Y-139026000D02*
X119042000Y-137326000D01*
X119042000Y-139026000D02*
X116382000Y-139026000D01*
X119042000Y-137326000D02*
X116382000Y-137326000D01*
%TO.C,R24*%
X149391900Y-70867176D02*
X149391900Y-71376624D01*
X148346900Y-70867176D02*
X148346900Y-71376624D01*
%TO.C,D14*%
X109136000Y-136486000D02*
X109136000Y-134786000D01*
X109136000Y-136486000D02*
X106476000Y-136486000D01*
X109136000Y-134786000D02*
X106476000Y-134786000D01*
%TO.C,U7*%
X175514000Y-135870000D02*
X177464000Y-135870000D01*
X175514000Y-135870000D02*
X173564000Y-135870000D01*
X175514000Y-125750000D02*
X177464000Y-125750000D01*
X175514000Y-125750000D02*
X173564000Y-125750000D01*
X178454000Y-136145000D02*
X177974000Y-136145000D01*
X178214000Y-135815000D01*
X178454000Y-136145000D01*
G36*
X178454000Y-136145000D02*
G01*
X177974000Y-136145000D01*
X178214000Y-135815000D01*
X178454000Y-136145000D01*
G37*
%TO.C,C7*%
X92068867Y-74322400D02*
X91776333Y-74322400D01*
X92068867Y-73302400D02*
X91776333Y-73302400D01*
%TO.C,JR5*%
X134934000Y-142046000D02*
X133604000Y-142046000D01*
X134934000Y-140716000D02*
X134934000Y-142046000D01*
X134934000Y-139446000D02*
X134934000Y-121606000D01*
X134934000Y-139446000D02*
X132334000Y-139446000D01*
X134934000Y-121606000D02*
X129734000Y-121606000D01*
X132334000Y-142046000D02*
X129734000Y-142046000D01*
X132334000Y-139446000D02*
X132334000Y-142046000D01*
X129734000Y-142046000D02*
X129734000Y-121606000D01*
%TO.C,D61*%
X138844000Y-141566000D02*
X138844000Y-139866000D01*
X138844000Y-141566000D02*
X136184000Y-141566000D01*
X138844000Y-139866000D02*
X136184000Y-139866000D01*
%TO.C,D53*%
X168478000Y-128866000D02*
X168478000Y-127166000D01*
X168478000Y-128866000D02*
X165818000Y-128866000D01*
X168478000Y-127166000D02*
X165818000Y-127166000D01*
%TO.C,C11*%
X150158667Y-117807200D02*
X149866133Y-117807200D01*
X150158667Y-116787200D02*
X149866133Y-116787200D01*
%TO.C,D62*%
X128948000Y-141550210D02*
X128948000Y-139850210D01*
X128948000Y-141550210D02*
X126288000Y-141550210D01*
X128948000Y-139850210D02*
X126288000Y-139850210D01*
%TO.C,C16*%
X100255800Y-103790533D02*
X100255800Y-104083067D01*
X99235800Y-103790533D02*
X99235800Y-104083067D01*
%TO.C,JSPI3*%
X163731000Y-77752000D02*
X162931000Y-77752000D01*
X163531000Y-77952000D02*
X159811000Y-77952000D01*
X162621000Y-77952000D02*
X162621000Y-78352000D01*
X161621000Y-77952000D02*
X161621000Y-78352000D01*
X159811000Y-77952000D02*
X159811000Y-88672000D01*
X163231000Y-78352000D02*
X160211000Y-78352000D01*
X160211000Y-78352000D02*
X160211000Y-88272000D01*
X163731000Y-78552000D02*
X163731000Y-77752000D01*
X163731000Y-78962000D02*
X163531000Y-78962000D01*
X163731000Y-79262000D02*
X163731000Y-78962000D01*
X163631000Y-79262000D02*
X163631000Y-78962000D01*
X163531000Y-79262000D02*
X163731000Y-79262000D01*
X160611000Y-80212000D02*
X160611000Y-80412000D01*
X160211000Y-80212000D02*
X160611000Y-80212000D01*
X160211000Y-80312000D02*
X160611000Y-80312000D01*
X160611000Y-80412000D02*
X160211000Y-80412000D01*
X160611000Y-81712000D02*
X160611000Y-81912000D01*
X160211000Y-81712000D02*
X160611000Y-81712000D01*
X160211000Y-81812000D02*
X160611000Y-81812000D01*
X160611000Y-81912000D02*
X160211000Y-81912000D01*
X160611000Y-83212000D02*
X160611000Y-83412000D01*
X160211000Y-83212000D02*
X160611000Y-83212000D01*
X160211000Y-83312000D02*
X160611000Y-83312000D01*
X160611000Y-83412000D02*
X160211000Y-83412000D01*
X160611000Y-84712000D02*
X160611000Y-84912000D01*
X160211000Y-84712000D02*
X160611000Y-84712000D01*
X160211000Y-84812000D02*
X160611000Y-84812000D01*
X160611000Y-84912000D02*
X160211000Y-84912000D01*
X160611000Y-86212000D02*
X160611000Y-86412000D01*
X160211000Y-86212000D02*
X160611000Y-86212000D01*
X160211000Y-86312000D02*
X160611000Y-86312000D01*
X160611000Y-86412000D02*
X160211000Y-86412000D01*
X163231000Y-88272000D02*
X163231000Y-78352000D01*
X160211000Y-88272000D02*
X163231000Y-88272000D01*
X163531000Y-88672000D02*
X163531000Y-77952000D01*
X162621000Y-88672000D02*
X162621000Y-88272000D01*
X161621000Y-88672000D02*
X161621000Y-88272000D01*
X159811000Y-88672000D02*
X163531000Y-88672000D01*
%TO.C,R15*%
X161822224Y-120664500D02*
X161312776Y-120664500D01*
X161822224Y-119619500D02*
X161312776Y-119619500D01*
%TO.C,D56*%
X168478000Y-139026000D02*
X168478000Y-137326000D01*
X168478000Y-139026000D02*
X165818000Y-139026000D01*
X168478000Y-137326000D02*
X165818000Y-137326000D01*
%TO.C,C13*%
X114636333Y-58824400D02*
X114928867Y-58824400D01*
X114636333Y-59844400D02*
X114928867Y-59844400D01*
%TO.C,D30*%
X138844000Y-139026000D02*
X138844000Y-137326000D01*
X138844000Y-139026000D02*
X136184000Y-139026000D01*
X138844000Y-137326000D02*
X136184000Y-137326000D01*
%TO.C,D27*%
X138844000Y-136486000D02*
X138844000Y-134786000D01*
X138844000Y-136486000D02*
X136184000Y-136486000D01*
X138844000Y-134786000D02*
X136184000Y-134786000D01*
%TO.C,R23*%
X165343100Y-78993276D02*
X165343100Y-79502724D01*
X164298100Y-78993276D02*
X164298100Y-79502724D01*
%TO.C,J3*%
X92329000Y-115884000D02*
X140649000Y-115884000D01*
X92329000Y-115884000D02*
X92329000Y-113224000D01*
X140649000Y-115884000D02*
X140649000Y-113224000D01*
X89729000Y-114554000D02*
X89729000Y-113224000D01*
X89729000Y-113224000D02*
X91059000Y-113224000D01*
X92329000Y-113224000D02*
X140649000Y-113224000D01*
%TO.C,J4*%
X138049000Y-95444000D02*
X89729000Y-95444000D01*
X138049000Y-95444000D02*
X138049000Y-98104000D01*
X89729000Y-95444000D02*
X89729000Y-98104000D01*
X140649000Y-96774000D02*
X140649000Y-98104000D01*
X140649000Y-98104000D02*
X139319000Y-98104000D01*
X138049000Y-98104000D02*
X89729000Y-98104000D01*
%TD*%
M02*
