M48
; DRILL file {KiCad 8.0.8} date 2025-03-09T11:30:58-0300
; FORMAT={-:-/ absolute / inch / decimal}
; #@! TF.CreationDate,2025-03-09T11:30:58-03:00
; #@! TF.GenerationSoftware,Kicad,Pcbnew,8.0.8
; #@! TF.FileFunction,Plated,1,4,PTH
FMAT,2
INCH
; #@! TA.AperFunction,Plated,PTH,ViaDrill
T1C0.0157
; #@! TA.AperFunction,Plated,PTH,ComponentDrill
T2C0.0394
; #@! TA.AperFunction,Plated,PTH,ComponentDrill
T3C0.0866
%
G90
G05
T1
X3.535Y-2.91
X3.535Y-2.945
X3.535Y-2.98
X3.575Y-3.08
X3.72Y-4.73
X3.805Y-4.035
X3.805Y-4.28
X3.84Y-3.1657
X3.96Y-3.3782
X4.0Y-3.38
X4.045Y-3.38
X4.045Y-3.6
X4.115Y-4.73
X4.2Y-3.1577
X4.205Y-3.6569
X4.25Y-3.365
X4.35Y-3.31
X4.35Y-3.43
X4.4378Y-2.9314
X4.4378Y-2.9714
X4.4378Y-3.0114
X4.481Y-3.1332
X4.495Y-4.73
X4.6314Y-4.05
X4.6314Y-4.285
X4.64Y-3.29
X4.68Y-3.285
X4.72Y-3.285
X4.75Y-3.635
X4.895Y-4.73
X4.975Y-4.125
X4.985Y-4.4
X5.285Y-4.73
X5.585Y-3.925
X5.605Y-3.805
X5.605Y-3.8444
X5.65Y-3.96
X5.6646Y-4.73
X5.685Y-3.7654
X5.685Y-4.0854
X5.92Y-4.485
X5.92Y-4.595
X5.9415Y-4.02
X5.9415Y-4.07
X5.9431Y-4.27
X5.944Y-4.115
X5.9448Y-4.3165
X5.9465Y-4.17
X5.9465Y-4.22
X5.96Y-4.485
X5.965Y-3.625
X5.995Y-3.555
X6.065Y-4.73
X6.195Y-3.905
X6.245Y-3.905
X6.395Y-3.91
X6.44Y-4.73
X6.4819Y-4.02
X6.4819Y-4.07
X6.4819Y-4.12
X6.4819Y-4.17
X6.4819Y-4.22
X6.901Y-5.375
X7.016Y-5.375
X7.2424Y-4.975
X7.2424Y-5.07
X7.2424Y-5.125
X7.2424Y-5.175
X7.2424Y-5.225
X7.2424Y-5.275
X7.2424Y-5.325
T2
X3.585Y-3.81
X3.585Y-4.51
X3.6Y-4.84
X3.6Y-4.94
X3.6Y-5.04
X3.6Y-5.14
X3.6Y-5.24
X3.6Y-5.34
X3.6Y-5.44
X3.6Y-5.54
X3.685Y-3.81
X3.685Y-4.51
X3.7Y-4.84
X3.7Y-4.94
X3.7Y-5.04
X3.7Y-5.14
X3.7Y-5.24
X3.7Y-5.34
X3.7Y-5.44
X3.7Y-5.54
X3.785Y-3.81
X3.785Y-4.51
X3.885Y-3.81
X3.885Y-4.51
X3.985Y-3.81
X3.985Y-4.51
X3.99Y-4.84
X3.99Y-4.94
X3.99Y-5.04
X3.99Y-5.14
X3.99Y-5.24
X3.99Y-5.34
X3.99Y-5.44
X3.99Y-5.54
X4.085Y-3.81
X4.085Y-4.51
X4.09Y-4.84
X4.09Y-4.94
X4.09Y-5.04
X4.09Y-5.14
X4.09Y-5.24
X4.09Y-5.34
X4.09Y-5.44
X4.09Y-5.54
X4.185Y-3.81
X4.185Y-4.51
X4.285Y-3.81
X4.285Y-4.51
X4.3006Y-2.485
X4.38Y-4.84
X4.38Y-4.94
X4.38Y-5.04
X4.38Y-5.14
X4.38Y-5.24
X4.38Y-5.34
X4.38Y-5.44
X4.38Y-5.54
X4.385Y-3.81
X4.385Y-4.51
X4.4006Y-2.485
X4.48Y-4.84
X4.48Y-4.94
X4.48Y-5.04
X4.48Y-5.14
X4.48Y-5.24
X4.48Y-5.34
X4.48Y-5.44
X4.48Y-5.54
X4.485Y-3.81
X4.485Y-4.51
X4.5006Y-2.485
X4.585Y-3.81
X4.585Y-4.51
X4.685Y-3.81
X4.685Y-4.51
X4.715Y-2.485
X4.715Y-2.585
X4.715Y-2.685
X4.715Y-2.9968
X4.715Y-3.0968
X4.715Y-3.1968
X4.77Y-4.8394
X4.77Y-4.9394
X4.77Y-5.0394
X4.77Y-5.1394
X4.77Y-5.2394
X4.77Y-5.3394
X4.77Y-5.4394
X4.77Y-5.5394
X4.785Y-3.81
X4.785Y-4.51
X4.87Y-2.485
X4.87Y-2.585
X4.87Y-2.685
X4.87Y-2.9968
X4.87Y-3.0968
X4.87Y-3.1968
X4.87Y-4.8394
X4.87Y-4.9394
X4.87Y-5.0394
X4.87Y-5.1394
X4.87Y-5.2394
X4.87Y-5.3394
X4.87Y-5.4394
X4.87Y-5.5394
X4.885Y-3.81
X4.885Y-4.51
X4.985Y-3.81
X4.985Y-4.51
X5.025Y-2.4862
X5.025Y-2.5862
X5.025Y-2.6862
X5.025Y-2.9968
X5.025Y-3.0968
X5.025Y-3.1968
X5.085Y-3.81
X5.085Y-4.51
X5.16Y-4.84
X5.16Y-4.94
X5.16Y-5.04
X5.16Y-5.14
X5.16Y-5.24
X5.16Y-5.34
X5.16Y-5.44
X5.16Y-5.54
X5.18Y-2.4862
X5.18Y-2.5862
X5.18Y-2.6862
X5.18Y-2.9968
X5.18Y-3.0968
X5.18Y-3.1968
X5.185Y-3.81
X5.185Y-4.51
X5.26Y-4.84
X5.26Y-4.94
X5.26Y-5.04
X5.26Y-5.14
X5.26Y-5.24
X5.26Y-5.34
X5.26Y-5.44
X5.26Y-5.54
X5.285Y-3.81
X5.285Y-4.51
X5.335Y-2.4862
X5.335Y-2.5862
X5.335Y-2.6862
X5.335Y-2.9968
X5.335Y-3.0968
X5.335Y-3.1968
X5.385Y-3.81
X5.385Y-4.51
X5.485Y-3.81
X5.485Y-4.51
X5.49Y-2.4862
X5.49Y-2.5862
X5.49Y-2.6862
X5.49Y-2.9968
X5.49Y-3.0968
X5.49Y-3.1968
X5.55Y-4.84
X5.55Y-4.94
X5.55Y-5.04
X5.55Y-5.14
X5.55Y-5.24
X5.55Y-5.34
X5.55Y-5.44
X5.55Y-5.54
X5.645Y-2.485
X5.645Y-2.585
X5.645Y-2.685
X5.645Y-2.9968
X5.645Y-3.0968
X5.645Y-3.1968
X5.65Y-4.84
X5.65Y-4.94
X5.65Y-5.04
X5.65Y-5.14
X5.65Y-5.24
X5.65Y-5.34
X5.65Y-5.44
X5.65Y-5.54
X5.795Y-3.7904
X5.795Y-3.8904
X5.795Y-3.9904
X5.795Y-4.0904
X5.795Y-4.27
X5.795Y-4.37
X5.795Y-4.47
X5.795Y-4.57
X5.8Y-2.485
X5.8Y-2.585
X5.8Y-2.685
X5.8Y-2.9968
X5.8Y-3.0968
X5.8Y-3.1968
X5.94Y-4.84
X5.94Y-4.94
X5.94Y-5.04
X5.94Y-5.14
X5.94Y-5.24
X5.94Y-5.34
X5.94Y-5.44
X5.94Y-5.54
X5.955Y-2.485
X5.955Y-2.585
X5.955Y-2.735
X5.955Y-2.835
X5.9556Y-2.9852
X5.9556Y-3.0852
X5.9556Y-3.2369
X5.9556Y-3.3369
X6.04Y-4.84
X6.04Y-4.94
X6.04Y-5.04
X6.04Y-5.14
X6.04Y-5.24
X6.04Y-5.34
X6.04Y-5.44
X6.04Y-5.54
X6.055Y-2.485
X6.055Y-2.585
X6.055Y-2.735
X6.055Y-2.835
X6.0556Y-2.9852
X6.0556Y-3.0852
X6.0556Y-3.2369
X6.0556Y-3.3369
X6.155Y-2.485
X6.155Y-2.585
X6.155Y-2.735
X6.155Y-2.835
X6.1556Y-2.9852
X6.1556Y-3.0852
X6.1556Y-3.2369
X6.1556Y-3.3369
X6.305Y-2.485
X6.305Y-2.585
X6.305Y-2.735
X6.305Y-2.835
X6.305Y-2.985
X6.305Y-3.085
X6.3263Y-4.84
X6.3263Y-4.94
X6.3263Y-5.04
X6.3263Y-5.14
X6.3263Y-5.24
X6.3263Y-5.34
X6.3263Y-5.44
X6.3263Y-5.54
X6.405Y-2.485
X6.405Y-2.585
X6.405Y-2.735
X6.405Y-2.835
X6.405Y-2.985
X6.405Y-3.085
X6.4263Y-4.84
X6.4263Y-4.94
X6.4263Y-5.04
X6.4263Y-5.14
X6.4263Y-5.24
X6.4263Y-5.34
X6.4263Y-5.44
X6.4263Y-5.54
X6.505Y-2.485
X6.505Y-2.585
X6.505Y-2.735
X6.505Y-2.835
X6.505Y-2.985
X6.505Y-3.085
X6.655Y-2.485
X6.655Y-2.585
X6.655Y-2.745
X6.655Y-2.845
X6.655Y-3.01
X6.655Y-3.11
X6.655Y-3.2752
X6.655Y-3.3752
X6.655Y-3.5302
X6.655Y-3.6302
X6.655Y-3.7902
X6.655Y-3.8902
X6.655Y-4.0552
X6.655Y-4.1552
X6.655Y-4.3202
X6.655Y-4.4202
X6.755Y-2.485
X6.755Y-2.585
X6.755Y-2.745
X6.755Y-2.845
X6.755Y-3.01
X6.755Y-3.11
X6.755Y-3.2752
X6.755Y-3.3752
X6.755Y-3.5302
X6.755Y-3.6302
X6.755Y-3.7902
X6.755Y-3.8902
X6.755Y-4.0552
X6.755Y-4.1552
X6.755Y-4.3202
X6.755Y-4.4202
X6.855Y-2.485
X6.855Y-2.585
X6.855Y-2.745
X6.855Y-2.845
X6.855Y-3.01
X6.855Y-3.11
X6.855Y-3.2752
X6.855Y-3.3752
X6.855Y-3.5302
X6.855Y-3.6302
X6.855Y-3.7902
X6.855Y-3.8902
X6.855Y-4.0552
X6.855Y-4.1552
X6.855Y-4.3202
X6.855Y-4.4202
X6.955Y-2.485
X6.955Y-2.585
X6.955Y-2.745
X6.955Y-2.845
X6.955Y-3.01
X6.955Y-3.11
X6.955Y-3.2752
X6.955Y-3.3752
X6.955Y-3.5302
X6.955Y-3.6302
X6.955Y-3.7902
X6.955Y-3.8902
X6.955Y-4.0552
X6.955Y-4.1552
X6.955Y-4.3202
X6.955Y-4.4202
X7.055Y-2.485
X7.055Y-2.585
X7.055Y-2.745
X7.055Y-2.845
X7.055Y-3.01
X7.055Y-3.11
X7.055Y-3.2752
X7.055Y-3.3752
X7.055Y-3.5302
X7.055Y-3.6302
X7.055Y-3.7902
X7.055Y-3.8902
X7.055Y-4.0552
X7.055Y-4.1552
X7.055Y-4.3202
X7.055Y-4.4202
X7.155Y-2.485
X7.155Y-2.585
X7.155Y-2.745
X7.155Y-2.845
X7.155Y-3.01
X7.155Y-3.11
X7.155Y-3.2752
X7.155Y-3.3752
X7.155Y-3.5302
X7.155Y-3.6302
X7.155Y-3.7902
X7.155Y-3.8902
X7.155Y-4.0552
X7.155Y-4.1552
X7.155Y-4.3202
X7.155Y-4.4202
X7.255Y-2.485
X7.255Y-2.585
X7.255Y-2.745
X7.255Y-2.845
X7.255Y-3.01
X7.255Y-3.11
X7.255Y-3.2752
X7.255Y-3.3752
X7.255Y-3.5302
X7.255Y-3.6302
X7.255Y-3.7902
X7.255Y-3.8902
X7.255Y-4.0552
X7.255Y-4.1552
X7.255Y-4.3202
X7.255Y-4.4202
X7.355Y-2.485
X7.355Y-2.585
X7.355Y-2.745
X7.355Y-2.845
X7.355Y-3.01
X7.355Y-3.11
X7.355Y-3.2752
X7.355Y-3.3752
X7.355Y-3.5302
X7.355Y-3.6302
X7.355Y-3.7902
X7.355Y-3.8902
X7.355Y-4.0552
X7.355Y-4.1552
X7.355Y-4.3202
X7.355Y-4.4202
T3
X3.61Y-2.315
X3.61Y-5.705
X7.335Y-5.705
X7.34Y-2.31
T2
G00X3.835Y-2.5629
M15
G01X3.835Y-2.6417
M16
G05
G00X3.9137Y-2.7873
M15
G01X3.9925Y-2.7873
M16
G05
G00X4.0712Y-2.5629
M15
G01X4.0712Y-2.6417
M16
G05
M30
