%TF.GenerationSoftware,KiCad,Pcbnew,8.0.8*%
%TF.CreationDate,2025-03-09T11:30:45-03:00*%
%TF.ProjectId,pi_controller,70695f63-6f6e-4747-926f-6c6c65722e6b,1.0*%
%TF.SameCoordinates,Original*%
%TF.FileFunction,Soldermask,Bot*%
%TF.FilePolarity,Negative*%
%FSLAX46Y46*%
G04 Gerber Fmt 4.6, Leading zero omitted, Abs format (unit mm)*
G04 Created by KiCad (PCBNEW 8.0.8) date 2025-03-09 11:30:46*
%MOMM*%
%LPD*%
G01*
G04 APERTURE LIST*
G04 Aperture macros list*
%AMRoundRect*
0 Rectangle with rounded corners*
0 $1 Rounding radius*
0 $2 $3 $4 $5 $6 $7 $8 $9 X,Y pos of 4 corners*
0 Add a 4 corners polygon primitive as box body*
4,1,4,$2,$3,$4,$5,$6,$7,$8,$9,$2,$3,0*
0 Add four circle primitives for the rounded corners*
1,1,$1+$1,$2,$3*
1,1,$1+$1,$4,$5*
1,1,$1+$1,$6,$7*
1,1,$1+$1,$8,$9*
0 Add four rect primitives between the rounded corners*
20,1,$1+$1,$2,$3,$4,$5,0*
20,1,$1+$1,$4,$5,$6,$7,0*
20,1,$1+$1,$6,$7,$8,$9,0*
20,1,$1+$1,$8,$9,$2,$3,0*%
%AMFreePoly0*
4,1,28,0.605014,0.794986,0.644504,0.794986,0.724698,0.756366,0.780194,0.686777,0.800000,0.600000,0.800000,-0.600000,0.780194,-0.686777,0.724698,-0.756366,0.644504,-0.794986,0.605014,-0.794986,0.600000,-0.800000,0.000000,-0.800000,-0.178017,-0.779942,-0.347107,-0.720775,-0.498792,-0.625465,-0.625465,-0.498792,-0.720775,-0.347107,-0.779942,-0.178017,-0.800000,0.000000,-0.779942,0.178017,
-0.720775,0.347107,-0.625465,0.498792,-0.498792,0.625465,-0.347107,0.720775,-0.178017,0.779942,0.000000,0.800000,0.600000,0.800000,0.605014,0.794986,0.605014,0.794986,$1*%
%AMFreePoly1*
4,1,28,0.178017,0.779942,0.347107,0.720775,0.498792,0.625465,0.625465,0.498792,0.720775,0.347107,0.779942,0.178017,0.800000,0.000000,0.779942,-0.178017,0.720775,-0.347107,0.625465,-0.498792,0.498792,-0.625465,0.347107,-0.720775,0.178017,-0.779942,0.000000,-0.800000,-0.600000,-0.800000,-0.605014,-0.794986,-0.644504,-0.794986,-0.724698,-0.756366,-0.780194,-0.686777,-0.800000,-0.600000,
-0.800000,0.600000,-0.780194,0.686777,-0.724698,0.756366,-0.644504,0.794986,-0.605014,0.794986,-0.600000,0.800000,0.000000,0.800000,0.178017,0.779942,0.178017,0.779942,$1*%
G04 Aperture macros list end*
%ADD10R,3.500000X3.500000*%
%ADD11RoundRect,0.750000X-0.750000X-1.000000X0.750000X-1.000000X0.750000X1.000000X-0.750000X1.000000X0*%
%ADD12RoundRect,0.875000X-0.875000X-0.875000X0.875000X-0.875000X0.875000X0.875000X-0.875000X0.875000X0*%
%ADD13RoundRect,0.200000X0.600000X-0.600000X0.600000X0.600000X-0.600000X0.600000X-0.600000X-0.600000X0*%
%ADD14C,1.600000*%
%ADD15FreePoly0,90.000000*%
%ADD16FreePoly1,90.000000*%
%ADD17C,4.000000*%
%ADD18C,2.600000*%
%ADD19C,3.800000*%
%ADD20R,1.700000X1.700000*%
%ADD21O,1.700000X1.700000*%
G04 APERTURE END LIST*
D10*
%TO.C,J2*%
X103409000Y-66098500D03*
D11*
X97409000Y-66098500D03*
D12*
X100409000Y-70798500D03*
%TD*%
D13*
%TO.C,U4*%
X91059000Y-114554000D03*
D14*
X93599000Y-114554000D03*
D15*
X96139000Y-114554000D03*
D14*
X98679000Y-114554000D03*
X101219000Y-114554000D03*
X103759000Y-114554000D03*
X106299000Y-114554000D03*
D15*
X108839000Y-114554000D03*
D14*
X111379000Y-114554000D03*
X113919000Y-114554000D03*
X116459000Y-114554000D03*
X118999000Y-114554000D03*
D15*
X121539000Y-114554000D03*
D14*
X124079000Y-114554000D03*
X126619000Y-114554000D03*
X129159000Y-114554000D03*
X131699000Y-114554000D03*
D15*
X134239000Y-114554000D03*
D14*
X136779000Y-114554000D03*
X139319000Y-114554000D03*
X139319000Y-96774000D03*
X136779000Y-96774000D03*
D16*
X134239000Y-96774000D03*
D14*
X131699000Y-96774000D03*
X129159000Y-96774000D03*
X126619000Y-96774000D03*
X124079000Y-96774000D03*
D16*
X121539000Y-96774000D03*
D14*
X118999000Y-96774000D03*
X116459000Y-96774000D03*
X113919000Y-96774000D03*
X111379000Y-96774000D03*
D16*
X108839000Y-96774000D03*
D14*
X106299000Y-96774000D03*
X103759000Y-96774000D03*
X101219000Y-96774000D03*
X98679000Y-96774000D03*
D16*
X96139000Y-96774000D03*
D14*
X93599000Y-96774000D03*
X91059000Y-96774000D03*
%TD*%
D17*
%TO.C,TP2*%
X110871000Y-105664000D03*
%TD*%
%TO.C,TP3*%
X103812666Y-105664000D03*
%TD*%
%TO.C,TP4*%
X96647000Y-105664000D03*
%TD*%
%TO.C,TP1*%
X117602000Y-105791000D03*
%TD*%
D18*
%TO.C,H3*%
X91694000Y-144907000D03*
D19*
X91694000Y-144907000D03*
%TD*%
D18*
%TO.C,H2*%
X186436000Y-58674000D03*
D19*
X186436000Y-58674000D03*
%TD*%
D18*
%TO.C,H1*%
X91694000Y-58801000D03*
D19*
X91694000Y-58801000D03*
%TD*%
D18*
%TO.C,H4*%
X186309000Y-144907000D03*
D19*
X186309000Y-144907000D03*
%TD*%
D20*
%TO.C,J23*%
X160147000Y-65659000D03*
D21*
X160147000Y-63119000D03*
X162687000Y-65659000D03*
X162687000Y-63119000D03*
X165227000Y-65659000D03*
X165227000Y-63119000D03*
%TD*%
D20*
%TO.C,J22*%
X151257000Y-65659000D03*
D21*
X151257000Y-63119000D03*
X153797000Y-65659000D03*
X153797000Y-63119000D03*
X156337000Y-65659000D03*
X156337000Y-63119000D03*
%TD*%
D20*
%TO.C,J21*%
X151272000Y-78363999D03*
D21*
X151272000Y-75823999D03*
X153812000Y-78363999D03*
X153812000Y-75823999D03*
X156352000Y-78363999D03*
X156352000Y-75823999D03*
%TD*%
D20*
%TO.C,J20*%
X160147000Y-72009000D03*
D21*
X160147000Y-69469000D03*
X162687000Y-72009000D03*
X162687000Y-69469000D03*
X165227000Y-72009000D03*
X165227000Y-69469000D03*
%TD*%
D20*
%TO.C,J19*%
X160147000Y-78359000D03*
D21*
X160147000Y-75819000D03*
X162687000Y-78359000D03*
X162687000Y-75819000D03*
X165227000Y-78359000D03*
X165227000Y-75819000D03*
%TD*%
D20*
%TO.C,J18*%
X151257000Y-72009000D03*
D21*
X151257000Y-69469000D03*
X153797000Y-72009000D03*
X153797000Y-69469000D03*
X156337000Y-72009000D03*
X156337000Y-69469000D03*
%TD*%
D20*
%TO.C,J17*%
X151272000Y-84756332D03*
D21*
X151272000Y-82216332D03*
X153812000Y-84756332D03*
X153812000Y-82216332D03*
X156352000Y-84756332D03*
X156352000Y-82216332D03*
%TD*%
%TO.C,J43*%
X160688000Y-122936000D03*
X163228000Y-122936000D03*
X160688000Y-125476000D03*
X163228000Y-125476000D03*
X160688000Y-128016000D03*
X163228000Y-128016000D03*
X160688000Y-130556000D03*
X163228000Y-130556000D03*
X160688000Y-133096000D03*
X163228000Y-133096000D03*
X160688000Y-135636000D03*
X163228000Y-135636000D03*
X160688000Y-138176000D03*
X163228000Y-138176000D03*
X160688000Y-140716000D03*
D20*
X163228000Y-140716000D03*
%TD*%
%TO.C,J42*%
X153416000Y-140716000D03*
D21*
X150876000Y-140716000D03*
X153416000Y-138176000D03*
X150876000Y-138176000D03*
X153416000Y-135636000D03*
X150876000Y-135636000D03*
X153416000Y-133096000D03*
X150876000Y-133096000D03*
X153416000Y-130556000D03*
X150876000Y-130556000D03*
X153416000Y-128016000D03*
X150876000Y-128016000D03*
X153416000Y-125476000D03*
X150876000Y-125476000D03*
X153416000Y-122936000D03*
X150876000Y-122936000D03*
%TD*%
D20*
%TO.C,J41*%
X143510000Y-140716000D03*
D21*
X140970000Y-140716000D03*
X143510000Y-138176000D03*
X140970000Y-138176000D03*
X143510000Y-135636000D03*
X140970000Y-135636000D03*
X143510000Y-133096000D03*
X140970000Y-133096000D03*
X143510000Y-130556000D03*
X140970000Y-130556000D03*
X143510000Y-128016000D03*
X140970000Y-128016000D03*
X143510000Y-125476000D03*
X140970000Y-125476000D03*
X143510000Y-122936000D03*
X140970000Y-122936000D03*
%TD*%
D20*
%TO.C,J40*%
X123698000Y-140700210D03*
D21*
X121158000Y-140700210D03*
X123698000Y-138160210D03*
X121158000Y-138160210D03*
X123698000Y-135620210D03*
X121158000Y-135620210D03*
X123698000Y-133080210D03*
X121158000Y-133080210D03*
X123698000Y-130540210D03*
X121158000Y-130540210D03*
X123698000Y-128000210D03*
X121158000Y-128000210D03*
X123698000Y-125460210D03*
X121158000Y-125460210D03*
X123698000Y-122920210D03*
X121158000Y-122920210D03*
%TD*%
%TO.C,J37*%
X101346000Y-122936000D03*
X103886000Y-122936000D03*
X101346000Y-125476000D03*
X103886000Y-125476000D03*
X101346000Y-128016000D03*
X103886000Y-128016000D03*
X101346000Y-130556000D03*
X103886000Y-130556000D03*
X101346000Y-133096000D03*
X103886000Y-133096000D03*
X101346000Y-135636000D03*
X103886000Y-135636000D03*
X101346000Y-138176000D03*
X103886000Y-138176000D03*
X101346000Y-140716000D03*
D20*
X103886000Y-140716000D03*
%TD*%
D21*
%TO.C,J36*%
X91440000Y-122936000D03*
X93980000Y-122936000D03*
X91440000Y-125476000D03*
X93980000Y-125476000D03*
X91440000Y-128016000D03*
X93980000Y-128016000D03*
X91440000Y-130556000D03*
X93980000Y-130556000D03*
X91440000Y-133096000D03*
X93980000Y-133096000D03*
X91440000Y-135636000D03*
X93980000Y-135636000D03*
X91440000Y-138176000D03*
X93980000Y-138176000D03*
X91440000Y-140716000D03*
D20*
X93980000Y-140716000D03*
%TD*%
%TO.C,J25*%
X147320000Y-68199000D03*
D21*
X147320000Y-65659000D03*
X147320000Y-63119000D03*
%TD*%
D20*
%TO.C,J14*%
X139446000Y-68229000D03*
D21*
X139446000Y-65689000D03*
X139446000Y-63149000D03*
%TD*%
D20*
%TO.C,J3*%
X131572000Y-68229000D03*
D21*
X131572000Y-65689000D03*
X131572000Y-63149000D03*
%TD*%
D20*
%TO.C,J13*%
X123698000Y-68199000D03*
D21*
X123698000Y-65659000D03*
X123698000Y-63119000D03*
%TD*%
D20*
%TO.C,J12*%
X119761000Y-76118000D03*
D21*
X119761000Y-78658000D03*
X119761000Y-81198000D03*
%TD*%
D20*
%TO.C,J11*%
X127635000Y-76118000D03*
D21*
X127635000Y-78658000D03*
X127635000Y-81198000D03*
%TD*%
D20*
%TO.C,J10*%
X135509000Y-76118000D03*
D21*
X135509000Y-78658000D03*
X135509000Y-81198000D03*
%TD*%
D20*
%TO.C,J16*%
X143383000Y-76118000D03*
D21*
X143383000Y-78658000D03*
X143383000Y-81198000D03*
%TD*%
D20*
%TO.C,J15*%
X143383000Y-68199000D03*
D21*
X143383000Y-65659000D03*
X143383000Y-63119000D03*
%TD*%
D20*
%TO.C,J9*%
X135509000Y-68229000D03*
D21*
X135509000Y-65689000D03*
X135509000Y-63149000D03*
%TD*%
D20*
%TO.C,J6*%
X127635000Y-68229000D03*
D21*
X127635000Y-65689000D03*
X127635000Y-63149000D03*
%TD*%
D20*
%TO.C,J5*%
X119761000Y-68199000D03*
D21*
X119761000Y-65659000D03*
X119761000Y-63119000D03*
%TD*%
D20*
%TO.C,J4*%
X123698000Y-76118000D03*
D21*
X123698000Y-78658000D03*
X123698000Y-81198000D03*
%TD*%
D20*
%TO.C,J7*%
X131572000Y-76118000D03*
D21*
X131572000Y-78658000D03*
X131572000Y-81198000D03*
%TD*%
D20*
%TO.C,J8*%
X139446000Y-76118000D03*
D21*
X139446000Y-78658000D03*
X139446000Y-81198000D03*
%TD*%
D20*
%TO.C,J24*%
X147320000Y-76118000D03*
D21*
X147320000Y-78658000D03*
X147320000Y-81198000D03*
%TD*%
%TO.C,J1*%
X114315000Y-63119000D03*
X111775000Y-63119000D03*
D20*
X109235000Y-63119000D03*
%TD*%
%TO.C,J31*%
X147193000Y-108458000D03*
D21*
X147193000Y-110998000D03*
X147193000Y-113538000D03*
X147193000Y-116078000D03*
%TD*%
%TO.C,J30*%
X147193000Y-103896000D03*
X147193000Y-101356000D03*
X147193000Y-98816000D03*
D20*
X147193000Y-96276000D03*
%TD*%
D21*
%TO.C,J39*%
X131064000Y-122936000D03*
X133604000Y-122936000D03*
X131064000Y-125476000D03*
X133604000Y-125476000D03*
X131064000Y-128016000D03*
X133604000Y-128016000D03*
X131064000Y-130556000D03*
X133604000Y-130556000D03*
X131064000Y-133096000D03*
X133604000Y-133096000D03*
X131064000Y-135636000D03*
X133604000Y-135636000D03*
X131064000Y-138176000D03*
X133604000Y-138176000D03*
X131064000Y-140716000D03*
D20*
X133604000Y-140716000D03*
%TD*%
%TO.C,J38*%
X113792000Y-140716000D03*
D21*
X111252000Y-140716000D03*
X113792000Y-138176000D03*
X111252000Y-138176000D03*
X113792000Y-135636000D03*
X111252000Y-135636000D03*
X113792000Y-133096000D03*
X111252000Y-133096000D03*
X113792000Y-130556000D03*
X111252000Y-130556000D03*
X113792000Y-128016000D03*
X111252000Y-128016000D03*
X113792000Y-125476000D03*
X111252000Y-125476000D03*
X113792000Y-122936000D03*
X111252000Y-122936000D03*
%TD*%
%TO.C,J27*%
X186817000Y-83190000D03*
X186817000Y-85730000D03*
X184277000Y-83190000D03*
X184277000Y-85730000D03*
X181737000Y-83190000D03*
X181737000Y-85730000D03*
X179197000Y-83190000D03*
X179197000Y-85730000D03*
X176657000Y-83190000D03*
X176657000Y-85730000D03*
X174117000Y-83190000D03*
X174117000Y-85730000D03*
X171577000Y-83190000D03*
X171577000Y-85730000D03*
X169037000Y-83190000D03*
D20*
X169037000Y-85730000D03*
%TD*%
D21*
%TO.C,J28*%
X186817000Y-69723000D03*
X186817000Y-72263000D03*
X184277000Y-69723000D03*
X184277000Y-72263000D03*
X181737000Y-69723000D03*
X181737000Y-72263000D03*
X179197000Y-69723000D03*
X179197000Y-72263000D03*
X176657000Y-69723000D03*
X176657000Y-72263000D03*
X174117000Y-69723000D03*
X174117000Y-72263000D03*
X171577000Y-69723000D03*
X171577000Y-72263000D03*
X169037000Y-69723000D03*
D20*
X169037000Y-72263000D03*
%TD*%
D21*
%TO.C,J35*%
X186817000Y-89667000D03*
X186817000Y-92207000D03*
X184277000Y-89667000D03*
X184277000Y-92207000D03*
X181737000Y-89667000D03*
X181737000Y-92207000D03*
X179197000Y-89667000D03*
X179197000Y-92207000D03*
X176657000Y-89667000D03*
X176657000Y-92207000D03*
X174117000Y-89667000D03*
X174117000Y-92207000D03*
X171577000Y-89667000D03*
X171577000Y-92207000D03*
X169037000Y-89667000D03*
D20*
X169037000Y-92207000D03*
%TD*%
D21*
%TO.C,J29*%
X186817000Y-63119000D03*
X186817000Y-65659000D03*
X184277000Y-63119000D03*
X184277000Y-65659000D03*
X181737000Y-63119000D03*
X181737000Y-65659000D03*
X179197000Y-63119000D03*
X179197000Y-65659000D03*
X176657000Y-63119000D03*
X176657000Y-65659000D03*
X174117000Y-63119000D03*
X174117000Y-65659000D03*
X171577000Y-63119000D03*
X171577000Y-65659000D03*
X169037000Y-63119000D03*
D20*
X169037000Y-65659000D03*
%TD*%
D21*
%TO.C,J34*%
X186817000Y-103002000D03*
X186817000Y-105542000D03*
X184277000Y-103002000D03*
X184277000Y-105542000D03*
X181737000Y-103002000D03*
X181737000Y-105542000D03*
X179197000Y-103002000D03*
X179197000Y-105542000D03*
X176657000Y-103002000D03*
X176657000Y-105542000D03*
X174117000Y-103002000D03*
X174117000Y-105542000D03*
X171577000Y-103002000D03*
X171577000Y-105542000D03*
X169037000Y-103002000D03*
D20*
X169037000Y-105542000D03*
%TD*%
D21*
%TO.C,J26*%
X186817000Y-76454000D03*
X186817000Y-78994000D03*
X184277000Y-76454000D03*
X184277000Y-78994000D03*
X181737000Y-76454000D03*
X181737000Y-78994000D03*
X179197000Y-76454000D03*
X179197000Y-78994000D03*
X176657000Y-76454000D03*
X176657000Y-78994000D03*
X174117000Y-76454000D03*
X174117000Y-78994000D03*
X171577000Y-76454000D03*
X171577000Y-78994000D03*
X169037000Y-76454000D03*
D20*
X169037000Y-78994000D03*
%TD*%
D21*
%TO.C,J33*%
X186817000Y-109733000D03*
X186817000Y-112273000D03*
X184277000Y-109733000D03*
X184277000Y-112273000D03*
X181737000Y-109733000D03*
X181737000Y-112273000D03*
X179197000Y-109733000D03*
X179197000Y-112273000D03*
X176657000Y-109733000D03*
X176657000Y-112273000D03*
X174117000Y-109733000D03*
X174117000Y-112273000D03*
X171577000Y-109733000D03*
X171577000Y-112273000D03*
X169037000Y-109733000D03*
D20*
X169037000Y-112273000D03*
%TD*%
D21*
%TO.C,J32*%
X186817000Y-96271000D03*
X186817000Y-98811000D03*
X184277000Y-96271000D03*
X184277000Y-98811000D03*
X181737000Y-96271000D03*
X181737000Y-98811000D03*
X179197000Y-96271000D03*
X179197000Y-98811000D03*
X176657000Y-96271000D03*
X176657000Y-98811000D03*
X174117000Y-96271000D03*
X174117000Y-98811000D03*
X171577000Y-96271000D03*
X171577000Y-98811000D03*
X169037000Y-96271000D03*
D20*
X169037000Y-98811000D03*
%TD*%
M02*
