%TF.GenerationSoftware,KiCad,Pcbnew,8.0.8*%
%TF.CreationDate,2025-03-09T11:30:45-03:00*%
%TF.ProjectId,pi_controller,70695f63-6f6e-4747-926f-6c6c65722e6b,1.0*%
%TF.SameCoordinates,Original*%
%TF.FileFunction,Soldermask,Top*%
%TF.FilePolarity,Negative*%
%FSLAX46Y46*%
G04 Gerber Fmt 4.6, Leading zero omitted, Abs format (unit mm)*
G04 Created by KiCad (PCBNEW 8.0.8) date 2025-03-09 11:30:45*
%MOMM*%
%LPD*%
G01*
G04 APERTURE LIST*
G04 Aperture macros list*
%AMRoundRect*
0 Rectangle with rounded corners*
0 $1 Rounding radius*
0 $2 $3 $4 $5 $6 $7 $8 $9 X,Y pos of 4 corners*
0 Add a 4 corners polygon primitive as box body*
4,1,4,$2,$3,$4,$5,$6,$7,$8,$9,$2,$3,0*
0 Add four circle primitives for the rounded corners*
1,1,$1+$1,$2,$3*
1,1,$1+$1,$4,$5*
1,1,$1+$1,$6,$7*
1,1,$1+$1,$8,$9*
0 Add four rect primitives between the rounded corners*
20,1,$1+$1,$2,$3,$4,$5,0*
20,1,$1+$1,$4,$5,$6,$7,0*
20,1,$1+$1,$6,$7,$8,$9,0*
20,1,$1+$1,$8,$9,$2,$3,0*%
%AMFreePoly0*
4,1,28,0.605014,0.794986,0.644504,0.794986,0.724698,0.756366,0.780194,0.686777,0.800000,0.600000,0.800000,-0.600000,0.780194,-0.686777,0.724698,-0.756366,0.644504,-0.794986,0.605014,-0.794986,0.600000,-0.800000,0.000000,-0.800000,-0.178017,-0.779942,-0.347107,-0.720775,-0.498792,-0.625465,-0.625465,-0.498792,-0.720775,-0.347107,-0.779942,-0.178017,-0.800000,0.000000,-0.779942,0.178017,
-0.720775,0.347107,-0.625465,0.498792,-0.498792,0.625465,-0.347107,0.720775,-0.178017,0.779942,0.000000,0.800000,0.600000,0.800000,0.605014,0.794986,0.605014,0.794986,$1*%
%AMFreePoly1*
4,1,28,0.178017,0.779942,0.347107,0.720775,0.498792,0.625465,0.625465,0.498792,0.720775,0.347107,0.779942,0.178017,0.800000,0.000000,0.779942,-0.178017,0.720775,-0.347107,0.625465,-0.498792,0.498792,-0.625465,0.347107,-0.720775,0.178017,-0.779942,0.000000,-0.800000,-0.600000,-0.800000,-0.605014,-0.794986,-0.644504,-0.794986,-0.724698,-0.756366,-0.780194,-0.686777,-0.800000,-0.600000,
-0.800000,0.600000,-0.780194,0.686777,-0.724698,0.756366,-0.644504,0.794986,-0.605014,0.794986,-0.600000,0.800000,0.000000,0.800000,0.178017,0.779942,0.178017,0.779942,$1*%
G04 Aperture macros list end*
%ADD10R,3.500000X3.500000*%
%ADD11RoundRect,0.750000X-0.750000X-1.000000X0.750000X-1.000000X0.750000X1.000000X-0.750000X1.000000X0*%
%ADD12RoundRect,0.875000X-0.875000X-0.875000X0.875000X-0.875000X0.875000X0.875000X-0.875000X0.875000X0*%
%ADD13RoundRect,0.200000X0.600000X-0.600000X0.600000X0.600000X-0.600000X0.600000X-0.600000X-0.600000X0*%
%ADD14C,1.600000*%
%ADD15FreePoly0,90.000000*%
%ADD16FreePoly1,90.000000*%
%ADD17C,2.600000*%
%ADD18C,3.800000*%
%ADD19R,1.700000X1.700000*%
%ADD20O,1.700000X1.700000*%
%ADD21RoundRect,0.250000X-0.925000X-1.500000X0.925000X-1.500000X0.925000X1.500000X-0.925000X1.500000X0*%
%ADD22R,0.450000X1.750000*%
%ADD23RoundRect,0.137500X-0.862500X-0.137500X0.862500X-0.137500X0.862500X0.137500X-0.862500X0.137500X0*%
%ADD24RoundRect,0.150000X0.150000X-0.825000X0.150000X0.825000X-0.150000X0.825000X-0.150000X-0.825000X0*%
%ADD25RoundRect,0.150000X0.825000X0.150000X-0.825000X0.150000X-0.825000X-0.150000X0.825000X-0.150000X0*%
%ADD26RoundRect,0.150000X0.150000X-0.587500X0.150000X0.587500X-0.150000X0.587500X-0.150000X-0.587500X0*%
%ADD27RoundRect,0.150000X0.512500X0.150000X-0.512500X0.150000X-0.512500X-0.150000X0.512500X-0.150000X0*%
%ADD28RoundRect,0.237500X0.250000X0.237500X-0.250000X0.237500X-0.250000X-0.237500X0.250000X-0.237500X0*%
%ADD29RoundRect,0.237500X-0.237500X0.250000X-0.237500X-0.250000X0.237500X-0.250000X0.237500X0.250000X0*%
%ADD30RoundRect,0.237500X-0.250000X-0.237500X0.250000X-0.237500X0.250000X0.237500X-0.250000X0.237500X0*%
%ADD31RoundRect,0.237500X0.237500X-0.250000X0.237500X0.250000X-0.237500X0.250000X-0.237500X-0.250000X0*%
%ADD32RoundRect,0.250000X0.350000X-0.850000X0.350000X0.850000X-0.350000X0.850000X-0.350000X-0.850000X0*%
%ADD33RoundRect,0.249997X2.650003X-2.950003X2.650003X2.950003X-2.650003X2.950003X-2.650003X-2.950003X0*%
%ADD34RoundRect,0.125000X0.125000X0.125000X-0.125000X0.125000X-0.125000X-0.125000X0.125000X-0.125000X0*%
%ADD35RoundRect,0.250000X-0.450000X0.325000X-0.450000X-0.325000X0.450000X-0.325000X0.450000X0.325000X0*%
%ADD36RoundRect,0.100000X-0.100000X0.217500X-0.100000X-0.217500X0.100000X-0.217500X0.100000X0.217500X0*%
%ADD37RoundRect,0.100000X0.100000X-0.217500X0.100000X0.217500X-0.100000X0.217500X-0.100000X-0.217500X0*%
%ADD38RoundRect,0.100000X-0.217500X-0.100000X0.217500X-0.100000X0.217500X0.100000X-0.217500X0.100000X0*%
%ADD39RoundRect,0.250000X-0.650000X0.412500X-0.650000X-0.412500X0.650000X-0.412500X0.650000X0.412500X0*%
%ADD40RoundRect,0.100000X0.217500X0.100000X-0.217500X0.100000X-0.217500X-0.100000X0.217500X-0.100000X0*%
%ADD41RoundRect,0.237500X-0.237500X0.300000X-0.237500X-0.300000X0.237500X-0.300000X0.237500X0.300000X0*%
%ADD42RoundRect,0.237500X-0.300000X-0.237500X0.300000X-0.237500X0.300000X0.237500X-0.300000X0.237500X0*%
%ADD43RoundRect,0.250000X0.650000X-0.412500X0.650000X0.412500X-0.650000X0.412500X-0.650000X-0.412500X0*%
G04 APERTURE END LIST*
D10*
%TO.C,J2*%
X103409000Y-66098500D03*
D11*
X97409000Y-66098500D03*
D12*
X100409000Y-70798500D03*
%TD*%
D13*
%TO.C,U4*%
X91059000Y-114554000D03*
D14*
X93599000Y-114554000D03*
D15*
X96139000Y-114554000D03*
D14*
X98679000Y-114554000D03*
X101219000Y-114554000D03*
X103759000Y-114554000D03*
X106299000Y-114554000D03*
D15*
X108839000Y-114554000D03*
D14*
X111379000Y-114554000D03*
X113919000Y-114554000D03*
X116459000Y-114554000D03*
X118999000Y-114554000D03*
D15*
X121539000Y-114554000D03*
D14*
X124079000Y-114554000D03*
X126619000Y-114554000D03*
X129159000Y-114554000D03*
X131699000Y-114554000D03*
D15*
X134239000Y-114554000D03*
D14*
X136779000Y-114554000D03*
X139319000Y-114554000D03*
X139319000Y-96774000D03*
X136779000Y-96774000D03*
D16*
X134239000Y-96774000D03*
D14*
X131699000Y-96774000D03*
X129159000Y-96774000D03*
X126619000Y-96774000D03*
X124079000Y-96774000D03*
D16*
X121539000Y-96774000D03*
D14*
X118999000Y-96774000D03*
X116459000Y-96774000D03*
X113919000Y-96774000D03*
X111379000Y-96774000D03*
D16*
X108839000Y-96774000D03*
D14*
X106299000Y-96774000D03*
X103759000Y-96774000D03*
X101219000Y-96774000D03*
X98679000Y-96774000D03*
D16*
X96139000Y-96774000D03*
D14*
X93599000Y-96774000D03*
X91059000Y-96774000D03*
%TD*%
D17*
%TO.C,H3*%
X91694000Y-144907000D03*
D18*
X91694000Y-144907000D03*
%TD*%
D17*
%TO.C,H2*%
X186436000Y-58674000D03*
D18*
X186436000Y-58674000D03*
%TD*%
D17*
%TO.C,H1*%
X91694000Y-58801000D03*
D18*
X91694000Y-58801000D03*
%TD*%
D17*
%TO.C,H4*%
X186309000Y-144907000D03*
D18*
X186309000Y-144907000D03*
%TD*%
D19*
%TO.C,J23*%
X160147000Y-65659000D03*
D20*
X160147000Y-63119000D03*
X162687000Y-65659000D03*
X162687000Y-63119000D03*
X165227000Y-65659000D03*
X165227000Y-63119000D03*
%TD*%
D19*
%TO.C,J22*%
X151257000Y-65659000D03*
D20*
X151257000Y-63119000D03*
X153797000Y-65659000D03*
X153797000Y-63119000D03*
X156337000Y-65659000D03*
X156337000Y-63119000D03*
%TD*%
D19*
%TO.C,J21*%
X151272000Y-78363999D03*
D20*
X151272000Y-75823999D03*
X153812000Y-78363999D03*
X153812000Y-75823999D03*
X156352000Y-78363999D03*
X156352000Y-75823999D03*
%TD*%
D19*
%TO.C,J20*%
X160147000Y-72009000D03*
D20*
X160147000Y-69469000D03*
X162687000Y-72009000D03*
X162687000Y-69469000D03*
X165227000Y-72009000D03*
X165227000Y-69469000D03*
%TD*%
D19*
%TO.C,J19*%
X160147000Y-78359000D03*
D20*
X160147000Y-75819000D03*
X162687000Y-78359000D03*
X162687000Y-75819000D03*
X165227000Y-78359000D03*
X165227000Y-75819000D03*
%TD*%
D19*
%TO.C,J18*%
X151257000Y-72009000D03*
D20*
X151257000Y-69469000D03*
X153797000Y-72009000D03*
X153797000Y-69469000D03*
X156337000Y-72009000D03*
X156337000Y-69469000D03*
%TD*%
D19*
%TO.C,J17*%
X151272000Y-84756332D03*
D20*
X151272000Y-82216332D03*
X153812000Y-84756332D03*
X153812000Y-82216332D03*
X156352000Y-84756332D03*
X156352000Y-82216332D03*
%TD*%
%TO.C,J43*%
X160688000Y-122936000D03*
X163228000Y-122936000D03*
X160688000Y-125476000D03*
X163228000Y-125476000D03*
X160688000Y-128016000D03*
X163228000Y-128016000D03*
X160688000Y-130556000D03*
X163228000Y-130556000D03*
X160688000Y-133096000D03*
X163228000Y-133096000D03*
X160688000Y-135636000D03*
X163228000Y-135636000D03*
X160688000Y-138176000D03*
X163228000Y-138176000D03*
X160688000Y-140716000D03*
D19*
X163228000Y-140716000D03*
%TD*%
%TO.C,J42*%
X153416000Y-140716000D03*
D20*
X150876000Y-140716000D03*
X153416000Y-138176000D03*
X150876000Y-138176000D03*
X153416000Y-135636000D03*
X150876000Y-135636000D03*
X153416000Y-133096000D03*
X150876000Y-133096000D03*
X153416000Y-130556000D03*
X150876000Y-130556000D03*
X153416000Y-128016000D03*
X150876000Y-128016000D03*
X153416000Y-125476000D03*
X150876000Y-125476000D03*
X153416000Y-122936000D03*
X150876000Y-122936000D03*
%TD*%
D19*
%TO.C,J41*%
X143510000Y-140716000D03*
D20*
X140970000Y-140716000D03*
X143510000Y-138176000D03*
X140970000Y-138176000D03*
X143510000Y-135636000D03*
X140970000Y-135636000D03*
X143510000Y-133096000D03*
X140970000Y-133096000D03*
X143510000Y-130556000D03*
X140970000Y-130556000D03*
X143510000Y-128016000D03*
X140970000Y-128016000D03*
X143510000Y-125476000D03*
X140970000Y-125476000D03*
X143510000Y-122936000D03*
X140970000Y-122936000D03*
%TD*%
D19*
%TO.C,J40*%
X123698000Y-140700210D03*
D20*
X121158000Y-140700210D03*
X123698000Y-138160210D03*
X121158000Y-138160210D03*
X123698000Y-135620210D03*
X121158000Y-135620210D03*
X123698000Y-133080210D03*
X121158000Y-133080210D03*
X123698000Y-130540210D03*
X121158000Y-130540210D03*
X123698000Y-128000210D03*
X121158000Y-128000210D03*
X123698000Y-125460210D03*
X121158000Y-125460210D03*
X123698000Y-122920210D03*
X121158000Y-122920210D03*
%TD*%
%TO.C,J37*%
X101346000Y-122936000D03*
X103886000Y-122936000D03*
X101346000Y-125476000D03*
X103886000Y-125476000D03*
X101346000Y-128016000D03*
X103886000Y-128016000D03*
X101346000Y-130556000D03*
X103886000Y-130556000D03*
X101346000Y-133096000D03*
X103886000Y-133096000D03*
X101346000Y-135636000D03*
X103886000Y-135636000D03*
X101346000Y-138176000D03*
X103886000Y-138176000D03*
X101346000Y-140716000D03*
D19*
X103886000Y-140716000D03*
%TD*%
D20*
%TO.C,J36*%
X91440000Y-122936000D03*
X93980000Y-122936000D03*
X91440000Y-125476000D03*
X93980000Y-125476000D03*
X91440000Y-128016000D03*
X93980000Y-128016000D03*
X91440000Y-130556000D03*
X93980000Y-130556000D03*
X91440000Y-133096000D03*
X93980000Y-133096000D03*
X91440000Y-135636000D03*
X93980000Y-135636000D03*
X91440000Y-138176000D03*
X93980000Y-138176000D03*
X91440000Y-140716000D03*
D19*
X93980000Y-140716000D03*
%TD*%
D21*
%TO.C,L1*%
X92075000Y-85257011D03*
X98125000Y-85257011D03*
%TD*%
D22*
%TO.C,U2*%
X111995000Y-92373000D03*
X112645000Y-92373000D03*
X113295000Y-92373000D03*
X113945000Y-92373000D03*
X114595000Y-92373000D03*
X115245000Y-92373000D03*
X115895000Y-92373000D03*
X116545000Y-92373000D03*
X117195000Y-92373000D03*
X117845000Y-92373000D03*
X118495000Y-92373000D03*
X119145000Y-92373000D03*
X119145000Y-85173000D03*
X118495000Y-85173000D03*
X117845000Y-85173000D03*
X117195000Y-85173000D03*
X116545000Y-85173000D03*
X115895000Y-85173000D03*
X115245000Y-85173000D03*
X114595000Y-85173000D03*
X113945000Y-85173000D03*
X113295000Y-85173000D03*
X112645000Y-85173000D03*
X111995000Y-85173000D03*
%TD*%
D23*
%TO.C,U6*%
X162638000Y-102108000D03*
X162638000Y-103378000D03*
X162638000Y-104648000D03*
X162638000Y-105918000D03*
X162638000Y-107188000D03*
X162638000Y-108458000D03*
X162638000Y-109728000D03*
X162638000Y-110998000D03*
X162638000Y-112268000D03*
X162638000Y-113538000D03*
X162638000Y-114808000D03*
X162638000Y-116078000D03*
X153338000Y-116078000D03*
X153338000Y-114808000D03*
X153338000Y-113538000D03*
X153338000Y-112268000D03*
X153338000Y-110998000D03*
X153338000Y-109728000D03*
X153338000Y-108458000D03*
X153338000Y-107188000D03*
X153338000Y-105918000D03*
X153338000Y-104648000D03*
X153338000Y-103378000D03*
X153338000Y-102108000D03*
%TD*%
D24*
%TO.C,U5*%
X153543000Y-97598000D03*
X154813000Y-97598000D03*
X156083000Y-97598000D03*
X157353000Y-97598000D03*
X158623000Y-97598000D03*
X159893000Y-97598000D03*
X161163000Y-97598000D03*
X162433000Y-97598000D03*
X162433000Y-92648000D03*
X161163000Y-92648000D03*
X159893000Y-92648000D03*
X158623000Y-92648000D03*
X157353000Y-92648000D03*
X156083000Y-92648000D03*
X154813000Y-92648000D03*
X153543000Y-92648000D03*
%TD*%
D25*
%TO.C,U7*%
X182053000Y-135255000D03*
X182053000Y-133985000D03*
X182053000Y-132715000D03*
X182053000Y-131445000D03*
X182053000Y-130175000D03*
X182053000Y-128905000D03*
X182053000Y-127635000D03*
X182053000Y-126365000D03*
X177103000Y-126365000D03*
X177103000Y-127635000D03*
X177103000Y-128905000D03*
X177103000Y-130175000D03*
X177103000Y-131445000D03*
X177103000Y-132715000D03*
X177103000Y-133985000D03*
X177103000Y-135255000D03*
%TD*%
D26*
%TO.C,U3*%
X104018000Y-92885500D03*
X105918000Y-92885500D03*
X104968000Y-91010500D03*
%TD*%
D27*
%TO.C,U1*%
X96890000Y-78122011D03*
X96890000Y-77172011D03*
X96890000Y-76222011D03*
X94615000Y-76222011D03*
X94615000Y-77172011D03*
X94615000Y-78122011D03*
%TD*%
D28*
%TO.C,R15*%
X160655000Y-120142000D03*
X162480000Y-120142000D03*
%TD*%
%TO.C,R14*%
X152701000Y-120142000D03*
X150876000Y-120142000D03*
%TD*%
%TO.C,R16*%
X142795000Y-120142000D03*
X140970000Y-120142000D03*
%TD*%
%TO.C,R13*%
X132889000Y-120142000D03*
X131064000Y-120142000D03*
%TD*%
%TO.C,R12*%
X122983000Y-120126210D03*
X121158000Y-120126210D03*
%TD*%
%TO.C,R11*%
X103171000Y-120142000D03*
X101346000Y-120142000D03*
%TD*%
%TO.C,R9*%
X93265000Y-120142000D03*
X91440000Y-120142000D03*
%TD*%
D29*
%TO.C,R6*%
X101346000Y-91338000D03*
X101346000Y-93163000D03*
%TD*%
D28*
%TO.C,R5*%
X112767500Y-79537000D03*
X110942500Y-79537000D03*
%TD*%
D29*
%TO.C,R4*%
X106680000Y-85515500D03*
X106680000Y-87340500D03*
%TD*%
D30*
%TO.C,R3*%
X110942500Y-77759000D03*
X112767500Y-77759000D03*
%TD*%
D28*
%TO.C,R2*%
X92633344Y-75063384D03*
X90808344Y-75063384D03*
%TD*%
D29*
%TO.C,R1*%
X94424338Y-74452127D03*
X94424338Y-72627127D03*
%TD*%
D31*
%TO.C,R8*%
X144399000Y-98806000D03*
X144399000Y-96981000D03*
%TD*%
D29*
%TO.C,R7*%
X144399000Y-100560500D03*
X144399000Y-102385500D03*
%TD*%
D32*
%TO.C,Q1*%
X113858500Y-75447000D03*
D33*
X111578500Y-69147000D03*
D32*
X109298500Y-75447000D03*
%TD*%
D19*
%TO.C,J25*%
X147320000Y-68199000D03*
D20*
X147320000Y-65659000D03*
X147320000Y-63119000D03*
%TD*%
D19*
%TO.C,J14*%
X139446000Y-68229000D03*
D20*
X139446000Y-65689000D03*
X139446000Y-63149000D03*
%TD*%
D19*
%TO.C,J3*%
X131572000Y-68229000D03*
D20*
X131572000Y-65689000D03*
X131572000Y-63149000D03*
%TD*%
D19*
%TO.C,J13*%
X123698000Y-68199000D03*
D20*
X123698000Y-65659000D03*
X123698000Y-63119000D03*
%TD*%
D19*
%TO.C,J12*%
X119761000Y-76118000D03*
D20*
X119761000Y-78658000D03*
X119761000Y-81198000D03*
%TD*%
D19*
%TO.C,J11*%
X127635000Y-76118000D03*
D20*
X127635000Y-78658000D03*
X127635000Y-81198000D03*
%TD*%
D19*
%TO.C,J10*%
X135509000Y-76118000D03*
D20*
X135509000Y-78658000D03*
X135509000Y-81198000D03*
%TD*%
D19*
%TO.C,J16*%
X143383000Y-76118000D03*
D20*
X143383000Y-78658000D03*
X143383000Y-81198000D03*
%TD*%
D19*
%TO.C,J15*%
X143383000Y-68199000D03*
D20*
X143383000Y-65659000D03*
X143383000Y-63119000D03*
%TD*%
D19*
%TO.C,J9*%
X135509000Y-68229000D03*
D20*
X135509000Y-65689000D03*
X135509000Y-63149000D03*
%TD*%
D19*
%TO.C,J6*%
X127635000Y-68229000D03*
D20*
X127635000Y-65689000D03*
X127635000Y-63149000D03*
%TD*%
D19*
%TO.C,J5*%
X119761000Y-68199000D03*
D20*
X119761000Y-65659000D03*
X119761000Y-63119000D03*
%TD*%
D19*
%TO.C,J4*%
X123698000Y-76118000D03*
D20*
X123698000Y-78658000D03*
X123698000Y-81198000D03*
%TD*%
D19*
%TO.C,J7*%
X131572000Y-76118000D03*
D20*
X131572000Y-78658000D03*
X131572000Y-81198000D03*
%TD*%
D19*
%TO.C,J8*%
X139446000Y-76118000D03*
D20*
X139446000Y-78658000D03*
X139446000Y-81198000D03*
%TD*%
D19*
%TO.C,J24*%
X147320000Y-76118000D03*
D20*
X147320000Y-78658000D03*
X147320000Y-81198000D03*
%TD*%
%TO.C,J1*%
X114315000Y-63119000D03*
X111775000Y-63119000D03*
D19*
X109235000Y-63119000D03*
%TD*%
%TO.C,J31*%
X147193000Y-108458000D03*
D20*
X147193000Y-110998000D03*
X147193000Y-113538000D03*
X147193000Y-116078000D03*
%TD*%
%TO.C,J30*%
X147193000Y-103896000D03*
X147193000Y-101356000D03*
X147193000Y-98816000D03*
D19*
X147193000Y-96276000D03*
%TD*%
D34*
%TO.C,D54*%
X165768000Y-122936000D03*
X167968000Y-122936000D03*
%TD*%
%TO.C,D47*%
X158151000Y-122936000D03*
X155951000Y-122936000D03*
%TD*%
%TO.C,D52*%
X165768000Y-125476000D03*
X167968000Y-125476000D03*
%TD*%
%TO.C,D37*%
X158151000Y-125476000D03*
X155951000Y-125476000D03*
%TD*%
%TO.C,D53*%
X165768000Y-128016000D03*
X167968000Y-128016000D03*
%TD*%
%TO.C,D49*%
X158151000Y-128016000D03*
X155951000Y-128016000D03*
%TD*%
%TO.C,D51*%
X165768000Y-130556000D03*
X167968000Y-130556000D03*
%TD*%
%TO.C,D39*%
X158151000Y-130556000D03*
X155951000Y-130556000D03*
%TD*%
%TO.C,D55*%
X165768000Y-133096000D03*
X167968000Y-133096000D03*
%TD*%
%TO.C,D38*%
X158151000Y-133096000D03*
X155951000Y-133096000D03*
%TD*%
%TO.C,D57*%
X165768000Y-135636000D03*
X167968000Y-135636000D03*
%TD*%
%TO.C,D50*%
X158151000Y-135636000D03*
X155951000Y-135636000D03*
%TD*%
%TO.C,D56*%
X165768000Y-138176000D03*
X167968000Y-138176000D03*
%TD*%
%TO.C,D48*%
X158151000Y-138176000D03*
X155951000Y-138176000D03*
%TD*%
%TO.C,D65*%
X165768000Y-140716000D03*
X167968000Y-140716000D03*
%TD*%
%TO.C,D63*%
X158151000Y-140716000D03*
X155951000Y-140716000D03*
%TD*%
%TO.C,D46*%
X148245163Y-122936000D03*
X146045163Y-122936000D03*
%TD*%
%TO.C,D19*%
X138334000Y-122936000D03*
X136134000Y-122936000D03*
%TD*%
%TO.C,D16*%
X126238000Y-122920210D03*
X128438000Y-122920210D03*
%TD*%
%TO.C,D45*%
X148245000Y-125476000D03*
X146045000Y-125476000D03*
%TD*%
%TO.C,D17*%
X138334000Y-125476000D03*
X136134000Y-125476000D03*
%TD*%
%TO.C,D18*%
X126238000Y-125460210D03*
X128438000Y-125460210D03*
%TD*%
%TO.C,D44*%
X148245000Y-128016000D03*
X146045000Y-128016000D03*
%TD*%
%TO.C,D20*%
X138334000Y-128016000D03*
X136134000Y-128016000D03*
%TD*%
%TO.C,D21*%
X126238000Y-128000210D03*
X128438000Y-128000210D03*
%TD*%
%TO.C,D43*%
X148245000Y-130556000D03*
X146045000Y-130556000D03*
%TD*%
%TO.C,D22*%
X138334000Y-130556000D03*
X136134000Y-130556000D03*
%TD*%
%TO.C,D23*%
X126238000Y-130540210D03*
X128438000Y-130540210D03*
%TD*%
%TO.C,D42*%
X148245000Y-133096000D03*
X146045000Y-133096000D03*
%TD*%
%TO.C,D24*%
X138334000Y-133096000D03*
X136134000Y-133096000D03*
%TD*%
%TO.C,D25*%
X126238000Y-133080210D03*
X128438000Y-133080210D03*
%TD*%
%TO.C,D41*%
X148245000Y-135636000D03*
X146045000Y-135636000D03*
%TD*%
%TO.C,D27*%
X138334000Y-135636000D03*
X136134000Y-135636000D03*
%TD*%
%TO.C,D28*%
X126238000Y-135620210D03*
X128438000Y-135620210D03*
%TD*%
%TO.C,D40*%
X148245000Y-138176000D03*
X146045000Y-138176000D03*
%TD*%
%TO.C,D30*%
X138334000Y-138176000D03*
X136134000Y-138176000D03*
%TD*%
%TO.C,D31*%
X126238000Y-138160210D03*
X128438000Y-138160210D03*
%TD*%
%TO.C,D64*%
X148245000Y-140716000D03*
X146045000Y-140716000D03*
%TD*%
%TO.C,D61*%
X138334000Y-140716000D03*
X136134000Y-140716000D03*
%TD*%
%TO.C,D62*%
X128438000Y-140700210D03*
X126238000Y-140700210D03*
%TD*%
%TO.C,D4*%
X106426000Y-122936000D03*
X108626000Y-122936000D03*
%TD*%
%TO.C,D3*%
X98715000Y-122936000D03*
X96515000Y-122936000D03*
%TD*%
%TO.C,D15*%
X106426000Y-125476000D03*
X108626000Y-125476000D03*
%TD*%
%TO.C,D5*%
X98715000Y-125476000D03*
X96515000Y-125476000D03*
%TD*%
%TO.C,D6*%
X108626000Y-128016000D03*
X106426000Y-128016000D03*
%TD*%
%TO.C,D7*%
X98715000Y-128016000D03*
X96515000Y-128016000D03*
%TD*%
%TO.C,D8*%
X106426000Y-130556000D03*
X108626000Y-130556000D03*
%TD*%
%TO.C,D9*%
X98715000Y-130556000D03*
X96515000Y-130556000D03*
%TD*%
%TO.C,D10*%
X106426000Y-133096000D03*
X108626000Y-133096000D03*
%TD*%
%TO.C,D11*%
X98715000Y-133096000D03*
X96515000Y-133096000D03*
%TD*%
%TO.C,D14*%
X106426000Y-135636000D03*
X108626000Y-135636000D03*
%TD*%
%TO.C,D2*%
X98715000Y-135636000D03*
X96515000Y-135636000D03*
%TD*%
%TO.C,D13*%
X106426000Y-138176000D03*
X108626000Y-138176000D03*
%TD*%
%TO.C,D12*%
X98715000Y-138176000D03*
X96515000Y-138176000D03*
%TD*%
%TO.C,D59*%
X106426000Y-140716000D03*
X108626000Y-140716000D03*
%TD*%
%TO.C,D58*%
X96515000Y-140716000D03*
X98715000Y-140716000D03*
%TD*%
D35*
%TO.C,D1*%
X106680000Y-83643000D03*
X106680000Y-81593000D03*
%TD*%
D36*
%TO.C,C1*%
X110490000Y-85183000D03*
X110490000Y-85998000D03*
%TD*%
%TO.C,C10*%
X150368000Y-115672000D03*
X150368000Y-114857000D03*
%TD*%
%TO.C,C11*%
X151384000Y-115723500D03*
X151384000Y-114908500D03*
%TD*%
D37*
%TO.C,C9*%
X152273000Y-91286500D03*
X152273000Y-92101500D03*
%TD*%
D38*
%TO.C,C12*%
X176403000Y-136525000D03*
X177218000Y-136525000D03*
%TD*%
D37*
%TO.C,C8*%
X102616000Y-93368500D03*
X102616000Y-92553500D03*
%TD*%
D39*
%TO.C,C3*%
X101092000Y-81076000D03*
X101092000Y-84201000D03*
%TD*%
%TO.C,C2*%
X103639244Y-81072946D03*
X103639244Y-84197946D03*
%TD*%
D40*
%TO.C,C7*%
X91466000Y-73852011D03*
X92281000Y-73852011D03*
%TD*%
D41*
%TO.C,C6*%
X92638432Y-78782030D03*
X92638432Y-80507030D03*
%TD*%
D42*
%TO.C,C5*%
X90858344Y-76946854D03*
X92583344Y-76946854D03*
%TD*%
D43*
%TO.C,C4*%
X99384096Y-78803123D03*
X99384096Y-75678123D03*
%TD*%
D20*
%TO.C,J39*%
X131064000Y-122936000D03*
X133604000Y-122936000D03*
X131064000Y-125476000D03*
X133604000Y-125476000D03*
X131064000Y-128016000D03*
X133604000Y-128016000D03*
X131064000Y-130556000D03*
X133604000Y-130556000D03*
X131064000Y-133096000D03*
X133604000Y-133096000D03*
X131064000Y-135636000D03*
X133604000Y-135636000D03*
X131064000Y-138176000D03*
X133604000Y-138176000D03*
X131064000Y-140716000D03*
D19*
X133604000Y-140716000D03*
%TD*%
D34*
%TO.C,D26*%
X116332000Y-128016000D03*
X118532000Y-128016000D03*
%TD*%
D28*
%TO.C,R10*%
X111252000Y-120142000D03*
X113077000Y-120142000D03*
%TD*%
D34*
%TO.C,D29*%
X118532000Y-125476000D03*
X116332000Y-125476000D03*
%TD*%
%TO.C,D32*%
X116332000Y-133096000D03*
X118532000Y-133096000D03*
%TD*%
%TO.C,D33*%
X118532000Y-135636000D03*
X116332000Y-135636000D03*
%TD*%
%TO.C,D34*%
X116332000Y-130556000D03*
X118532000Y-130556000D03*
%TD*%
%TO.C,D35*%
X116327000Y-122936000D03*
X118527000Y-122936000D03*
%TD*%
%TO.C,D36*%
X118532000Y-138176000D03*
X116332000Y-138176000D03*
%TD*%
%TO.C,D60*%
X118532000Y-140716000D03*
X116332000Y-140716000D03*
%TD*%
D19*
%TO.C,J38*%
X113792000Y-140716000D03*
D20*
X111252000Y-140716000D03*
X113792000Y-138176000D03*
X111252000Y-138176000D03*
X113792000Y-135636000D03*
X111252000Y-135636000D03*
X113792000Y-133096000D03*
X111252000Y-133096000D03*
X113792000Y-130556000D03*
X111252000Y-130556000D03*
X113792000Y-128016000D03*
X111252000Y-128016000D03*
X113792000Y-125476000D03*
X111252000Y-125476000D03*
X113792000Y-122936000D03*
X111252000Y-122936000D03*
%TD*%
%TO.C,J27*%
X186817000Y-83190000D03*
X186817000Y-85730000D03*
X184277000Y-83190000D03*
X184277000Y-85730000D03*
X181737000Y-83190000D03*
X181737000Y-85730000D03*
X179197000Y-83190000D03*
X179197000Y-85730000D03*
X176657000Y-83190000D03*
X176657000Y-85730000D03*
X174117000Y-83190000D03*
X174117000Y-85730000D03*
X171577000Y-83190000D03*
X171577000Y-85730000D03*
X169037000Y-83190000D03*
D19*
X169037000Y-85730000D03*
%TD*%
D20*
%TO.C,J28*%
X186817000Y-69723000D03*
X186817000Y-72263000D03*
X184277000Y-69723000D03*
X184277000Y-72263000D03*
X181737000Y-69723000D03*
X181737000Y-72263000D03*
X179197000Y-69723000D03*
X179197000Y-72263000D03*
X176657000Y-69723000D03*
X176657000Y-72263000D03*
X174117000Y-69723000D03*
X174117000Y-72263000D03*
X171577000Y-69723000D03*
X171577000Y-72263000D03*
X169037000Y-69723000D03*
D19*
X169037000Y-72263000D03*
%TD*%
D20*
%TO.C,J35*%
X186817000Y-89667000D03*
X186817000Y-92207000D03*
X184277000Y-89667000D03*
X184277000Y-92207000D03*
X181737000Y-89667000D03*
X181737000Y-92207000D03*
X179197000Y-89667000D03*
X179197000Y-92207000D03*
X176657000Y-89667000D03*
X176657000Y-92207000D03*
X174117000Y-89667000D03*
X174117000Y-92207000D03*
X171577000Y-89667000D03*
X171577000Y-92207000D03*
X169037000Y-89667000D03*
D19*
X169037000Y-92207000D03*
%TD*%
D20*
%TO.C,J29*%
X186817000Y-63119000D03*
X186817000Y-65659000D03*
X184277000Y-63119000D03*
X184277000Y-65659000D03*
X181737000Y-63119000D03*
X181737000Y-65659000D03*
X179197000Y-63119000D03*
X179197000Y-65659000D03*
X176657000Y-63119000D03*
X176657000Y-65659000D03*
X174117000Y-63119000D03*
X174117000Y-65659000D03*
X171577000Y-63119000D03*
X171577000Y-65659000D03*
X169037000Y-63119000D03*
D19*
X169037000Y-65659000D03*
%TD*%
D20*
%TO.C,J34*%
X186817000Y-103002000D03*
X186817000Y-105542000D03*
X184277000Y-103002000D03*
X184277000Y-105542000D03*
X181737000Y-103002000D03*
X181737000Y-105542000D03*
X179197000Y-103002000D03*
X179197000Y-105542000D03*
X176657000Y-103002000D03*
X176657000Y-105542000D03*
X174117000Y-103002000D03*
X174117000Y-105542000D03*
X171577000Y-103002000D03*
X171577000Y-105542000D03*
X169037000Y-103002000D03*
D19*
X169037000Y-105542000D03*
%TD*%
D20*
%TO.C,J26*%
X186817000Y-76454000D03*
X186817000Y-78994000D03*
X184277000Y-76454000D03*
X184277000Y-78994000D03*
X181737000Y-76454000D03*
X181737000Y-78994000D03*
X179197000Y-76454000D03*
X179197000Y-78994000D03*
X176657000Y-76454000D03*
X176657000Y-78994000D03*
X174117000Y-76454000D03*
X174117000Y-78994000D03*
X171577000Y-76454000D03*
X171577000Y-78994000D03*
X169037000Y-76454000D03*
D19*
X169037000Y-78994000D03*
%TD*%
D20*
%TO.C,J33*%
X186817000Y-109733000D03*
X186817000Y-112273000D03*
X184277000Y-109733000D03*
X184277000Y-112273000D03*
X181737000Y-109733000D03*
X181737000Y-112273000D03*
X179197000Y-109733000D03*
X179197000Y-112273000D03*
X176657000Y-109733000D03*
X176657000Y-112273000D03*
X174117000Y-109733000D03*
X174117000Y-112273000D03*
X171577000Y-109733000D03*
X171577000Y-112273000D03*
X169037000Y-109733000D03*
D19*
X169037000Y-112273000D03*
%TD*%
D20*
%TO.C,J32*%
X186817000Y-96271000D03*
X186817000Y-98811000D03*
X184277000Y-96271000D03*
X184277000Y-98811000D03*
X181737000Y-96271000D03*
X181737000Y-98811000D03*
X179197000Y-96271000D03*
X179197000Y-98811000D03*
X176657000Y-96271000D03*
X176657000Y-98811000D03*
X174117000Y-96271000D03*
X174117000Y-98811000D03*
X171577000Y-96271000D03*
X171577000Y-98811000D03*
X169037000Y-96271000D03*
D19*
X169037000Y-98811000D03*
%TD*%
M02*
