%TF.GenerationSoftware,KiCad,Pcbnew,8.0.8*%
%TF.CreationDate,2025-03-09T11:30:45-03:00*%
%TF.ProjectId,pi_controller,70695f63-6f6e-4747-926f-6c6c65722e6b,1.0*%
%TF.SameCoordinates,Original*%
%TF.FileFunction,Copper,L4,Bot*%
%TF.FilePolarity,Positive*%
%FSLAX46Y46*%
G04 Gerber Fmt 4.6, Leading zero omitted, Abs format (unit mm)*
G04 Created by KiCad (PCBNEW 8.0.8) date 2025-03-09 11:30:45*
%MOMM*%
%LPD*%
G01*
G04 APERTURE LIST*
G04 Aperture macros list*
%AMRoundRect*
0 Rectangle with rounded corners*
0 $1 Rounding radius*
0 $2 $3 $4 $5 $6 $7 $8 $9 X,Y pos of 4 corners*
0 Add a 4 corners polygon primitive as box body*
4,1,4,$2,$3,$4,$5,$6,$7,$8,$9,$2,$3,0*
0 Add four circle primitives for the rounded corners*
1,1,$1+$1,$2,$3*
1,1,$1+$1,$4,$5*
1,1,$1+$1,$6,$7*
1,1,$1+$1,$8,$9*
0 Add four rect primitives between the rounded corners*
20,1,$1+$1,$2,$3,$4,$5,0*
20,1,$1+$1,$4,$5,$6,$7,0*
20,1,$1+$1,$6,$7,$8,$9,0*
20,1,$1+$1,$8,$9,$2,$3,0*%
%AMFreePoly0*
4,1,28,0.605014,0.794986,0.644504,0.794986,0.724698,0.756366,0.780194,0.686777,0.800000,0.600000,0.800000,-0.600000,0.780194,-0.686777,0.724698,-0.756366,0.644504,-0.794986,0.605014,-0.794986,0.600000,-0.800000,0.000000,-0.800000,-0.178017,-0.779942,-0.347107,-0.720775,-0.498792,-0.625465,-0.625465,-0.498792,-0.720775,-0.347107,-0.779942,-0.178017,-0.800000,0.000000,-0.779942,0.178017,
-0.720775,0.347107,-0.625465,0.498792,-0.498792,0.625465,-0.347107,0.720775,-0.178017,0.779942,0.000000,0.800000,0.600000,0.800000,0.605014,0.794986,0.605014,0.794986,$1*%
%AMFreePoly1*
4,1,28,0.178017,0.779942,0.347107,0.720775,0.498792,0.625465,0.625465,0.498792,0.720775,0.347107,0.779942,0.178017,0.800000,0.000000,0.779942,-0.178017,0.720775,-0.347107,0.625465,-0.498792,0.498792,-0.625465,0.347107,-0.720775,0.178017,-0.779942,0.000000,-0.800000,-0.600000,-0.800000,-0.605014,-0.794986,-0.644504,-0.794986,-0.724698,-0.756366,-0.780194,-0.686777,-0.800000,-0.600000,
-0.800000,0.600000,-0.780194,0.686777,-0.724698,0.756366,-0.644504,0.794986,-0.605014,0.794986,-0.600000,0.800000,0.000000,0.800000,0.178017,0.779942,0.178017,0.779942,$1*%
G04 Aperture macros list end*
%TA.AperFunction,ComponentPad*%
%ADD10R,3.500000X3.500000*%
%TD*%
%TA.AperFunction,ComponentPad*%
%ADD11RoundRect,0.750000X-0.750000X-1.000000X0.750000X-1.000000X0.750000X1.000000X-0.750000X1.000000X0*%
%TD*%
%TA.AperFunction,ComponentPad*%
%ADD12RoundRect,0.875000X-0.875000X-0.875000X0.875000X-0.875000X0.875000X0.875000X-0.875000X0.875000X0*%
%TD*%
%TA.AperFunction,ComponentPad*%
%ADD13RoundRect,0.200000X0.600000X-0.600000X0.600000X0.600000X-0.600000X0.600000X-0.600000X-0.600000X0*%
%TD*%
%TA.AperFunction,ComponentPad*%
%ADD14C,1.600000*%
%TD*%
%TA.AperFunction,ComponentPad*%
%ADD15FreePoly0,90.000000*%
%TD*%
%TA.AperFunction,ComponentPad*%
%ADD16FreePoly1,90.000000*%
%TD*%
%TA.AperFunction,SMDPad,CuDef*%
%ADD17C,4.000000*%
%TD*%
%TA.AperFunction,ComponentPad*%
%ADD18C,2.600000*%
%TD*%
%TA.AperFunction,ConnectorPad*%
%ADD19C,3.800000*%
%TD*%
%TA.AperFunction,ComponentPad*%
%ADD20R,1.700000X1.700000*%
%TD*%
%TA.AperFunction,ComponentPad*%
%ADD21O,1.700000X1.700000*%
%TD*%
%TA.AperFunction,ViaPad*%
%ADD22C,0.800000*%
%TD*%
%TA.AperFunction,Conductor*%
%ADD23C,0.250000*%
%TD*%
%TA.AperFunction,Conductor*%
%ADD24C,0.500000*%
%TD*%
G04 APERTURE END LIST*
D10*
%TO.P,J2,1*%
%TO.N,+9V*%
X103409000Y-66098500D03*
D11*
%TO.P,J2,2*%
%TO.N,GND*%
X97409000Y-66098500D03*
D12*
%TO.P,J2,3*%
%TO.N,unconnected-(J2-Pad3)*%
X100409000Y-70798500D03*
%TD*%
D13*
%TO.P,U4,1,GPIO0*%
%TO.N,/ROW1*%
X91059000Y-114554000D03*
D14*
%TO.P,U4,2,GPIO1*%
%TO.N,/ROW2*%
X93599000Y-114554000D03*
D15*
%TO.P,U4,3,GND*%
%TO.N,GND*%
X96139000Y-114554000D03*
D14*
%TO.P,U4,4,GPIO2*%
%TO.N,/ROW3*%
X98679000Y-114554000D03*
%TO.P,U4,5,GPIO3*%
%TO.N,/ROW4*%
X101219000Y-114554000D03*
%TO.P,U4,6,GPIO4*%
%TO.N,/SDA*%
X103759000Y-114554000D03*
%TO.P,U4,7,GPIO5*%
%TO.N,/SCL*%
X106299000Y-114554000D03*
D15*
%TO.P,U4,8,GND*%
%TO.N,GND*%
X108839000Y-114554000D03*
D14*
%TO.P,U4,9,GPIO6*%
%TO.N,/ROW5*%
X111379000Y-114554000D03*
%TO.P,U4,10,GPIO7*%
%TO.N,/ROW6*%
X113919000Y-114554000D03*
%TO.P,U4,11,GPIO8*%
%TO.N,/COL_MUX_A*%
X116459000Y-114554000D03*
%TO.P,U4,12,GPIO9*%
%TO.N,/COL_MUX_B*%
X118999000Y-114554000D03*
D15*
%TO.P,U4,13,GND*%
%TO.N,GND*%
X121539000Y-114554000D03*
D14*
%TO.P,U4,14,GPIO10*%
%TO.N,/COL_MUX_C*%
X124079000Y-114554000D03*
%TO.P,U4,15,GPIO11*%
%TO.N,/ADC_MUX_D*%
X126619000Y-114554000D03*
%TO.P,U4,16,GPIO12*%
%TO.N,/UART0_TX*%
X129159000Y-114554000D03*
%TO.P,U4,17,GPIO13*%
%TO.N,/UART0_RX*%
X131699000Y-114554000D03*
D15*
%TO.P,U4,18,GND*%
%TO.N,GND*%
X134239000Y-114554000D03*
D14*
%TO.P,U4,19,GPIO14*%
%TO.N,/ROW7*%
X136779000Y-114554000D03*
%TO.P,U4,20,GPIO15*%
%TO.N,/ROW8*%
X139319000Y-114554000D03*
%TO.P,U4,21,GPIO16*%
%TO.N,/MISO*%
X139319000Y-96774000D03*
%TO.P,U4,22,GPIO17*%
%TO.N,/CS_KEY*%
X136779000Y-96774000D03*
D16*
%TO.P,U4,23,GND*%
%TO.N,GND*%
X134239000Y-96774000D03*
D14*
%TO.P,U4,24,GPIO18*%
%TO.N,/SCLK*%
X131699000Y-96774000D03*
%TO.P,U4,25,GPIO19*%
%TO.N,/MOSI*%
X129159000Y-96774000D03*
%TO.P,U4,26,GPIO20*%
%TO.N,/ADC_MUX_A*%
X126619000Y-96774000D03*
%TO.P,U4,27,GPIO21*%
%TO.N,/ADC_MUX_B*%
X124079000Y-96774000D03*
D16*
%TO.P,U4,28,GND*%
%TO.N,GND*%
X121539000Y-96774000D03*
D14*
%TO.P,U4,29,GPIO22*%
%TO.N,/ADC_MUX_C*%
X118999000Y-96774000D03*
%TO.P,U4,30,RUN*%
%TO.N,unconnected-(U4-RUN-Pad30)*%
X116459000Y-96774000D03*
%TO.P,U4,31,GPIO26_ADC0*%
%TO.N,/ADC0*%
X113919000Y-96774000D03*
%TO.P,U4,32,GPIO27_ADC1*%
%TO.N,/CS_LED*%
X111379000Y-96774000D03*
D16*
%TO.P,U4,33,AGND*%
%TO.N,GND*%
X108839000Y-96774000D03*
D14*
%TO.P,U4,34,GPIO28_ADC2*%
%TO.N,/PWM_OUT*%
X106299000Y-96774000D03*
%TO.P,U4,35,ADC_VREF*%
%TO.N,VDDA*%
X103759000Y-96774000D03*
%TO.P,U4,36,3V3*%
%TO.N,unconnected-(U4-3V3-Pad36)*%
X101219000Y-96774000D03*
%TO.P,U4,37,3V3_EN*%
%TO.N,unconnected-(U4-3V3_EN-Pad37)*%
X98679000Y-96774000D03*
D16*
%TO.P,U4,38,GND*%
%TO.N,GND*%
X96139000Y-96774000D03*
D14*
%TO.P,U4,39,VSYS*%
%TO.N,unconnected-(U4-VSYS-Pad39)*%
X93599000Y-96774000D03*
%TO.P,U4,40,VBUS*%
%TO.N,unconnected-(U4-VBUS-Pad40)*%
X91059000Y-96774000D03*
%TD*%
D17*
%TO.P,TP2,1,1*%
%TO.N,VDDA*%
X110871000Y-105664000D03*
%TD*%
%TO.P,TP3,1,1*%
%TO.N,Net-(D1-A)*%
X103812666Y-105664000D03*
%TD*%
%TO.P,TP4,1,1*%
%TO.N,+3V3*%
X96647000Y-105664000D03*
%TD*%
%TO.P,TP1,1,1*%
%TO.N,GND*%
X117602000Y-105791000D03*
%TD*%
D18*
%TO.P,H3,1,1*%
%TO.N,GND*%
X91694000Y-144907000D03*
D19*
X91694000Y-144907000D03*
%TD*%
D18*
%TO.P,H2,1,1*%
%TO.N,GND*%
X186436000Y-58674000D03*
D19*
X186436000Y-58674000D03*
%TD*%
D18*
%TO.P,H1,1,1*%
%TO.N,GND*%
X91694000Y-58801000D03*
D19*
X91694000Y-58801000D03*
%TD*%
D18*
%TO.P,H4,1,1*%
%TO.N,GND*%
X186309000Y-144907000D03*
D19*
X186309000Y-144907000D03*
%TD*%
D20*
%TO.P,J23,1,Pin_1*%
%TO.N,/MOSI*%
X160147000Y-65659000D03*
D21*
%TO.P,J23,2,Pin_2*%
%TO.N,+3V3*%
X160147000Y-63119000D03*
%TO.P,J23,3,Pin_3*%
%TO.N,/SCLK*%
X162687000Y-65659000D03*
%TO.P,J23,4,Pin_4*%
%TO.N,/MISO*%
X162687000Y-63119000D03*
%TO.P,J23,5,Pin_5*%
%TO.N,/CS7*%
X165227000Y-65659000D03*
%TO.P,J23,6,Pin_6*%
%TO.N,GND*%
X165227000Y-63119000D03*
%TD*%
D20*
%TO.P,J22,1,Pin_1*%
%TO.N,/MOSI*%
X151257000Y-65659000D03*
D21*
%TO.P,J22,2,Pin_2*%
%TO.N,+3V3*%
X151257000Y-63119000D03*
%TO.P,J22,3,Pin_3*%
%TO.N,/SCLK*%
X153797000Y-65659000D03*
%TO.P,J22,4,Pin_4*%
%TO.N,/MISO*%
X153797000Y-63119000D03*
%TO.P,J22,5,Pin_5*%
%TO.N,/CS5*%
X156337000Y-65659000D03*
%TO.P,J22,6,Pin_6*%
%TO.N,GND*%
X156337000Y-63119000D03*
%TD*%
D20*
%TO.P,J21,1,Pin_1*%
%TO.N,/MOSI*%
X151272000Y-78363999D03*
D21*
%TO.P,J21,2,Pin_2*%
%TO.N,+3V3*%
X151272000Y-75823999D03*
%TO.P,J21,3,Pin_3*%
%TO.N,/SCLK*%
X153812000Y-78363999D03*
%TO.P,J21,4,Pin_4*%
%TO.N,/MISO*%
X153812000Y-75823999D03*
%TO.P,J21,5,Pin_5*%
%TO.N,/CS3*%
X156352000Y-78363999D03*
%TO.P,J21,6,Pin_6*%
%TO.N,GND*%
X156352000Y-75823999D03*
%TD*%
D20*
%TO.P,J20,1,Pin_1*%
%TO.N,/MOSI*%
X160147000Y-72009000D03*
D21*
%TO.P,J20,2,Pin_2*%
%TO.N,+3V3*%
X160147000Y-69469000D03*
%TO.P,J20,3,Pin_3*%
%TO.N,/SCLK*%
X162687000Y-72009000D03*
%TO.P,J20,4,Pin_4*%
%TO.N,/MISO*%
X162687000Y-69469000D03*
%TO.P,J20,5,Pin_5*%
%TO.N,/CS8*%
X165227000Y-72009000D03*
%TO.P,J20,6,Pin_6*%
%TO.N,GND*%
X165227000Y-69469000D03*
%TD*%
D20*
%TO.P,J19,1,Pin_1*%
%TO.N,/MOSI*%
X160147000Y-78359000D03*
D21*
%TO.P,J19,2,Pin_2*%
%TO.N,+3V3*%
X160147000Y-75819000D03*
%TO.P,J19,3,Pin_3*%
%TO.N,/SCLK*%
X162687000Y-78359000D03*
%TO.P,J19,4,Pin_4*%
%TO.N,/MISO*%
X162687000Y-75819000D03*
%TO.P,J19,5,Pin_5*%
%TO.N,/CS6*%
X165227000Y-78359000D03*
%TO.P,J19,6,Pin_6*%
%TO.N,GND*%
X165227000Y-75819000D03*
%TD*%
D20*
%TO.P,J18,1,Pin_1*%
%TO.N,/MOSI*%
X151257000Y-72009000D03*
D21*
%TO.P,J18,2,Pin_2*%
%TO.N,+3V3*%
X151257000Y-69469000D03*
%TO.P,J18,3,Pin_3*%
%TO.N,/SCLK*%
X153797000Y-72009000D03*
%TO.P,J18,4,Pin_4*%
%TO.N,/MISO*%
X153797000Y-69469000D03*
%TO.P,J18,5,Pin_5*%
%TO.N,/CS4*%
X156337000Y-72009000D03*
%TO.P,J18,6,Pin_6*%
%TO.N,GND*%
X156337000Y-69469000D03*
%TD*%
D20*
%TO.P,J17,1,Pin_1*%
%TO.N,/MOSI*%
X151272000Y-84756332D03*
D21*
%TO.P,J17,2,Pin_2*%
%TO.N,+3V3*%
X151272000Y-82216332D03*
%TO.P,J17,3,Pin_3*%
%TO.N,/SCLK*%
X153812000Y-84756332D03*
%TO.P,J17,4,Pin_4*%
%TO.N,/MISO*%
X153812000Y-82216332D03*
%TO.P,J17,5,Pin_5*%
%TO.N,/CS2*%
X156352000Y-84756332D03*
%TO.P,J17,6,Pin_6*%
%TO.N,GND*%
X156352000Y-82216332D03*
%TD*%
%TO.P,J43,16,Pin_16*%
%TO.N,/ROW8*%
X160688000Y-122936000D03*
%TO.P,J43,15,Pin_15*%
%TO.N,Net-(D54-A)*%
X163228000Y-122936000D03*
%TO.P,J43,14,Pin_14*%
%TO.N,/ROW8*%
X160688000Y-125476000D03*
%TO.P,J43,13,Pin_13*%
%TO.N,Net-(D52-A)*%
X163228000Y-125476000D03*
%TO.P,J43,12,Pin_12*%
%TO.N,/ROW8*%
X160688000Y-128016000D03*
%TO.P,J43,11,Pin_11*%
%TO.N,Net-(D53-A)*%
X163228000Y-128016000D03*
%TO.P,J43,10,Pin_10*%
%TO.N,/ROW8*%
X160688000Y-130556000D03*
%TO.P,J43,9,Pin_9*%
%TO.N,Net-(D51-A)*%
X163228000Y-130556000D03*
%TO.P,J43,8,Pin_8*%
%TO.N,/ROW8*%
X160688000Y-133096000D03*
%TO.P,J43,7,Pin_7*%
%TO.N,Net-(D55-A)*%
X163228000Y-133096000D03*
%TO.P,J43,6,Pin_6*%
%TO.N,/ROW8*%
X160688000Y-135636000D03*
%TO.P,J43,5,Pin_5*%
%TO.N,Net-(D57-A)*%
X163228000Y-135636000D03*
%TO.P,J43,4,Pin_4*%
%TO.N,/ROW8*%
X160688000Y-138176000D03*
%TO.P,J43,3,Pin_3*%
%TO.N,Net-(D56-A)*%
X163228000Y-138176000D03*
%TO.P,J43,2,Pin_2*%
%TO.N,/ROW8*%
X160688000Y-140716000D03*
D20*
%TO.P,J43,1,Pin_1*%
%TO.N,Net-(D65-A)*%
X163228000Y-140716000D03*
%TD*%
%TO.P,J42,1,Pin_1*%
%TO.N,Net-(D63-A)*%
X153416000Y-140716000D03*
D21*
%TO.P,J42,2,Pin_2*%
%TO.N,/ROW7*%
X150876000Y-140716000D03*
%TO.P,J42,3,Pin_3*%
%TO.N,Net-(D48-A)*%
X153416000Y-138176000D03*
%TO.P,J42,4,Pin_4*%
%TO.N,/ROW7*%
X150876000Y-138176000D03*
%TO.P,J42,5,Pin_5*%
%TO.N,Net-(D50-A)*%
X153416000Y-135636000D03*
%TO.P,J42,6,Pin_6*%
%TO.N,/ROW7*%
X150876000Y-135636000D03*
%TO.P,J42,7,Pin_7*%
%TO.N,Net-(D38-A)*%
X153416000Y-133096000D03*
%TO.P,J42,8,Pin_8*%
%TO.N,/ROW7*%
X150876000Y-133096000D03*
%TO.P,J42,9,Pin_9*%
%TO.N,Net-(D39-A)*%
X153416000Y-130556000D03*
%TO.P,J42,10,Pin_10*%
%TO.N,/ROW7*%
X150876000Y-130556000D03*
%TO.P,J42,11,Pin_11*%
%TO.N,Net-(D49-A)*%
X153416000Y-128016000D03*
%TO.P,J42,12,Pin_12*%
%TO.N,/ROW7*%
X150876000Y-128016000D03*
%TO.P,J42,13,Pin_13*%
%TO.N,Net-(D37-A)*%
X153416000Y-125476000D03*
%TO.P,J42,14,Pin_14*%
%TO.N,/ROW7*%
X150876000Y-125476000D03*
%TO.P,J42,15,Pin_15*%
%TO.N,Net-(D47-A)*%
X153416000Y-122936000D03*
%TO.P,J42,16,Pin_16*%
%TO.N,/ROW7*%
X150876000Y-122936000D03*
%TD*%
D20*
%TO.P,J41,1,Pin_1*%
%TO.N,Net-(D64-A)*%
X143510000Y-140716000D03*
D21*
%TO.P,J41,2,Pin_2*%
%TO.N,/ROW6*%
X140970000Y-140716000D03*
%TO.P,J41,3,Pin_3*%
%TO.N,Net-(D40-A)*%
X143510000Y-138176000D03*
%TO.P,J41,4,Pin_4*%
%TO.N,/ROW6*%
X140970000Y-138176000D03*
%TO.P,J41,5,Pin_5*%
%TO.N,Net-(D41-A)*%
X143510000Y-135636000D03*
%TO.P,J41,6,Pin_6*%
%TO.N,/ROW6*%
X140970000Y-135636000D03*
%TO.P,J41,7,Pin_7*%
%TO.N,Net-(D42-A)*%
X143510000Y-133096000D03*
%TO.P,J41,8,Pin_8*%
%TO.N,/ROW6*%
X140970000Y-133096000D03*
%TO.P,J41,9,Pin_9*%
%TO.N,Net-(D43-A)*%
X143510000Y-130556000D03*
%TO.P,J41,10,Pin_10*%
%TO.N,/ROW6*%
X140970000Y-130556000D03*
%TO.P,J41,11,Pin_11*%
%TO.N,Net-(D44-A)*%
X143510000Y-128016000D03*
%TO.P,J41,12,Pin_12*%
%TO.N,/ROW6*%
X140970000Y-128016000D03*
%TO.P,J41,13,Pin_13*%
%TO.N,Net-(D45-A)*%
X143510000Y-125476000D03*
%TO.P,J41,14,Pin_14*%
%TO.N,/ROW6*%
X140970000Y-125476000D03*
%TO.P,J41,15,Pin_15*%
%TO.N,Net-(D46-A)*%
X143510000Y-122936000D03*
%TO.P,J41,16,Pin_16*%
%TO.N,/ROW6*%
X140970000Y-122936000D03*
%TD*%
D20*
%TO.P,J40,1,Pin_1*%
%TO.N,Net-(D62-A)*%
X123698000Y-140700210D03*
D21*
%TO.P,J40,2,Pin_2*%
%TO.N,/ROW4*%
X121158000Y-140700210D03*
%TO.P,J40,3,Pin_3*%
%TO.N,Net-(D31-A)*%
X123698000Y-138160210D03*
%TO.P,J40,4,Pin_4*%
%TO.N,/ROW4*%
X121158000Y-138160210D03*
%TO.P,J40,5,Pin_5*%
%TO.N,Net-(D28-A)*%
X123698000Y-135620210D03*
%TO.P,J40,6,Pin_6*%
%TO.N,/ROW4*%
X121158000Y-135620210D03*
%TO.P,J40,7,Pin_7*%
%TO.N,Net-(D25-A)*%
X123698000Y-133080210D03*
%TO.P,J40,8,Pin_8*%
%TO.N,/ROW4*%
X121158000Y-133080210D03*
%TO.P,J40,9,Pin_9*%
%TO.N,Net-(D23-A)*%
X123698000Y-130540210D03*
%TO.P,J40,10,Pin_10*%
%TO.N,/ROW4*%
X121158000Y-130540210D03*
%TO.P,J40,11,Pin_11*%
%TO.N,Net-(D21-A)*%
X123698000Y-128000210D03*
%TO.P,J40,12,Pin_12*%
%TO.N,/ROW4*%
X121158000Y-128000210D03*
%TO.P,J40,13,Pin_13*%
%TO.N,Net-(D18-A)*%
X123698000Y-125460210D03*
%TO.P,J40,14,Pin_14*%
%TO.N,/ROW4*%
X121158000Y-125460210D03*
%TO.P,J40,15,Pin_15*%
%TO.N,Net-(D16-A)*%
X123698000Y-122920210D03*
%TO.P,J40,16,Pin_16*%
%TO.N,/ROW4*%
X121158000Y-122920210D03*
%TD*%
%TO.P,J37,16,Pin_16*%
%TO.N,/ROW2*%
X101346000Y-122936000D03*
%TO.P,J37,15,Pin_15*%
%TO.N,Net-(D4-A)*%
X103886000Y-122936000D03*
%TO.P,J37,14,Pin_14*%
%TO.N,/ROW2*%
X101346000Y-125476000D03*
%TO.P,J37,13,Pin_13*%
%TO.N,Net-(D15-A)*%
X103886000Y-125476000D03*
%TO.P,J37,12,Pin_12*%
%TO.N,/ROW2*%
X101346000Y-128016000D03*
%TO.P,J37,11,Pin_11*%
%TO.N,Net-(D6-A)*%
X103886000Y-128016000D03*
%TO.P,J37,10,Pin_10*%
%TO.N,/ROW2*%
X101346000Y-130556000D03*
%TO.P,J37,9,Pin_9*%
%TO.N,Net-(D8-A)*%
X103886000Y-130556000D03*
%TO.P,J37,8,Pin_8*%
%TO.N,/ROW2*%
X101346000Y-133096000D03*
%TO.P,J37,7,Pin_7*%
%TO.N,Net-(D10-A)*%
X103886000Y-133096000D03*
%TO.P,J37,6,Pin_6*%
%TO.N,/ROW2*%
X101346000Y-135636000D03*
%TO.P,J37,5,Pin_5*%
%TO.N,Net-(D14-A)*%
X103886000Y-135636000D03*
%TO.P,J37,4,Pin_4*%
%TO.N,/ROW2*%
X101346000Y-138176000D03*
%TO.P,J37,3,Pin_3*%
%TO.N,Net-(D13-A)*%
X103886000Y-138176000D03*
%TO.P,J37,2,Pin_2*%
%TO.N,/ROW2*%
X101346000Y-140716000D03*
D20*
%TO.P,J37,1,Pin_1*%
%TO.N,Net-(D59-A)*%
X103886000Y-140716000D03*
%TD*%
D21*
%TO.P,J36,16,Pin_16*%
%TO.N,/ROW1*%
X91440000Y-122936000D03*
%TO.P,J36,15,Pin_15*%
%TO.N,Net-(D3-A)*%
X93980000Y-122936000D03*
%TO.P,J36,14,Pin_14*%
%TO.N,/ROW1*%
X91440000Y-125476000D03*
%TO.P,J36,13,Pin_13*%
%TO.N,Net-(D5-A)*%
X93980000Y-125476000D03*
%TO.P,J36,12,Pin_12*%
%TO.N,/ROW1*%
X91440000Y-128016000D03*
%TO.P,J36,11,Pin_11*%
%TO.N,Net-(D7-A)*%
X93980000Y-128016000D03*
%TO.P,J36,10,Pin_10*%
%TO.N,/ROW1*%
X91440000Y-130556000D03*
%TO.P,J36,9,Pin_9*%
%TO.N,Net-(D9-A)*%
X93980000Y-130556000D03*
%TO.P,J36,8,Pin_8*%
%TO.N,/ROW1*%
X91440000Y-133096000D03*
%TO.P,J36,7,Pin_7*%
%TO.N,Net-(D11-A)*%
X93980000Y-133096000D03*
%TO.P,J36,6,Pin_6*%
%TO.N,/ROW1*%
X91440000Y-135636000D03*
%TO.P,J36,5,Pin_5*%
%TO.N,Net-(D2-A)*%
X93980000Y-135636000D03*
%TO.P,J36,4,Pin_4*%
%TO.N,/ROW1*%
X91440000Y-138176000D03*
%TO.P,J36,3,Pin_3*%
%TO.N,Net-(D12-A)*%
X93980000Y-138176000D03*
%TO.P,J36,2,Pin_2*%
%TO.N,/ROW1*%
X91440000Y-140716000D03*
D20*
%TO.P,J36,1,Pin_1*%
%TO.N,Net-(D58-A)*%
X93980000Y-140716000D03*
%TD*%
%TO.P,J25,1,Pin_1*%
%TO.N,VDDA*%
X147320000Y-68199000D03*
D21*
%TO.P,J25,2,Pin_2*%
%TO.N,/AN16*%
X147320000Y-65659000D03*
%TO.P,J25,3,Pin_3*%
%TO.N,GND*%
X147320000Y-63119000D03*
%TD*%
D20*
%TO.P,J14,1,Pin_1*%
%TO.N,VDDA*%
X139446000Y-68229000D03*
D21*
%TO.P,J14,2,Pin_2*%
%TO.N,/AN14*%
X139446000Y-65689000D03*
%TO.P,J14,3,Pin_3*%
%TO.N,GND*%
X139446000Y-63149000D03*
%TD*%
D20*
%TO.P,J3,1,Pin_1*%
%TO.N,VDDA*%
X131572000Y-68229000D03*
D21*
%TO.P,J3,2,Pin_2*%
%TO.N,/AN12*%
X131572000Y-65689000D03*
%TO.P,J3,3,Pin_3*%
%TO.N,GND*%
X131572000Y-63149000D03*
%TD*%
D20*
%TO.P,J13,1,Pin_1*%
%TO.N,VDDA*%
X123698000Y-68199000D03*
D21*
%TO.P,J13,2,Pin_2*%
%TO.N,/AN10*%
X123698000Y-65659000D03*
%TO.P,J13,3,Pin_3*%
%TO.N,GND*%
X123698000Y-63119000D03*
%TD*%
D20*
%TO.P,J12,1,Pin_1*%
%TO.N,VDDA*%
X119761000Y-76118000D03*
D21*
%TO.P,J12,2,Pin_2*%
%TO.N,/AN8*%
X119761000Y-78658000D03*
%TO.P,J12,3,Pin_3*%
%TO.N,GND*%
X119761000Y-81198000D03*
%TD*%
D20*
%TO.P,J11,1,Pin_1*%
%TO.N,VDDA*%
X127635000Y-76118000D03*
D21*
%TO.P,J11,2,Pin_2*%
%TO.N,/AN6*%
X127635000Y-78658000D03*
%TO.P,J11,3,Pin_3*%
%TO.N,GND*%
X127635000Y-81198000D03*
%TD*%
D20*
%TO.P,J10,1,Pin_1*%
%TO.N,VDDA*%
X135509000Y-76118000D03*
D21*
%TO.P,J10,2,Pin_2*%
%TO.N,/AN4*%
X135509000Y-78658000D03*
%TO.P,J10,3,Pin_3*%
%TO.N,GND*%
X135509000Y-81198000D03*
%TD*%
D20*
%TO.P,J16,1,Pin_1*%
%TO.N,VDDA*%
X143383000Y-76118000D03*
D21*
%TO.P,J16,2,Pin_2*%
%TO.N,/AN2*%
X143383000Y-78658000D03*
%TO.P,J16,3,Pin_3*%
%TO.N,GND*%
X143383000Y-81198000D03*
%TD*%
D20*
%TO.P,J15,1,Pin_1*%
%TO.N,VDDA*%
X143383000Y-68199000D03*
D21*
%TO.P,J15,2,Pin_2*%
%TO.N,/AN15*%
X143383000Y-65659000D03*
%TO.P,J15,3,Pin_3*%
%TO.N,GND*%
X143383000Y-63119000D03*
%TD*%
D20*
%TO.P,J9,1,Pin_1*%
%TO.N,VDDA*%
X135509000Y-68229000D03*
D21*
%TO.P,J9,2,Pin_2*%
%TO.N,/AN13*%
X135509000Y-65689000D03*
%TO.P,J9,3,Pin_3*%
%TO.N,GND*%
X135509000Y-63149000D03*
%TD*%
D20*
%TO.P,J6,1,Pin_1*%
%TO.N,VDDA*%
X127635000Y-68229000D03*
D21*
%TO.P,J6,2,Pin_2*%
%TO.N,/AN11*%
X127635000Y-65689000D03*
%TO.P,J6,3,Pin_3*%
%TO.N,GND*%
X127635000Y-63149000D03*
%TD*%
D20*
%TO.P,J5,1,Pin_1*%
%TO.N,VDDA*%
X119761000Y-68199000D03*
D21*
%TO.P,J5,2,Pin_2*%
%TO.N,/AN9*%
X119761000Y-65659000D03*
%TO.P,J5,3,Pin_3*%
%TO.N,GND*%
X119761000Y-63119000D03*
%TD*%
D20*
%TO.P,J4,1,Pin_1*%
%TO.N,VDDA*%
X123698000Y-76118000D03*
D21*
%TO.P,J4,2,Pin_2*%
%TO.N,/AN7*%
X123698000Y-78658000D03*
%TO.P,J4,3,Pin_3*%
%TO.N,GND*%
X123698000Y-81198000D03*
%TD*%
D20*
%TO.P,J7,1,Pin_1*%
%TO.N,VDDA*%
X131572000Y-76118000D03*
D21*
%TO.P,J7,2,Pin_2*%
%TO.N,/AN5*%
X131572000Y-78658000D03*
%TO.P,J7,3,Pin_3*%
%TO.N,GND*%
X131572000Y-81198000D03*
%TD*%
D20*
%TO.P,J8,1,Pin_1*%
%TO.N,VDDA*%
X139446000Y-76118000D03*
D21*
%TO.P,J8,2,Pin_2*%
%TO.N,/AN3*%
X139446000Y-78658000D03*
%TO.P,J8,3,Pin_3*%
%TO.N,GND*%
X139446000Y-81198000D03*
%TD*%
D20*
%TO.P,J24,1,Pin_1*%
%TO.N,VDDA*%
X147320000Y-76118000D03*
D21*
%TO.P,J24,2,Pin_2*%
%TO.N,/AN1*%
X147320000Y-78658000D03*
%TO.P,J24,3,Pin_3*%
%TO.N,GND*%
X147320000Y-81198000D03*
%TD*%
%TO.P,J1,3,Pin_3*%
%TO.N,GND*%
X114315000Y-63119000D03*
%TO.P,J1,2,Pin_2*%
%TO.N,Net-(J1-Pin_2)*%
X111775000Y-63119000D03*
D20*
%TO.P,J1,1,Pin_1*%
%TO.N,+9V*%
X109235000Y-63119000D03*
%TD*%
%TO.P,J31,1,Pin_1*%
%TO.N,+3V3*%
X147193000Y-108458000D03*
D21*
%TO.P,J31,2,Pin_2*%
%TO.N,/UART0_TX*%
X147193000Y-110998000D03*
%TO.P,J31,3,Pin_3*%
%TO.N,/UART0_RX*%
X147193000Y-113538000D03*
%TO.P,J31,4,Pin_4*%
%TO.N,GND*%
X147193000Y-116078000D03*
%TD*%
%TO.P,J30,4,Pin_4*%
%TO.N,GND*%
X147193000Y-103896000D03*
%TO.P,J30,3,Pin_3*%
%TO.N,/SCL*%
X147193000Y-101356000D03*
%TO.P,J30,2,Pin_2*%
%TO.N,/SDA*%
X147193000Y-98816000D03*
D20*
%TO.P,J30,1,Pin_1*%
%TO.N,+3V3*%
X147193000Y-96276000D03*
%TD*%
D21*
%TO.P,J39,16,Pin_16*%
%TO.N,/ROW5*%
X131064000Y-122936000D03*
%TO.P,J39,15,Pin_15*%
%TO.N,Net-(D19-A)*%
X133604000Y-122936000D03*
%TO.P,J39,14,Pin_14*%
%TO.N,/ROW5*%
X131064000Y-125476000D03*
%TO.P,J39,13,Pin_13*%
%TO.N,Net-(D17-A)*%
X133604000Y-125476000D03*
%TO.P,J39,12,Pin_12*%
%TO.N,/ROW5*%
X131064000Y-128016000D03*
%TO.P,J39,11,Pin_11*%
%TO.N,Net-(D20-A)*%
X133604000Y-128016000D03*
%TO.P,J39,10,Pin_10*%
%TO.N,/ROW5*%
X131064000Y-130556000D03*
%TO.P,J39,9,Pin_9*%
%TO.N,Net-(D22-A)*%
X133604000Y-130556000D03*
%TO.P,J39,8,Pin_8*%
%TO.N,/ROW5*%
X131064000Y-133096000D03*
%TO.P,J39,7,Pin_7*%
%TO.N,Net-(D24-A)*%
X133604000Y-133096000D03*
%TO.P,J39,6,Pin_6*%
%TO.N,/ROW5*%
X131064000Y-135636000D03*
%TO.P,J39,5,Pin_5*%
%TO.N,Net-(D27-A)*%
X133604000Y-135636000D03*
%TO.P,J39,4,Pin_4*%
%TO.N,/ROW5*%
X131064000Y-138176000D03*
%TO.P,J39,3,Pin_3*%
%TO.N,Net-(D30-A)*%
X133604000Y-138176000D03*
%TO.P,J39,2,Pin_2*%
%TO.N,/ROW5*%
X131064000Y-140716000D03*
D20*
%TO.P,J39,1,Pin_1*%
%TO.N,Net-(D61-A)*%
X133604000Y-140716000D03*
%TD*%
%TO.P,J38,1,Pin_1*%
%TO.N,Net-(D60-A)*%
X113792000Y-140716000D03*
D21*
%TO.P,J38,2,Pin_2*%
%TO.N,/ROW3*%
X111252000Y-140716000D03*
%TO.P,J38,3,Pin_3*%
%TO.N,Net-(D36-A)*%
X113792000Y-138176000D03*
%TO.P,J38,4,Pin_4*%
%TO.N,/ROW3*%
X111252000Y-138176000D03*
%TO.P,J38,5,Pin_5*%
%TO.N,Net-(D33-A)*%
X113792000Y-135636000D03*
%TO.P,J38,6,Pin_6*%
%TO.N,/ROW3*%
X111252000Y-135636000D03*
%TO.P,J38,7,Pin_7*%
%TO.N,Net-(D32-A)*%
X113792000Y-133096000D03*
%TO.P,J38,8,Pin_8*%
%TO.N,/ROW3*%
X111252000Y-133096000D03*
%TO.P,J38,9,Pin_9*%
%TO.N,Net-(D34-A)*%
X113792000Y-130556000D03*
%TO.P,J38,10,Pin_10*%
%TO.N,/ROW3*%
X111252000Y-130556000D03*
%TO.P,J38,11,Pin_11*%
%TO.N,Net-(D26-A)*%
X113792000Y-128016000D03*
%TO.P,J38,12,Pin_12*%
%TO.N,/ROW3*%
X111252000Y-128016000D03*
%TO.P,J38,13,Pin_13*%
%TO.N,Net-(D29-A)*%
X113792000Y-125476000D03*
%TO.P,J38,14,Pin_14*%
%TO.N,/ROW3*%
X111252000Y-125476000D03*
%TO.P,J38,15,Pin_15*%
%TO.N,Net-(D35-A)*%
X113792000Y-122936000D03*
%TO.P,J38,16,Pin_16*%
%TO.N,/ROW3*%
X111252000Y-122936000D03*
%TD*%
%TO.P,J27,16,Pin_16*%
%TO.N,/GRID1*%
X186817000Y-83190000D03*
%TO.P,J27,15,Pin_15*%
%TO.N,/SEG9*%
X186817000Y-85730000D03*
%TO.P,J27,14,Pin_14*%
%TO.N,/GRID2*%
X184277000Y-83190000D03*
%TO.P,J27,13,Pin_13*%
%TO.N,/SEG9*%
X184277000Y-85730000D03*
%TO.P,J27,12,Pin_12*%
%TO.N,/GRID3*%
X181737000Y-83190000D03*
%TO.P,J27,11,Pin_11*%
%TO.N,/SEG9*%
X181737000Y-85730000D03*
%TO.P,J27,10,Pin_10*%
%TO.N,/GRID4*%
X179197000Y-83190000D03*
%TO.P,J27,9,Pin_9*%
%TO.N,/SEG9*%
X179197000Y-85730000D03*
%TO.P,J27,8,Pin_8*%
%TO.N,/GRID5*%
X176657000Y-83190000D03*
%TO.P,J27,7,Pin_7*%
%TO.N,/SEG9*%
X176657000Y-85730000D03*
%TO.P,J27,6,Pin_6*%
%TO.N,/GRID6*%
X174117000Y-83190000D03*
%TO.P,J27,5,Pin_5*%
%TO.N,/SEG9*%
X174117000Y-85730000D03*
%TO.P,J27,4,Pin_4*%
%TO.N,/GRID7*%
X171577000Y-83190000D03*
%TO.P,J27,3,Pin_3*%
%TO.N,/SEG9*%
X171577000Y-85730000D03*
%TO.P,J27,2,Pin_2*%
%TO.N,/GRID8*%
X169037000Y-83190000D03*
D20*
%TO.P,J27,1,Pin_1*%
%TO.N,/SEG9*%
X169037000Y-85730000D03*
%TD*%
D21*
%TO.P,J28,16,Pin_16*%
%TO.N,/GRID1*%
X186817000Y-69723000D03*
%TO.P,J28,15,Pin_15*%
%TO.N,/SEG11*%
X186817000Y-72263000D03*
%TO.P,J28,14,Pin_14*%
%TO.N,/GRID2*%
X184277000Y-69723000D03*
%TO.P,J28,13,Pin_13*%
%TO.N,/SEG11*%
X184277000Y-72263000D03*
%TO.P,J28,12,Pin_12*%
%TO.N,/GRID3*%
X181737000Y-69723000D03*
%TO.P,J28,11,Pin_11*%
%TO.N,/SEG11*%
X181737000Y-72263000D03*
%TO.P,J28,10,Pin_10*%
%TO.N,/GRID4*%
X179197000Y-69723000D03*
%TO.P,J28,9,Pin_9*%
%TO.N,/SEG11*%
X179197000Y-72263000D03*
%TO.P,J28,8,Pin_8*%
%TO.N,/GRID5*%
X176657000Y-69723000D03*
%TO.P,J28,7,Pin_7*%
%TO.N,/SEG11*%
X176657000Y-72263000D03*
%TO.P,J28,6,Pin_6*%
%TO.N,/GRID6*%
X174117000Y-69723000D03*
%TO.P,J28,5,Pin_5*%
%TO.N,/SEG11*%
X174117000Y-72263000D03*
%TO.P,J28,4,Pin_4*%
%TO.N,/GRID7*%
X171577000Y-69723000D03*
%TO.P,J28,3,Pin_3*%
%TO.N,/SEG11*%
X171577000Y-72263000D03*
%TO.P,J28,2,Pin_2*%
%TO.N,/GRID8*%
X169037000Y-69723000D03*
D20*
%TO.P,J28,1,Pin_1*%
%TO.N,/SEG11*%
X169037000Y-72263000D03*
%TD*%
D21*
%TO.P,J35,16,Pin_16*%
%TO.N,/GRID1*%
X186817000Y-89667000D03*
%TO.P,J35,15,Pin_15*%
%TO.N,/SEG4*%
X186817000Y-92207000D03*
%TO.P,J35,14,Pin_14*%
%TO.N,/GRID2*%
X184277000Y-89667000D03*
%TO.P,J35,13,Pin_13*%
%TO.N,/SEG4*%
X184277000Y-92207000D03*
%TO.P,J35,12,Pin_12*%
%TO.N,/GRID3*%
X181737000Y-89667000D03*
%TO.P,J35,11,Pin_11*%
%TO.N,/SEG4*%
X181737000Y-92207000D03*
%TO.P,J35,10,Pin_10*%
%TO.N,/GRID4*%
X179197000Y-89667000D03*
%TO.P,J35,9,Pin_9*%
%TO.N,/SEG4*%
X179197000Y-92207000D03*
%TO.P,J35,8,Pin_8*%
%TO.N,/GRID5*%
X176657000Y-89667000D03*
%TO.P,J35,7,Pin_7*%
%TO.N,/SEG4*%
X176657000Y-92207000D03*
%TO.P,J35,6,Pin_6*%
%TO.N,/GRID6*%
X174117000Y-89667000D03*
%TO.P,J35,5,Pin_5*%
%TO.N,/SEG4*%
X174117000Y-92207000D03*
%TO.P,J35,4,Pin_4*%
%TO.N,/GRID7*%
X171577000Y-89667000D03*
%TO.P,J35,3,Pin_3*%
%TO.N,/SEG4*%
X171577000Y-92207000D03*
%TO.P,J35,2,Pin_2*%
%TO.N,/GRID8*%
X169037000Y-89667000D03*
D20*
%TO.P,J35,1,Pin_1*%
%TO.N,/SEG4*%
X169037000Y-92207000D03*
%TD*%
D21*
%TO.P,J29,16,Pin_16*%
%TO.N,/GRID1*%
X186817000Y-63119000D03*
%TO.P,J29,15,Pin_15*%
%TO.N,/SEG12*%
X186817000Y-65659000D03*
%TO.P,J29,14,Pin_14*%
%TO.N,/GRID2*%
X184277000Y-63119000D03*
%TO.P,J29,13,Pin_13*%
%TO.N,/SEG12*%
X184277000Y-65659000D03*
%TO.P,J29,12,Pin_12*%
%TO.N,/GRID3*%
X181737000Y-63119000D03*
%TO.P,J29,11,Pin_11*%
%TO.N,/SEG12*%
X181737000Y-65659000D03*
%TO.P,J29,10,Pin_10*%
%TO.N,/GRID4*%
X179197000Y-63119000D03*
%TO.P,J29,9,Pin_9*%
%TO.N,/SEG12*%
X179197000Y-65659000D03*
%TO.P,J29,8,Pin_8*%
%TO.N,/GRID5*%
X176657000Y-63119000D03*
%TO.P,J29,7,Pin_7*%
%TO.N,/SEG12*%
X176657000Y-65659000D03*
%TO.P,J29,6,Pin_6*%
%TO.N,/GRID6*%
X174117000Y-63119000D03*
%TO.P,J29,5,Pin_5*%
%TO.N,/SEG12*%
X174117000Y-65659000D03*
%TO.P,J29,4,Pin_4*%
%TO.N,/GRID7*%
X171577000Y-63119000D03*
%TO.P,J29,3,Pin_3*%
%TO.N,/SEG12*%
X171577000Y-65659000D03*
%TO.P,J29,2,Pin_2*%
%TO.N,/GRID8*%
X169037000Y-63119000D03*
D20*
%TO.P,J29,1,Pin_1*%
%TO.N,/SEG12*%
X169037000Y-65659000D03*
%TD*%
D21*
%TO.P,J34,16,Pin_16*%
%TO.N,/GRID1*%
X186817000Y-103002000D03*
%TO.P,J34,15,Pin_15*%
%TO.N,/SEG2*%
X186817000Y-105542000D03*
%TO.P,J34,14,Pin_14*%
%TO.N,/GRID2*%
X184277000Y-103002000D03*
%TO.P,J34,13,Pin_13*%
%TO.N,/SEG2*%
X184277000Y-105542000D03*
%TO.P,J34,12,Pin_12*%
%TO.N,/GRID3*%
X181737000Y-103002000D03*
%TO.P,J34,11,Pin_11*%
%TO.N,/SEG2*%
X181737000Y-105542000D03*
%TO.P,J34,10,Pin_10*%
%TO.N,/GRID4*%
X179197000Y-103002000D03*
%TO.P,J34,9,Pin_9*%
%TO.N,/SEG2*%
X179197000Y-105542000D03*
%TO.P,J34,8,Pin_8*%
%TO.N,/GRID5*%
X176657000Y-103002000D03*
%TO.P,J34,7,Pin_7*%
%TO.N,/SEG2*%
X176657000Y-105542000D03*
%TO.P,J34,6,Pin_6*%
%TO.N,/GRID6*%
X174117000Y-103002000D03*
%TO.P,J34,5,Pin_5*%
%TO.N,/SEG2*%
X174117000Y-105542000D03*
%TO.P,J34,4,Pin_4*%
%TO.N,/GRID7*%
X171577000Y-103002000D03*
%TO.P,J34,3,Pin_3*%
%TO.N,/SEG2*%
X171577000Y-105542000D03*
%TO.P,J34,2,Pin_2*%
%TO.N,/GRID8*%
X169037000Y-103002000D03*
D20*
%TO.P,J34,1,Pin_1*%
%TO.N,/SEG2*%
X169037000Y-105542000D03*
%TD*%
D21*
%TO.P,J26,16,Pin_16*%
%TO.N,/GRID1*%
X186817000Y-76454000D03*
%TO.P,J26,15,Pin_15*%
%TO.N,/SEG10*%
X186817000Y-78994000D03*
%TO.P,J26,14,Pin_14*%
%TO.N,/GRID2*%
X184277000Y-76454000D03*
%TO.P,J26,13,Pin_13*%
%TO.N,/SEG10*%
X184277000Y-78994000D03*
%TO.P,J26,12,Pin_12*%
%TO.N,/GRID3*%
X181737000Y-76454000D03*
%TO.P,J26,11,Pin_11*%
%TO.N,/SEG10*%
X181737000Y-78994000D03*
%TO.P,J26,10,Pin_10*%
%TO.N,/GRID4*%
X179197000Y-76454000D03*
%TO.P,J26,9,Pin_9*%
%TO.N,/SEG10*%
X179197000Y-78994000D03*
%TO.P,J26,8,Pin_8*%
%TO.N,/GRID5*%
X176657000Y-76454000D03*
%TO.P,J26,7,Pin_7*%
%TO.N,/SEG10*%
X176657000Y-78994000D03*
%TO.P,J26,6,Pin_6*%
%TO.N,/GRID6*%
X174117000Y-76454000D03*
%TO.P,J26,5,Pin_5*%
%TO.N,/SEG10*%
X174117000Y-78994000D03*
%TO.P,J26,4,Pin_4*%
%TO.N,/GRID7*%
X171577000Y-76454000D03*
%TO.P,J26,3,Pin_3*%
%TO.N,/SEG10*%
X171577000Y-78994000D03*
%TO.P,J26,2,Pin_2*%
%TO.N,/GRID8*%
X169037000Y-76454000D03*
D20*
%TO.P,J26,1,Pin_1*%
%TO.N,/SEG10*%
X169037000Y-78994000D03*
%TD*%
D21*
%TO.P,J33,16,Pin_16*%
%TO.N,/GRID1*%
X186817000Y-109733000D03*
%TO.P,J33,15,Pin_15*%
%TO.N,/SEG1*%
X186817000Y-112273000D03*
%TO.P,J33,14,Pin_14*%
%TO.N,/GRID2*%
X184277000Y-109733000D03*
%TO.P,J33,13,Pin_13*%
%TO.N,/SEG1*%
X184277000Y-112273000D03*
%TO.P,J33,12,Pin_12*%
%TO.N,/GRID3*%
X181737000Y-109733000D03*
%TO.P,J33,11,Pin_11*%
%TO.N,/SEG1*%
X181737000Y-112273000D03*
%TO.P,J33,10,Pin_10*%
%TO.N,/GRID4*%
X179197000Y-109733000D03*
%TO.P,J33,9,Pin_9*%
%TO.N,/SEG1*%
X179197000Y-112273000D03*
%TO.P,J33,8,Pin_8*%
%TO.N,/GRID5*%
X176657000Y-109733000D03*
%TO.P,J33,7,Pin_7*%
%TO.N,/SEG1*%
X176657000Y-112273000D03*
%TO.P,J33,6,Pin_6*%
%TO.N,/GRID6*%
X174117000Y-109733000D03*
%TO.P,J33,5,Pin_5*%
%TO.N,/SEG1*%
X174117000Y-112273000D03*
%TO.P,J33,4,Pin_4*%
%TO.N,/GRID7*%
X171577000Y-109733000D03*
%TO.P,J33,3,Pin_3*%
%TO.N,/SEG1*%
X171577000Y-112273000D03*
%TO.P,J33,2,Pin_2*%
%TO.N,/GRID8*%
X169037000Y-109733000D03*
D20*
%TO.P,J33,1,Pin_1*%
%TO.N,/SEG1*%
X169037000Y-112273000D03*
%TD*%
D21*
%TO.P,J32,16,Pin_16*%
%TO.N,/GRID1*%
X186817000Y-96271000D03*
%TO.P,J32,15,Pin_15*%
%TO.N,/SEG3*%
X186817000Y-98811000D03*
%TO.P,J32,14,Pin_14*%
%TO.N,/GRID2*%
X184277000Y-96271000D03*
%TO.P,J32,13,Pin_13*%
%TO.N,/SEG3*%
X184277000Y-98811000D03*
%TO.P,J32,12,Pin_12*%
%TO.N,/GRID3*%
X181737000Y-96271000D03*
%TO.P,J32,11,Pin_11*%
%TO.N,/SEG3*%
X181737000Y-98811000D03*
%TO.P,J32,10,Pin_10*%
%TO.N,/GRID4*%
X179197000Y-96271000D03*
%TO.P,J32,9,Pin_9*%
%TO.N,/SEG3*%
X179197000Y-98811000D03*
%TO.P,J32,8,Pin_8*%
%TO.N,/GRID5*%
X176657000Y-96271000D03*
%TO.P,J32,7,Pin_7*%
%TO.N,/SEG3*%
X176657000Y-98811000D03*
%TO.P,J32,6,Pin_6*%
%TO.N,/GRID6*%
X174117000Y-96271000D03*
%TO.P,J32,5,Pin_5*%
%TO.N,/SEG3*%
X174117000Y-98811000D03*
%TO.P,J32,4,Pin_4*%
%TO.N,/GRID7*%
X171577000Y-96271000D03*
%TO.P,J32,3,Pin_3*%
%TO.N,/SEG3*%
X171577000Y-98811000D03*
%TO.P,J32,2,Pin_2*%
%TO.N,/GRID8*%
X169037000Y-96271000D03*
D20*
%TO.P,J32,1,Pin_1*%
%TO.N,/SEG3*%
X169037000Y-98811000D03*
%TD*%
D22*
%TO.N,+3V3*%
X114173000Y-120142000D03*
X163576000Y-120142000D03*
%TO.N,GND*%
X152273000Y-90297000D03*
%TO.N,+3V3*%
X151511000Y-92075000D03*
%TO.N,GND*%
X157353000Y-99187000D03*
X158623000Y-99187000D03*
X162433000Y-99314000D03*
%TO.N,/ADC_MUX_D*%
X126365000Y-104775000D03*
X126619000Y-111760000D03*
%TO.N,+3V3*%
X150368000Y-113919000D03*
X154051000Y-120142000D03*
X124333000Y-120142000D03*
X134239000Y-120142000D03*
X104521000Y-120142000D03*
X94488000Y-120142000D03*
%TO.N,/ADC_MUX_D*%
X119888000Y-83439000D03*
%TO.N,/ADC_MUX_C*%
X118872000Y-83439000D03*
%TO.N,GND*%
X102743000Y-91440000D03*
%TO.N,/SCL*%
X143510000Y-100584000D03*
%TO.N,GND*%
X90805000Y-78232000D03*
%TO.N,/SDA*%
X141859000Y-99695000D03*
%TO.N,+3V3*%
X96647000Y-108712000D03*
X96647000Y-102489000D03*
X102743000Y-85852000D03*
X101600000Y-85852000D03*
X100584000Y-85805511D03*
X110490000Y-84074000D03*
X175286500Y-136525000D03*
X151384000Y-113919000D03*
%TO.N,/SCLK*%
X150997000Y-109638000D03*
X142367000Y-97647003D03*
%TO.N,/MOSI*%
X142367000Y-96647000D03*
X150954000Y-108458000D03*
%TO.N,+3V3*%
X144399000Y-95641000D03*
X144399000Y-103769000D03*
X143881500Y-120142000D03*
%TO.N,GND*%
X117638668Y-102870000D03*
X117638668Y-108839000D03*
%TO.N,/COL_MUX_A*%
X183956000Y-135255000D03*
%TO.N,/COL_MUX_B*%
X183956000Y-133985000D03*
%TO.N,/COL_MUX_C*%
X183956000Y-132715000D03*
%TO.N,/CS_KEY*%
X183956000Y-128778000D03*
%TO.N,GND*%
X150978500Y-104521000D03*
X164641000Y-104648000D03*
%TO.N,/GRID5*%
X164641000Y-102108000D03*
%TO.N,/GRID6*%
X164641000Y-103378000D03*
%TO.N,/GRID7*%
X164641000Y-105918000D03*
%TO.N,/GRID8*%
X164641000Y-107188000D03*
%TO.N,/GRID4*%
X150915000Y-102108000D03*
%TO.N,/GRID3*%
X150915000Y-103378000D03*
%TO.N,/GRID2*%
X151042000Y-105918000D03*
%TO.N,/GRID1*%
X151042000Y-107188000D03*
%TO.N,GND*%
X112720500Y-76489000D03*
X112720500Y-74457000D03*
X112720500Y-75473000D03*
%TO.N,+3V3*%
X89789000Y-75692000D03*
X89789000Y-74803000D03*
X89789000Y-73914000D03*
%TO.N,GND*%
X150368000Y-116713000D03*
%TO.N,Net-(D1-A)*%
X107950000Y-85471000D03*
%TO.N,GND*%
X110490000Y-87122000D03*
X120650000Y-92329000D03*
X117856000Y-83566000D03*
X183956000Y-126365000D03*
X183956000Y-131445000D03*
X183956000Y-130175000D03*
X178207500Y-136525000D03*
X106807000Y-92885500D03*
X113816500Y-79584000D03*
X97536000Y-80408011D03*
X106680000Y-80205000D03*
%TD*%
D23*
%TO.N,/ROW8*%
X160688000Y-122936000D02*
X160688000Y-140716000D01*
%TO.N,/MISO*%
X153797000Y-63119000D02*
X154972000Y-61944000D01*
X154972000Y-61944000D02*
X161512000Y-61944000D01*
X161512000Y-61944000D02*
X162687000Y-63119000D01*
%TO.N,/MOSI*%
X160147000Y-65659000D02*
X160147000Y-65786000D01*
X160147000Y-65786000D02*
X158972000Y-66961000D01*
X158972000Y-70834000D02*
X160147000Y-72009000D01*
X158972000Y-66961000D02*
X158972000Y-70834000D01*
%TO.N,Net-(D1-A)*%
X107950000Y-85471000D02*
X106934000Y-85471000D01*
X106934000Y-85471000D02*
X99949000Y-92456000D01*
X99949000Y-92456000D02*
X99949000Y-101800334D01*
X99949000Y-101800334D02*
X103812666Y-105664000D01*
%TO.N,/MISO*%
X162687000Y-69469000D02*
X161512000Y-70644000D01*
X161512000Y-70644000D02*
X161512000Y-74644000D01*
X161512000Y-74644000D02*
X162687000Y-75819000D01*
X162687000Y-63119000D02*
X161512000Y-64294000D01*
X161512000Y-64294000D02*
X161512000Y-68294000D01*
X161512000Y-68294000D02*
X162687000Y-69469000D01*
X139319000Y-96774000D02*
X147320000Y-88773000D01*
X151457033Y-88773000D02*
X154987000Y-85243033D01*
X147320000Y-88773000D02*
X151457033Y-88773000D01*
X154987000Y-85243033D02*
X154987000Y-83391332D01*
X154987000Y-83391332D02*
X153812000Y-82216332D01*
%TO.N,/SCLK*%
X131699000Y-96774000D02*
X141732000Y-86741000D01*
X141732000Y-86741000D02*
X151827332Y-86741000D01*
X151827332Y-86741000D02*
X153812000Y-84756332D01*
%TO.N,/MOSI*%
X129159000Y-96774000D02*
X141176668Y-84756332D01*
X141176668Y-84756332D02*
X151272000Y-84756332D01*
%TO.N,/GRID4*%
X150915000Y-102108000D02*
X152527000Y-102108000D01*
X152527000Y-102108000D02*
X154178000Y-100457000D01*
X176652000Y-100457000D02*
X179197000Y-103002000D01*
X154178000Y-100457000D02*
X176652000Y-100457000D01*
%TO.N,/GRID2*%
X151042000Y-105918000D02*
X154432000Y-105918000D01*
X183012000Y-110998000D02*
X184277000Y-109733000D01*
X154432000Y-105918000D02*
X159512000Y-110998000D01*
X159512000Y-110998000D02*
X183012000Y-110998000D01*
%TO.N,/GRID1*%
X151042000Y-107188000D02*
X152908000Y-107188000D01*
X152908000Y-107188000D02*
X159385000Y-113665000D01*
X188341000Y-111257000D02*
X186817000Y-109733000D01*
X188341000Y-112903000D02*
X188341000Y-111257000D01*
X159385000Y-113665000D02*
X187579000Y-113665000D01*
X187579000Y-113665000D02*
X188341000Y-112903000D01*
%TO.N,/CS_KEY*%
X136779000Y-96774000D02*
X138684000Y-98679000D01*
X138684000Y-98679000D02*
X143002000Y-98679000D01*
X155321000Y-111633000D02*
X163068000Y-119380000D01*
X145669000Y-101346000D02*
X145669000Y-104521000D01*
X145669000Y-104521000D02*
X148844000Y-107696000D01*
X151892000Y-111633000D02*
X155321000Y-111633000D01*
X143002000Y-98679000D02*
X145669000Y-101346000D01*
X148844000Y-107696000D02*
X148844000Y-108585000D01*
X163068000Y-119380000D02*
X174558000Y-119380000D01*
X148844000Y-108585000D02*
X151892000Y-111633000D01*
X174558000Y-119380000D02*
X183956000Y-128778000D01*
%TO.N,/SCLK*%
X143494003Y-97647003D02*
X145923000Y-100076000D01*
X145923000Y-100076000D02*
X147574701Y-100076000D01*
X149352000Y-101853299D02*
X149352000Y-107993000D01*
X147574701Y-100076000D02*
X149352000Y-101853299D01*
X142367000Y-97647003D02*
X143494003Y-97647003D01*
X149352000Y-107993000D02*
X150997000Y-109638000D01*
%TO.N,/MOSI*%
X144780000Y-96647000D02*
X145774000Y-97641000D01*
X145774000Y-97641000D02*
X148314000Y-97641000D01*
X148314000Y-97641000D02*
X149733000Y-99060000D01*
X149733000Y-99060000D02*
X149733000Y-107237000D01*
X142367000Y-96647000D02*
X144780000Y-96647000D01*
X149733000Y-107237000D02*
X150954000Y-108458000D01*
%TO.N,/GRID3*%
X152693000Y-103378000D02*
X154638000Y-101433000D01*
X164920595Y-101433000D02*
X167754595Y-104267000D01*
X167754595Y-104267000D02*
X180472000Y-104267000D01*
X154638000Y-101433000D02*
X164920595Y-101433000D01*
X150915000Y-103378000D02*
X152693000Y-103378000D01*
X180472000Y-104267000D02*
X181737000Y-103002000D01*
%TO.N,/SCL*%
X143510000Y-100584000D02*
X143510000Y-107315000D01*
X143510000Y-107315000D02*
X137541000Y-113284000D01*
X137541000Y-113284000D02*
X130175000Y-113284000D01*
X130175000Y-113284000D02*
X127508000Y-110617000D01*
X127508000Y-110617000D02*
X110236000Y-110617000D01*
X110236000Y-110617000D02*
X106299000Y-114554000D01*
%TO.N,/SDA*%
X141859000Y-99695000D02*
X141859000Y-108204000D01*
X137160000Y-112903000D02*
X130810000Y-112903000D01*
X141859000Y-108204000D02*
X137160000Y-112903000D01*
X130810000Y-112903000D02*
X128016000Y-110109000D01*
X128016000Y-110109000D02*
X108204000Y-110109000D01*
X108204000Y-110109000D02*
X103759000Y-114554000D01*
%TO.N,/ADC_MUX_D*%
X125349000Y-104394000D02*
X125730000Y-104775000D01*
X125730000Y-104775000D02*
X126365000Y-104775000D01*
X119888000Y-83439000D02*
X125349000Y-88900000D01*
X125349000Y-88900000D02*
X125349000Y-104394000D01*
X126619000Y-114554000D02*
X126619000Y-111760000D01*
%TO.N,/GRID5*%
X165874579Y-103341579D02*
X165874579Y-105905421D01*
X164641000Y-102108000D02*
X165874579Y-103341579D01*
X165874579Y-105905421D02*
X167542158Y-107573000D01*
X167542158Y-107573000D02*
X174497000Y-107573000D01*
X174497000Y-107573000D02*
X176657000Y-109733000D01*
%TO.N,/GRID6*%
X164846000Y-103378000D02*
X165481000Y-104013000D01*
X165481000Y-104013000D02*
X165481000Y-106045000D01*
X167386000Y-107950000D02*
X172334000Y-107950000D01*
X164641000Y-103378000D02*
X164846000Y-103378000D01*
X165481000Y-106045000D02*
X167386000Y-107950000D01*
X172334000Y-107950000D02*
X174117000Y-109733000D01*
%TO.N,/GRID7*%
X164641000Y-105918000D02*
X167181000Y-108458000D01*
X167181000Y-108458000D02*
X170302000Y-108458000D01*
X170302000Y-108458000D02*
X171577000Y-109733000D01*
%TO.N,/GRID8*%
X164641000Y-107188000D02*
X167186000Y-109733000D01*
X167186000Y-109733000D02*
X169037000Y-109733000D01*
%TO.N,/SEG12*%
X169037000Y-65659000D02*
X186817000Y-65659000D01*
%TO.N,/SEG11*%
X169037000Y-72263000D02*
X186817000Y-72263000D01*
%TO.N,/SEG10*%
X169037000Y-78994000D02*
X186817000Y-78994000D01*
%TO.N,/SEG9*%
X169037000Y-85730000D02*
X186817000Y-85730000D01*
%TO.N,/SEG4*%
X169037000Y-92207000D02*
X186817000Y-92207000D01*
%TO.N,/SEG3*%
X169037000Y-98811000D02*
X186817000Y-98811000D01*
%TO.N,/SEG2*%
X169037000Y-105542000D02*
X186817000Y-105542000D01*
%TO.N,/SEG1*%
X169037000Y-112273000D02*
X186817000Y-112273000D01*
%TO.N,/COL_MUX_B*%
X181229000Y-133985000D02*
X183956000Y-133985000D01*
X122682000Y-118237000D02*
X125756491Y-118237000D01*
X125756491Y-118237000D02*
X128550491Y-121031000D01*
X180340000Y-134874000D02*
X181229000Y-133985000D01*
X128550491Y-121031000D02*
X132080000Y-121031000D01*
X132810000Y-137001000D02*
X134090701Y-137001000D01*
X118999000Y-114554000D02*
X122682000Y-118237000D01*
X136779000Y-139689299D02*
X136779000Y-140843000D01*
X177670159Y-142268000D02*
X180340000Y-139598159D01*
X132080000Y-121031000D02*
X132334000Y-121285000D01*
X134090701Y-137001000D02*
X136779000Y-139689299D01*
X132334000Y-136525000D02*
X132810000Y-137001000D01*
X180340000Y-139598159D02*
X180340000Y-134874000D01*
X132334000Y-121285000D02*
X132334000Y-136525000D01*
X136779000Y-140843000D02*
X138204000Y-142268000D01*
X138204000Y-142268000D02*
X177670159Y-142268000D01*
%TO.N,/COL_MUX_C*%
X179705000Y-139700000D02*
X179705000Y-133985000D01*
X157988000Y-120269000D02*
X157988000Y-140970000D01*
X124079000Y-114554000D02*
X128651000Y-119126000D01*
X156845000Y-119126000D02*
X157988000Y-120269000D01*
X180975000Y-132715000D02*
X183956000Y-132715000D01*
X128651000Y-119126000D02*
X156845000Y-119126000D01*
X157988000Y-140970000D02*
X158909000Y-141891000D01*
X179705000Y-133985000D02*
X180975000Y-132715000D01*
X158909000Y-141891000D02*
X177514000Y-141891000D01*
X177514000Y-141891000D02*
X179705000Y-139700000D01*
%TO.N,/COL_MUX_A*%
X118745000Y-142645000D02*
X177826318Y-142645000D01*
X177826318Y-142645000D02*
X183956000Y-136515318D01*
X183956000Y-136515318D02*
X183956000Y-135255000D01*
X116459000Y-140359000D02*
X118745000Y-142645000D01*
X116459000Y-114554000D02*
X116459000Y-140359000D01*
%TO.N,/UART0_RX*%
X133731000Y-116586000D02*
X139943299Y-116586000D01*
X146706299Y-109823000D02*
X147796000Y-109823000D01*
X131699000Y-114554000D02*
X133731000Y-116586000D01*
X139943299Y-116586000D02*
X146706299Y-109823000D01*
X148368000Y-110395000D02*
X148368000Y-112363000D01*
X147796000Y-109823000D02*
X148368000Y-110395000D01*
X148368000Y-112363000D02*
X147193000Y-113538000D01*
%TO.N,/UART0_TX*%
X129159000Y-114554000D02*
X131572000Y-116967000D01*
X131572000Y-116967000D02*
X141224000Y-116967000D01*
X141224000Y-116967000D02*
X147193000Y-110998000D01*
%TO.N,/ROW7*%
X150876000Y-122936000D02*
X150876000Y-140716000D01*
%TO.N,/ROW6*%
X140970000Y-122936000D02*
X140970000Y-140716000D01*
%TO.N,/ROW5*%
X131064000Y-122936000D02*
X131064000Y-140716000D01*
%TO.N,/ROW4*%
X121158000Y-122920210D02*
X121158000Y-140700210D01*
%TO.N,/ROW2*%
X101346000Y-122936000D02*
X101346000Y-140716000D01*
%TO.N,/ROW1*%
X91440000Y-122936000D02*
X91440000Y-140716000D01*
%TO.N,/ADC_MUX_C*%
X118999000Y-96774000D02*
X118999000Y-83566000D01*
X118999000Y-83566000D02*
X118872000Y-83439000D01*
D24*
%TO.N,VDDA*%
X119761000Y-76118000D02*
X118065000Y-76118000D01*
X103759000Y-95250000D02*
X103759000Y-96774000D01*
X116967000Y-81407000D02*
X114046000Y-84328000D01*
X118065000Y-76118000D02*
X116967000Y-77216000D01*
X116967000Y-77216000D02*
X116967000Y-81407000D01*
X104648000Y-94361000D02*
X103759000Y-95250000D01*
X114046000Y-84328000D02*
X114046000Y-89154000D01*
X114046000Y-89154000D02*
X108839000Y-94361000D01*
X108839000Y-94361000D02*
X104648000Y-94361000D01*
D23*
X147320000Y-76118000D02*
X119761000Y-76118000D01*
X119761000Y-68199000D02*
X147320000Y-68199000D01*
X119761000Y-68199000D02*
X119761000Y-76118000D01*
X103759000Y-96774000D02*
X103759000Y-98552000D01*
X103759000Y-98552000D02*
X110871000Y-105664000D01*
D24*
X110109000Y-104140000D02*
X110109000Y-105664000D01*
D23*
%TO.N,+3V3*%
X96647000Y-105664000D02*
X96647000Y-108712000D01*
X96647000Y-105664000D02*
X96647000Y-102489000D01*
%TO.N,GND*%
X117602000Y-105791000D02*
X117602000Y-102906668D01*
X117602000Y-105791000D02*
X117602000Y-108802332D01*
%TO.N,/ROW3*%
X111252000Y-122936000D02*
X111252000Y-140716000D01*
%TD*%
M02*
