%TF.GenerationSoftware,KiCad,Pcbnew,8.0.8*%
%TF.CreationDate,2025-03-09T11:30:45-03:00*%
%TF.ProjectId,pi_controller,70695f63-6f6e-4747-926f-6c6c65722e6b,1.0*%
%TF.SameCoordinates,Original*%
%TF.FileFunction,Legend,Bot*%
%TF.FilePolarity,Positive*%
%FSLAX46Y46*%
G04 Gerber Fmt 4.6, Leading zero omitted, Abs format (unit mm)*
G04 Created by KiCad (PCBNEW 8.0.8) date 2025-03-09 11:30:45*
%MOMM*%
%LPD*%
G01*
G04 APERTURE LIST*
%ADD10C,0.150000*%
%ADD11C,0.120000*%
G04 APERTURE END LIST*
D10*
X107150819Y-104402095D02*
X107150819Y-104973523D01*
X108150819Y-104687809D02*
X107150819Y-104687809D01*
X108150819Y-105306857D02*
X107150819Y-105306857D01*
X107150819Y-105306857D02*
X107150819Y-105687809D01*
X107150819Y-105687809D02*
X107198438Y-105783047D01*
X107198438Y-105783047D02*
X107246057Y-105830666D01*
X107246057Y-105830666D02*
X107341295Y-105878285D01*
X107341295Y-105878285D02*
X107484152Y-105878285D01*
X107484152Y-105878285D02*
X107579390Y-105830666D01*
X107579390Y-105830666D02*
X107627009Y-105783047D01*
X107627009Y-105783047D02*
X107674628Y-105687809D01*
X107674628Y-105687809D02*
X107674628Y-105306857D01*
X107246057Y-106259238D02*
X107198438Y-106306857D01*
X107198438Y-106306857D02*
X107150819Y-106402095D01*
X107150819Y-106402095D02*
X107150819Y-106640190D01*
X107150819Y-106640190D02*
X107198438Y-106735428D01*
X107198438Y-106735428D02*
X107246057Y-106783047D01*
X107246057Y-106783047D02*
X107341295Y-106830666D01*
X107341295Y-106830666D02*
X107436533Y-106830666D01*
X107436533Y-106830666D02*
X107579390Y-106783047D01*
X107579390Y-106783047D02*
X108150819Y-106211619D01*
X108150819Y-106211619D02*
X108150819Y-106830666D01*
X100038819Y-104402095D02*
X100038819Y-104973523D01*
X101038819Y-104687809D02*
X100038819Y-104687809D01*
X101038819Y-105306857D02*
X100038819Y-105306857D01*
X100038819Y-105306857D02*
X100038819Y-105687809D01*
X100038819Y-105687809D02*
X100086438Y-105783047D01*
X100086438Y-105783047D02*
X100134057Y-105830666D01*
X100134057Y-105830666D02*
X100229295Y-105878285D01*
X100229295Y-105878285D02*
X100372152Y-105878285D01*
X100372152Y-105878285D02*
X100467390Y-105830666D01*
X100467390Y-105830666D02*
X100515009Y-105783047D01*
X100515009Y-105783047D02*
X100562628Y-105687809D01*
X100562628Y-105687809D02*
X100562628Y-105306857D01*
X100038819Y-106211619D02*
X100038819Y-106830666D01*
X100038819Y-106830666D02*
X100419771Y-106497333D01*
X100419771Y-106497333D02*
X100419771Y-106640190D01*
X100419771Y-106640190D02*
X100467390Y-106735428D01*
X100467390Y-106735428D02*
X100515009Y-106783047D01*
X100515009Y-106783047D02*
X100610247Y-106830666D01*
X100610247Y-106830666D02*
X100848342Y-106830666D01*
X100848342Y-106830666D02*
X100943580Y-106783047D01*
X100943580Y-106783047D02*
X100991200Y-106735428D01*
X100991200Y-106735428D02*
X101038819Y-106640190D01*
X101038819Y-106640190D02*
X101038819Y-106354476D01*
X101038819Y-106354476D02*
X100991200Y-106259238D01*
X100991200Y-106259238D02*
X100943580Y-106211619D01*
X92926819Y-104402095D02*
X92926819Y-104973523D01*
X93926819Y-104687809D02*
X92926819Y-104687809D01*
X93926819Y-105306857D02*
X92926819Y-105306857D01*
X92926819Y-105306857D02*
X92926819Y-105687809D01*
X92926819Y-105687809D02*
X92974438Y-105783047D01*
X92974438Y-105783047D02*
X93022057Y-105830666D01*
X93022057Y-105830666D02*
X93117295Y-105878285D01*
X93117295Y-105878285D02*
X93260152Y-105878285D01*
X93260152Y-105878285D02*
X93355390Y-105830666D01*
X93355390Y-105830666D02*
X93403009Y-105783047D01*
X93403009Y-105783047D02*
X93450628Y-105687809D01*
X93450628Y-105687809D02*
X93450628Y-105306857D01*
X93260152Y-106735428D02*
X93926819Y-106735428D01*
X92879200Y-106497333D02*
X93593485Y-106259238D01*
X93593485Y-106259238D02*
X93593485Y-106878285D01*
X113881819Y-104529095D02*
X113881819Y-105100523D01*
X114881819Y-104814809D02*
X113881819Y-104814809D01*
X114881819Y-105433857D02*
X113881819Y-105433857D01*
X113881819Y-105433857D02*
X113881819Y-105814809D01*
X113881819Y-105814809D02*
X113929438Y-105910047D01*
X113929438Y-105910047D02*
X113977057Y-105957666D01*
X113977057Y-105957666D02*
X114072295Y-106005285D01*
X114072295Y-106005285D02*
X114215152Y-106005285D01*
X114215152Y-106005285D02*
X114310390Y-105957666D01*
X114310390Y-105957666D02*
X114358009Y-105910047D01*
X114358009Y-105910047D02*
X114405628Y-105814809D01*
X114405628Y-105814809D02*
X114405628Y-105433857D01*
X114881819Y-106957666D02*
X114881819Y-106386238D01*
X114881819Y-106671952D02*
X113881819Y-106671952D01*
X113881819Y-106671952D02*
X114024676Y-106576714D01*
X114024676Y-106576714D02*
X114119914Y-106481476D01*
X114119914Y-106481476D02*
X114167533Y-106386238D01*
D11*
%TO.C,TP2*%
X113121000Y-105664000D02*
G75*
G02*
X108621000Y-105664000I-2250000J0D01*
G01*
X108621000Y-105664000D02*
G75*
G02*
X113121000Y-105664000I2250000J0D01*
G01*
%TO.C,TP3*%
X106062666Y-105664000D02*
G75*
G02*
X101562666Y-105664000I-2250000J0D01*
G01*
X101562666Y-105664000D02*
G75*
G02*
X106062666Y-105664000I2250000J0D01*
G01*
%TO.C,TP4*%
X98897000Y-105664000D02*
G75*
G02*
X94397000Y-105664000I-2250000J0D01*
G01*
X94397000Y-105664000D02*
G75*
G02*
X98897000Y-105664000I2250000J0D01*
G01*
%TO.C,TP1*%
X119852000Y-105791000D02*
G75*
G02*
X115352000Y-105791000I-2250000J0D01*
G01*
X115352000Y-105791000D02*
G75*
G02*
X119852000Y-105791000I2250000J0D01*
G01*
%TD*%
M02*
