%TF.GenerationSoftware,KiCad,Pcbnew,9.0.3*%
%TF.CreationDate,2026-01-12T07:01:29-03:00*%
%TF.ProjectId,pi_controller,70695f63-6f6e-4747-926f-6c6c65722e6b,1.0*%
%TF.SameCoordinates,Original*%
%TF.FileFunction,Other,User*%
%FSLAX46Y46*%
G04 Gerber Fmt 4.6, Leading zero omitted, Abs format (unit mm)*
G04 Created by KiCad (PCBNEW 9.0.3) date 2026-01-12 07:01:29*
%MOMM*%
%LPD*%
G01*
G04 APERTURE LIST*
%ADD10C,0.050000*%
G04 APERTURE END LIST*
D10*
%TO.C,J1*%
X116937800Y-64734000D02*
X116937800Y-60234000D01*
X116937800Y-60234000D02*
X109937800Y-60234000D01*
X109937800Y-64734000D02*
X116937800Y-64734000D01*
X109937800Y-60234000D02*
X109937800Y-64734000D01*
%TO.C,AN14*%
X132937000Y-71904000D02*
X132937000Y-67404000D01*
X132937000Y-67404000D02*
X125937000Y-67404000D01*
X125937000Y-71904000D02*
X132937000Y-71904000D01*
X125937000Y-67404000D02*
X125937000Y-71904000D01*
%TO.C,AN10*%
X125444000Y-71904000D02*
X125444000Y-67404000D01*
X125444000Y-67404000D02*
X118444000Y-67404000D01*
X118444000Y-71904000D02*
X125444000Y-71904000D01*
X118444000Y-67404000D02*
X118444000Y-71904000D01*
%TO.C,AN8*%
X140430000Y-66824000D02*
X140430000Y-62324000D01*
X140430000Y-62324000D02*
X133430000Y-62324000D01*
X133430000Y-66824000D02*
X140430000Y-66824000D01*
X133430000Y-62324000D02*
X133430000Y-66824000D01*
%TO.C,AN9*%
X125444000Y-66824000D02*
X125444000Y-62324000D01*
X125444000Y-62324000D02*
X118444000Y-62324000D01*
X118444000Y-66824000D02*
X125444000Y-66824000D01*
X118444000Y-62324000D02*
X118444000Y-66824000D01*
%TO.C,AN5*%
X140430000Y-81937000D02*
X140430000Y-77437000D01*
X140430000Y-77437000D02*
X133430000Y-77437000D01*
X133430000Y-81937000D02*
X140430000Y-81937000D01*
X133430000Y-77437000D02*
X133430000Y-81937000D01*
%TO.C,AN1*%
X148026000Y-81937000D02*
X148026000Y-77437000D01*
X148026000Y-77437000D02*
X141026000Y-77437000D01*
X141026000Y-81937000D02*
X148026000Y-81937000D01*
X141026000Y-77437000D02*
X141026000Y-81937000D01*
%TO.C,AN13*%
X125444000Y-81937000D02*
X125444000Y-77437000D01*
X125444000Y-77437000D02*
X118444000Y-77437000D01*
X118444000Y-81937000D02*
X125444000Y-81937000D01*
X118444000Y-77437000D02*
X118444000Y-81937000D01*
%TO.C,AN11*%
X125444000Y-76984000D02*
X125444000Y-72484000D01*
X125444000Y-72484000D02*
X118444000Y-72484000D01*
X118444000Y-76984000D02*
X125444000Y-76984000D01*
X118444000Y-72484000D02*
X118444000Y-76984000D01*
%TO.C,AN3*%
X148026000Y-71904000D02*
X148026000Y-67404000D01*
X148026000Y-67404000D02*
X141026000Y-67404000D01*
X141026000Y-71904000D02*
X148026000Y-71904000D01*
X141026000Y-67404000D02*
X141026000Y-71904000D01*
%TO.C,AN12*%
X132937000Y-66824000D02*
X132937000Y-62324000D01*
X132937000Y-62324000D02*
X125937000Y-62324000D01*
X125937000Y-66824000D02*
X132937000Y-66824000D01*
X125937000Y-62324000D02*
X125937000Y-66824000D01*
%TO.C,AN2*%
X148026000Y-76984000D02*
X148026000Y-72484000D01*
X148026000Y-72484000D02*
X141026000Y-72484000D01*
X141026000Y-76984000D02*
X148026000Y-76984000D01*
X141026000Y-72484000D02*
X141026000Y-76984000D01*
%TO.C,AN7*%
X140430000Y-71904000D02*
X140430000Y-67404000D01*
X140430000Y-67404000D02*
X133430000Y-67404000D01*
X133430000Y-71904000D02*
X140430000Y-71904000D01*
X133430000Y-67404000D02*
X133430000Y-71904000D01*
%TO.C,AN16*%
X132937000Y-81937000D02*
X132937000Y-77437000D01*
X132937000Y-77437000D02*
X125937000Y-77437000D01*
X125937000Y-81937000D02*
X132937000Y-81937000D01*
X125937000Y-77437000D02*
X125937000Y-81937000D01*
%TO.C,AN4*%
X148026000Y-66824000D02*
X148026000Y-62324000D01*
X148026000Y-62324000D02*
X141026000Y-62324000D01*
X141026000Y-66824000D02*
X148026000Y-66824000D01*
X141026000Y-62324000D02*
X141026000Y-66824000D01*
%TO.C,AN15*%
X132937000Y-76984000D02*
X132937000Y-72484000D01*
X132937000Y-72484000D02*
X125937000Y-72484000D01*
X125937000Y-76984000D02*
X132937000Y-76984000D01*
X125937000Y-72484000D02*
X125937000Y-76984000D01*
%TO.C,AN6*%
X140430000Y-76984000D02*
X140430000Y-72484000D01*
X140430000Y-72484000D02*
X133430000Y-72484000D01*
X133430000Y-76984000D02*
X140430000Y-76984000D01*
X133430000Y-72484000D02*
X133430000Y-76984000D01*
%TO.C,J31*%
X148935000Y-107891000D02*
X144435000Y-107891000D01*
X144435000Y-107891000D02*
X144435000Y-116391000D01*
X148935000Y-116391000D02*
X148935000Y-107891000D01*
X144435000Y-116391000D02*
X148935000Y-116391000D01*
%TO.C,J30*%
X148935000Y-94810000D02*
X144435000Y-94810000D01*
X144435000Y-94810000D02*
X144435000Y-103310000D01*
X148935000Y-103310000D02*
X148935000Y-94810000D01*
X144435000Y-103310000D02*
X148935000Y-103310000D01*
%TO.C,U6*%
X152088000Y-101583000D02*
X153988000Y-101583000D01*
X152088000Y-116603000D02*
X152088000Y-101583000D01*
X153988000Y-101143000D02*
X161988000Y-101143000D01*
X153988000Y-101583000D02*
X153988000Y-101143000D01*
X153988000Y-116603000D02*
X152088000Y-116603000D01*
X153988000Y-117043000D02*
X153988000Y-116603000D01*
X161988000Y-101143000D02*
X161988000Y-101583000D01*
X161988000Y-101583000D02*
X163888000Y-101583000D01*
X161988000Y-116603000D02*
X161988000Y-117043000D01*
X161988000Y-117043000D02*
X153988000Y-117043000D01*
X163888000Y-101583000D02*
X163888000Y-116603000D01*
X163888000Y-116603000D02*
X161988000Y-116603000D01*
%TO.C,Q1*%
X109913400Y-64865200D02*
X109913400Y-76565200D01*
X109913400Y-76565200D02*
X117213400Y-76565200D01*
X117213400Y-64865200D02*
X109913400Y-64865200D01*
X117213400Y-76565200D02*
X117213400Y-64865200D01*
%TO.C,JSPI7*%
X162722000Y-65369000D02*
X162722000Y-60869000D01*
X162722000Y-60869000D02*
X151222000Y-60869000D01*
X151222000Y-65369000D02*
X162722000Y-65369000D01*
X151222000Y-60869000D02*
X151222000Y-65369000D01*
%TO.C,JSPI4*%
X154269000Y-65751000D02*
X149769000Y-65751000D01*
X149769000Y-65751000D02*
X149769000Y-77251000D01*
X154269000Y-77251000D02*
X154269000Y-65751000D01*
X149769000Y-77251000D02*
X154269000Y-77251000D01*
%TO.C,R9*%
X94002500Y-120872000D02*
X90702500Y-120872000D01*
X94002500Y-119412000D02*
X94002500Y-120872000D01*
X90702500Y-120872000D02*
X90702500Y-119412000D01*
X90702500Y-119412000D02*
X94002500Y-119412000D01*
%TO.C,C2*%
X104789244Y-80425600D02*
X104789244Y-85385600D01*
X102489244Y-80425600D02*
X104789244Y-80425600D01*
X104789244Y-85385600D02*
X102489244Y-85385600D01*
X102489244Y-85385600D02*
X102489244Y-80425600D01*
%TO.C,D42*%
X148745000Y-134046000D02*
X148745000Y-132146000D01*
X148745000Y-134046000D02*
X145545000Y-134046000D01*
X148745000Y-132146000D02*
X145545000Y-132146000D01*
X145545000Y-134046000D02*
X145545000Y-132146000D01*
%TO.C,U8*%
X100867200Y-109248200D02*
X100867200Y-107748200D01*
X110867200Y-109248200D02*
X100867200Y-109248200D01*
X100667200Y-107748200D02*
X100667200Y-103348200D01*
X100867200Y-107748200D02*
X100667200Y-107748200D01*
X110867200Y-107748200D02*
X110867200Y-109248200D01*
X111067200Y-107748200D02*
X110867200Y-107748200D01*
X100667200Y-103348200D02*
X100867200Y-103348200D01*
X100867200Y-103348200D02*
X100867200Y-101848200D01*
X110867200Y-103348200D02*
X111067200Y-103348200D01*
X111067200Y-103348200D02*
X111067200Y-107748200D01*
X100867200Y-101848200D02*
X110867200Y-101848200D01*
X110867200Y-101848200D02*
X110867200Y-103348200D01*
%TO.C,D23*%
X128938000Y-131490210D02*
X128938000Y-129590210D01*
X128938000Y-131490210D02*
X125738000Y-131490210D01*
X128938000Y-129590210D02*
X125738000Y-129590210D01*
X125738000Y-131490210D02*
X125738000Y-129590210D01*
%TO.C,F1*%
X108945800Y-62712100D02*
X108945800Y-67612100D01*
X105785800Y-62712100D02*
X108945800Y-62712100D01*
X108945800Y-67612100D02*
X105785800Y-67612100D01*
X105785800Y-67612100D02*
X105785800Y-62712100D01*
%TO.C,R10*%
X113814500Y-120872000D02*
X110514500Y-120872000D01*
X113814500Y-119412000D02*
X113814500Y-120872000D01*
X110514500Y-120872000D02*
X110514500Y-119412000D01*
X110514500Y-119412000D02*
X113814500Y-119412000D01*
%TO.C,JR1*%
X95780000Y-142516000D02*
X95780000Y-121166000D01*
X95780000Y-121166000D02*
X89630000Y-121166000D01*
X89630000Y-142516000D02*
X95780000Y-142516000D01*
X89630000Y-121166000D02*
X89630000Y-142516000D01*
%TO.C,D58*%
X99215000Y-141666000D02*
X99215000Y-139766000D01*
X99215000Y-141666000D02*
X96015000Y-141666000D01*
X99215000Y-139766000D02*
X96015000Y-139766000D01*
X96015000Y-141666000D02*
X96015000Y-139766000D01*
%TO.C,D31*%
X128938000Y-139110210D02*
X128938000Y-137210210D01*
X128938000Y-139110210D02*
X125738000Y-139110210D01*
X128938000Y-137210210D02*
X125738000Y-137210210D01*
X125738000Y-139110210D02*
X125738000Y-137210210D01*
%TO.C,D59*%
X109126000Y-141666000D02*
X109126000Y-139766000D01*
X109126000Y-141666000D02*
X105926000Y-141666000D01*
X109126000Y-139766000D02*
X105926000Y-139766000D01*
X105926000Y-141666000D02*
X105926000Y-139766000D01*
%TO.C,R12*%
X123720500Y-120856210D02*
X120420500Y-120856210D01*
X123720500Y-119396210D02*
X123720500Y-120856210D01*
X120420500Y-120856210D02*
X120420500Y-119396210D01*
X120420500Y-119396210D02*
X123720500Y-119396210D01*
%TO.C,R4*%
X107410000Y-84778000D02*
X107410000Y-88078000D01*
X105950000Y-84778000D02*
X107410000Y-84778000D01*
X107410000Y-88078000D02*
X105950000Y-88078000D01*
X105950000Y-88078000D02*
X105950000Y-84778000D01*
%TO.C,JR6*%
X145310000Y-142516000D02*
X145310000Y-121166000D01*
X145310000Y-121166000D02*
X139160000Y-121166000D01*
X139160000Y-142516000D02*
X145310000Y-142516000D01*
X139160000Y-121166000D02*
X139160000Y-142516000D01*
%TO.C,JR3*%
X115592000Y-142516000D02*
X115592000Y-121166000D01*
X115592000Y-121166000D02*
X109442000Y-121166000D01*
X109442000Y-142516000D02*
X115592000Y-142516000D01*
X109442000Y-121166000D02*
X109442000Y-142516000D01*
%TO.C,R25*%
X165550600Y-73942300D02*
X165550600Y-77242300D01*
X164090600Y-73942300D02*
X165550600Y-73942300D01*
X165550600Y-77242300D02*
X164090600Y-77242300D01*
X164090600Y-77242300D02*
X164090600Y-73942300D01*
%TO.C,R5*%
X110766500Y-92043000D02*
X107466500Y-92043000D01*
X110766500Y-90583000D02*
X110766500Y-92043000D01*
X107466500Y-92043000D02*
X107466500Y-90583000D01*
X107466500Y-90583000D02*
X110766500Y-90583000D01*
%TO.C,D10*%
X109126000Y-134046000D02*
X109126000Y-132146000D01*
X109126000Y-134046000D02*
X105926000Y-134046000D01*
X109126000Y-132146000D02*
X105926000Y-132146000D01*
X105926000Y-134046000D02*
X105926000Y-132146000D01*
%TO.C,D35*%
X119027000Y-123886000D02*
X119027000Y-121986000D01*
X119027000Y-123886000D02*
X115827000Y-123886000D01*
X119027000Y-121986000D02*
X115827000Y-121986000D01*
X115827000Y-123886000D02*
X115827000Y-121986000D01*
%TO.C,D3*%
X99215000Y-123886000D02*
X99215000Y-121986000D01*
X99215000Y-123886000D02*
X96015000Y-123886000D01*
X99215000Y-121986000D02*
X96015000Y-121986000D01*
X96015000Y-123886000D02*
X96015000Y-121986000D01*
%TO.C,H4*%
X188459000Y-144907000D02*
G75*
G02*
X184159000Y-144907000I-2150000J0D01*
G01*
X184159000Y-144907000D02*
G75*
G02*
X188459000Y-144907000I2150000J0D01*
G01*
%TO.C,D52*%
X168468000Y-126426000D02*
X168468000Y-124526000D01*
X168468000Y-126426000D02*
X165268000Y-126426000D01*
X168468000Y-124526000D02*
X165268000Y-124526000D01*
X165268000Y-126426000D02*
X165268000Y-124526000D01*
%TO.C,R29*%
X147479000Y-88977100D02*
X147479000Y-85677100D01*
X148939000Y-88977100D02*
X147479000Y-88977100D01*
X147479000Y-85677100D02*
X148939000Y-85677100D01*
X148939000Y-85677100D02*
X148939000Y-88977100D01*
%TO.C,R2*%
X93572600Y-76142600D02*
X90272600Y-76142600D01*
X93572600Y-74682600D02*
X93572600Y-76142600D01*
X90272600Y-76142600D02*
X90272600Y-74682600D01*
X90272600Y-74682600D02*
X93572600Y-74682600D01*
%TO.C,D13*%
X109126000Y-139126000D02*
X109126000Y-137226000D01*
X109126000Y-139126000D02*
X105926000Y-139126000D01*
X109126000Y-137226000D02*
X105926000Y-137226000D01*
X105926000Y-139126000D02*
X105926000Y-137226000D01*
%TO.C,D41*%
X148745000Y-136586000D02*
X148745000Y-134686000D01*
X148745000Y-136586000D02*
X145545000Y-136586000D01*
X148745000Y-134686000D02*
X145545000Y-134686000D01*
X145545000Y-136586000D02*
X145545000Y-134686000D01*
%TO.C,C4*%
X97935400Y-80254800D02*
X97935400Y-75294800D01*
X100235400Y-80254800D02*
X97935400Y-80254800D01*
X97935400Y-75294800D02*
X100235400Y-75294800D01*
X100235400Y-75294800D02*
X100235400Y-80254800D01*
%TO.C,D67*%
X100393000Y-75304000D02*
X100393000Y-77604000D01*
X100393000Y-75304000D02*
X105093000Y-75304000D01*
X105093000Y-75304000D02*
X105093000Y-77604000D01*
X105093000Y-77604000D02*
X100393000Y-77604000D01*
%TO.C,D22*%
X138834000Y-131506000D02*
X138834000Y-129606000D01*
X138834000Y-131506000D02*
X135634000Y-131506000D01*
X138834000Y-129606000D02*
X135634000Y-129606000D01*
X135634000Y-131506000D02*
X135634000Y-129606000D01*
%TO.C,JSPI2*%
X159095000Y-77562000D02*
X154595000Y-77562000D01*
X154595000Y-77562000D02*
X154595000Y-89062000D01*
X159095000Y-89062000D02*
X159095000Y-77562000D01*
X154595000Y-89062000D02*
X159095000Y-89062000D01*
%TO.C,L1*%
X97783400Y-79753400D02*
X97783400Y-80453400D01*
X93783400Y-79753400D02*
X97783400Y-79753400D01*
X99333400Y-80453400D02*
X99333400Y-87953400D01*
X97783400Y-80453400D02*
X99333400Y-80453400D01*
X93783400Y-80453400D02*
X93783400Y-79753400D01*
X92233400Y-80453400D02*
X93783400Y-80453400D01*
X99333400Y-87953400D02*
X97783400Y-87953400D01*
X97783400Y-87953400D02*
X97783400Y-88653400D01*
X93783400Y-87953400D02*
X92233400Y-87953400D01*
X92233400Y-87953400D02*
X92233400Y-80453400D01*
X97783400Y-88653400D02*
X93783400Y-88653400D01*
X93783400Y-88653400D02*
X93783400Y-87953400D01*
%TO.C,R26*%
X163074600Y-64794400D02*
X163074600Y-61494400D01*
X164534600Y-64794400D02*
X163074600Y-64794400D01*
X163074600Y-61494400D02*
X164534600Y-61494400D01*
X164534600Y-61494400D02*
X164534600Y-64794400D01*
%TO.C,R19*%
X164941000Y-97460800D02*
X164941000Y-100760800D01*
X163481000Y-97460800D02*
X164941000Y-97460800D01*
X164941000Y-100760800D02*
X163481000Y-100760800D01*
X163481000Y-100760800D02*
X163481000Y-97460800D01*
%TO.C,D32*%
X119032000Y-134046000D02*
X119032000Y-132146000D01*
X119032000Y-134046000D02*
X115832000Y-134046000D01*
X119032000Y-132146000D02*
X115832000Y-132146000D01*
X115832000Y-134046000D02*
X115832000Y-132146000D01*
%TO.C,D26*%
X119032000Y-128966000D02*
X119032000Y-127066000D01*
X119032000Y-128966000D02*
X115832000Y-128966000D01*
X119032000Y-127066000D02*
X115832000Y-127066000D01*
X115832000Y-128966000D02*
X115832000Y-127066000D01*
%TO.C,R20*%
X152959800Y-89592400D02*
X156259800Y-89592400D01*
X152959800Y-91052400D02*
X152959800Y-89592400D01*
X156259800Y-89592400D02*
X156259800Y-91052400D01*
X156259800Y-91052400D02*
X152959800Y-91052400D01*
%TO.C,D40*%
X148745000Y-139126000D02*
X148745000Y-137226000D01*
X148745000Y-139126000D02*
X145545000Y-139126000D01*
X148745000Y-137226000D02*
X145545000Y-137226000D01*
X145545000Y-139126000D02*
X145545000Y-137226000D01*
%TO.C,R3*%
X111378000Y-78581000D02*
X108078000Y-78581000D01*
X111378000Y-77121000D02*
X111378000Y-78581000D01*
X108078000Y-78581000D02*
X108078000Y-77121000D01*
X108078000Y-77121000D02*
X111378000Y-77121000D01*
%TO.C,C3*%
X102242000Y-80428654D02*
X102242000Y-85388654D01*
X99942000Y-80428654D02*
X102242000Y-80428654D01*
X102242000Y-85388654D02*
X99942000Y-85388654D01*
X99942000Y-85388654D02*
X99942000Y-80428654D01*
%TO.C,D2*%
X99215000Y-136586000D02*
X99215000Y-134686000D01*
X99215000Y-136586000D02*
X96015000Y-136586000D01*
X99215000Y-134686000D02*
X96015000Y-134686000D01*
X96015000Y-136586000D02*
X96015000Y-134686000D01*
%TO.C,D16*%
X128938000Y-123870210D02*
X128938000Y-121970210D01*
X128938000Y-123870210D02*
X125738000Y-123870210D01*
X128938000Y-121970210D02*
X125738000Y-121970210D01*
X125738000Y-123870210D02*
X125738000Y-121970210D01*
%TO.C,C1*%
X110966000Y-84049600D02*
X110966000Y-87349600D01*
X109506000Y-84049600D02*
X110966000Y-84049600D01*
X110966000Y-87349600D02*
X109506000Y-87349600D01*
X109506000Y-87349600D02*
X109506000Y-84049600D01*
%TO.C,R1*%
X95154338Y-72010000D02*
X95154338Y-75310000D01*
X93694338Y-72010000D02*
X95154338Y-72010000D01*
X95154338Y-75310000D02*
X93694338Y-75310000D01*
X93694338Y-75310000D02*
X93694338Y-72010000D01*
%TO.C,D60*%
X119032000Y-141666000D02*
X119032000Y-139766000D01*
X119032000Y-141666000D02*
X115832000Y-141666000D01*
X119032000Y-139766000D02*
X115832000Y-139766000D01*
X115832000Y-141666000D02*
X115832000Y-139766000D01*
%TO.C,D65*%
X168468000Y-141666000D02*
X168468000Y-139766000D01*
X168468000Y-141666000D02*
X165268000Y-141666000D01*
X168468000Y-139766000D02*
X165268000Y-139766000D01*
X165268000Y-141666000D02*
X165268000Y-139766000D01*
%TO.C,R11*%
X103908500Y-120872000D02*
X100608500Y-120872000D01*
X103908500Y-119412000D02*
X103908500Y-120872000D01*
X100608500Y-120872000D02*
X100608500Y-119412000D01*
X100608500Y-119412000D02*
X103908500Y-119412000D01*
%TO.C,D46*%
X148745163Y-123886000D02*
X148745163Y-121986000D01*
X148745163Y-123886000D02*
X145545163Y-123886000D01*
X148745163Y-121986000D02*
X145545163Y-121986000D01*
X145545163Y-123886000D02*
X145545163Y-121986000D01*
%TO.C,D44*%
X148745000Y-128966000D02*
X148745000Y-127066000D01*
X148745000Y-128966000D02*
X145545000Y-128966000D01*
X148745000Y-127066000D02*
X145545000Y-127066000D01*
X145545000Y-128966000D02*
X145545000Y-127066000D01*
%TO.C,C8*%
X101530400Y-93953600D02*
X101530400Y-90653600D01*
X102990400Y-93953600D02*
X101530400Y-93953600D01*
X101530400Y-90653600D02*
X102990400Y-90653600D01*
X102990400Y-90653600D02*
X102990400Y-93953600D01*
%TO.C,J28*%
X167237000Y-75042714D02*
X188587000Y-75042714D01*
X188587000Y-75042714D02*
X188587000Y-68892714D01*
X167237000Y-68892714D02*
X167237000Y-75042714D01*
X188587000Y-68892714D02*
X167237000Y-68892714D01*
%TO.C,D17*%
X138834000Y-126426000D02*
X138834000Y-124526000D01*
X138834000Y-126426000D02*
X135634000Y-126426000D01*
X138834000Y-124526000D02*
X135634000Y-124526000D01*
X135634000Y-126426000D02*
X135634000Y-124526000D01*
%TO.C,JR4*%
X125498000Y-142500210D02*
X125498000Y-121150210D01*
X125498000Y-121150210D02*
X119348000Y-121150210D01*
X119348000Y-142500210D02*
X125498000Y-142500210D01*
X119348000Y-121150210D02*
X119348000Y-142500210D01*
%TO.C,R7*%
X144240000Y-101220000D02*
X144240000Y-104520000D01*
X142780000Y-101220000D02*
X144240000Y-101220000D01*
X144240000Y-104520000D02*
X142780000Y-104520000D01*
X142780000Y-104520000D02*
X142780000Y-101220000D01*
%TO.C,H2*%
X188586000Y-58674000D02*
G75*
G02*
X184286000Y-58674000I-2150000J0D01*
G01*
X184286000Y-58674000D02*
G75*
G02*
X188586000Y-58674000I2150000J0D01*
G01*
%TO.C,D34*%
X119032000Y-131506000D02*
X119032000Y-129606000D01*
X119032000Y-131506000D02*
X115832000Y-131506000D01*
X119032000Y-129606000D02*
X115832000Y-129606000D01*
X115832000Y-131506000D02*
X115832000Y-129606000D01*
%TO.C,C15*%
X107679800Y-57828800D02*
X112639800Y-57828800D01*
X107679800Y-60128800D02*
X107679800Y-57828800D01*
X112639800Y-57828800D02*
X112639800Y-60128800D01*
X112639800Y-60128800D02*
X107679800Y-60128800D01*
%TO.C,U1*%
X97802500Y-78672011D02*
X96802500Y-78672011D01*
X97802500Y-75672011D02*
X97802500Y-78672011D01*
X96802500Y-78872011D02*
X94702500Y-78872011D01*
X96802500Y-78672011D02*
X96802500Y-78872011D01*
X96802500Y-75672011D02*
X97802500Y-75672011D01*
X96802500Y-75472011D02*
X96802500Y-75672011D01*
X94702500Y-78872011D02*
X94702500Y-78672011D01*
X94702500Y-78672011D02*
X93702500Y-78672011D01*
X94702500Y-75672011D02*
X94702500Y-75472011D01*
X94702500Y-75472011D02*
X96802500Y-75472011D01*
X93702500Y-78672011D02*
X93702500Y-75672011D01*
X93702500Y-75672011D02*
X94702500Y-75672011D01*
%TO.C,J2*%
X89459800Y-67241700D02*
X89459800Y-57741700D01*
X98459800Y-67241700D02*
X89459800Y-67241700D01*
X98459800Y-69241700D02*
X98459800Y-67241700D01*
X102459800Y-67241700D02*
X102459800Y-69241700D01*
X102459800Y-69241700D02*
X98459800Y-69241700D01*
X104459800Y-57741700D02*
X89459800Y-57741700D01*
X104459800Y-57991700D02*
X104459800Y-57741700D01*
X104459800Y-57991700D02*
X104459800Y-60491700D01*
X104459800Y-60491700D02*
X105459800Y-60491700D01*
X104459800Y-64491700D02*
X104459800Y-67241700D01*
X104459800Y-67241700D02*
X102459800Y-67241700D01*
X105459800Y-60491700D02*
X105459800Y-64491700D01*
X105459800Y-64491700D02*
X104459800Y-64491700D01*
%TO.C,U5*%
X152988000Y-98823000D02*
X152988000Y-97323000D01*
X162988000Y-98823000D02*
X152988000Y-98823000D01*
X152788000Y-97323000D02*
X152788000Y-92923000D01*
X152988000Y-97323000D02*
X152788000Y-97323000D01*
X162988000Y-97323000D02*
X162988000Y-98823000D01*
X163188000Y-97323000D02*
X162988000Y-97323000D01*
X152788000Y-92923000D02*
X152988000Y-92923000D01*
X152988000Y-92923000D02*
X152988000Y-91423000D01*
X162988000Y-92923000D02*
X163188000Y-92923000D01*
X163188000Y-92923000D02*
X163188000Y-97323000D01*
X152988000Y-91423000D02*
X162988000Y-91423000D01*
X162988000Y-91423000D02*
X162988000Y-92923000D01*
%TO.C,C14*%
X113443000Y-80136000D02*
X113443000Y-76836000D01*
X114903000Y-80136000D02*
X113443000Y-80136000D01*
X113443000Y-76836000D02*
X114903000Y-76836000D01*
X114903000Y-76836000D02*
X114903000Y-80136000D01*
%TO.C,D6*%
X109126000Y-128966000D02*
X109126000Y-127066000D01*
X109126000Y-128966000D02*
X105926000Y-128966000D01*
X109126000Y-127066000D02*
X105926000Y-127066000D01*
X105926000Y-128966000D02*
X105926000Y-127066000D01*
%TO.C,J27*%
X167237000Y-90210142D02*
X188587000Y-90210142D01*
X188587000Y-90210142D02*
X188587000Y-84060142D01*
X167237000Y-84060142D02*
X167237000Y-90210142D01*
X188587000Y-84060142D02*
X167237000Y-84060142D01*
%TO.C,D19*%
X138834000Y-123886000D02*
X138834000Y-121986000D01*
X138834000Y-123886000D02*
X135634000Y-123886000D01*
X138834000Y-121986000D02*
X135634000Y-121986000D01*
X135634000Y-123886000D02*
X135634000Y-121986000D01*
%TO.C,D48*%
X158651000Y-139126000D02*
X158651000Y-137226000D01*
X158651000Y-139126000D02*
X155451000Y-139126000D01*
X158651000Y-137226000D02*
X155451000Y-137226000D01*
X155451000Y-139126000D02*
X155451000Y-137226000D01*
%TO.C,D21*%
X128938000Y-128950210D02*
X128938000Y-127050210D01*
X128938000Y-128950210D02*
X125738000Y-128950210D01*
X128938000Y-127050210D02*
X125738000Y-127050210D01*
X125738000Y-128950210D02*
X125738000Y-127050210D01*
%TO.C,C12*%
X170968400Y-136379200D02*
X174268400Y-136379200D01*
X170968400Y-137839200D02*
X170968400Y-136379200D01*
X174268400Y-136379200D02*
X174268400Y-137839200D01*
X174268400Y-137839200D02*
X170968400Y-137839200D01*
%TO.C,D8*%
X109126000Y-131506000D02*
X109126000Y-129606000D01*
X109126000Y-131506000D02*
X105926000Y-131506000D01*
X109126000Y-129606000D02*
X105926000Y-129606000D01*
X105926000Y-131506000D02*
X105926000Y-129606000D01*
%TO.C,R6*%
X101314000Y-90602800D02*
X101314000Y-93902800D01*
X99854000Y-90602800D02*
X101314000Y-90602800D01*
X101314000Y-93902800D02*
X99854000Y-93902800D01*
X99854000Y-93902800D02*
X99854000Y-90602800D01*
%TO.C,J29*%
X167237000Y-67459000D02*
X188587000Y-67459000D01*
X188587000Y-67459000D02*
X188587000Y-61309000D01*
X167237000Y-61309000D02*
X167237000Y-67459000D01*
X188587000Y-61309000D02*
X167237000Y-61309000D01*
%TO.C,D12*%
X99215000Y-139126000D02*
X99215000Y-137226000D01*
X99215000Y-139126000D02*
X96015000Y-139126000D01*
X99215000Y-137226000D02*
X96015000Y-137226000D01*
X96015000Y-139126000D02*
X96015000Y-137226000D01*
%TO.C,D28*%
X128938000Y-136570210D02*
X128938000Y-134670210D01*
X128938000Y-136570210D02*
X125738000Y-136570210D01*
X128938000Y-134670210D02*
X125738000Y-134670210D01*
X125738000Y-136570210D02*
X125738000Y-134670210D01*
%TO.C,D24*%
X138834000Y-134046000D02*
X138834000Y-132146000D01*
X138834000Y-134046000D02*
X135634000Y-134046000D01*
X138834000Y-132146000D02*
X135634000Y-132146000D01*
X135634000Y-134046000D02*
X135634000Y-132146000D01*
%TO.C,D11*%
X99215000Y-134046000D02*
X99215000Y-132146000D01*
X99215000Y-134046000D02*
X96015000Y-134046000D01*
X99215000Y-132146000D02*
X96015000Y-132146000D01*
X96015000Y-134046000D02*
X96015000Y-132146000D01*
%TO.C,D18*%
X128938000Y-126410210D02*
X128938000Y-124510210D01*
X128938000Y-126410210D02*
X125738000Y-126410210D01*
X128938000Y-124510210D02*
X125738000Y-124510210D01*
X125738000Y-126410210D02*
X125738000Y-124510210D01*
%TO.C,D15*%
X109126000Y-126426000D02*
X109126000Y-124526000D01*
X109126000Y-126426000D02*
X105926000Y-126426000D01*
X109126000Y-124526000D02*
X105926000Y-124526000D01*
X105926000Y-126426000D02*
X105926000Y-124526000D01*
%TO.C,J35*%
X167237000Y-97793856D02*
X188587000Y-97793856D01*
X188587000Y-97793856D02*
X188587000Y-91643856D01*
X167237000Y-91643856D02*
X167237000Y-97793856D01*
X188587000Y-91643856D02*
X167237000Y-91643856D01*
%TO.C,J33*%
X167110000Y-120545000D02*
X188460000Y-120545000D01*
X188460000Y-120545000D02*
X188460000Y-114395000D01*
X167110000Y-114395000D02*
X167110000Y-120545000D01*
X188460000Y-114395000D02*
X167110000Y-114395000D01*
%TO.C,H3*%
X93844000Y-144907000D02*
G75*
G02*
X89544000Y-144907000I-2150000J0D01*
G01*
X89544000Y-144907000D02*
G75*
G02*
X93844000Y-144907000I2150000J0D01*
G01*
%TO.C,C10*%
X149472000Y-116145000D02*
X149472000Y-111185000D01*
X151772000Y-116145000D02*
X149472000Y-116145000D01*
X149472000Y-111185000D02*
X151772000Y-111185000D01*
X151772000Y-111185000D02*
X151772000Y-116145000D01*
%TO.C,JR7*%
X155216000Y-142516000D02*
X155216000Y-121166000D01*
X155216000Y-121166000D02*
X149066000Y-121166000D01*
X149066000Y-142516000D02*
X155216000Y-142516000D01*
X149066000Y-121166000D02*
X149066000Y-142516000D01*
%TO.C,JR2*%
X105686000Y-142516000D02*
X105686000Y-121166000D01*
X105686000Y-121166000D02*
X99536000Y-121166000D01*
X99536000Y-142516000D02*
X105686000Y-142516000D01*
X99536000Y-121166000D02*
X99536000Y-142516000D01*
%TO.C,D54*%
X168468000Y-123886000D02*
X168468000Y-121986000D01*
X168468000Y-123886000D02*
X165268000Y-123886000D01*
X168468000Y-121986000D02*
X165268000Y-121986000D01*
X165268000Y-123886000D02*
X165268000Y-121986000D01*
%TO.C,D43*%
X148745000Y-131506000D02*
X148745000Y-129606000D01*
X148745000Y-131506000D02*
X145545000Y-131506000D01*
X148745000Y-129606000D02*
X145545000Y-129606000D01*
X145545000Y-131506000D02*
X145545000Y-129606000D01*
%TO.C,D4*%
X109126000Y-123886000D02*
X109126000Y-121986000D01*
X109126000Y-123886000D02*
X105926000Y-123886000D01*
X109126000Y-121986000D02*
X105926000Y-121986000D01*
X105926000Y-123886000D02*
X105926000Y-121986000D01*
%TO.C,R16*%
X143532500Y-120872000D02*
X140232500Y-120872000D01*
X143532500Y-119412000D02*
X143532500Y-120872000D01*
X140232500Y-120872000D02*
X140232500Y-119412000D01*
X140232500Y-119412000D02*
X143532500Y-119412000D01*
%TO.C,D47*%
X158651000Y-123886000D02*
X158651000Y-121986000D01*
X158651000Y-123886000D02*
X155451000Y-123886000D01*
X158651000Y-121986000D02*
X155451000Y-121986000D01*
X155451000Y-123886000D02*
X155451000Y-121986000D01*
%TO.C,D63*%
X158651000Y-141666000D02*
X158651000Y-139766000D01*
X158651000Y-141666000D02*
X155451000Y-141666000D01*
X158651000Y-139766000D02*
X155451000Y-139766000D01*
X155451000Y-141666000D02*
X155451000Y-139766000D01*
%TO.C,D45*%
X148745000Y-126426000D02*
X148745000Y-124526000D01*
X148745000Y-126426000D02*
X145545000Y-126426000D01*
X148745000Y-124526000D02*
X145545000Y-124526000D01*
X145545000Y-126426000D02*
X145545000Y-124526000D01*
%TO.C,D50*%
X158651000Y-136586000D02*
X158651000Y-134686000D01*
X158651000Y-136586000D02*
X155451000Y-136586000D01*
X158651000Y-134686000D02*
X155451000Y-134686000D01*
X155451000Y-136586000D02*
X155451000Y-134686000D01*
%TO.C,R27*%
X144278600Y-88975200D02*
X144278600Y-85675200D01*
X145738600Y-88975200D02*
X144278600Y-88975200D01*
X144278600Y-85675200D02*
X145738600Y-85675200D01*
X145738600Y-85675200D02*
X145738600Y-88975200D01*
%TO.C,R8*%
X149130000Y-99082500D02*
X149130000Y-95782500D01*
X150590000Y-99082500D02*
X149130000Y-99082500D01*
X149130000Y-95782500D02*
X150590000Y-95782500D01*
X150590000Y-95782500D02*
X150590000Y-99082500D01*
%TO.C,R13*%
X133626500Y-120872000D02*
X130326500Y-120872000D01*
X133626500Y-119412000D02*
X133626500Y-120872000D01*
X130326500Y-120872000D02*
X130326500Y-119412000D01*
X130326500Y-119412000D02*
X133626500Y-119412000D01*
%TO.C,D39*%
X158651000Y-131506000D02*
X158651000Y-129606000D01*
X158651000Y-131506000D02*
X155451000Y-131506000D01*
X158651000Y-129606000D02*
X155451000Y-129606000D01*
X155451000Y-131506000D02*
X155451000Y-129606000D01*
%TO.C,J26*%
X167237000Y-82626428D02*
X188587000Y-82626428D01*
X188587000Y-82626428D02*
X188587000Y-76476428D01*
X167237000Y-76476428D02*
X167237000Y-82626428D01*
X188587000Y-76476428D02*
X167237000Y-76476428D01*
%TO.C,R14*%
X153438500Y-120872000D02*
X150138500Y-120872000D01*
X153438500Y-119412000D02*
X153438500Y-120872000D01*
X150138500Y-120872000D02*
X150138500Y-119412000D01*
X150138500Y-119412000D02*
X153438500Y-119412000D01*
%TO.C,R30*%
X101755300Y-77756000D02*
X105055300Y-77756000D01*
X101755300Y-79216000D02*
X101755300Y-77756000D01*
X105055300Y-77756000D02*
X105055300Y-79216000D01*
X105055300Y-79216000D02*
X101755300Y-79216000D01*
%TO.C,D51*%
X168468000Y-131506000D02*
X168468000Y-129606000D01*
X168468000Y-131506000D02*
X165268000Y-131506000D01*
X168468000Y-129606000D02*
X165268000Y-129606000D01*
X165268000Y-131506000D02*
X165268000Y-129606000D01*
%TO.C,J34*%
X167237000Y-112961284D02*
X188587000Y-112961284D01*
X188587000Y-112961284D02*
X188587000Y-106811284D01*
X167237000Y-106811284D02*
X167237000Y-112961284D01*
X188587000Y-106811284D02*
X167237000Y-106811284D01*
%TO.C,J32*%
X167237000Y-105377570D02*
X188587000Y-105377570D01*
X188587000Y-105377570D02*
X188587000Y-99227570D01*
X167237000Y-99227570D02*
X167237000Y-105377570D01*
X188587000Y-99227570D02*
X167237000Y-99227570D01*
%TO.C,D33*%
X119032000Y-136586000D02*
X119032000Y-134686000D01*
X119032000Y-136586000D02*
X115832000Y-136586000D01*
X119032000Y-134686000D02*
X115832000Y-134686000D01*
X115832000Y-136586000D02*
X115832000Y-134686000D01*
%TO.C,D55*%
X168468000Y-134046000D02*
X168468000Y-132146000D01*
X168468000Y-134046000D02*
X165268000Y-134046000D01*
X168468000Y-132146000D02*
X165268000Y-132146000D01*
X165268000Y-134046000D02*
X165268000Y-132146000D01*
%TO.C,JR8*%
X165028000Y-142516000D02*
X165028000Y-121166000D01*
X165028000Y-121166000D02*
X158878000Y-121166000D01*
X158878000Y-142516000D02*
X165028000Y-142516000D01*
X158878000Y-121166000D02*
X158878000Y-142516000D01*
%TO.C,H1*%
X123943000Y-58674000D02*
G75*
G02*
X119643000Y-58674000I-2150000J0D01*
G01*
X119643000Y-58674000D02*
G75*
G02*
X123943000Y-58674000I2150000J0D01*
G01*
%TO.C,D29*%
X119032000Y-126426000D02*
X119032000Y-124526000D01*
X119032000Y-126426000D02*
X115832000Y-126426000D01*
X119032000Y-124526000D02*
X115832000Y-124526000D01*
X115832000Y-126426000D02*
X115832000Y-124526000D01*
%TO.C,D7*%
X99215000Y-128966000D02*
X99215000Y-127066000D01*
X99215000Y-128966000D02*
X96015000Y-128966000D01*
X99215000Y-127066000D02*
X96015000Y-127066000D01*
X96015000Y-128966000D02*
X96015000Y-127066000D01*
%TO.C,D66*%
X109768200Y-69569200D02*
X109768200Y-76869200D01*
X105268200Y-69569200D02*
X109768200Y-69569200D01*
X109768200Y-76869200D02*
X105268200Y-76869200D01*
X105268200Y-76869200D02*
X105268200Y-69569200D01*
%TO.C,D38*%
X158651000Y-134046000D02*
X158651000Y-132146000D01*
X158651000Y-134046000D02*
X155451000Y-134046000D01*
X158651000Y-132146000D02*
X155451000Y-132146000D01*
X155451000Y-134046000D02*
X155451000Y-132146000D01*
%TO.C,D1*%
X107630000Y-80768000D02*
X107630000Y-84468000D01*
X105730000Y-80768000D02*
X107630000Y-80768000D01*
X107630000Y-84468000D02*
X105730000Y-84468000D01*
X105730000Y-84468000D02*
X105730000Y-80768000D01*
%TO.C,U2*%
X111070000Y-93523000D02*
X120070000Y-93523000D01*
X111070000Y-93523000D02*
X111070000Y-84023000D01*
X120070000Y-93523000D02*
X120070000Y-84023000D01*
X111070000Y-84023000D02*
X120070000Y-84023000D01*
%TO.C,Q2*%
X108355000Y-82750500D02*
X108355000Y-81720500D01*
X111355000Y-82750500D02*
X108355000Y-82750500D01*
X108155000Y-81720500D02*
X108155000Y-79920500D01*
X108355000Y-81720500D02*
X108155000Y-81720500D01*
X111355000Y-81720500D02*
X111355000Y-82750500D01*
X111555000Y-81720500D02*
X111355000Y-81720500D01*
X108155000Y-79920500D02*
X109305000Y-79920500D01*
X109305000Y-79920500D02*
X109305000Y-78890500D01*
X110405000Y-79920500D02*
X111555000Y-79920500D01*
X111555000Y-79920500D02*
X111555000Y-81720500D01*
X109305000Y-78890500D02*
X110405000Y-78890500D01*
X110405000Y-78890500D02*
X110405000Y-79920500D01*
%TO.C,R18*%
X113226600Y-76834100D02*
X113226600Y-80134100D01*
X111766600Y-76834100D02*
X113226600Y-76834100D01*
X113226600Y-80134100D02*
X111766600Y-80134100D01*
X111766600Y-80134100D02*
X111766600Y-76834100D01*
%TO.C,D37*%
X158651000Y-126426000D02*
X158651000Y-124526000D01*
X158651000Y-126426000D02*
X155451000Y-126426000D01*
X158651000Y-124526000D02*
X155451000Y-124526000D01*
X155451000Y-126426000D02*
X155451000Y-124526000D01*
%TO.C,R21*%
X156414200Y-89592400D02*
X159714200Y-89592400D01*
X156414200Y-91052400D02*
X156414200Y-89592400D01*
X159714200Y-89592400D02*
X159714200Y-91052400D01*
X159714200Y-91052400D02*
X156414200Y-91052400D01*
%TO.C,JSPI5*%
X159095000Y-65751000D02*
X154595000Y-65751000D01*
X154595000Y-65751000D02*
X154595000Y-77251000D01*
X159095000Y-77251000D02*
X159095000Y-65751000D01*
X154595000Y-77251000D02*
X159095000Y-77251000D01*
%TO.C,R17*%
X107443000Y-92488000D02*
X110743000Y-92488000D01*
X107443000Y-93948000D02*
X107443000Y-92488000D01*
X110743000Y-92488000D02*
X110743000Y-93948000D01*
X110743000Y-93948000D02*
X107443000Y-93948000D01*
%TO.C,D25*%
X128938000Y-134030210D02*
X128938000Y-132130210D01*
X128938000Y-134030210D02*
X125738000Y-134030210D01*
X128938000Y-132130210D02*
X125738000Y-132130210D01*
X125738000Y-134030210D02*
X125738000Y-132130210D01*
%TO.C,JSPI1*%
X154269000Y-77562000D02*
X149769000Y-77562000D01*
X149769000Y-77562000D02*
X149769000Y-89062000D01*
X154269000Y-89062000D02*
X154269000Y-77562000D01*
X149769000Y-89062000D02*
X154269000Y-89062000D01*
%TO.C,C5*%
X90272600Y-76282800D02*
X93572600Y-76282800D01*
X90272600Y-77742800D02*
X90272600Y-76282800D01*
X93572600Y-76282800D02*
X93572600Y-77742800D01*
X93572600Y-77742800D02*
X90272600Y-77742800D01*
%TO.C,C17*%
X91944100Y-69512800D02*
X96904100Y-69512800D01*
X91944100Y-71812800D02*
X91944100Y-69512800D01*
X96904100Y-69512800D02*
X96904100Y-71812800D01*
X96904100Y-71812800D02*
X91944100Y-71812800D01*
%TO.C,D20*%
X138834000Y-128966000D02*
X138834000Y-127066000D01*
X138834000Y-128966000D02*
X135634000Y-128966000D01*
X138834000Y-127066000D02*
X135634000Y-127066000D01*
X135634000Y-128966000D02*
X135634000Y-127066000D01*
%TO.C,Q3*%
X97284300Y-69589200D02*
X104704300Y-69589200D01*
X97284300Y-75089200D02*
X104704300Y-75089200D01*
X97284300Y-69589200D02*
X97284300Y-75089200D01*
X104704300Y-69589200D02*
X104704300Y-75089200D01*
%TO.C,R22*%
X148190200Y-79628000D02*
X148190200Y-76328000D01*
X149650200Y-79628000D02*
X148190200Y-79628000D01*
X148190200Y-76328000D02*
X149650200Y-76328000D01*
X149650200Y-76328000D02*
X149650200Y-79628000D01*
%TO.C,U3*%
X103468000Y-93878000D02*
X103468000Y-92848000D01*
X106468000Y-93878000D02*
X103468000Y-93878000D01*
X103268000Y-92848000D02*
X103268000Y-91048000D01*
X103468000Y-92848000D02*
X103268000Y-92848000D01*
X106468000Y-92848000D02*
X106468000Y-93878000D01*
X106668000Y-92848000D02*
X106468000Y-92848000D01*
X103268000Y-91048000D02*
X104418000Y-91048000D01*
X104418000Y-91048000D02*
X104418000Y-90018000D01*
X105518000Y-91048000D02*
X106668000Y-91048000D01*
X106668000Y-91048000D02*
X106668000Y-92848000D01*
X104418000Y-90018000D02*
X105518000Y-90018000D01*
X105518000Y-90018000D02*
X105518000Y-91048000D01*
%TO.C,C9*%
X151212800Y-93699600D02*
X151212800Y-90399600D01*
X152672800Y-93699600D02*
X151212800Y-93699600D01*
X151212800Y-90399600D02*
X152672800Y-90399600D01*
X152672800Y-90399600D02*
X152672800Y-93699600D01*
%TO.C,D64*%
X148745000Y-141666000D02*
X148745000Y-139766000D01*
X148745000Y-141666000D02*
X145545000Y-141666000D01*
X148745000Y-139766000D02*
X145545000Y-139766000D01*
X145545000Y-141666000D02*
X145545000Y-139766000D01*
%TO.C,D9*%
X99215000Y-131506000D02*
X99215000Y-129606000D01*
X99215000Y-131506000D02*
X96015000Y-131506000D01*
X99215000Y-129606000D02*
X96015000Y-129606000D01*
X96015000Y-131506000D02*
X96015000Y-129606000D01*
%TO.C,D57*%
X168468000Y-136586000D02*
X168468000Y-134686000D01*
X168468000Y-136586000D02*
X165268000Y-136586000D01*
X168468000Y-134686000D02*
X165268000Y-134686000D01*
X165268000Y-136586000D02*
X165268000Y-134686000D01*
%TO.C,D49*%
X158651000Y-128966000D02*
X158651000Y-127066000D01*
X158651000Y-128966000D02*
X155451000Y-128966000D01*
X158651000Y-127066000D02*
X155451000Y-127066000D01*
X155451000Y-128966000D02*
X155451000Y-127066000D01*
%TO.C,R28*%
X145904200Y-88977100D02*
X145904200Y-85677100D01*
X147364200Y-88977100D02*
X145904200Y-88977100D01*
X145904200Y-85677100D02*
X147364200Y-85677100D01*
X147364200Y-85677100D02*
X147364200Y-88977100D01*
%TO.C,D5*%
X99215000Y-126426000D02*
X99215000Y-124526000D01*
X99215000Y-126426000D02*
X96015000Y-126426000D01*
X99215000Y-124526000D02*
X96015000Y-124526000D01*
X96015000Y-126426000D02*
X96015000Y-124526000D01*
%TO.C,JSPI6*%
X163921000Y-65751000D02*
X159421000Y-65751000D01*
X159421000Y-65751000D02*
X159421000Y-77251000D01*
X163921000Y-77251000D02*
X163921000Y-65751000D01*
X159421000Y-77251000D02*
X163921000Y-77251000D01*
%TO.C,C6*%
X93572600Y-79317600D02*
X90272600Y-79317600D01*
X93572600Y-77857600D02*
X93572600Y-79317600D01*
X90272600Y-79317600D02*
X90272600Y-77857600D01*
X90272600Y-77857600D02*
X93572600Y-77857600D01*
%TO.C,D36*%
X119032000Y-139126000D02*
X119032000Y-137226000D01*
X119032000Y-139126000D02*
X115832000Y-139126000D01*
X119032000Y-137226000D02*
X115832000Y-137226000D01*
X115832000Y-139126000D02*
X115832000Y-137226000D01*
%TO.C,R24*%
X149599400Y-69471900D02*
X149599400Y-72771900D01*
X148139400Y-69471900D02*
X149599400Y-69471900D01*
X149599400Y-72771900D02*
X148139400Y-72771900D01*
X148139400Y-72771900D02*
X148139400Y-69471900D01*
%TO.C,D14*%
X109126000Y-136586000D02*
X109126000Y-134686000D01*
X109126000Y-136586000D02*
X105926000Y-136586000D01*
X109126000Y-134686000D02*
X105926000Y-134686000D01*
X105926000Y-136586000D02*
X105926000Y-134686000D01*
%TO.C,U7*%
X179214000Y-135810000D02*
X177714000Y-135810000D01*
X179214000Y-125810000D02*
X179214000Y-135810000D01*
X177714000Y-136010000D02*
X173314000Y-136010000D01*
X177714000Y-135810000D02*
X177714000Y-136010000D01*
X177714000Y-125810000D02*
X179214000Y-125810000D01*
X177714000Y-125610000D02*
X177714000Y-125810000D01*
X173314000Y-136010000D02*
X173314000Y-135810000D01*
X173314000Y-135810000D02*
X171814000Y-135810000D01*
X173314000Y-125810000D02*
X173314000Y-125610000D01*
X173314000Y-125610000D02*
X177714000Y-125610000D01*
X171814000Y-135810000D02*
X171814000Y-125810000D01*
X171814000Y-125810000D02*
X173314000Y-125810000D01*
%TO.C,C7*%
X93572600Y-74542400D02*
X90272600Y-74542400D01*
X93572600Y-73082400D02*
X93572600Y-74542400D01*
X90272600Y-74542400D02*
X90272600Y-73082400D01*
X90272600Y-73082400D02*
X93572600Y-73082400D01*
%TO.C,JR5*%
X135404000Y-142516000D02*
X135404000Y-121166000D01*
X135404000Y-121166000D02*
X129254000Y-121166000D01*
X129254000Y-142516000D02*
X135404000Y-142516000D01*
X129254000Y-121166000D02*
X129254000Y-142516000D01*
%TO.C,D61*%
X138834000Y-141666000D02*
X138834000Y-139766000D01*
X138834000Y-141666000D02*
X135634000Y-141666000D01*
X138834000Y-139766000D02*
X135634000Y-139766000D01*
X135634000Y-141666000D02*
X135634000Y-139766000D01*
%TO.C,D53*%
X168468000Y-128966000D02*
X168468000Y-127066000D01*
X168468000Y-128966000D02*
X165268000Y-128966000D01*
X168468000Y-127066000D02*
X165268000Y-127066000D01*
X165268000Y-128966000D02*
X165268000Y-127066000D01*
%TO.C,C11*%
X151662400Y-118027200D02*
X148362400Y-118027200D01*
X151662400Y-116567200D02*
X151662400Y-118027200D01*
X148362400Y-118027200D02*
X148362400Y-116567200D01*
X148362400Y-116567200D02*
X151662400Y-116567200D01*
%TO.C,D62*%
X128938000Y-141650210D02*
X128938000Y-139750210D01*
X128938000Y-141650210D02*
X125738000Y-141650210D01*
X128938000Y-139750210D02*
X125738000Y-139750210D01*
X125738000Y-141650210D02*
X125738000Y-139750210D01*
%TO.C,C16*%
X100475800Y-102286800D02*
X100475800Y-105586800D01*
X99015800Y-102286800D02*
X100475800Y-102286800D01*
X100475800Y-105586800D02*
X99015800Y-105586800D01*
X99015800Y-105586800D02*
X99015800Y-102286800D01*
%TO.C,JSPI3*%
X163921000Y-77562000D02*
X159421000Y-77562000D01*
X159421000Y-77562000D02*
X159421000Y-89062000D01*
X163921000Y-89062000D02*
X163921000Y-77562000D01*
X159421000Y-89062000D02*
X163921000Y-89062000D01*
%TO.C,R15*%
X163217500Y-120872000D02*
X159917500Y-120872000D01*
X163217500Y-119412000D02*
X163217500Y-120872000D01*
X159917500Y-120872000D02*
X159917500Y-119412000D01*
X159917500Y-119412000D02*
X163217500Y-119412000D01*
%TO.C,D56*%
X168468000Y-139126000D02*
X168468000Y-137226000D01*
X168468000Y-139126000D02*
X165268000Y-139126000D01*
X168468000Y-137226000D02*
X165268000Y-137226000D01*
X165268000Y-139126000D02*
X165268000Y-137226000D01*
%TO.C,C13*%
X113132600Y-58604400D02*
X116432600Y-58604400D01*
X113132600Y-60064400D02*
X113132600Y-58604400D01*
X116432600Y-58604400D02*
X116432600Y-60064400D01*
X116432600Y-60064400D02*
X113132600Y-60064400D01*
%TO.C,D30*%
X138834000Y-139126000D02*
X138834000Y-137226000D01*
X138834000Y-139126000D02*
X135634000Y-139126000D01*
X138834000Y-137226000D02*
X135634000Y-137226000D01*
X135634000Y-139126000D02*
X135634000Y-137226000D01*
%TO.C,D27*%
X138834000Y-136586000D02*
X138834000Y-134686000D01*
X138834000Y-136586000D02*
X135634000Y-136586000D01*
X138834000Y-134686000D02*
X135634000Y-134686000D01*
X135634000Y-136586000D02*
X135634000Y-134686000D01*
%TO.C,R23*%
X165550600Y-77598000D02*
X165550600Y-80898000D01*
X164090600Y-77598000D02*
X165550600Y-77598000D01*
X165550600Y-80898000D02*
X164090600Y-80898000D01*
X164090600Y-80898000D02*
X164090600Y-77598000D01*
%TO.C,J3*%
X89259000Y-116354000D02*
X89259000Y-112804000D01*
X141059000Y-116354000D02*
X89259000Y-116354000D01*
X89259000Y-112804000D02*
X141059000Y-112804000D01*
X141059000Y-112804000D02*
X141059000Y-116354000D01*
%TO.C,J4*%
X141119000Y-94974000D02*
X141119000Y-98524000D01*
X89319000Y-94974000D02*
X141119000Y-94974000D01*
X141119000Y-98524000D02*
X89319000Y-98524000D01*
X89319000Y-98524000D02*
X89319000Y-94974000D01*
%TD*%
M02*
