%TF.GenerationSoftware,KiCad,Pcbnew,9.0.3*%
%TF.CreationDate,2025-07-29T07:15:08-03:00*%
%TF.ProjectId,pi_controller,70695f63-6f6e-4747-926f-6c6c65722e6b,1.0*%
%TF.SameCoordinates,Original*%
%TF.FileFunction,Legend,Bot*%
%TF.FilePolarity,Positive*%
%FSLAX46Y46*%
G04 Gerber Fmt 4.6, Leading zero omitted, Abs format (unit mm)*
G04 Created by KiCad (PCBNEW 9.0.3) date 2025-07-29 07:15:08*
%MOMM*%
%LPD*%
G01*
G04 APERTURE LIST*
G04 Aperture macros list*
%AMRoundRect*
0 Rectangle with rounded corners*
0 $1 Rounding radius*
0 $2 $3 $4 $5 $6 $7 $8 $9 X,Y pos of 4 corners*
0 Add a 4 corners polygon primitive as box body*
4,1,4,$2,$3,$4,$5,$6,$7,$8,$9,$2,$3,0*
0 Add four circle primitives for the rounded corners*
1,1,$1+$1,$2,$3*
1,1,$1+$1,$4,$5*
1,1,$1+$1,$6,$7*
1,1,$1+$1,$8,$9*
0 Add four rect primitives between the rounded corners*
20,1,$1+$1,$2,$3,$4,$5,0*
20,1,$1+$1,$4,$5,$6,$7,0*
20,1,$1+$1,$6,$7,$8,$9,0*
20,1,$1+$1,$8,$9,$2,$3,0*%
G04 Aperture macros list end*
%ADD10C,0.200000*%
%ADD11C,0.150000*%
%ADD12C,0.120000*%
%ADD13C,0.000000*%
%ADD14RoundRect,0.250000X0.265000X0.615000X-0.265000X0.615000X-0.265000X-0.615000X0.265000X-0.615000X0*%
%ADD15O,1.030000X1.730000*%
%ADD16R,1.700000X1.700000*%
%ADD17O,1.700000X1.700000*%
%ADD18C,2.600000*%
%ADD19C,3.800000*%
%ADD20RoundRect,0.250000X-0.615000X0.265000X-0.615000X-0.265000X0.615000X-0.265000X0.615000X0.265000X0*%
%ADD21O,1.730000X1.030000*%
%ADD22R,3.500000X3.500000*%
%ADD23RoundRect,0.750000X-0.750000X-1.000000X0.750000X-1.000000X0.750000X1.000000X-0.750000X1.000000X0*%
%ADD24RoundRect,0.875000X-0.875000X-0.875000X0.875000X-0.875000X0.875000X0.875000X-0.875000X0.875000X0*%
%ADD25C,1.700000*%
%ADD26C,2.000000*%
G04 APERTURE END LIST*
D10*
X97334583Y-94015619D02*
X97001250Y-95015619D01*
X97001250Y-95015619D02*
X96667917Y-94015619D01*
X96334583Y-95015619D02*
X96334583Y-94015619D01*
X96334583Y-94015619D02*
X96096488Y-94015619D01*
X96096488Y-94015619D02*
X95953631Y-94063238D01*
X95953631Y-94063238D02*
X95858393Y-94158476D01*
X95858393Y-94158476D02*
X95810774Y-94253714D01*
X95810774Y-94253714D02*
X95763155Y-94444190D01*
X95763155Y-94444190D02*
X95763155Y-94587047D01*
X95763155Y-94587047D02*
X95810774Y-94777523D01*
X95810774Y-94777523D02*
X95858393Y-94872761D01*
X95858393Y-94872761D02*
X95953631Y-94968000D01*
X95953631Y-94968000D02*
X96096488Y-95015619D01*
X96096488Y-95015619D02*
X96334583Y-95015619D01*
X95334583Y-95015619D02*
X95334583Y-94015619D01*
X95334583Y-94015619D02*
X95096488Y-94015619D01*
X95096488Y-94015619D02*
X94953631Y-94063238D01*
X94953631Y-94063238D02*
X94858393Y-94158476D01*
X94858393Y-94158476D02*
X94810774Y-94253714D01*
X94810774Y-94253714D02*
X94763155Y-94444190D01*
X94763155Y-94444190D02*
X94763155Y-94587047D01*
X94763155Y-94587047D02*
X94810774Y-94777523D01*
X94810774Y-94777523D02*
X94858393Y-94872761D01*
X94858393Y-94872761D02*
X94953631Y-94968000D01*
X94953631Y-94968000D02*
X95096488Y-95015619D01*
X95096488Y-95015619D02*
X95334583Y-95015619D01*
X108815383Y-101432419D02*
X108482050Y-102432419D01*
X108482050Y-102432419D02*
X108148717Y-101432419D01*
X107815383Y-102432419D02*
X107815383Y-101432419D01*
X107815383Y-101432419D02*
X107577288Y-101432419D01*
X107577288Y-101432419D02*
X107434431Y-101480038D01*
X107434431Y-101480038D02*
X107339193Y-101575276D01*
X107339193Y-101575276D02*
X107291574Y-101670514D01*
X107291574Y-101670514D02*
X107243955Y-101860990D01*
X107243955Y-101860990D02*
X107243955Y-102003847D01*
X107243955Y-102003847D02*
X107291574Y-102194323D01*
X107291574Y-102194323D02*
X107339193Y-102289561D01*
X107339193Y-102289561D02*
X107434431Y-102384800D01*
X107434431Y-102384800D02*
X107577288Y-102432419D01*
X107577288Y-102432419D02*
X107815383Y-102432419D01*
X106815383Y-102432419D02*
X106815383Y-101432419D01*
X106815383Y-101432419D02*
X106577288Y-101432419D01*
X106577288Y-101432419D02*
X106434431Y-101480038D01*
X106434431Y-101480038D02*
X106339193Y-101575276D01*
X106339193Y-101575276D02*
X106291574Y-101670514D01*
X106291574Y-101670514D02*
X106243955Y-101860990D01*
X106243955Y-101860990D02*
X106243955Y-102003847D01*
X106243955Y-102003847D02*
X106291574Y-102194323D01*
X106291574Y-102194323D02*
X106339193Y-102289561D01*
X106339193Y-102289561D02*
X106434431Y-102384800D01*
X106434431Y-102384800D02*
X106577288Y-102432419D01*
X106577288Y-102432419D02*
X106815383Y-102432419D01*
X105863002Y-102146704D02*
X105386812Y-102146704D01*
X105958240Y-102432419D02*
X105624907Y-101432419D01*
X105624907Y-101432419D02*
X105291574Y-102432419D01*
D11*
X186035792Y-140839819D02*
X186369125Y-140363628D01*
X186607220Y-140839819D02*
X186607220Y-139839819D01*
X186607220Y-139839819D02*
X186226268Y-139839819D01*
X186226268Y-139839819D02*
X186131030Y-139887438D01*
X186131030Y-139887438D02*
X186083411Y-139935057D01*
X186083411Y-139935057D02*
X186035792Y-140030295D01*
X186035792Y-140030295D02*
X186035792Y-140173152D01*
X186035792Y-140173152D02*
X186083411Y-140268390D01*
X186083411Y-140268390D02*
X186131030Y-140316009D01*
X186131030Y-140316009D02*
X186226268Y-140363628D01*
X186226268Y-140363628D02*
X186607220Y-140363628D01*
X185607220Y-140316009D02*
X185273887Y-140316009D01*
X185131030Y-140839819D02*
X185607220Y-140839819D01*
X185607220Y-140839819D02*
X185607220Y-139839819D01*
X185607220Y-139839819D02*
X185131030Y-139839819D01*
X184845315Y-139839819D02*
X184511982Y-140839819D01*
X184511982Y-140839819D02*
X184178649Y-139839819D01*
X182559601Y-140839819D02*
X183131029Y-140839819D01*
X182845315Y-140839819D02*
X182845315Y-139839819D01*
X182845315Y-139839819D02*
X182940553Y-139982676D01*
X182940553Y-139982676D02*
X183035791Y-140077914D01*
X183035791Y-140077914D02*
X183131029Y-140125533D01*
X105892430Y-94967419D02*
X106368620Y-94967419D01*
X106368620Y-94967419D02*
X106368620Y-93967419D01*
X105559096Y-94443609D02*
X105225763Y-94443609D01*
X105082906Y-94967419D02*
X105559096Y-94967419D01*
X105559096Y-94967419D02*
X105559096Y-93967419D01*
X105559096Y-93967419D02*
X105082906Y-93967419D01*
X104654334Y-94967419D02*
X104654334Y-93967419D01*
X104654334Y-93967419D02*
X104416239Y-93967419D01*
X104416239Y-93967419D02*
X104273382Y-94015038D01*
X104273382Y-94015038D02*
X104178144Y-94110276D01*
X104178144Y-94110276D02*
X104130525Y-94205514D01*
X104130525Y-94205514D02*
X104082906Y-94395990D01*
X104082906Y-94395990D02*
X104082906Y-94538847D01*
X104082906Y-94538847D02*
X104130525Y-94729323D01*
X104130525Y-94729323D02*
X104178144Y-94824561D01*
X104178144Y-94824561D02*
X104273382Y-94919800D01*
X104273382Y-94919800D02*
X104416239Y-94967419D01*
X104416239Y-94967419D02*
X104654334Y-94967419D01*
X133530811Y-102295438D02*
X133626049Y-102247819D01*
X133626049Y-102247819D02*
X133768906Y-102247819D01*
X133768906Y-102247819D02*
X133911763Y-102295438D01*
X133911763Y-102295438D02*
X134007001Y-102390676D01*
X134007001Y-102390676D02*
X134054620Y-102485914D01*
X134054620Y-102485914D02*
X134102239Y-102676390D01*
X134102239Y-102676390D02*
X134102239Y-102819247D01*
X134102239Y-102819247D02*
X134054620Y-103009723D01*
X134054620Y-103009723D02*
X134007001Y-103104961D01*
X134007001Y-103104961D02*
X133911763Y-103200200D01*
X133911763Y-103200200D02*
X133768906Y-103247819D01*
X133768906Y-103247819D02*
X133673668Y-103247819D01*
X133673668Y-103247819D02*
X133530811Y-103200200D01*
X133530811Y-103200200D02*
X133483192Y-103152580D01*
X133483192Y-103152580D02*
X133483192Y-102819247D01*
X133483192Y-102819247D02*
X133673668Y-102819247D01*
X133054620Y-103247819D02*
X133054620Y-102247819D01*
X133054620Y-102247819D02*
X132483192Y-103247819D01*
X132483192Y-103247819D02*
X132483192Y-102247819D01*
X132007001Y-103247819D02*
X132007001Y-102247819D01*
X132007001Y-102247819D02*
X131768906Y-102247819D01*
X131768906Y-102247819D02*
X131626049Y-102295438D01*
X131626049Y-102295438D02*
X131530811Y-102390676D01*
X131530811Y-102390676D02*
X131483192Y-102485914D01*
X131483192Y-102485914D02*
X131435573Y-102676390D01*
X131435573Y-102676390D02*
X131435573Y-102819247D01*
X131435573Y-102819247D02*
X131483192Y-103009723D01*
X131483192Y-103009723D02*
X131530811Y-103104961D01*
X131530811Y-103104961D02*
X131626049Y-103200200D01*
X131626049Y-103200200D02*
X131768906Y-103247819D01*
X131768906Y-103247819D02*
X132007001Y-103247819D01*
X134139704Y-100810819D02*
X133568276Y-100810819D01*
X133853990Y-101810819D02*
X133853990Y-100810819D01*
X133234942Y-101810819D02*
X133234942Y-100810819D01*
X133234942Y-100810819D02*
X132853990Y-100810819D01*
X132853990Y-100810819D02*
X132758752Y-100858438D01*
X132758752Y-100858438D02*
X132711133Y-100906057D01*
X132711133Y-100906057D02*
X132663514Y-101001295D01*
X132663514Y-101001295D02*
X132663514Y-101144152D01*
X132663514Y-101144152D02*
X132711133Y-101239390D01*
X132711133Y-101239390D02*
X132758752Y-101287009D01*
X132758752Y-101287009D02*
X132853990Y-101334628D01*
X132853990Y-101334628D02*
X133234942Y-101334628D01*
X131711133Y-101810819D02*
X132282561Y-101810819D01*
X131996847Y-101810819D02*
X131996847Y-100810819D01*
X131996847Y-100810819D02*
X132092085Y-100953676D01*
X132092085Y-100953676D02*
X132187323Y-101048914D01*
X132187323Y-101048914D02*
X132282561Y-101096533D01*
X97716104Y-92428819D02*
X97144676Y-92428819D01*
X97430390Y-93428819D02*
X97430390Y-92428819D01*
X96811342Y-93428819D02*
X96811342Y-92428819D01*
X96811342Y-92428819D02*
X96430390Y-92428819D01*
X96430390Y-92428819D02*
X96335152Y-92476438D01*
X96335152Y-92476438D02*
X96287533Y-92524057D01*
X96287533Y-92524057D02*
X96239914Y-92619295D01*
X96239914Y-92619295D02*
X96239914Y-92762152D01*
X96239914Y-92762152D02*
X96287533Y-92857390D01*
X96287533Y-92857390D02*
X96335152Y-92905009D01*
X96335152Y-92905009D02*
X96430390Y-92952628D01*
X96430390Y-92952628D02*
X96811342Y-92952628D01*
X95382771Y-92762152D02*
X95382771Y-93428819D01*
X95620866Y-92381200D02*
X95858961Y-93095485D01*
X95858961Y-93095485D02*
X95239914Y-93095485D01*
X108180904Y-99845619D02*
X107609476Y-99845619D01*
X107895190Y-100845619D02*
X107895190Y-99845619D01*
X107276142Y-100845619D02*
X107276142Y-99845619D01*
X107276142Y-99845619D02*
X106895190Y-99845619D01*
X106895190Y-99845619D02*
X106799952Y-99893238D01*
X106799952Y-99893238D02*
X106752333Y-99940857D01*
X106752333Y-99940857D02*
X106704714Y-100036095D01*
X106704714Y-100036095D02*
X106704714Y-100178952D01*
X106704714Y-100178952D02*
X106752333Y-100274190D01*
X106752333Y-100274190D02*
X106799952Y-100321809D01*
X106799952Y-100321809D02*
X106895190Y-100369428D01*
X106895190Y-100369428D02*
X107276142Y-100369428D01*
X106323761Y-99940857D02*
X106276142Y-99893238D01*
X106276142Y-99893238D02*
X106180904Y-99845619D01*
X106180904Y-99845619D02*
X105942809Y-99845619D01*
X105942809Y-99845619D02*
X105847571Y-99893238D01*
X105847571Y-99893238D02*
X105799952Y-99940857D01*
X105799952Y-99940857D02*
X105752333Y-100036095D01*
X105752333Y-100036095D02*
X105752333Y-100131333D01*
X105752333Y-100131333D02*
X105799952Y-100274190D01*
X105799952Y-100274190D02*
X106371380Y-100845619D01*
X106371380Y-100845619D02*
X105752333Y-100845619D01*
X106555304Y-92378019D02*
X105983876Y-92378019D01*
X106269590Y-93378019D02*
X106269590Y-92378019D01*
X105650542Y-93378019D02*
X105650542Y-92378019D01*
X105650542Y-92378019D02*
X105269590Y-92378019D01*
X105269590Y-92378019D02*
X105174352Y-92425638D01*
X105174352Y-92425638D02*
X105126733Y-92473257D01*
X105126733Y-92473257D02*
X105079114Y-92568495D01*
X105079114Y-92568495D02*
X105079114Y-92711352D01*
X105079114Y-92711352D02*
X105126733Y-92806590D01*
X105126733Y-92806590D02*
X105174352Y-92854209D01*
X105174352Y-92854209D02*
X105269590Y-92901828D01*
X105269590Y-92901828D02*
X105650542Y-92901828D01*
X104745780Y-92378019D02*
X104126733Y-92378019D01*
X104126733Y-92378019D02*
X104460066Y-92758971D01*
X104460066Y-92758971D02*
X104317209Y-92758971D01*
X104317209Y-92758971D02*
X104221971Y-92806590D01*
X104221971Y-92806590D02*
X104174352Y-92854209D01*
X104174352Y-92854209D02*
X104126733Y-92949447D01*
X104126733Y-92949447D02*
X104126733Y-93187542D01*
X104126733Y-93187542D02*
X104174352Y-93282780D01*
X104174352Y-93282780D02*
X104221971Y-93330400D01*
X104221971Y-93330400D02*
X104317209Y-93378019D01*
X104317209Y-93378019D02*
X104602923Y-93378019D01*
X104602923Y-93378019D02*
X104698161Y-93330400D01*
X104698161Y-93330400D02*
X104745780Y-93282780D01*
D12*
%TO.C,TP1*%
X131008420Y-101346000D02*
G75*
G02*
X128427180Y-101346000I-1290620J0D01*
G01*
X128427180Y-101346000D02*
G75*
G02*
X131008420Y-101346000I1290620J0D01*
G01*
%TO.C,TP4*%
X94584820Y-92964000D02*
G75*
G02*
X92003580Y-92964000I-1290620J0D01*
G01*
X92003580Y-92964000D02*
G75*
G02*
X94584820Y-92964000I1290620J0D01*
G01*
%TO.C,TP2*%
X105049620Y-100380800D02*
G75*
G02*
X102468380Y-100380800I-1290620J0D01*
G01*
X102468380Y-100380800D02*
G75*
G02*
X105049620Y-100380800I1290620J0D01*
G01*
%TO.C,TP3*%
X103424020Y-92913200D02*
G75*
G02*
X100842780Y-92913200I-1290620J0D01*
G01*
X100842780Y-92913200D02*
G75*
G02*
X103424020Y-92913200I1290620J0D01*
G01*
D13*
%TO.C,G\u002A\u002A\u002A*%
G36*
X99681913Y-85948674D02*
G01*
X99681913Y-86230115D01*
X99277343Y-86230115D01*
X98872772Y-86230115D01*
X98872772Y-85948674D01*
X98872772Y-85667234D01*
X99277343Y-85667234D01*
X99681913Y-85667234D01*
X99681913Y-85948674D01*
G37*
G36*
X99681913Y-87522982D02*
G01*
X99681913Y-88569588D01*
X99277343Y-88569588D01*
X98872772Y-88569588D01*
X98872772Y-87522982D01*
X98872772Y-86476375D01*
X99277343Y-86476375D01*
X99681913Y-86476375D01*
X99681913Y-87522982D01*
G37*
G36*
X103780390Y-80099990D02*
G01*
X103780390Y-80249505D01*
X103630875Y-80249505D01*
X103481359Y-80249505D01*
X103481359Y-80099990D01*
X103481359Y-79950475D01*
X103630875Y-79950475D01*
X103780390Y-79950475D01*
X103780390Y-80099990D01*
G37*
G36*
X105521803Y-87118411D02*
G01*
X105521803Y-88569588D01*
X105117232Y-88569588D01*
X104712661Y-88569588D01*
X104712661Y-87118411D01*
X104712661Y-85667234D01*
X105117232Y-85667234D01*
X105521803Y-85667234D01*
X105521803Y-87118411D01*
G37*
G36*
X105416262Y-78543273D02*
G01*
X105416262Y-78701583D01*
X105257952Y-78701583D01*
X105099642Y-78701583D01*
X105099642Y-78543273D01*
X105099642Y-78384962D01*
X105257952Y-78384962D01*
X105416262Y-78384962D01*
X105416262Y-78543273D01*
G37*
G36*
X105416262Y-80099990D02*
G01*
X105416262Y-80249505D01*
X105266747Y-80249505D01*
X105117232Y-80249505D01*
X105117232Y-80099990D01*
X105117232Y-79950475D01*
X105266747Y-79950475D01*
X105416262Y-79950475D01*
X105416262Y-80099990D01*
G37*
G36*
X114967648Y-85948674D02*
G01*
X114967648Y-86230115D01*
X114563077Y-86230115D01*
X114158506Y-86230115D01*
X114158506Y-85948674D01*
X114158506Y-85667234D01*
X114563077Y-85667234D01*
X114967648Y-85667234D01*
X114967648Y-85948674D01*
G37*
G36*
X114967648Y-87522982D02*
G01*
X114967648Y-88569588D01*
X114563077Y-88569588D01*
X114158506Y-88569588D01*
X114158506Y-87522982D01*
X114158506Y-86476375D01*
X114563077Y-86476375D01*
X114967648Y-86476375D01*
X114967648Y-87522982D01*
G37*
G36*
X103635272Y-78388675D02*
G01*
X103789185Y-78393757D01*
X103794409Y-78524036D01*
X103794673Y-78530979D01*
X103795788Y-78597013D01*
X103794328Y-78649618D01*
X103790563Y-78677949D01*
X103787026Y-78683238D01*
X103762399Y-78693892D01*
X103712088Y-78699776D01*
X103631427Y-78701583D01*
X103481359Y-78701583D01*
X103481359Y-78542588D01*
X103481359Y-78383593D01*
X103635272Y-78388675D01*
G37*
G36*
X99613162Y-79994071D02*
G01*
X99674235Y-80042853D01*
X99712839Y-80118698D01*
X99722708Y-80187412D01*
X99705367Y-80266589D01*
X99658484Y-80334050D01*
X99585168Y-80383356D01*
X99552645Y-80394469D01*
X99476795Y-80397390D01*
X99405624Y-80372476D01*
X99346127Y-80324570D01*
X99305299Y-80258512D01*
X99290136Y-80179145D01*
X99293028Y-80141805D01*
X99320740Y-80066027D01*
X99373820Y-80009864D01*
X99447349Y-79977436D01*
X99536408Y-79972863D01*
X99613162Y-79994071D01*
G37*
G36*
X109430236Y-78433935D02*
G01*
X109511502Y-78456718D01*
X109577451Y-78504954D01*
X109621701Y-78572514D01*
X109637869Y-78653267D01*
X109630890Y-78689366D01*
X109602511Y-78747044D01*
X109560603Y-78801227D01*
X109514211Y-78838378D01*
X109476410Y-78852005D01*
X109402029Y-78855267D01*
X109327175Y-78835445D01*
X109265805Y-78794978D01*
X109238965Y-78762484D01*
X109208472Y-78691625D01*
X109205239Y-78617591D01*
X109226445Y-78547545D01*
X109269268Y-78488647D01*
X109330885Y-78448056D01*
X109408476Y-78432935D01*
X109430236Y-78433935D01*
G37*
G36*
X109514211Y-79990568D02*
G01*
X109547666Y-80014450D01*
X109591671Y-80064735D01*
X109624792Y-80122696D01*
X109637869Y-80174691D01*
X109637809Y-80179376D01*
X109619578Y-80257992D01*
X109573705Y-80326718D01*
X109507278Y-80374701D01*
X109494026Y-80380345D01*
X109410435Y-80397600D01*
X109332971Y-80384255D01*
X109268287Y-80342640D01*
X109223034Y-80275087D01*
X109203913Y-80217386D01*
X109201651Y-80152708D01*
X109224788Y-80084285D01*
X109233914Y-80067385D01*
X109287022Y-80010389D01*
X109357755Y-79976543D01*
X109436642Y-79968913D01*
X109514211Y-79990568D01*
G37*
G36*
X99538078Y-78427669D02*
G01*
X99585504Y-78448078D01*
X99596601Y-78453975D01*
X99649317Y-78490660D01*
X99689174Y-78530834D01*
X99711256Y-78571029D01*
X99724714Y-78645725D01*
X99710680Y-78721330D01*
X99671584Y-78788439D01*
X99609858Y-78837646D01*
X99590351Y-78846297D01*
X99513764Y-78859691D01*
X99436459Y-78846923D01*
X99368916Y-78810999D01*
X99321616Y-78754929D01*
X99302643Y-78704602D01*
X99297946Y-78622305D01*
X99322439Y-78545390D01*
X99372995Y-78481751D01*
X99446492Y-78439283D01*
X99453869Y-78436739D01*
X99500823Y-78424309D01*
X99538078Y-78427669D01*
G37*
G36*
X100366008Y-86443148D02*
G01*
X100449587Y-86471582D01*
X100479459Y-86489712D01*
X100557727Y-86555673D01*
X100632183Y-86642387D01*
X100694064Y-86740225D01*
X100735677Y-86819381D01*
X100736496Y-86647878D01*
X100737315Y-86476375D01*
X101115501Y-86476375D01*
X101493686Y-86476375D01*
X101493686Y-87522982D01*
X101493686Y-88569588D01*
X101089116Y-88569588D01*
X100684545Y-88569588D01*
X100684412Y-88151825D01*
X100683933Y-88035552D01*
X100680459Y-87843062D01*
X100673165Y-87680587D01*
X100661506Y-87544844D01*
X100644937Y-87432548D01*
X100622915Y-87340417D01*
X100594895Y-87265165D01*
X100560332Y-87203511D01*
X100518682Y-87152170D01*
X100455072Y-87097577D01*
X100384081Y-87066074D01*
X100302041Y-87060488D01*
X100200819Y-87078948D01*
X100150628Y-87090446D01*
X100105265Y-87096975D01*
X100083180Y-87094968D01*
X100076614Y-87083697D01*
X100057596Y-87044207D01*
X100029299Y-86982018D01*
X99994266Y-86902746D01*
X99955039Y-86812002D01*
X99947816Y-86795081D01*
X99905493Y-86693628D01*
X99876918Y-86619713D01*
X99860883Y-86569642D01*
X99856180Y-86539718D01*
X99861599Y-86526245D01*
X99928222Y-86491473D01*
X100033341Y-86456928D01*
X100147961Y-86436743D01*
X100262158Y-86431842D01*
X100366008Y-86443148D01*
G37*
G36*
X104497980Y-78586958D02*
G01*
X104578290Y-78621723D01*
X104644084Y-78686400D01*
X104651641Y-78697154D01*
X104661945Y-78714102D01*
X104670035Y-78733865D01*
X104676227Y-78760488D01*
X104680836Y-78798018D01*
X104684175Y-78850499D01*
X104686561Y-78921978D01*
X104688309Y-79016498D01*
X104689732Y-79138107D01*
X104691147Y-79290849D01*
X104691231Y-79300338D01*
X104692458Y-79463698D01*
X104692514Y-79595952D01*
X104690755Y-79700971D01*
X104686541Y-79782623D01*
X104679229Y-79844777D01*
X104668178Y-79891303D01*
X104652745Y-79926068D01*
X104632288Y-79952943D01*
X104606166Y-79975796D01*
X104573737Y-79998497D01*
X104531423Y-80020306D01*
X104449449Y-80035768D01*
X104366353Y-80023720D01*
X104291867Y-79986262D01*
X104235720Y-79925498D01*
X104226722Y-79908652D01*
X104219364Y-79887773D01*
X104213672Y-79859307D01*
X104209435Y-79819311D01*
X104206441Y-79763845D01*
X104204480Y-79688967D01*
X104203340Y-79590734D01*
X104202811Y-79465205D01*
X104202682Y-79308439D01*
X104202689Y-79255388D01*
X104203010Y-79098197D01*
X104204304Y-78971397D01*
X104207247Y-78871294D01*
X104212511Y-78794194D01*
X104220774Y-78736403D01*
X104232708Y-78694229D01*
X104248989Y-78663978D01*
X104270292Y-78641956D01*
X104297291Y-78624471D01*
X104330660Y-78607827D01*
X104409514Y-78583698D01*
X104497980Y-78586958D01*
G37*
G36*
X109633247Y-86442477D02*
G01*
X109793425Y-86491944D01*
X109941393Y-86574157D01*
X110078596Y-86689645D01*
X110200750Y-86811799D01*
X110200750Y-86644087D01*
X110200750Y-86476375D01*
X110570141Y-86476375D01*
X110939531Y-86476375D01*
X110939531Y-87522982D01*
X110939531Y-88569588D01*
X110535964Y-88569588D01*
X110132397Y-88569588D01*
X110126996Y-87931950D01*
X110121595Y-87294311D01*
X110073471Y-87212448D01*
X110040464Y-87166263D01*
X109969767Y-87105468D01*
X109887594Y-87069089D01*
X109800786Y-87057612D01*
X109716186Y-87071522D01*
X109640636Y-87111306D01*
X109580979Y-87177451D01*
X109575755Y-87185972D01*
X109566474Y-87203112D01*
X109558967Y-87222752D01*
X109553011Y-87248521D01*
X109548378Y-87284052D01*
X109544843Y-87332975D01*
X109542182Y-87398921D01*
X109540168Y-87485522D01*
X109538576Y-87596409D01*
X109537181Y-87735213D01*
X109535756Y-87905565D01*
X109530388Y-88569588D01*
X109125648Y-88569588D01*
X108720909Y-88569588D01*
X108727760Y-87782435D01*
X108727785Y-87779474D01*
X108729687Y-87584003D01*
X108731765Y-87420520D01*
X108734140Y-87285877D01*
X108736932Y-87176924D01*
X108740263Y-87090514D01*
X108744254Y-87023498D01*
X108749026Y-86972728D01*
X108754700Y-86935055D01*
X108761396Y-86907331D01*
X108786406Y-86836043D01*
X108857561Y-86700455D01*
X108951455Y-86591682D01*
X109067799Y-86509952D01*
X109206305Y-86455492D01*
X109366686Y-86428530D01*
X109459412Y-86425224D01*
X109633247Y-86442477D01*
G37*
G36*
X104184961Y-88569588D02*
G01*
X103806775Y-88569588D01*
X103428589Y-88569588D01*
X103428589Y-88426080D01*
X103428589Y-88282572D01*
X103318297Y-88388480D01*
X103270723Y-88432252D01*
X103175270Y-88505532D01*
X103077930Y-88557515D01*
X102966839Y-88595179D01*
X102938855Y-88602176D01*
X102775912Y-88622532D01*
X102614252Y-88609735D01*
X102458987Y-88565158D01*
X102315231Y-88490175D01*
X102188097Y-88386156D01*
X102160560Y-88357403D01*
X102063736Y-88234715D01*
X101989519Y-88098893D01*
X101936224Y-87945370D01*
X101902164Y-87769580D01*
X101885654Y-87566957D01*
X101885464Y-87556443D01*
X102685768Y-87556443D01*
X102692747Y-87658678D01*
X102705850Y-87750603D01*
X102724131Y-87819912D01*
X102746398Y-87868715D01*
X102808919Y-87952450D01*
X102890353Y-88008371D01*
X102959360Y-88032095D01*
X103057842Y-88037475D01*
X103157986Y-88008236D01*
X103230807Y-87961927D01*
X103298367Y-87881184D01*
X103344641Y-87773415D01*
X103369320Y-87639385D01*
X103372094Y-87479859D01*
X103370056Y-87445816D01*
X103353147Y-87321403D01*
X103320999Y-87223156D01*
X103271255Y-87145593D01*
X103201559Y-87083231D01*
X103181472Y-87069584D01*
X103134698Y-87044788D01*
X103085147Y-87033277D01*
X103016737Y-87030461D01*
X102987216Y-87030794D01*
X102929279Y-87036071D01*
X102885850Y-87051034D01*
X102842189Y-87079853D01*
X102827993Y-87091271D01*
X102762409Y-87166448D01*
X102717404Y-87264780D01*
X102691087Y-87390144D01*
X102685860Y-87456207D01*
X102685768Y-87556443D01*
X101885464Y-87556443D01*
X101883769Y-87462867D01*
X101894837Y-87260212D01*
X101927201Y-87082293D01*
X101981735Y-86926249D01*
X102059316Y-86789218D01*
X102160821Y-86668337D01*
X102248469Y-86592753D01*
X102387027Y-86509827D01*
X102538249Y-86454912D01*
X102696865Y-86428277D01*
X102857602Y-86430195D01*
X103015189Y-86460933D01*
X103164357Y-86520763D01*
X103299833Y-86609955D01*
X103375819Y-86672221D01*
X103375819Y-86169727D01*
X103375819Y-85667234D01*
X103780390Y-85667234D01*
X104184961Y-85667234D01*
X104184961Y-87118411D01*
X104184961Y-87479859D01*
X104184961Y-88569588D01*
G37*
G36*
X98440213Y-87496597D02*
G01*
X98439701Y-87562328D01*
X98433867Y-87699232D01*
X98419886Y-87815554D01*
X98395713Y-87921310D01*
X98359303Y-88026515D01*
X98308612Y-88141186D01*
X98255493Y-88239123D01*
X98155700Y-88373367D01*
X98038909Y-88480223D01*
X97907686Y-88557509D01*
X97764600Y-88603045D01*
X97653900Y-88617802D01*
X97492572Y-88615662D01*
X97337839Y-88586728D01*
X97195318Y-88532740D01*
X97070623Y-88455437D01*
X96969370Y-88356562D01*
X96949473Y-88332930D01*
X96918330Y-88300761D01*
X96899745Y-88288148D01*
X96897673Y-88289561D01*
X96891265Y-88314310D01*
X96886785Y-88363520D01*
X96885099Y-88428868D01*
X96885099Y-88569588D01*
X96515708Y-88569588D01*
X96146318Y-88569588D01*
X96146318Y-87534159D01*
X96951605Y-87534159D01*
X96957751Y-87651888D01*
X96975756Y-87758403D01*
X97005624Y-87842752D01*
X97052774Y-87914828D01*
X97119029Y-87981297D01*
X97189672Y-88023178D01*
X97236644Y-88036785D01*
X97332622Y-88040169D01*
X97423374Y-88012775D01*
X97503905Y-87957519D01*
X97569222Y-87877319D01*
X97614330Y-87775092D01*
X97614447Y-87774697D01*
X97629742Y-87696911D01*
X97638432Y-87597734D01*
X97640289Y-87490291D01*
X97635084Y-87387707D01*
X97622586Y-87303106D01*
X97606567Y-87248795D01*
X97557076Y-87155447D01*
X97489525Y-87086314D01*
X97409286Y-87042118D01*
X97321729Y-87023578D01*
X97232225Y-87031414D01*
X97146144Y-87066347D01*
X97068858Y-87129097D01*
X97005737Y-87220384D01*
X97004308Y-87223215D01*
X96974886Y-87308870D01*
X96957317Y-87416169D01*
X96951605Y-87534159D01*
X96146318Y-87534159D01*
X96146318Y-87118411D01*
X96146318Y-85667234D01*
X96550889Y-85667234D01*
X96955459Y-85667234D01*
X96955459Y-86170596D01*
X96955459Y-86673959D01*
X97025027Y-86611109D01*
X97102625Y-86550271D01*
X97213269Y-86491718D01*
X97346284Y-86450175D01*
X97511005Y-86426052D01*
X97679750Y-86432043D01*
X97839791Y-86468653D01*
X97987423Y-86534216D01*
X98118943Y-86627064D01*
X98230648Y-86745531D01*
X98318834Y-86887950D01*
X98341828Y-86936531D01*
X98382331Y-87035586D01*
X98410535Y-87131660D01*
X98428326Y-87234214D01*
X98437590Y-87352706D01*
X98440098Y-87490291D01*
X98440213Y-87496597D01*
G37*
G36*
X93043243Y-87452622D02*
G01*
X93044185Y-87469063D01*
X93038690Y-87674947D01*
X93000296Y-87868648D01*
X92928906Y-88050683D01*
X92883343Y-88134303D01*
X92778185Y-88281259D01*
X92653680Y-88400335D01*
X92507879Y-88492908D01*
X92338831Y-88560353D01*
X92144587Y-88604045D01*
X92131038Y-88605854D01*
X92066007Y-88610925D01*
X91978505Y-88614221D01*
X91878309Y-88615465D01*
X91775196Y-88614386D01*
X91762853Y-88614083D01*
X91567747Y-88603243D01*
X91400949Y-88580619D01*
X91257356Y-88544579D01*
X91131862Y-88493495D01*
X91019363Y-88425736D01*
X90914754Y-88339674D01*
X90898838Y-88324439D01*
X90844004Y-88267427D01*
X90790277Y-88205735D01*
X90742290Y-88145392D01*
X90704672Y-88092430D01*
X90682055Y-88052880D01*
X90679071Y-88032772D01*
X90683200Y-88031362D01*
X90715697Y-88026085D01*
X90775908Y-88018605D01*
X90858652Y-88009505D01*
X90958748Y-87999366D01*
X91071017Y-87988770D01*
X91453856Y-87953874D01*
X91522809Y-88022827D01*
X91548482Y-88046638D01*
X91645014Y-88109413D01*
X91748346Y-88141927D01*
X91853221Y-88145889D01*
X91954381Y-88123009D01*
X92046570Y-88074995D01*
X92124529Y-88003556D01*
X92183001Y-87910402D01*
X92216729Y-87797241D01*
X92228238Y-87725267D01*
X91423055Y-87725267D01*
X90617873Y-87725267D01*
X90628562Y-87518584D01*
X90633135Y-87447757D01*
X90648866Y-87320696D01*
X91431520Y-87320696D01*
X91829879Y-87320696D01*
X92228238Y-87320696D01*
X92216729Y-87248722D01*
X92214053Y-87233562D01*
X92177689Y-87123630D01*
X92118070Y-87033280D01*
X92040340Y-86964400D01*
X91949645Y-86918874D01*
X91851130Y-86898588D01*
X91749939Y-86905429D01*
X91651218Y-86941283D01*
X91560113Y-87008036D01*
X91517942Y-87061505D01*
X91476131Y-87151257D01*
X91442211Y-87272324D01*
X91431520Y-87320696D01*
X90648866Y-87320696D01*
X90655631Y-87266049D01*
X90693740Y-87109792D01*
X90749495Y-86973592D01*
X90824930Y-86852050D01*
X90922080Y-86739771D01*
X90949624Y-86712931D01*
X91078957Y-86609733D01*
X91223542Y-86531461D01*
X91391488Y-86473514D01*
X91413038Y-86467873D01*
X91473363Y-86454648D01*
X91537075Y-86445420D01*
X91612117Y-86439480D01*
X91706433Y-86436123D01*
X91827966Y-86434639D01*
X91940047Y-86434508D01*
X92029254Y-86436064D01*
X92098715Y-86440025D01*
X92156277Y-86447080D01*
X92209789Y-86457919D01*
X92267099Y-86473232D01*
X92354603Y-86501095D01*
X92498154Y-86563208D01*
X92624347Y-86643570D01*
X92744106Y-86748486D01*
X92811859Y-86821485D01*
X92907049Y-86954567D01*
X92975782Y-87100443D01*
X93020400Y-87264625D01*
X93027213Y-87320696D01*
X93043243Y-87452622D01*
G37*
G36*
X116663889Y-86437741D02*
G01*
X116821535Y-86449533D01*
X116954342Y-86470627D01*
X117067007Y-86502320D01*
X117164227Y-86545911D01*
X117250700Y-86602699D01*
X117331122Y-86673982D01*
X117411284Y-86773743D01*
X117469197Y-86893542D01*
X117497634Y-87020453D01*
X117497231Y-87149280D01*
X117468625Y-87274823D01*
X117412456Y-87391884D01*
X117329361Y-87495265D01*
X117219978Y-87579768D01*
X117187325Y-87598545D01*
X117140400Y-87622064D01*
X117088250Y-87643243D01*
X117025971Y-87663479D01*
X116948657Y-87684173D01*
X116851402Y-87706722D01*
X116729303Y-87732525D01*
X116577453Y-87762981D01*
X116535531Y-87771303D01*
X116413891Y-87796315D01*
X116320829Y-87817560D01*
X116251631Y-87836714D01*
X116201585Y-87855453D01*
X116165979Y-87875452D01*
X116140100Y-87898387D01*
X116119237Y-87925935D01*
X116105876Y-87952240D01*
X116101088Y-88008587D01*
X116125433Y-88062197D01*
X116174832Y-88109734D01*
X116245208Y-88147857D01*
X116332484Y-88173229D01*
X116432582Y-88182510D01*
X116508492Y-88176120D01*
X116612885Y-88141028D01*
X116698915Y-88076426D01*
X116764485Y-87983572D01*
X116798897Y-87916462D01*
X116890301Y-87926433D01*
X116917261Y-87929240D01*
X116983748Y-87935775D01*
X117071843Y-87944152D01*
X117173284Y-87953588D01*
X117279812Y-87963303D01*
X117357420Y-87970528D01*
X117446350Y-87979423D01*
X117517844Y-87987289D01*
X117566028Y-87993471D01*
X117585032Y-87997314D01*
X117587591Y-88006927D01*
X117580319Y-88043193D01*
X117560849Y-88096585D01*
X117532830Y-88158624D01*
X117499908Y-88220829D01*
X117465730Y-88274721D01*
X117387057Y-88367827D01*
X117279342Y-88455204D01*
X117150333Y-88522462D01*
X116996479Y-88571395D01*
X116814232Y-88603796D01*
X116805156Y-88604890D01*
X116698498Y-88613244D01*
X116573330Y-88616628D01*
X116438581Y-88615391D01*
X116303179Y-88609883D01*
X116176054Y-88600452D01*
X116066133Y-88587450D01*
X115982347Y-88571225D01*
X115961360Y-88565556D01*
X115792670Y-88504762D01*
X115650874Y-88424527D01*
X115537082Y-88326016D01*
X115452403Y-88210396D01*
X115397946Y-88078832D01*
X115374821Y-87932491D01*
X115378788Y-87813802D01*
X115411400Y-87679222D01*
X115474683Y-87561748D01*
X115568496Y-87461564D01*
X115692698Y-87378855D01*
X115847149Y-87313804D01*
X115884464Y-87302888D01*
X115964921Y-87283578D01*
X116065093Y-87262891D01*
X116175769Y-87242689D01*
X116287743Y-87224830D01*
X116336529Y-87217621D01*
X116470845Y-87196760D01*
X116575130Y-87178055D01*
X116653120Y-87160003D01*
X116708552Y-87141101D01*
X116745161Y-87119842D01*
X116766685Y-87094725D01*
X116776859Y-87064244D01*
X116779420Y-87026895D01*
X116768897Y-86974861D01*
X116729874Y-86922848D01*
X116666842Y-86885789D01*
X116584880Y-86865537D01*
X116489063Y-86863942D01*
X116384470Y-86882857D01*
X116380800Y-86883933D01*
X116326611Y-86909417D01*
X116270303Y-86949245D01*
X116223388Y-86994082D01*
X116197379Y-87034590D01*
X116188520Y-87041124D01*
X116163052Y-87044738D01*
X116117434Y-87044746D01*
X116047969Y-87041021D01*
X115950959Y-87033440D01*
X115822708Y-87021875D01*
X115787999Y-87018587D01*
X115681340Y-87008024D01*
X115588582Y-86998152D01*
X115515011Y-86989579D01*
X115465912Y-86982910D01*
X115446570Y-86978751D01*
X115446240Y-86978388D01*
X115447497Y-86955367D01*
X115465442Y-86911924D01*
X115495781Y-86855477D01*
X115534217Y-86793448D01*
X115576455Y-86733254D01*
X115618198Y-86682316D01*
X115651441Y-86647552D01*
X115725473Y-86582600D01*
X115805460Y-86531481D01*
X115896205Y-86492783D01*
X116002508Y-86465093D01*
X116129173Y-86446999D01*
X116281003Y-86437089D01*
X116462800Y-86433951D01*
X116476708Y-86433951D01*
X116663889Y-86437741D01*
G37*
G36*
X113722248Y-87573282D02*
G01*
X113711835Y-87687332D01*
X113695240Y-87778037D01*
X113651109Y-87912405D01*
X113566353Y-88079066D01*
X113454466Y-88224253D01*
X113433832Y-88245630D01*
X113303552Y-88353291D01*
X113160267Y-88428500D01*
X113005459Y-88470822D01*
X112840608Y-88479823D01*
X112667198Y-88455068D01*
X112660783Y-88453538D01*
X112534515Y-88413669D01*
X112428397Y-88357374D01*
X112329218Y-88277721D01*
X112287728Y-88240537D01*
X112251461Y-88211371D01*
X112232254Y-88200198D01*
X112231093Y-88201039D01*
X112227163Y-88224387D01*
X112225490Y-88274951D01*
X112226158Y-88346260D01*
X112229249Y-88431844D01*
X112237491Y-88547933D01*
X112255247Y-88664469D01*
X112283670Y-88752918D01*
X112325299Y-88816925D01*
X112382676Y-88860135D01*
X112458343Y-88886190D01*
X112554840Y-88898735D01*
X112632876Y-88897943D01*
X112730990Y-88876141D01*
X112808008Y-88831575D01*
X112859702Y-88766084D01*
X112864147Y-88757267D01*
X112884351Y-88719314D01*
X112896425Y-88700045D01*
X112898297Y-88699143D01*
X112925585Y-88693642D01*
X112979917Y-88685619D01*
X113055097Y-88675767D01*
X113144931Y-88664779D01*
X113243224Y-88653347D01*
X113343781Y-88642165D01*
X113440409Y-88631924D01*
X113526912Y-88623318D01*
X113597096Y-88617040D01*
X113644766Y-88613782D01*
X113663727Y-88614237D01*
X113663761Y-88614271D01*
X113667777Y-88635139D01*
X113670062Y-88681188D01*
X113670122Y-88742512D01*
X113658602Y-88855027D01*
X113616151Y-88991843D01*
X113544931Y-89112402D01*
X113447379Y-89212828D01*
X113325937Y-89289246D01*
X113248861Y-89320028D01*
X113135656Y-89353585D01*
X113007266Y-89382190D01*
X112874434Y-89403131D01*
X112863266Y-89404326D01*
X112794124Y-89407806D01*
X112700868Y-89408386D01*
X112591968Y-89406423D01*
X112475894Y-89402272D01*
X112361117Y-89396291D01*
X112256107Y-89388835D01*
X112169334Y-89380262D01*
X112109268Y-89370928D01*
X111962618Y-89328039D01*
X111807518Y-89252827D01*
X111676703Y-89152757D01*
X111571168Y-89028807D01*
X111491906Y-88881955D01*
X111439914Y-88713177D01*
X111438952Y-88708465D01*
X111433663Y-88674578D01*
X111429162Y-88629185D01*
X111425392Y-88569654D01*
X111422298Y-88493357D01*
X111419822Y-88397663D01*
X111417910Y-88279942D01*
X111416505Y-88137562D01*
X111415550Y-87967895D01*
X111414990Y-87768309D01*
X111414767Y-87536174D01*
X111414751Y-87479007D01*
X112232598Y-87479007D01*
X112235594Y-87559869D01*
X112255711Y-87681450D01*
X112295986Y-87777282D01*
X112357855Y-87850261D01*
X112442751Y-87903284D01*
X112519459Y-87928069D01*
X112620465Y-87932273D01*
X112715526Y-87906295D01*
X112799070Y-87852864D01*
X112865529Y-87774711D01*
X112909332Y-87674566D01*
X112919167Y-87623981D01*
X112926025Y-87532173D01*
X112924720Y-87429911D01*
X112915591Y-87331092D01*
X112898976Y-87249616D01*
X112870116Y-87177928D01*
X112810352Y-87095014D01*
X112734020Y-87037583D01*
X112646577Y-87007238D01*
X112553483Y-87005585D01*
X112460197Y-87034228D01*
X112372177Y-87094771D01*
X112368753Y-87097953D01*
X112304897Y-87171080D01*
X112262763Y-87253891D01*
X112239585Y-87353996D01*
X112232598Y-87479007D01*
X111414751Y-87479007D01*
X111414462Y-86476375D01*
X111792648Y-86476375D01*
X112170833Y-86476375D01*
X112170833Y-86626893D01*
X112170833Y-86777411D01*
X112266839Y-86673713D01*
X112285760Y-86653891D01*
X112408397Y-86551805D01*
X112546335Y-86479989D01*
X112701745Y-86437553D01*
X112876799Y-86423605D01*
X112999460Y-86431301D01*
X113163891Y-86468865D01*
X113311530Y-86536315D01*
X113440454Y-86632123D01*
X113548744Y-86754764D01*
X113634478Y-86902711D01*
X113695735Y-87074436D01*
X113701920Y-87101017D01*
X113716314Y-87199756D01*
X113724495Y-87318626D01*
X113726470Y-87446757D01*
X113723620Y-87532173D01*
X113722248Y-87573282D01*
G37*
G36*
X95745240Y-87573282D02*
G01*
X95734827Y-87687332D01*
X95718231Y-87778037D01*
X95674100Y-87912405D01*
X95589345Y-88079066D01*
X95477458Y-88224253D01*
X95456823Y-88245630D01*
X95326544Y-88353291D01*
X95183259Y-88428500D01*
X95028451Y-88470822D01*
X94863600Y-88479823D01*
X94690189Y-88455068D01*
X94683775Y-88453538D01*
X94557506Y-88413669D01*
X94451389Y-88357374D01*
X94352210Y-88277721D01*
X94310720Y-88240537D01*
X94274453Y-88211371D01*
X94255246Y-88200198D01*
X94254085Y-88201039D01*
X94250155Y-88224387D01*
X94248482Y-88274951D01*
X94249149Y-88346260D01*
X94252241Y-88431844D01*
X94260483Y-88547933D01*
X94278239Y-88664469D01*
X94306661Y-88752918D01*
X94348290Y-88816925D01*
X94405668Y-88860135D01*
X94481334Y-88886190D01*
X94577831Y-88898735D01*
X94655868Y-88897943D01*
X94753981Y-88876141D01*
X94831000Y-88831575D01*
X94882693Y-88766084D01*
X94887139Y-88757267D01*
X94907343Y-88719314D01*
X94919416Y-88700045D01*
X94921288Y-88699143D01*
X94948577Y-88693642D01*
X95002909Y-88685619D01*
X95078089Y-88675767D01*
X95167922Y-88664779D01*
X95266215Y-88653347D01*
X95366773Y-88642165D01*
X95463401Y-88631924D01*
X95549904Y-88623318D01*
X95620088Y-88617040D01*
X95667757Y-88613782D01*
X95686719Y-88614237D01*
X95686752Y-88614271D01*
X95690769Y-88635139D01*
X95693054Y-88681188D01*
X95693114Y-88742512D01*
X95681593Y-88855027D01*
X95639143Y-88991843D01*
X95567922Y-89112402D01*
X95470371Y-89212828D01*
X95348929Y-89289246D01*
X95271853Y-89320028D01*
X95158648Y-89353585D01*
X95030257Y-89382190D01*
X94897426Y-89403131D01*
X94886257Y-89404326D01*
X94817116Y-89407806D01*
X94723860Y-89408386D01*
X94614960Y-89406423D01*
X94498886Y-89402272D01*
X94384109Y-89396291D01*
X94279099Y-89388835D01*
X94192325Y-89380262D01*
X94132260Y-89370928D01*
X93985610Y-89328039D01*
X93830510Y-89252827D01*
X93699695Y-89152757D01*
X93594159Y-89028807D01*
X93514898Y-88881955D01*
X93462906Y-88713177D01*
X93461944Y-88708465D01*
X93456655Y-88674578D01*
X93452153Y-88629185D01*
X93448384Y-88569654D01*
X93445289Y-88493357D01*
X93442814Y-88397663D01*
X93440902Y-88279942D01*
X93439497Y-88137562D01*
X93438542Y-87967895D01*
X93437981Y-87768309D01*
X93437759Y-87536174D01*
X93437743Y-87479007D01*
X94255789Y-87479007D01*
X94258663Y-87559528D01*
X94278642Y-87681184D01*
X94318867Y-87777114D01*
X94380760Y-87850189D01*
X94465743Y-87903284D01*
X94542450Y-87928069D01*
X94643457Y-87932273D01*
X94738517Y-87906295D01*
X94822062Y-87852864D01*
X94888521Y-87774711D01*
X94932324Y-87674566D01*
X94942404Y-87621714D01*
X94949003Y-87530704D01*
X94947833Y-87429828D01*
X94939192Y-87333058D01*
X94923377Y-87254363D01*
X94920595Y-87245330D01*
X94873139Y-87144534D01*
X94806512Y-87069417D01*
X94725903Y-87021215D01*
X94636503Y-87001161D01*
X94543501Y-87010487D01*
X94452087Y-87050428D01*
X94367451Y-87122218D01*
X94361304Y-87129128D01*
X94310795Y-87198120D01*
X94278304Y-87273258D01*
X94260935Y-87363801D01*
X94255789Y-87479007D01*
X93437743Y-87479007D01*
X93437454Y-86476375D01*
X93815639Y-86476375D01*
X94193825Y-86476375D01*
X94193825Y-86626893D01*
X94193825Y-86777411D01*
X94289831Y-86673713D01*
X94308752Y-86653891D01*
X94431389Y-86551805D01*
X94569326Y-86479989D01*
X94724736Y-86437553D01*
X94899791Y-86423605D01*
X95022452Y-86431301D01*
X95186883Y-86468865D01*
X95334521Y-86536315D01*
X95463446Y-86632123D01*
X95571736Y-86754764D01*
X95657470Y-86902711D01*
X95718726Y-87074436D01*
X95724912Y-87101017D01*
X95739306Y-87199756D01*
X95747487Y-87318626D01*
X95749462Y-87446757D01*
X95746661Y-87530704D01*
X95745240Y-87573282D01*
G37*
G36*
X108325697Y-88006707D02*
G01*
X108319072Y-88124421D01*
X108294737Y-88223523D01*
X108248398Y-88312530D01*
X108175773Y-88402750D01*
X108097760Y-88473454D01*
X107970898Y-88547665D01*
X107819029Y-88597439D01*
X107769247Y-88606461D01*
X107654729Y-88615364D01*
X107509476Y-88614087D01*
X107362021Y-88603525D01*
X107212563Y-88578422D01*
X107081971Y-88537190D01*
X106962444Y-88477265D01*
X106846183Y-88396084D01*
X106756648Y-88325311D01*
X106744952Y-88387656D01*
X106744836Y-88388270D01*
X106728185Y-88449647D01*
X106704742Y-88509795D01*
X106676229Y-88569588D01*
X106301301Y-88569588D01*
X106259843Y-88569561D01*
X106153401Y-88569230D01*
X106061741Y-88568567D01*
X105989963Y-88567633D01*
X105943166Y-88566488D01*
X105926450Y-88565191D01*
X105926596Y-88564444D01*
X105933617Y-88542631D01*
X105949076Y-88497527D01*
X105970054Y-88437663D01*
X105980469Y-88407624D01*
X105990200Y-88375965D01*
X105997820Y-88343207D01*
X106003593Y-88305089D01*
X106007784Y-88257352D01*
X106010657Y-88195734D01*
X106012477Y-88115977D01*
X106013507Y-88013821D01*
X106014013Y-87885004D01*
X106014258Y-87725267D01*
X106014669Y-87579538D01*
X106014740Y-87571761D01*
X106805875Y-87571761D01*
X106805875Y-87684700D01*
X106809057Y-87765177D01*
X106830993Y-87886159D01*
X106875505Y-87983753D01*
X106944623Y-88061764D01*
X107040380Y-88123999D01*
X107123574Y-88157464D01*
X107228425Y-88177570D01*
X107327709Y-88174038D01*
X107414225Y-88147297D01*
X107480774Y-88097775D01*
X107502808Y-88063244D01*
X107520862Y-87994111D01*
X107518056Y-87919429D01*
X107493628Y-87853649D01*
X107477408Y-87830463D01*
X107450676Y-87802735D01*
X107414218Y-87777412D01*
X107363183Y-87752189D01*
X107292721Y-87724757D01*
X107197984Y-87692809D01*
X107074123Y-87654037D01*
X106805875Y-87571761D01*
X106014740Y-87571761D01*
X106016139Y-87419164D01*
X106019108Y-87286642D01*
X106024050Y-87177844D01*
X106031442Y-87088641D01*
X106041759Y-87014903D01*
X106055478Y-86952501D01*
X106073073Y-86897307D01*
X106095022Y-86845193D01*
X106121799Y-86792028D01*
X106161916Y-86725876D01*
X106240597Y-86634948D01*
X106339367Y-86562993D01*
X106462783Y-86506982D01*
X106615405Y-86463884D01*
X106618615Y-86463182D01*
X106698872Y-86450920D01*
X106805680Y-86441783D01*
X106931342Y-86435763D01*
X107068157Y-86432854D01*
X107208424Y-86433050D01*
X107344445Y-86436345D01*
X107468520Y-86442731D01*
X107572949Y-86452203D01*
X107650032Y-86464754D01*
X107651048Y-86464989D01*
X107821321Y-86516073D01*
X107961415Y-86583568D01*
X108072679Y-86668292D01*
X108156463Y-86771060D01*
X108173812Y-86801010D01*
X108202973Y-86860271D01*
X108229635Y-86923655D01*
X108250460Y-86982281D01*
X108262107Y-87027266D01*
X108261237Y-87049730D01*
X108258705Y-87050671D01*
X108230227Y-87055805D01*
X108175280Y-87063739D01*
X108100001Y-87073741D01*
X108010526Y-87085079D01*
X107912990Y-87097021D01*
X107813529Y-87108834D01*
X107718277Y-87119786D01*
X107633372Y-87129145D01*
X107564948Y-87136178D01*
X107519140Y-87140153D01*
X107502086Y-87140338D01*
X107500017Y-87135939D01*
X107485982Y-87108607D01*
X107463387Y-87065641D01*
X107436550Y-87024212D01*
X107368157Y-86963355D01*
X107274433Y-86923639D01*
X107153197Y-86903928D01*
X107140294Y-86903037D01*
X107020789Y-86903322D01*
X106930189Y-86921900D01*
X106866919Y-86959670D01*
X106829407Y-87017530D01*
X106816079Y-87096379D01*
X106814670Y-87168146D01*
X106959863Y-87217470D01*
X107016447Y-87234823D01*
X107104744Y-87258770D01*
X107211141Y-87285439D01*
X107326976Y-87312667D01*
X107443589Y-87338291D01*
X107444543Y-87338493D01*
X107612880Y-87375106D01*
X107750804Y-87407867D01*
X107862632Y-87438388D01*
X107952681Y-87468281D01*
X108025268Y-87499157D01*
X108084710Y-87532630D01*
X108135324Y-87570310D01*
X108181426Y-87613810D01*
X108229098Y-87669448D01*
X108284309Y-87764945D01*
X108315538Y-87874723D01*
X108324727Y-87994111D01*
X108325697Y-88006707D01*
G37*
G36*
X106225404Y-78560863D02*
G01*
X106872037Y-78560863D01*
X107518671Y-78560863D01*
X107806944Y-78272191D01*
X108095218Y-77983520D01*
X108084793Y-77895499D01*
X108083231Y-77880070D01*
X108088381Y-77771195D01*
X108121403Y-77676496D01*
X108179858Y-77600764D01*
X108261305Y-77548792D01*
X108268397Y-77545916D01*
X108364360Y-77523800D01*
X108453396Y-77531600D01*
X108532122Y-77564551D01*
X108597154Y-77617885D01*
X108645107Y-77686839D01*
X108672596Y-77766645D01*
X108676237Y-77852539D01*
X108652646Y-77939753D01*
X108598438Y-78023524D01*
X108574639Y-78048084D01*
X108504746Y-78094580D01*
X108419903Y-78115588D01*
X108313625Y-78113151D01*
X108207189Y-78101109D01*
X107981463Y-78326334D01*
X107914108Y-78394155D01*
X107850752Y-78459256D01*
X107800602Y-78512219D01*
X107767612Y-78548863D01*
X107755736Y-78565006D01*
X107767801Y-78568737D01*
X107809848Y-78572616D01*
X107876644Y-78575693D01*
X107962547Y-78577721D01*
X108061912Y-78578453D01*
X108368087Y-78578453D01*
X108432301Y-78489072D01*
X108453704Y-78461437D01*
X108532568Y-78388723D01*
X108619268Y-78346952D01*
X108709435Y-78336847D01*
X108798702Y-78359130D01*
X108882700Y-78414526D01*
X108940301Y-78483823D01*
X108974876Y-78570205D01*
X108979589Y-78660834D01*
X108955215Y-78749541D01*
X108902525Y-78830154D01*
X108822293Y-78896505D01*
X108753414Y-78924101D01*
X108665861Y-78928636D01*
X108577933Y-78905697D01*
X108497644Y-78857553D01*
X108433012Y-78786467D01*
X108388478Y-78719173D01*
X107306941Y-78719173D01*
X106225404Y-78719173D01*
X106225404Y-79035793D01*
X106225404Y-79329083D01*
X106225404Y-79352414D01*
X107315534Y-79352414D01*
X108405664Y-79352414D01*
X108431602Y-79302255D01*
X108465395Y-79249174D01*
X108533127Y-79184179D01*
X108612243Y-79143721D01*
X108696917Y-79127060D01*
X108781326Y-79133453D01*
X108859645Y-79162156D01*
X108926049Y-79212427D01*
X108974716Y-79283524D01*
X108999820Y-79374704D01*
X109002251Y-79424136D01*
X108985119Y-79523549D01*
X108939013Y-79605944D01*
X108866467Y-79667679D01*
X108770011Y-79705115D01*
X108743254Y-79710809D01*
X108691706Y-79717216D01*
X108648773Y-79711035D01*
X108596581Y-79690789D01*
X108573177Y-79679139D01*
X108520111Y-79643927D01*
X108483677Y-79607823D01*
X108468719Y-79584900D01*
X108456071Y-79564711D01*
X108443500Y-79547688D01*
X108428294Y-79533576D01*
X108407740Y-79522120D01*
X108379127Y-79513063D01*
X108339743Y-79506151D01*
X108286875Y-79501128D01*
X108217811Y-79497738D01*
X108129841Y-79495727D01*
X108020250Y-79494838D01*
X107886328Y-79494815D01*
X107725363Y-79495405D01*
X107534642Y-79496350D01*
X107311453Y-79497396D01*
X106234199Y-79501929D01*
X106232641Y-79603202D01*
X106229395Y-79814152D01*
X106225952Y-80037953D01*
X106224592Y-80126375D01*
X107314417Y-80126375D01*
X108404242Y-80126375D01*
X108453777Y-80053395D01*
X108472255Y-80028577D01*
X108545099Y-79962771D01*
X108628486Y-79925267D01*
X108716205Y-79915163D01*
X108802049Y-79931559D01*
X108879806Y-79973552D01*
X108943269Y-80040241D01*
X108986228Y-80130723D01*
X108986477Y-80131559D01*
X108994681Y-80212785D01*
X108978248Y-80301691D01*
X108939809Y-80383928D01*
X108917220Y-80412943D01*
X108849130Y-80464532D01*
X108767072Y-80492169D01*
X108679100Y-80496113D01*
X108593266Y-80476625D01*
X108517622Y-80433967D01*
X108460220Y-80368399D01*
X108443579Y-80340371D01*
X108424439Y-80312379D01*
X108403045Y-80292604D01*
X108373908Y-80279620D01*
X108331543Y-80272003D01*
X108270461Y-80268326D01*
X108185175Y-80267165D01*
X108070197Y-80267095D01*
X108004919Y-80267346D01*
X107898899Y-80269191D01*
X107820940Y-80272720D01*
X107773408Y-80277803D01*
X107758668Y-80284310D01*
X107770135Y-80299672D01*
X107802363Y-80336835D01*
X107851297Y-80391005D01*
X107912963Y-80457786D01*
X107983384Y-80532782D01*
X108202237Y-80764041D01*
X108317594Y-80753577D01*
X108343285Y-80751738D01*
X108453363Y-80758367D01*
X108541673Y-80791692D01*
X108610588Y-80853019D01*
X108662484Y-80943659D01*
X108669672Y-80962983D01*
X108682353Y-81052176D01*
X108665529Y-81139163D01*
X108623504Y-81217695D01*
X108560585Y-81281525D01*
X108481077Y-81324405D01*
X108389286Y-81340087D01*
X108325271Y-81334238D01*
X108232822Y-81301202D01*
X108159596Y-81243140D01*
X108109328Y-81164764D01*
X108085755Y-81070787D01*
X108092614Y-80965921D01*
X108111423Y-80878219D01*
X107815041Y-80581452D01*
X107518659Y-80284685D01*
X106872031Y-80284685D01*
X106225404Y-80284685D01*
X106225404Y-80582976D01*
X106225404Y-80881266D01*
X106752997Y-80886404D01*
X107280591Y-80891541D01*
X107718825Y-81329537D01*
X108157059Y-81767533D01*
X108250304Y-81756489D01*
X108320151Y-81753759D01*
X108423084Y-81772178D01*
X108510127Y-81816185D01*
X108576289Y-81882879D01*
X108616579Y-81969360D01*
X108626746Y-82047922D01*
X108610863Y-82139489D01*
X108567715Y-82220212D01*
X108501666Y-82284631D01*
X108417077Y-82327287D01*
X108318309Y-82342719D01*
X108272441Y-82338984D01*
X108184956Y-82308648D01*
X108113037Y-82252147D01*
X108060786Y-82174701D01*
X108032305Y-82081531D01*
X108031694Y-81977859D01*
X108042410Y-81899673D01*
X107613370Y-81470365D01*
X107184330Y-81041056D01*
X106629230Y-81041056D01*
X106523063Y-81041201D01*
X106374997Y-81042110D01*
X106258122Y-81043932D01*
X106169963Y-81046758D01*
X106108045Y-81050678D01*
X106069889Y-81055783D01*
X106053022Y-81062165D01*
X106048006Y-81070642D01*
X106039035Y-81114264D01*
X106033686Y-81191851D01*
X106031913Y-81303923D01*
X106031913Y-81524573D01*
X106572700Y-82065571D01*
X107113487Y-82606569D01*
X107206506Y-82606569D01*
X107220776Y-82606775D01*
X107330091Y-82624440D01*
X107419005Y-82669536D01*
X107485432Y-82740567D01*
X107527281Y-82836039D01*
X107535024Y-82877900D01*
X107528939Y-82968138D01*
X107495233Y-83050975D01*
X107439102Y-83120870D01*
X107365742Y-83172287D01*
X107280351Y-83199685D01*
X107188123Y-83197527D01*
X107144134Y-83185413D01*
X107059331Y-83138657D01*
X106996155Y-83069411D01*
X106957623Y-82983319D01*
X106946756Y-82886028D01*
X106966571Y-82783185D01*
X106986547Y-82725881D01*
X106430075Y-82169205D01*
X105873603Y-81612529D01*
X105873603Y-81361973D01*
X105873603Y-81111417D01*
X105600958Y-81111417D01*
X105328312Y-81111417D01*
X105328312Y-81936963D01*
X105328326Y-82087221D01*
X105328453Y-82253878D01*
X105328823Y-82390671D01*
X105329567Y-82500608D01*
X105330816Y-82586695D01*
X105332700Y-82651939D01*
X105335349Y-82699345D01*
X105338895Y-82731920D01*
X105343467Y-82752670D01*
X105349196Y-82764603D01*
X105356213Y-82770725D01*
X105364648Y-82774041D01*
X105390941Y-82785190D01*
X105452912Y-82831013D01*
X105505721Y-82894569D01*
X105538504Y-82963992D01*
X105543323Y-82983611D01*
X105547002Y-83081706D01*
X105516667Y-83174849D01*
X105453281Y-83259701D01*
X105452994Y-83259987D01*
X105374300Y-83316388D01*
X105287044Y-83342197D01*
X105197554Y-83338679D01*
X105112156Y-83307100D01*
X105037177Y-83248725D01*
X104978943Y-83164820D01*
X104960336Y-83120210D01*
X104945241Y-83026618D01*
X104964247Y-82939047D01*
X105016717Y-82859448D01*
X105102009Y-82789770D01*
X105170353Y-82746626D01*
X105165780Y-81933419D01*
X105161207Y-81120212D01*
X104840189Y-81115417D01*
X104519171Y-81110623D01*
X104519171Y-82218006D01*
X104519176Y-82348256D01*
X104519241Y-82554257D01*
X104519449Y-82729114D01*
X104519880Y-82875414D01*
X104520617Y-82995742D01*
X104521741Y-83092684D01*
X104523333Y-83168825D01*
X104525476Y-83226752D01*
X104528249Y-83269048D01*
X104531736Y-83298301D01*
X104536018Y-83317095D01*
X104541176Y-83328017D01*
X104547291Y-83333652D01*
X104554446Y-83336585D01*
X104576140Y-83345853D01*
X104631311Y-83383494D01*
X104684391Y-83434623D01*
X104722088Y-83487292D01*
X104736644Y-83522668D01*
X104747970Y-83609316D01*
X104732001Y-83698207D01*
X104692141Y-83781061D01*
X104631790Y-83849598D01*
X104554351Y-83895539D01*
X104518067Y-83903673D01*
X104450123Y-83906303D01*
X104377957Y-83899364D01*
X104318640Y-83883712D01*
X104273643Y-83858384D01*
X104212744Y-83796802D01*
X104171017Y-83718256D01*
X104151212Y-83631511D01*
X104156079Y-83545331D01*
X104188366Y-83468480D01*
X104195246Y-83458916D01*
X104242377Y-83407381D01*
X104295463Y-83364391D01*
X104360861Y-83321866D01*
X104360861Y-82216641D01*
X104360861Y-81111417D01*
X104044240Y-81111417D01*
X103727620Y-81111417D01*
X103727667Y-81933750D01*
X103727715Y-82756084D01*
X103793085Y-82791264D01*
X103852084Y-82833488D01*
X103908085Y-82907244D01*
X103936619Y-82995000D01*
X103935844Y-83090194D01*
X103903918Y-83186259D01*
X103892062Y-83207835D01*
X103831985Y-83280386D01*
X103754544Y-83322729D01*
X103657260Y-83336372D01*
X103565577Y-83327104D01*
X103474082Y-83291964D01*
X103406606Y-83232031D01*
X103364718Y-83148800D01*
X103349985Y-83043761D01*
X103354561Y-82976592D01*
X103376731Y-82910026D01*
X103422150Y-82852363D01*
X103496158Y-82794499D01*
X103569310Y-82744964D01*
X103569310Y-81927744D01*
X103569310Y-81110523D01*
X103292267Y-81115367D01*
X103015224Y-81120212D01*
X103010441Y-81366472D01*
X103005659Y-81612732D01*
X102466798Y-82152084D01*
X101927936Y-82691436D01*
X101957863Y-82798096D01*
X101968638Y-82843127D01*
X101974779Y-82940736D01*
X101951232Y-83026421D01*
X101896638Y-83107042D01*
X101826951Y-83165045D01*
X101745566Y-83196247D01*
X101660683Y-83200326D01*
X101578140Y-83179685D01*
X101503776Y-83136724D01*
X101443430Y-83073844D01*
X101402940Y-82993447D01*
X101388146Y-82897933D01*
X101398502Y-82811669D01*
X101436325Y-82732990D01*
X101505467Y-82664646D01*
X101524030Y-82651153D01*
X101566348Y-82628361D01*
X101615577Y-82616794D01*
X101685784Y-82612375D01*
X101801512Y-82609385D01*
X102333610Y-82084188D01*
X102865708Y-81558991D01*
X102865708Y-81321132D01*
X102865035Y-81240888D01*
X102861441Y-81148631D01*
X102854662Y-81089451D01*
X102844600Y-81062165D01*
X102836873Y-81058169D01*
X102807493Y-81052561D01*
X102755326Y-81048177D01*
X102677897Y-81044926D01*
X102572727Y-81042715D01*
X102437339Y-81041456D01*
X102269257Y-81041056D01*
X101715021Y-81041056D01*
X101288214Y-81467615D01*
X100861407Y-81894173D01*
X100878682Y-81969276D01*
X100886933Y-82037001D01*
X100873813Y-82131772D01*
X100834356Y-82215421D01*
X100772809Y-82282250D01*
X100693417Y-82326559D01*
X100600427Y-82342653D01*
X100525783Y-82335473D01*
X100434439Y-82299526D01*
X100355325Y-82231380D01*
X100328775Y-82196606D01*
X100291623Y-82113536D01*
X100283673Y-82028596D01*
X100301615Y-81946823D01*
X100342137Y-81873258D01*
X100401930Y-81812938D01*
X100477682Y-81770903D01*
X100566083Y-81752190D01*
X100663824Y-81761839D01*
X100743230Y-81781834D01*
X101193994Y-81332290D01*
X101644758Y-80882746D01*
X102158488Y-80882746D01*
X102672218Y-80882746D01*
X102672218Y-80583716D01*
X102672218Y-80284685D01*
X102034580Y-80285555D01*
X101396941Y-80286424D01*
X101107531Y-80565258D01*
X100818120Y-80844091D01*
X100840653Y-80957450D01*
X100849272Y-81004213D01*
X100854449Y-81055763D01*
X100849708Y-81096186D01*
X100834591Y-81139246D01*
X100815472Y-81179385D01*
X100753035Y-81262523D01*
X100671917Y-81315969D01*
X100588654Y-81337964D01*
X100492056Y-81333445D01*
X100402422Y-81298866D01*
X100327988Y-81236139D01*
X100324428Y-81231841D01*
X100273986Y-81146574D01*
X100254558Y-81058397D01*
X100263114Y-80972359D01*
X100296622Y-80893504D01*
X100352050Y-80826880D01*
X100426366Y-80777533D01*
X100516539Y-80750509D01*
X100619536Y-80750855D01*
X100693340Y-80761553D01*
X100930561Y-80523119D01*
X101167782Y-80284685D01*
X100842611Y-80285241D01*
X100517440Y-80285797D01*
X100471799Y-80361096D01*
X100466525Y-80369519D01*
X100402157Y-80440145D01*
X100318435Y-80481983D01*
X100213955Y-80495766D01*
X100192314Y-80495086D01*
X100100619Y-80473429D01*
X100025618Y-80420989D01*
X99966601Y-80337313D01*
X99954994Y-80312541D01*
X99931068Y-80215239D01*
X99940964Y-80121261D01*
X99983646Y-80034877D01*
X100058078Y-79960357D01*
X100093464Y-79940081D01*
X100144568Y-79927639D01*
X100218409Y-79924090D01*
X100281622Y-79927403D01*
X100355860Y-79947280D01*
X100415794Y-79990160D01*
X100472014Y-80061791D01*
X100514539Y-80126375D01*
X101593784Y-80126375D01*
X102673030Y-80126375D01*
X102672624Y-80099990D01*
X103340639Y-80099990D01*
X103341530Y-80195552D01*
X103345239Y-80285355D01*
X103351940Y-80342722D01*
X103361747Y-80369117D01*
X103381250Y-80377402D01*
X103432769Y-80384605D01*
X103516308Y-80388840D01*
X103633395Y-80390225D01*
X103687396Y-80390260D01*
X103783258Y-80388984D01*
X103851025Y-80382139D01*
X103895562Y-80365191D01*
X103921732Y-80333607D01*
X103934402Y-80282853D01*
X103938437Y-80208395D01*
X103938700Y-80105699D01*
X103937807Y-80039798D01*
X103933761Y-79956168D01*
X103927038Y-79891768D01*
X103918287Y-79854557D01*
X103897873Y-79809755D01*
X103640364Y-79809755D01*
X103530985Y-79810851D01*
X103443254Y-79814645D01*
X103387401Y-79821273D01*
X103361747Y-79830863D01*
X103353690Y-79849384D01*
X103346363Y-79900294D01*
X103342051Y-79983340D01*
X103340639Y-80099990D01*
X102672624Y-80099990D01*
X102668227Y-79814152D01*
X102664896Y-79597689D01*
X103343366Y-79597689D01*
X103344574Y-79626108D01*
X103368716Y-79663651D01*
X103394293Y-79673567D01*
X103446434Y-79681005D01*
X103527140Y-79685266D01*
X103639670Y-79686624D01*
X103670129Y-79686559D01*
X103775290Y-79684580D01*
X103850406Y-79678858D01*
X103899559Y-79668076D01*
X103926829Y-79650915D01*
X103936301Y-79626057D01*
X103932055Y-79592182D01*
X103920222Y-79545037D01*
X103634828Y-79549868D01*
X103349434Y-79554699D01*
X103343366Y-79597689D01*
X102664896Y-79597689D01*
X102663423Y-79501929D01*
X101625612Y-79497069D01*
X101457290Y-79496401D01*
X101277081Y-79495963D01*
X101109556Y-79495844D01*
X100957931Y-79496034D01*
X100825419Y-79496518D01*
X100715232Y-79497286D01*
X100630584Y-79498324D01*
X100574689Y-79499621D01*
X100550759Y-79501165D01*
X100537997Y-79506799D01*
X100502592Y-79536396D01*
X100467282Y-79580292D01*
X100436006Y-79619894D01*
X100359423Y-79678315D01*
X100269486Y-79708340D01*
X100173230Y-79708238D01*
X100077689Y-79676274D01*
X100044529Y-79656315D01*
X99978237Y-79590373D01*
X99940884Y-79504791D01*
X99932983Y-79400550D01*
X99935141Y-79374979D01*
X99955242Y-79290146D01*
X99998370Y-79222540D01*
X100070511Y-79161764D01*
X100078598Y-79156338D01*
X100120592Y-79134566D01*
X100166589Y-79126101D01*
X100231838Y-79127724D01*
X100285699Y-79134253D01*
X100358880Y-79158539D01*
X100420031Y-79204884D01*
X100479116Y-79279398D01*
X100528742Y-79352685D01*
X101596083Y-79348152D01*
X102663423Y-79343619D01*
X102663921Y-79311266D01*
X103291527Y-79311266D01*
X103292735Y-79333710D01*
X103315511Y-79359952D01*
X103354219Y-79382854D01*
X103397861Y-79382515D01*
X103432238Y-79359425D01*
X103446179Y-79317234D01*
X103444295Y-79305256D01*
X103534130Y-79305256D01*
X103535879Y-79317234D01*
X103538143Y-79332736D01*
X103555238Y-79366486D01*
X103569183Y-79376881D01*
X103610281Y-79385160D01*
X103651977Y-79373284D01*
X103682470Y-79346277D01*
X103689530Y-79311266D01*
X103766458Y-79311266D01*
X103767666Y-79333710D01*
X103790441Y-79359952D01*
X103832830Y-79384462D01*
X103875763Y-79382942D01*
X103910172Y-79360841D01*
X103927232Y-79323849D01*
X103922454Y-79299644D01*
X104053035Y-79299644D01*
X104053069Y-79323849D01*
X104053190Y-79409813D01*
X104054161Y-79564374D01*
X104055131Y-79626057D01*
X104056111Y-79688346D01*
X104059142Y-79784578D01*
X104063356Y-79855918D01*
X104068855Y-79905217D01*
X104075740Y-79935323D01*
X104093865Y-79974464D01*
X104148606Y-80048852D01*
X104211008Y-80105699D01*
X104221292Y-80115068D01*
X104301298Y-80162414D01*
X104377475Y-80195067D01*
X104382360Y-80446559D01*
X104387246Y-80698051D01*
X104431344Y-80703204D01*
X104440314Y-80704100D01*
X104470578Y-80702608D01*
X104492020Y-80689378D01*
X104506119Y-80659727D01*
X104514357Y-80608972D01*
X104518214Y-80532431D01*
X104519171Y-80425421D01*
X104519171Y-80186212D01*
X104581900Y-80163529D01*
X104594285Y-80158692D01*
X104677386Y-80109277D01*
X104688449Y-80098734D01*
X104958922Y-80098734D01*
X104959536Y-80191073D01*
X104962001Y-80264475D01*
X104966926Y-80313692D01*
X104974912Y-80344478D01*
X104986563Y-80362584D01*
X104988002Y-80363962D01*
X105006515Y-80374900D01*
X105037830Y-80382438D01*
X105087537Y-80387135D01*
X105161226Y-80389546D01*
X105264486Y-80390225D01*
X105363380Y-80389286D01*
X105452672Y-80385555D01*
X105509663Y-80378871D01*
X105535875Y-80369117D01*
X105544159Y-80349615D01*
X105551362Y-80298096D01*
X105555597Y-80214556D01*
X105556983Y-80097469D01*
X105557045Y-80037953D01*
X105555720Y-79943584D01*
X105548445Y-79877067D01*
X105530398Y-79833542D01*
X105496756Y-79808149D01*
X105442697Y-79796029D01*
X105363399Y-79792321D01*
X105254038Y-79792165D01*
X105205189Y-79792146D01*
X105111792Y-79793593D01*
X105045595Y-79801060D01*
X105001921Y-79819405D01*
X104976094Y-79853487D01*
X104963436Y-79908163D01*
X104959271Y-79988293D01*
X104958922Y-80098734D01*
X104688449Y-80098734D01*
X104751259Y-80038878D01*
X104802987Y-79959421D01*
X104810369Y-79941384D01*
X104817764Y-79916102D01*
X104823541Y-79883549D01*
X104827900Y-79839738D01*
X104831040Y-79780682D01*
X104833160Y-79702394D01*
X104834325Y-79611593D01*
X104960268Y-79611593D01*
X104976810Y-79640666D01*
X104981330Y-79644211D01*
X105009422Y-79654717D01*
X105059775Y-79662558D01*
X105136691Y-79668241D01*
X105244469Y-79672275D01*
X105304237Y-79673721D01*
X105402114Y-79674530D01*
X105471529Y-79671642D01*
X105516942Y-79664061D01*
X105542812Y-79650792D01*
X105553600Y-79630837D01*
X105553766Y-79603202D01*
X105548188Y-79554699D01*
X105268664Y-79554699D01*
X105163406Y-79555084D01*
X105086278Y-79556618D01*
X105033712Y-79559847D01*
X105000363Y-79565316D01*
X104980884Y-79573569D01*
X104969932Y-79585152D01*
X104960268Y-79611593D01*
X104834325Y-79611593D01*
X104834462Y-79600888D01*
X104835143Y-79472176D01*
X104835405Y-79312271D01*
X104835407Y-79308981D01*
X104835407Y-79308439D01*
X104976512Y-79308439D01*
X104976660Y-79308981D01*
X104981725Y-79327563D01*
X105004153Y-79359952D01*
X105024764Y-79376060D01*
X105055667Y-79387594D01*
X105088976Y-79374548D01*
X105120824Y-79343098D01*
X105134822Y-79308439D01*
X105231567Y-79308439D01*
X105233221Y-79335432D01*
X105247515Y-79358075D01*
X105285836Y-79366505D01*
X105324730Y-79364664D01*
X105363971Y-79343043D01*
X105375397Y-79323833D01*
X105374290Y-79306454D01*
X105455104Y-79306454D01*
X105461291Y-79323833D01*
X105467809Y-79342144D01*
X105488688Y-79357264D01*
X105531174Y-79368591D01*
X105574183Y-79367014D01*
X105601576Y-79351414D01*
X105606358Y-79329083D01*
X105602010Y-79288780D01*
X105595918Y-79269934D01*
X105576418Y-79251137D01*
X105536166Y-79250202D01*
X105514627Y-79253883D01*
X105472399Y-79274762D01*
X105455104Y-79306454D01*
X105374290Y-79306454D01*
X105373240Y-79289972D01*
X105343511Y-79265246D01*
X105291215Y-79255669D01*
X105253189Y-79258193D01*
X105235173Y-79272594D01*
X105231567Y-79308439D01*
X105134822Y-79308439D01*
X105121776Y-79275130D01*
X105090326Y-79243281D01*
X105055667Y-79229284D01*
X105022358Y-79242330D01*
X104990509Y-79273779D01*
X104976512Y-79308439D01*
X104835407Y-79308439D01*
X104835271Y-79146151D01*
X104834666Y-79038692D01*
X104958922Y-79038692D01*
X104965421Y-79060365D01*
X104992945Y-79087945D01*
X104997346Y-79089699D01*
X105034557Y-79096160D01*
X105097554Y-79101384D01*
X105178827Y-79104879D01*
X105270868Y-79106153D01*
X105271799Y-79106153D01*
X105379008Y-79105176D01*
X105455924Y-79101479D01*
X105507362Y-79093877D01*
X105538140Y-79081184D01*
X105553075Y-79062218D01*
X105556983Y-79035793D01*
X105556862Y-79030017D01*
X105551475Y-79005635D01*
X105534636Y-78988188D01*
X105501604Y-78976560D01*
X105447640Y-78969635D01*
X105368003Y-78966298D01*
X105257952Y-78965433D01*
X105224990Y-78965484D01*
X105123810Y-78966868D01*
X105051727Y-78971021D01*
X105003968Y-78979110D01*
X104975761Y-78992306D01*
X104962336Y-79011777D01*
X104958922Y-79038692D01*
X104834666Y-79038692D01*
X104834531Y-79014629D01*
X104833026Y-78910617D01*
X104830599Y-78830316D01*
X104827090Y-78769926D01*
X104822339Y-78725649D01*
X104816186Y-78693685D01*
X104808473Y-78670235D01*
X104784507Y-78622635D01*
X104717761Y-78543273D01*
X104958922Y-78543273D01*
X104959079Y-78587059D01*
X104961068Y-78675136D01*
X104965845Y-78736504D01*
X104974046Y-78777187D01*
X104986304Y-78803209D01*
X104987461Y-78804848D01*
X105000383Y-78819984D01*
X105017897Y-78830382D01*
X105046121Y-78836926D01*
X105091172Y-78840504D01*
X105159167Y-78842001D01*
X105256223Y-78842303D01*
X105315606Y-78842389D01*
X105408802Y-78841214D01*
X105474328Y-78834177D01*
X105517042Y-78816396D01*
X105541806Y-78782991D01*
X105553477Y-78729080D01*
X105556916Y-78649782D01*
X105556983Y-78540216D01*
X105557066Y-78480494D01*
X105555819Y-78389359D01*
X105548630Y-78325257D01*
X105530630Y-78283445D01*
X105496952Y-78259180D01*
X105442728Y-78247719D01*
X105363089Y-78244321D01*
X105253167Y-78244242D01*
X105208085Y-78244205D01*
X105112965Y-78245332D01*
X105045746Y-78252134D01*
X105001593Y-78269525D01*
X104975670Y-78302419D01*
X104963142Y-78355733D01*
X104959171Y-78434379D01*
X104958922Y-78543273D01*
X104717761Y-78543273D01*
X104714632Y-78539553D01*
X104619026Y-78480342D01*
X104597574Y-78470895D01*
X104556912Y-78452187D01*
X104536761Y-78441682D01*
X104536615Y-78441543D01*
X104532517Y-78421115D01*
X104527871Y-78372839D01*
X104523235Y-78303746D01*
X104519171Y-78220866D01*
X104510376Y-78006777D01*
X104448811Y-78006777D01*
X104387246Y-78006777D01*
X104376368Y-78209062D01*
X104372248Y-78283662D01*
X104368167Y-78353405D01*
X104364988Y-78403193D01*
X104363175Y-78425437D01*
X104362220Y-78427729D01*
X104341000Y-78444584D01*
X104301419Y-78464364D01*
X104250568Y-78490228D01*
X104159892Y-78562768D01*
X104138547Y-78591831D01*
X104091842Y-78655423D01*
X104085396Y-78667762D01*
X104076013Y-78688651D01*
X104068644Y-78712461D01*
X104063045Y-78743225D01*
X104058975Y-78784975D01*
X104056189Y-78841742D01*
X104054445Y-78917561D01*
X104053500Y-79016463D01*
X104053445Y-79034429D01*
X104053111Y-79142479D01*
X104053035Y-79299644D01*
X103922454Y-79299644D01*
X103918114Y-79277656D01*
X103897431Y-79257179D01*
X103855641Y-79246702D01*
X103811653Y-79254731D01*
X103781009Y-79280897D01*
X103767467Y-79309161D01*
X103766458Y-79311266D01*
X103689530Y-79311266D01*
X103689955Y-79309161D01*
X103686761Y-79298024D01*
X103660973Y-79265825D01*
X103621881Y-79250175D01*
X103580420Y-79251347D01*
X103547525Y-79269616D01*
X103534130Y-79305256D01*
X103444295Y-79305256D01*
X103443061Y-79297408D01*
X103418251Y-79264102D01*
X103378891Y-79248106D01*
X103337371Y-79252634D01*
X103306078Y-79280897D01*
X103291527Y-79311266D01*
X102663921Y-79311266D01*
X102668227Y-79031396D01*
X102668268Y-79028713D01*
X103341432Y-79028713D01*
X103351416Y-79066576D01*
X103358788Y-79075394D01*
X103376360Y-79085131D01*
X103407080Y-79091983D01*
X103456456Y-79096647D01*
X103529997Y-79099818D01*
X103633209Y-79102193D01*
X103676998Y-79102912D01*
X103776642Y-79103228D01*
X103847577Y-79100250D01*
X103894528Y-79092928D01*
X103922217Y-79080216D01*
X103935366Y-79061066D01*
X103938700Y-79034429D01*
X103938552Y-79028391D01*
X103932633Y-79004267D01*
X103914696Y-78987157D01*
X103880122Y-78976085D01*
X103824291Y-78970076D01*
X103742584Y-78968156D01*
X103630382Y-78969349D01*
X103559629Y-78970871D01*
X103477029Y-78973733D01*
X103420446Y-78977870D01*
X103384342Y-78983990D01*
X103363178Y-78992801D01*
X103351414Y-79005011D01*
X103341432Y-79028713D01*
X102668268Y-79028713D01*
X102673030Y-78719173D01*
X101600326Y-78719173D01*
X101577001Y-78719174D01*
X101348683Y-78719353D01*
X101153170Y-78719864D01*
X100988297Y-78720751D01*
X100851893Y-78722057D01*
X100741793Y-78723828D01*
X100655827Y-78726105D01*
X100591827Y-78728933D01*
X100547627Y-78732356D01*
X100521057Y-78736417D01*
X100509950Y-78741160D01*
X100497300Y-78756776D01*
X100428689Y-78834997D01*
X100369466Y-78887131D01*
X100312733Y-78917021D01*
X100251589Y-78928511D01*
X100179134Y-78925445D01*
X100161785Y-78922998D01*
X100071579Y-78891667D01*
X100000858Y-78834381D01*
X99952628Y-78755741D01*
X99929897Y-78660349D01*
X99935670Y-78552806D01*
X99937930Y-78542037D01*
X99972013Y-78462899D01*
X100028704Y-78402975D01*
X100101388Y-78363035D01*
X100183454Y-78343852D01*
X100268288Y-78346196D01*
X100349276Y-78370839D01*
X100419805Y-78418551D01*
X100473262Y-78490106D01*
X100481273Y-78504739D01*
X100510144Y-78545697D01*
X100535719Y-78567488D01*
X100549619Y-78569961D01*
X100595724Y-78573334D01*
X100666072Y-78576026D01*
X100754062Y-78577808D01*
X100853089Y-78578453D01*
X100867819Y-78578445D01*
X100976716Y-78577640D01*
X101054734Y-78575310D01*
X101105710Y-78571159D01*
X101133481Y-78564891D01*
X101141886Y-78556211D01*
X101131838Y-78539632D01*
X101100351Y-78501941D01*
X101051316Y-78448048D01*
X100988720Y-78382321D01*
X100916544Y-78309128D01*
X100691202Y-78084286D01*
X100612434Y-78105354D01*
X100597941Y-78108900D01*
X100495880Y-78115661D01*
X100400912Y-78091788D01*
X100319648Y-78039947D01*
X100258701Y-77962802D01*
X100253532Y-77952455D01*
X100233733Y-77879582D01*
X100230887Y-77795331D01*
X100244317Y-77714114D01*
X100273349Y-77650342D01*
X100308792Y-77613613D01*
X100377220Y-77568293D01*
X100454999Y-77535610D01*
X100527195Y-77523051D01*
X100565018Y-77526176D01*
X100652171Y-77555297D01*
X100729464Y-77609565D01*
X100786022Y-77682289D01*
X100801219Y-77712449D01*
X100816800Y-77757074D01*
X100820939Y-77805452D01*
X100816061Y-77872984D01*
X100804333Y-77985452D01*
X101091642Y-78273157D01*
X101378951Y-78560863D01*
X102025585Y-78560863D01*
X102672218Y-78560863D01*
X102672218Y-78543273D01*
X103340639Y-78543273D01*
X103340639Y-78545000D01*
X103341375Y-78646428D01*
X103343930Y-78718445D01*
X103348881Y-78766713D01*
X103356806Y-78796897D01*
X103368281Y-78814662D01*
X103381109Y-78822132D01*
X103426978Y-78833182D01*
X103494740Y-78840699D01*
X103576265Y-78844708D01*
X103663421Y-78845233D01*
X103748080Y-78842301D01*
X103822110Y-78835935D01*
X103877382Y-78826161D01*
X103905764Y-78813004D01*
X103913653Y-78795002D01*
X103922085Y-78745185D01*
X103926838Y-78674811D01*
X103928134Y-78591831D01*
X103926195Y-78504200D01*
X103921242Y-78419871D01*
X103913498Y-78346797D01*
X103903183Y-78292932D01*
X103890520Y-78266230D01*
X103874915Y-78259262D01*
X103825112Y-78250824D01*
X103743621Y-78245864D01*
X103628769Y-78244242D01*
X103541329Y-78244803D01*
X103467279Y-78247225D01*
X103417616Y-78252136D01*
X103386547Y-78260151D01*
X103368281Y-78271884D01*
X103368085Y-78272081D01*
X103356666Y-78289986D01*
X103348789Y-78320393D01*
X103343877Y-78368968D01*
X103341352Y-78441373D01*
X103340639Y-78543273D01*
X102672218Y-78543273D01*
X102672218Y-78253037D01*
X102672218Y-77945212D01*
X102148786Y-77945212D01*
X101625353Y-77945212D01*
X101176936Y-77496373D01*
X100728520Y-77047534D01*
X100629426Y-77058662D01*
X100593756Y-77061656D01*
X100496382Y-77055180D01*
X100415842Y-77022551D01*
X100344532Y-76961166D01*
X100293027Y-76885592D01*
X100266546Y-76792926D01*
X100273901Y-76696253D01*
X100315416Y-76599575D01*
X100339267Y-76567686D01*
X100406774Y-76515304D01*
X100489423Y-76485804D01*
X100579265Y-76479223D01*
X100668346Y-76495595D01*
X100748714Y-76534958D01*
X100812419Y-76597346D01*
X100832281Y-76630355D01*
X100844145Y-76667969D01*
X100849397Y-76719800D01*
X100850007Y-76796279D01*
X100848364Y-76940213D01*
X101281771Y-77372352D01*
X101715178Y-77804491D01*
X102203635Y-77804491D01*
X102692092Y-77804491D01*
X102778900Y-77715369D01*
X102865708Y-77626246D01*
X102865708Y-77421428D01*
X102865708Y-77216611D01*
X102333610Y-76692621D01*
X101801512Y-76168631D01*
X101713562Y-76178648D01*
X101618631Y-76176805D01*
X101527836Y-76144663D01*
X101453328Y-76081759D01*
X101411396Y-76019370D01*
X101381170Y-75930044D01*
X101379694Y-75841042D01*
X101404157Y-75757830D01*
X101451748Y-75685871D01*
X101519656Y-75630630D01*
X101605069Y-75597573D01*
X101705178Y-75592162D01*
X101760777Y-75602225D01*
X101847470Y-75641880D01*
X101912587Y-75705231D01*
X101953381Y-75787804D01*
X101967109Y-75885127D01*
X101951025Y-75992727D01*
X101933432Y-76054069D01*
X102469545Y-76590672D01*
X103005659Y-77127275D01*
X103010441Y-77373536D01*
X103015224Y-77619796D01*
X103292267Y-77624640D01*
X103569310Y-77629484D01*
X103569310Y-76776279D01*
X103569310Y-75923073D01*
X103498259Y-75886826D01*
X103458384Y-75861898D01*
X103394751Y-75794197D01*
X103356598Y-75709880D01*
X103346629Y-75616501D01*
X103367546Y-75521612D01*
X103391748Y-75473434D01*
X103454060Y-75400382D01*
X103533185Y-75351592D01*
X103622262Y-75330638D01*
X103714427Y-75341089D01*
X103726867Y-75344957D01*
X103822532Y-75388811D01*
X103888405Y-75450205D01*
X103926450Y-75531725D01*
X103938634Y-75635956D01*
X103938623Y-75638547D01*
X103923128Y-75732778D01*
X103877068Y-75812235D01*
X103798667Y-75880017D01*
X103727620Y-75927033D01*
X103727620Y-76777812D01*
X103727620Y-77628591D01*
X104044240Y-77628591D01*
X104360861Y-77628591D01*
X104360861Y-76479391D01*
X104360861Y-75330192D01*
X104295463Y-75287667D01*
X104280959Y-75277761D01*
X104206297Y-75205339D01*
X104161497Y-75119091D01*
X104148324Y-75024055D01*
X104168542Y-74925269D01*
X104185572Y-74888629D01*
X104242138Y-74818088D01*
X104316340Y-74769727D01*
X104401221Y-74744121D01*
X104489824Y-74741845D01*
X104575193Y-74763471D01*
X104650371Y-74809575D01*
X104708402Y-74880729D01*
X104723860Y-74913527D01*
X104744937Y-74999878D01*
X104744579Y-75088456D01*
X104722088Y-75164766D01*
X104708102Y-75187574D01*
X104661935Y-75241034D01*
X104606285Y-75287650D01*
X104554446Y-75315472D01*
X104548504Y-75317760D01*
X104542319Y-75322671D01*
X104537070Y-75332343D01*
X104532682Y-75349314D01*
X104529077Y-75376116D01*
X104526177Y-75415286D01*
X104523907Y-75469357D01*
X104522189Y-75540864D01*
X104520946Y-75632344D01*
X104520102Y-75746329D01*
X104519579Y-75885355D01*
X104519301Y-76051957D01*
X104519191Y-76248669D01*
X104519171Y-76478026D01*
X104519171Y-77629385D01*
X104840189Y-77624590D01*
X105161207Y-77619796D01*
X105165772Y-76774132D01*
X105170336Y-75928469D01*
X105104772Y-75885836D01*
X105040458Y-75832333D01*
X104980939Y-75751920D01*
X104948455Y-75664579D01*
X104946087Y-75618001D01*
X104963168Y-75538020D01*
X105000735Y-75462078D01*
X105053158Y-75404173D01*
X105108456Y-75371180D01*
X105181964Y-75343095D01*
X105254667Y-75328001D01*
X105312806Y-75329836D01*
X105381906Y-75357620D01*
X105456707Y-75415566D01*
X105513134Y-75491883D01*
X105545712Y-75578727D01*
X105548965Y-75668253D01*
X105545701Y-75685282D01*
X105511395Y-75768032D01*
X105452778Y-75842572D01*
X105378471Y-75897324D01*
X105328312Y-75923262D01*
X105328312Y-76775926D01*
X105328312Y-77628591D01*
X105600958Y-77628591D01*
X105873603Y-77628591D01*
X105873603Y-77386624D01*
X105873603Y-77144656D01*
X106425901Y-76592567D01*
X106476403Y-76542078D01*
X106599396Y-76418978D01*
X106700328Y-76317513D01*
X106781286Y-76235326D01*
X106844356Y-76170060D01*
X106891625Y-76119360D01*
X106925179Y-76080868D01*
X106947106Y-76052228D01*
X106959492Y-76031083D01*
X106964424Y-76015076D01*
X106963987Y-76001851D01*
X106960270Y-75989050D01*
X106955490Y-75970607D01*
X106949345Y-75912919D01*
X106950808Y-75849525D01*
X106951397Y-75843857D01*
X106977968Y-75746492D01*
X107031612Y-75669957D01*
X107109070Y-75617519D01*
X107207084Y-75592446D01*
X107305636Y-75594305D01*
X107395551Y-75622868D01*
X107464462Y-75678072D01*
X107513192Y-75755657D01*
X107536999Y-75845198D01*
X107532736Y-75934111D01*
X107503381Y-76016896D01*
X107451910Y-76088055D01*
X107381299Y-76142088D01*
X107294525Y-76173494D01*
X107194564Y-76176774D01*
X107099528Y-76165416D01*
X106565721Y-76699007D01*
X106031913Y-77232599D01*
X106031913Y-77429423D01*
X106031913Y-77626246D01*
X106118722Y-77715369D01*
X106205530Y-77804491D01*
X106702874Y-77804491D01*
X107200219Y-77804491D01*
X107637431Y-77368276D01*
X108074644Y-76932061D01*
X108054503Y-76852077D01*
X108045111Y-76777114D01*
X108060333Y-76681218D01*
X108103825Y-76596068D01*
X108171841Y-76528343D01*
X108260631Y-76484724D01*
X108268046Y-76482589D01*
X108362718Y-76471128D01*
X108446539Y-76488181D01*
X108517430Y-76528542D01*
X108573310Y-76587003D01*
X108612101Y-76658358D01*
X108631723Y-76737400D01*
X108630096Y-76818922D01*
X108605141Y-76897717D01*
X108554778Y-76968578D01*
X108476927Y-77026299D01*
X108447635Y-77041152D01*
X108402130Y-77057426D01*
X108353270Y-77062078D01*
X108285445Y-77057667D01*
X108173117Y-77046651D01*
X107725138Y-77495931D01*
X107277159Y-77945212D01*
X106751282Y-77945212D01*
X106225404Y-77945212D01*
X106225404Y-78253037D01*
X106225404Y-78480494D01*
X106225404Y-78560863D01*
G37*
%TD*%
%LPC*%
D14*
%TO.C,AN14*%
X130937000Y-70104000D03*
D15*
X129437000Y-70104000D03*
X127937000Y-70104000D03*
%TD*%
D16*
%TO.C,JR1*%
X93980000Y-140716000D03*
D17*
X91440000Y-140716000D03*
X93980000Y-138176000D03*
X91440000Y-138176000D03*
X93980000Y-135636000D03*
X91440000Y-135636000D03*
X93980000Y-133096000D03*
X91440000Y-133096000D03*
X93980000Y-130556000D03*
X91440000Y-130556000D03*
X93980000Y-128016000D03*
X91440000Y-128016000D03*
X93980000Y-125476000D03*
X91440000Y-125476000D03*
X93980000Y-122936000D03*
X91440000Y-122936000D03*
%TD*%
D14*
%TO.C,AN10*%
X123444000Y-70104000D03*
D15*
X121944000Y-70104000D03*
X120444000Y-70104000D03*
%TD*%
D14*
%TO.C,AN8*%
X138430000Y-65024000D03*
D15*
X136930000Y-65024000D03*
X135430000Y-65024000D03*
%TD*%
D14*
%TO.C,AN9*%
X123444000Y-65024000D03*
D15*
X121944000Y-65024000D03*
X120444000Y-65024000D03*
%TD*%
D14*
%TO.C,AN5*%
X138430000Y-80137000D03*
D15*
X136930000Y-80137000D03*
X135430000Y-80137000D03*
%TD*%
D16*
%TO.C,JR6*%
X143510000Y-140716000D03*
D17*
X140970000Y-140716000D03*
X143510000Y-138176000D03*
X140970000Y-138176000D03*
X143510000Y-135636000D03*
X140970000Y-135636000D03*
X143510000Y-133096000D03*
X140970000Y-133096000D03*
X143510000Y-130556000D03*
X140970000Y-130556000D03*
X143510000Y-128016000D03*
X140970000Y-128016000D03*
X143510000Y-125476000D03*
X140970000Y-125476000D03*
X143510000Y-122936000D03*
X140970000Y-122936000D03*
%TD*%
D16*
%TO.C,JR3*%
X113792000Y-140716000D03*
D17*
X111252000Y-140716000D03*
X113792000Y-138176000D03*
X111252000Y-138176000D03*
X113792000Y-135636000D03*
X111252000Y-135636000D03*
X113792000Y-133096000D03*
X111252000Y-133096000D03*
X113792000Y-130556000D03*
X111252000Y-130556000D03*
X113792000Y-128016000D03*
X111252000Y-128016000D03*
X113792000Y-125476000D03*
X111252000Y-125476000D03*
X113792000Y-122936000D03*
X111252000Y-122936000D03*
%TD*%
D14*
%TO.C,AN1*%
X146026000Y-80137000D03*
D15*
X144526000Y-80137000D03*
X143026000Y-80137000D03*
%TD*%
D14*
%TO.C,AN13*%
X123444000Y-80137000D03*
D15*
X121944000Y-80137000D03*
X120444000Y-80137000D03*
%TD*%
D18*
%TO.C,H4*%
X186309000Y-144907000D03*
D19*
X186309000Y-144907000D03*
%TD*%
D14*
%TO.C,AN11*%
X123444000Y-75184000D03*
D15*
X121944000Y-75184000D03*
X120444000Y-75184000D03*
%TD*%
D14*
%TO.C,JSPI7*%
X160722000Y-63569000D03*
D15*
X159222000Y-63569000D03*
X157722000Y-63569000D03*
X156222000Y-63569000D03*
X154722000Y-63569000D03*
X153222000Y-63569000D03*
%TD*%
D20*
%TO.C,JSPI2*%
X157295000Y-79562000D03*
D21*
X157295000Y-81062000D03*
X157295000Y-82562000D03*
X157295000Y-84062000D03*
X157295000Y-85562000D03*
X157295000Y-87062000D03*
%TD*%
D14*
%TO.C,AN3*%
X146026000Y-70104000D03*
D15*
X144526000Y-70104000D03*
X143026000Y-70104000D03*
%TD*%
D14*
%TO.C,AN12*%
X130937000Y-65024000D03*
D15*
X129437000Y-65024000D03*
X127937000Y-65024000D03*
%TD*%
D14*
%TO.C,AN2*%
X146026000Y-75184000D03*
D15*
X144526000Y-75184000D03*
X143026000Y-75184000D03*
%TD*%
D20*
%TO.C,JSPI4*%
X152469000Y-67751000D03*
D21*
X152469000Y-69251000D03*
X152469000Y-70751000D03*
X152469000Y-72251000D03*
X152469000Y-73751000D03*
X152469000Y-75251000D03*
%TD*%
D16*
%TO.C,J28*%
X169037000Y-73242714D03*
D17*
X169037000Y-70702714D03*
X171577000Y-73242714D03*
X171577000Y-70702714D03*
X174117000Y-73242714D03*
X174117000Y-70702714D03*
X176657000Y-73242714D03*
X176657000Y-70702714D03*
X179197000Y-73242714D03*
X179197000Y-70702714D03*
X181737000Y-73242714D03*
X181737000Y-70702714D03*
X184277000Y-73242714D03*
X184277000Y-70702714D03*
X186817000Y-73242714D03*
X186817000Y-70702714D03*
%TD*%
D14*
%TO.C,AN7*%
X138430000Y-70104000D03*
D15*
X136930000Y-70104000D03*
X135430000Y-70104000D03*
%TD*%
D16*
%TO.C,JR4*%
X123698000Y-140700210D03*
D17*
X121158000Y-140700210D03*
X123698000Y-138160210D03*
X121158000Y-138160210D03*
X123698000Y-135620210D03*
X121158000Y-135620210D03*
X123698000Y-133080210D03*
X121158000Y-133080210D03*
X123698000Y-130540210D03*
X121158000Y-130540210D03*
X123698000Y-128000210D03*
X121158000Y-128000210D03*
X123698000Y-125460210D03*
X121158000Y-125460210D03*
X123698000Y-122920210D03*
X121158000Y-122920210D03*
%TD*%
D18*
%TO.C,H2*%
X186436000Y-58674000D03*
D19*
X186436000Y-58674000D03*
%TD*%
D22*
%TO.C,J2*%
X103409000Y-66098500D03*
D23*
X97409000Y-66098500D03*
D24*
X100409000Y-70798500D03*
%TD*%
D16*
%TO.C,J27*%
X169037000Y-88410142D03*
D17*
X169037000Y-85870142D03*
X171577000Y-88410142D03*
X171577000Y-85870142D03*
X174117000Y-88410142D03*
X174117000Y-85870142D03*
X176657000Y-88410142D03*
X176657000Y-85870142D03*
X179197000Y-88410142D03*
X179197000Y-85870142D03*
X181737000Y-88410142D03*
X181737000Y-85870142D03*
X184277000Y-88410142D03*
X184277000Y-85870142D03*
X186817000Y-88410142D03*
X186817000Y-85870142D03*
%TD*%
D16*
%TO.C,J29*%
X169037000Y-65659000D03*
D17*
X169037000Y-63119000D03*
X171577000Y-65659000D03*
X171577000Y-63119000D03*
X174117000Y-65659000D03*
X174117000Y-63119000D03*
X176657000Y-65659000D03*
X176657000Y-63119000D03*
X179197000Y-65659000D03*
X179197000Y-63119000D03*
X181737000Y-65659000D03*
X181737000Y-63119000D03*
X184277000Y-65659000D03*
X184277000Y-63119000D03*
X186817000Y-65659000D03*
X186817000Y-63119000D03*
%TD*%
D20*
%TO.C,J30*%
X147135000Y-96810000D03*
D21*
X147135000Y-98310000D03*
X147135000Y-99810000D03*
X147135000Y-101310000D03*
%TD*%
D16*
%TO.C,J35*%
X169037000Y-95993856D03*
D17*
X169037000Y-93453856D03*
X171577000Y-95993856D03*
X171577000Y-93453856D03*
X174117000Y-95993856D03*
X174117000Y-93453856D03*
X176657000Y-95993856D03*
X176657000Y-93453856D03*
X179197000Y-95993856D03*
X179197000Y-93453856D03*
X181737000Y-95993856D03*
X181737000Y-93453856D03*
X184277000Y-95993856D03*
X184277000Y-93453856D03*
X186817000Y-95993856D03*
X186817000Y-93453856D03*
%TD*%
D16*
%TO.C,J33*%
X168910000Y-118745000D03*
D17*
X168910000Y-116205000D03*
X171450000Y-118745000D03*
X171450000Y-116205000D03*
X173990000Y-118745000D03*
X173990000Y-116205000D03*
X176530000Y-118745000D03*
X176530000Y-116205000D03*
X179070000Y-118745000D03*
X179070000Y-116205000D03*
X181610000Y-118745000D03*
X181610000Y-116205000D03*
X184150000Y-118745000D03*
X184150000Y-116205000D03*
X186690000Y-118745000D03*
X186690000Y-116205000D03*
%TD*%
D18*
%TO.C,H3*%
X91694000Y-144907000D03*
D19*
X91694000Y-144907000D03*
%TD*%
D14*
%TO.C,AN16*%
X130937000Y-80137000D03*
D15*
X129437000Y-80137000D03*
X127937000Y-80137000D03*
%TD*%
D16*
%TO.C,JR7*%
X153416000Y-140716000D03*
D17*
X150876000Y-140716000D03*
X153416000Y-138176000D03*
X150876000Y-138176000D03*
X153416000Y-135636000D03*
X150876000Y-135636000D03*
X153416000Y-133096000D03*
X150876000Y-133096000D03*
X153416000Y-130556000D03*
X150876000Y-130556000D03*
X153416000Y-128016000D03*
X150876000Y-128016000D03*
X153416000Y-125476000D03*
X150876000Y-125476000D03*
X153416000Y-122936000D03*
X150876000Y-122936000D03*
%TD*%
D16*
%TO.C,JR2*%
X103886000Y-140716000D03*
D17*
X101346000Y-140716000D03*
X103886000Y-138176000D03*
X101346000Y-138176000D03*
X103886000Y-135636000D03*
X101346000Y-135636000D03*
X103886000Y-133096000D03*
X101346000Y-133096000D03*
X103886000Y-130556000D03*
X101346000Y-130556000D03*
X103886000Y-128016000D03*
X101346000Y-128016000D03*
X103886000Y-125476000D03*
X101346000Y-125476000D03*
X103886000Y-122936000D03*
X101346000Y-122936000D03*
%TD*%
D16*
%TO.C,J26*%
X169037000Y-80826428D03*
D17*
X169037000Y-78286428D03*
X171577000Y-80826428D03*
X171577000Y-78286428D03*
X174117000Y-80826428D03*
X174117000Y-78286428D03*
X176657000Y-80826428D03*
X176657000Y-78286428D03*
X179197000Y-80826428D03*
X179197000Y-78286428D03*
X181737000Y-80826428D03*
X181737000Y-78286428D03*
X184277000Y-80826428D03*
X184277000Y-78286428D03*
X186817000Y-80826428D03*
X186817000Y-78286428D03*
%TD*%
D14*
%TO.C,AN4*%
X146026000Y-65024000D03*
D15*
X144526000Y-65024000D03*
X143026000Y-65024000D03*
%TD*%
D16*
%TO.C,J34*%
X169037000Y-111161284D03*
D17*
X169037000Y-108621284D03*
X171577000Y-111161284D03*
X171577000Y-108621284D03*
X174117000Y-111161284D03*
X174117000Y-108621284D03*
X176657000Y-111161284D03*
X176657000Y-108621284D03*
X179197000Y-111161284D03*
X179197000Y-108621284D03*
X181737000Y-111161284D03*
X181737000Y-108621284D03*
X184277000Y-111161284D03*
X184277000Y-108621284D03*
X186817000Y-111161284D03*
X186817000Y-108621284D03*
%TD*%
D16*
%TO.C,J3*%
X91059000Y-114554000D03*
D25*
X93599000Y-114554000D03*
X96139000Y-114554000D03*
X98679000Y-114554000D03*
X101219000Y-114554000D03*
X103759000Y-114554000D03*
X106299000Y-114554000D03*
X108839000Y-114554000D03*
X111379000Y-114554000D03*
X113919000Y-114554000D03*
X116459000Y-114554000D03*
X118999000Y-114554000D03*
X121539000Y-114554000D03*
X124079000Y-114554000D03*
X126619000Y-114554000D03*
X129159000Y-114554000D03*
X131699000Y-114554000D03*
X134239000Y-114554000D03*
X136779000Y-114554000D03*
X139319000Y-114554000D03*
%TD*%
D16*
%TO.C,J32*%
X169037000Y-103577570D03*
D17*
X169037000Y-101037570D03*
X171577000Y-103577570D03*
X171577000Y-101037570D03*
X174117000Y-103577570D03*
X174117000Y-101037570D03*
X176657000Y-103577570D03*
X176657000Y-101037570D03*
X179197000Y-103577570D03*
X179197000Y-101037570D03*
X181737000Y-103577570D03*
X181737000Y-101037570D03*
X184277000Y-103577570D03*
X184277000Y-101037570D03*
X186817000Y-103577570D03*
X186817000Y-101037570D03*
%TD*%
D16*
%TO.C,JR8*%
X163228000Y-140716000D03*
D17*
X160688000Y-140716000D03*
X163228000Y-138176000D03*
X160688000Y-138176000D03*
X163228000Y-135636000D03*
X160688000Y-135636000D03*
X163228000Y-133096000D03*
X160688000Y-133096000D03*
X163228000Y-130556000D03*
X160688000Y-130556000D03*
X163228000Y-128016000D03*
X160688000Y-128016000D03*
X163228000Y-125476000D03*
X160688000Y-125476000D03*
X163228000Y-122936000D03*
X160688000Y-122936000D03*
%TD*%
D18*
%TO.C,H1*%
X91694000Y-58801000D03*
D19*
X91694000Y-58801000D03*
%TD*%
D16*
%TO.C,J1*%
X109235000Y-63119000D03*
D25*
X111775000Y-63119000D03*
X114315000Y-63119000D03*
%TD*%
D20*
%TO.C,JSPI5*%
X157295000Y-67751000D03*
D21*
X157295000Y-69251000D03*
X157295000Y-70751000D03*
X157295000Y-72251000D03*
X157295000Y-73751000D03*
X157295000Y-75251000D03*
%TD*%
D20*
%TO.C,J31*%
X147135000Y-109891000D03*
D21*
X147135000Y-111391000D03*
X147135000Y-112891000D03*
X147135000Y-114391000D03*
%TD*%
D20*
%TO.C,JSPI1*%
X152469000Y-79562000D03*
D21*
X152469000Y-81062000D03*
X152469000Y-82562000D03*
X152469000Y-84062000D03*
X152469000Y-85562000D03*
X152469000Y-87062000D03*
%TD*%
D14*
%TO.C,AN15*%
X130937000Y-75184000D03*
D15*
X129437000Y-75184000D03*
X127937000Y-75184000D03*
%TD*%
D20*
%TO.C,JSPI6*%
X162121000Y-67751000D03*
D21*
X162121000Y-69251000D03*
X162121000Y-70751000D03*
X162121000Y-72251000D03*
X162121000Y-73751000D03*
X162121000Y-75251000D03*
%TD*%
D16*
%TO.C,JR5*%
X133604000Y-140716000D03*
D17*
X131064000Y-140716000D03*
X133604000Y-138176000D03*
X131064000Y-138176000D03*
X133604000Y-135636000D03*
X131064000Y-135636000D03*
X133604000Y-133096000D03*
X131064000Y-133096000D03*
X133604000Y-130556000D03*
X131064000Y-130556000D03*
X133604000Y-128016000D03*
X131064000Y-128016000D03*
X133604000Y-125476000D03*
X131064000Y-125476000D03*
X133604000Y-122936000D03*
X131064000Y-122936000D03*
%TD*%
D20*
%TO.C,JSPI3*%
X162121000Y-79562000D03*
D21*
X162121000Y-81062000D03*
X162121000Y-82562000D03*
X162121000Y-84062000D03*
X162121000Y-85562000D03*
X162121000Y-87062000D03*
%TD*%
D14*
%TO.C,AN6*%
X138430000Y-75184000D03*
D15*
X136930000Y-75184000D03*
X135430000Y-75184000D03*
%TD*%
D16*
%TO.C,J4*%
X139319000Y-96774000D03*
D25*
X136779000Y-96774000D03*
X134239000Y-96774000D03*
X131699000Y-96774000D03*
X129159000Y-96774000D03*
X126619000Y-96774000D03*
X124079000Y-96774000D03*
X121539000Y-96774000D03*
X118999000Y-96774000D03*
X116459000Y-96774000D03*
X113919000Y-96774000D03*
X111379000Y-96774000D03*
X108839000Y-96774000D03*
X106299000Y-96774000D03*
X103759000Y-96774000D03*
X101219000Y-96774000D03*
X98679000Y-96774000D03*
X96139000Y-96774000D03*
X93599000Y-96774000D03*
X91059000Y-96774000D03*
%TD*%
D26*
%TO.C,TP1*%
X129717800Y-101346000D03*
%TD*%
%TO.C,TP4*%
X93294200Y-92964000D03*
%TD*%
%TO.C,TP2*%
X103759000Y-100380800D03*
%TD*%
%TO.C,TP3*%
X102133400Y-92913200D03*
%TD*%
%LPD*%
M02*
