%TF.GenerationSoftware,KiCad,Pcbnew,9.0.3*%
%TF.CreationDate,2025-07-20T16:41:56-03:00*%
%TF.ProjectId,pi_controller,70695f63-6f6e-4747-926f-6c6c65722e6b,1.0*%
%TF.SameCoordinates,Original*%
%TF.FileFunction,Soldermask,Bot*%
%TF.FilePolarity,Negative*%
%FSLAX46Y46*%
G04 Gerber Fmt 4.6, Leading zero omitted, Abs format (unit mm)*
G04 Created by KiCad (PCBNEW 9.0.3) date 2025-07-20 16:41:56*
%MOMM*%
%LPD*%
G01*
G04 APERTURE LIST*
G04 Aperture macros list*
%AMRoundRect*
0 Rectangle with rounded corners*
0 $1 Rounding radius*
0 $2 $3 $4 $5 $6 $7 $8 $9 X,Y pos of 4 corners*
0 Add a 4 corners polygon primitive as box body*
4,1,4,$2,$3,$4,$5,$6,$7,$8,$9,$2,$3,0*
0 Add four circle primitives for the rounded corners*
1,1,$1+$1,$2,$3*
1,1,$1+$1,$4,$5*
1,1,$1+$1,$6,$7*
1,1,$1+$1,$8,$9*
0 Add four rect primitives between the rounded corners*
20,1,$1+$1,$2,$3,$4,$5,0*
20,1,$1+$1,$4,$5,$6,$7,0*
20,1,$1+$1,$6,$7,$8,$9,0*
20,1,$1+$1,$8,$9,$2,$3,0*%
%AMFreePoly0*
4,1,37,0.603843,0.796157,0.639018,0.796157,0.711114,0.766294,0.766294,0.711114,0.796157,0.639018,0.796157,0.603843,0.800000,0.600000,0.800000,-0.600000,0.796157,-0.603843,0.796157,-0.639018,0.766294,-0.711114,0.711114,-0.766294,0.639018,-0.796157,0.603843,-0.796157,0.600000,-0.800000,0.000000,-0.800000,0.000000,-0.796148,-0.078414,-0.796148,-0.232228,-0.765552,-0.377117,-0.705537,
-0.507515,-0.618408,-0.618408,-0.507515,-0.705537,-0.377117,-0.765552,-0.232228,-0.796148,-0.078414,-0.796148,0.078414,-0.765552,0.232228,-0.705537,0.377117,-0.618408,0.507515,-0.507515,0.618408,-0.377117,0.705537,-0.232228,0.765552,-0.078414,0.796148,0.000000,0.796148,0.000000,0.800000,0.600000,0.800000,0.603843,0.796157,0.603843,0.796157,$1*%
%AMFreePoly1*
4,1,37,0.000000,0.796148,0.078414,0.796148,0.232228,0.765552,0.377117,0.705537,0.507515,0.618408,0.618408,0.507515,0.705537,0.377117,0.765552,0.232228,0.796148,0.078414,0.796148,-0.078414,0.765552,-0.232228,0.705537,-0.377117,0.618408,-0.507515,0.507515,-0.618408,0.377117,-0.705537,0.232228,-0.765552,0.078414,-0.796148,0.000000,-0.796148,0.000000,-0.800000,-0.600000,-0.800000,
-0.603843,-0.796157,-0.639018,-0.796157,-0.711114,-0.766294,-0.766294,-0.711114,-0.796157,-0.639018,-0.796157,-0.603843,-0.800000,-0.600000,-0.800000,0.600000,-0.796157,0.603843,-0.796157,0.639018,-0.766294,0.711114,-0.711114,0.766294,-0.639018,0.796157,-0.603843,0.796157,-0.600000,0.800000,0.000000,0.800000,0.000000,0.796148,0.000000,0.796148,$1*%
G04 Aperture macros list end*
%ADD10RoundRect,0.200000X0.600000X-0.600000X0.600000X0.600000X-0.600000X0.600000X-0.600000X-0.600000X0*%
%ADD11C,1.600000*%
%ADD12FreePoly0,90.000000*%
%ADD13FreePoly1,90.000000*%
%ADD14R,3.500000X3.500000*%
%ADD15RoundRect,0.750000X-0.750000X-1.000000X0.750000X-1.000000X0.750000X1.000000X-0.750000X1.000000X0*%
%ADD16RoundRect,0.875000X-0.875000X-0.875000X0.875000X-0.875000X0.875000X0.875000X-0.875000X0.875000X0*%
%ADD17R,1.700000X1.700000*%
%ADD18C,1.700000*%
%ADD19O,1.700000X1.700000*%
%ADD20RoundRect,0.250000X0.265000X0.615000X-0.265000X0.615000X-0.265000X-0.615000X0.265000X-0.615000X0*%
%ADD21O,1.030000X1.730000*%
%ADD22RoundRect,0.250000X-0.615000X0.265000X-0.615000X-0.265000X0.615000X-0.265000X0.615000X0.265000X0*%
%ADD23O,1.730000X1.030000*%
%ADD24C,2.600000*%
%ADD25C,3.800000*%
%ADD26C,4.000000*%
G04 APERTURE END LIST*
D10*
%TO.C,U4*%
X91059000Y-114554000D03*
D11*
X93599000Y-114554000D03*
D12*
X96139000Y-114554000D03*
D11*
X98679000Y-114554000D03*
X101219000Y-114554000D03*
X103759000Y-114554000D03*
X106299000Y-114554000D03*
D12*
X108839000Y-114554000D03*
D11*
X111379000Y-114554000D03*
X113919000Y-114554000D03*
X116459000Y-114554000D03*
X118999000Y-114554000D03*
D12*
X121539000Y-114554000D03*
D11*
X124079000Y-114554000D03*
X126619000Y-114554000D03*
X129159000Y-114554000D03*
X131699000Y-114554000D03*
D12*
X134239000Y-114554000D03*
D11*
X136779000Y-114554000D03*
X139319000Y-114554000D03*
X139319000Y-96774000D03*
X136779000Y-96774000D03*
D13*
X134239000Y-96774000D03*
D11*
X131699000Y-96774000D03*
X129159000Y-96774000D03*
X126619000Y-96774000D03*
X124079000Y-96774000D03*
D13*
X121539000Y-96774000D03*
D11*
X118999000Y-96774000D03*
X116459000Y-96774000D03*
X113919000Y-96774000D03*
X111379000Y-96774000D03*
D13*
X108839000Y-96774000D03*
D11*
X106299000Y-96774000D03*
X103759000Y-96774000D03*
X101219000Y-96774000D03*
X98679000Y-96774000D03*
D13*
X96139000Y-96774000D03*
D11*
X93599000Y-96774000D03*
X91059000Y-96774000D03*
%TD*%
D14*
%TO.C,J2*%
X103409000Y-66098500D03*
D15*
X97409000Y-66098500D03*
D16*
X100409000Y-70798500D03*
%TD*%
D17*
%TO.C,J1*%
X109235000Y-63119000D03*
D18*
X111775000Y-63119000D03*
X114315000Y-63119000D03*
%TD*%
D17*
%TO.C,JR2*%
X103886000Y-140716000D03*
D19*
X101346000Y-140716000D03*
X103886000Y-138176000D03*
X101346000Y-138176000D03*
X103886000Y-135636000D03*
X101346000Y-135636000D03*
X103886000Y-133096000D03*
X101346000Y-133096000D03*
X103886000Y-130556000D03*
X101346000Y-130556000D03*
X103886000Y-128016000D03*
X101346000Y-128016000D03*
X103886000Y-125476000D03*
X101346000Y-125476000D03*
X103886000Y-122936000D03*
X101346000Y-122936000D03*
%TD*%
D17*
%TO.C,JR1*%
X93980000Y-140716000D03*
D19*
X91440000Y-140716000D03*
X93980000Y-138176000D03*
X91440000Y-138176000D03*
X93980000Y-135636000D03*
X91440000Y-135636000D03*
X93980000Y-133096000D03*
X91440000Y-133096000D03*
X93980000Y-130556000D03*
X91440000Y-130556000D03*
X93980000Y-128016000D03*
X91440000Y-128016000D03*
X93980000Y-125476000D03*
X91440000Y-125476000D03*
X93980000Y-122936000D03*
X91440000Y-122936000D03*
%TD*%
D17*
%TO.C,JR8*%
X163228000Y-140716000D03*
D19*
X160688000Y-140716000D03*
X163228000Y-138176000D03*
X160688000Y-138176000D03*
X163228000Y-135636000D03*
X160688000Y-135636000D03*
X163228000Y-133096000D03*
X160688000Y-133096000D03*
X163228000Y-130556000D03*
X160688000Y-130556000D03*
X163228000Y-128016000D03*
X160688000Y-128016000D03*
X163228000Y-125476000D03*
X160688000Y-125476000D03*
X163228000Y-122936000D03*
X160688000Y-122936000D03*
%TD*%
D17*
%TO.C,JR7*%
X153416000Y-140716000D03*
D19*
X150876000Y-140716000D03*
X153416000Y-138176000D03*
X150876000Y-138176000D03*
X153416000Y-135636000D03*
X150876000Y-135636000D03*
X153416000Y-133096000D03*
X150876000Y-133096000D03*
X153416000Y-130556000D03*
X150876000Y-130556000D03*
X153416000Y-128016000D03*
X150876000Y-128016000D03*
X153416000Y-125476000D03*
X150876000Y-125476000D03*
X153416000Y-122936000D03*
X150876000Y-122936000D03*
%TD*%
D17*
%TO.C,JR6*%
X143510000Y-140716000D03*
D19*
X140970000Y-140716000D03*
X143510000Y-138176000D03*
X140970000Y-138176000D03*
X143510000Y-135636000D03*
X140970000Y-135636000D03*
X143510000Y-133096000D03*
X140970000Y-133096000D03*
X143510000Y-130556000D03*
X140970000Y-130556000D03*
X143510000Y-128016000D03*
X140970000Y-128016000D03*
X143510000Y-125476000D03*
X140970000Y-125476000D03*
X143510000Y-122936000D03*
X140970000Y-122936000D03*
%TD*%
D17*
%TO.C,JR5*%
X133604000Y-140716000D03*
D19*
X131064000Y-140716000D03*
X133604000Y-138176000D03*
X131064000Y-138176000D03*
X133604000Y-135636000D03*
X131064000Y-135636000D03*
X133604000Y-133096000D03*
X131064000Y-133096000D03*
X133604000Y-130556000D03*
X131064000Y-130556000D03*
X133604000Y-128016000D03*
X131064000Y-128016000D03*
X133604000Y-125476000D03*
X131064000Y-125476000D03*
X133604000Y-122936000D03*
X131064000Y-122936000D03*
%TD*%
D17*
%TO.C,JR4*%
X123698000Y-140700210D03*
D19*
X121158000Y-140700210D03*
X123698000Y-138160210D03*
X121158000Y-138160210D03*
X123698000Y-135620210D03*
X121158000Y-135620210D03*
X123698000Y-133080210D03*
X121158000Y-133080210D03*
X123698000Y-130540210D03*
X121158000Y-130540210D03*
X123698000Y-128000210D03*
X121158000Y-128000210D03*
X123698000Y-125460210D03*
X121158000Y-125460210D03*
X123698000Y-122920210D03*
X121158000Y-122920210D03*
%TD*%
D17*
%TO.C,JR3*%
X113792000Y-140716000D03*
D19*
X111252000Y-140716000D03*
X113792000Y-138176000D03*
X111252000Y-138176000D03*
X113792000Y-135636000D03*
X111252000Y-135636000D03*
X113792000Y-133096000D03*
X111252000Y-133096000D03*
X113792000Y-130556000D03*
X111252000Y-130556000D03*
X113792000Y-128016000D03*
X111252000Y-128016000D03*
X113792000Y-125476000D03*
X111252000Y-125476000D03*
X113792000Y-122936000D03*
X111252000Y-122936000D03*
%TD*%
D17*
%TO.C,J35*%
X169037000Y-95993856D03*
D19*
X169037000Y-93453856D03*
X171577000Y-95993856D03*
X171577000Y-93453856D03*
X174117000Y-95993856D03*
X174117000Y-93453856D03*
X176657000Y-95993856D03*
X176657000Y-93453856D03*
X179197000Y-95993856D03*
X179197000Y-93453856D03*
X181737000Y-95993856D03*
X181737000Y-93453856D03*
X184277000Y-95993856D03*
X184277000Y-93453856D03*
X186817000Y-95993856D03*
X186817000Y-93453856D03*
%TD*%
D17*
%TO.C,J34*%
X169037000Y-111161284D03*
D19*
X169037000Y-108621284D03*
X171577000Y-111161284D03*
X171577000Y-108621284D03*
X174117000Y-111161284D03*
X174117000Y-108621284D03*
X176657000Y-111161284D03*
X176657000Y-108621284D03*
X179197000Y-111161284D03*
X179197000Y-108621284D03*
X181737000Y-111161284D03*
X181737000Y-108621284D03*
X184277000Y-111161284D03*
X184277000Y-108621284D03*
X186817000Y-111161284D03*
X186817000Y-108621284D03*
%TD*%
D17*
%TO.C,J33*%
X168910000Y-118745000D03*
D19*
X168910000Y-116205000D03*
X171450000Y-118745000D03*
X171450000Y-116205000D03*
X173990000Y-118745000D03*
X173990000Y-116205000D03*
X176530000Y-118745000D03*
X176530000Y-116205000D03*
X179070000Y-118745000D03*
X179070000Y-116205000D03*
X181610000Y-118745000D03*
X181610000Y-116205000D03*
X184150000Y-118745000D03*
X184150000Y-116205000D03*
X186690000Y-118745000D03*
X186690000Y-116205000D03*
%TD*%
D17*
%TO.C,J32*%
X169037000Y-103577570D03*
D19*
X169037000Y-101037570D03*
X171577000Y-103577570D03*
X171577000Y-101037570D03*
X174117000Y-103577570D03*
X174117000Y-101037570D03*
X176657000Y-103577570D03*
X176657000Y-101037570D03*
X179197000Y-103577570D03*
X179197000Y-101037570D03*
X181737000Y-103577570D03*
X181737000Y-101037570D03*
X184277000Y-103577570D03*
X184277000Y-101037570D03*
X186817000Y-103577570D03*
X186817000Y-101037570D03*
%TD*%
D17*
%TO.C,J29*%
X169037000Y-65659000D03*
D19*
X169037000Y-63119000D03*
X171577000Y-65659000D03*
X171577000Y-63119000D03*
X174117000Y-65659000D03*
X174117000Y-63119000D03*
X176657000Y-65659000D03*
X176657000Y-63119000D03*
X179197000Y-65659000D03*
X179197000Y-63119000D03*
X181737000Y-65659000D03*
X181737000Y-63119000D03*
X184277000Y-65659000D03*
X184277000Y-63119000D03*
X186817000Y-65659000D03*
X186817000Y-63119000D03*
%TD*%
D17*
%TO.C,J28*%
X169037000Y-73242714D03*
D19*
X169037000Y-70702714D03*
X171577000Y-73242714D03*
X171577000Y-70702714D03*
X174117000Y-73242714D03*
X174117000Y-70702714D03*
X176657000Y-73242714D03*
X176657000Y-70702714D03*
X179197000Y-73242714D03*
X179197000Y-70702714D03*
X181737000Y-73242714D03*
X181737000Y-70702714D03*
X184277000Y-73242714D03*
X184277000Y-70702714D03*
X186817000Y-73242714D03*
X186817000Y-70702714D03*
%TD*%
D17*
%TO.C,J27*%
X169037000Y-88410142D03*
D19*
X169037000Y-85870142D03*
X171577000Y-88410142D03*
X171577000Y-85870142D03*
X174117000Y-88410142D03*
X174117000Y-85870142D03*
X176657000Y-88410142D03*
X176657000Y-85870142D03*
X179197000Y-88410142D03*
X179197000Y-85870142D03*
X181737000Y-88410142D03*
X181737000Y-85870142D03*
X184277000Y-88410142D03*
X184277000Y-85870142D03*
X186817000Y-88410142D03*
X186817000Y-85870142D03*
%TD*%
D17*
%TO.C,J26*%
X169037000Y-80826428D03*
D19*
X169037000Y-78286428D03*
X171577000Y-80826428D03*
X171577000Y-78286428D03*
X174117000Y-80826428D03*
X174117000Y-78286428D03*
X176657000Y-80826428D03*
X176657000Y-78286428D03*
X179197000Y-80826428D03*
X179197000Y-78286428D03*
X181737000Y-80826428D03*
X181737000Y-78286428D03*
X184277000Y-80826428D03*
X184277000Y-78286428D03*
X186817000Y-80826428D03*
X186817000Y-78286428D03*
%TD*%
D20*
%TO.C,JSPI7*%
X160722000Y-63569000D03*
D21*
X159222000Y-63569000D03*
X157722000Y-63569000D03*
X156222000Y-63569000D03*
X154722000Y-63569000D03*
X153222000Y-63569000D03*
%TD*%
D22*
%TO.C,JSPI6*%
X162121000Y-67751000D03*
D23*
X162121000Y-69251000D03*
X162121000Y-70751000D03*
X162121000Y-72251000D03*
X162121000Y-73751000D03*
X162121000Y-75251000D03*
%TD*%
D22*
%TO.C,JSPI5*%
X157295000Y-67751000D03*
D23*
X157295000Y-69251000D03*
X157295000Y-70751000D03*
X157295000Y-72251000D03*
X157295000Y-73751000D03*
X157295000Y-75251000D03*
%TD*%
D22*
%TO.C,JSPI4*%
X152469000Y-67751000D03*
D23*
X152469000Y-69251000D03*
X152469000Y-70751000D03*
X152469000Y-72251000D03*
X152469000Y-73751000D03*
X152469000Y-75251000D03*
%TD*%
D22*
%TO.C,JSPI3*%
X162121000Y-79562000D03*
D23*
X162121000Y-81062000D03*
X162121000Y-82562000D03*
X162121000Y-84062000D03*
X162121000Y-85562000D03*
X162121000Y-87062000D03*
%TD*%
D22*
%TO.C,JSPI2*%
X157295000Y-79562000D03*
D23*
X157295000Y-81062000D03*
X157295000Y-82562000D03*
X157295000Y-84062000D03*
X157295000Y-85562000D03*
X157295000Y-87062000D03*
%TD*%
D22*
%TO.C,JSPI1*%
X152469000Y-79562000D03*
D23*
X152469000Y-81062000D03*
X152469000Y-82562000D03*
X152469000Y-84062000D03*
X152469000Y-85562000D03*
X152469000Y-87062000D03*
%TD*%
D22*
%TO.C,J31*%
X147135000Y-109891000D03*
D23*
X147135000Y-111391000D03*
X147135000Y-112891000D03*
X147135000Y-114391000D03*
%TD*%
D22*
%TO.C,J30*%
X147135000Y-96810000D03*
D23*
X147135000Y-98310000D03*
X147135000Y-99810000D03*
X147135000Y-101310000D03*
%TD*%
D20*
%TO.C,AN16*%
X130937000Y-80137000D03*
D21*
X129437000Y-80137000D03*
X127937000Y-80137000D03*
%TD*%
D20*
%TO.C,AN15*%
X130937000Y-75184000D03*
D21*
X129437000Y-75184000D03*
X127937000Y-75184000D03*
%TD*%
D20*
%TO.C,AN14*%
X130937000Y-70104000D03*
D21*
X129437000Y-70104000D03*
X127937000Y-70104000D03*
%TD*%
D20*
%TO.C,AN13*%
X123444000Y-80137000D03*
D21*
X121944000Y-80137000D03*
X120444000Y-80137000D03*
%TD*%
D20*
%TO.C,AN12*%
X130937000Y-65024000D03*
D21*
X129437000Y-65024000D03*
X127937000Y-65024000D03*
%TD*%
D20*
%TO.C,AN11*%
X123444000Y-75184000D03*
D21*
X121944000Y-75184000D03*
X120444000Y-75184000D03*
%TD*%
D20*
%TO.C,AN10*%
X123444000Y-70104000D03*
D21*
X121944000Y-70104000D03*
X120444000Y-70104000D03*
%TD*%
D20*
%TO.C,AN9*%
X123444000Y-65024000D03*
D21*
X121944000Y-65024000D03*
X120444000Y-65024000D03*
%TD*%
D20*
%TO.C,AN8*%
X138430000Y-65024000D03*
D21*
X136930000Y-65024000D03*
X135430000Y-65024000D03*
%TD*%
D20*
%TO.C,AN7*%
X138430000Y-70104000D03*
D21*
X136930000Y-70104000D03*
X135430000Y-70104000D03*
%TD*%
D20*
%TO.C,AN6*%
X138430000Y-75184000D03*
D21*
X136930000Y-75184000D03*
X135430000Y-75184000D03*
%TD*%
D20*
%TO.C,AN5*%
X138430000Y-80137000D03*
D21*
X136930000Y-80137000D03*
X135430000Y-80137000D03*
%TD*%
D20*
%TO.C,AN4*%
X146026000Y-65024000D03*
D21*
X144526000Y-65024000D03*
X143026000Y-65024000D03*
%TD*%
D20*
%TO.C,AN3*%
X146026000Y-70104000D03*
D21*
X144526000Y-70104000D03*
X143026000Y-70104000D03*
%TD*%
D20*
%TO.C,AN2*%
X146026000Y-75184000D03*
D21*
X144526000Y-75184000D03*
X143026000Y-75184000D03*
%TD*%
D20*
%TO.C,AN1*%
X146026000Y-80137000D03*
D21*
X144526000Y-80137000D03*
X143026000Y-80137000D03*
%TD*%
D24*
%TO.C,H4*%
X186309000Y-144907000D03*
D25*
X186309000Y-144907000D03*
%TD*%
D24*
%TO.C,H2*%
X186436000Y-58674000D03*
D25*
X186436000Y-58674000D03*
%TD*%
D24*
%TO.C,H3*%
X91694000Y-144907000D03*
D25*
X91694000Y-144907000D03*
%TD*%
D24*
%TO.C,H1*%
X91694000Y-58801000D03*
D25*
X91694000Y-58801000D03*
%TD*%
D26*
%TO.C,TP1*%
X117602000Y-105791000D03*
%TD*%
%TO.C,TP4*%
X96647000Y-105664000D03*
%TD*%
%TO.C,TP2*%
X110871000Y-105664000D03*
%TD*%
%TO.C,TP3*%
X103812666Y-105664000D03*
%TD*%
M02*
