M48
; DRILL file {KiCad 9.0.3} date 2026-01-15T08:27:16-0300
; FORMAT={-:-/ absolute / inch / decimal}
; #@! TF.CreationDate,2026-01-15T08:27:16-03:00
; #@! TF.GenerationSoftware,Kicad,Pcbnew,9.0.3
; #@! TF.FileFunction,Plated,1,4,PTH
FMAT,2
INCH
; #@! TA.AperFunction,Plated,PTH,ViaDrill
T1C0.0118
; #@! TA.AperFunction,Plated,PTH,ViaDrill
T2C0.0157
; #@! TA.AperFunction,Plated,PTH,ComponentDrill
T3C0.0287
; #@! TA.AperFunction,Plated,PTH,ComponentDrill
T4C0.0394
; #@! TA.AperFunction,Plated,PTH,ComponentDrill
T5C0.0866
%
G90
G05
T1
X3.797Y-2.852
X3.797Y-2.894
X3.797Y-2.94
T2
X3.543Y-3.028
X3.573Y-4.032
X3.573Y-4.28
X3.575Y-2.594
X3.575Y-3.63
X3.576Y-2.858
X3.577Y-2.316
X3.577Y-2.458
X3.615Y-3.298
X3.615Y-3.356
X3.615Y-3.412
X3.615Y-3.47
X3.691Y-3.326
X3.691Y-4.192
X3.693Y-4.366
X3.695Y-3.928
X3.72Y-4.73
X3.751Y-3.686
X3.757Y-3.326
X3.789Y-4.366
X3.815Y-3.326
X3.823Y-2.708
X3.825Y-5.706
X3.875Y-4.058
X3.875Y-4.128
X3.879Y-3.326
X3.88Y-3.47
X3.883Y-4.764
X3.93Y-3.47
X3.931Y-3.406
X3.979Y-3.092
X3.979Y-3.146
X3.983Y-3.406
X3.983Y-3.47
X3.993Y-4.364
X4.027Y-3.146
X4.035Y-3.408
X4.035Y-3.47
X4.045Y-4.186
X4.0558Y-4.6084
X4.0623Y-3.5503
X4.081Y-3.146
X4.089Y-3.408
X4.089Y-3.47
X4.111Y-2.602
X4.111Y-2.652
X4.111Y-2.704
X4.115Y-4.73
X4.143Y-3.146
X4.167Y-2.704
X4.193Y-4.326
X4.2Y-3.095
X4.2Y-3.146
X4.205Y-3.6569
X4.2097Y-5.706
X4.221Y-4.162
X4.231Y-2.704
X4.241Y-4.578
X4.243Y-4.764
X4.25Y-3.365
X4.333Y-2.596
X4.333Y-2.657
X4.333Y-2.718
X4.333Y-2.779
X4.333Y-2.84
X4.335Y-3.54
X4.337Y-4.39
X4.338Y-3.458
X4.34Y-3.2871
X4.387Y-4.12
X4.387Y-4.16
X4.389Y-4.278
X4.399Y-2.84
X4.413Y-3.54
X4.415Y-3.195
X4.429Y-4.786
X4.433Y-3.926
X4.435Y-4.002
X4.469Y-2.84
X4.495Y-4.73
X4.497Y-2.902
X4.497Y-2.982
X4.527Y-3.428
X4.533Y-2.84
X4.5333Y-4.2517
X4.535Y-4.16
X4.559Y-3.042
X4.591Y-3.938
X4.591Y-4.048
X4.5945Y-5.706
X4.603Y-2.596
X4.603Y-2.658
X4.603Y-2.718
X4.603Y-2.778
X4.603Y-2.84
X4.603Y-4.572
X4.633Y-2.334
X4.633Y-2.46
X4.637Y-4.284
X4.655Y-3.282
X4.665Y-4.765
X4.685Y-4.284
X4.695Y-2.56
X4.695Y-2.76
X4.695Y-2.96
X4.695Y-3.155
X4.698Y-3.2815
X4.727Y-3.31
X4.75Y-3.635
X4.783Y-3.938
X4.783Y-4.094
X4.783Y-4.25
X4.783Y-4.406
X4.857Y-3.294
X4.887Y-3.636
X4.895Y-4.73
X4.923Y-3.382
X4.975Y-4.125
X4.9792Y-5.706
X4.985Y-2.56
X4.985Y-2.76
X4.985Y-2.96
X4.985Y-4.4
X4.995Y-3.294
X5.005Y-3.582
X5.03Y-3.095
X5.031Y-3.686
X5.073Y-4.738
X5.097Y-2.332
X5.103Y-3.25
X5.141Y-4.094
X5.141Y-4.25
X5.22Y-3.582
X5.245Y-3.436
X5.275Y-2.56
X5.275Y-2.76
X5.275Y-2.96
X5.285Y-4.73
X5.307Y-3.692
X5.319Y-3.358
X5.325Y-3.09
X5.364Y-5.706
X5.381Y-3.294
X5.4243Y-2.332
X5.427Y-4.74
X5.447Y-3.582
X5.447Y-3.69
X5.575Y-2.56
X5.575Y-2.76
X5.575Y-4.48
X5.5816Y-2.965
X5.585Y-3.925
X5.597Y-4.784
X5.605Y-3.805
X5.605Y-3.8444
X5.63Y-3.09
X5.65Y-3.96
X5.66Y-4.385
X5.6646Y-4.73
X5.695Y-4.17
X5.6989Y-4.1102
X5.709Y-3.526
X5.709Y-3.67
X5.7488Y-5.706
X5.7517Y-2.332
X5.773Y-3.524
X5.773Y-3.672
X5.809Y-4.74
X5.835Y-3.526
X5.861Y-2.71
X5.861Y-2.89
X5.863Y-2.98
X5.863Y-3.162
X5.869Y-3.218
X5.869Y-3.274
X5.871Y-3.342
X5.871Y-4.378
X5.873Y-4.804
X5.881Y-2.504
X5.922Y-3.634
X5.93Y-4.48
X5.9415Y-4.02
X5.9415Y-4.07
X5.9431Y-4.27
X5.944Y-4.115
X5.9448Y-4.3165
X5.9465Y-4.17
X5.9465Y-4.22
X5.955Y-3.825
X5.982Y-3.536
X6.001Y-3.974
X6.003Y-4.614
X6.065Y-4.73
X6.079Y-2.332
X6.089Y-2.9
X6.089Y-3.374
X6.12Y-4.485
X6.1335Y-5.706
X6.141Y-4.672
X6.153Y-4.192
X6.187Y-3.502
X6.195Y-3.905
X6.231Y-4.574
X6.245Y-3.905
X6.253Y-3.048
X6.269Y-4.062
X6.357Y-3.048
X6.371Y-4.786
X6.395Y-3.57
X6.395Y-3.904
X6.4063Y-2.332
X6.44Y-4.73
X6.465Y-3.812
X6.475Y-4.02
X6.475Y-4.07
X6.475Y-4.12
X6.475Y-4.17
X6.475Y-4.22
X6.5183Y-5.706
X6.7337Y-2.332
X6.744Y-5.452
X6.794Y-5.452
X6.903Y-5.706
X7.061Y-2.332
X7.0774Y-5.275
X7.0774Y-5.325
X7.08Y-5.175
X7.08Y-5.225
X7.0824Y-5.125
X7.083Y-5.07
X7.087Y-4.784
X7.0874Y-4.975
X7.293Y-4.926
X7.293Y-5.116
X7.293Y-5.306
X7.293Y-5.496
T3
X4.407Y-2.4423
X4.4661Y-2.4423
X4.5251Y-2.4423
X4.7419Y-2.56
X4.7419Y-2.76
X4.7419Y-2.96
X4.7419Y-3.155
X4.8009Y-2.56
X4.8009Y-2.76
X4.8009Y-2.96
X4.8009Y-3.155
X4.86Y-2.56
X4.86Y-2.76
X4.86Y-2.96
X4.86Y-3.155
X5.0369Y-2.56
X5.0369Y-2.76
X5.0369Y-2.96
X5.0369Y-3.155
X5.0959Y-2.56
X5.0959Y-2.76
X5.0959Y-2.96
X5.0959Y-3.155
X5.155Y-2.56
X5.155Y-2.76
X5.155Y-2.96
X5.155Y-3.155
X5.3319Y-2.56
X5.3319Y-2.76
X5.3319Y-2.96
X5.3319Y-3.155
X5.3909Y-2.56
X5.3909Y-2.76
X5.3909Y-2.96
X5.3909Y-3.155
X5.45Y-2.56
X5.45Y-2.76
X5.45Y-2.96
X5.45Y-3.155
X5.6309Y-2.56
X5.6309Y-2.76
X5.6309Y-2.96
X5.6309Y-3.155
X5.69Y-2.56
X5.69Y-2.76
X5.69Y-2.96
X5.69Y-3.155
X5.7491Y-2.56
X5.7491Y-2.76
X5.7491Y-2.96
X5.7491Y-3.155
X5.7927Y-3.8114
X5.7927Y-3.8705
X5.7927Y-3.9295
X5.7927Y-3.9886
X5.7927Y-4.3264
X5.7927Y-4.3855
X5.7927Y-4.4445
X5.7927Y-4.5036
X6.0027Y-2.6674
X6.0027Y-2.7264
X6.0027Y-2.7855
X6.0027Y-2.8445
X6.0027Y-2.9036
X6.0027Y-2.9626
X6.0027Y-3.1324
X6.0027Y-3.1914
X6.0027Y-3.2505
X6.0027Y-3.3095
X6.0027Y-3.3686
X6.0027Y-3.4276
X6.0324Y-2.5027
X6.0914Y-2.5027
X6.1505Y-2.5027
X6.1927Y-2.6674
X6.1927Y-2.7264
X6.1927Y-2.7855
X6.1927Y-2.8445
X6.1927Y-2.9036
X6.1927Y-2.9626
X6.1927Y-3.1324
X6.1927Y-3.1914
X6.1927Y-3.2505
X6.1927Y-3.3095
X6.1927Y-3.3686
X6.1927Y-3.4276
X6.2095Y-2.5027
X6.2686Y-2.5027
X6.3276Y-2.5027
X6.3827Y-2.6674
X6.3827Y-2.7264
X6.3827Y-2.7855
X6.3827Y-2.8445
X6.3827Y-2.9036
X6.3827Y-2.9626
X6.3827Y-3.1324
X6.3827Y-3.1914
X6.3827Y-3.2505
X6.3827Y-3.3095
X6.3827Y-3.3686
X6.3827Y-3.4276
T4
X3.585Y-3.81
X3.585Y-4.51
X3.6Y-4.84
X3.6Y-4.94
X3.6Y-5.04
X3.6Y-5.14
X3.6Y-5.24
X3.6Y-5.34
X3.6Y-5.44
X3.6Y-5.54
X3.685Y-3.81
X3.685Y-4.51
X3.7Y-4.84
X3.7Y-4.94
X3.7Y-5.04
X3.7Y-5.14
X3.7Y-5.24
X3.7Y-5.34
X3.7Y-5.44
X3.7Y-5.54
X3.785Y-3.81
X3.785Y-4.51
X3.885Y-3.81
X3.885Y-4.51
X3.985Y-3.81
X3.985Y-4.51
X3.99Y-4.84
X3.99Y-4.94
X3.99Y-5.04
X3.99Y-5.14
X3.99Y-5.24
X3.99Y-5.34
X3.99Y-5.44
X3.99Y-5.54
X4.085Y-3.81
X4.085Y-4.51
X4.09Y-4.84
X4.09Y-4.94
X4.09Y-5.04
X4.09Y-5.14
X4.09Y-5.24
X4.09Y-5.34
X4.09Y-5.44
X4.09Y-5.54
X4.185Y-3.81
X4.185Y-4.51
X4.285Y-3.81
X4.285Y-4.51
X4.38Y-4.84
X4.38Y-4.94
X4.38Y-5.04
X4.38Y-5.14
X4.38Y-5.24
X4.38Y-5.34
X4.38Y-5.44
X4.38Y-5.54
X4.385Y-3.81
X4.385Y-4.51
X4.48Y-4.84
X4.48Y-4.94
X4.48Y-5.04
X4.48Y-5.14
X4.48Y-5.24
X4.48Y-5.34
X4.48Y-5.44
X4.48Y-5.54
X4.485Y-3.81
X4.485Y-4.51
X4.585Y-3.81
X4.585Y-4.51
X4.685Y-3.81
X4.685Y-4.51
X4.77Y-4.8394
X4.77Y-4.9394
X4.77Y-5.0394
X4.77Y-5.1394
X4.77Y-5.2394
X4.77Y-5.3394
X4.77Y-5.4394
X4.77Y-5.5394
X4.785Y-3.81
X4.785Y-4.51
X4.87Y-4.8394
X4.87Y-4.9394
X4.87Y-5.0394
X4.87Y-5.1394
X4.87Y-5.2394
X4.87Y-5.3394
X4.87Y-5.4394
X4.87Y-5.5394
X4.885Y-3.81
X4.885Y-4.51
X4.985Y-3.81
X4.985Y-4.51
X5.085Y-3.81
X5.085Y-4.51
X5.16Y-4.84
X5.16Y-4.94
X5.16Y-5.04
X5.16Y-5.14
X5.16Y-5.24
X5.16Y-5.34
X5.16Y-5.44
X5.16Y-5.54
X5.185Y-3.81
X5.185Y-4.51
X5.26Y-4.84
X5.26Y-4.94
X5.26Y-5.04
X5.26Y-5.14
X5.26Y-5.24
X5.26Y-5.34
X5.26Y-5.44
X5.26Y-5.54
X5.285Y-3.81
X5.285Y-4.51
X5.385Y-3.81
X5.385Y-4.51
X5.485Y-3.81
X5.485Y-4.51
X5.55Y-4.84
X5.55Y-4.94
X5.55Y-5.04
X5.55Y-5.14
X5.55Y-5.24
X5.55Y-5.34
X5.55Y-5.44
X5.55Y-5.54
X5.65Y-4.84
X5.65Y-4.94
X5.65Y-5.04
X5.65Y-5.14
X5.65Y-5.24
X5.65Y-5.34
X5.65Y-5.44
X5.65Y-5.54
X5.94Y-4.84
X5.94Y-4.94
X5.94Y-5.04
X5.94Y-5.14
X5.94Y-5.24
X5.94Y-5.34
X5.94Y-5.44
X5.94Y-5.54
X6.04Y-4.84
X6.04Y-4.94
X6.04Y-5.04
X6.04Y-5.14
X6.04Y-5.24
X6.04Y-5.34
X6.04Y-5.44
X6.04Y-5.54
X6.3263Y-4.84
X6.3263Y-4.94
X6.3263Y-5.04
X6.3263Y-5.14
X6.3263Y-5.24
X6.3263Y-5.34
X6.3263Y-5.44
X6.3263Y-5.54
X6.4263Y-4.84
X6.4263Y-4.94
X6.4263Y-5.04
X6.4263Y-5.14
X6.4263Y-5.24
X6.4263Y-5.34
X6.4263Y-5.44
X6.4263Y-5.54
X6.65Y-4.575
X6.65Y-4.675
X6.655Y-2.485
X6.655Y-2.585
X6.655Y-2.7836
X6.655Y-2.8836
X6.655Y-3.0821
X6.655Y-3.1821
X6.655Y-3.3807
X6.655Y-3.4807
X6.655Y-3.6793
X6.655Y-3.7793
X6.655Y-3.9779
X6.655Y-4.0779
X6.655Y-4.2764
X6.655Y-4.3764
X6.75Y-4.575
X6.75Y-4.675
X6.755Y-2.485
X6.755Y-2.585
X6.755Y-2.7836
X6.755Y-2.8836
X6.755Y-3.0821
X6.755Y-3.1821
X6.755Y-3.3807
X6.755Y-3.4807
X6.755Y-3.6793
X6.755Y-3.7793
X6.755Y-3.9779
X6.755Y-4.0779
X6.755Y-4.2764
X6.755Y-4.3764
X6.85Y-4.575
X6.85Y-4.675
X6.855Y-2.485
X6.855Y-2.585
X6.855Y-2.7836
X6.855Y-2.8836
X6.855Y-3.0821
X6.855Y-3.1821
X6.855Y-3.3807
X6.855Y-3.4807
X6.855Y-3.6793
X6.855Y-3.7793
X6.855Y-3.9779
X6.855Y-4.0779
X6.855Y-4.2764
X6.855Y-4.3764
X6.95Y-4.575
X6.95Y-4.675
X6.955Y-2.485
X6.955Y-2.585
X6.955Y-2.7836
X6.955Y-2.8836
X6.955Y-3.0821
X6.955Y-3.1821
X6.955Y-3.3807
X6.955Y-3.4807
X6.955Y-3.6793
X6.955Y-3.7793
X6.955Y-3.9779
X6.955Y-4.0779
X6.955Y-4.2764
X6.955Y-4.3764
X7.05Y-4.575
X7.05Y-4.675
X7.055Y-2.485
X7.055Y-2.585
X7.055Y-2.7836
X7.055Y-2.8836
X7.055Y-3.0821
X7.055Y-3.1821
X7.055Y-3.3807
X7.055Y-3.4807
X7.055Y-3.6793
X7.055Y-3.7793
X7.055Y-3.9779
X7.055Y-4.0779
X7.055Y-4.2764
X7.055Y-4.3764
X7.15Y-4.575
X7.15Y-4.675
X7.155Y-2.485
X7.155Y-2.585
X7.155Y-2.7836
X7.155Y-2.8836
X7.155Y-3.0821
X7.155Y-3.1821
X7.155Y-3.3807
X7.155Y-3.4807
X7.155Y-3.6793
X7.155Y-3.7793
X7.155Y-3.9779
X7.155Y-4.0779
X7.155Y-4.2764
X7.155Y-4.3764
X7.25Y-4.575
X7.25Y-4.675
X7.255Y-2.485
X7.255Y-2.585
X7.255Y-2.7836
X7.255Y-2.8836
X7.255Y-3.0821
X7.255Y-3.1821
X7.255Y-3.3807
X7.255Y-3.4807
X7.255Y-3.6793
X7.255Y-3.7793
X7.255Y-3.9779
X7.255Y-4.0779
X7.255Y-4.2764
X7.255Y-4.3764
X7.35Y-4.575
X7.35Y-4.675
X7.355Y-2.485
X7.355Y-2.585
X7.355Y-2.7836
X7.355Y-2.8836
X7.355Y-3.0821
X7.355Y-3.1821
X7.355Y-3.3807
X7.355Y-3.4807
X7.355Y-3.6793
X7.355Y-3.7793
X7.355Y-3.9779
X7.355Y-4.0779
X7.355Y-4.2764
X7.355Y-4.3764
T5
X3.61Y-5.705
X4.795Y-2.31
X7.335Y-5.705
X7.34Y-2.31
T4
G00X3.837Y-2.4209
M15
G01X3.837Y-2.4997
M16
G05
G00X3.9157Y-2.6453
M15
G01X3.9945Y-2.6453
M16
G05
G00X4.0732Y-2.4209
M15
G01X4.0732Y-2.4997
M16
G05
M30
