%TF.GenerationSoftware,KiCad,Pcbnew,9.0.3*%
%TF.CreationDate,2025-07-24T06:46:12-03:00*%
%TF.ProjectId,pi_controller,70695f63-6f6e-4747-926f-6c6c65722e6b,1.0*%
%TF.SameCoordinates,Original*%
%TF.FileFunction,Soldermask,Top*%
%TF.FilePolarity,Negative*%
%FSLAX46Y46*%
G04 Gerber Fmt 4.6, Leading zero omitted, Abs format (unit mm)*
G04 Created by KiCad (PCBNEW 9.0.3) date 2025-07-24 06:46:12*
%MOMM*%
%LPD*%
G01*
G04 APERTURE LIST*
G04 Aperture macros list*
%AMRoundRect*
0 Rectangle with rounded corners*
0 $1 Rounding radius*
0 $2 $3 $4 $5 $6 $7 $8 $9 X,Y pos of 4 corners*
0 Add a 4 corners polygon primitive as box body*
4,1,4,$2,$3,$4,$5,$6,$7,$8,$9,$2,$3,0*
0 Add four circle primitives for the rounded corners*
1,1,$1+$1,$2,$3*
1,1,$1+$1,$4,$5*
1,1,$1+$1,$6,$7*
1,1,$1+$1,$8,$9*
0 Add four rect primitives between the rounded corners*
20,1,$1+$1,$2,$3,$4,$5,0*
20,1,$1+$1,$4,$5,$6,$7,0*
20,1,$1+$1,$6,$7,$8,$9,0*
20,1,$1+$1,$8,$9,$2,$3,0*%
G04 Aperture macros list end*
%ADD10R,1.700000X1.700000*%
%ADD11C,1.700000*%
%ADD12RoundRect,0.237500X0.250000X0.237500X-0.250000X0.237500X-0.250000X-0.237500X0.250000X-0.237500X0*%
%ADD13RoundRect,0.250000X-0.650000X0.412500X-0.650000X-0.412500X0.650000X-0.412500X0.650000X0.412500X0*%
%ADD14RoundRect,0.125000X0.125000X0.125000X-0.125000X0.125000X-0.125000X-0.125000X0.125000X-0.125000X0*%
%ADD15RoundRect,0.250000X0.265000X0.615000X-0.265000X0.615000X-0.265000X-0.615000X0.265000X-0.615000X0*%
%ADD16O,1.030000X1.730000*%
%ADD17O,1.700000X1.700000*%
%ADD18RoundRect,0.237500X-0.237500X0.250000X-0.237500X-0.250000X0.237500X-0.250000X0.237500X0.250000X0*%
%ADD19C,2.600000*%
%ADD20C,3.800000*%
%ADD21RoundRect,0.250000X0.650000X-0.412500X0.650000X0.412500X-0.650000X0.412500X-0.650000X-0.412500X0*%
%ADD22RoundRect,0.250000X-0.615000X0.265000X-0.615000X-0.265000X0.615000X-0.265000X0.615000X0.265000X0*%
%ADD23O,1.730000X1.030000*%
%ADD24RoundRect,0.250000X-0.925000X-1.500000X0.925000X-1.500000X0.925000X1.500000X-0.925000X1.500000X0*%
%ADD25RoundRect,0.237500X-0.237500X0.300000X-0.237500X-0.300000X0.237500X-0.300000X0.237500X0.300000X0*%
%ADD26RoundRect,0.237500X0.237500X-0.300000X0.237500X0.300000X-0.237500X0.300000X-0.237500X-0.300000X0*%
%ADD27RoundRect,0.150000X0.512500X0.150000X-0.512500X0.150000X-0.512500X-0.150000X0.512500X-0.150000X0*%
%ADD28R,3.500000X3.500000*%
%ADD29RoundRect,0.750000X-0.750000X-1.000000X0.750000X-1.000000X0.750000X1.000000X-0.750000X1.000000X0*%
%ADD30RoundRect,0.875000X-0.875000X-0.875000X0.875000X-0.875000X0.875000X0.875000X-0.875000X0.875000X0*%
%ADD31RoundRect,0.150000X0.150000X-0.825000X0.150000X0.825000X-0.150000X0.825000X-0.150000X-0.825000X0*%
%ADD32RoundRect,0.237500X-0.300000X-0.237500X0.300000X-0.237500X0.300000X0.237500X-0.300000X0.237500X0*%
%ADD33R,0.970000X3.020000*%
%ADD34R,5.670000X6.320000*%
%ADD35RoundRect,0.237500X0.237500X-0.250000X0.237500X0.250000X-0.237500X0.250000X-0.237500X-0.250000X0*%
%ADD36RoundRect,0.250000X-0.450000X0.325000X-0.450000X-0.325000X0.450000X-0.325000X0.450000X0.325000X0*%
%ADD37R,0.450000X1.750000*%
%ADD38RoundRect,0.150000X0.150000X-0.587500X0.150000X0.587500X-0.150000X0.587500X-0.150000X-0.587500X0*%
%ADD39RoundRect,0.137500X-0.862500X-0.137500X0.862500X-0.137500X0.862500X0.137500X-0.862500X0.137500X0*%
%ADD40RoundRect,0.237500X-0.250000X-0.237500X0.250000X-0.237500X0.250000X0.237500X-0.250000X0.237500X0*%
%ADD41RoundRect,0.150000X0.825000X0.150000X-0.825000X0.150000X-0.825000X-0.150000X0.825000X-0.150000X0*%
%ADD42RoundRect,0.237500X0.300000X0.237500X-0.300000X0.237500X-0.300000X-0.237500X0.300000X-0.237500X0*%
G04 APERTURE END LIST*
D10*
%TO.C,J4*%
X139319000Y-96774000D03*
D11*
X136779000Y-96774000D03*
X134239000Y-96774000D03*
X131699000Y-96774000D03*
X129159000Y-96774000D03*
X126619000Y-96774000D03*
X124079000Y-96774000D03*
X121539000Y-96774000D03*
X118999000Y-96774000D03*
X116459000Y-96774000D03*
X113919000Y-96774000D03*
X111379000Y-96774000D03*
X108839000Y-96774000D03*
X106299000Y-96774000D03*
X103759000Y-96774000D03*
X101219000Y-96774000D03*
X98679000Y-96774000D03*
X96139000Y-96774000D03*
X93599000Y-96774000D03*
X91059000Y-96774000D03*
%TD*%
D10*
%TO.C,J3*%
X91059000Y-114554000D03*
D11*
X93599000Y-114554000D03*
X96139000Y-114554000D03*
X98679000Y-114554000D03*
X101219000Y-114554000D03*
X103759000Y-114554000D03*
X106299000Y-114554000D03*
X108839000Y-114554000D03*
X111379000Y-114554000D03*
X113919000Y-114554000D03*
X116459000Y-114554000D03*
X118999000Y-114554000D03*
X121539000Y-114554000D03*
X124079000Y-114554000D03*
X126619000Y-114554000D03*
X129159000Y-114554000D03*
X131699000Y-114554000D03*
X134239000Y-114554000D03*
X136779000Y-114554000D03*
X139319000Y-114554000D03*
%TD*%
D12*
%TO.C,R9*%
X93265000Y-120142000D03*
X91440000Y-120142000D03*
%TD*%
D13*
%TO.C,C2*%
X103639244Y-81072946D03*
X103639244Y-84197946D03*
%TD*%
D14*
%TO.C,D42*%
X148245000Y-133096000D03*
X146045000Y-133096000D03*
%TD*%
D15*
%TO.C,AN14*%
X130937000Y-70104000D03*
D16*
X129437000Y-70104000D03*
X127937000Y-70104000D03*
%TD*%
D14*
%TO.C,D23*%
X128438000Y-130540210D03*
X126238000Y-130540210D03*
%TD*%
D12*
%TO.C,R10*%
X113077000Y-120142000D03*
X111252000Y-120142000D03*
%TD*%
D10*
%TO.C,JR1*%
X93980000Y-140716000D03*
D17*
X91440000Y-140716000D03*
X93980000Y-138176000D03*
X91440000Y-138176000D03*
X93980000Y-135636000D03*
X91440000Y-135636000D03*
X93980000Y-133096000D03*
X91440000Y-133096000D03*
X93980000Y-130556000D03*
X91440000Y-130556000D03*
X93980000Y-128016000D03*
X91440000Y-128016000D03*
X93980000Y-125476000D03*
X91440000Y-125476000D03*
X93980000Y-122936000D03*
X91440000Y-122936000D03*
%TD*%
D14*
%TO.C,D58*%
X98715000Y-140716000D03*
X96515000Y-140716000D03*
%TD*%
D15*
%TO.C,AN10*%
X123444000Y-70104000D03*
D16*
X121944000Y-70104000D03*
X120444000Y-70104000D03*
%TD*%
D14*
%TO.C,D31*%
X128438000Y-138160210D03*
X126238000Y-138160210D03*
%TD*%
%TO.C,D59*%
X108626000Y-140716000D03*
X106426000Y-140716000D03*
%TD*%
D15*
%TO.C,AN8*%
X138430000Y-65024000D03*
D16*
X136930000Y-65024000D03*
X135430000Y-65024000D03*
%TD*%
D12*
%TO.C,R12*%
X122983000Y-120126210D03*
X121158000Y-120126210D03*
%TD*%
D18*
%TO.C,R4*%
X106680000Y-85515500D03*
X106680000Y-87340500D03*
%TD*%
D15*
%TO.C,AN9*%
X123444000Y-65024000D03*
D16*
X121944000Y-65024000D03*
X120444000Y-65024000D03*
%TD*%
D15*
%TO.C,AN5*%
X138430000Y-80137000D03*
D16*
X136930000Y-80137000D03*
X135430000Y-80137000D03*
%TD*%
D10*
%TO.C,JR6*%
X143510000Y-140716000D03*
D17*
X140970000Y-140716000D03*
X143510000Y-138176000D03*
X140970000Y-138176000D03*
X143510000Y-135636000D03*
X140970000Y-135636000D03*
X143510000Y-133096000D03*
X140970000Y-133096000D03*
X143510000Y-130556000D03*
X140970000Y-130556000D03*
X143510000Y-128016000D03*
X140970000Y-128016000D03*
X143510000Y-125476000D03*
X140970000Y-125476000D03*
X143510000Y-122936000D03*
X140970000Y-122936000D03*
%TD*%
D10*
%TO.C,JR3*%
X113792000Y-140716000D03*
D17*
X111252000Y-140716000D03*
X113792000Y-138176000D03*
X111252000Y-138176000D03*
X113792000Y-135636000D03*
X111252000Y-135636000D03*
X113792000Y-133096000D03*
X111252000Y-133096000D03*
X113792000Y-130556000D03*
X111252000Y-130556000D03*
X113792000Y-128016000D03*
X111252000Y-128016000D03*
X113792000Y-125476000D03*
X111252000Y-125476000D03*
X113792000Y-122936000D03*
X111252000Y-122936000D03*
%TD*%
D12*
%TO.C,R5*%
X110029000Y-91313000D03*
X108204000Y-91313000D03*
%TD*%
D15*
%TO.C,AN1*%
X146026000Y-80137000D03*
D16*
X144526000Y-80137000D03*
X143026000Y-80137000D03*
%TD*%
D14*
%TO.C,D10*%
X108626000Y-133096000D03*
X106426000Y-133096000D03*
%TD*%
D15*
%TO.C,AN13*%
X123444000Y-80137000D03*
D16*
X121944000Y-80137000D03*
X120444000Y-80137000D03*
%TD*%
D14*
%TO.C,D35*%
X118527000Y-122936000D03*
X116327000Y-122936000D03*
%TD*%
%TO.C,D3*%
X98715000Y-122936000D03*
X96515000Y-122936000D03*
%TD*%
D19*
%TO.C,H4*%
X186309000Y-144907000D03*
D20*
X186309000Y-144907000D03*
%TD*%
D15*
%TO.C,AN11*%
X123444000Y-75184000D03*
D16*
X121944000Y-75184000D03*
X120444000Y-75184000D03*
%TD*%
D14*
%TO.C,D52*%
X167968000Y-125476000D03*
X165768000Y-125476000D03*
%TD*%
D15*
%TO.C,JSPI7*%
X160722000Y-63569000D03*
D16*
X159222000Y-63569000D03*
X157722000Y-63569000D03*
X156222000Y-63569000D03*
X154722000Y-63569000D03*
X153222000Y-63569000D03*
%TD*%
D12*
%TO.C,R2*%
X92710000Y-75311000D03*
X90885000Y-75311000D03*
%TD*%
D14*
%TO.C,D13*%
X108626000Y-138176000D03*
X106426000Y-138176000D03*
%TD*%
%TO.C,D41*%
X148245000Y-135636000D03*
X146045000Y-135636000D03*
%TD*%
D21*
%TO.C,C4*%
X99187000Y-78803123D03*
X99187000Y-75678123D03*
%TD*%
D14*
%TO.C,D22*%
X138334000Y-130556000D03*
X136134000Y-130556000D03*
%TD*%
D22*
%TO.C,JSPI2*%
X157295000Y-79562000D03*
D23*
X157295000Y-81062000D03*
X157295000Y-82562000D03*
X157295000Y-84062000D03*
X157295000Y-85562000D03*
X157295000Y-87062000D03*
%TD*%
D24*
%TO.C,L1*%
X92352000Y-85471000D03*
X98402000Y-85471000D03*
%TD*%
D15*
%TO.C,AN3*%
X146026000Y-70104000D03*
D16*
X144526000Y-70104000D03*
X143026000Y-70104000D03*
%TD*%
D15*
%TO.C,AN12*%
X130937000Y-65024000D03*
D16*
X129437000Y-65024000D03*
X127937000Y-65024000D03*
%TD*%
D14*
%TO.C,D32*%
X118532000Y-133096000D03*
X116332000Y-133096000D03*
%TD*%
%TO.C,D26*%
X118532000Y-128016000D03*
X116332000Y-128016000D03*
%TD*%
%TO.C,D40*%
X148245000Y-138176000D03*
X146045000Y-138176000D03*
%TD*%
D12*
%TO.C,R3*%
X110640500Y-77851000D03*
X108815500Y-77851000D03*
%TD*%
D13*
%TO.C,C3*%
X101092000Y-81076000D03*
X101092000Y-84201000D03*
%TD*%
D14*
%TO.C,D2*%
X98715000Y-135636000D03*
X96515000Y-135636000D03*
%TD*%
%TO.C,D16*%
X128438000Y-122920210D03*
X126238000Y-122920210D03*
%TD*%
D25*
%TO.C,C1*%
X110236000Y-84837100D03*
X110236000Y-86562100D03*
%TD*%
D18*
%TO.C,R1*%
X94424338Y-72627127D03*
X94424338Y-74452127D03*
%TD*%
D14*
%TO.C,D60*%
X118532000Y-140716000D03*
X116332000Y-140716000D03*
%TD*%
D15*
%TO.C,AN2*%
X146026000Y-75184000D03*
D16*
X144526000Y-75184000D03*
X143026000Y-75184000D03*
%TD*%
D14*
%TO.C,D65*%
X167968000Y-140716000D03*
X165768000Y-140716000D03*
%TD*%
D12*
%TO.C,R11*%
X103171000Y-120142000D03*
X101346000Y-120142000D03*
%TD*%
D14*
%TO.C,D46*%
X148245163Y-122936000D03*
X146045163Y-122936000D03*
%TD*%
%TO.C,D44*%
X148245000Y-128016000D03*
X146045000Y-128016000D03*
%TD*%
D26*
%TO.C,C8*%
X102260400Y-93166100D03*
X102260400Y-91441100D03*
%TD*%
D22*
%TO.C,JSPI4*%
X152469000Y-67751000D03*
D23*
X152469000Y-69251000D03*
X152469000Y-70751000D03*
X152469000Y-72251000D03*
X152469000Y-73751000D03*
X152469000Y-75251000D03*
%TD*%
D10*
%TO.C,J28*%
X169037000Y-73242714D03*
D17*
X169037000Y-70702714D03*
X171577000Y-73242714D03*
X171577000Y-70702714D03*
X174117000Y-73242714D03*
X174117000Y-70702714D03*
X176657000Y-73242714D03*
X176657000Y-70702714D03*
X179197000Y-73242714D03*
X179197000Y-70702714D03*
X181737000Y-73242714D03*
X181737000Y-70702714D03*
X184277000Y-73242714D03*
X184277000Y-70702714D03*
X186817000Y-73242714D03*
X186817000Y-70702714D03*
%TD*%
D14*
%TO.C,D17*%
X138334000Y-125476000D03*
X136134000Y-125476000D03*
%TD*%
D15*
%TO.C,AN7*%
X138430000Y-70104000D03*
D16*
X136930000Y-70104000D03*
X135430000Y-70104000D03*
%TD*%
D10*
%TO.C,JR4*%
X123698000Y-140700210D03*
D17*
X121158000Y-140700210D03*
X123698000Y-138160210D03*
X121158000Y-138160210D03*
X123698000Y-135620210D03*
X121158000Y-135620210D03*
X123698000Y-133080210D03*
X121158000Y-133080210D03*
X123698000Y-130540210D03*
X121158000Y-130540210D03*
X123698000Y-128000210D03*
X121158000Y-128000210D03*
X123698000Y-125460210D03*
X121158000Y-125460210D03*
X123698000Y-122920210D03*
X121158000Y-122920210D03*
%TD*%
D18*
%TO.C,R7*%
X143510000Y-101957500D03*
X143510000Y-103782500D03*
%TD*%
D19*
%TO.C,H2*%
X186436000Y-58674000D03*
D20*
X186436000Y-58674000D03*
%TD*%
D14*
%TO.C,D34*%
X118532000Y-130556000D03*
X116332000Y-130556000D03*
%TD*%
D21*
%TO.C,C15*%
X106045000Y-62903500D03*
X106045000Y-59778500D03*
%TD*%
D27*
%TO.C,U1*%
X96890000Y-78122011D03*
X96890000Y-77172011D03*
X96890000Y-76222011D03*
X94615000Y-76222011D03*
X94615000Y-77172011D03*
X94615000Y-78122011D03*
%TD*%
D28*
%TO.C,J2*%
X103409000Y-66098500D03*
D29*
X97409000Y-66098500D03*
D30*
X100409000Y-70798500D03*
%TD*%
D31*
%TO.C,U5*%
X153543000Y-97598000D03*
X154813000Y-97598000D03*
X156083000Y-97598000D03*
X157353000Y-97598000D03*
X158623000Y-97598000D03*
X159893000Y-97598000D03*
X161163000Y-97598000D03*
X162433000Y-97598000D03*
X162433000Y-92648000D03*
X161163000Y-92648000D03*
X159893000Y-92648000D03*
X158623000Y-92648000D03*
X157353000Y-92648000D03*
X156083000Y-92648000D03*
X154813000Y-92648000D03*
X153543000Y-92648000D03*
%TD*%
D26*
%TO.C,C14*%
X114173000Y-79348500D03*
X114173000Y-77623500D03*
%TD*%
D14*
%TO.C,D6*%
X108626000Y-128016000D03*
X106426000Y-128016000D03*
%TD*%
D10*
%TO.C,J27*%
X169037000Y-88410142D03*
D17*
X169037000Y-85870142D03*
X171577000Y-88410142D03*
X171577000Y-85870142D03*
X174117000Y-88410142D03*
X174117000Y-85870142D03*
X176657000Y-88410142D03*
X176657000Y-85870142D03*
X179197000Y-88410142D03*
X179197000Y-85870142D03*
X181737000Y-88410142D03*
X181737000Y-85870142D03*
X184277000Y-88410142D03*
X184277000Y-85870142D03*
X186817000Y-88410142D03*
X186817000Y-85870142D03*
%TD*%
D14*
%TO.C,D19*%
X138334000Y-122936000D03*
X136134000Y-122936000D03*
%TD*%
%TO.C,D48*%
X158151000Y-138176000D03*
X155951000Y-138176000D03*
%TD*%
%TO.C,D21*%
X128438000Y-128000210D03*
X126238000Y-128000210D03*
%TD*%
D32*
%TO.C,C12*%
X171755900Y-137109200D03*
X173480900Y-137109200D03*
%TD*%
D14*
%TO.C,D8*%
X108626000Y-130556000D03*
X106426000Y-130556000D03*
%TD*%
D18*
%TO.C,R6*%
X100584000Y-91340300D03*
X100584000Y-93165300D03*
%TD*%
D10*
%TO.C,J29*%
X169037000Y-65659000D03*
D17*
X169037000Y-63119000D03*
X171577000Y-65659000D03*
X171577000Y-63119000D03*
X174117000Y-65659000D03*
X174117000Y-63119000D03*
X176657000Y-65659000D03*
X176657000Y-63119000D03*
X179197000Y-65659000D03*
X179197000Y-63119000D03*
X181737000Y-65659000D03*
X181737000Y-63119000D03*
X184277000Y-65659000D03*
X184277000Y-63119000D03*
X186817000Y-65659000D03*
X186817000Y-63119000D03*
%TD*%
D22*
%TO.C,J30*%
X147135000Y-96810000D03*
D23*
X147135000Y-98310000D03*
X147135000Y-99810000D03*
X147135000Y-101310000D03*
%TD*%
D14*
%TO.C,D12*%
X98715000Y-138176000D03*
X96515000Y-138176000D03*
%TD*%
%TO.C,D28*%
X128438000Y-135620210D03*
X126238000Y-135620210D03*
%TD*%
%TO.C,D24*%
X138334000Y-133096000D03*
X136134000Y-133096000D03*
%TD*%
%TO.C,D11*%
X98715000Y-133096000D03*
X96515000Y-133096000D03*
%TD*%
%TO.C,D18*%
X128438000Y-125460210D03*
X126238000Y-125460210D03*
%TD*%
%TO.C,D15*%
X108626000Y-125476000D03*
X106426000Y-125476000D03*
%TD*%
D10*
%TO.C,J35*%
X169037000Y-95993856D03*
D17*
X169037000Y-93453856D03*
X171577000Y-95993856D03*
X171577000Y-93453856D03*
X174117000Y-95993856D03*
X174117000Y-93453856D03*
X176657000Y-95993856D03*
X176657000Y-93453856D03*
X179197000Y-95993856D03*
X179197000Y-93453856D03*
X181737000Y-95993856D03*
X181737000Y-93453856D03*
X184277000Y-95993856D03*
X184277000Y-93453856D03*
X186817000Y-95993856D03*
X186817000Y-93453856D03*
%TD*%
D10*
%TO.C,J33*%
X168910000Y-118745000D03*
D17*
X168910000Y-116205000D03*
X171450000Y-118745000D03*
X171450000Y-116205000D03*
X173990000Y-118745000D03*
X173990000Y-116205000D03*
X176530000Y-118745000D03*
X176530000Y-116205000D03*
X179070000Y-118745000D03*
X179070000Y-116205000D03*
X181610000Y-118745000D03*
X181610000Y-116205000D03*
X184150000Y-118745000D03*
X184150000Y-116205000D03*
X186690000Y-118745000D03*
X186690000Y-116205000D03*
%TD*%
D19*
%TO.C,H3*%
X91694000Y-144907000D03*
D20*
X91694000Y-144907000D03*
%TD*%
D33*
%TO.C,Q1*%
X109474000Y-74917000D03*
X114046000Y-74917000D03*
D34*
X111760000Y-68387000D03*
%TD*%
D15*
%TO.C,AN16*%
X130937000Y-80137000D03*
D16*
X129437000Y-80137000D03*
X127937000Y-80137000D03*
%TD*%
D21*
%TO.C,C10*%
X150622000Y-115227500D03*
X150622000Y-112102500D03*
%TD*%
D10*
%TO.C,JR7*%
X153416000Y-140716000D03*
D17*
X150876000Y-140716000D03*
X153416000Y-138176000D03*
X150876000Y-138176000D03*
X153416000Y-135636000D03*
X150876000Y-135636000D03*
X153416000Y-133096000D03*
X150876000Y-133096000D03*
X153416000Y-130556000D03*
X150876000Y-130556000D03*
X153416000Y-128016000D03*
X150876000Y-128016000D03*
X153416000Y-125476000D03*
X150876000Y-125476000D03*
X153416000Y-122936000D03*
X150876000Y-122936000D03*
%TD*%
D10*
%TO.C,JR2*%
X103886000Y-140716000D03*
D17*
X101346000Y-140716000D03*
X103886000Y-138176000D03*
X101346000Y-138176000D03*
X103886000Y-135636000D03*
X101346000Y-135636000D03*
X103886000Y-133096000D03*
X101346000Y-133096000D03*
X103886000Y-130556000D03*
X101346000Y-130556000D03*
X103886000Y-128016000D03*
X101346000Y-128016000D03*
X103886000Y-125476000D03*
X101346000Y-125476000D03*
X103886000Y-122936000D03*
X101346000Y-122936000D03*
%TD*%
D14*
%TO.C,D54*%
X167968000Y-122936000D03*
X165768000Y-122936000D03*
%TD*%
%TO.C,D43*%
X148245000Y-130556000D03*
X146045000Y-130556000D03*
%TD*%
%TO.C,D4*%
X108626000Y-122936000D03*
X106426000Y-122936000D03*
%TD*%
D12*
%TO.C,R16*%
X142795000Y-120142000D03*
X140970000Y-120142000D03*
%TD*%
D14*
%TO.C,D47*%
X158151000Y-122936000D03*
X155951000Y-122936000D03*
%TD*%
%TO.C,D63*%
X158151000Y-140716000D03*
X155951000Y-140716000D03*
%TD*%
%TO.C,D45*%
X148245000Y-125476000D03*
X146045000Y-125476000D03*
%TD*%
%TO.C,D50*%
X158151000Y-135636000D03*
X155951000Y-135636000D03*
%TD*%
D35*
%TO.C,R8*%
X149860000Y-98345000D03*
X149860000Y-96520000D03*
%TD*%
D12*
%TO.C,R13*%
X132889000Y-120142000D03*
X131064000Y-120142000D03*
%TD*%
D14*
%TO.C,D39*%
X158151000Y-130556000D03*
X155951000Y-130556000D03*
%TD*%
D10*
%TO.C,J26*%
X169037000Y-80826428D03*
D17*
X169037000Y-78286428D03*
X171577000Y-80826428D03*
X171577000Y-78286428D03*
X174117000Y-80826428D03*
X174117000Y-78286428D03*
X176657000Y-80826428D03*
X176657000Y-78286428D03*
X179197000Y-80826428D03*
X179197000Y-78286428D03*
X181737000Y-80826428D03*
X181737000Y-78286428D03*
X184277000Y-80826428D03*
X184277000Y-78286428D03*
X186817000Y-80826428D03*
X186817000Y-78286428D03*
%TD*%
D12*
%TO.C,R14*%
X152701000Y-120142000D03*
X150876000Y-120142000D03*
%TD*%
D15*
%TO.C,AN4*%
X146026000Y-65024000D03*
D16*
X144526000Y-65024000D03*
X143026000Y-65024000D03*
%TD*%
D14*
%TO.C,D51*%
X167968000Y-130556000D03*
X165768000Y-130556000D03*
%TD*%
D10*
%TO.C,J34*%
X169037000Y-111161284D03*
D17*
X169037000Y-108621284D03*
X171577000Y-111161284D03*
X171577000Y-108621284D03*
X174117000Y-111161284D03*
X174117000Y-108621284D03*
X176657000Y-111161284D03*
X176657000Y-108621284D03*
X179197000Y-111161284D03*
X179197000Y-108621284D03*
X181737000Y-111161284D03*
X181737000Y-108621284D03*
X184277000Y-111161284D03*
X184277000Y-108621284D03*
X186817000Y-111161284D03*
X186817000Y-108621284D03*
%TD*%
D10*
%TO.C,J32*%
X169037000Y-103577570D03*
D17*
X169037000Y-101037570D03*
X171577000Y-103577570D03*
X171577000Y-101037570D03*
X174117000Y-103577570D03*
X174117000Y-101037570D03*
X176657000Y-103577570D03*
X176657000Y-101037570D03*
X179197000Y-103577570D03*
X179197000Y-101037570D03*
X181737000Y-103577570D03*
X181737000Y-101037570D03*
X184277000Y-103577570D03*
X184277000Y-101037570D03*
X186817000Y-103577570D03*
X186817000Y-101037570D03*
%TD*%
D14*
%TO.C,D33*%
X118532000Y-135636000D03*
X116332000Y-135636000D03*
%TD*%
%TO.C,D55*%
X167968000Y-133096000D03*
X165768000Y-133096000D03*
%TD*%
D10*
%TO.C,JR8*%
X163228000Y-140716000D03*
D17*
X160688000Y-140716000D03*
X163228000Y-138176000D03*
X160688000Y-138176000D03*
X163228000Y-135636000D03*
X160688000Y-135636000D03*
X163228000Y-133096000D03*
X160688000Y-133096000D03*
X163228000Y-130556000D03*
X160688000Y-130556000D03*
X163228000Y-128016000D03*
X160688000Y-128016000D03*
X163228000Y-125476000D03*
X160688000Y-125476000D03*
X163228000Y-122936000D03*
X160688000Y-122936000D03*
%TD*%
D19*
%TO.C,H1*%
X91694000Y-58801000D03*
D20*
X91694000Y-58801000D03*
%TD*%
D10*
%TO.C,J1*%
X109235000Y-63119000D03*
D11*
X111775000Y-63119000D03*
X114315000Y-63119000D03*
%TD*%
D14*
%TO.C,D29*%
X118532000Y-125476000D03*
X116332000Y-125476000D03*
%TD*%
%TO.C,D7*%
X98715000Y-128016000D03*
X96515000Y-128016000D03*
%TD*%
%TO.C,D38*%
X158151000Y-133096000D03*
X155951000Y-133096000D03*
%TD*%
D36*
%TO.C,D1*%
X106680000Y-81593000D03*
X106680000Y-83643000D03*
%TD*%
D37*
%TO.C,U2*%
X111995000Y-92373000D03*
X112645000Y-92373000D03*
X113295000Y-92373000D03*
X113945000Y-92373000D03*
X114595000Y-92373000D03*
X115245000Y-92373000D03*
X115895000Y-92373000D03*
X116545000Y-92373000D03*
X117195000Y-92373000D03*
X117845000Y-92373000D03*
X118495000Y-92373000D03*
X119145000Y-92373000D03*
X119145000Y-85173000D03*
X118495000Y-85173000D03*
X117845000Y-85173000D03*
X117195000Y-85173000D03*
X116545000Y-85173000D03*
X115895000Y-85173000D03*
X115245000Y-85173000D03*
X114595000Y-85173000D03*
X113945000Y-85173000D03*
X113295000Y-85173000D03*
X112645000Y-85173000D03*
X111995000Y-85173000D03*
%TD*%
D38*
%TO.C,Q2*%
X108905000Y-81758000D03*
X110805000Y-81758000D03*
X109855000Y-79883000D03*
%TD*%
D18*
%TO.C,R18*%
X112649000Y-77954500D03*
X112649000Y-79779500D03*
%TD*%
D39*
%TO.C,U6*%
X153338000Y-102108000D03*
X153338000Y-103378000D03*
X153338000Y-104648000D03*
X153338000Y-105918000D03*
X153338000Y-107188000D03*
X153338000Y-108458000D03*
X153338000Y-109728000D03*
X153338000Y-110998000D03*
X153338000Y-112268000D03*
X153338000Y-113538000D03*
X153338000Y-114808000D03*
X153338000Y-116078000D03*
X162638000Y-116078000D03*
X162638000Y-114808000D03*
X162638000Y-113538000D03*
X162638000Y-112268000D03*
X162638000Y-110998000D03*
X162638000Y-109728000D03*
X162638000Y-108458000D03*
X162638000Y-107188000D03*
X162638000Y-105918000D03*
X162638000Y-104648000D03*
X162638000Y-103378000D03*
X162638000Y-102108000D03*
%TD*%
D14*
%TO.C,D37*%
X158151000Y-125476000D03*
X155951000Y-125476000D03*
%TD*%
D22*
%TO.C,JSPI5*%
X157295000Y-67751000D03*
D23*
X157295000Y-69251000D03*
X157295000Y-70751000D03*
X157295000Y-72251000D03*
X157295000Y-73751000D03*
X157295000Y-75251000D03*
%TD*%
D40*
%TO.C,R17*%
X108180500Y-93218000D03*
X110005500Y-93218000D03*
%TD*%
D22*
%TO.C,J31*%
X147135000Y-109891000D03*
D23*
X147135000Y-111391000D03*
X147135000Y-112891000D03*
X147135000Y-114391000D03*
%TD*%
D14*
%TO.C,D25*%
X128438000Y-133080210D03*
X126238000Y-133080210D03*
%TD*%
D22*
%TO.C,JSPI1*%
X152469000Y-79562000D03*
D23*
X152469000Y-81062000D03*
X152469000Y-82562000D03*
X152469000Y-84062000D03*
X152469000Y-85562000D03*
X152469000Y-87062000D03*
%TD*%
D32*
%TO.C,C5*%
X90858344Y-76946854D03*
X92583344Y-76946854D03*
%TD*%
D14*
%TO.C,D20*%
X138334000Y-128016000D03*
X136134000Y-128016000D03*
%TD*%
D15*
%TO.C,AN15*%
X130937000Y-75184000D03*
D16*
X129437000Y-75184000D03*
X127937000Y-75184000D03*
%TD*%
D38*
%TO.C,U3*%
X104018000Y-92885500D03*
X105918000Y-92885500D03*
X104968000Y-91010500D03*
%TD*%
D26*
%TO.C,C9*%
X151942800Y-92912100D03*
X151942800Y-91187100D03*
%TD*%
D14*
%TO.C,D64*%
X148245000Y-140716000D03*
X146045000Y-140716000D03*
%TD*%
%TO.C,D9*%
X98715000Y-130556000D03*
X96515000Y-130556000D03*
%TD*%
%TO.C,D57*%
X167968000Y-135636000D03*
X165768000Y-135636000D03*
%TD*%
%TO.C,D49*%
X158151000Y-128016000D03*
X155951000Y-128016000D03*
%TD*%
%TO.C,D5*%
X98715000Y-125476000D03*
X96515000Y-125476000D03*
%TD*%
D22*
%TO.C,JSPI6*%
X162121000Y-67751000D03*
D23*
X162121000Y-69251000D03*
X162121000Y-70751000D03*
X162121000Y-72251000D03*
X162121000Y-73751000D03*
X162121000Y-75251000D03*
%TD*%
D25*
%TO.C,C6*%
X92837000Y-78639500D03*
X92837000Y-80364500D03*
%TD*%
D14*
%TO.C,D36*%
X118532000Y-138176000D03*
X116332000Y-138176000D03*
%TD*%
%TO.C,D14*%
X108626000Y-135636000D03*
X106426000Y-135636000D03*
%TD*%
D41*
%TO.C,U7*%
X177989000Y-135255000D03*
X177989000Y-133985000D03*
X177989000Y-132715000D03*
X177989000Y-131445000D03*
X177989000Y-130175000D03*
X177989000Y-128905000D03*
X177989000Y-127635000D03*
X177989000Y-126365000D03*
X173039000Y-126365000D03*
X173039000Y-127635000D03*
X173039000Y-128905000D03*
X173039000Y-130175000D03*
X173039000Y-131445000D03*
X173039000Y-132715000D03*
X173039000Y-133985000D03*
X173039000Y-135255000D03*
%TD*%
D42*
%TO.C,C7*%
X92660000Y-73787000D03*
X90935000Y-73787000D03*
%TD*%
D10*
%TO.C,JR5*%
X133604000Y-140716000D03*
D17*
X131064000Y-140716000D03*
X133604000Y-138176000D03*
X131064000Y-138176000D03*
X133604000Y-135636000D03*
X131064000Y-135636000D03*
X133604000Y-133096000D03*
X131064000Y-133096000D03*
X133604000Y-130556000D03*
X131064000Y-130556000D03*
X133604000Y-128016000D03*
X131064000Y-128016000D03*
X133604000Y-125476000D03*
X131064000Y-125476000D03*
X133604000Y-122936000D03*
X131064000Y-122936000D03*
%TD*%
D14*
%TO.C,D61*%
X138334000Y-140716000D03*
X136134000Y-140716000D03*
%TD*%
%TO.C,D53*%
X167968000Y-128016000D03*
X165768000Y-128016000D03*
%TD*%
D42*
%TO.C,C11*%
X150874900Y-117297200D03*
X149149900Y-117297200D03*
%TD*%
D14*
%TO.C,D62*%
X128438000Y-140700210D03*
X126238000Y-140700210D03*
%TD*%
D22*
%TO.C,JSPI3*%
X162121000Y-79562000D03*
D23*
X162121000Y-81062000D03*
X162121000Y-82562000D03*
X162121000Y-84062000D03*
X162121000Y-85562000D03*
X162121000Y-87062000D03*
%TD*%
D12*
%TO.C,R15*%
X162480000Y-120142000D03*
X160655000Y-120142000D03*
%TD*%
D14*
%TO.C,D56*%
X167968000Y-138176000D03*
X165768000Y-138176000D03*
%TD*%
D32*
%TO.C,C13*%
X112319900Y-60452000D03*
X114044900Y-60452000D03*
%TD*%
D14*
%TO.C,D30*%
X138334000Y-138176000D03*
X136134000Y-138176000D03*
%TD*%
%TO.C,D27*%
X138334000Y-135636000D03*
X136134000Y-135636000D03*
%TD*%
D15*
%TO.C,AN6*%
X138430000Y-75184000D03*
D16*
X136930000Y-75184000D03*
X135430000Y-75184000D03*
%TD*%
M02*
