%TF.GenerationSoftware,KiCad,Pcbnew,9.0.3*%
%TF.CreationDate,2025-07-29T07:15:08-03:00*%
%TF.ProjectId,pi_controller,70695f63-6f6e-4747-926f-6c6c65722e6b,1.0*%
%TF.SameCoordinates,Original*%
%TF.FileFunction,Legend,Top*%
%TF.FilePolarity,Positive*%
%FSLAX46Y46*%
G04 Gerber Fmt 4.6, Leading zero omitted, Abs format (unit mm)*
G04 Created by KiCad (PCBNEW 9.0.3) date 2025-07-29 07:15:08*
%MOMM*%
%LPD*%
G01*
G04 APERTURE LIST*
G04 Aperture macros list*
%AMRoundRect*
0 Rectangle with rounded corners*
0 $1 Rounding radius*
0 $2 $3 $4 $5 $6 $7 $8 $9 X,Y pos of 4 corners*
0 Add a 4 corners polygon primitive as box body*
4,1,4,$2,$3,$4,$5,$6,$7,$8,$9,$2,$3,0*
0 Add four circle primitives for the rounded corners*
1,1,$1+$1,$2,$3*
1,1,$1+$1,$4,$5*
1,1,$1+$1,$6,$7*
1,1,$1+$1,$8,$9*
0 Add four rect primitives between the rounded corners*
20,1,$1+$1,$2,$3,$4,$5,0*
20,1,$1+$1,$4,$5,$6,$7,0*
20,1,$1+$1,$6,$7,$8,$9,0*
20,1,$1+$1,$8,$9,$2,$3,0*%
G04 Aperture macros list end*
%ADD10C,0.120000*%
%ADD11C,0.150000*%
%ADD12C,0.200000*%
%ADD13C,0.127000*%
%ADD14RoundRect,0.237500X0.250000X0.237500X-0.250000X0.237500X-0.250000X-0.237500X0.250000X-0.237500X0*%
%ADD15RoundRect,0.250000X-0.650000X0.412500X-0.650000X-0.412500X0.650000X-0.412500X0.650000X0.412500X0*%
%ADD16RoundRect,0.125000X0.125000X0.125000X-0.125000X0.125000X-0.125000X-0.125000X0.125000X-0.125000X0*%
%ADD17RoundRect,0.150000X0.150000X-0.825000X0.150000X0.825000X-0.150000X0.825000X-0.150000X-0.825000X0*%
%ADD18RoundRect,0.250000X0.265000X0.615000X-0.265000X0.615000X-0.265000X-0.615000X0.265000X-0.615000X0*%
%ADD19O,1.030000X1.730000*%
%ADD20R,1.700000X1.700000*%
%ADD21O,1.700000X1.700000*%
%ADD22RoundRect,0.237500X-0.237500X0.250000X-0.237500X-0.250000X0.237500X-0.250000X0.237500X0.250000X0*%
%ADD23C,2.600000*%
%ADD24C,3.800000*%
%ADD25RoundRect,0.250000X0.650000X-0.412500X0.650000X0.412500X-0.650000X0.412500X-0.650000X-0.412500X0*%
%ADD26RoundRect,0.250000X-0.615000X0.265000X-0.615000X-0.265000X0.615000X-0.265000X0.615000X0.265000X0*%
%ADD27O,1.730000X1.030000*%
%ADD28RoundRect,0.250000X-0.925000X-1.500000X0.925000X-1.500000X0.925000X1.500000X-0.925000X1.500000X0*%
%ADD29RoundRect,0.237500X-0.237500X0.300000X-0.237500X-0.300000X0.237500X-0.300000X0.237500X0.300000X0*%
%ADD30RoundRect,0.237500X0.237500X-0.300000X0.237500X0.300000X-0.237500X0.300000X-0.237500X-0.300000X0*%
%ADD31RoundRect,0.150000X0.512500X0.150000X-0.512500X0.150000X-0.512500X-0.150000X0.512500X-0.150000X0*%
%ADD32R,3.500000X3.500000*%
%ADD33RoundRect,0.750000X-0.750000X-1.000000X0.750000X-1.000000X0.750000X1.000000X-0.750000X1.000000X0*%
%ADD34RoundRect,0.875000X-0.875000X-0.875000X0.875000X-0.875000X0.875000X0.875000X-0.875000X0.875000X0*%
%ADD35RoundRect,0.237500X-0.300000X-0.237500X0.300000X-0.237500X0.300000X0.237500X-0.300000X0.237500X0*%
%ADD36R,0.970000X3.020000*%
%ADD37R,5.670000X6.320000*%
%ADD38RoundRect,0.237500X0.237500X-0.250000X0.237500X0.250000X-0.237500X0.250000X-0.237500X-0.250000X0*%
%ADD39C,1.700000*%
%ADD40RoundRect,0.250000X-0.450000X0.325000X-0.450000X-0.325000X0.450000X-0.325000X0.450000X0.325000X0*%
%ADD41R,0.450000X1.750000*%
%ADD42RoundRect,0.150000X0.150000X-0.587500X0.150000X0.587500X-0.150000X0.587500X-0.150000X-0.587500X0*%
%ADD43RoundRect,0.137500X-0.862500X-0.137500X0.862500X-0.137500X0.862500X0.137500X-0.862500X0.137500X0*%
%ADD44RoundRect,0.237500X-0.250000X-0.237500X0.250000X-0.237500X0.250000X0.237500X-0.250000X0.237500X0*%
%ADD45RoundRect,0.150000X0.825000X0.150000X-0.825000X0.150000X-0.825000X-0.150000X0.825000X-0.150000X0*%
%ADD46RoundRect,0.237500X0.300000X0.237500X-0.300000X0.237500X-0.300000X-0.237500X0.300000X-0.237500X0*%
G04 APERTURE END LIST*
D10*
X89834800Y-101498400D02*
X90728800Y-101498400D01*
D11*
X167576500Y-120777000D02*
X188023500Y-120777000D01*
X107543600Y-59588400D02*
X116687600Y-59588400D01*
X150050500Y-89154000D02*
X165735000Y-89154000D01*
X94551500Y-144526000D02*
X168338500Y-144526000D01*
X118745000Y-82169000D02*
X147828000Y-82169000D01*
D10*
X90728800Y-101707200D02*
X90728800Y-101498400D01*
X90728800Y-109733600D02*
X90728800Y-109524800D01*
X90728800Y-101727600D02*
X94335600Y-101726400D01*
D11*
X139878000Y-99923600D02*
G75*
G02*
X137998000Y-99923600I-940000J0D01*
G01*
X137998000Y-99923600D02*
G75*
G02*
X139878000Y-99923600I940000J0D01*
G01*
X139878000Y-111323600D02*
G75*
G02*
X137998000Y-111323600I-940000J0D01*
G01*
X137998000Y-111323600D02*
G75*
G02*
X139878000Y-111323600I940000J0D01*
G01*
X92878000Y-111323600D02*
G75*
G02*
X90998000Y-111323600I-940000J0D01*
G01*
X90998000Y-111323600D02*
G75*
G02*
X92878000Y-111323600I940000J0D01*
G01*
X140682023Y-116306213D02*
X89687400Y-116306600D01*
D10*
X90728800Y-109524800D02*
X94335600Y-109523600D01*
X89834800Y-109733600D02*
X90728800Y-109733600D01*
X89834800Y-109733600D02*
X89834800Y-101513600D01*
D11*
X141071600Y-95402400D02*
X141071600Y-115925600D01*
X92878000Y-99923600D02*
G75*
G02*
X90998000Y-99923600I-940000J0D01*
G01*
X90998000Y-99923600D02*
G75*
G02*
X92878000Y-99923600I940000J0D01*
G01*
D10*
X94348000Y-109523600D02*
X94348000Y-101723600D01*
D11*
X141071695Y-115934000D02*
G75*
G02*
X140690600Y-116306600I-372695J0D01*
G01*
X140699000Y-95021400D02*
G75*
G02*
X141071600Y-95394000I0J-372600D01*
G01*
X140699000Y-95021400D02*
X89687400Y-95021400D01*
X116808999Y-105466247D02*
X116475666Y-104990056D01*
X116237571Y-105466247D02*
X116237571Y-104466247D01*
X116237571Y-104466247D02*
X116618523Y-104466247D01*
X116618523Y-104466247D02*
X116713761Y-104513866D01*
X116713761Y-104513866D02*
X116761380Y-104561485D01*
X116761380Y-104561485D02*
X116808999Y-104656723D01*
X116808999Y-104656723D02*
X116808999Y-104799580D01*
X116808999Y-104799580D02*
X116761380Y-104894818D01*
X116761380Y-104894818D02*
X116713761Y-104942437D01*
X116713761Y-104942437D02*
X116618523Y-104990056D01*
X116618523Y-104990056D02*
X116237571Y-104990056D01*
X117666142Y-105466247D02*
X117666142Y-104942437D01*
X117666142Y-104942437D02*
X117618523Y-104847199D01*
X117618523Y-104847199D02*
X117523285Y-104799580D01*
X117523285Y-104799580D02*
X117332809Y-104799580D01*
X117332809Y-104799580D02*
X117237571Y-104847199D01*
X117666142Y-105418628D02*
X117570904Y-105466247D01*
X117570904Y-105466247D02*
X117332809Y-105466247D01*
X117332809Y-105466247D02*
X117237571Y-105418628D01*
X117237571Y-105418628D02*
X117189952Y-105323389D01*
X117189952Y-105323389D02*
X117189952Y-105228151D01*
X117189952Y-105228151D02*
X117237571Y-105132913D01*
X117237571Y-105132913D02*
X117332809Y-105085294D01*
X117332809Y-105085294D02*
X117570904Y-105085294D01*
X117570904Y-105085294D02*
X117666142Y-105037675D01*
X118094714Y-105418628D02*
X118189952Y-105466247D01*
X118189952Y-105466247D02*
X118380428Y-105466247D01*
X118380428Y-105466247D02*
X118475666Y-105418628D01*
X118475666Y-105418628D02*
X118523285Y-105323389D01*
X118523285Y-105323389D02*
X118523285Y-105275770D01*
X118523285Y-105275770D02*
X118475666Y-105180532D01*
X118475666Y-105180532D02*
X118380428Y-105132913D01*
X118380428Y-105132913D02*
X118237571Y-105132913D01*
X118237571Y-105132913D02*
X118142333Y-105085294D01*
X118142333Y-105085294D02*
X118094714Y-104990056D01*
X118094714Y-104990056D02*
X118094714Y-104942437D01*
X118094714Y-104942437D02*
X118142333Y-104847199D01*
X118142333Y-104847199D02*
X118237571Y-104799580D01*
X118237571Y-104799580D02*
X118380428Y-104799580D01*
X118380428Y-104799580D02*
X118475666Y-104847199D01*
X118951857Y-104799580D02*
X118951857Y-105799580D01*
X118951857Y-104847199D02*
X119047095Y-104799580D01*
X119047095Y-104799580D02*
X119237571Y-104799580D01*
X119237571Y-104799580D02*
X119332809Y-104847199D01*
X119332809Y-104847199D02*
X119380428Y-104894818D01*
X119380428Y-104894818D02*
X119428047Y-104990056D01*
X119428047Y-104990056D02*
X119428047Y-105275770D01*
X119428047Y-105275770D02*
X119380428Y-105371008D01*
X119380428Y-105371008D02*
X119332809Y-105418628D01*
X119332809Y-105418628D02*
X119237571Y-105466247D01*
X119237571Y-105466247D02*
X119047095Y-105466247D01*
X119047095Y-105466247D02*
X118951857Y-105418628D01*
X119856619Y-105466247D02*
X119856619Y-104466247D01*
X119856619Y-104847199D02*
X119951857Y-104799580D01*
X119951857Y-104799580D02*
X120142333Y-104799580D01*
X120142333Y-104799580D02*
X120237571Y-104847199D01*
X120237571Y-104847199D02*
X120285190Y-104894818D01*
X120285190Y-104894818D02*
X120332809Y-104990056D01*
X120332809Y-104990056D02*
X120332809Y-105275770D01*
X120332809Y-105275770D02*
X120285190Y-105371008D01*
X120285190Y-105371008D02*
X120237571Y-105418628D01*
X120237571Y-105418628D02*
X120142333Y-105466247D01*
X120142333Y-105466247D02*
X119951857Y-105466247D01*
X119951857Y-105466247D02*
X119856619Y-105418628D01*
X121142333Y-105418628D02*
X121047095Y-105466247D01*
X121047095Y-105466247D02*
X120856619Y-105466247D01*
X120856619Y-105466247D02*
X120761381Y-105418628D01*
X120761381Y-105418628D02*
X120713762Y-105323389D01*
X120713762Y-105323389D02*
X120713762Y-104942437D01*
X120713762Y-104942437D02*
X120761381Y-104847199D01*
X120761381Y-104847199D02*
X120856619Y-104799580D01*
X120856619Y-104799580D02*
X121047095Y-104799580D01*
X121047095Y-104799580D02*
X121142333Y-104847199D01*
X121142333Y-104847199D02*
X121189952Y-104942437D01*
X121189952Y-104942437D02*
X121189952Y-105037675D01*
X121189952Y-105037675D02*
X120713762Y-105132913D01*
X121618524Y-105466247D02*
X121618524Y-104799580D01*
X121618524Y-104990056D02*
X121666143Y-104894818D01*
X121666143Y-104894818D02*
X121713762Y-104847199D01*
X121713762Y-104847199D02*
X121809000Y-104799580D01*
X121809000Y-104799580D02*
X121904238Y-104799580D01*
X122237572Y-105466247D02*
X122237572Y-104799580D01*
X122237572Y-104990056D02*
X122285191Y-104894818D01*
X122285191Y-104894818D02*
X122332810Y-104847199D01*
X122332810Y-104847199D02*
X122428048Y-104799580D01*
X122428048Y-104799580D02*
X122523286Y-104799580D01*
X122761382Y-104799580D02*
X122999477Y-105466247D01*
X123237572Y-104799580D02*
X122999477Y-105466247D01*
X122999477Y-105466247D02*
X122904239Y-105704342D01*
X122904239Y-105704342D02*
X122856620Y-105751961D01*
X122856620Y-105751961D02*
X122761382Y-105799580D01*
X124380430Y-105466247D02*
X124380430Y-104466247D01*
X124380430Y-104466247D02*
X124761382Y-104466247D01*
X124761382Y-104466247D02*
X124856620Y-104513866D01*
X124856620Y-104513866D02*
X124904239Y-104561485D01*
X124904239Y-104561485D02*
X124951858Y-104656723D01*
X124951858Y-104656723D02*
X124951858Y-104799580D01*
X124951858Y-104799580D02*
X124904239Y-104894818D01*
X124904239Y-104894818D02*
X124856620Y-104942437D01*
X124856620Y-104942437D02*
X124761382Y-104990056D01*
X124761382Y-104990056D02*
X124380430Y-104990056D01*
X125380430Y-105466247D02*
X125380430Y-104799580D01*
X125380430Y-104466247D02*
X125332811Y-104513866D01*
X125332811Y-104513866D02*
X125380430Y-104561485D01*
X125380430Y-104561485D02*
X125428049Y-104513866D01*
X125428049Y-104513866D02*
X125380430Y-104466247D01*
X125380430Y-104466247D02*
X125380430Y-104561485D01*
X126618525Y-105466247D02*
X126618525Y-104466247D01*
X126618525Y-104466247D02*
X126999477Y-104466247D01*
X126999477Y-104466247D02*
X127094715Y-104513866D01*
X127094715Y-104513866D02*
X127142334Y-104561485D01*
X127142334Y-104561485D02*
X127189953Y-104656723D01*
X127189953Y-104656723D02*
X127189953Y-104799580D01*
X127189953Y-104799580D02*
X127142334Y-104894818D01*
X127142334Y-104894818D02*
X127094715Y-104942437D01*
X127094715Y-104942437D02*
X126999477Y-104990056D01*
X126999477Y-104990056D02*
X126618525Y-104990056D01*
X127618525Y-105466247D02*
X127618525Y-104799580D01*
X127618525Y-104466247D02*
X127570906Y-104513866D01*
X127570906Y-104513866D02*
X127618525Y-104561485D01*
X127618525Y-104561485D02*
X127666144Y-104513866D01*
X127666144Y-104513866D02*
X127618525Y-104466247D01*
X127618525Y-104466247D02*
X127618525Y-104561485D01*
X128523286Y-105418628D02*
X128428048Y-105466247D01*
X128428048Y-105466247D02*
X128237572Y-105466247D01*
X128237572Y-105466247D02*
X128142334Y-105418628D01*
X128142334Y-105418628D02*
X128094715Y-105371008D01*
X128094715Y-105371008D02*
X128047096Y-105275770D01*
X128047096Y-105275770D02*
X128047096Y-104990056D01*
X128047096Y-104990056D02*
X128094715Y-104894818D01*
X128094715Y-104894818D02*
X128142334Y-104847199D01*
X128142334Y-104847199D02*
X128237572Y-104799580D01*
X128237572Y-104799580D02*
X128428048Y-104799580D01*
X128428048Y-104799580D02*
X128523286Y-104847199D01*
X129094715Y-105466247D02*
X128999477Y-105418628D01*
X128999477Y-105418628D02*
X128951858Y-105371008D01*
X128951858Y-105371008D02*
X128904239Y-105275770D01*
X128904239Y-105275770D02*
X128904239Y-104990056D01*
X128904239Y-104990056D02*
X128951858Y-104894818D01*
X128951858Y-104894818D02*
X128999477Y-104847199D01*
X128999477Y-104847199D02*
X129094715Y-104799580D01*
X129094715Y-104799580D02*
X129237572Y-104799580D01*
X129237572Y-104799580D02*
X129332810Y-104847199D01*
X129332810Y-104847199D02*
X129380429Y-104894818D01*
X129380429Y-104894818D02*
X129428048Y-104990056D01*
X129428048Y-104990056D02*
X129428048Y-105275770D01*
X129428048Y-105275770D02*
X129380429Y-105371008D01*
X129380429Y-105371008D02*
X129332810Y-105418628D01*
X129332810Y-105418628D02*
X129237572Y-105466247D01*
X129237572Y-105466247D02*
X129094715Y-105466247D01*
X121523285Y-107028572D02*
X121666142Y-107076191D01*
X121666142Y-107076191D02*
X121904237Y-107076191D01*
X121904237Y-107076191D02*
X121999475Y-107028572D01*
X121999475Y-107028572D02*
X122047094Y-106980952D01*
X122047094Y-106980952D02*
X122094713Y-106885714D01*
X122094713Y-106885714D02*
X122094713Y-106790476D01*
X122094713Y-106790476D02*
X122047094Y-106695238D01*
X122047094Y-106695238D02*
X121999475Y-106647619D01*
X121999475Y-106647619D02*
X121904237Y-106600000D01*
X121904237Y-106600000D02*
X121713761Y-106552381D01*
X121713761Y-106552381D02*
X121618523Y-106504762D01*
X121618523Y-106504762D02*
X121570904Y-106457143D01*
X121570904Y-106457143D02*
X121523285Y-106361905D01*
X121523285Y-106361905D02*
X121523285Y-106266667D01*
X121523285Y-106266667D02*
X121570904Y-106171429D01*
X121570904Y-106171429D02*
X121618523Y-106123810D01*
X121618523Y-106123810D02*
X121713761Y-106076191D01*
X121713761Y-106076191D02*
X121951856Y-106076191D01*
X121951856Y-106076191D02*
X122094713Y-106123810D01*
X122666142Y-107076191D02*
X122570904Y-107028572D01*
X122570904Y-107028572D02*
X122523285Y-106933333D01*
X122523285Y-106933333D02*
X122523285Y-106076191D01*
X123189952Y-107076191D02*
X123094714Y-107028572D01*
X123094714Y-107028572D02*
X123047095Y-106980952D01*
X123047095Y-106980952D02*
X122999476Y-106885714D01*
X122999476Y-106885714D02*
X122999476Y-106600000D01*
X122999476Y-106600000D02*
X123047095Y-106504762D01*
X123047095Y-106504762D02*
X123094714Y-106457143D01*
X123094714Y-106457143D02*
X123189952Y-106409524D01*
X123189952Y-106409524D02*
X123332809Y-106409524D01*
X123332809Y-106409524D02*
X123428047Y-106457143D01*
X123428047Y-106457143D02*
X123475666Y-106504762D01*
X123475666Y-106504762D02*
X123523285Y-106600000D01*
X123523285Y-106600000D02*
X123523285Y-106885714D01*
X123523285Y-106885714D02*
X123475666Y-106980952D01*
X123475666Y-106980952D02*
X123428047Y-107028572D01*
X123428047Y-107028572D02*
X123332809Y-107076191D01*
X123332809Y-107076191D02*
X123189952Y-107076191D01*
X123809000Y-106409524D02*
X124189952Y-106409524D01*
X123951857Y-106076191D02*
X123951857Y-106933333D01*
X123951857Y-106933333D02*
X123999476Y-107028572D01*
X123999476Y-107028572D02*
X124094714Y-107076191D01*
X124094714Y-107076191D02*
X124189952Y-107076191D01*
D12*
X165300600Y-88196945D02*
X165348219Y-88054088D01*
X165348219Y-88054088D02*
X165348219Y-87815993D01*
X165348219Y-87815993D02*
X165300600Y-87720755D01*
X165300600Y-87720755D02*
X165252980Y-87673136D01*
X165252980Y-87673136D02*
X165157742Y-87625517D01*
X165157742Y-87625517D02*
X165062504Y-87625517D01*
X165062504Y-87625517D02*
X164967266Y-87673136D01*
X164967266Y-87673136D02*
X164919647Y-87720755D01*
X164919647Y-87720755D02*
X164872028Y-87815993D01*
X164872028Y-87815993D02*
X164824409Y-88006469D01*
X164824409Y-88006469D02*
X164776790Y-88101707D01*
X164776790Y-88101707D02*
X164729171Y-88149326D01*
X164729171Y-88149326D02*
X164633933Y-88196945D01*
X164633933Y-88196945D02*
X164538695Y-88196945D01*
X164538695Y-88196945D02*
X164443457Y-88149326D01*
X164443457Y-88149326D02*
X164395838Y-88101707D01*
X164395838Y-88101707D02*
X164348219Y-88006469D01*
X164348219Y-88006469D02*
X164348219Y-87768374D01*
X164348219Y-87768374D02*
X164395838Y-87625517D01*
X165348219Y-87196945D02*
X164348219Y-87196945D01*
X164348219Y-87196945D02*
X164348219Y-86815993D01*
X164348219Y-86815993D02*
X164395838Y-86720755D01*
X164395838Y-86720755D02*
X164443457Y-86673136D01*
X164443457Y-86673136D02*
X164538695Y-86625517D01*
X164538695Y-86625517D02*
X164681552Y-86625517D01*
X164681552Y-86625517D02*
X164776790Y-86673136D01*
X164776790Y-86673136D02*
X164824409Y-86720755D01*
X164824409Y-86720755D02*
X164872028Y-86815993D01*
X164872028Y-86815993D02*
X164872028Y-87196945D01*
X165348219Y-86196945D02*
X164348219Y-86196945D01*
X165348219Y-84958850D02*
X164348219Y-84958850D01*
X164681552Y-84482660D02*
X165348219Y-84482660D01*
X164776790Y-84482660D02*
X164729171Y-84435041D01*
X164729171Y-84435041D02*
X164681552Y-84339803D01*
X164681552Y-84339803D02*
X164681552Y-84196946D01*
X164681552Y-84196946D02*
X164729171Y-84101708D01*
X164729171Y-84101708D02*
X164824409Y-84054089D01*
X164824409Y-84054089D02*
X165348219Y-84054089D01*
X164681552Y-83720755D02*
X164681552Y-83339803D01*
X164348219Y-83577898D02*
X165205361Y-83577898D01*
X165205361Y-83577898D02*
X165300600Y-83530279D01*
X165300600Y-83530279D02*
X165348219Y-83435041D01*
X165348219Y-83435041D02*
X165348219Y-83339803D01*
X165300600Y-82625517D02*
X165348219Y-82720755D01*
X165348219Y-82720755D02*
X165348219Y-82911231D01*
X165348219Y-82911231D02*
X165300600Y-83006469D01*
X165300600Y-83006469D02*
X165205361Y-83054088D01*
X165205361Y-83054088D02*
X164824409Y-83054088D01*
X164824409Y-83054088D02*
X164729171Y-83006469D01*
X164729171Y-83006469D02*
X164681552Y-82911231D01*
X164681552Y-82911231D02*
X164681552Y-82720755D01*
X164681552Y-82720755D02*
X164729171Y-82625517D01*
X164729171Y-82625517D02*
X164824409Y-82577898D01*
X164824409Y-82577898D02*
X164919647Y-82577898D01*
X164919647Y-82577898D02*
X165014885Y-83054088D01*
X165348219Y-82149326D02*
X164681552Y-82149326D01*
X164872028Y-82149326D02*
X164776790Y-82101707D01*
X164776790Y-82101707D02*
X164729171Y-82054088D01*
X164729171Y-82054088D02*
X164681552Y-81958850D01*
X164681552Y-81958850D02*
X164681552Y-81863612D01*
X164681552Y-81673135D02*
X164681552Y-81292183D01*
X165348219Y-81530278D02*
X164491076Y-81530278D01*
X164491076Y-81530278D02*
X164395838Y-81482659D01*
X164395838Y-81482659D02*
X164348219Y-81387421D01*
X164348219Y-81387421D02*
X164348219Y-81292183D01*
X165348219Y-80530278D02*
X164824409Y-80530278D01*
X164824409Y-80530278D02*
X164729171Y-80577897D01*
X164729171Y-80577897D02*
X164681552Y-80673135D01*
X164681552Y-80673135D02*
X164681552Y-80863611D01*
X164681552Y-80863611D02*
X164729171Y-80958849D01*
X165300600Y-80530278D02*
X165348219Y-80625516D01*
X165348219Y-80625516D02*
X165348219Y-80863611D01*
X165348219Y-80863611D02*
X165300600Y-80958849D01*
X165300600Y-80958849D02*
X165205361Y-81006468D01*
X165205361Y-81006468D02*
X165110123Y-81006468D01*
X165110123Y-81006468D02*
X165014885Y-80958849D01*
X165014885Y-80958849D02*
X164967266Y-80863611D01*
X164967266Y-80863611D02*
X164967266Y-80625516D01*
X164967266Y-80625516D02*
X164919647Y-80530278D01*
X165300600Y-79625516D02*
X165348219Y-79720754D01*
X165348219Y-79720754D02*
X165348219Y-79911230D01*
X165348219Y-79911230D02*
X165300600Y-80006468D01*
X165300600Y-80006468D02*
X165252980Y-80054087D01*
X165252980Y-80054087D02*
X165157742Y-80101706D01*
X165157742Y-80101706D02*
X164872028Y-80101706D01*
X164872028Y-80101706D02*
X164776790Y-80054087D01*
X164776790Y-80054087D02*
X164729171Y-80006468D01*
X164729171Y-80006468D02*
X164681552Y-79911230D01*
X164681552Y-79911230D02*
X164681552Y-79720754D01*
X164681552Y-79720754D02*
X164729171Y-79625516D01*
X165300600Y-78815992D02*
X165348219Y-78911230D01*
X165348219Y-78911230D02*
X165348219Y-79101706D01*
X165348219Y-79101706D02*
X165300600Y-79196944D01*
X165300600Y-79196944D02*
X165205361Y-79244563D01*
X165205361Y-79244563D02*
X164824409Y-79244563D01*
X164824409Y-79244563D02*
X164729171Y-79196944D01*
X164729171Y-79196944D02*
X164681552Y-79101706D01*
X164681552Y-79101706D02*
X164681552Y-78911230D01*
X164681552Y-78911230D02*
X164729171Y-78815992D01*
X164729171Y-78815992D02*
X164824409Y-78768373D01*
X164824409Y-78768373D02*
X164919647Y-78768373D01*
X164919647Y-78768373D02*
X165014885Y-79244563D01*
X165300600Y-78387420D02*
X165348219Y-78292182D01*
X165348219Y-78292182D02*
X165348219Y-78101706D01*
X165348219Y-78101706D02*
X165300600Y-78006468D01*
X165300600Y-78006468D02*
X165205361Y-77958849D01*
X165205361Y-77958849D02*
X165157742Y-77958849D01*
X165157742Y-77958849D02*
X165062504Y-78006468D01*
X165062504Y-78006468D02*
X165014885Y-78101706D01*
X165014885Y-78101706D02*
X165014885Y-78244563D01*
X165014885Y-78244563D02*
X164967266Y-78339801D01*
X164967266Y-78339801D02*
X164872028Y-78387420D01*
X164872028Y-78387420D02*
X164824409Y-78387420D01*
X164824409Y-78387420D02*
X164729171Y-78339801D01*
X164729171Y-78339801D02*
X164681552Y-78244563D01*
X164681552Y-78244563D02*
X164681552Y-78101706D01*
X164681552Y-78101706D02*
X164729171Y-78006468D01*
D11*
X94729493Y-60829771D02*
X94681874Y-60782152D01*
X94681874Y-60782152D02*
X94586636Y-60639295D01*
X94586636Y-60639295D02*
X94539017Y-60544057D01*
X94539017Y-60544057D02*
X94491398Y-60401200D01*
X94491398Y-60401200D02*
X94443779Y-60163104D01*
X94443779Y-60163104D02*
X94443779Y-59972628D01*
X94443779Y-59972628D02*
X94491398Y-59734533D01*
X94491398Y-59734533D02*
X94539017Y-59591676D01*
X94539017Y-59591676D02*
X94586636Y-59496438D01*
X94586636Y-59496438D02*
X94681874Y-59353580D01*
X94681874Y-59353580D02*
X94729493Y-59305961D01*
X95539017Y-59782152D02*
X95539017Y-60448819D01*
X95300922Y-59401200D02*
X95062827Y-60115485D01*
X95062827Y-60115485D02*
X95681874Y-60115485D01*
X96062827Y-60353580D02*
X96110446Y-60401200D01*
X96110446Y-60401200D02*
X96062827Y-60448819D01*
X96062827Y-60448819D02*
X96015208Y-60401200D01*
X96015208Y-60401200D02*
X96062827Y-60353580D01*
X96062827Y-60353580D02*
X96062827Y-60448819D01*
X96491398Y-59544057D02*
X96539017Y-59496438D01*
X96539017Y-59496438D02*
X96634255Y-59448819D01*
X96634255Y-59448819D02*
X96872350Y-59448819D01*
X96872350Y-59448819D02*
X96967588Y-59496438D01*
X96967588Y-59496438D02*
X97015207Y-59544057D01*
X97015207Y-59544057D02*
X97062826Y-59639295D01*
X97062826Y-59639295D02*
X97062826Y-59734533D01*
X97062826Y-59734533D02*
X97015207Y-59877390D01*
X97015207Y-59877390D02*
X96443779Y-60448819D01*
X96443779Y-60448819D02*
X97062826Y-60448819D01*
X97348541Y-59448819D02*
X97681874Y-60448819D01*
X97681874Y-60448819D02*
X98015207Y-59448819D01*
X98967589Y-59782152D02*
X99348541Y-59782152D01*
X99110446Y-59448819D02*
X99110446Y-60305961D01*
X99110446Y-60305961D02*
X99158065Y-60401200D01*
X99158065Y-60401200D02*
X99253303Y-60448819D01*
X99253303Y-60448819D02*
X99348541Y-60448819D01*
X99824732Y-60448819D02*
X99729494Y-60401200D01*
X99729494Y-60401200D02*
X99681875Y-60353580D01*
X99681875Y-60353580D02*
X99634256Y-60258342D01*
X99634256Y-60258342D02*
X99634256Y-59972628D01*
X99634256Y-59972628D02*
X99681875Y-59877390D01*
X99681875Y-59877390D02*
X99729494Y-59829771D01*
X99729494Y-59829771D02*
X99824732Y-59782152D01*
X99824732Y-59782152D02*
X99967589Y-59782152D01*
X99967589Y-59782152D02*
X100062827Y-59829771D01*
X100062827Y-59829771D02*
X100110446Y-59877390D01*
X100110446Y-59877390D02*
X100158065Y-59972628D01*
X100158065Y-59972628D02*
X100158065Y-60258342D01*
X100158065Y-60258342D02*
X100110446Y-60353580D01*
X100110446Y-60353580D02*
X100062827Y-60401200D01*
X100062827Y-60401200D02*
X99967589Y-60448819D01*
X99967589Y-60448819D02*
X99824732Y-60448819D01*
X101872351Y-60448819D02*
X101300923Y-60448819D01*
X101586637Y-60448819D02*
X101586637Y-59448819D01*
X101586637Y-59448819D02*
X101491399Y-59591676D01*
X101491399Y-59591676D02*
X101396161Y-59686914D01*
X101396161Y-59686914D02*
X101300923Y-59734533D01*
X102443780Y-59877390D02*
X102348542Y-59829771D01*
X102348542Y-59829771D02*
X102300923Y-59782152D01*
X102300923Y-59782152D02*
X102253304Y-59686914D01*
X102253304Y-59686914D02*
X102253304Y-59639295D01*
X102253304Y-59639295D02*
X102300923Y-59544057D01*
X102300923Y-59544057D02*
X102348542Y-59496438D01*
X102348542Y-59496438D02*
X102443780Y-59448819D01*
X102443780Y-59448819D02*
X102634256Y-59448819D01*
X102634256Y-59448819D02*
X102729494Y-59496438D01*
X102729494Y-59496438D02*
X102777113Y-59544057D01*
X102777113Y-59544057D02*
X102824732Y-59639295D01*
X102824732Y-59639295D02*
X102824732Y-59686914D01*
X102824732Y-59686914D02*
X102777113Y-59782152D01*
X102777113Y-59782152D02*
X102729494Y-59829771D01*
X102729494Y-59829771D02*
X102634256Y-59877390D01*
X102634256Y-59877390D02*
X102443780Y-59877390D01*
X102443780Y-59877390D02*
X102348542Y-59925009D01*
X102348542Y-59925009D02*
X102300923Y-59972628D01*
X102300923Y-59972628D02*
X102253304Y-60067866D01*
X102253304Y-60067866D02*
X102253304Y-60258342D01*
X102253304Y-60258342D02*
X102300923Y-60353580D01*
X102300923Y-60353580D02*
X102348542Y-60401200D01*
X102348542Y-60401200D02*
X102443780Y-60448819D01*
X102443780Y-60448819D02*
X102634256Y-60448819D01*
X102634256Y-60448819D02*
X102729494Y-60401200D01*
X102729494Y-60401200D02*
X102777113Y-60353580D01*
X102777113Y-60353580D02*
X102824732Y-60258342D01*
X102824732Y-60258342D02*
X102824732Y-60067866D01*
X102824732Y-60067866D02*
X102777113Y-59972628D01*
X102777113Y-59972628D02*
X102729494Y-59925009D01*
X102729494Y-59925009D02*
X102634256Y-59877390D01*
X103110447Y-59448819D02*
X103443780Y-60448819D01*
X103443780Y-60448819D02*
X103777113Y-59448819D01*
X104015209Y-60829771D02*
X104062828Y-60782152D01*
X104062828Y-60782152D02*
X104158066Y-60639295D01*
X104158066Y-60639295D02*
X104205685Y-60544057D01*
X104205685Y-60544057D02*
X104253304Y-60401200D01*
X104253304Y-60401200D02*
X104300923Y-60163104D01*
X104300923Y-60163104D02*
X104300923Y-59972628D01*
X104300923Y-59972628D02*
X104253304Y-59734533D01*
X104253304Y-59734533D02*
X104205685Y-59591676D01*
X104205685Y-59591676D02*
X104158066Y-59496438D01*
X104158066Y-59496438D02*
X104062828Y-59353580D01*
X104062828Y-59353580D02*
X104015209Y-59305961D01*
D12*
X144139219Y-96404326D02*
X143139219Y-96404326D01*
X143234457Y-95975755D02*
X143186838Y-95928136D01*
X143186838Y-95928136D02*
X143139219Y-95832898D01*
X143139219Y-95832898D02*
X143139219Y-95594803D01*
X143139219Y-95594803D02*
X143186838Y-95499565D01*
X143186838Y-95499565D02*
X143234457Y-95451946D01*
X143234457Y-95451946D02*
X143329695Y-95404327D01*
X143329695Y-95404327D02*
X143424933Y-95404327D01*
X143424933Y-95404327D02*
X143567790Y-95451946D01*
X143567790Y-95451946D02*
X144139219Y-96023374D01*
X144139219Y-96023374D02*
X144139219Y-95404327D01*
X144043980Y-94404327D02*
X144091600Y-94451946D01*
X144091600Y-94451946D02*
X144139219Y-94594803D01*
X144139219Y-94594803D02*
X144139219Y-94690041D01*
X144139219Y-94690041D02*
X144091600Y-94832898D01*
X144091600Y-94832898D02*
X143996361Y-94928136D01*
X143996361Y-94928136D02*
X143901123Y-94975755D01*
X143901123Y-94975755D02*
X143710647Y-95023374D01*
X143710647Y-95023374D02*
X143567790Y-95023374D01*
X143567790Y-95023374D02*
X143377314Y-94975755D01*
X143377314Y-94975755D02*
X143282076Y-94928136D01*
X143282076Y-94928136D02*
X143186838Y-94832898D01*
X143186838Y-94832898D02*
X143139219Y-94690041D01*
X143139219Y-94690041D02*
X143139219Y-94594803D01*
X143139219Y-94594803D02*
X143186838Y-94451946D01*
X143186838Y-94451946D02*
X143234457Y-94404327D01*
X124067673Y-146044219D02*
X124067673Y-145044219D01*
X124639101Y-146044219D02*
X124210530Y-145472790D01*
X124639101Y-145044219D02*
X124067673Y-145615647D01*
X125448625Y-145996600D02*
X125353387Y-146044219D01*
X125353387Y-146044219D02*
X125162911Y-146044219D01*
X125162911Y-146044219D02*
X125067673Y-145996600D01*
X125067673Y-145996600D02*
X125020054Y-145901361D01*
X125020054Y-145901361D02*
X125020054Y-145520409D01*
X125020054Y-145520409D02*
X125067673Y-145425171D01*
X125067673Y-145425171D02*
X125162911Y-145377552D01*
X125162911Y-145377552D02*
X125353387Y-145377552D01*
X125353387Y-145377552D02*
X125448625Y-145425171D01*
X125448625Y-145425171D02*
X125496244Y-145520409D01*
X125496244Y-145520409D02*
X125496244Y-145615647D01*
X125496244Y-145615647D02*
X125020054Y-145710885D01*
X125829578Y-145377552D02*
X126067673Y-146044219D01*
X126305768Y-145377552D02*
X126067673Y-146044219D01*
X126067673Y-146044219D02*
X125972435Y-146282314D01*
X125972435Y-146282314D02*
X125924816Y-146329933D01*
X125924816Y-146329933D02*
X125829578Y-146377552D01*
X128162911Y-144996600D02*
X127305769Y-146282314D01*
X129258150Y-145520409D02*
X129591483Y-145520409D01*
X129734340Y-146044219D02*
X129258150Y-146044219D01*
X129258150Y-146044219D02*
X129258150Y-145044219D01*
X129258150Y-145044219D02*
X129734340Y-145044219D01*
X130162912Y-145377552D02*
X130162912Y-146044219D01*
X130162912Y-145472790D02*
X130210531Y-145425171D01*
X130210531Y-145425171D02*
X130305769Y-145377552D01*
X130305769Y-145377552D02*
X130448626Y-145377552D01*
X130448626Y-145377552D02*
X130543864Y-145425171D01*
X130543864Y-145425171D02*
X130591483Y-145520409D01*
X130591483Y-145520409D02*
X130591483Y-146044219D01*
X131496245Y-145996600D02*
X131401007Y-146044219D01*
X131401007Y-146044219D02*
X131210531Y-146044219D01*
X131210531Y-146044219D02*
X131115293Y-145996600D01*
X131115293Y-145996600D02*
X131067674Y-145948980D01*
X131067674Y-145948980D02*
X131020055Y-145853742D01*
X131020055Y-145853742D02*
X131020055Y-145568028D01*
X131020055Y-145568028D02*
X131067674Y-145472790D01*
X131067674Y-145472790D02*
X131115293Y-145425171D01*
X131115293Y-145425171D02*
X131210531Y-145377552D01*
X131210531Y-145377552D02*
X131401007Y-145377552D01*
X131401007Y-145377552D02*
X131496245Y-145425171D01*
X132067674Y-146044219D02*
X131972436Y-145996600D01*
X131972436Y-145996600D02*
X131924817Y-145948980D01*
X131924817Y-145948980D02*
X131877198Y-145853742D01*
X131877198Y-145853742D02*
X131877198Y-145568028D01*
X131877198Y-145568028D02*
X131924817Y-145472790D01*
X131924817Y-145472790D02*
X131972436Y-145425171D01*
X131972436Y-145425171D02*
X132067674Y-145377552D01*
X132067674Y-145377552D02*
X132210531Y-145377552D01*
X132210531Y-145377552D02*
X132305769Y-145425171D01*
X132305769Y-145425171D02*
X132353388Y-145472790D01*
X132353388Y-145472790D02*
X132401007Y-145568028D01*
X132401007Y-145568028D02*
X132401007Y-145853742D01*
X132401007Y-145853742D02*
X132353388Y-145948980D01*
X132353388Y-145948980D02*
X132305769Y-145996600D01*
X132305769Y-145996600D02*
X132210531Y-146044219D01*
X132210531Y-146044219D02*
X132067674Y-146044219D01*
X133258150Y-146044219D02*
X133258150Y-145044219D01*
X133258150Y-145996600D02*
X133162912Y-146044219D01*
X133162912Y-146044219D02*
X132972436Y-146044219D01*
X132972436Y-146044219D02*
X132877198Y-145996600D01*
X132877198Y-145996600D02*
X132829579Y-145948980D01*
X132829579Y-145948980D02*
X132781960Y-145853742D01*
X132781960Y-145853742D02*
X132781960Y-145568028D01*
X132781960Y-145568028D02*
X132829579Y-145472790D01*
X132829579Y-145472790D02*
X132877198Y-145425171D01*
X132877198Y-145425171D02*
X132972436Y-145377552D01*
X132972436Y-145377552D02*
X133162912Y-145377552D01*
X133162912Y-145377552D02*
X133258150Y-145425171D01*
X134115293Y-145996600D02*
X134020055Y-146044219D01*
X134020055Y-146044219D02*
X133829579Y-146044219D01*
X133829579Y-146044219D02*
X133734341Y-145996600D01*
X133734341Y-145996600D02*
X133686722Y-145901361D01*
X133686722Y-145901361D02*
X133686722Y-145520409D01*
X133686722Y-145520409D02*
X133734341Y-145425171D01*
X133734341Y-145425171D02*
X133829579Y-145377552D01*
X133829579Y-145377552D02*
X134020055Y-145377552D01*
X134020055Y-145377552D02*
X134115293Y-145425171D01*
X134115293Y-145425171D02*
X134162912Y-145520409D01*
X134162912Y-145520409D02*
X134162912Y-145615647D01*
X134162912Y-145615647D02*
X133686722Y-145710885D01*
X134591484Y-146044219D02*
X134591484Y-145377552D01*
X134591484Y-145568028D02*
X134639103Y-145472790D01*
X134639103Y-145472790D02*
X134686722Y-145425171D01*
X134686722Y-145425171D02*
X134781960Y-145377552D01*
X134781960Y-145377552D02*
X134877198Y-145377552D01*
X135972437Y-146044219D02*
X135972437Y-145044219D01*
X135972437Y-145044219D02*
X136305770Y-145758504D01*
X136305770Y-145758504D02*
X136639103Y-145044219D01*
X136639103Y-145044219D02*
X136639103Y-146044219D01*
X137543865Y-146044219D02*
X137543865Y-145520409D01*
X137543865Y-145520409D02*
X137496246Y-145425171D01*
X137496246Y-145425171D02*
X137401008Y-145377552D01*
X137401008Y-145377552D02*
X137210532Y-145377552D01*
X137210532Y-145377552D02*
X137115294Y-145425171D01*
X137543865Y-145996600D02*
X137448627Y-146044219D01*
X137448627Y-146044219D02*
X137210532Y-146044219D01*
X137210532Y-146044219D02*
X137115294Y-145996600D01*
X137115294Y-145996600D02*
X137067675Y-145901361D01*
X137067675Y-145901361D02*
X137067675Y-145806123D01*
X137067675Y-145806123D02*
X137115294Y-145710885D01*
X137115294Y-145710885D02*
X137210532Y-145663266D01*
X137210532Y-145663266D02*
X137448627Y-145663266D01*
X137448627Y-145663266D02*
X137543865Y-145615647D01*
X137877199Y-145377552D02*
X138258151Y-145377552D01*
X138020056Y-145044219D02*
X138020056Y-145901361D01*
X138020056Y-145901361D02*
X138067675Y-145996600D01*
X138067675Y-145996600D02*
X138162913Y-146044219D01*
X138162913Y-146044219D02*
X138258151Y-146044219D01*
X138591485Y-146044219D02*
X138591485Y-145377552D01*
X138591485Y-145568028D02*
X138639104Y-145472790D01*
X138639104Y-145472790D02*
X138686723Y-145425171D01*
X138686723Y-145425171D02*
X138781961Y-145377552D01*
X138781961Y-145377552D02*
X138877199Y-145377552D01*
X139210533Y-146044219D02*
X139210533Y-145377552D01*
X139210533Y-145044219D02*
X139162914Y-145091838D01*
X139162914Y-145091838D02*
X139210533Y-145139457D01*
X139210533Y-145139457D02*
X139258152Y-145091838D01*
X139258152Y-145091838D02*
X139210533Y-145044219D01*
X139210533Y-145044219D02*
X139210533Y-145139457D01*
X139591485Y-146044219D02*
X140115294Y-145377552D01*
X139591485Y-145377552D02*
X140115294Y-146044219D01*
X143139219Y-109993326D02*
X143948742Y-109993326D01*
X143948742Y-109993326D02*
X144043980Y-109945707D01*
X144043980Y-109945707D02*
X144091600Y-109898088D01*
X144091600Y-109898088D02*
X144139219Y-109802850D01*
X144139219Y-109802850D02*
X144139219Y-109612374D01*
X144139219Y-109612374D02*
X144091600Y-109517136D01*
X144091600Y-109517136D02*
X144043980Y-109469517D01*
X144043980Y-109469517D02*
X143948742Y-109421898D01*
X143948742Y-109421898D02*
X143139219Y-109421898D01*
X143853504Y-108993326D02*
X143853504Y-108517136D01*
X144139219Y-109088564D02*
X143139219Y-108755231D01*
X143139219Y-108755231D02*
X144139219Y-108421898D01*
X144139219Y-107517136D02*
X143663028Y-107850469D01*
X144139219Y-108088564D02*
X143139219Y-108088564D01*
X143139219Y-108088564D02*
X143139219Y-107707612D01*
X143139219Y-107707612D02*
X143186838Y-107612374D01*
X143186838Y-107612374D02*
X143234457Y-107564755D01*
X143234457Y-107564755D02*
X143329695Y-107517136D01*
X143329695Y-107517136D02*
X143472552Y-107517136D01*
X143472552Y-107517136D02*
X143567790Y-107564755D01*
X143567790Y-107564755D02*
X143615409Y-107612374D01*
X143615409Y-107612374D02*
X143663028Y-107707612D01*
X143663028Y-107707612D02*
X143663028Y-108088564D01*
X143139219Y-107231421D02*
X143139219Y-106659993D01*
X144139219Y-106945707D02*
X143139219Y-106945707D01*
X107811673Y-58846019D02*
X107811673Y-57846019D01*
X107811673Y-57846019D02*
X108192625Y-57846019D01*
X108192625Y-57846019D02*
X108287863Y-57893638D01*
X108287863Y-57893638D02*
X108335482Y-57941257D01*
X108335482Y-57941257D02*
X108383101Y-58036495D01*
X108383101Y-58036495D02*
X108383101Y-58179352D01*
X108383101Y-58179352D02*
X108335482Y-58274590D01*
X108335482Y-58274590D02*
X108287863Y-58322209D01*
X108287863Y-58322209D02*
X108192625Y-58369828D01*
X108192625Y-58369828D02*
X107811673Y-58369828D01*
X108716435Y-57846019D02*
X108954530Y-58846019D01*
X108954530Y-58846019D02*
X109145006Y-58131733D01*
X109145006Y-58131733D02*
X109335482Y-58846019D01*
X109335482Y-58846019D02*
X109573578Y-57846019D01*
X109954530Y-58846019D02*
X109954530Y-57846019D01*
X109954530Y-57846019D02*
X110287863Y-58560304D01*
X110287863Y-58560304D02*
X110621196Y-57846019D01*
X110621196Y-57846019D02*
X110621196Y-58846019D01*
X112049768Y-57846019D02*
X112240244Y-57846019D01*
X112240244Y-57846019D02*
X112335482Y-57893638D01*
X112335482Y-57893638D02*
X112430720Y-57988876D01*
X112430720Y-57988876D02*
X112478339Y-58179352D01*
X112478339Y-58179352D02*
X112478339Y-58512685D01*
X112478339Y-58512685D02*
X112430720Y-58703161D01*
X112430720Y-58703161D02*
X112335482Y-58798400D01*
X112335482Y-58798400D02*
X112240244Y-58846019D01*
X112240244Y-58846019D02*
X112049768Y-58846019D01*
X112049768Y-58846019D02*
X111954530Y-58798400D01*
X111954530Y-58798400D02*
X111859292Y-58703161D01*
X111859292Y-58703161D02*
X111811673Y-58512685D01*
X111811673Y-58512685D02*
X111811673Y-58179352D01*
X111811673Y-58179352D02*
X111859292Y-57988876D01*
X111859292Y-57988876D02*
X111954530Y-57893638D01*
X111954530Y-57893638D02*
X112049768Y-57846019D01*
X113335482Y-58179352D02*
X113335482Y-58846019D01*
X112906911Y-58179352D02*
X112906911Y-58703161D01*
X112906911Y-58703161D02*
X112954530Y-58798400D01*
X112954530Y-58798400D02*
X113049768Y-58846019D01*
X113049768Y-58846019D02*
X113192625Y-58846019D01*
X113192625Y-58846019D02*
X113287863Y-58798400D01*
X113287863Y-58798400D02*
X113335482Y-58750780D01*
X113668816Y-58179352D02*
X114049768Y-58179352D01*
X113811673Y-57846019D02*
X113811673Y-58703161D01*
X113811673Y-58703161D02*
X113859292Y-58798400D01*
X113859292Y-58798400D02*
X113954530Y-58846019D01*
X113954530Y-58846019D02*
X114049768Y-58846019D01*
X114383102Y-58179352D02*
X114383102Y-59179352D01*
X114383102Y-58226971D02*
X114478340Y-58179352D01*
X114478340Y-58179352D02*
X114668816Y-58179352D01*
X114668816Y-58179352D02*
X114764054Y-58226971D01*
X114764054Y-58226971D02*
X114811673Y-58274590D01*
X114811673Y-58274590D02*
X114859292Y-58369828D01*
X114859292Y-58369828D02*
X114859292Y-58655542D01*
X114859292Y-58655542D02*
X114811673Y-58750780D01*
X114811673Y-58750780D02*
X114764054Y-58798400D01*
X114764054Y-58798400D02*
X114668816Y-58846019D01*
X114668816Y-58846019D02*
X114478340Y-58846019D01*
X114478340Y-58846019D02*
X114383102Y-58798400D01*
X115716435Y-58179352D02*
X115716435Y-58846019D01*
X115287864Y-58179352D02*
X115287864Y-58703161D01*
X115287864Y-58703161D02*
X115335483Y-58798400D01*
X115335483Y-58798400D02*
X115430721Y-58846019D01*
X115430721Y-58846019D02*
X115573578Y-58846019D01*
X115573578Y-58846019D02*
X115668816Y-58798400D01*
X115668816Y-58798400D02*
X115716435Y-58750780D01*
X116049769Y-58179352D02*
X116430721Y-58179352D01*
X116192626Y-57846019D02*
X116192626Y-58703161D01*
X116192626Y-58703161D02*
X116240245Y-58798400D01*
X116240245Y-58798400D02*
X116335483Y-58846019D01*
X116335483Y-58846019D02*
X116430721Y-58846019D01*
X175216863Y-122422219D02*
X174740673Y-122422219D01*
X174740673Y-122422219D02*
X174740673Y-121422219D01*
X175550197Y-121898409D02*
X175883530Y-121898409D01*
X176026387Y-122422219D02*
X175550197Y-122422219D01*
X175550197Y-122422219D02*
X175550197Y-121422219D01*
X175550197Y-121422219D02*
X176026387Y-121422219D01*
X176454959Y-122422219D02*
X176454959Y-121422219D01*
X176454959Y-121422219D02*
X176693054Y-121422219D01*
X176693054Y-121422219D02*
X176835911Y-121469838D01*
X176835911Y-121469838D02*
X176931149Y-121565076D01*
X176931149Y-121565076D02*
X176978768Y-121660314D01*
X176978768Y-121660314D02*
X177026387Y-121850790D01*
X177026387Y-121850790D02*
X177026387Y-121993647D01*
X177026387Y-121993647D02*
X176978768Y-122184123D01*
X176978768Y-122184123D02*
X176931149Y-122279361D01*
X176931149Y-122279361D02*
X176835911Y-122374600D01*
X176835911Y-122374600D02*
X176693054Y-122422219D01*
X176693054Y-122422219D02*
X176454959Y-122422219D01*
X178216864Y-122422219D02*
X178216864Y-121422219D01*
X178216864Y-121422219D02*
X178550197Y-122136504D01*
X178550197Y-122136504D02*
X178883530Y-121422219D01*
X178883530Y-121422219D02*
X178883530Y-122422219D01*
X179788292Y-122422219D02*
X179788292Y-121898409D01*
X179788292Y-121898409D02*
X179740673Y-121803171D01*
X179740673Y-121803171D02*
X179645435Y-121755552D01*
X179645435Y-121755552D02*
X179454959Y-121755552D01*
X179454959Y-121755552D02*
X179359721Y-121803171D01*
X179788292Y-122374600D02*
X179693054Y-122422219D01*
X179693054Y-122422219D02*
X179454959Y-122422219D01*
X179454959Y-122422219D02*
X179359721Y-122374600D01*
X179359721Y-122374600D02*
X179312102Y-122279361D01*
X179312102Y-122279361D02*
X179312102Y-122184123D01*
X179312102Y-122184123D02*
X179359721Y-122088885D01*
X179359721Y-122088885D02*
X179454959Y-122041266D01*
X179454959Y-122041266D02*
X179693054Y-122041266D01*
X179693054Y-122041266D02*
X179788292Y-121993647D01*
X180121626Y-121755552D02*
X180502578Y-121755552D01*
X180264483Y-121422219D02*
X180264483Y-122279361D01*
X180264483Y-122279361D02*
X180312102Y-122374600D01*
X180312102Y-122374600D02*
X180407340Y-122422219D01*
X180407340Y-122422219D02*
X180502578Y-122422219D01*
X180835912Y-122422219D02*
X180835912Y-121755552D01*
X180835912Y-121946028D02*
X180883531Y-121850790D01*
X180883531Y-121850790D02*
X180931150Y-121803171D01*
X180931150Y-121803171D02*
X181026388Y-121755552D01*
X181026388Y-121755552D02*
X181121626Y-121755552D01*
X181454960Y-122422219D02*
X181454960Y-121755552D01*
X181454960Y-121422219D02*
X181407341Y-121469838D01*
X181407341Y-121469838D02*
X181454960Y-121517457D01*
X181454960Y-121517457D02*
X181502579Y-121469838D01*
X181502579Y-121469838D02*
X181454960Y-121422219D01*
X181454960Y-121422219D02*
X181454960Y-121517457D01*
X181835912Y-122422219D02*
X182359721Y-121755552D01*
X181835912Y-121755552D02*
X182359721Y-122422219D01*
X94460816Y-57541219D02*
X94794149Y-58541219D01*
X94794149Y-58541219D02*
X95127482Y-57541219D01*
X95460816Y-58541219D02*
X95460816Y-57874552D01*
X95460816Y-57541219D02*
X95413197Y-57588838D01*
X95413197Y-57588838D02*
X95460816Y-57636457D01*
X95460816Y-57636457D02*
X95508435Y-57588838D01*
X95508435Y-57588838D02*
X95460816Y-57541219D01*
X95460816Y-57541219D02*
X95460816Y-57636457D01*
X95937006Y-57874552D02*
X95937006Y-58541219D01*
X95937006Y-57969790D02*
X95984625Y-57922171D01*
X95984625Y-57922171D02*
X96079863Y-57874552D01*
X96079863Y-57874552D02*
X96222720Y-57874552D01*
X96222720Y-57874552D02*
X96317958Y-57922171D01*
X96317958Y-57922171D02*
X96365577Y-58017409D01*
X96365577Y-58017409D02*
X96365577Y-58541219D01*
X97651292Y-58541219D02*
X97841768Y-58541219D01*
X97841768Y-58541219D02*
X97937006Y-58493600D01*
X97937006Y-58493600D02*
X97984625Y-58445980D01*
X97984625Y-58445980D02*
X98079863Y-58303123D01*
X98079863Y-58303123D02*
X98127482Y-58112647D01*
X98127482Y-58112647D02*
X98127482Y-57731695D01*
X98127482Y-57731695D02*
X98079863Y-57636457D01*
X98079863Y-57636457D02*
X98032244Y-57588838D01*
X98032244Y-57588838D02*
X97937006Y-57541219D01*
X97937006Y-57541219D02*
X97746530Y-57541219D01*
X97746530Y-57541219D02*
X97651292Y-57588838D01*
X97651292Y-57588838D02*
X97603673Y-57636457D01*
X97603673Y-57636457D02*
X97556054Y-57731695D01*
X97556054Y-57731695D02*
X97556054Y-57969790D01*
X97556054Y-57969790D02*
X97603673Y-58065028D01*
X97603673Y-58065028D02*
X97651292Y-58112647D01*
X97651292Y-58112647D02*
X97746530Y-58160266D01*
X97746530Y-58160266D02*
X97937006Y-58160266D01*
X97937006Y-58160266D02*
X98032244Y-58112647D01*
X98032244Y-58112647D02*
X98079863Y-58065028D01*
X98079863Y-58065028D02*
X98127482Y-57969790D01*
X98413197Y-57541219D02*
X98746530Y-58541219D01*
X98746530Y-58541219D02*
X99079863Y-57541219D01*
X128084054Y-83401504D02*
X128560244Y-83401504D01*
X127988816Y-83687219D02*
X128322149Y-82687219D01*
X128322149Y-82687219D02*
X128655482Y-83687219D01*
X128988816Y-83020552D02*
X128988816Y-83687219D01*
X128988816Y-83115790D02*
X129036435Y-83068171D01*
X129036435Y-83068171D02*
X129131673Y-83020552D01*
X129131673Y-83020552D02*
X129274530Y-83020552D01*
X129274530Y-83020552D02*
X129369768Y-83068171D01*
X129369768Y-83068171D02*
X129417387Y-83163409D01*
X129417387Y-83163409D02*
X129417387Y-83687219D01*
X130322149Y-83687219D02*
X130322149Y-83163409D01*
X130322149Y-83163409D02*
X130274530Y-83068171D01*
X130274530Y-83068171D02*
X130179292Y-83020552D01*
X130179292Y-83020552D02*
X129988816Y-83020552D01*
X129988816Y-83020552D02*
X129893578Y-83068171D01*
X130322149Y-83639600D02*
X130226911Y-83687219D01*
X130226911Y-83687219D02*
X129988816Y-83687219D01*
X129988816Y-83687219D02*
X129893578Y-83639600D01*
X129893578Y-83639600D02*
X129845959Y-83544361D01*
X129845959Y-83544361D02*
X129845959Y-83449123D01*
X129845959Y-83449123D02*
X129893578Y-83353885D01*
X129893578Y-83353885D02*
X129988816Y-83306266D01*
X129988816Y-83306266D02*
X130226911Y-83306266D01*
X130226911Y-83306266D02*
X130322149Y-83258647D01*
X130941197Y-83687219D02*
X130845959Y-83639600D01*
X130845959Y-83639600D02*
X130798340Y-83544361D01*
X130798340Y-83544361D02*
X130798340Y-82687219D01*
X131465007Y-83687219D02*
X131369769Y-83639600D01*
X131369769Y-83639600D02*
X131322150Y-83591980D01*
X131322150Y-83591980D02*
X131274531Y-83496742D01*
X131274531Y-83496742D02*
X131274531Y-83211028D01*
X131274531Y-83211028D02*
X131322150Y-83115790D01*
X131322150Y-83115790D02*
X131369769Y-83068171D01*
X131369769Y-83068171D02*
X131465007Y-83020552D01*
X131465007Y-83020552D02*
X131607864Y-83020552D01*
X131607864Y-83020552D02*
X131703102Y-83068171D01*
X131703102Y-83068171D02*
X131750721Y-83115790D01*
X131750721Y-83115790D02*
X131798340Y-83211028D01*
X131798340Y-83211028D02*
X131798340Y-83496742D01*
X131798340Y-83496742D02*
X131750721Y-83591980D01*
X131750721Y-83591980D02*
X131703102Y-83639600D01*
X131703102Y-83639600D02*
X131607864Y-83687219D01*
X131607864Y-83687219D02*
X131465007Y-83687219D01*
X132655483Y-83020552D02*
X132655483Y-83830076D01*
X132655483Y-83830076D02*
X132607864Y-83925314D01*
X132607864Y-83925314D02*
X132560245Y-83972933D01*
X132560245Y-83972933D02*
X132465007Y-84020552D01*
X132465007Y-84020552D02*
X132322150Y-84020552D01*
X132322150Y-84020552D02*
X132226912Y-83972933D01*
X132655483Y-83639600D02*
X132560245Y-83687219D01*
X132560245Y-83687219D02*
X132369769Y-83687219D01*
X132369769Y-83687219D02*
X132274531Y-83639600D01*
X132274531Y-83639600D02*
X132226912Y-83591980D01*
X132226912Y-83591980D02*
X132179293Y-83496742D01*
X132179293Y-83496742D02*
X132179293Y-83211028D01*
X132179293Y-83211028D02*
X132226912Y-83115790D01*
X132226912Y-83115790D02*
X132274531Y-83068171D01*
X132274531Y-83068171D02*
X132369769Y-83020552D01*
X132369769Y-83020552D02*
X132560245Y-83020552D01*
X132560245Y-83020552D02*
X132655483Y-83068171D01*
X133893579Y-83687219D02*
X133893579Y-82687219D01*
X134369769Y-83020552D02*
X134369769Y-83687219D01*
X134369769Y-83115790D02*
X134417388Y-83068171D01*
X134417388Y-83068171D02*
X134512626Y-83020552D01*
X134512626Y-83020552D02*
X134655483Y-83020552D01*
X134655483Y-83020552D02*
X134750721Y-83068171D01*
X134750721Y-83068171D02*
X134798340Y-83163409D01*
X134798340Y-83163409D02*
X134798340Y-83687219D01*
X135274531Y-83020552D02*
X135274531Y-84020552D01*
X135274531Y-83068171D02*
X135369769Y-83020552D01*
X135369769Y-83020552D02*
X135560245Y-83020552D01*
X135560245Y-83020552D02*
X135655483Y-83068171D01*
X135655483Y-83068171D02*
X135703102Y-83115790D01*
X135703102Y-83115790D02*
X135750721Y-83211028D01*
X135750721Y-83211028D02*
X135750721Y-83496742D01*
X135750721Y-83496742D02*
X135703102Y-83591980D01*
X135703102Y-83591980D02*
X135655483Y-83639600D01*
X135655483Y-83639600D02*
X135560245Y-83687219D01*
X135560245Y-83687219D02*
X135369769Y-83687219D01*
X135369769Y-83687219D02*
X135274531Y-83639600D01*
X136607864Y-83020552D02*
X136607864Y-83687219D01*
X136179293Y-83020552D02*
X136179293Y-83544361D01*
X136179293Y-83544361D02*
X136226912Y-83639600D01*
X136226912Y-83639600D02*
X136322150Y-83687219D01*
X136322150Y-83687219D02*
X136465007Y-83687219D01*
X136465007Y-83687219D02*
X136560245Y-83639600D01*
X136560245Y-83639600D02*
X136607864Y-83591980D01*
X136941198Y-83020552D02*
X137322150Y-83020552D01*
X137084055Y-82687219D02*
X137084055Y-83544361D01*
X137084055Y-83544361D02*
X137131674Y-83639600D01*
X137131674Y-83639600D02*
X137226912Y-83687219D01*
X137226912Y-83687219D02*
X137322150Y-83687219D01*
X137607865Y-83639600D02*
X137703103Y-83687219D01*
X137703103Y-83687219D02*
X137893579Y-83687219D01*
X137893579Y-83687219D02*
X137988817Y-83639600D01*
X137988817Y-83639600D02*
X138036436Y-83544361D01*
X138036436Y-83544361D02*
X138036436Y-83496742D01*
X138036436Y-83496742D02*
X137988817Y-83401504D01*
X137988817Y-83401504D02*
X137893579Y-83353885D01*
X137893579Y-83353885D02*
X137750722Y-83353885D01*
X137750722Y-83353885D02*
X137655484Y-83306266D01*
X137655484Y-83306266D02*
X137607865Y-83211028D01*
X137607865Y-83211028D02*
X137607865Y-83163409D01*
X137607865Y-83163409D02*
X137655484Y-83068171D01*
X137655484Y-83068171D02*
X137750722Y-83020552D01*
X137750722Y-83020552D02*
X137893579Y-83020552D01*
X137893579Y-83020552D02*
X137988817Y-83068171D01*
D11*
X92185833Y-119199819D02*
X91852500Y-118723628D01*
X91614405Y-119199819D02*
X91614405Y-118199819D01*
X91614405Y-118199819D02*
X91995357Y-118199819D01*
X91995357Y-118199819D02*
X92090595Y-118247438D01*
X92090595Y-118247438D02*
X92138214Y-118295057D01*
X92138214Y-118295057D02*
X92185833Y-118390295D01*
X92185833Y-118390295D02*
X92185833Y-118533152D01*
X92185833Y-118533152D02*
X92138214Y-118628390D01*
X92138214Y-118628390D02*
X92090595Y-118676009D01*
X92090595Y-118676009D02*
X91995357Y-118723628D01*
X91995357Y-118723628D02*
X91614405Y-118723628D01*
X92662024Y-119199819D02*
X92852500Y-119199819D01*
X92852500Y-119199819D02*
X92947738Y-119152200D01*
X92947738Y-119152200D02*
X92995357Y-119104580D01*
X92995357Y-119104580D02*
X93090595Y-118961723D01*
X93090595Y-118961723D02*
X93138214Y-118771247D01*
X93138214Y-118771247D02*
X93138214Y-118390295D01*
X93138214Y-118390295D02*
X93090595Y-118295057D01*
X93090595Y-118295057D02*
X93042976Y-118247438D01*
X93042976Y-118247438D02*
X92947738Y-118199819D01*
X92947738Y-118199819D02*
X92757262Y-118199819D01*
X92757262Y-118199819D02*
X92662024Y-118247438D01*
X92662024Y-118247438D02*
X92614405Y-118295057D01*
X92614405Y-118295057D02*
X92566786Y-118390295D01*
X92566786Y-118390295D02*
X92566786Y-118628390D01*
X92566786Y-118628390D02*
X92614405Y-118723628D01*
X92614405Y-118723628D02*
X92662024Y-118771247D01*
X92662024Y-118771247D02*
X92757262Y-118818866D01*
X92757262Y-118818866D02*
X92947738Y-118818866D01*
X92947738Y-118818866D02*
X93042976Y-118771247D01*
X93042976Y-118771247D02*
X93090595Y-118723628D01*
X93090595Y-118723628D02*
X93138214Y-118628390D01*
X103991580Y-86478884D02*
X104039200Y-86526503D01*
X104039200Y-86526503D02*
X104086819Y-86669360D01*
X104086819Y-86669360D02*
X104086819Y-86764598D01*
X104086819Y-86764598D02*
X104039200Y-86907455D01*
X104039200Y-86907455D02*
X103943961Y-87002693D01*
X103943961Y-87002693D02*
X103848723Y-87050312D01*
X103848723Y-87050312D02*
X103658247Y-87097931D01*
X103658247Y-87097931D02*
X103515390Y-87097931D01*
X103515390Y-87097931D02*
X103324914Y-87050312D01*
X103324914Y-87050312D02*
X103229676Y-87002693D01*
X103229676Y-87002693D02*
X103134438Y-86907455D01*
X103134438Y-86907455D02*
X103086819Y-86764598D01*
X103086819Y-86764598D02*
X103086819Y-86669360D01*
X103086819Y-86669360D02*
X103134438Y-86526503D01*
X103134438Y-86526503D02*
X103182057Y-86478884D01*
X103182057Y-86097931D02*
X103134438Y-86050312D01*
X103134438Y-86050312D02*
X103086819Y-85955074D01*
X103086819Y-85955074D02*
X103086819Y-85716979D01*
X103086819Y-85716979D02*
X103134438Y-85621741D01*
X103134438Y-85621741D02*
X103182057Y-85574122D01*
X103182057Y-85574122D02*
X103277295Y-85526503D01*
X103277295Y-85526503D02*
X103372533Y-85526503D01*
X103372533Y-85526503D02*
X103515390Y-85574122D01*
X103515390Y-85574122D02*
X104086819Y-86145550D01*
X104086819Y-86145550D02*
X104086819Y-85526503D01*
X99149819Y-109118304D02*
X99959342Y-109118304D01*
X99959342Y-109118304D02*
X100054580Y-109070685D01*
X100054580Y-109070685D02*
X100102200Y-109023066D01*
X100102200Y-109023066D02*
X100149819Y-108927828D01*
X100149819Y-108927828D02*
X100149819Y-108737352D01*
X100149819Y-108737352D02*
X100102200Y-108642114D01*
X100102200Y-108642114D02*
X100054580Y-108594495D01*
X100054580Y-108594495D02*
X99959342Y-108546876D01*
X99959342Y-108546876D02*
X99149819Y-108546876D01*
X99578390Y-107927828D02*
X99530771Y-108023066D01*
X99530771Y-108023066D02*
X99483152Y-108070685D01*
X99483152Y-108070685D02*
X99387914Y-108118304D01*
X99387914Y-108118304D02*
X99340295Y-108118304D01*
X99340295Y-108118304D02*
X99245057Y-108070685D01*
X99245057Y-108070685D02*
X99197438Y-108023066D01*
X99197438Y-108023066D02*
X99149819Y-107927828D01*
X99149819Y-107927828D02*
X99149819Y-107737352D01*
X99149819Y-107737352D02*
X99197438Y-107642114D01*
X99197438Y-107642114D02*
X99245057Y-107594495D01*
X99245057Y-107594495D02*
X99340295Y-107546876D01*
X99340295Y-107546876D02*
X99387914Y-107546876D01*
X99387914Y-107546876D02*
X99483152Y-107594495D01*
X99483152Y-107594495D02*
X99530771Y-107642114D01*
X99530771Y-107642114D02*
X99578390Y-107737352D01*
X99578390Y-107737352D02*
X99578390Y-107927828D01*
X99578390Y-107927828D02*
X99626009Y-108023066D01*
X99626009Y-108023066D02*
X99673628Y-108070685D01*
X99673628Y-108070685D02*
X99768866Y-108118304D01*
X99768866Y-108118304D02*
X99959342Y-108118304D01*
X99959342Y-108118304D02*
X100054580Y-108070685D01*
X100054580Y-108070685D02*
X100102200Y-108023066D01*
X100102200Y-108023066D02*
X100149819Y-107927828D01*
X100149819Y-107927828D02*
X100149819Y-107737352D01*
X100149819Y-107737352D02*
X100102200Y-107642114D01*
X100102200Y-107642114D02*
X100054580Y-107594495D01*
X100054580Y-107594495D02*
X99959342Y-107546876D01*
X99959342Y-107546876D02*
X99768866Y-107546876D01*
X99768866Y-107546876D02*
X99673628Y-107594495D01*
X99673628Y-107594495D02*
X99626009Y-107642114D01*
X99626009Y-107642114D02*
X99578390Y-107737352D01*
X111521642Y-119199819D02*
X111188309Y-118723628D01*
X110950214Y-119199819D02*
X110950214Y-118199819D01*
X110950214Y-118199819D02*
X111331166Y-118199819D01*
X111331166Y-118199819D02*
X111426404Y-118247438D01*
X111426404Y-118247438D02*
X111474023Y-118295057D01*
X111474023Y-118295057D02*
X111521642Y-118390295D01*
X111521642Y-118390295D02*
X111521642Y-118533152D01*
X111521642Y-118533152D02*
X111474023Y-118628390D01*
X111474023Y-118628390D02*
X111426404Y-118676009D01*
X111426404Y-118676009D02*
X111331166Y-118723628D01*
X111331166Y-118723628D02*
X110950214Y-118723628D01*
X112474023Y-119199819D02*
X111902595Y-119199819D01*
X112188309Y-119199819D02*
X112188309Y-118199819D01*
X112188309Y-118199819D02*
X112093071Y-118342676D01*
X112093071Y-118342676D02*
X111997833Y-118437914D01*
X111997833Y-118437914D02*
X111902595Y-118485533D01*
X113093071Y-118199819D02*
X113188309Y-118199819D01*
X113188309Y-118199819D02*
X113283547Y-118247438D01*
X113283547Y-118247438D02*
X113331166Y-118295057D01*
X113331166Y-118295057D02*
X113378785Y-118390295D01*
X113378785Y-118390295D02*
X113426404Y-118580771D01*
X113426404Y-118580771D02*
X113426404Y-118818866D01*
X113426404Y-118818866D02*
X113378785Y-119009342D01*
X113378785Y-119009342D02*
X113331166Y-119104580D01*
X113331166Y-119104580D02*
X113283547Y-119152200D01*
X113283547Y-119152200D02*
X113188309Y-119199819D01*
X113188309Y-119199819D02*
X113093071Y-119199819D01*
X113093071Y-119199819D02*
X112997833Y-119152200D01*
X112997833Y-119152200D02*
X112950214Y-119104580D01*
X112950214Y-119104580D02*
X112902595Y-119009342D01*
X112902595Y-119009342D02*
X112854976Y-118818866D01*
X112854976Y-118818866D02*
X112854976Y-118580771D01*
X112854976Y-118580771D02*
X112902595Y-118390295D01*
X112902595Y-118390295D02*
X112950214Y-118295057D01*
X112950214Y-118295057D02*
X112997833Y-118247438D01*
X112997833Y-118247438D02*
X113093071Y-118199819D01*
X95178666Y-142964819D02*
X95178666Y-143679104D01*
X95178666Y-143679104D02*
X95131047Y-143821961D01*
X95131047Y-143821961D02*
X95035809Y-143917200D01*
X95035809Y-143917200D02*
X94892952Y-143964819D01*
X94892952Y-143964819D02*
X94797714Y-143964819D01*
X96226285Y-143964819D02*
X95892952Y-143488628D01*
X95654857Y-143964819D02*
X95654857Y-142964819D01*
X95654857Y-142964819D02*
X96035809Y-142964819D01*
X96035809Y-142964819D02*
X96131047Y-143012438D01*
X96131047Y-143012438D02*
X96178666Y-143060057D01*
X96178666Y-143060057D02*
X96226285Y-143155295D01*
X96226285Y-143155295D02*
X96226285Y-143298152D01*
X96226285Y-143298152D02*
X96178666Y-143393390D01*
X96178666Y-143393390D02*
X96131047Y-143441009D01*
X96131047Y-143441009D02*
X96035809Y-143488628D01*
X96035809Y-143488628D02*
X95654857Y-143488628D01*
X97178666Y-143964819D02*
X96607238Y-143964819D01*
X96892952Y-143964819D02*
X96892952Y-142964819D01*
X96892952Y-142964819D02*
X96797714Y-143107676D01*
X96797714Y-143107676D02*
X96702476Y-143202914D01*
X96702476Y-143202914D02*
X96607238Y-143250533D01*
X121427642Y-119199819D02*
X121094309Y-118723628D01*
X120856214Y-119199819D02*
X120856214Y-118199819D01*
X120856214Y-118199819D02*
X121237166Y-118199819D01*
X121237166Y-118199819D02*
X121332404Y-118247438D01*
X121332404Y-118247438D02*
X121380023Y-118295057D01*
X121380023Y-118295057D02*
X121427642Y-118390295D01*
X121427642Y-118390295D02*
X121427642Y-118533152D01*
X121427642Y-118533152D02*
X121380023Y-118628390D01*
X121380023Y-118628390D02*
X121332404Y-118676009D01*
X121332404Y-118676009D02*
X121237166Y-118723628D01*
X121237166Y-118723628D02*
X120856214Y-118723628D01*
X122380023Y-119199819D02*
X121808595Y-119199819D01*
X122094309Y-119199819D02*
X122094309Y-118199819D01*
X122094309Y-118199819D02*
X121999071Y-118342676D01*
X121999071Y-118342676D02*
X121903833Y-118437914D01*
X121903833Y-118437914D02*
X121808595Y-118485533D01*
X122760976Y-118295057D02*
X122808595Y-118247438D01*
X122808595Y-118247438D02*
X122903833Y-118199819D01*
X122903833Y-118199819D02*
X123141928Y-118199819D01*
X123141928Y-118199819D02*
X123237166Y-118247438D01*
X123237166Y-118247438D02*
X123284785Y-118295057D01*
X123284785Y-118295057D02*
X123332404Y-118390295D01*
X123332404Y-118390295D02*
X123332404Y-118485533D01*
X123332404Y-118485533D02*
X123284785Y-118628390D01*
X123284785Y-118628390D02*
X122713357Y-119199819D01*
X122713357Y-119199819D02*
X123332404Y-119199819D01*
X107642819Y-89193666D02*
X107166628Y-89526999D01*
X107642819Y-89765094D02*
X106642819Y-89765094D01*
X106642819Y-89765094D02*
X106642819Y-89384142D01*
X106642819Y-89384142D02*
X106690438Y-89288904D01*
X106690438Y-89288904D02*
X106738057Y-89241285D01*
X106738057Y-89241285D02*
X106833295Y-89193666D01*
X106833295Y-89193666D02*
X106976152Y-89193666D01*
X106976152Y-89193666D02*
X107071390Y-89241285D01*
X107071390Y-89241285D02*
X107119009Y-89288904D01*
X107119009Y-89288904D02*
X107166628Y-89384142D01*
X107166628Y-89384142D02*
X107166628Y-89765094D01*
X106976152Y-88336523D02*
X107642819Y-88336523D01*
X106595200Y-88574618D02*
X107309485Y-88812713D01*
X107309485Y-88812713D02*
X107309485Y-88193666D01*
X144708666Y-142964819D02*
X144708666Y-143679104D01*
X144708666Y-143679104D02*
X144661047Y-143821961D01*
X144661047Y-143821961D02*
X144565809Y-143917200D01*
X144565809Y-143917200D02*
X144422952Y-143964819D01*
X144422952Y-143964819D02*
X144327714Y-143964819D01*
X145756285Y-143964819D02*
X145422952Y-143488628D01*
X145184857Y-143964819D02*
X145184857Y-142964819D01*
X145184857Y-142964819D02*
X145565809Y-142964819D01*
X145565809Y-142964819D02*
X145661047Y-143012438D01*
X145661047Y-143012438D02*
X145708666Y-143060057D01*
X145708666Y-143060057D02*
X145756285Y-143155295D01*
X145756285Y-143155295D02*
X145756285Y-143298152D01*
X145756285Y-143298152D02*
X145708666Y-143393390D01*
X145708666Y-143393390D02*
X145661047Y-143441009D01*
X145661047Y-143441009D02*
X145565809Y-143488628D01*
X145565809Y-143488628D02*
X145184857Y-143488628D01*
X146613428Y-142964819D02*
X146422952Y-142964819D01*
X146422952Y-142964819D02*
X146327714Y-143012438D01*
X146327714Y-143012438D02*
X146280095Y-143060057D01*
X146280095Y-143060057D02*
X146184857Y-143202914D01*
X146184857Y-143202914D02*
X146137238Y-143393390D01*
X146137238Y-143393390D02*
X146137238Y-143774342D01*
X146137238Y-143774342D02*
X146184857Y-143869580D01*
X146184857Y-143869580D02*
X146232476Y-143917200D01*
X146232476Y-143917200D02*
X146327714Y-143964819D01*
X146327714Y-143964819D02*
X146518190Y-143964819D01*
X146518190Y-143964819D02*
X146613428Y-143917200D01*
X146613428Y-143917200D02*
X146661047Y-143869580D01*
X146661047Y-143869580D02*
X146708666Y-143774342D01*
X146708666Y-143774342D02*
X146708666Y-143536247D01*
X146708666Y-143536247D02*
X146661047Y-143441009D01*
X146661047Y-143441009D02*
X146613428Y-143393390D01*
X146613428Y-143393390D02*
X146518190Y-143345771D01*
X146518190Y-143345771D02*
X146327714Y-143345771D01*
X146327714Y-143345771D02*
X146232476Y-143393390D01*
X146232476Y-143393390D02*
X146184857Y-143441009D01*
X146184857Y-143441009D02*
X146137238Y-143536247D01*
X114990666Y-142964819D02*
X114990666Y-143679104D01*
X114990666Y-143679104D02*
X114943047Y-143821961D01*
X114943047Y-143821961D02*
X114847809Y-143917200D01*
X114847809Y-143917200D02*
X114704952Y-143964819D01*
X114704952Y-143964819D02*
X114609714Y-143964819D01*
X116038285Y-143964819D02*
X115704952Y-143488628D01*
X115466857Y-143964819D02*
X115466857Y-142964819D01*
X115466857Y-142964819D02*
X115847809Y-142964819D01*
X115847809Y-142964819D02*
X115943047Y-143012438D01*
X115943047Y-143012438D02*
X115990666Y-143060057D01*
X115990666Y-143060057D02*
X116038285Y-143155295D01*
X116038285Y-143155295D02*
X116038285Y-143298152D01*
X116038285Y-143298152D02*
X115990666Y-143393390D01*
X115990666Y-143393390D02*
X115943047Y-143441009D01*
X115943047Y-143441009D02*
X115847809Y-143488628D01*
X115847809Y-143488628D02*
X115466857Y-143488628D01*
X116371619Y-142964819D02*
X116990666Y-142964819D01*
X116990666Y-142964819D02*
X116657333Y-143345771D01*
X116657333Y-143345771D02*
X116800190Y-143345771D01*
X116800190Y-143345771D02*
X116895428Y-143393390D01*
X116895428Y-143393390D02*
X116943047Y-143441009D01*
X116943047Y-143441009D02*
X116990666Y-143536247D01*
X116990666Y-143536247D02*
X116990666Y-143774342D01*
X116990666Y-143774342D02*
X116943047Y-143869580D01*
X116943047Y-143869580D02*
X116895428Y-143917200D01*
X116895428Y-143917200D02*
X116800190Y-143964819D01*
X116800190Y-143964819D02*
X116514476Y-143964819D01*
X116514476Y-143964819D02*
X116419238Y-143917200D01*
X116419238Y-143917200D02*
X116371619Y-143869580D01*
X99546580Y-73889789D02*
X99594200Y-73937408D01*
X99594200Y-73937408D02*
X99641819Y-74080265D01*
X99641819Y-74080265D02*
X99641819Y-74175503D01*
X99641819Y-74175503D02*
X99594200Y-74318360D01*
X99594200Y-74318360D02*
X99498961Y-74413598D01*
X99498961Y-74413598D02*
X99403723Y-74461217D01*
X99403723Y-74461217D02*
X99213247Y-74508836D01*
X99213247Y-74508836D02*
X99070390Y-74508836D01*
X99070390Y-74508836D02*
X98879914Y-74461217D01*
X98879914Y-74461217D02*
X98784676Y-74413598D01*
X98784676Y-74413598D02*
X98689438Y-74318360D01*
X98689438Y-74318360D02*
X98641819Y-74175503D01*
X98641819Y-74175503D02*
X98641819Y-74080265D01*
X98641819Y-74080265D02*
X98689438Y-73937408D01*
X98689438Y-73937408D02*
X98737057Y-73889789D01*
X98975152Y-73032646D02*
X99641819Y-73032646D01*
X98594200Y-73270741D02*
X99308485Y-73508836D01*
X99308485Y-73508836D02*
X99308485Y-72889789D01*
X95210333Y-90474819D02*
X94734143Y-90474819D01*
X94734143Y-90474819D02*
X94734143Y-89474819D01*
X96067476Y-90474819D02*
X95496048Y-90474819D01*
X95781762Y-90474819D02*
X95781762Y-89474819D01*
X95781762Y-89474819D02*
X95686524Y-89617676D01*
X95686524Y-89617676D02*
X95591286Y-89712914D01*
X95591286Y-89712914D02*
X95496048Y-89760533D01*
X101451580Y-86416677D02*
X101499200Y-86464296D01*
X101499200Y-86464296D02*
X101546819Y-86607153D01*
X101546819Y-86607153D02*
X101546819Y-86702391D01*
X101546819Y-86702391D02*
X101499200Y-86845248D01*
X101499200Y-86845248D02*
X101403961Y-86940486D01*
X101403961Y-86940486D02*
X101308723Y-86988105D01*
X101308723Y-86988105D02*
X101118247Y-87035724D01*
X101118247Y-87035724D02*
X100975390Y-87035724D01*
X100975390Y-87035724D02*
X100784914Y-86988105D01*
X100784914Y-86988105D02*
X100689676Y-86940486D01*
X100689676Y-86940486D02*
X100594438Y-86845248D01*
X100594438Y-86845248D02*
X100546819Y-86702391D01*
X100546819Y-86702391D02*
X100546819Y-86607153D01*
X100546819Y-86607153D02*
X100594438Y-86464296D01*
X100594438Y-86464296D02*
X100642057Y-86416677D01*
X100546819Y-86083343D02*
X100546819Y-85464296D01*
X100546819Y-85464296D02*
X100927771Y-85797629D01*
X100927771Y-85797629D02*
X100927771Y-85654772D01*
X100927771Y-85654772D02*
X100975390Y-85559534D01*
X100975390Y-85559534D02*
X101023009Y-85511915D01*
X101023009Y-85511915D02*
X101118247Y-85464296D01*
X101118247Y-85464296D02*
X101356342Y-85464296D01*
X101356342Y-85464296D02*
X101451580Y-85511915D01*
X101451580Y-85511915D02*
X101499200Y-85559534D01*
X101499200Y-85559534D02*
X101546819Y-85654772D01*
X101546819Y-85654772D02*
X101546819Y-85940486D01*
X101546819Y-85940486D02*
X101499200Y-86035724D01*
X101499200Y-86035724D02*
X101451580Y-86083343D01*
X96309157Y-73706293D02*
X95832966Y-74039626D01*
X96309157Y-74277721D02*
X95309157Y-74277721D01*
X95309157Y-74277721D02*
X95309157Y-73896769D01*
X95309157Y-73896769D02*
X95356776Y-73801531D01*
X95356776Y-73801531D02*
X95404395Y-73753912D01*
X95404395Y-73753912D02*
X95499633Y-73706293D01*
X95499633Y-73706293D02*
X95642490Y-73706293D01*
X95642490Y-73706293D02*
X95737728Y-73753912D01*
X95737728Y-73753912D02*
X95785347Y-73801531D01*
X95785347Y-73801531D02*
X95832966Y-73896769D01*
X95832966Y-73896769D02*
X95832966Y-74277721D01*
X96309157Y-72753912D02*
X96309157Y-73325340D01*
X96309157Y-73039626D02*
X95309157Y-73039626D01*
X95309157Y-73039626D02*
X95452014Y-73134864D01*
X95452014Y-73134864D02*
X95547252Y-73230102D01*
X95547252Y-73230102D02*
X95594871Y-73325340D01*
X101592142Y-119199819D02*
X101258809Y-118723628D01*
X101020714Y-119199819D02*
X101020714Y-118199819D01*
X101020714Y-118199819D02*
X101401666Y-118199819D01*
X101401666Y-118199819D02*
X101496904Y-118247438D01*
X101496904Y-118247438D02*
X101544523Y-118295057D01*
X101544523Y-118295057D02*
X101592142Y-118390295D01*
X101592142Y-118390295D02*
X101592142Y-118533152D01*
X101592142Y-118533152D02*
X101544523Y-118628390D01*
X101544523Y-118628390D02*
X101496904Y-118676009D01*
X101496904Y-118676009D02*
X101401666Y-118723628D01*
X101401666Y-118723628D02*
X101020714Y-118723628D01*
X102544523Y-119199819D02*
X101973095Y-119199819D01*
X102258809Y-119199819D02*
X102258809Y-118199819D01*
X102258809Y-118199819D02*
X102163571Y-118342676D01*
X102163571Y-118342676D02*
X102068333Y-118437914D01*
X102068333Y-118437914D02*
X101973095Y-118485533D01*
X103496904Y-119199819D02*
X102925476Y-119199819D01*
X103211190Y-119199819D02*
X103211190Y-118199819D01*
X103211190Y-118199819D02*
X103115952Y-118342676D01*
X103115952Y-118342676D02*
X103020714Y-118437914D01*
X103020714Y-118437914D02*
X102925476Y-118485533D01*
X99521180Y-92470266D02*
X99568800Y-92517885D01*
X99568800Y-92517885D02*
X99616419Y-92660742D01*
X99616419Y-92660742D02*
X99616419Y-92755980D01*
X99616419Y-92755980D02*
X99568800Y-92898837D01*
X99568800Y-92898837D02*
X99473561Y-92994075D01*
X99473561Y-92994075D02*
X99378323Y-93041694D01*
X99378323Y-93041694D02*
X99187847Y-93089313D01*
X99187847Y-93089313D02*
X99044990Y-93089313D01*
X99044990Y-93089313D02*
X98854514Y-93041694D01*
X98854514Y-93041694D02*
X98759276Y-92994075D01*
X98759276Y-92994075D02*
X98664038Y-92898837D01*
X98664038Y-92898837D02*
X98616419Y-92755980D01*
X98616419Y-92755980D02*
X98616419Y-92660742D01*
X98616419Y-92660742D02*
X98664038Y-92517885D01*
X98664038Y-92517885D02*
X98711657Y-92470266D01*
X99044990Y-91898837D02*
X98997371Y-91994075D01*
X98997371Y-91994075D02*
X98949752Y-92041694D01*
X98949752Y-92041694D02*
X98854514Y-92089313D01*
X98854514Y-92089313D02*
X98806895Y-92089313D01*
X98806895Y-92089313D02*
X98711657Y-92041694D01*
X98711657Y-92041694D02*
X98664038Y-91994075D01*
X98664038Y-91994075D02*
X98616419Y-91898837D01*
X98616419Y-91898837D02*
X98616419Y-91708361D01*
X98616419Y-91708361D02*
X98664038Y-91613123D01*
X98664038Y-91613123D02*
X98711657Y-91565504D01*
X98711657Y-91565504D02*
X98806895Y-91517885D01*
X98806895Y-91517885D02*
X98854514Y-91517885D01*
X98854514Y-91517885D02*
X98949752Y-91565504D01*
X98949752Y-91565504D02*
X98997371Y-91613123D01*
X98997371Y-91613123D02*
X99044990Y-91708361D01*
X99044990Y-91708361D02*
X99044990Y-91898837D01*
X99044990Y-91898837D02*
X99092609Y-91994075D01*
X99092609Y-91994075D02*
X99140228Y-92041694D01*
X99140228Y-92041694D02*
X99235466Y-92089313D01*
X99235466Y-92089313D02*
X99425942Y-92089313D01*
X99425942Y-92089313D02*
X99521180Y-92041694D01*
X99521180Y-92041694D02*
X99568800Y-91994075D01*
X99568800Y-91994075D02*
X99616419Y-91898837D01*
X99616419Y-91898837D02*
X99616419Y-91708361D01*
X99616419Y-91708361D02*
X99568800Y-91613123D01*
X99568800Y-91613123D02*
X99521180Y-91565504D01*
X99521180Y-91565504D02*
X99425942Y-91517885D01*
X99425942Y-91517885D02*
X99235466Y-91517885D01*
X99235466Y-91517885D02*
X99140228Y-91565504D01*
X99140228Y-91565504D02*
X99092609Y-91613123D01*
X99092609Y-91613123D02*
X99044990Y-91708361D01*
X124896666Y-142949029D02*
X124896666Y-143663314D01*
X124896666Y-143663314D02*
X124849047Y-143806171D01*
X124849047Y-143806171D02*
X124753809Y-143901410D01*
X124753809Y-143901410D02*
X124610952Y-143949029D01*
X124610952Y-143949029D02*
X124515714Y-143949029D01*
X125944285Y-143949029D02*
X125610952Y-143472838D01*
X125372857Y-143949029D02*
X125372857Y-142949029D01*
X125372857Y-142949029D02*
X125753809Y-142949029D01*
X125753809Y-142949029D02*
X125849047Y-142996648D01*
X125849047Y-142996648D02*
X125896666Y-143044267D01*
X125896666Y-143044267D02*
X125944285Y-143139505D01*
X125944285Y-143139505D02*
X125944285Y-143282362D01*
X125944285Y-143282362D02*
X125896666Y-143377600D01*
X125896666Y-143377600D02*
X125849047Y-143425219D01*
X125849047Y-143425219D02*
X125753809Y-143472838D01*
X125753809Y-143472838D02*
X125372857Y-143472838D01*
X126801428Y-143282362D02*
X126801428Y-143949029D01*
X126563333Y-142901410D02*
X126325238Y-143615695D01*
X126325238Y-143615695D02*
X126944285Y-143615695D01*
X142567819Y-103671666D02*
X142091628Y-104004999D01*
X142567819Y-104243094D02*
X141567819Y-104243094D01*
X141567819Y-104243094D02*
X141567819Y-103862142D01*
X141567819Y-103862142D02*
X141615438Y-103766904D01*
X141615438Y-103766904D02*
X141663057Y-103719285D01*
X141663057Y-103719285D02*
X141758295Y-103671666D01*
X141758295Y-103671666D02*
X141901152Y-103671666D01*
X141901152Y-103671666D02*
X141996390Y-103719285D01*
X141996390Y-103719285D02*
X142044009Y-103766904D01*
X142044009Y-103766904D02*
X142091628Y-103862142D01*
X142091628Y-103862142D02*
X142091628Y-104243094D01*
X141567819Y-103338332D02*
X141567819Y-102671666D01*
X141567819Y-102671666D02*
X142567819Y-103100237D01*
X94993858Y-79158686D02*
X94993858Y-79968209D01*
X94993858Y-79968209D02*
X95041477Y-80063447D01*
X95041477Y-80063447D02*
X95089096Y-80111067D01*
X95089096Y-80111067D02*
X95184334Y-80158686D01*
X95184334Y-80158686D02*
X95374810Y-80158686D01*
X95374810Y-80158686D02*
X95470048Y-80111067D01*
X95470048Y-80111067D02*
X95517667Y-80063447D01*
X95517667Y-80063447D02*
X95565286Y-79968209D01*
X95565286Y-79968209D02*
X95565286Y-79158686D01*
X96565286Y-80158686D02*
X95993858Y-80158686D01*
X96279572Y-80158686D02*
X96279572Y-79158686D01*
X96279572Y-79158686D02*
X96184334Y-79301543D01*
X96184334Y-79301543D02*
X96089096Y-79396781D01*
X96089096Y-79396781D02*
X95993858Y-79444400D01*
X105203666Y-69685819D02*
X105203666Y-70400104D01*
X105203666Y-70400104D02*
X105156047Y-70542961D01*
X105156047Y-70542961D02*
X105060809Y-70638200D01*
X105060809Y-70638200D02*
X104917952Y-70685819D01*
X104917952Y-70685819D02*
X104822714Y-70685819D01*
X105632238Y-69781057D02*
X105679857Y-69733438D01*
X105679857Y-69733438D02*
X105775095Y-69685819D01*
X105775095Y-69685819D02*
X106013190Y-69685819D01*
X106013190Y-69685819D02*
X106108428Y-69733438D01*
X106108428Y-69733438D02*
X106156047Y-69781057D01*
X106156047Y-69781057D02*
X106203666Y-69876295D01*
X106203666Y-69876295D02*
X106203666Y-69971533D01*
X106203666Y-69971533D02*
X106156047Y-70114390D01*
X106156047Y-70114390D02*
X105584619Y-70685819D01*
X105584619Y-70685819D02*
X106203666Y-70685819D01*
X151542819Y-95884904D02*
X152352342Y-95884904D01*
X152352342Y-95884904D02*
X152447580Y-95837285D01*
X152447580Y-95837285D02*
X152495200Y-95789666D01*
X152495200Y-95789666D02*
X152542819Y-95694428D01*
X152542819Y-95694428D02*
X152542819Y-95503952D01*
X152542819Y-95503952D02*
X152495200Y-95408714D01*
X152495200Y-95408714D02*
X152447580Y-95361095D01*
X152447580Y-95361095D02*
X152352342Y-95313476D01*
X152352342Y-95313476D02*
X151542819Y-95313476D01*
X151542819Y-94361095D02*
X151542819Y-94837285D01*
X151542819Y-94837285D02*
X152019009Y-94884904D01*
X152019009Y-94884904D02*
X151971390Y-94837285D01*
X151971390Y-94837285D02*
X151923771Y-94742047D01*
X151923771Y-94742047D02*
X151923771Y-94503952D01*
X151923771Y-94503952D02*
X151971390Y-94408714D01*
X151971390Y-94408714D02*
X152019009Y-94361095D01*
X152019009Y-94361095D02*
X152114247Y-94313476D01*
X152114247Y-94313476D02*
X152352342Y-94313476D01*
X152352342Y-94313476D02*
X152447580Y-94361095D01*
X152447580Y-94361095D02*
X152495200Y-94408714D01*
X152495200Y-94408714D02*
X152542819Y-94503952D01*
X152542819Y-94503952D02*
X152542819Y-94742047D01*
X152542819Y-94742047D02*
X152495200Y-94837285D01*
X152495200Y-94837285D02*
X152447580Y-94884904D01*
X171823142Y-139043580D02*
X171775523Y-139091200D01*
X171775523Y-139091200D02*
X171632666Y-139138819D01*
X171632666Y-139138819D02*
X171537428Y-139138819D01*
X171537428Y-139138819D02*
X171394571Y-139091200D01*
X171394571Y-139091200D02*
X171299333Y-138995961D01*
X171299333Y-138995961D02*
X171251714Y-138900723D01*
X171251714Y-138900723D02*
X171204095Y-138710247D01*
X171204095Y-138710247D02*
X171204095Y-138567390D01*
X171204095Y-138567390D02*
X171251714Y-138376914D01*
X171251714Y-138376914D02*
X171299333Y-138281676D01*
X171299333Y-138281676D02*
X171394571Y-138186438D01*
X171394571Y-138186438D02*
X171537428Y-138138819D01*
X171537428Y-138138819D02*
X171632666Y-138138819D01*
X171632666Y-138138819D02*
X171775523Y-138186438D01*
X171775523Y-138186438D02*
X171823142Y-138234057D01*
X172775523Y-139138819D02*
X172204095Y-139138819D01*
X172489809Y-139138819D02*
X172489809Y-138138819D01*
X172489809Y-138138819D02*
X172394571Y-138281676D01*
X172394571Y-138281676D02*
X172299333Y-138376914D01*
X172299333Y-138376914D02*
X172204095Y-138424533D01*
X173156476Y-138234057D02*
X173204095Y-138186438D01*
X173204095Y-138186438D02*
X173299333Y-138138819D01*
X173299333Y-138138819D02*
X173537428Y-138138819D01*
X173537428Y-138138819D02*
X173632666Y-138186438D01*
X173632666Y-138186438D02*
X173680285Y-138234057D01*
X173680285Y-138234057D02*
X173727904Y-138329295D01*
X173727904Y-138329295D02*
X173727904Y-138424533D01*
X173727904Y-138424533D02*
X173680285Y-138567390D01*
X173680285Y-138567390D02*
X173108857Y-139138819D01*
X173108857Y-139138819D02*
X173727904Y-139138819D01*
X102308819Y-89625466D02*
X101832628Y-89958799D01*
X102308819Y-90196894D02*
X101308819Y-90196894D01*
X101308819Y-90196894D02*
X101308819Y-89815942D01*
X101308819Y-89815942D02*
X101356438Y-89720704D01*
X101356438Y-89720704D02*
X101404057Y-89673085D01*
X101404057Y-89673085D02*
X101499295Y-89625466D01*
X101499295Y-89625466D02*
X101642152Y-89625466D01*
X101642152Y-89625466D02*
X101737390Y-89673085D01*
X101737390Y-89673085D02*
X101785009Y-89720704D01*
X101785009Y-89720704D02*
X101832628Y-89815942D01*
X101832628Y-89815942D02*
X101832628Y-90196894D01*
X101308819Y-88768323D02*
X101308819Y-88958799D01*
X101308819Y-88958799D02*
X101356438Y-89054037D01*
X101356438Y-89054037D02*
X101404057Y-89101656D01*
X101404057Y-89101656D02*
X101546914Y-89196894D01*
X101546914Y-89196894D02*
X101737390Y-89244513D01*
X101737390Y-89244513D02*
X102118342Y-89244513D01*
X102118342Y-89244513D02*
X102213580Y-89196894D01*
X102213580Y-89196894D02*
X102261200Y-89149275D01*
X102261200Y-89149275D02*
X102308819Y-89054037D01*
X102308819Y-89054037D02*
X102308819Y-88863561D01*
X102308819Y-88863561D02*
X102261200Y-88768323D01*
X102261200Y-88768323D02*
X102213580Y-88720704D01*
X102213580Y-88720704D02*
X102118342Y-88673085D01*
X102118342Y-88673085D02*
X101880247Y-88673085D01*
X101880247Y-88673085D02*
X101785009Y-88720704D01*
X101785009Y-88720704D02*
X101737390Y-88768323D01*
X101737390Y-88768323D02*
X101689771Y-88863561D01*
X101689771Y-88863561D02*
X101689771Y-89054037D01*
X101689771Y-89054037D02*
X101737390Y-89149275D01*
X101737390Y-89149275D02*
X101785009Y-89196894D01*
X101785009Y-89196894D02*
X101880247Y-89244513D01*
X154614666Y-142964819D02*
X154614666Y-143679104D01*
X154614666Y-143679104D02*
X154567047Y-143821961D01*
X154567047Y-143821961D02*
X154471809Y-143917200D01*
X154471809Y-143917200D02*
X154328952Y-143964819D01*
X154328952Y-143964819D02*
X154233714Y-143964819D01*
X155662285Y-143964819D02*
X155328952Y-143488628D01*
X155090857Y-143964819D02*
X155090857Y-142964819D01*
X155090857Y-142964819D02*
X155471809Y-142964819D01*
X155471809Y-142964819D02*
X155567047Y-143012438D01*
X155567047Y-143012438D02*
X155614666Y-143060057D01*
X155614666Y-143060057D02*
X155662285Y-143155295D01*
X155662285Y-143155295D02*
X155662285Y-143298152D01*
X155662285Y-143298152D02*
X155614666Y-143393390D01*
X155614666Y-143393390D02*
X155567047Y-143441009D01*
X155567047Y-143441009D02*
X155471809Y-143488628D01*
X155471809Y-143488628D02*
X155090857Y-143488628D01*
X155995619Y-142964819D02*
X156662285Y-142964819D01*
X156662285Y-142964819D02*
X156233714Y-143964819D01*
X105084666Y-142964819D02*
X105084666Y-143679104D01*
X105084666Y-143679104D02*
X105037047Y-143821961D01*
X105037047Y-143821961D02*
X104941809Y-143917200D01*
X104941809Y-143917200D02*
X104798952Y-143964819D01*
X104798952Y-143964819D02*
X104703714Y-143964819D01*
X106132285Y-143964819D02*
X105798952Y-143488628D01*
X105560857Y-143964819D02*
X105560857Y-142964819D01*
X105560857Y-142964819D02*
X105941809Y-142964819D01*
X105941809Y-142964819D02*
X106037047Y-143012438D01*
X106037047Y-143012438D02*
X106084666Y-143060057D01*
X106084666Y-143060057D02*
X106132285Y-143155295D01*
X106132285Y-143155295D02*
X106132285Y-143298152D01*
X106132285Y-143298152D02*
X106084666Y-143393390D01*
X106084666Y-143393390D02*
X106037047Y-143441009D01*
X106037047Y-143441009D02*
X105941809Y-143488628D01*
X105941809Y-143488628D02*
X105560857Y-143488628D01*
X106513238Y-143060057D02*
X106560857Y-143012438D01*
X106560857Y-143012438D02*
X106656095Y-142964819D01*
X106656095Y-142964819D02*
X106894190Y-142964819D01*
X106894190Y-142964819D02*
X106989428Y-143012438D01*
X106989428Y-143012438D02*
X107037047Y-143060057D01*
X107037047Y-143060057D02*
X107084666Y-143155295D01*
X107084666Y-143155295D02*
X107084666Y-143250533D01*
X107084666Y-143250533D02*
X107037047Y-143393390D01*
X107037047Y-143393390D02*
X106465619Y-143964819D01*
X106465619Y-143964819D02*
X107084666Y-143964819D01*
X141239642Y-119199819D02*
X140906309Y-118723628D01*
X140668214Y-119199819D02*
X140668214Y-118199819D01*
X140668214Y-118199819D02*
X141049166Y-118199819D01*
X141049166Y-118199819D02*
X141144404Y-118247438D01*
X141144404Y-118247438D02*
X141192023Y-118295057D01*
X141192023Y-118295057D02*
X141239642Y-118390295D01*
X141239642Y-118390295D02*
X141239642Y-118533152D01*
X141239642Y-118533152D02*
X141192023Y-118628390D01*
X141192023Y-118628390D02*
X141144404Y-118676009D01*
X141144404Y-118676009D02*
X141049166Y-118723628D01*
X141049166Y-118723628D02*
X140668214Y-118723628D01*
X142192023Y-119199819D02*
X141620595Y-119199819D01*
X141906309Y-119199819D02*
X141906309Y-118199819D01*
X141906309Y-118199819D02*
X141811071Y-118342676D01*
X141811071Y-118342676D02*
X141715833Y-118437914D01*
X141715833Y-118437914D02*
X141620595Y-118485533D01*
X143049166Y-118199819D02*
X142858690Y-118199819D01*
X142858690Y-118199819D02*
X142763452Y-118247438D01*
X142763452Y-118247438D02*
X142715833Y-118295057D01*
X142715833Y-118295057D02*
X142620595Y-118437914D01*
X142620595Y-118437914D02*
X142572976Y-118628390D01*
X142572976Y-118628390D02*
X142572976Y-119009342D01*
X142572976Y-119009342D02*
X142620595Y-119104580D01*
X142620595Y-119104580D02*
X142668214Y-119152200D01*
X142668214Y-119152200D02*
X142763452Y-119199819D01*
X142763452Y-119199819D02*
X142953928Y-119199819D01*
X142953928Y-119199819D02*
X143049166Y-119152200D01*
X143049166Y-119152200D02*
X143096785Y-119104580D01*
X143096785Y-119104580D02*
X143144404Y-119009342D01*
X143144404Y-119009342D02*
X143144404Y-118771247D01*
X143144404Y-118771247D02*
X143096785Y-118676009D01*
X143096785Y-118676009D02*
X143049166Y-118628390D01*
X143049166Y-118628390D02*
X142953928Y-118580771D01*
X142953928Y-118580771D02*
X142763452Y-118580771D01*
X142763452Y-118580771D02*
X142668214Y-118628390D01*
X142668214Y-118628390D02*
X142620595Y-118676009D01*
X142620595Y-118676009D02*
X142572976Y-118771247D01*
X150314819Y-94654666D02*
X149838628Y-94987999D01*
X150314819Y-95226094D02*
X149314819Y-95226094D01*
X149314819Y-95226094D02*
X149314819Y-94845142D01*
X149314819Y-94845142D02*
X149362438Y-94749904D01*
X149362438Y-94749904D02*
X149410057Y-94702285D01*
X149410057Y-94702285D02*
X149505295Y-94654666D01*
X149505295Y-94654666D02*
X149648152Y-94654666D01*
X149648152Y-94654666D02*
X149743390Y-94702285D01*
X149743390Y-94702285D02*
X149791009Y-94749904D01*
X149791009Y-94749904D02*
X149838628Y-94845142D01*
X149838628Y-94845142D02*
X149838628Y-95226094D01*
X149743390Y-94083237D02*
X149695771Y-94178475D01*
X149695771Y-94178475D02*
X149648152Y-94226094D01*
X149648152Y-94226094D02*
X149552914Y-94273713D01*
X149552914Y-94273713D02*
X149505295Y-94273713D01*
X149505295Y-94273713D02*
X149410057Y-94226094D01*
X149410057Y-94226094D02*
X149362438Y-94178475D01*
X149362438Y-94178475D02*
X149314819Y-94083237D01*
X149314819Y-94083237D02*
X149314819Y-93892761D01*
X149314819Y-93892761D02*
X149362438Y-93797523D01*
X149362438Y-93797523D02*
X149410057Y-93749904D01*
X149410057Y-93749904D02*
X149505295Y-93702285D01*
X149505295Y-93702285D02*
X149552914Y-93702285D01*
X149552914Y-93702285D02*
X149648152Y-93749904D01*
X149648152Y-93749904D02*
X149695771Y-93797523D01*
X149695771Y-93797523D02*
X149743390Y-93892761D01*
X149743390Y-93892761D02*
X149743390Y-94083237D01*
X149743390Y-94083237D02*
X149791009Y-94178475D01*
X149791009Y-94178475D02*
X149838628Y-94226094D01*
X149838628Y-94226094D02*
X149933866Y-94273713D01*
X149933866Y-94273713D02*
X150124342Y-94273713D01*
X150124342Y-94273713D02*
X150219580Y-94226094D01*
X150219580Y-94226094D02*
X150267200Y-94178475D01*
X150267200Y-94178475D02*
X150314819Y-94083237D01*
X150314819Y-94083237D02*
X150314819Y-93892761D01*
X150314819Y-93892761D02*
X150267200Y-93797523D01*
X150267200Y-93797523D02*
X150219580Y-93749904D01*
X150219580Y-93749904D02*
X150124342Y-93702285D01*
X150124342Y-93702285D02*
X149933866Y-93702285D01*
X149933866Y-93702285D02*
X149838628Y-93749904D01*
X149838628Y-93749904D02*
X149791009Y-93797523D01*
X149791009Y-93797523D02*
X149743390Y-93892761D01*
X131333642Y-119199819D02*
X131000309Y-118723628D01*
X130762214Y-119199819D02*
X130762214Y-118199819D01*
X130762214Y-118199819D02*
X131143166Y-118199819D01*
X131143166Y-118199819D02*
X131238404Y-118247438D01*
X131238404Y-118247438D02*
X131286023Y-118295057D01*
X131286023Y-118295057D02*
X131333642Y-118390295D01*
X131333642Y-118390295D02*
X131333642Y-118533152D01*
X131333642Y-118533152D02*
X131286023Y-118628390D01*
X131286023Y-118628390D02*
X131238404Y-118676009D01*
X131238404Y-118676009D02*
X131143166Y-118723628D01*
X131143166Y-118723628D02*
X130762214Y-118723628D01*
X132286023Y-119199819D02*
X131714595Y-119199819D01*
X132000309Y-119199819D02*
X132000309Y-118199819D01*
X132000309Y-118199819D02*
X131905071Y-118342676D01*
X131905071Y-118342676D02*
X131809833Y-118437914D01*
X131809833Y-118437914D02*
X131714595Y-118485533D01*
X132619357Y-118199819D02*
X133238404Y-118199819D01*
X133238404Y-118199819D02*
X132905071Y-118580771D01*
X132905071Y-118580771D02*
X133047928Y-118580771D01*
X133047928Y-118580771D02*
X133143166Y-118628390D01*
X133143166Y-118628390D02*
X133190785Y-118676009D01*
X133190785Y-118676009D02*
X133238404Y-118771247D01*
X133238404Y-118771247D02*
X133238404Y-119009342D01*
X133238404Y-119009342D02*
X133190785Y-119104580D01*
X133190785Y-119104580D02*
X133143166Y-119152200D01*
X133143166Y-119152200D02*
X133047928Y-119199819D01*
X133047928Y-119199819D02*
X132762214Y-119199819D01*
X132762214Y-119199819D02*
X132666976Y-119152200D01*
X132666976Y-119152200D02*
X132619357Y-119104580D01*
X152417542Y-119174419D02*
X152084209Y-118698228D01*
X151846114Y-119174419D02*
X151846114Y-118174419D01*
X151846114Y-118174419D02*
X152227066Y-118174419D01*
X152227066Y-118174419D02*
X152322304Y-118222038D01*
X152322304Y-118222038D02*
X152369923Y-118269657D01*
X152369923Y-118269657D02*
X152417542Y-118364895D01*
X152417542Y-118364895D02*
X152417542Y-118507752D01*
X152417542Y-118507752D02*
X152369923Y-118602990D01*
X152369923Y-118602990D02*
X152322304Y-118650609D01*
X152322304Y-118650609D02*
X152227066Y-118698228D01*
X152227066Y-118698228D02*
X151846114Y-118698228D01*
X153369923Y-119174419D02*
X152798495Y-119174419D01*
X153084209Y-119174419D02*
X153084209Y-118174419D01*
X153084209Y-118174419D02*
X152988971Y-118317276D01*
X152988971Y-118317276D02*
X152893733Y-118412514D01*
X152893733Y-118412514D02*
X152798495Y-118460133D01*
X154227066Y-118507752D02*
X154227066Y-119174419D01*
X153988971Y-118126800D02*
X153750876Y-118841085D01*
X153750876Y-118841085D02*
X154369923Y-118841085D01*
X164426666Y-142964819D02*
X164426666Y-143679104D01*
X164426666Y-143679104D02*
X164379047Y-143821961D01*
X164379047Y-143821961D02*
X164283809Y-143917200D01*
X164283809Y-143917200D02*
X164140952Y-143964819D01*
X164140952Y-143964819D02*
X164045714Y-143964819D01*
X165474285Y-143964819D02*
X165140952Y-143488628D01*
X164902857Y-143964819D02*
X164902857Y-142964819D01*
X164902857Y-142964819D02*
X165283809Y-142964819D01*
X165283809Y-142964819D02*
X165379047Y-143012438D01*
X165379047Y-143012438D02*
X165426666Y-143060057D01*
X165426666Y-143060057D02*
X165474285Y-143155295D01*
X165474285Y-143155295D02*
X165474285Y-143298152D01*
X165474285Y-143298152D02*
X165426666Y-143393390D01*
X165426666Y-143393390D02*
X165379047Y-143441009D01*
X165379047Y-143441009D02*
X165283809Y-143488628D01*
X165283809Y-143488628D02*
X164902857Y-143488628D01*
X166045714Y-143393390D02*
X165950476Y-143345771D01*
X165950476Y-143345771D02*
X165902857Y-143298152D01*
X165902857Y-143298152D02*
X165855238Y-143202914D01*
X165855238Y-143202914D02*
X165855238Y-143155295D01*
X165855238Y-143155295D02*
X165902857Y-143060057D01*
X165902857Y-143060057D02*
X165950476Y-143012438D01*
X165950476Y-143012438D02*
X166045714Y-142964819D01*
X166045714Y-142964819D02*
X166236190Y-142964819D01*
X166236190Y-142964819D02*
X166331428Y-143012438D01*
X166331428Y-143012438D02*
X166379047Y-143060057D01*
X166379047Y-143060057D02*
X166426666Y-143155295D01*
X166426666Y-143155295D02*
X166426666Y-143202914D01*
X166426666Y-143202914D02*
X166379047Y-143298152D01*
X166379047Y-143298152D02*
X166331428Y-143345771D01*
X166331428Y-143345771D02*
X166236190Y-143393390D01*
X166236190Y-143393390D02*
X166045714Y-143393390D01*
X166045714Y-143393390D02*
X165950476Y-143441009D01*
X165950476Y-143441009D02*
X165902857Y-143488628D01*
X165902857Y-143488628D02*
X165855238Y-143583866D01*
X165855238Y-143583866D02*
X165855238Y-143774342D01*
X165855238Y-143774342D02*
X165902857Y-143869580D01*
X165902857Y-143869580D02*
X165950476Y-143917200D01*
X165950476Y-143917200D02*
X166045714Y-143964819D01*
X166045714Y-143964819D02*
X166236190Y-143964819D01*
X166236190Y-143964819D02*
X166331428Y-143917200D01*
X166331428Y-143917200D02*
X166379047Y-143869580D01*
X166379047Y-143869580D02*
X166426666Y-143774342D01*
X166426666Y-143774342D02*
X166426666Y-143583866D01*
X166426666Y-143583866D02*
X166379047Y-143488628D01*
X166379047Y-143488628D02*
X166331428Y-143441009D01*
X166331428Y-143441009D02*
X166236190Y-143393390D01*
X116421819Y-63325333D02*
X117136104Y-63325333D01*
X117136104Y-63325333D02*
X117278961Y-63372952D01*
X117278961Y-63372952D02*
X117374200Y-63468190D01*
X117374200Y-63468190D02*
X117421819Y-63611047D01*
X117421819Y-63611047D02*
X117421819Y-63706285D01*
X117421819Y-62325333D02*
X117421819Y-62896761D01*
X117421819Y-62611047D02*
X116421819Y-62611047D01*
X116421819Y-62611047D02*
X116564676Y-62706285D01*
X116564676Y-62706285D02*
X116659914Y-62801523D01*
X116659914Y-62801523D02*
X116707533Y-62896761D01*
X109774819Y-89280904D02*
X110584342Y-89280904D01*
X110584342Y-89280904D02*
X110679580Y-89233285D01*
X110679580Y-89233285D02*
X110727200Y-89185666D01*
X110727200Y-89185666D02*
X110774819Y-89090428D01*
X110774819Y-89090428D02*
X110774819Y-88899952D01*
X110774819Y-88899952D02*
X110727200Y-88804714D01*
X110727200Y-88804714D02*
X110679580Y-88757095D01*
X110679580Y-88757095D02*
X110584342Y-88709476D01*
X110584342Y-88709476D02*
X109774819Y-88709476D01*
X109870057Y-88280904D02*
X109822438Y-88233285D01*
X109822438Y-88233285D02*
X109774819Y-88138047D01*
X109774819Y-88138047D02*
X109774819Y-87899952D01*
X109774819Y-87899952D02*
X109822438Y-87804714D01*
X109822438Y-87804714D02*
X109870057Y-87757095D01*
X109870057Y-87757095D02*
X109965295Y-87709476D01*
X109965295Y-87709476D02*
X110060533Y-87709476D01*
X110060533Y-87709476D02*
X110203390Y-87757095D01*
X110203390Y-87757095D02*
X110774819Y-88328523D01*
X110774819Y-88328523D02*
X110774819Y-87709476D01*
X157226095Y-99897819D02*
X157226095Y-100707342D01*
X157226095Y-100707342D02*
X157273714Y-100802580D01*
X157273714Y-100802580D02*
X157321333Y-100850200D01*
X157321333Y-100850200D02*
X157416571Y-100897819D01*
X157416571Y-100897819D02*
X157607047Y-100897819D01*
X157607047Y-100897819D02*
X157702285Y-100850200D01*
X157702285Y-100850200D02*
X157749904Y-100802580D01*
X157749904Y-100802580D02*
X157797523Y-100707342D01*
X157797523Y-100707342D02*
X157797523Y-99897819D01*
X158702285Y-99897819D02*
X158511809Y-99897819D01*
X158511809Y-99897819D02*
X158416571Y-99945438D01*
X158416571Y-99945438D02*
X158368952Y-99993057D01*
X158368952Y-99993057D02*
X158273714Y-100135914D01*
X158273714Y-100135914D02*
X158226095Y-100326390D01*
X158226095Y-100326390D02*
X158226095Y-100707342D01*
X158226095Y-100707342D02*
X158273714Y-100802580D01*
X158273714Y-100802580D02*
X158321333Y-100850200D01*
X158321333Y-100850200D02*
X158416571Y-100897819D01*
X158416571Y-100897819D02*
X158607047Y-100897819D01*
X158607047Y-100897819D02*
X158702285Y-100850200D01*
X158702285Y-100850200D02*
X158749904Y-100802580D01*
X158749904Y-100802580D02*
X158797523Y-100707342D01*
X158797523Y-100707342D02*
X158797523Y-100469247D01*
X158797523Y-100469247D02*
X158749904Y-100374009D01*
X158749904Y-100374009D02*
X158702285Y-100326390D01*
X158702285Y-100326390D02*
X158607047Y-100278771D01*
X158607047Y-100278771D02*
X158416571Y-100278771D01*
X158416571Y-100278771D02*
X158321333Y-100326390D01*
X158321333Y-100326390D02*
X158273714Y-100374009D01*
X158273714Y-100374009D02*
X158226095Y-100469247D01*
X104267095Y-88784319D02*
X104267095Y-89593842D01*
X104267095Y-89593842D02*
X104314714Y-89689080D01*
X104314714Y-89689080D02*
X104362333Y-89736700D01*
X104362333Y-89736700D02*
X104457571Y-89784319D01*
X104457571Y-89784319D02*
X104648047Y-89784319D01*
X104648047Y-89784319D02*
X104743285Y-89736700D01*
X104743285Y-89736700D02*
X104790904Y-89689080D01*
X104790904Y-89689080D02*
X104838523Y-89593842D01*
X104838523Y-89593842D02*
X104838523Y-88784319D01*
X105219476Y-88784319D02*
X105838523Y-88784319D01*
X105838523Y-88784319D02*
X105505190Y-89165271D01*
X105505190Y-89165271D02*
X105648047Y-89165271D01*
X105648047Y-89165271D02*
X105743285Y-89212890D01*
X105743285Y-89212890D02*
X105790904Y-89260509D01*
X105790904Y-89260509D02*
X105838523Y-89355747D01*
X105838523Y-89355747D02*
X105838523Y-89593842D01*
X105838523Y-89593842D02*
X105790904Y-89689080D01*
X105790904Y-89689080D02*
X105743285Y-89736700D01*
X105743285Y-89736700D02*
X105648047Y-89784319D01*
X105648047Y-89784319D02*
X105362333Y-89784319D01*
X105362333Y-89784319D02*
X105267095Y-89736700D01*
X105267095Y-89736700D02*
X105219476Y-89689080D01*
X150872380Y-92216266D02*
X150920000Y-92263885D01*
X150920000Y-92263885D02*
X150967619Y-92406742D01*
X150967619Y-92406742D02*
X150967619Y-92501980D01*
X150967619Y-92501980D02*
X150920000Y-92644837D01*
X150920000Y-92644837D02*
X150824761Y-92740075D01*
X150824761Y-92740075D02*
X150729523Y-92787694D01*
X150729523Y-92787694D02*
X150539047Y-92835313D01*
X150539047Y-92835313D02*
X150396190Y-92835313D01*
X150396190Y-92835313D02*
X150205714Y-92787694D01*
X150205714Y-92787694D02*
X150110476Y-92740075D01*
X150110476Y-92740075D02*
X150015238Y-92644837D01*
X150015238Y-92644837D02*
X149967619Y-92501980D01*
X149967619Y-92501980D02*
X149967619Y-92406742D01*
X149967619Y-92406742D02*
X150015238Y-92263885D01*
X150015238Y-92263885D02*
X150062857Y-92216266D01*
X150967619Y-91740075D02*
X150967619Y-91549599D01*
X150967619Y-91549599D02*
X150920000Y-91454361D01*
X150920000Y-91454361D02*
X150872380Y-91406742D01*
X150872380Y-91406742D02*
X150729523Y-91311504D01*
X150729523Y-91311504D02*
X150539047Y-91263885D01*
X150539047Y-91263885D02*
X150158095Y-91263885D01*
X150158095Y-91263885D02*
X150062857Y-91311504D01*
X150062857Y-91311504D02*
X150015238Y-91359123D01*
X150015238Y-91359123D02*
X149967619Y-91454361D01*
X149967619Y-91454361D02*
X149967619Y-91644837D01*
X149967619Y-91644837D02*
X150015238Y-91740075D01*
X150015238Y-91740075D02*
X150062857Y-91787694D01*
X150062857Y-91787694D02*
X150158095Y-91835313D01*
X150158095Y-91835313D02*
X150396190Y-91835313D01*
X150396190Y-91835313D02*
X150491428Y-91787694D01*
X150491428Y-91787694D02*
X150539047Y-91740075D01*
X150539047Y-91740075D02*
X150586666Y-91644837D01*
X150586666Y-91644837D02*
X150586666Y-91454361D01*
X150586666Y-91454361D02*
X150539047Y-91359123D01*
X150539047Y-91359123D02*
X150491428Y-91311504D01*
X150491428Y-91311504D02*
X150396190Y-91263885D01*
X91571635Y-80569263D02*
X91619255Y-80616882D01*
X91619255Y-80616882D02*
X91666874Y-80759739D01*
X91666874Y-80759739D02*
X91666874Y-80854977D01*
X91666874Y-80854977D02*
X91619255Y-80997834D01*
X91619255Y-80997834D02*
X91524016Y-81093072D01*
X91524016Y-81093072D02*
X91428778Y-81140691D01*
X91428778Y-81140691D02*
X91238302Y-81188310D01*
X91238302Y-81188310D02*
X91095445Y-81188310D01*
X91095445Y-81188310D02*
X90904969Y-81140691D01*
X90904969Y-81140691D02*
X90809731Y-81093072D01*
X90809731Y-81093072D02*
X90714493Y-80997834D01*
X90714493Y-80997834D02*
X90666874Y-80854977D01*
X90666874Y-80854977D02*
X90666874Y-80759739D01*
X90666874Y-80759739D02*
X90714493Y-80616882D01*
X90714493Y-80616882D02*
X90762112Y-80569263D01*
X90666874Y-79712120D02*
X90666874Y-79902596D01*
X90666874Y-79902596D02*
X90714493Y-79997834D01*
X90714493Y-79997834D02*
X90762112Y-80045453D01*
X90762112Y-80045453D02*
X90904969Y-80140691D01*
X90904969Y-80140691D02*
X91095445Y-80188310D01*
X91095445Y-80188310D02*
X91476397Y-80188310D01*
X91476397Y-80188310D02*
X91571635Y-80140691D01*
X91571635Y-80140691D02*
X91619255Y-80093072D01*
X91619255Y-80093072D02*
X91666874Y-79997834D01*
X91666874Y-79997834D02*
X91666874Y-79807358D01*
X91666874Y-79807358D02*
X91619255Y-79712120D01*
X91619255Y-79712120D02*
X91571635Y-79664501D01*
X91571635Y-79664501D02*
X91476397Y-79616882D01*
X91476397Y-79616882D02*
X91238302Y-79616882D01*
X91238302Y-79616882D02*
X91143064Y-79664501D01*
X91143064Y-79664501D02*
X91095445Y-79712120D01*
X91095445Y-79712120D02*
X91047826Y-79807358D01*
X91047826Y-79807358D02*
X91047826Y-79997834D01*
X91047826Y-79997834D02*
X91095445Y-80093072D01*
X91095445Y-80093072D02*
X91143064Y-80140691D01*
X91143064Y-80140691D02*
X91238302Y-80188310D01*
X174752095Y-124295819D02*
X174752095Y-125105342D01*
X174752095Y-125105342D02*
X174799714Y-125200580D01*
X174799714Y-125200580D02*
X174847333Y-125248200D01*
X174847333Y-125248200D02*
X174942571Y-125295819D01*
X174942571Y-125295819D02*
X175133047Y-125295819D01*
X175133047Y-125295819D02*
X175228285Y-125248200D01*
X175228285Y-125248200D02*
X175275904Y-125200580D01*
X175275904Y-125200580D02*
X175323523Y-125105342D01*
X175323523Y-125105342D02*
X175323523Y-124295819D01*
X175704476Y-124295819D02*
X176371142Y-124295819D01*
X176371142Y-124295819D02*
X175942571Y-125295819D01*
X134802666Y-142964819D02*
X134802666Y-143679104D01*
X134802666Y-143679104D02*
X134755047Y-143821961D01*
X134755047Y-143821961D02*
X134659809Y-143917200D01*
X134659809Y-143917200D02*
X134516952Y-143964819D01*
X134516952Y-143964819D02*
X134421714Y-143964819D01*
X135850285Y-143964819D02*
X135516952Y-143488628D01*
X135278857Y-143964819D02*
X135278857Y-142964819D01*
X135278857Y-142964819D02*
X135659809Y-142964819D01*
X135659809Y-142964819D02*
X135755047Y-143012438D01*
X135755047Y-143012438D02*
X135802666Y-143060057D01*
X135802666Y-143060057D02*
X135850285Y-143155295D01*
X135850285Y-143155295D02*
X135850285Y-143298152D01*
X135850285Y-143298152D02*
X135802666Y-143393390D01*
X135802666Y-143393390D02*
X135755047Y-143441009D01*
X135755047Y-143441009D02*
X135659809Y-143488628D01*
X135659809Y-143488628D02*
X135278857Y-143488628D01*
X136755047Y-142964819D02*
X136278857Y-142964819D01*
X136278857Y-142964819D02*
X136231238Y-143441009D01*
X136231238Y-143441009D02*
X136278857Y-143393390D01*
X136278857Y-143393390D02*
X136374095Y-143345771D01*
X136374095Y-143345771D02*
X136612190Y-143345771D01*
X136612190Y-143345771D02*
X136707428Y-143393390D01*
X136707428Y-143393390D02*
X136755047Y-143441009D01*
X136755047Y-143441009D02*
X136802666Y-143536247D01*
X136802666Y-143536247D02*
X136802666Y-143774342D01*
X136802666Y-143774342D02*
X136755047Y-143869580D01*
X136755047Y-143869580D02*
X136707428Y-143917200D01*
X136707428Y-143917200D02*
X136612190Y-143964819D01*
X136612190Y-143964819D02*
X136374095Y-143964819D01*
X136374095Y-143964819D02*
X136278857Y-143917200D01*
X136278857Y-143917200D02*
X136231238Y-143869580D01*
X149369542Y-119086780D02*
X149321923Y-119134400D01*
X149321923Y-119134400D02*
X149179066Y-119182019D01*
X149179066Y-119182019D02*
X149083828Y-119182019D01*
X149083828Y-119182019D02*
X148940971Y-119134400D01*
X148940971Y-119134400D02*
X148845733Y-119039161D01*
X148845733Y-119039161D02*
X148798114Y-118943923D01*
X148798114Y-118943923D02*
X148750495Y-118753447D01*
X148750495Y-118753447D02*
X148750495Y-118610590D01*
X148750495Y-118610590D02*
X148798114Y-118420114D01*
X148798114Y-118420114D02*
X148845733Y-118324876D01*
X148845733Y-118324876D02*
X148940971Y-118229638D01*
X148940971Y-118229638D02*
X149083828Y-118182019D01*
X149083828Y-118182019D02*
X149179066Y-118182019D01*
X149179066Y-118182019D02*
X149321923Y-118229638D01*
X149321923Y-118229638D02*
X149369542Y-118277257D01*
X150321923Y-119182019D02*
X149750495Y-119182019D01*
X150036209Y-119182019D02*
X150036209Y-118182019D01*
X150036209Y-118182019D02*
X149940971Y-118324876D01*
X149940971Y-118324876D02*
X149845733Y-118420114D01*
X149845733Y-118420114D02*
X149750495Y-118467733D01*
X151274304Y-119182019D02*
X150702876Y-119182019D01*
X150988590Y-119182019D02*
X150988590Y-118182019D01*
X150988590Y-118182019D02*
X150893352Y-118324876D01*
X150893352Y-118324876D02*
X150798114Y-118420114D01*
X150798114Y-118420114D02*
X150702876Y-118467733D01*
X98581380Y-106508957D02*
X98629000Y-106556576D01*
X98629000Y-106556576D02*
X98676619Y-106699433D01*
X98676619Y-106699433D02*
X98676619Y-106794671D01*
X98676619Y-106794671D02*
X98629000Y-106937528D01*
X98629000Y-106937528D02*
X98533761Y-107032766D01*
X98533761Y-107032766D02*
X98438523Y-107080385D01*
X98438523Y-107080385D02*
X98248047Y-107128004D01*
X98248047Y-107128004D02*
X98105190Y-107128004D01*
X98105190Y-107128004D02*
X97914714Y-107080385D01*
X97914714Y-107080385D02*
X97819476Y-107032766D01*
X97819476Y-107032766D02*
X97724238Y-106937528D01*
X97724238Y-106937528D02*
X97676619Y-106794671D01*
X97676619Y-106794671D02*
X97676619Y-106699433D01*
X97676619Y-106699433D02*
X97724238Y-106556576D01*
X97724238Y-106556576D02*
X97771857Y-106508957D01*
X98676619Y-105556576D02*
X98676619Y-106128004D01*
X98676619Y-105842290D02*
X97676619Y-105842290D01*
X97676619Y-105842290D02*
X97819476Y-105937528D01*
X97819476Y-105937528D02*
X97914714Y-106032766D01*
X97914714Y-106032766D02*
X97962333Y-106128004D01*
X97676619Y-104699433D02*
X97676619Y-104889909D01*
X97676619Y-104889909D02*
X97724238Y-104985147D01*
X97724238Y-104985147D02*
X97771857Y-105032766D01*
X97771857Y-105032766D02*
X97914714Y-105128004D01*
X97914714Y-105128004D02*
X98105190Y-105175623D01*
X98105190Y-105175623D02*
X98486142Y-105175623D01*
X98486142Y-105175623D02*
X98581380Y-105128004D01*
X98581380Y-105128004D02*
X98629000Y-105080385D01*
X98629000Y-105080385D02*
X98676619Y-104985147D01*
X98676619Y-104985147D02*
X98676619Y-104794671D01*
X98676619Y-104794671D02*
X98629000Y-104699433D01*
X98629000Y-104699433D02*
X98581380Y-104651814D01*
X98581380Y-104651814D02*
X98486142Y-104604195D01*
X98486142Y-104604195D02*
X98248047Y-104604195D01*
X98248047Y-104604195D02*
X98152809Y-104651814D01*
X98152809Y-104651814D02*
X98105190Y-104699433D01*
X98105190Y-104699433D02*
X98057571Y-104794671D01*
X98057571Y-104794671D02*
X98057571Y-104985147D01*
X98057571Y-104985147D02*
X98105190Y-105080385D01*
X98105190Y-105080385D02*
X98152809Y-105128004D01*
X98152809Y-105128004D02*
X98248047Y-105175623D01*
X160901142Y-119072819D02*
X160567809Y-118596628D01*
X160329714Y-119072819D02*
X160329714Y-118072819D01*
X160329714Y-118072819D02*
X160710666Y-118072819D01*
X160710666Y-118072819D02*
X160805904Y-118120438D01*
X160805904Y-118120438D02*
X160853523Y-118168057D01*
X160853523Y-118168057D02*
X160901142Y-118263295D01*
X160901142Y-118263295D02*
X160901142Y-118406152D01*
X160901142Y-118406152D02*
X160853523Y-118501390D01*
X160853523Y-118501390D02*
X160805904Y-118549009D01*
X160805904Y-118549009D02*
X160710666Y-118596628D01*
X160710666Y-118596628D02*
X160329714Y-118596628D01*
X161853523Y-119072819D02*
X161282095Y-119072819D01*
X161567809Y-119072819D02*
X161567809Y-118072819D01*
X161567809Y-118072819D02*
X161472571Y-118215676D01*
X161472571Y-118215676D02*
X161377333Y-118310914D01*
X161377333Y-118310914D02*
X161282095Y-118358533D01*
X162758285Y-118072819D02*
X162282095Y-118072819D01*
X162282095Y-118072819D02*
X162234476Y-118549009D01*
X162234476Y-118549009D02*
X162282095Y-118501390D01*
X162282095Y-118501390D02*
X162377333Y-118453771D01*
X162377333Y-118453771D02*
X162615428Y-118453771D01*
X162615428Y-118453771D02*
X162710666Y-118501390D01*
X162710666Y-118501390D02*
X162758285Y-118549009D01*
X162758285Y-118549009D02*
X162805904Y-118644247D01*
X162805904Y-118644247D02*
X162805904Y-118882342D01*
X162805904Y-118882342D02*
X162758285Y-118977580D01*
X162758285Y-118977580D02*
X162710666Y-119025200D01*
X162710666Y-119025200D02*
X162615428Y-119072819D01*
X162615428Y-119072819D02*
X162377333Y-119072819D01*
X162377333Y-119072819D02*
X162282095Y-119025200D01*
X162282095Y-119025200D02*
X162234476Y-118977580D01*
D10*
%TO.C,R9*%
X92607224Y-119619500D02*
X92097776Y-119619500D01*
X92607224Y-120664500D02*
X92097776Y-120664500D01*
%TO.C,C2*%
X102729244Y-81924194D02*
X102729244Y-83346698D01*
X104549244Y-81924194D02*
X104549244Y-83346698D01*
%TO.C,D42*%
X148755000Y-132246000D02*
X146095000Y-132246000D01*
X148755000Y-133946000D02*
X146095000Y-133946000D01*
X148755000Y-133946000D02*
X148755000Y-132246000D01*
%TO.C,U8*%
X100807200Y-105548200D02*
X100807200Y-103598200D01*
X100807200Y-105548200D02*
X100807200Y-107498200D01*
X110927200Y-105548200D02*
X110927200Y-103598200D01*
X110927200Y-105548200D02*
X110927200Y-107498200D01*
X100862200Y-108248200D02*
X100532200Y-108488200D01*
X100532200Y-108008200D01*
X100862200Y-108248200D01*
G36*
X100862200Y-108248200D02*
G01*
X100532200Y-108488200D01*
X100532200Y-108008200D01*
X100862200Y-108248200D01*
G37*
%TO.C,AN14*%
X126327000Y-67794000D02*
X126327000Y-71514000D01*
X126327000Y-69604000D02*
X126727000Y-69604000D01*
X126327000Y-70604000D02*
X126727000Y-70604000D01*
X126327000Y-71514000D02*
X132547000Y-71514000D01*
X126727000Y-68194000D02*
X126727000Y-71214000D01*
X126727000Y-71214000D02*
X132147000Y-71214000D01*
X128587000Y-68594000D02*
X128587000Y-68194000D01*
X128687000Y-68194000D02*
X128687000Y-68594000D01*
X128787000Y-68194000D02*
X128787000Y-68594000D01*
X128787000Y-68594000D02*
X128587000Y-68594000D01*
X130087000Y-68594000D02*
X130087000Y-68194000D01*
X130187000Y-68194000D02*
X130187000Y-68594000D01*
X130287000Y-68194000D02*
X130287000Y-68594000D01*
X130287000Y-68594000D02*
X130087000Y-68594000D01*
X131237000Y-71514000D02*
X131237000Y-71714000D01*
X131237000Y-71614000D02*
X131537000Y-71614000D01*
X131237000Y-71714000D02*
X131537000Y-71714000D01*
X131537000Y-71714000D02*
X131537000Y-71514000D01*
X131947000Y-71714000D02*
X132747000Y-71714000D01*
X132147000Y-68194000D02*
X126727000Y-68194000D01*
X132147000Y-71214000D02*
X132147000Y-68194000D01*
X132547000Y-67794000D02*
X126327000Y-67794000D01*
X132547000Y-69604000D02*
X132147000Y-69604000D01*
X132547000Y-70604000D02*
X132147000Y-70604000D01*
X132547000Y-71514000D02*
X132547000Y-67794000D01*
X132747000Y-71714000D02*
X132747000Y-70914000D01*
%TO.C,D23*%
X128948000Y-129690210D02*
X126288000Y-129690210D01*
X128948000Y-131390210D02*
X126288000Y-131390210D01*
X128948000Y-131390210D02*
X128948000Y-129690210D01*
%TO.C,R10*%
X112419224Y-119619500D02*
X111909776Y-119619500D01*
X112419224Y-120664500D02*
X111909776Y-120664500D01*
%TO.C,JR1*%
X90110000Y-142046000D02*
X90110000Y-121606000D01*
X92710000Y-139446000D02*
X92710000Y-142046000D01*
X92710000Y-142046000D02*
X90110000Y-142046000D01*
X95310000Y-121606000D02*
X90110000Y-121606000D01*
X95310000Y-139446000D02*
X92710000Y-139446000D01*
X95310000Y-139446000D02*
X95310000Y-121606000D01*
X95310000Y-140716000D02*
X95310000Y-142046000D01*
X95310000Y-142046000D02*
X93980000Y-142046000D01*
%TO.C,D58*%
X99225000Y-139866000D02*
X96565000Y-139866000D01*
X99225000Y-141566000D02*
X96565000Y-141566000D01*
X99225000Y-141566000D02*
X99225000Y-139866000D01*
%TO.C,AN10*%
X118834000Y-67794000D02*
X118834000Y-71514000D01*
X118834000Y-69604000D02*
X119234000Y-69604000D01*
X118834000Y-70604000D02*
X119234000Y-70604000D01*
X118834000Y-71514000D02*
X125054000Y-71514000D01*
X119234000Y-68194000D02*
X119234000Y-71214000D01*
X119234000Y-71214000D02*
X124654000Y-71214000D01*
X121094000Y-68594000D02*
X121094000Y-68194000D01*
X121194000Y-68194000D02*
X121194000Y-68594000D01*
X121294000Y-68194000D02*
X121294000Y-68594000D01*
X121294000Y-68594000D02*
X121094000Y-68594000D01*
X122594000Y-68594000D02*
X122594000Y-68194000D01*
X122694000Y-68194000D02*
X122694000Y-68594000D01*
X122794000Y-68194000D02*
X122794000Y-68594000D01*
X122794000Y-68594000D02*
X122594000Y-68594000D01*
X123744000Y-71514000D02*
X123744000Y-71714000D01*
X123744000Y-71614000D02*
X124044000Y-71614000D01*
X123744000Y-71714000D02*
X124044000Y-71714000D01*
X124044000Y-71714000D02*
X124044000Y-71514000D01*
X124454000Y-71714000D02*
X125254000Y-71714000D01*
X124654000Y-68194000D02*
X119234000Y-68194000D01*
X124654000Y-71214000D02*
X124654000Y-68194000D01*
X125054000Y-67794000D02*
X118834000Y-67794000D01*
X125054000Y-69604000D02*
X124654000Y-69604000D01*
X125054000Y-70604000D02*
X124654000Y-70604000D01*
X125054000Y-71514000D02*
X125054000Y-67794000D01*
X125254000Y-71714000D02*
X125254000Y-70914000D01*
%TO.C,D31*%
X128948000Y-137310210D02*
X126288000Y-137310210D01*
X128948000Y-139010210D02*
X126288000Y-139010210D01*
X128948000Y-139010210D02*
X128948000Y-137310210D01*
%TO.C,D59*%
X109136000Y-139866000D02*
X106476000Y-139866000D01*
X109136000Y-141566000D02*
X106476000Y-141566000D01*
X109136000Y-141566000D02*
X109136000Y-139866000D01*
%TO.C,AN8*%
X133820000Y-62714000D02*
X133820000Y-66434000D01*
X133820000Y-64524000D02*
X134220000Y-64524000D01*
X133820000Y-65524000D02*
X134220000Y-65524000D01*
X133820000Y-66434000D02*
X140040000Y-66434000D01*
X134220000Y-63114000D02*
X134220000Y-66134000D01*
X134220000Y-66134000D02*
X139640000Y-66134000D01*
X136080000Y-63514000D02*
X136080000Y-63114000D01*
X136180000Y-63114000D02*
X136180000Y-63514000D01*
X136280000Y-63114000D02*
X136280000Y-63514000D01*
X136280000Y-63514000D02*
X136080000Y-63514000D01*
X137580000Y-63514000D02*
X137580000Y-63114000D01*
X137680000Y-63114000D02*
X137680000Y-63514000D01*
X137780000Y-63114000D02*
X137780000Y-63514000D01*
X137780000Y-63514000D02*
X137580000Y-63514000D01*
X138730000Y-66434000D02*
X138730000Y-66634000D01*
X138730000Y-66534000D02*
X139030000Y-66534000D01*
X138730000Y-66634000D02*
X139030000Y-66634000D01*
X139030000Y-66634000D02*
X139030000Y-66434000D01*
X139440000Y-66634000D02*
X140240000Y-66634000D01*
X139640000Y-63114000D02*
X134220000Y-63114000D01*
X139640000Y-66134000D02*
X139640000Y-63114000D01*
X140040000Y-62714000D02*
X133820000Y-62714000D01*
X140040000Y-64524000D02*
X139640000Y-64524000D01*
X140040000Y-65524000D02*
X139640000Y-65524000D01*
X140040000Y-66434000D02*
X140040000Y-62714000D01*
X140240000Y-66634000D02*
X140240000Y-65834000D01*
%TO.C,R12*%
X122325224Y-119603710D02*
X121815776Y-119603710D01*
X122325224Y-120648710D02*
X121815776Y-120648710D01*
%TO.C,R4*%
X106157500Y-86173276D02*
X106157500Y-86682724D01*
X107202500Y-86173276D02*
X107202500Y-86682724D01*
%TO.C,AN9*%
X118834000Y-62714000D02*
X118834000Y-66434000D01*
X118834000Y-64524000D02*
X119234000Y-64524000D01*
X118834000Y-65524000D02*
X119234000Y-65524000D01*
X118834000Y-66434000D02*
X125054000Y-66434000D01*
X119234000Y-63114000D02*
X119234000Y-66134000D01*
X119234000Y-66134000D02*
X124654000Y-66134000D01*
X121094000Y-63514000D02*
X121094000Y-63114000D01*
X121194000Y-63114000D02*
X121194000Y-63514000D01*
X121294000Y-63114000D02*
X121294000Y-63514000D01*
X121294000Y-63514000D02*
X121094000Y-63514000D01*
X122594000Y-63514000D02*
X122594000Y-63114000D01*
X122694000Y-63114000D02*
X122694000Y-63514000D01*
X122794000Y-63114000D02*
X122794000Y-63514000D01*
X122794000Y-63514000D02*
X122594000Y-63514000D01*
X123744000Y-66434000D02*
X123744000Y-66634000D01*
X123744000Y-66534000D02*
X124044000Y-66534000D01*
X123744000Y-66634000D02*
X124044000Y-66634000D01*
X124044000Y-66634000D02*
X124044000Y-66434000D01*
X124454000Y-66634000D02*
X125254000Y-66634000D01*
X124654000Y-63114000D02*
X119234000Y-63114000D01*
X124654000Y-66134000D02*
X124654000Y-63114000D01*
X125054000Y-62714000D02*
X118834000Y-62714000D01*
X125054000Y-64524000D02*
X124654000Y-64524000D01*
X125054000Y-65524000D02*
X124654000Y-65524000D01*
X125054000Y-66434000D02*
X125054000Y-62714000D01*
X125254000Y-66634000D02*
X125254000Y-65834000D01*
%TO.C,AN5*%
X133820000Y-77827000D02*
X133820000Y-81547000D01*
X133820000Y-79637000D02*
X134220000Y-79637000D01*
X133820000Y-80637000D02*
X134220000Y-80637000D01*
X133820000Y-81547000D02*
X140040000Y-81547000D01*
X134220000Y-78227000D02*
X134220000Y-81247000D01*
X134220000Y-81247000D02*
X139640000Y-81247000D01*
X136080000Y-78627000D02*
X136080000Y-78227000D01*
X136180000Y-78227000D02*
X136180000Y-78627000D01*
X136280000Y-78227000D02*
X136280000Y-78627000D01*
X136280000Y-78627000D02*
X136080000Y-78627000D01*
X137580000Y-78627000D02*
X137580000Y-78227000D01*
X137680000Y-78227000D02*
X137680000Y-78627000D01*
X137780000Y-78227000D02*
X137780000Y-78627000D01*
X137780000Y-78627000D02*
X137580000Y-78627000D01*
X138730000Y-81547000D02*
X138730000Y-81747000D01*
X138730000Y-81647000D02*
X139030000Y-81647000D01*
X138730000Y-81747000D02*
X139030000Y-81747000D01*
X139030000Y-81747000D02*
X139030000Y-81547000D01*
X139440000Y-81747000D02*
X140240000Y-81747000D01*
X139640000Y-78227000D02*
X134220000Y-78227000D01*
X139640000Y-81247000D02*
X139640000Y-78227000D01*
X140040000Y-77827000D02*
X133820000Y-77827000D01*
X140040000Y-79637000D02*
X139640000Y-79637000D01*
X140040000Y-80637000D02*
X139640000Y-80637000D01*
X140040000Y-81547000D02*
X140040000Y-77827000D01*
X140240000Y-81747000D02*
X140240000Y-80947000D01*
%TO.C,JR6*%
X139640000Y-142046000D02*
X139640000Y-121606000D01*
X142240000Y-139446000D02*
X142240000Y-142046000D01*
X142240000Y-142046000D02*
X139640000Y-142046000D01*
X144840000Y-121606000D02*
X139640000Y-121606000D01*
X144840000Y-139446000D02*
X142240000Y-139446000D01*
X144840000Y-139446000D02*
X144840000Y-121606000D01*
X144840000Y-140716000D02*
X144840000Y-142046000D01*
X144840000Y-142046000D02*
X143510000Y-142046000D01*
%TO.C,JR3*%
X109922000Y-142046000D02*
X109922000Y-121606000D01*
X112522000Y-139446000D02*
X112522000Y-142046000D01*
X112522000Y-142046000D02*
X109922000Y-142046000D01*
X115122000Y-121606000D02*
X109922000Y-121606000D01*
X115122000Y-139446000D02*
X112522000Y-139446000D01*
X115122000Y-139446000D02*
X115122000Y-121606000D01*
X115122000Y-140716000D02*
X115122000Y-142046000D01*
X115122000Y-142046000D02*
X113792000Y-142046000D01*
%TO.C,R5*%
X109371224Y-90790500D02*
X108861776Y-90790500D01*
X109371224Y-91835500D02*
X108861776Y-91835500D01*
%TO.C,AN1*%
X141416000Y-77827000D02*
X141416000Y-81547000D01*
X141416000Y-79637000D02*
X141816000Y-79637000D01*
X141416000Y-80637000D02*
X141816000Y-80637000D01*
X141416000Y-81547000D02*
X147636000Y-81547000D01*
X141816000Y-78227000D02*
X141816000Y-81247000D01*
X141816000Y-81247000D02*
X147236000Y-81247000D01*
X143676000Y-78627000D02*
X143676000Y-78227000D01*
X143776000Y-78227000D02*
X143776000Y-78627000D01*
X143876000Y-78227000D02*
X143876000Y-78627000D01*
X143876000Y-78627000D02*
X143676000Y-78627000D01*
X145176000Y-78627000D02*
X145176000Y-78227000D01*
X145276000Y-78227000D02*
X145276000Y-78627000D01*
X145376000Y-78227000D02*
X145376000Y-78627000D01*
X145376000Y-78627000D02*
X145176000Y-78627000D01*
X146326000Y-81547000D02*
X146326000Y-81747000D01*
X146326000Y-81647000D02*
X146626000Y-81647000D01*
X146326000Y-81747000D02*
X146626000Y-81747000D01*
X146626000Y-81747000D02*
X146626000Y-81547000D01*
X147036000Y-81747000D02*
X147836000Y-81747000D01*
X147236000Y-78227000D02*
X141816000Y-78227000D01*
X147236000Y-81247000D02*
X147236000Y-78227000D01*
X147636000Y-77827000D02*
X141416000Y-77827000D01*
X147636000Y-79637000D02*
X147236000Y-79637000D01*
X147636000Y-80637000D02*
X147236000Y-80637000D01*
X147636000Y-81547000D02*
X147636000Y-77827000D01*
X147836000Y-81747000D02*
X147836000Y-80947000D01*
%TO.C,D10*%
X109136000Y-132246000D02*
X106476000Y-132246000D01*
X109136000Y-133946000D02*
X106476000Y-133946000D01*
X109136000Y-133946000D02*
X109136000Y-132246000D01*
%TO.C,AN13*%
X118834000Y-77827000D02*
X118834000Y-81547000D01*
X118834000Y-79637000D02*
X119234000Y-79637000D01*
X118834000Y-80637000D02*
X119234000Y-80637000D01*
X118834000Y-81547000D02*
X125054000Y-81547000D01*
X119234000Y-78227000D02*
X119234000Y-81247000D01*
X119234000Y-81247000D02*
X124654000Y-81247000D01*
X121094000Y-78627000D02*
X121094000Y-78227000D01*
X121194000Y-78227000D02*
X121194000Y-78627000D01*
X121294000Y-78227000D02*
X121294000Y-78627000D01*
X121294000Y-78627000D02*
X121094000Y-78627000D01*
X122594000Y-78627000D02*
X122594000Y-78227000D01*
X122694000Y-78227000D02*
X122694000Y-78627000D01*
X122794000Y-78227000D02*
X122794000Y-78627000D01*
X122794000Y-78627000D02*
X122594000Y-78627000D01*
X123744000Y-81547000D02*
X123744000Y-81747000D01*
X123744000Y-81647000D02*
X124044000Y-81647000D01*
X123744000Y-81747000D02*
X124044000Y-81747000D01*
X124044000Y-81747000D02*
X124044000Y-81547000D01*
X124454000Y-81747000D02*
X125254000Y-81747000D01*
X124654000Y-78227000D02*
X119234000Y-78227000D01*
X124654000Y-81247000D02*
X124654000Y-78227000D01*
X125054000Y-77827000D02*
X118834000Y-77827000D01*
X125054000Y-79637000D02*
X124654000Y-79637000D01*
X125054000Y-80637000D02*
X124654000Y-80637000D01*
X125054000Y-81547000D02*
X125054000Y-77827000D01*
X125254000Y-81747000D02*
X125254000Y-80947000D01*
%TO.C,D35*%
X119037000Y-122086000D02*
X116377000Y-122086000D01*
X119037000Y-123786000D02*
X116377000Y-123786000D01*
X119037000Y-123786000D02*
X119037000Y-122086000D01*
%TO.C,D3*%
X99225000Y-122086000D02*
X96565000Y-122086000D01*
X99225000Y-123786000D02*
X96565000Y-123786000D01*
X99225000Y-123786000D02*
X99225000Y-122086000D01*
%TO.C,AN11*%
X118834000Y-72874000D02*
X118834000Y-76594000D01*
X118834000Y-74684000D02*
X119234000Y-74684000D01*
X118834000Y-75684000D02*
X119234000Y-75684000D01*
X118834000Y-76594000D02*
X125054000Y-76594000D01*
X119234000Y-73274000D02*
X119234000Y-76294000D01*
X119234000Y-76294000D02*
X124654000Y-76294000D01*
X121094000Y-73674000D02*
X121094000Y-73274000D01*
X121194000Y-73274000D02*
X121194000Y-73674000D01*
X121294000Y-73274000D02*
X121294000Y-73674000D01*
X121294000Y-73674000D02*
X121094000Y-73674000D01*
X122594000Y-73674000D02*
X122594000Y-73274000D01*
X122694000Y-73274000D02*
X122694000Y-73674000D01*
X122794000Y-73274000D02*
X122794000Y-73674000D01*
X122794000Y-73674000D02*
X122594000Y-73674000D01*
X123744000Y-76594000D02*
X123744000Y-76794000D01*
X123744000Y-76694000D02*
X124044000Y-76694000D01*
X123744000Y-76794000D02*
X124044000Y-76794000D01*
X124044000Y-76794000D02*
X124044000Y-76594000D01*
X124454000Y-76794000D02*
X125254000Y-76794000D01*
X124654000Y-73274000D02*
X119234000Y-73274000D01*
X124654000Y-76294000D02*
X124654000Y-73274000D01*
X125054000Y-72874000D02*
X118834000Y-72874000D01*
X125054000Y-74684000D02*
X124654000Y-74684000D01*
X125054000Y-75684000D02*
X124654000Y-75684000D01*
X125054000Y-76594000D02*
X125054000Y-72874000D01*
X125254000Y-76794000D02*
X125254000Y-75994000D01*
%TO.C,D52*%
X168478000Y-124626000D02*
X165818000Y-124626000D01*
X168478000Y-126326000D02*
X165818000Y-126326000D01*
X168478000Y-126326000D02*
X168478000Y-124626000D01*
%TO.C,JSPI7*%
X151612000Y-61259000D02*
X151612000Y-64979000D01*
X151612000Y-63069000D02*
X152012000Y-63069000D01*
X151612000Y-64069000D02*
X152012000Y-64069000D01*
X151612000Y-64979000D02*
X162332000Y-64979000D01*
X152012000Y-61659000D02*
X152012000Y-64679000D01*
X152012000Y-64679000D02*
X161932000Y-64679000D01*
X153872000Y-62059000D02*
X153872000Y-61659000D01*
X153972000Y-61659000D02*
X153972000Y-62059000D01*
X154072000Y-61659000D02*
X154072000Y-62059000D01*
X154072000Y-62059000D02*
X153872000Y-62059000D01*
X155372000Y-62059000D02*
X155372000Y-61659000D01*
X155472000Y-61659000D02*
X155472000Y-62059000D01*
X155572000Y-61659000D02*
X155572000Y-62059000D01*
X155572000Y-62059000D02*
X155372000Y-62059000D01*
X156872000Y-62059000D02*
X156872000Y-61659000D01*
X156972000Y-61659000D02*
X156972000Y-62059000D01*
X157072000Y-61659000D02*
X157072000Y-62059000D01*
X157072000Y-62059000D02*
X156872000Y-62059000D01*
X158372000Y-62059000D02*
X158372000Y-61659000D01*
X158472000Y-61659000D02*
X158472000Y-62059000D01*
X158572000Y-61659000D02*
X158572000Y-62059000D01*
X158572000Y-62059000D02*
X158372000Y-62059000D01*
X159872000Y-62059000D02*
X159872000Y-61659000D01*
X159972000Y-61659000D02*
X159972000Y-62059000D01*
X160072000Y-61659000D02*
X160072000Y-62059000D01*
X160072000Y-62059000D02*
X159872000Y-62059000D01*
X161022000Y-64979000D02*
X161022000Y-65179000D01*
X161022000Y-65079000D02*
X161322000Y-65079000D01*
X161022000Y-65179000D02*
X161322000Y-65179000D01*
X161322000Y-65179000D02*
X161322000Y-64979000D01*
X161732000Y-65179000D02*
X162532000Y-65179000D01*
X161932000Y-61659000D02*
X152012000Y-61659000D01*
X161932000Y-64679000D02*
X161932000Y-61659000D01*
X162332000Y-61259000D02*
X151612000Y-61259000D01*
X162332000Y-63069000D02*
X161932000Y-63069000D01*
X162332000Y-64069000D02*
X161932000Y-64069000D01*
X162332000Y-64979000D02*
X162332000Y-61259000D01*
X162532000Y-65179000D02*
X162532000Y-64379000D01*
%TO.C,R2*%
X92052224Y-74788500D02*
X91542776Y-74788500D01*
X92052224Y-75833500D02*
X91542776Y-75833500D01*
%TO.C,D13*%
X109136000Y-137326000D02*
X106476000Y-137326000D01*
X109136000Y-139026000D02*
X106476000Y-139026000D01*
X109136000Y-139026000D02*
X109136000Y-137326000D01*
%TO.C,D41*%
X148755000Y-134786000D02*
X146095000Y-134786000D01*
X148755000Y-136486000D02*
X146095000Y-136486000D01*
X148755000Y-136486000D02*
X148755000Y-134786000D01*
%TO.C,C4*%
X98277000Y-77951875D02*
X98277000Y-76529371D01*
X100097000Y-77951875D02*
X100097000Y-76529371D01*
%TO.C,D22*%
X138844000Y-129706000D02*
X136184000Y-129706000D01*
X138844000Y-131406000D02*
X136184000Y-131406000D01*
X138844000Y-131406000D02*
X138844000Y-129706000D01*
%TO.C,JSPI2*%
X154985000Y-77952000D02*
X154985000Y-88672000D01*
X154985000Y-88672000D02*
X158705000Y-88672000D01*
X155385000Y-78352000D02*
X155385000Y-88272000D01*
X155385000Y-80212000D02*
X155785000Y-80212000D01*
X155385000Y-80312000D02*
X155785000Y-80312000D01*
X155385000Y-81712000D02*
X155785000Y-81712000D01*
X155385000Y-81812000D02*
X155785000Y-81812000D01*
X155385000Y-83212000D02*
X155785000Y-83212000D01*
X155385000Y-83312000D02*
X155785000Y-83312000D01*
X155385000Y-84712000D02*
X155785000Y-84712000D01*
X155385000Y-84812000D02*
X155785000Y-84812000D01*
X155385000Y-86212000D02*
X155785000Y-86212000D01*
X155385000Y-86312000D02*
X155785000Y-86312000D01*
X155385000Y-88272000D02*
X158405000Y-88272000D01*
X155785000Y-80212000D02*
X155785000Y-80412000D01*
X155785000Y-80412000D02*
X155385000Y-80412000D01*
X155785000Y-81712000D02*
X155785000Y-81912000D01*
X155785000Y-81912000D02*
X155385000Y-81912000D01*
X155785000Y-83212000D02*
X155785000Y-83412000D01*
X155785000Y-83412000D02*
X155385000Y-83412000D01*
X155785000Y-84712000D02*
X155785000Y-84912000D01*
X155785000Y-84912000D02*
X155385000Y-84912000D01*
X155785000Y-86212000D02*
X155785000Y-86412000D01*
X155785000Y-86412000D02*
X155385000Y-86412000D01*
X156795000Y-77952000D02*
X156795000Y-78352000D01*
X156795000Y-88672000D02*
X156795000Y-88272000D01*
X157795000Y-77952000D02*
X157795000Y-78352000D01*
X157795000Y-88672000D02*
X157795000Y-88272000D01*
X158405000Y-78352000D02*
X155385000Y-78352000D01*
X158405000Y-88272000D02*
X158405000Y-78352000D01*
X158705000Y-77952000D02*
X154985000Y-77952000D01*
X158705000Y-79262000D02*
X158905000Y-79262000D01*
X158705000Y-88672000D02*
X158705000Y-77952000D01*
X158805000Y-79262000D02*
X158805000Y-78962000D01*
X158905000Y-77752000D02*
X158105000Y-77752000D01*
X158905000Y-78552000D02*
X158905000Y-77752000D01*
X158905000Y-78962000D02*
X158705000Y-78962000D01*
X158905000Y-79262000D02*
X158905000Y-78962000D01*
%TO.C,L1*%
X91767000Y-82061000D02*
X98987000Y-82061000D01*
X91767000Y-83461000D02*
X91767000Y-82061000D01*
X91767000Y-88881000D02*
X91767000Y-87481000D01*
X98987000Y-82061000D02*
X98987000Y-83461000D01*
X98987000Y-87481000D02*
X98987000Y-88881000D01*
X98987000Y-88881000D02*
X91767000Y-88881000D01*
%TO.C,AN3*%
X141416000Y-67794000D02*
X141416000Y-71514000D01*
X141416000Y-69604000D02*
X141816000Y-69604000D01*
X141416000Y-70604000D02*
X141816000Y-70604000D01*
X141416000Y-71514000D02*
X147636000Y-71514000D01*
X141816000Y-68194000D02*
X141816000Y-71214000D01*
X141816000Y-71214000D02*
X147236000Y-71214000D01*
X143676000Y-68594000D02*
X143676000Y-68194000D01*
X143776000Y-68194000D02*
X143776000Y-68594000D01*
X143876000Y-68194000D02*
X143876000Y-68594000D01*
X143876000Y-68594000D02*
X143676000Y-68594000D01*
X145176000Y-68594000D02*
X145176000Y-68194000D01*
X145276000Y-68194000D02*
X145276000Y-68594000D01*
X145376000Y-68194000D02*
X145376000Y-68594000D01*
X145376000Y-68594000D02*
X145176000Y-68594000D01*
X146326000Y-71514000D02*
X146326000Y-71714000D01*
X146326000Y-71614000D02*
X146626000Y-71614000D01*
X146326000Y-71714000D02*
X146626000Y-71714000D01*
X146626000Y-71714000D02*
X146626000Y-71514000D01*
X147036000Y-71714000D02*
X147836000Y-71714000D01*
X147236000Y-68194000D02*
X141816000Y-68194000D01*
X147236000Y-71214000D02*
X147236000Y-68194000D01*
X147636000Y-67794000D02*
X141416000Y-67794000D01*
X147636000Y-69604000D02*
X147236000Y-69604000D01*
X147636000Y-70604000D02*
X147236000Y-70604000D01*
X147636000Y-71514000D02*
X147636000Y-67794000D01*
X147836000Y-71714000D02*
X147836000Y-70914000D01*
%TO.C,AN12*%
X126327000Y-62714000D02*
X126327000Y-66434000D01*
X126327000Y-64524000D02*
X126727000Y-64524000D01*
X126327000Y-65524000D02*
X126727000Y-65524000D01*
X126327000Y-66434000D02*
X132547000Y-66434000D01*
X126727000Y-63114000D02*
X126727000Y-66134000D01*
X126727000Y-66134000D02*
X132147000Y-66134000D01*
X128587000Y-63514000D02*
X128587000Y-63114000D01*
X128687000Y-63114000D02*
X128687000Y-63514000D01*
X128787000Y-63114000D02*
X128787000Y-63514000D01*
X128787000Y-63514000D02*
X128587000Y-63514000D01*
X130087000Y-63514000D02*
X130087000Y-63114000D01*
X130187000Y-63114000D02*
X130187000Y-63514000D01*
X130287000Y-63114000D02*
X130287000Y-63514000D01*
X130287000Y-63514000D02*
X130087000Y-63514000D01*
X131237000Y-66434000D02*
X131237000Y-66634000D01*
X131237000Y-66534000D02*
X131537000Y-66534000D01*
X131237000Y-66634000D02*
X131537000Y-66634000D01*
X131537000Y-66634000D02*
X131537000Y-66434000D01*
X131947000Y-66634000D02*
X132747000Y-66634000D01*
X132147000Y-63114000D02*
X126727000Y-63114000D01*
X132147000Y-66134000D02*
X132147000Y-63114000D01*
X132547000Y-62714000D02*
X126327000Y-62714000D01*
X132547000Y-64524000D02*
X132147000Y-64524000D01*
X132547000Y-65524000D02*
X132147000Y-65524000D01*
X132547000Y-66434000D02*
X132547000Y-62714000D01*
X132747000Y-66634000D02*
X132747000Y-65834000D01*
%TO.C,D32*%
X119042000Y-132246000D02*
X116382000Y-132246000D01*
X119042000Y-133946000D02*
X116382000Y-133946000D01*
X119042000Y-133946000D02*
X119042000Y-132246000D01*
%TO.C,D26*%
X119042000Y-127166000D02*
X116382000Y-127166000D01*
X119042000Y-128866000D02*
X116382000Y-128866000D01*
X119042000Y-128866000D02*
X119042000Y-127166000D01*
%TO.C,D40*%
X148755000Y-137326000D02*
X146095000Y-137326000D01*
X148755000Y-139026000D02*
X146095000Y-139026000D01*
X148755000Y-139026000D02*
X148755000Y-137326000D01*
%TO.C,R3*%
X109982724Y-77328500D02*
X109473276Y-77328500D01*
X109982724Y-78373500D02*
X109473276Y-78373500D01*
%TO.C,C3*%
X100182000Y-81927248D02*
X100182000Y-83349752D01*
X102002000Y-81927248D02*
X102002000Y-83349752D01*
%TO.C,D2*%
X99225000Y-134786000D02*
X96565000Y-134786000D01*
X99225000Y-136486000D02*
X96565000Y-136486000D01*
X99225000Y-136486000D02*
X99225000Y-134786000D01*
%TO.C,D16*%
X128948000Y-122070210D02*
X126288000Y-122070210D01*
X128948000Y-123770210D02*
X126288000Y-123770210D01*
X128948000Y-123770210D02*
X128948000Y-122070210D01*
%TO.C,C1*%
X109726000Y-85553333D02*
X109726000Y-85845867D01*
X110746000Y-85553333D02*
X110746000Y-85845867D01*
%TO.C,R1*%
X93901838Y-73284903D02*
X93901838Y-73794351D01*
X94946838Y-73284903D02*
X94946838Y-73794351D01*
%TO.C,D60*%
X119042000Y-139866000D02*
X116382000Y-139866000D01*
X119042000Y-141566000D02*
X116382000Y-141566000D01*
X119042000Y-141566000D02*
X119042000Y-139866000D01*
%TO.C,AN2*%
X141416000Y-72874000D02*
X141416000Y-76594000D01*
X141416000Y-74684000D02*
X141816000Y-74684000D01*
X141416000Y-75684000D02*
X141816000Y-75684000D01*
X141416000Y-76594000D02*
X147636000Y-76594000D01*
X141816000Y-73274000D02*
X141816000Y-76294000D01*
X141816000Y-76294000D02*
X147236000Y-76294000D01*
X143676000Y-73674000D02*
X143676000Y-73274000D01*
X143776000Y-73274000D02*
X143776000Y-73674000D01*
X143876000Y-73274000D02*
X143876000Y-73674000D01*
X143876000Y-73674000D02*
X143676000Y-73674000D01*
X145176000Y-73674000D02*
X145176000Y-73274000D01*
X145276000Y-73274000D02*
X145276000Y-73674000D01*
X145376000Y-73274000D02*
X145376000Y-73674000D01*
X145376000Y-73674000D02*
X145176000Y-73674000D01*
X146326000Y-76594000D02*
X146326000Y-76794000D01*
X146326000Y-76694000D02*
X146626000Y-76694000D01*
X146326000Y-76794000D02*
X146626000Y-76794000D01*
X146626000Y-76794000D02*
X146626000Y-76594000D01*
X147036000Y-76794000D02*
X147836000Y-76794000D01*
X147236000Y-73274000D02*
X141816000Y-73274000D01*
X147236000Y-76294000D02*
X147236000Y-73274000D01*
X147636000Y-72874000D02*
X141416000Y-72874000D01*
X147636000Y-74684000D02*
X147236000Y-74684000D01*
X147636000Y-75684000D02*
X147236000Y-75684000D01*
X147636000Y-76594000D02*
X147636000Y-72874000D01*
X147836000Y-76794000D02*
X147836000Y-75994000D01*
%TO.C,D65*%
X168478000Y-139866000D02*
X165818000Y-139866000D01*
X168478000Y-141566000D02*
X165818000Y-141566000D01*
X168478000Y-141566000D02*
X168478000Y-139866000D01*
%TO.C,R11*%
X102513224Y-119619500D02*
X102003776Y-119619500D01*
X102513224Y-120664500D02*
X102003776Y-120664500D01*
%TO.C,D46*%
X148755163Y-122086000D02*
X146095163Y-122086000D01*
X148755163Y-123786000D02*
X146095163Y-123786000D01*
X148755163Y-123786000D02*
X148755163Y-122086000D01*
%TO.C,D44*%
X148755000Y-127166000D02*
X146095000Y-127166000D01*
X148755000Y-128866000D02*
X146095000Y-128866000D01*
X148755000Y-128866000D02*
X148755000Y-127166000D01*
%TO.C,C8*%
X101750400Y-92449867D02*
X101750400Y-92157333D01*
X102770400Y-92449867D02*
X102770400Y-92157333D01*
%TO.C,JSPI4*%
X150159000Y-66141000D02*
X150159000Y-76861000D01*
X150159000Y-76861000D02*
X153879000Y-76861000D01*
X150559000Y-66541000D02*
X150559000Y-76461000D01*
X150559000Y-68401000D02*
X150959000Y-68401000D01*
X150559000Y-68501000D02*
X150959000Y-68501000D01*
X150559000Y-69901000D02*
X150959000Y-69901000D01*
X150559000Y-70001000D02*
X150959000Y-70001000D01*
X150559000Y-71401000D02*
X150959000Y-71401000D01*
X150559000Y-71501000D02*
X150959000Y-71501000D01*
X150559000Y-72901000D02*
X150959000Y-72901000D01*
X150559000Y-73001000D02*
X150959000Y-73001000D01*
X150559000Y-74401000D02*
X150959000Y-74401000D01*
X150559000Y-74501000D02*
X150959000Y-74501000D01*
X150559000Y-76461000D02*
X153579000Y-76461000D01*
X150959000Y-68401000D02*
X150959000Y-68601000D01*
X150959000Y-68601000D02*
X150559000Y-68601000D01*
X150959000Y-69901000D02*
X150959000Y-70101000D01*
X150959000Y-70101000D02*
X150559000Y-70101000D01*
X150959000Y-71401000D02*
X150959000Y-71601000D01*
X150959000Y-71601000D02*
X150559000Y-71601000D01*
X150959000Y-72901000D02*
X150959000Y-73101000D01*
X150959000Y-73101000D02*
X150559000Y-73101000D01*
X150959000Y-74401000D02*
X150959000Y-74601000D01*
X150959000Y-74601000D02*
X150559000Y-74601000D01*
X151969000Y-66141000D02*
X151969000Y-66541000D01*
X151969000Y-76861000D02*
X151969000Y-76461000D01*
X152969000Y-66141000D02*
X152969000Y-66541000D01*
X152969000Y-76861000D02*
X152969000Y-76461000D01*
X153579000Y-66541000D02*
X150559000Y-66541000D01*
X153579000Y-76461000D02*
X153579000Y-66541000D01*
X153879000Y-66141000D02*
X150159000Y-66141000D01*
X153879000Y-67451000D02*
X154079000Y-67451000D01*
X153879000Y-76861000D02*
X153879000Y-66141000D01*
X153979000Y-67451000D02*
X153979000Y-67151000D01*
X154079000Y-65941000D02*
X153279000Y-65941000D01*
X154079000Y-66741000D02*
X154079000Y-65941000D01*
X154079000Y-67151000D02*
X153879000Y-67151000D01*
X154079000Y-67451000D02*
X154079000Y-67151000D01*
%TO.C,J28*%
X167707000Y-69372714D02*
X188147000Y-69372714D01*
X167707000Y-71972714D02*
X167707000Y-69372714D01*
X167707000Y-74572714D02*
X167707000Y-73242714D01*
X169037000Y-74572714D02*
X167707000Y-74572714D01*
X170307000Y-71972714D02*
X167707000Y-71972714D01*
X170307000Y-74572714D02*
X170307000Y-71972714D01*
X170307000Y-74572714D02*
X188147000Y-74572714D01*
X188147000Y-74572714D02*
X188147000Y-69372714D01*
%TO.C,D17*%
X138844000Y-124626000D02*
X136184000Y-124626000D01*
X138844000Y-126326000D02*
X136184000Y-126326000D01*
X138844000Y-126326000D02*
X138844000Y-124626000D01*
%TO.C,AN7*%
X133820000Y-67794000D02*
X133820000Y-71514000D01*
X133820000Y-69604000D02*
X134220000Y-69604000D01*
X133820000Y-70604000D02*
X134220000Y-70604000D01*
X133820000Y-71514000D02*
X140040000Y-71514000D01*
X134220000Y-68194000D02*
X134220000Y-71214000D01*
X134220000Y-71214000D02*
X139640000Y-71214000D01*
X136080000Y-68594000D02*
X136080000Y-68194000D01*
X136180000Y-68194000D02*
X136180000Y-68594000D01*
X136280000Y-68194000D02*
X136280000Y-68594000D01*
X136280000Y-68594000D02*
X136080000Y-68594000D01*
X137580000Y-68594000D02*
X137580000Y-68194000D01*
X137680000Y-68194000D02*
X137680000Y-68594000D01*
X137780000Y-68194000D02*
X137780000Y-68594000D01*
X137780000Y-68594000D02*
X137580000Y-68594000D01*
X138730000Y-71514000D02*
X138730000Y-71714000D01*
X138730000Y-71614000D02*
X139030000Y-71614000D01*
X138730000Y-71714000D02*
X139030000Y-71714000D01*
X139030000Y-71714000D02*
X139030000Y-71514000D01*
X139440000Y-71714000D02*
X140240000Y-71714000D01*
X139640000Y-68194000D02*
X134220000Y-68194000D01*
X139640000Y-71214000D02*
X139640000Y-68194000D01*
X140040000Y-67794000D02*
X133820000Y-67794000D01*
X140040000Y-69604000D02*
X139640000Y-69604000D01*
X140040000Y-70604000D02*
X139640000Y-70604000D01*
X140040000Y-71514000D02*
X140040000Y-67794000D01*
X140240000Y-71714000D02*
X140240000Y-70914000D01*
%TO.C,JR4*%
X119828000Y-142030210D02*
X119828000Y-121590210D01*
X122428000Y-139430210D02*
X122428000Y-142030210D01*
X122428000Y-142030210D02*
X119828000Y-142030210D01*
X125028000Y-121590210D02*
X119828000Y-121590210D01*
X125028000Y-139430210D02*
X122428000Y-139430210D01*
X125028000Y-139430210D02*
X125028000Y-121590210D01*
X125028000Y-140700210D02*
X125028000Y-142030210D01*
X125028000Y-142030210D02*
X123698000Y-142030210D01*
%TO.C,R7*%
X142987500Y-102615276D02*
X142987500Y-103124724D01*
X144032500Y-102615276D02*
X144032500Y-103124724D01*
%TO.C,D34*%
X119042000Y-129706000D02*
X116382000Y-129706000D01*
X119042000Y-131406000D02*
X116382000Y-131406000D01*
X119042000Y-131406000D02*
X119042000Y-129706000D01*
%TO.C,C15*%
X105135000Y-62052252D02*
X105135000Y-60629748D01*
X106955000Y-62052252D02*
X106955000Y-60629748D01*
%TO.C,U1*%
X95752500Y-75612011D02*
X94952500Y-75612011D01*
X95752500Y-75612011D02*
X96552500Y-75612011D01*
X95752500Y-78732011D02*
X94952500Y-78732011D01*
X95752500Y-78732011D02*
X96552500Y-78732011D01*
X97292500Y-79012011D02*
X96812500Y-79012011D01*
X97052500Y-78682011D01*
X97292500Y-79012011D01*
G36*
X97292500Y-79012011D02*
G01*
X96812500Y-79012011D01*
X97052500Y-78682011D01*
X97292500Y-79012011D01*
G37*
%TO.C,J2*%
X89609000Y-61498500D02*
X104309000Y-61498500D01*
X89609000Y-70698500D02*
X89609000Y-61498500D01*
X98409000Y-70698500D02*
X89609000Y-70698500D01*
X103459000Y-61298500D02*
X104509000Y-61298500D01*
X104309000Y-61498500D02*
X104309000Y-64098500D01*
X104309000Y-68098500D02*
X104309000Y-70698500D01*
X104309000Y-70698500D02*
X102409000Y-70698500D01*
X104509000Y-62348500D02*
X104509000Y-61298500D01*
%TO.C,U5*%
X152928000Y-95123000D02*
X152928000Y-93173000D01*
X152928000Y-95123000D02*
X152928000Y-97073000D01*
X163048000Y-95123000D02*
X163048000Y-93173000D01*
X163048000Y-95123000D02*
X163048000Y-97073000D01*
X152983000Y-97823000D02*
X152653000Y-98063000D01*
X152653000Y-97583000D01*
X152983000Y-97823000D01*
G36*
X152983000Y-97823000D02*
G01*
X152653000Y-98063000D01*
X152653000Y-97583000D01*
X152983000Y-97823000D01*
G37*
%TO.C,C14*%
X113663000Y-78632267D02*
X113663000Y-78339733D01*
X114683000Y-78632267D02*
X114683000Y-78339733D01*
%TO.C,D6*%
X109136000Y-127166000D02*
X106476000Y-127166000D01*
X109136000Y-128866000D02*
X106476000Y-128866000D01*
X109136000Y-128866000D02*
X109136000Y-127166000D01*
%TO.C,J27*%
X167707000Y-84540142D02*
X188147000Y-84540142D01*
X167707000Y-87140142D02*
X167707000Y-84540142D01*
X167707000Y-89740142D02*
X167707000Y-88410142D01*
X169037000Y-89740142D02*
X167707000Y-89740142D01*
X170307000Y-87140142D02*
X167707000Y-87140142D01*
X170307000Y-89740142D02*
X170307000Y-87140142D01*
X170307000Y-89740142D02*
X188147000Y-89740142D01*
X188147000Y-89740142D02*
X188147000Y-84540142D01*
%TO.C,D19*%
X138844000Y-122086000D02*
X136184000Y-122086000D01*
X138844000Y-123786000D02*
X136184000Y-123786000D01*
X138844000Y-123786000D02*
X138844000Y-122086000D01*
%TO.C,D48*%
X158661000Y-137326000D02*
X156001000Y-137326000D01*
X158661000Y-139026000D02*
X156001000Y-139026000D01*
X158661000Y-139026000D02*
X158661000Y-137326000D01*
%TO.C,D21*%
X128948000Y-127150210D02*
X126288000Y-127150210D01*
X128948000Y-128850210D02*
X126288000Y-128850210D01*
X128948000Y-128850210D02*
X128948000Y-127150210D01*
%TO.C,C12*%
X172472133Y-136599200D02*
X172764667Y-136599200D01*
X172472133Y-137619200D02*
X172764667Y-137619200D01*
%TO.C,D8*%
X109136000Y-129706000D02*
X106476000Y-129706000D01*
X109136000Y-131406000D02*
X106476000Y-131406000D01*
X109136000Y-131406000D02*
X109136000Y-129706000D01*
%TO.C,R6*%
X100061500Y-91998076D02*
X100061500Y-92507524D01*
X101106500Y-91998076D02*
X101106500Y-92507524D01*
%TO.C,J29*%
X167707000Y-61789000D02*
X188147000Y-61789000D01*
X167707000Y-64389000D02*
X167707000Y-61789000D01*
X167707000Y-66989000D02*
X167707000Y-65659000D01*
X169037000Y-66989000D02*
X167707000Y-66989000D01*
X170307000Y-64389000D02*
X167707000Y-64389000D01*
X170307000Y-66989000D02*
X170307000Y-64389000D01*
X170307000Y-66989000D02*
X188147000Y-66989000D01*
X188147000Y-66989000D02*
X188147000Y-61789000D01*
%TO.C,J30*%
X144825000Y-95200000D02*
X144825000Y-102920000D01*
X144825000Y-102920000D02*
X148545000Y-102920000D01*
X145225000Y-95600000D02*
X145225000Y-102520000D01*
X145225000Y-97460000D02*
X145625000Y-97460000D01*
X145225000Y-97560000D02*
X145625000Y-97560000D01*
X145225000Y-98960000D02*
X145625000Y-98960000D01*
X145225000Y-99060000D02*
X145625000Y-99060000D01*
X145225000Y-100460000D02*
X145625000Y-100460000D01*
X145225000Y-100560000D02*
X145625000Y-100560000D01*
X145225000Y-102520000D02*
X148245000Y-102520000D01*
X145625000Y-97460000D02*
X145625000Y-97660000D01*
X145625000Y-97660000D02*
X145225000Y-97660000D01*
X145625000Y-98960000D02*
X145625000Y-99160000D01*
X145625000Y-99160000D02*
X145225000Y-99160000D01*
X145625000Y-100460000D02*
X145625000Y-100660000D01*
X145625000Y-100660000D02*
X145225000Y-100660000D01*
X146635000Y-95200000D02*
X146635000Y-95600000D01*
X146635000Y-102920000D02*
X146635000Y-102520000D01*
X147635000Y-95200000D02*
X147635000Y-95600000D01*
X147635000Y-102920000D02*
X147635000Y-102520000D01*
X148245000Y-95600000D02*
X145225000Y-95600000D01*
X148245000Y-102520000D02*
X148245000Y-95600000D01*
X148545000Y-95200000D02*
X144825000Y-95200000D01*
X148545000Y-96510000D02*
X148745000Y-96510000D01*
X148545000Y-102920000D02*
X148545000Y-95200000D01*
X148645000Y-96510000D02*
X148645000Y-96210000D01*
X148745000Y-95000000D02*
X147945000Y-95000000D01*
X148745000Y-95800000D02*
X148745000Y-95000000D01*
X148745000Y-96210000D02*
X148545000Y-96210000D01*
X148745000Y-96510000D02*
X148745000Y-96210000D01*
%TO.C,D12*%
X99225000Y-137326000D02*
X96565000Y-137326000D01*
X99225000Y-139026000D02*
X96565000Y-139026000D01*
X99225000Y-139026000D02*
X99225000Y-137326000D01*
%TO.C,D28*%
X128948000Y-134770210D02*
X126288000Y-134770210D01*
X128948000Y-136470210D02*
X126288000Y-136470210D01*
X128948000Y-136470210D02*
X128948000Y-134770210D01*
%TO.C,D24*%
X138844000Y-132246000D02*
X136184000Y-132246000D01*
X138844000Y-133946000D02*
X136184000Y-133946000D01*
X138844000Y-133946000D02*
X138844000Y-132246000D01*
%TO.C,D11*%
X99225000Y-132246000D02*
X96565000Y-132246000D01*
X99225000Y-133946000D02*
X96565000Y-133946000D01*
X99225000Y-133946000D02*
X99225000Y-132246000D01*
%TO.C,D18*%
X128948000Y-124610210D02*
X126288000Y-124610210D01*
X128948000Y-126310210D02*
X126288000Y-126310210D01*
X128948000Y-126310210D02*
X128948000Y-124610210D01*
%TO.C,D15*%
X109136000Y-124626000D02*
X106476000Y-124626000D01*
X109136000Y-126326000D02*
X106476000Y-126326000D01*
X109136000Y-126326000D02*
X109136000Y-124626000D01*
%TO.C,J35*%
X167707000Y-92123856D02*
X188147000Y-92123856D01*
X167707000Y-94723856D02*
X167707000Y-92123856D01*
X167707000Y-97323856D02*
X167707000Y-95993856D01*
X169037000Y-97323856D02*
X167707000Y-97323856D01*
X170307000Y-94723856D02*
X167707000Y-94723856D01*
X170307000Y-97323856D02*
X170307000Y-94723856D01*
X170307000Y-97323856D02*
X188147000Y-97323856D01*
X188147000Y-97323856D02*
X188147000Y-92123856D01*
%TO.C,J33*%
X167580000Y-114875000D02*
X188020000Y-114875000D01*
X167580000Y-117475000D02*
X167580000Y-114875000D01*
X167580000Y-120075000D02*
X167580000Y-118745000D01*
X168910000Y-120075000D02*
X167580000Y-120075000D01*
X170180000Y-117475000D02*
X167580000Y-117475000D01*
X170180000Y-120075000D02*
X170180000Y-117475000D01*
X170180000Y-120075000D02*
X188020000Y-120075000D01*
X188020000Y-120075000D02*
X188020000Y-114875000D01*
D13*
%TO.C,Q1*%
X108360000Y-66651000D02*
X108360000Y-72871000D01*
X115160000Y-66651000D02*
X115160000Y-72871000D01*
X115160000Y-72871000D02*
X108360000Y-72871000D01*
D12*
X110600000Y-76287000D02*
G75*
G02*
X110400000Y-76287000I-100000J0D01*
G01*
X110400000Y-76287000D02*
G75*
G02*
X110600000Y-76287000I100000J0D01*
G01*
D10*
%TO.C,AN16*%
X126327000Y-77827000D02*
X126327000Y-81547000D01*
X126327000Y-79637000D02*
X126727000Y-79637000D01*
X126327000Y-80637000D02*
X126727000Y-80637000D01*
X126327000Y-81547000D02*
X132547000Y-81547000D01*
X126727000Y-78227000D02*
X126727000Y-81247000D01*
X126727000Y-81247000D02*
X132147000Y-81247000D01*
X128587000Y-78627000D02*
X128587000Y-78227000D01*
X128687000Y-78227000D02*
X128687000Y-78627000D01*
X128787000Y-78227000D02*
X128787000Y-78627000D01*
X128787000Y-78627000D02*
X128587000Y-78627000D01*
X130087000Y-78627000D02*
X130087000Y-78227000D01*
X130187000Y-78227000D02*
X130187000Y-78627000D01*
X130287000Y-78227000D02*
X130287000Y-78627000D01*
X130287000Y-78627000D02*
X130087000Y-78627000D01*
X131237000Y-81547000D02*
X131237000Y-81747000D01*
X131237000Y-81647000D02*
X131537000Y-81647000D01*
X131237000Y-81747000D02*
X131537000Y-81747000D01*
X131537000Y-81747000D02*
X131537000Y-81547000D01*
X131947000Y-81747000D02*
X132747000Y-81747000D01*
X132147000Y-78227000D02*
X126727000Y-78227000D01*
X132147000Y-81247000D02*
X132147000Y-78227000D01*
X132547000Y-77827000D02*
X126327000Y-77827000D01*
X132547000Y-79637000D02*
X132147000Y-79637000D01*
X132547000Y-80637000D02*
X132147000Y-80637000D01*
X132547000Y-81547000D02*
X132547000Y-77827000D01*
X132747000Y-81747000D02*
X132747000Y-80947000D01*
%TO.C,C10*%
X149712000Y-114376252D02*
X149712000Y-112953748D01*
X151532000Y-114376252D02*
X151532000Y-112953748D01*
%TO.C,JR7*%
X149546000Y-142046000D02*
X149546000Y-121606000D01*
X152146000Y-139446000D02*
X152146000Y-142046000D01*
X152146000Y-142046000D02*
X149546000Y-142046000D01*
X154746000Y-121606000D02*
X149546000Y-121606000D01*
X154746000Y-139446000D02*
X152146000Y-139446000D01*
X154746000Y-139446000D02*
X154746000Y-121606000D01*
X154746000Y-140716000D02*
X154746000Y-142046000D01*
X154746000Y-142046000D02*
X153416000Y-142046000D01*
%TO.C,JR2*%
X100016000Y-142046000D02*
X100016000Y-121606000D01*
X102616000Y-139446000D02*
X102616000Y-142046000D01*
X102616000Y-142046000D02*
X100016000Y-142046000D01*
X105216000Y-121606000D02*
X100016000Y-121606000D01*
X105216000Y-139446000D02*
X102616000Y-139446000D01*
X105216000Y-139446000D02*
X105216000Y-121606000D01*
X105216000Y-140716000D02*
X105216000Y-142046000D01*
X105216000Y-142046000D02*
X103886000Y-142046000D01*
%TO.C,D54*%
X168478000Y-122086000D02*
X165818000Y-122086000D01*
X168478000Y-123786000D02*
X165818000Y-123786000D01*
X168478000Y-123786000D02*
X168478000Y-122086000D01*
%TO.C,D43*%
X148755000Y-129706000D02*
X146095000Y-129706000D01*
X148755000Y-131406000D02*
X146095000Y-131406000D01*
X148755000Y-131406000D02*
X148755000Y-129706000D01*
%TO.C,D4*%
X109136000Y-122086000D02*
X106476000Y-122086000D01*
X109136000Y-123786000D02*
X106476000Y-123786000D01*
X109136000Y-123786000D02*
X109136000Y-122086000D01*
%TO.C,R16*%
X142137224Y-119619500D02*
X141627776Y-119619500D01*
X142137224Y-120664500D02*
X141627776Y-120664500D01*
%TO.C,D47*%
X158661000Y-122086000D02*
X156001000Y-122086000D01*
X158661000Y-123786000D02*
X156001000Y-123786000D01*
X158661000Y-123786000D02*
X158661000Y-122086000D01*
%TO.C,D63*%
X158661000Y-139866000D02*
X156001000Y-139866000D01*
X158661000Y-141566000D02*
X156001000Y-141566000D01*
X158661000Y-141566000D02*
X158661000Y-139866000D01*
%TO.C,D45*%
X148755000Y-124626000D02*
X146095000Y-124626000D01*
X148755000Y-126326000D02*
X146095000Y-126326000D01*
X148755000Y-126326000D02*
X148755000Y-124626000D01*
%TO.C,D50*%
X158661000Y-134786000D02*
X156001000Y-134786000D01*
X158661000Y-136486000D02*
X156001000Y-136486000D01*
X158661000Y-136486000D02*
X158661000Y-134786000D01*
%TO.C,R8*%
X149337500Y-97687224D02*
X149337500Y-97177776D01*
X150382500Y-97687224D02*
X150382500Y-97177776D01*
%TO.C,R13*%
X132231224Y-119619500D02*
X131721776Y-119619500D01*
X132231224Y-120664500D02*
X131721776Y-120664500D01*
%TO.C,D39*%
X158661000Y-129706000D02*
X156001000Y-129706000D01*
X158661000Y-131406000D02*
X156001000Y-131406000D01*
X158661000Y-131406000D02*
X158661000Y-129706000D01*
%TO.C,J26*%
X167707000Y-76956428D02*
X188147000Y-76956428D01*
X167707000Y-79556428D02*
X167707000Y-76956428D01*
X167707000Y-82156428D02*
X167707000Y-80826428D01*
X169037000Y-82156428D02*
X167707000Y-82156428D01*
X170307000Y-79556428D02*
X167707000Y-79556428D01*
X170307000Y-82156428D02*
X170307000Y-79556428D01*
X170307000Y-82156428D02*
X188147000Y-82156428D01*
X188147000Y-82156428D02*
X188147000Y-76956428D01*
%TO.C,R14*%
X152043224Y-119619500D02*
X151533776Y-119619500D01*
X152043224Y-120664500D02*
X151533776Y-120664500D01*
%TO.C,AN4*%
X141416000Y-62714000D02*
X141416000Y-66434000D01*
X141416000Y-64524000D02*
X141816000Y-64524000D01*
X141416000Y-65524000D02*
X141816000Y-65524000D01*
X141416000Y-66434000D02*
X147636000Y-66434000D01*
X141816000Y-63114000D02*
X141816000Y-66134000D01*
X141816000Y-66134000D02*
X147236000Y-66134000D01*
X143676000Y-63514000D02*
X143676000Y-63114000D01*
X143776000Y-63114000D02*
X143776000Y-63514000D01*
X143876000Y-63114000D02*
X143876000Y-63514000D01*
X143876000Y-63514000D02*
X143676000Y-63514000D01*
X145176000Y-63514000D02*
X145176000Y-63114000D01*
X145276000Y-63114000D02*
X145276000Y-63514000D01*
X145376000Y-63114000D02*
X145376000Y-63514000D01*
X145376000Y-63514000D02*
X145176000Y-63514000D01*
X146326000Y-66434000D02*
X146326000Y-66634000D01*
X146326000Y-66534000D02*
X146626000Y-66534000D01*
X146326000Y-66634000D02*
X146626000Y-66634000D01*
X146626000Y-66634000D02*
X146626000Y-66434000D01*
X147036000Y-66634000D02*
X147836000Y-66634000D01*
X147236000Y-63114000D02*
X141816000Y-63114000D01*
X147236000Y-66134000D02*
X147236000Y-63114000D01*
X147636000Y-62714000D02*
X141416000Y-62714000D01*
X147636000Y-64524000D02*
X147236000Y-64524000D01*
X147636000Y-65524000D02*
X147236000Y-65524000D01*
X147636000Y-66434000D02*
X147636000Y-62714000D01*
X147836000Y-66634000D02*
X147836000Y-65834000D01*
%TO.C,D51*%
X168478000Y-129706000D02*
X165818000Y-129706000D01*
X168478000Y-131406000D02*
X165818000Y-131406000D01*
X168478000Y-131406000D02*
X168478000Y-129706000D01*
%TO.C,J34*%
X167707000Y-107291284D02*
X188147000Y-107291284D01*
X167707000Y-109891284D02*
X167707000Y-107291284D01*
X167707000Y-112491284D02*
X167707000Y-111161284D01*
X169037000Y-112491284D02*
X167707000Y-112491284D01*
X170307000Y-109891284D02*
X167707000Y-109891284D01*
X170307000Y-112491284D02*
X170307000Y-109891284D01*
X170307000Y-112491284D02*
X188147000Y-112491284D01*
X188147000Y-112491284D02*
X188147000Y-107291284D01*
%TO.C,J3*%
X89679000Y-115934000D02*
X89679000Y-114554000D01*
X91059000Y-115934000D02*
X89679000Y-115934000D01*
X92329000Y-113174000D02*
X140699000Y-113174000D01*
X92329000Y-115934000D02*
X92329000Y-113174000D01*
X92329000Y-115934000D02*
X140699000Y-115934000D01*
X140699000Y-115934000D02*
X140699000Y-113174000D01*
%TO.C,J32*%
X167707000Y-99707570D02*
X188147000Y-99707570D01*
X167707000Y-102307570D02*
X167707000Y-99707570D01*
X167707000Y-104907570D02*
X167707000Y-103577570D01*
X169037000Y-104907570D02*
X167707000Y-104907570D01*
X170307000Y-102307570D02*
X167707000Y-102307570D01*
X170307000Y-104907570D02*
X170307000Y-102307570D01*
X170307000Y-104907570D02*
X188147000Y-104907570D01*
X188147000Y-104907570D02*
X188147000Y-99707570D01*
%TO.C,D33*%
X119042000Y-134786000D02*
X116382000Y-134786000D01*
X119042000Y-136486000D02*
X116382000Y-136486000D01*
X119042000Y-136486000D02*
X119042000Y-134786000D01*
%TO.C,D55*%
X168478000Y-132246000D02*
X165818000Y-132246000D01*
X168478000Y-133946000D02*
X165818000Y-133946000D01*
X168478000Y-133946000D02*
X168478000Y-132246000D01*
%TO.C,JR8*%
X159358000Y-142046000D02*
X159358000Y-121606000D01*
X161958000Y-139446000D02*
X161958000Y-142046000D01*
X161958000Y-142046000D02*
X159358000Y-142046000D01*
X164558000Y-121606000D02*
X159358000Y-121606000D01*
X164558000Y-139446000D02*
X161958000Y-139446000D01*
X164558000Y-139446000D02*
X164558000Y-121606000D01*
X164558000Y-140716000D02*
X164558000Y-142046000D01*
X164558000Y-142046000D02*
X163228000Y-142046000D01*
%TO.C,J1*%
X107855000Y-64499000D02*
X107855000Y-63119000D01*
X109235000Y-64499000D02*
X107855000Y-64499000D01*
X110505000Y-61739000D02*
X115695000Y-61739000D01*
X110505000Y-64499000D02*
X110505000Y-61739000D01*
X110505000Y-64499000D02*
X115695000Y-64499000D01*
X115695000Y-64499000D02*
X115695000Y-61739000D01*
%TO.C,D29*%
X119042000Y-124626000D02*
X116382000Y-124626000D01*
X119042000Y-126326000D02*
X116382000Y-126326000D01*
X119042000Y-126326000D02*
X119042000Y-124626000D01*
%TO.C,D7*%
X99225000Y-127166000D02*
X96565000Y-127166000D01*
X99225000Y-128866000D02*
X96565000Y-128866000D01*
X99225000Y-128866000D02*
X99225000Y-127166000D01*
%TO.C,D38*%
X158661000Y-132246000D02*
X156001000Y-132246000D01*
X158661000Y-133946000D02*
X156001000Y-133946000D01*
X158661000Y-133946000D02*
X158661000Y-132246000D01*
%TO.C,D1*%
X105720000Y-80758000D02*
X105720000Y-83618000D01*
X107640000Y-80758000D02*
X105720000Y-80758000D01*
X107640000Y-83618000D02*
X107640000Y-80758000D01*
D11*
%TO.C,U2*%
X111245000Y-85898000D02*
X111470000Y-85898000D01*
X111245000Y-91648000D02*
X111245000Y-85898000D01*
X111245000Y-91648000D02*
X111470000Y-91648000D01*
X119895000Y-85898000D02*
X119670000Y-85898000D01*
X119895000Y-91648000D02*
X119670000Y-91648000D01*
X119895000Y-91648000D02*
X119895000Y-85898000D01*
D10*
X111495000Y-92148000D02*
X111165000Y-92388000D01*
X111165000Y-91908000D01*
X111495000Y-92148000D01*
G36*
X111495000Y-92148000D02*
G01*
X111165000Y-92388000D01*
X111165000Y-91908000D01*
X111495000Y-92148000D01*
G37*
%TO.C,Q2*%
X108295000Y-80820500D02*
X108295000Y-80170500D01*
X108295000Y-80820500D02*
X108295000Y-81470500D01*
X111415000Y-80820500D02*
X111415000Y-80170500D01*
X111415000Y-80820500D02*
X111415000Y-81470500D01*
X108345000Y-81983000D02*
X108015000Y-82223000D01*
X108015000Y-81743000D01*
X108345000Y-81983000D01*
G36*
X108345000Y-81983000D02*
G01*
X108015000Y-82223000D01*
X108015000Y-81743000D01*
X108345000Y-81983000D01*
G37*
%TO.C,R18*%
X112126500Y-78612276D02*
X112126500Y-79121724D01*
X113171500Y-78612276D02*
X113171500Y-79121724D01*
%TO.C,U6*%
X154128000Y-101283000D02*
X154128000Y-101573000D01*
X154128000Y-116903000D02*
X154128000Y-116613000D01*
X157988000Y-101283000D02*
X154128000Y-101283000D01*
X157988000Y-101283000D02*
X161848000Y-101283000D01*
X157988000Y-116903000D02*
X154128000Y-116903000D01*
X157988000Y-116903000D02*
X161848000Y-116903000D01*
X161848000Y-101283000D02*
X161848000Y-101573000D01*
X161848000Y-116903000D02*
X161848000Y-116613000D01*
X153288000Y-101573000D02*
X152948000Y-101103000D01*
X153628000Y-101103000D01*
X153288000Y-101573000D01*
G36*
X153288000Y-101573000D02*
G01*
X152948000Y-101103000D01*
X153628000Y-101103000D01*
X153288000Y-101573000D01*
G37*
%TO.C,D37*%
X158661000Y-124626000D02*
X156001000Y-124626000D01*
X158661000Y-126326000D02*
X156001000Y-126326000D01*
X158661000Y-126326000D02*
X158661000Y-124626000D01*
%TO.C,JSPI5*%
X154985000Y-66141000D02*
X154985000Y-76861000D01*
X154985000Y-76861000D02*
X158705000Y-76861000D01*
X155385000Y-66541000D02*
X155385000Y-76461000D01*
X155385000Y-68401000D02*
X155785000Y-68401000D01*
X155385000Y-68501000D02*
X155785000Y-68501000D01*
X155385000Y-69901000D02*
X155785000Y-69901000D01*
X155385000Y-70001000D02*
X155785000Y-70001000D01*
X155385000Y-71401000D02*
X155785000Y-71401000D01*
X155385000Y-71501000D02*
X155785000Y-71501000D01*
X155385000Y-72901000D02*
X155785000Y-72901000D01*
X155385000Y-73001000D02*
X155785000Y-73001000D01*
X155385000Y-74401000D02*
X155785000Y-74401000D01*
X155385000Y-74501000D02*
X155785000Y-74501000D01*
X155385000Y-76461000D02*
X158405000Y-76461000D01*
X155785000Y-68401000D02*
X155785000Y-68601000D01*
X155785000Y-68601000D02*
X155385000Y-68601000D01*
X155785000Y-69901000D02*
X155785000Y-70101000D01*
X155785000Y-70101000D02*
X155385000Y-70101000D01*
X155785000Y-71401000D02*
X155785000Y-71601000D01*
X155785000Y-71601000D02*
X155385000Y-71601000D01*
X155785000Y-72901000D02*
X155785000Y-73101000D01*
X155785000Y-73101000D02*
X155385000Y-73101000D01*
X155785000Y-74401000D02*
X155785000Y-74601000D01*
X155785000Y-74601000D02*
X155385000Y-74601000D01*
X156795000Y-66141000D02*
X156795000Y-66541000D01*
X156795000Y-76861000D02*
X156795000Y-76461000D01*
X157795000Y-66141000D02*
X157795000Y-66541000D01*
X157795000Y-76861000D02*
X157795000Y-76461000D01*
X158405000Y-66541000D02*
X155385000Y-66541000D01*
X158405000Y-76461000D02*
X158405000Y-66541000D01*
X158705000Y-66141000D02*
X154985000Y-66141000D01*
X158705000Y-67451000D02*
X158905000Y-67451000D01*
X158705000Y-76861000D02*
X158705000Y-66141000D01*
X158805000Y-67451000D02*
X158805000Y-67151000D01*
X158905000Y-65941000D02*
X158105000Y-65941000D01*
X158905000Y-66741000D02*
X158905000Y-65941000D01*
X158905000Y-67151000D02*
X158705000Y-67151000D01*
X158905000Y-67451000D02*
X158905000Y-67151000D01*
%TO.C,R17*%
X108838276Y-92695500D02*
X109347724Y-92695500D01*
X108838276Y-93740500D02*
X109347724Y-93740500D01*
%TO.C,J31*%
X144825000Y-108281000D02*
X144825000Y-116001000D01*
X144825000Y-116001000D02*
X148545000Y-116001000D01*
X145225000Y-108681000D02*
X145225000Y-115601000D01*
X145225000Y-110541000D02*
X145625000Y-110541000D01*
X145225000Y-110641000D02*
X145625000Y-110641000D01*
X145225000Y-112041000D02*
X145625000Y-112041000D01*
X145225000Y-112141000D02*
X145625000Y-112141000D01*
X145225000Y-113541000D02*
X145625000Y-113541000D01*
X145225000Y-113641000D02*
X145625000Y-113641000D01*
X145225000Y-115601000D02*
X148245000Y-115601000D01*
X145625000Y-110541000D02*
X145625000Y-110741000D01*
X145625000Y-110741000D02*
X145225000Y-110741000D01*
X145625000Y-112041000D02*
X145625000Y-112241000D01*
X145625000Y-112241000D02*
X145225000Y-112241000D01*
X145625000Y-113541000D02*
X145625000Y-113741000D01*
X145625000Y-113741000D02*
X145225000Y-113741000D01*
X146635000Y-108281000D02*
X146635000Y-108681000D01*
X146635000Y-116001000D02*
X146635000Y-115601000D01*
X147635000Y-108281000D02*
X147635000Y-108681000D01*
X147635000Y-116001000D02*
X147635000Y-115601000D01*
X148245000Y-108681000D02*
X145225000Y-108681000D01*
X148245000Y-115601000D02*
X148245000Y-108681000D01*
X148545000Y-108281000D02*
X144825000Y-108281000D01*
X148545000Y-109591000D02*
X148745000Y-109591000D01*
X148545000Y-116001000D02*
X148545000Y-108281000D01*
X148645000Y-109591000D02*
X148645000Y-109291000D01*
X148745000Y-108081000D02*
X147945000Y-108081000D01*
X148745000Y-108881000D02*
X148745000Y-108081000D01*
X148745000Y-109291000D02*
X148545000Y-109291000D01*
X148745000Y-109591000D02*
X148745000Y-109291000D01*
%TO.C,D25*%
X128948000Y-132230210D02*
X126288000Y-132230210D01*
X128948000Y-133930210D02*
X126288000Y-133930210D01*
X128948000Y-133930210D02*
X128948000Y-132230210D01*
%TO.C,JSPI1*%
X150159000Y-77952000D02*
X150159000Y-88672000D01*
X150159000Y-88672000D02*
X153879000Y-88672000D01*
X150559000Y-78352000D02*
X150559000Y-88272000D01*
X150559000Y-80212000D02*
X150959000Y-80212000D01*
X150559000Y-80312000D02*
X150959000Y-80312000D01*
X150559000Y-81712000D02*
X150959000Y-81712000D01*
X150559000Y-81812000D02*
X150959000Y-81812000D01*
X150559000Y-83212000D02*
X150959000Y-83212000D01*
X150559000Y-83312000D02*
X150959000Y-83312000D01*
X150559000Y-84712000D02*
X150959000Y-84712000D01*
X150559000Y-84812000D02*
X150959000Y-84812000D01*
X150559000Y-86212000D02*
X150959000Y-86212000D01*
X150559000Y-86312000D02*
X150959000Y-86312000D01*
X150559000Y-88272000D02*
X153579000Y-88272000D01*
X150959000Y-80212000D02*
X150959000Y-80412000D01*
X150959000Y-80412000D02*
X150559000Y-80412000D01*
X150959000Y-81712000D02*
X150959000Y-81912000D01*
X150959000Y-81912000D02*
X150559000Y-81912000D01*
X150959000Y-83212000D02*
X150959000Y-83412000D01*
X150959000Y-83412000D02*
X150559000Y-83412000D01*
X150959000Y-84712000D02*
X150959000Y-84912000D01*
X150959000Y-84912000D02*
X150559000Y-84912000D01*
X150959000Y-86212000D02*
X150959000Y-86412000D01*
X150959000Y-86412000D02*
X150559000Y-86412000D01*
X151969000Y-77952000D02*
X151969000Y-78352000D01*
X151969000Y-88672000D02*
X151969000Y-88272000D01*
X152969000Y-77952000D02*
X152969000Y-78352000D01*
X152969000Y-88672000D02*
X152969000Y-88272000D01*
X153579000Y-78352000D02*
X150559000Y-78352000D01*
X153579000Y-88272000D02*
X153579000Y-78352000D01*
X153879000Y-77952000D02*
X150159000Y-77952000D01*
X153879000Y-79262000D02*
X154079000Y-79262000D01*
X153879000Y-88672000D02*
X153879000Y-77952000D01*
X153979000Y-79262000D02*
X153979000Y-78962000D01*
X154079000Y-77752000D02*
X153279000Y-77752000D01*
X154079000Y-78552000D02*
X154079000Y-77752000D01*
X154079000Y-78962000D02*
X153879000Y-78962000D01*
X154079000Y-79262000D02*
X154079000Y-78962000D01*
%TO.C,C5*%
X91574577Y-76436854D02*
X91867111Y-76436854D01*
X91574577Y-77456854D02*
X91867111Y-77456854D01*
%TO.C,D20*%
X138844000Y-127166000D02*
X136184000Y-127166000D01*
X138844000Y-128866000D02*
X136184000Y-128866000D01*
X138844000Y-128866000D02*
X138844000Y-127166000D01*
%TO.C,AN15*%
X126327000Y-72874000D02*
X126327000Y-76594000D01*
X126327000Y-74684000D02*
X126727000Y-74684000D01*
X126327000Y-75684000D02*
X126727000Y-75684000D01*
X126327000Y-76594000D02*
X132547000Y-76594000D01*
X126727000Y-73274000D02*
X126727000Y-76294000D01*
X126727000Y-76294000D02*
X132147000Y-76294000D01*
X128587000Y-73674000D02*
X128587000Y-73274000D01*
X128687000Y-73274000D02*
X128687000Y-73674000D01*
X128787000Y-73274000D02*
X128787000Y-73674000D01*
X128787000Y-73674000D02*
X128587000Y-73674000D01*
X130087000Y-73674000D02*
X130087000Y-73274000D01*
X130187000Y-73274000D02*
X130187000Y-73674000D01*
X130287000Y-73274000D02*
X130287000Y-73674000D01*
X130287000Y-73674000D02*
X130087000Y-73674000D01*
X131237000Y-76594000D02*
X131237000Y-76794000D01*
X131237000Y-76694000D02*
X131537000Y-76694000D01*
X131237000Y-76794000D02*
X131537000Y-76794000D01*
X131537000Y-76794000D02*
X131537000Y-76594000D01*
X131947000Y-76794000D02*
X132747000Y-76794000D01*
X132147000Y-73274000D02*
X126727000Y-73274000D01*
X132147000Y-76294000D02*
X132147000Y-73274000D01*
X132547000Y-72874000D02*
X126327000Y-72874000D01*
X132547000Y-74684000D02*
X132147000Y-74684000D01*
X132547000Y-75684000D02*
X132147000Y-75684000D01*
X132547000Y-76594000D02*
X132547000Y-72874000D01*
X132747000Y-76794000D02*
X132747000Y-75994000D01*
%TO.C,U3*%
X103408000Y-91948000D02*
X103408000Y-91298000D01*
X103408000Y-91948000D02*
X103408000Y-92598000D01*
X106528000Y-91948000D02*
X106528000Y-91298000D01*
X106528000Y-91948000D02*
X106528000Y-92598000D01*
X103458000Y-93110500D02*
X103128000Y-93350500D01*
X103128000Y-92870500D01*
X103458000Y-93110500D01*
G36*
X103458000Y-93110500D02*
G01*
X103128000Y-93350500D01*
X103128000Y-92870500D01*
X103458000Y-93110500D01*
G37*
%TO.C,C9*%
X151432800Y-92195867D02*
X151432800Y-91903333D01*
X152452800Y-92195867D02*
X152452800Y-91903333D01*
%TO.C,D64*%
X148755000Y-139866000D02*
X146095000Y-139866000D01*
X148755000Y-141566000D02*
X146095000Y-141566000D01*
X148755000Y-141566000D02*
X148755000Y-139866000D01*
%TO.C,D9*%
X99225000Y-129706000D02*
X96565000Y-129706000D01*
X99225000Y-131406000D02*
X96565000Y-131406000D01*
X99225000Y-131406000D02*
X99225000Y-129706000D01*
%TO.C,D57*%
X168478000Y-134786000D02*
X165818000Y-134786000D01*
X168478000Y-136486000D02*
X165818000Y-136486000D01*
X168478000Y-136486000D02*
X168478000Y-134786000D01*
%TO.C,D49*%
X158661000Y-127166000D02*
X156001000Y-127166000D01*
X158661000Y-128866000D02*
X156001000Y-128866000D01*
X158661000Y-128866000D02*
X158661000Y-127166000D01*
%TO.C,D5*%
X99225000Y-124626000D02*
X96565000Y-124626000D01*
X99225000Y-126326000D02*
X96565000Y-126326000D01*
X99225000Y-126326000D02*
X99225000Y-124626000D01*
%TO.C,JSPI6*%
X159811000Y-66141000D02*
X159811000Y-76861000D01*
X159811000Y-76861000D02*
X163531000Y-76861000D01*
X160211000Y-66541000D02*
X160211000Y-76461000D01*
X160211000Y-68401000D02*
X160611000Y-68401000D01*
X160211000Y-68501000D02*
X160611000Y-68501000D01*
X160211000Y-69901000D02*
X160611000Y-69901000D01*
X160211000Y-70001000D02*
X160611000Y-70001000D01*
X160211000Y-71401000D02*
X160611000Y-71401000D01*
X160211000Y-71501000D02*
X160611000Y-71501000D01*
X160211000Y-72901000D02*
X160611000Y-72901000D01*
X160211000Y-73001000D02*
X160611000Y-73001000D01*
X160211000Y-74401000D02*
X160611000Y-74401000D01*
X160211000Y-74501000D02*
X160611000Y-74501000D01*
X160211000Y-76461000D02*
X163231000Y-76461000D01*
X160611000Y-68401000D02*
X160611000Y-68601000D01*
X160611000Y-68601000D02*
X160211000Y-68601000D01*
X160611000Y-69901000D02*
X160611000Y-70101000D01*
X160611000Y-70101000D02*
X160211000Y-70101000D01*
X160611000Y-71401000D02*
X160611000Y-71601000D01*
X160611000Y-71601000D02*
X160211000Y-71601000D01*
X160611000Y-72901000D02*
X160611000Y-73101000D01*
X160611000Y-73101000D02*
X160211000Y-73101000D01*
X160611000Y-74401000D02*
X160611000Y-74601000D01*
X160611000Y-74601000D02*
X160211000Y-74601000D01*
X161621000Y-66141000D02*
X161621000Y-66541000D01*
X161621000Y-76861000D02*
X161621000Y-76461000D01*
X162621000Y-66141000D02*
X162621000Y-66541000D01*
X162621000Y-76861000D02*
X162621000Y-76461000D01*
X163231000Y-66541000D02*
X160211000Y-66541000D01*
X163231000Y-76461000D02*
X163231000Y-66541000D01*
X163531000Y-66141000D02*
X159811000Y-66141000D01*
X163531000Y-67451000D02*
X163731000Y-67451000D01*
X163531000Y-76861000D02*
X163531000Y-66141000D01*
X163631000Y-67451000D02*
X163631000Y-67151000D01*
X163731000Y-65941000D02*
X162931000Y-65941000D01*
X163731000Y-66741000D02*
X163731000Y-65941000D01*
X163731000Y-67151000D02*
X163531000Y-67151000D01*
X163731000Y-67451000D02*
X163731000Y-67151000D01*
%TO.C,C6*%
X92327000Y-79355733D02*
X92327000Y-79648267D01*
X93347000Y-79355733D02*
X93347000Y-79648267D01*
%TO.C,D36*%
X119042000Y-137326000D02*
X116382000Y-137326000D01*
X119042000Y-139026000D02*
X116382000Y-139026000D01*
X119042000Y-139026000D02*
X119042000Y-137326000D01*
%TO.C,D14*%
X109136000Y-134786000D02*
X106476000Y-134786000D01*
X109136000Y-136486000D02*
X106476000Y-136486000D01*
X109136000Y-136486000D02*
X109136000Y-134786000D01*
%TO.C,U7*%
X175514000Y-125750000D02*
X173564000Y-125750000D01*
X175514000Y-125750000D02*
X177464000Y-125750000D01*
X175514000Y-135870000D02*
X173564000Y-135870000D01*
X175514000Y-135870000D02*
X177464000Y-135870000D01*
X178454000Y-136145000D02*
X177974000Y-136145000D01*
X178214000Y-135815000D01*
X178454000Y-136145000D01*
G36*
X178454000Y-136145000D02*
G01*
X177974000Y-136145000D01*
X178214000Y-135815000D01*
X178454000Y-136145000D01*
G37*
%TO.C,C7*%
X91943767Y-73277000D02*
X91651233Y-73277000D01*
X91943767Y-74297000D02*
X91651233Y-74297000D01*
%TO.C,JR5*%
X129734000Y-142046000D02*
X129734000Y-121606000D01*
X132334000Y-139446000D02*
X132334000Y-142046000D01*
X132334000Y-142046000D02*
X129734000Y-142046000D01*
X134934000Y-121606000D02*
X129734000Y-121606000D01*
X134934000Y-139446000D02*
X132334000Y-139446000D01*
X134934000Y-139446000D02*
X134934000Y-121606000D01*
X134934000Y-140716000D02*
X134934000Y-142046000D01*
X134934000Y-142046000D02*
X133604000Y-142046000D01*
%TO.C,D61*%
X138844000Y-139866000D02*
X136184000Y-139866000D01*
X138844000Y-141566000D02*
X136184000Y-141566000D01*
X138844000Y-141566000D02*
X138844000Y-139866000D01*
%TO.C,D53*%
X168478000Y-127166000D02*
X165818000Y-127166000D01*
X168478000Y-128866000D02*
X165818000Y-128866000D01*
X168478000Y-128866000D02*
X168478000Y-127166000D01*
%TO.C,C11*%
X150158667Y-116787200D02*
X149866133Y-116787200D01*
X150158667Y-117807200D02*
X149866133Y-117807200D01*
%TO.C,D62*%
X128948000Y-139850210D02*
X126288000Y-139850210D01*
X128948000Y-141550210D02*
X126288000Y-141550210D01*
X128948000Y-141550210D02*
X128948000Y-139850210D01*
%TO.C,C16*%
X99235800Y-103790533D02*
X99235800Y-104083067D01*
X100255800Y-103790533D02*
X100255800Y-104083067D01*
%TO.C,JSPI3*%
X159811000Y-77952000D02*
X159811000Y-88672000D01*
X159811000Y-88672000D02*
X163531000Y-88672000D01*
X160211000Y-78352000D02*
X160211000Y-88272000D01*
X160211000Y-80212000D02*
X160611000Y-80212000D01*
X160211000Y-80312000D02*
X160611000Y-80312000D01*
X160211000Y-81712000D02*
X160611000Y-81712000D01*
X160211000Y-81812000D02*
X160611000Y-81812000D01*
X160211000Y-83212000D02*
X160611000Y-83212000D01*
X160211000Y-83312000D02*
X160611000Y-83312000D01*
X160211000Y-84712000D02*
X160611000Y-84712000D01*
X160211000Y-84812000D02*
X160611000Y-84812000D01*
X160211000Y-86212000D02*
X160611000Y-86212000D01*
X160211000Y-86312000D02*
X160611000Y-86312000D01*
X160211000Y-88272000D02*
X163231000Y-88272000D01*
X160611000Y-80212000D02*
X160611000Y-80412000D01*
X160611000Y-80412000D02*
X160211000Y-80412000D01*
X160611000Y-81712000D02*
X160611000Y-81912000D01*
X160611000Y-81912000D02*
X160211000Y-81912000D01*
X160611000Y-83212000D02*
X160611000Y-83412000D01*
X160611000Y-83412000D02*
X160211000Y-83412000D01*
X160611000Y-84712000D02*
X160611000Y-84912000D01*
X160611000Y-84912000D02*
X160211000Y-84912000D01*
X160611000Y-86212000D02*
X160611000Y-86412000D01*
X160611000Y-86412000D02*
X160211000Y-86412000D01*
X161621000Y-77952000D02*
X161621000Y-78352000D01*
X161621000Y-88672000D02*
X161621000Y-88272000D01*
X162621000Y-77952000D02*
X162621000Y-78352000D01*
X162621000Y-88672000D02*
X162621000Y-88272000D01*
X163231000Y-78352000D02*
X160211000Y-78352000D01*
X163231000Y-88272000D02*
X163231000Y-78352000D01*
X163531000Y-77952000D02*
X159811000Y-77952000D01*
X163531000Y-79262000D02*
X163731000Y-79262000D01*
X163531000Y-88672000D02*
X163531000Y-77952000D01*
X163631000Y-79262000D02*
X163631000Y-78962000D01*
X163731000Y-77752000D02*
X162931000Y-77752000D01*
X163731000Y-78552000D02*
X163731000Y-77752000D01*
X163731000Y-78962000D02*
X163531000Y-78962000D01*
X163731000Y-79262000D02*
X163731000Y-78962000D01*
%TO.C,R15*%
X161822224Y-119619500D02*
X161312776Y-119619500D01*
X161822224Y-120664500D02*
X161312776Y-120664500D01*
%TO.C,D56*%
X168478000Y-137326000D02*
X165818000Y-137326000D01*
X168478000Y-139026000D02*
X165818000Y-139026000D01*
X168478000Y-139026000D02*
X168478000Y-137326000D01*
%TO.C,C13*%
X113036133Y-59942000D02*
X113328667Y-59942000D01*
X113036133Y-60962000D02*
X113328667Y-60962000D01*
%TO.C,D30*%
X138844000Y-137326000D02*
X136184000Y-137326000D01*
X138844000Y-139026000D02*
X136184000Y-139026000D01*
X138844000Y-139026000D02*
X138844000Y-137326000D01*
%TO.C,D27*%
X138844000Y-134786000D02*
X136184000Y-134786000D01*
X138844000Y-136486000D02*
X136184000Y-136486000D01*
X138844000Y-136486000D02*
X138844000Y-134786000D01*
%TO.C,AN6*%
X133820000Y-72874000D02*
X133820000Y-76594000D01*
X133820000Y-74684000D02*
X134220000Y-74684000D01*
X133820000Y-75684000D02*
X134220000Y-75684000D01*
X133820000Y-76594000D02*
X140040000Y-76594000D01*
X134220000Y-73274000D02*
X134220000Y-76294000D01*
X134220000Y-76294000D02*
X139640000Y-76294000D01*
X136080000Y-73674000D02*
X136080000Y-73274000D01*
X136180000Y-73274000D02*
X136180000Y-73674000D01*
X136280000Y-73274000D02*
X136280000Y-73674000D01*
X136280000Y-73674000D02*
X136080000Y-73674000D01*
X137580000Y-73674000D02*
X137580000Y-73274000D01*
X137680000Y-73274000D02*
X137680000Y-73674000D01*
X137780000Y-73274000D02*
X137780000Y-73674000D01*
X137780000Y-73674000D02*
X137580000Y-73674000D01*
X138730000Y-76594000D02*
X138730000Y-76794000D01*
X138730000Y-76694000D02*
X139030000Y-76694000D01*
X138730000Y-76794000D02*
X139030000Y-76794000D01*
X139030000Y-76794000D02*
X139030000Y-76594000D01*
X139440000Y-76794000D02*
X140240000Y-76794000D01*
X139640000Y-73274000D02*
X134220000Y-73274000D01*
X139640000Y-76294000D02*
X139640000Y-73274000D01*
X140040000Y-72874000D02*
X133820000Y-72874000D01*
X140040000Y-74684000D02*
X139640000Y-74684000D01*
X140040000Y-75684000D02*
X139640000Y-75684000D01*
X140040000Y-76594000D02*
X140040000Y-72874000D01*
X140240000Y-76794000D02*
X140240000Y-75994000D01*
%TO.C,J4*%
X89679000Y-95394000D02*
X89679000Y-98154000D01*
X138049000Y-95394000D02*
X89679000Y-95394000D01*
X138049000Y-95394000D02*
X138049000Y-98154000D01*
X138049000Y-98154000D02*
X89679000Y-98154000D01*
X139319000Y-95394000D02*
X140699000Y-95394000D01*
X140699000Y-95394000D02*
X140699000Y-96774000D01*
%TD*%
%LPC*%
D14*
%TO.C,R9*%
X93265000Y-120142000D03*
X91440000Y-120142000D03*
%TD*%
D15*
%TO.C,C2*%
X103639244Y-81072946D03*
X103639244Y-84197946D03*
%TD*%
D16*
%TO.C,D42*%
X148245000Y-133096000D03*
X146045000Y-133096000D03*
%TD*%
D17*
%TO.C,U8*%
X101422200Y-108023200D03*
X102692200Y-108023200D03*
X103962200Y-108023200D03*
X105232200Y-108023200D03*
X106502200Y-108023200D03*
X107772200Y-108023200D03*
X109042200Y-108023200D03*
X110312200Y-108023200D03*
X110312200Y-103073200D03*
X109042200Y-103073200D03*
X107772200Y-103073200D03*
X106502200Y-103073200D03*
X105232200Y-103073200D03*
X103962200Y-103073200D03*
X102692200Y-103073200D03*
X101422200Y-103073200D03*
%TD*%
D18*
%TO.C,AN14*%
X130937000Y-70104000D03*
D19*
X129437000Y-70104000D03*
X127937000Y-70104000D03*
%TD*%
D16*
%TO.C,D23*%
X128438000Y-130540210D03*
X126238000Y-130540210D03*
%TD*%
D14*
%TO.C,R10*%
X113077000Y-120142000D03*
X111252000Y-120142000D03*
%TD*%
D20*
%TO.C,JR1*%
X93980000Y-140716000D03*
D21*
X91440000Y-140716000D03*
X93980000Y-138176000D03*
X91440000Y-138176000D03*
X93980000Y-135636000D03*
X91440000Y-135636000D03*
X93980000Y-133096000D03*
X91440000Y-133096000D03*
X93980000Y-130556000D03*
X91440000Y-130556000D03*
X93980000Y-128016000D03*
X91440000Y-128016000D03*
X93980000Y-125476000D03*
X91440000Y-125476000D03*
X93980000Y-122936000D03*
X91440000Y-122936000D03*
%TD*%
D16*
%TO.C,D58*%
X98715000Y-140716000D03*
X96515000Y-140716000D03*
%TD*%
D18*
%TO.C,AN10*%
X123444000Y-70104000D03*
D19*
X121944000Y-70104000D03*
X120444000Y-70104000D03*
%TD*%
D16*
%TO.C,D31*%
X128438000Y-138160210D03*
X126238000Y-138160210D03*
%TD*%
%TO.C,D59*%
X108626000Y-140716000D03*
X106426000Y-140716000D03*
%TD*%
D18*
%TO.C,AN8*%
X138430000Y-65024000D03*
D19*
X136930000Y-65024000D03*
X135430000Y-65024000D03*
%TD*%
D14*
%TO.C,R12*%
X122983000Y-120126210D03*
X121158000Y-120126210D03*
%TD*%
D22*
%TO.C,R4*%
X106680000Y-85515500D03*
X106680000Y-87340500D03*
%TD*%
D18*
%TO.C,AN9*%
X123444000Y-65024000D03*
D19*
X121944000Y-65024000D03*
X120444000Y-65024000D03*
%TD*%
D18*
%TO.C,AN5*%
X138430000Y-80137000D03*
D19*
X136930000Y-80137000D03*
X135430000Y-80137000D03*
%TD*%
D20*
%TO.C,JR6*%
X143510000Y-140716000D03*
D21*
X140970000Y-140716000D03*
X143510000Y-138176000D03*
X140970000Y-138176000D03*
X143510000Y-135636000D03*
X140970000Y-135636000D03*
X143510000Y-133096000D03*
X140970000Y-133096000D03*
X143510000Y-130556000D03*
X140970000Y-130556000D03*
X143510000Y-128016000D03*
X140970000Y-128016000D03*
X143510000Y-125476000D03*
X140970000Y-125476000D03*
X143510000Y-122936000D03*
X140970000Y-122936000D03*
%TD*%
D20*
%TO.C,JR3*%
X113792000Y-140716000D03*
D21*
X111252000Y-140716000D03*
X113792000Y-138176000D03*
X111252000Y-138176000D03*
X113792000Y-135636000D03*
X111252000Y-135636000D03*
X113792000Y-133096000D03*
X111252000Y-133096000D03*
X113792000Y-130556000D03*
X111252000Y-130556000D03*
X113792000Y-128016000D03*
X111252000Y-128016000D03*
X113792000Y-125476000D03*
X111252000Y-125476000D03*
X113792000Y-122936000D03*
X111252000Y-122936000D03*
%TD*%
D14*
%TO.C,R5*%
X110029000Y-91313000D03*
X108204000Y-91313000D03*
%TD*%
D18*
%TO.C,AN1*%
X146026000Y-80137000D03*
D19*
X144526000Y-80137000D03*
X143026000Y-80137000D03*
%TD*%
D16*
%TO.C,D10*%
X108626000Y-133096000D03*
X106426000Y-133096000D03*
%TD*%
D18*
%TO.C,AN13*%
X123444000Y-80137000D03*
D19*
X121944000Y-80137000D03*
X120444000Y-80137000D03*
%TD*%
D16*
%TO.C,D35*%
X118527000Y-122936000D03*
X116327000Y-122936000D03*
%TD*%
%TO.C,D3*%
X98715000Y-122936000D03*
X96515000Y-122936000D03*
%TD*%
D23*
%TO.C,H4*%
X186309000Y-144907000D03*
D24*
X186309000Y-144907000D03*
%TD*%
D18*
%TO.C,AN11*%
X123444000Y-75184000D03*
D19*
X121944000Y-75184000D03*
X120444000Y-75184000D03*
%TD*%
D16*
%TO.C,D52*%
X167968000Y-125476000D03*
X165768000Y-125476000D03*
%TD*%
D18*
%TO.C,JSPI7*%
X160722000Y-63569000D03*
D19*
X159222000Y-63569000D03*
X157722000Y-63569000D03*
X156222000Y-63569000D03*
X154722000Y-63569000D03*
X153222000Y-63569000D03*
%TD*%
D14*
%TO.C,R2*%
X92710000Y-75311000D03*
X90885000Y-75311000D03*
%TD*%
D16*
%TO.C,D13*%
X108626000Y-138176000D03*
X106426000Y-138176000D03*
%TD*%
%TO.C,D41*%
X148245000Y-135636000D03*
X146045000Y-135636000D03*
%TD*%
D25*
%TO.C,C4*%
X99187000Y-78803123D03*
X99187000Y-75678123D03*
%TD*%
D16*
%TO.C,D22*%
X138334000Y-130556000D03*
X136134000Y-130556000D03*
%TD*%
D26*
%TO.C,JSPI2*%
X157295000Y-79562000D03*
D27*
X157295000Y-81062000D03*
X157295000Y-82562000D03*
X157295000Y-84062000D03*
X157295000Y-85562000D03*
X157295000Y-87062000D03*
%TD*%
D28*
%TO.C,L1*%
X92352000Y-85471000D03*
X98402000Y-85471000D03*
%TD*%
D18*
%TO.C,AN3*%
X146026000Y-70104000D03*
D19*
X144526000Y-70104000D03*
X143026000Y-70104000D03*
%TD*%
D18*
%TO.C,AN12*%
X130937000Y-65024000D03*
D19*
X129437000Y-65024000D03*
X127937000Y-65024000D03*
%TD*%
D16*
%TO.C,D32*%
X118532000Y-133096000D03*
X116332000Y-133096000D03*
%TD*%
%TO.C,D26*%
X118532000Y-128016000D03*
X116332000Y-128016000D03*
%TD*%
%TO.C,D40*%
X148245000Y-138176000D03*
X146045000Y-138176000D03*
%TD*%
D14*
%TO.C,R3*%
X110640500Y-77851000D03*
X108815500Y-77851000D03*
%TD*%
D15*
%TO.C,C3*%
X101092000Y-81076000D03*
X101092000Y-84201000D03*
%TD*%
D16*
%TO.C,D2*%
X98715000Y-135636000D03*
X96515000Y-135636000D03*
%TD*%
%TO.C,D16*%
X128438000Y-122920210D03*
X126238000Y-122920210D03*
%TD*%
D29*
%TO.C,C1*%
X110236000Y-84837100D03*
X110236000Y-86562100D03*
%TD*%
D22*
%TO.C,R1*%
X94424338Y-72627127D03*
X94424338Y-74452127D03*
%TD*%
D16*
%TO.C,D60*%
X118532000Y-140716000D03*
X116332000Y-140716000D03*
%TD*%
D18*
%TO.C,AN2*%
X146026000Y-75184000D03*
D19*
X144526000Y-75184000D03*
X143026000Y-75184000D03*
%TD*%
D16*
%TO.C,D65*%
X167968000Y-140716000D03*
X165768000Y-140716000D03*
%TD*%
D14*
%TO.C,R11*%
X103171000Y-120142000D03*
X101346000Y-120142000D03*
%TD*%
D16*
%TO.C,D46*%
X148245163Y-122936000D03*
X146045163Y-122936000D03*
%TD*%
%TO.C,D44*%
X148245000Y-128016000D03*
X146045000Y-128016000D03*
%TD*%
D30*
%TO.C,C8*%
X102260400Y-93166100D03*
X102260400Y-91441100D03*
%TD*%
D26*
%TO.C,JSPI4*%
X152469000Y-67751000D03*
D27*
X152469000Y-69251000D03*
X152469000Y-70751000D03*
X152469000Y-72251000D03*
X152469000Y-73751000D03*
X152469000Y-75251000D03*
%TD*%
D20*
%TO.C,J28*%
X169037000Y-73242714D03*
D21*
X169037000Y-70702714D03*
X171577000Y-73242714D03*
X171577000Y-70702714D03*
X174117000Y-73242714D03*
X174117000Y-70702714D03*
X176657000Y-73242714D03*
X176657000Y-70702714D03*
X179197000Y-73242714D03*
X179197000Y-70702714D03*
X181737000Y-73242714D03*
X181737000Y-70702714D03*
X184277000Y-73242714D03*
X184277000Y-70702714D03*
X186817000Y-73242714D03*
X186817000Y-70702714D03*
%TD*%
D16*
%TO.C,D17*%
X138334000Y-125476000D03*
X136134000Y-125476000D03*
%TD*%
D18*
%TO.C,AN7*%
X138430000Y-70104000D03*
D19*
X136930000Y-70104000D03*
X135430000Y-70104000D03*
%TD*%
D20*
%TO.C,JR4*%
X123698000Y-140700210D03*
D21*
X121158000Y-140700210D03*
X123698000Y-138160210D03*
X121158000Y-138160210D03*
X123698000Y-135620210D03*
X121158000Y-135620210D03*
X123698000Y-133080210D03*
X121158000Y-133080210D03*
X123698000Y-130540210D03*
X121158000Y-130540210D03*
X123698000Y-128000210D03*
X121158000Y-128000210D03*
X123698000Y-125460210D03*
X121158000Y-125460210D03*
X123698000Y-122920210D03*
X121158000Y-122920210D03*
%TD*%
D22*
%TO.C,R7*%
X143510000Y-101957500D03*
X143510000Y-103782500D03*
%TD*%
D23*
%TO.C,H2*%
X186436000Y-58674000D03*
D24*
X186436000Y-58674000D03*
%TD*%
D16*
%TO.C,D34*%
X118532000Y-130556000D03*
X116332000Y-130556000D03*
%TD*%
D25*
%TO.C,C15*%
X106045000Y-62903500D03*
X106045000Y-59778500D03*
%TD*%
D31*
%TO.C,U1*%
X96890000Y-78122011D03*
X96890000Y-77172011D03*
X96890000Y-76222011D03*
X94615000Y-76222011D03*
X94615000Y-77172011D03*
X94615000Y-78122011D03*
%TD*%
D32*
%TO.C,J2*%
X103409000Y-66098500D03*
D33*
X97409000Y-66098500D03*
D34*
X100409000Y-70798500D03*
%TD*%
D17*
%TO.C,U5*%
X153543000Y-97598000D03*
X154813000Y-97598000D03*
X156083000Y-97598000D03*
X157353000Y-97598000D03*
X158623000Y-97598000D03*
X159893000Y-97598000D03*
X161163000Y-97598000D03*
X162433000Y-97598000D03*
X162433000Y-92648000D03*
X161163000Y-92648000D03*
X159893000Y-92648000D03*
X158623000Y-92648000D03*
X157353000Y-92648000D03*
X156083000Y-92648000D03*
X154813000Y-92648000D03*
X153543000Y-92648000D03*
%TD*%
D30*
%TO.C,C14*%
X114173000Y-79348500D03*
X114173000Y-77623500D03*
%TD*%
D16*
%TO.C,D6*%
X108626000Y-128016000D03*
X106426000Y-128016000D03*
%TD*%
D20*
%TO.C,J27*%
X169037000Y-88410142D03*
D21*
X169037000Y-85870142D03*
X171577000Y-88410142D03*
X171577000Y-85870142D03*
X174117000Y-88410142D03*
X174117000Y-85870142D03*
X176657000Y-88410142D03*
X176657000Y-85870142D03*
X179197000Y-88410142D03*
X179197000Y-85870142D03*
X181737000Y-88410142D03*
X181737000Y-85870142D03*
X184277000Y-88410142D03*
X184277000Y-85870142D03*
X186817000Y-88410142D03*
X186817000Y-85870142D03*
%TD*%
D16*
%TO.C,D19*%
X138334000Y-122936000D03*
X136134000Y-122936000D03*
%TD*%
%TO.C,D48*%
X158151000Y-138176000D03*
X155951000Y-138176000D03*
%TD*%
%TO.C,D21*%
X128438000Y-128000210D03*
X126238000Y-128000210D03*
%TD*%
D35*
%TO.C,C12*%
X171755900Y-137109200D03*
X173480900Y-137109200D03*
%TD*%
D16*
%TO.C,D8*%
X108626000Y-130556000D03*
X106426000Y-130556000D03*
%TD*%
D22*
%TO.C,R6*%
X100584000Y-91340300D03*
X100584000Y-93165300D03*
%TD*%
D20*
%TO.C,J29*%
X169037000Y-65659000D03*
D21*
X169037000Y-63119000D03*
X171577000Y-65659000D03*
X171577000Y-63119000D03*
X174117000Y-65659000D03*
X174117000Y-63119000D03*
X176657000Y-65659000D03*
X176657000Y-63119000D03*
X179197000Y-65659000D03*
X179197000Y-63119000D03*
X181737000Y-65659000D03*
X181737000Y-63119000D03*
X184277000Y-65659000D03*
X184277000Y-63119000D03*
X186817000Y-65659000D03*
X186817000Y-63119000D03*
%TD*%
D26*
%TO.C,J30*%
X147135000Y-96810000D03*
D27*
X147135000Y-98310000D03*
X147135000Y-99810000D03*
X147135000Y-101310000D03*
%TD*%
D16*
%TO.C,D12*%
X98715000Y-138176000D03*
X96515000Y-138176000D03*
%TD*%
%TO.C,D28*%
X128438000Y-135620210D03*
X126238000Y-135620210D03*
%TD*%
%TO.C,D24*%
X138334000Y-133096000D03*
X136134000Y-133096000D03*
%TD*%
%TO.C,D11*%
X98715000Y-133096000D03*
X96515000Y-133096000D03*
%TD*%
%TO.C,D18*%
X128438000Y-125460210D03*
X126238000Y-125460210D03*
%TD*%
%TO.C,D15*%
X108626000Y-125476000D03*
X106426000Y-125476000D03*
%TD*%
D20*
%TO.C,J35*%
X169037000Y-95993856D03*
D21*
X169037000Y-93453856D03*
X171577000Y-95993856D03*
X171577000Y-93453856D03*
X174117000Y-95993856D03*
X174117000Y-93453856D03*
X176657000Y-95993856D03*
X176657000Y-93453856D03*
X179197000Y-95993856D03*
X179197000Y-93453856D03*
X181737000Y-95993856D03*
X181737000Y-93453856D03*
X184277000Y-95993856D03*
X184277000Y-93453856D03*
X186817000Y-95993856D03*
X186817000Y-93453856D03*
%TD*%
D20*
%TO.C,J33*%
X168910000Y-118745000D03*
D21*
X168910000Y-116205000D03*
X171450000Y-118745000D03*
X171450000Y-116205000D03*
X173990000Y-118745000D03*
X173990000Y-116205000D03*
X176530000Y-118745000D03*
X176530000Y-116205000D03*
X179070000Y-118745000D03*
X179070000Y-116205000D03*
X181610000Y-118745000D03*
X181610000Y-116205000D03*
X184150000Y-118745000D03*
X184150000Y-116205000D03*
X186690000Y-118745000D03*
X186690000Y-116205000D03*
%TD*%
D23*
%TO.C,H3*%
X91694000Y-144907000D03*
D24*
X91694000Y-144907000D03*
%TD*%
D36*
%TO.C,Q1*%
X109474000Y-74917000D03*
X114046000Y-74917000D03*
D37*
X111760000Y-68387000D03*
%TD*%
D18*
%TO.C,AN16*%
X130937000Y-80137000D03*
D19*
X129437000Y-80137000D03*
X127937000Y-80137000D03*
%TD*%
D25*
%TO.C,C10*%
X150622000Y-115227500D03*
X150622000Y-112102500D03*
%TD*%
D20*
%TO.C,JR7*%
X153416000Y-140716000D03*
D21*
X150876000Y-140716000D03*
X153416000Y-138176000D03*
X150876000Y-138176000D03*
X153416000Y-135636000D03*
X150876000Y-135636000D03*
X153416000Y-133096000D03*
X150876000Y-133096000D03*
X153416000Y-130556000D03*
X150876000Y-130556000D03*
X153416000Y-128016000D03*
X150876000Y-128016000D03*
X153416000Y-125476000D03*
X150876000Y-125476000D03*
X153416000Y-122936000D03*
X150876000Y-122936000D03*
%TD*%
D20*
%TO.C,JR2*%
X103886000Y-140716000D03*
D21*
X101346000Y-140716000D03*
X103886000Y-138176000D03*
X101346000Y-138176000D03*
X103886000Y-135636000D03*
X101346000Y-135636000D03*
X103886000Y-133096000D03*
X101346000Y-133096000D03*
X103886000Y-130556000D03*
X101346000Y-130556000D03*
X103886000Y-128016000D03*
X101346000Y-128016000D03*
X103886000Y-125476000D03*
X101346000Y-125476000D03*
X103886000Y-122936000D03*
X101346000Y-122936000D03*
%TD*%
D16*
%TO.C,D54*%
X167968000Y-122936000D03*
X165768000Y-122936000D03*
%TD*%
%TO.C,D43*%
X148245000Y-130556000D03*
X146045000Y-130556000D03*
%TD*%
%TO.C,D4*%
X108626000Y-122936000D03*
X106426000Y-122936000D03*
%TD*%
D14*
%TO.C,R16*%
X142795000Y-120142000D03*
X140970000Y-120142000D03*
%TD*%
D16*
%TO.C,D47*%
X158151000Y-122936000D03*
X155951000Y-122936000D03*
%TD*%
%TO.C,D63*%
X158151000Y-140716000D03*
X155951000Y-140716000D03*
%TD*%
%TO.C,D45*%
X148245000Y-125476000D03*
X146045000Y-125476000D03*
%TD*%
%TO.C,D50*%
X158151000Y-135636000D03*
X155951000Y-135636000D03*
%TD*%
D38*
%TO.C,R8*%
X149860000Y-98345000D03*
X149860000Y-96520000D03*
%TD*%
D14*
%TO.C,R13*%
X132889000Y-120142000D03*
X131064000Y-120142000D03*
%TD*%
D16*
%TO.C,D39*%
X158151000Y-130556000D03*
X155951000Y-130556000D03*
%TD*%
D20*
%TO.C,J26*%
X169037000Y-80826428D03*
D21*
X169037000Y-78286428D03*
X171577000Y-80826428D03*
X171577000Y-78286428D03*
X174117000Y-80826428D03*
X174117000Y-78286428D03*
X176657000Y-80826428D03*
X176657000Y-78286428D03*
X179197000Y-80826428D03*
X179197000Y-78286428D03*
X181737000Y-80826428D03*
X181737000Y-78286428D03*
X184277000Y-80826428D03*
X184277000Y-78286428D03*
X186817000Y-80826428D03*
X186817000Y-78286428D03*
%TD*%
D14*
%TO.C,R14*%
X152701000Y-120142000D03*
X150876000Y-120142000D03*
%TD*%
D18*
%TO.C,AN4*%
X146026000Y-65024000D03*
D19*
X144526000Y-65024000D03*
X143026000Y-65024000D03*
%TD*%
D16*
%TO.C,D51*%
X167968000Y-130556000D03*
X165768000Y-130556000D03*
%TD*%
D20*
%TO.C,J34*%
X169037000Y-111161284D03*
D21*
X169037000Y-108621284D03*
X171577000Y-111161284D03*
X171577000Y-108621284D03*
X174117000Y-111161284D03*
X174117000Y-108621284D03*
X176657000Y-111161284D03*
X176657000Y-108621284D03*
X179197000Y-111161284D03*
X179197000Y-108621284D03*
X181737000Y-111161284D03*
X181737000Y-108621284D03*
X184277000Y-111161284D03*
X184277000Y-108621284D03*
X186817000Y-111161284D03*
X186817000Y-108621284D03*
%TD*%
D20*
%TO.C,J3*%
X91059000Y-114554000D03*
D39*
X93599000Y-114554000D03*
X96139000Y-114554000D03*
X98679000Y-114554000D03*
X101219000Y-114554000D03*
X103759000Y-114554000D03*
X106299000Y-114554000D03*
X108839000Y-114554000D03*
X111379000Y-114554000D03*
X113919000Y-114554000D03*
X116459000Y-114554000D03*
X118999000Y-114554000D03*
X121539000Y-114554000D03*
X124079000Y-114554000D03*
X126619000Y-114554000D03*
X129159000Y-114554000D03*
X131699000Y-114554000D03*
X134239000Y-114554000D03*
X136779000Y-114554000D03*
X139319000Y-114554000D03*
%TD*%
D20*
%TO.C,J32*%
X169037000Y-103577570D03*
D21*
X169037000Y-101037570D03*
X171577000Y-103577570D03*
X171577000Y-101037570D03*
X174117000Y-103577570D03*
X174117000Y-101037570D03*
X176657000Y-103577570D03*
X176657000Y-101037570D03*
X179197000Y-103577570D03*
X179197000Y-101037570D03*
X181737000Y-103577570D03*
X181737000Y-101037570D03*
X184277000Y-103577570D03*
X184277000Y-101037570D03*
X186817000Y-103577570D03*
X186817000Y-101037570D03*
%TD*%
D16*
%TO.C,D33*%
X118532000Y-135636000D03*
X116332000Y-135636000D03*
%TD*%
%TO.C,D55*%
X167968000Y-133096000D03*
X165768000Y-133096000D03*
%TD*%
D20*
%TO.C,JR8*%
X163228000Y-140716000D03*
D21*
X160688000Y-140716000D03*
X163228000Y-138176000D03*
X160688000Y-138176000D03*
X163228000Y-135636000D03*
X160688000Y-135636000D03*
X163228000Y-133096000D03*
X160688000Y-133096000D03*
X163228000Y-130556000D03*
X160688000Y-130556000D03*
X163228000Y-128016000D03*
X160688000Y-128016000D03*
X163228000Y-125476000D03*
X160688000Y-125476000D03*
X163228000Y-122936000D03*
X160688000Y-122936000D03*
%TD*%
D23*
%TO.C,H1*%
X91694000Y-58801000D03*
D24*
X91694000Y-58801000D03*
%TD*%
D20*
%TO.C,J1*%
X109235000Y-63119000D03*
D39*
X111775000Y-63119000D03*
X114315000Y-63119000D03*
%TD*%
D16*
%TO.C,D29*%
X118532000Y-125476000D03*
X116332000Y-125476000D03*
%TD*%
%TO.C,D7*%
X98715000Y-128016000D03*
X96515000Y-128016000D03*
%TD*%
%TO.C,D38*%
X158151000Y-133096000D03*
X155951000Y-133096000D03*
%TD*%
D40*
%TO.C,D1*%
X106680000Y-81593000D03*
X106680000Y-83643000D03*
%TD*%
D41*
%TO.C,U2*%
X111995000Y-92373000D03*
X112645000Y-92373000D03*
X113295000Y-92373000D03*
X113945000Y-92373000D03*
X114595000Y-92373000D03*
X115245000Y-92373000D03*
X115895000Y-92373000D03*
X116545000Y-92373000D03*
X117195000Y-92373000D03*
X117845000Y-92373000D03*
X118495000Y-92373000D03*
X119145000Y-92373000D03*
X119145000Y-85173000D03*
X118495000Y-85173000D03*
X117845000Y-85173000D03*
X117195000Y-85173000D03*
X116545000Y-85173000D03*
X115895000Y-85173000D03*
X115245000Y-85173000D03*
X114595000Y-85173000D03*
X113945000Y-85173000D03*
X113295000Y-85173000D03*
X112645000Y-85173000D03*
X111995000Y-85173000D03*
%TD*%
D42*
%TO.C,Q2*%
X108905000Y-81758000D03*
X110805000Y-81758000D03*
X109855000Y-79883000D03*
%TD*%
D22*
%TO.C,R18*%
X112649000Y-77954500D03*
X112649000Y-79779500D03*
%TD*%
D43*
%TO.C,U6*%
X153338000Y-102108000D03*
X153338000Y-103378000D03*
X153338000Y-104648000D03*
X153338000Y-105918000D03*
X153338000Y-107188000D03*
X153338000Y-108458000D03*
X153338000Y-109728000D03*
X153338000Y-110998000D03*
X153338000Y-112268000D03*
X153338000Y-113538000D03*
X153338000Y-114808000D03*
X153338000Y-116078000D03*
X162638000Y-116078000D03*
X162638000Y-114808000D03*
X162638000Y-113538000D03*
X162638000Y-112268000D03*
X162638000Y-110998000D03*
X162638000Y-109728000D03*
X162638000Y-108458000D03*
X162638000Y-107188000D03*
X162638000Y-105918000D03*
X162638000Y-104648000D03*
X162638000Y-103378000D03*
X162638000Y-102108000D03*
%TD*%
D16*
%TO.C,D37*%
X158151000Y-125476000D03*
X155951000Y-125476000D03*
%TD*%
D26*
%TO.C,JSPI5*%
X157295000Y-67751000D03*
D27*
X157295000Y-69251000D03*
X157295000Y-70751000D03*
X157295000Y-72251000D03*
X157295000Y-73751000D03*
X157295000Y-75251000D03*
%TD*%
D44*
%TO.C,R17*%
X108180500Y-93218000D03*
X110005500Y-93218000D03*
%TD*%
D26*
%TO.C,J31*%
X147135000Y-109891000D03*
D27*
X147135000Y-111391000D03*
X147135000Y-112891000D03*
X147135000Y-114391000D03*
%TD*%
D16*
%TO.C,D25*%
X128438000Y-133080210D03*
X126238000Y-133080210D03*
%TD*%
D26*
%TO.C,JSPI1*%
X152469000Y-79562000D03*
D27*
X152469000Y-81062000D03*
X152469000Y-82562000D03*
X152469000Y-84062000D03*
X152469000Y-85562000D03*
X152469000Y-87062000D03*
%TD*%
D35*
%TO.C,C5*%
X90858344Y-76946854D03*
X92583344Y-76946854D03*
%TD*%
D16*
%TO.C,D20*%
X138334000Y-128016000D03*
X136134000Y-128016000D03*
%TD*%
D18*
%TO.C,AN15*%
X130937000Y-75184000D03*
D19*
X129437000Y-75184000D03*
X127937000Y-75184000D03*
%TD*%
D42*
%TO.C,U3*%
X104018000Y-92885500D03*
X105918000Y-92885500D03*
X104968000Y-91010500D03*
%TD*%
D30*
%TO.C,C9*%
X151942800Y-92912100D03*
X151942800Y-91187100D03*
%TD*%
D16*
%TO.C,D64*%
X148245000Y-140716000D03*
X146045000Y-140716000D03*
%TD*%
%TO.C,D9*%
X98715000Y-130556000D03*
X96515000Y-130556000D03*
%TD*%
%TO.C,D57*%
X167968000Y-135636000D03*
X165768000Y-135636000D03*
%TD*%
%TO.C,D49*%
X158151000Y-128016000D03*
X155951000Y-128016000D03*
%TD*%
%TO.C,D5*%
X98715000Y-125476000D03*
X96515000Y-125476000D03*
%TD*%
D26*
%TO.C,JSPI6*%
X162121000Y-67751000D03*
D27*
X162121000Y-69251000D03*
X162121000Y-70751000D03*
X162121000Y-72251000D03*
X162121000Y-73751000D03*
X162121000Y-75251000D03*
%TD*%
D29*
%TO.C,C6*%
X92837000Y-78639500D03*
X92837000Y-80364500D03*
%TD*%
D16*
%TO.C,D36*%
X118532000Y-138176000D03*
X116332000Y-138176000D03*
%TD*%
%TO.C,D14*%
X108626000Y-135636000D03*
X106426000Y-135636000D03*
%TD*%
D45*
%TO.C,U7*%
X177989000Y-135255000D03*
X177989000Y-133985000D03*
X177989000Y-132715000D03*
X177989000Y-131445000D03*
X177989000Y-130175000D03*
X177989000Y-128905000D03*
X177989000Y-127635000D03*
X177989000Y-126365000D03*
X173039000Y-126365000D03*
X173039000Y-127635000D03*
X173039000Y-128905000D03*
X173039000Y-130175000D03*
X173039000Y-131445000D03*
X173039000Y-132715000D03*
X173039000Y-133985000D03*
X173039000Y-135255000D03*
%TD*%
D46*
%TO.C,C7*%
X92660000Y-73787000D03*
X90935000Y-73787000D03*
%TD*%
D20*
%TO.C,JR5*%
X133604000Y-140716000D03*
D21*
X131064000Y-140716000D03*
X133604000Y-138176000D03*
X131064000Y-138176000D03*
X133604000Y-135636000D03*
X131064000Y-135636000D03*
X133604000Y-133096000D03*
X131064000Y-133096000D03*
X133604000Y-130556000D03*
X131064000Y-130556000D03*
X133604000Y-128016000D03*
X131064000Y-128016000D03*
X133604000Y-125476000D03*
X131064000Y-125476000D03*
X133604000Y-122936000D03*
X131064000Y-122936000D03*
%TD*%
D16*
%TO.C,D61*%
X138334000Y-140716000D03*
X136134000Y-140716000D03*
%TD*%
%TO.C,D53*%
X167968000Y-128016000D03*
X165768000Y-128016000D03*
%TD*%
D46*
%TO.C,C11*%
X150874900Y-117297200D03*
X149149900Y-117297200D03*
%TD*%
D16*
%TO.C,D62*%
X128438000Y-140700210D03*
X126238000Y-140700210D03*
%TD*%
D29*
%TO.C,C16*%
X99745800Y-103074300D03*
X99745800Y-104799300D03*
%TD*%
D26*
%TO.C,JSPI3*%
X162121000Y-79562000D03*
D27*
X162121000Y-81062000D03*
X162121000Y-82562000D03*
X162121000Y-84062000D03*
X162121000Y-85562000D03*
X162121000Y-87062000D03*
%TD*%
D14*
%TO.C,R15*%
X162480000Y-120142000D03*
X160655000Y-120142000D03*
%TD*%
D16*
%TO.C,D56*%
X167968000Y-138176000D03*
X165768000Y-138176000D03*
%TD*%
D35*
%TO.C,C13*%
X112319900Y-60452000D03*
X114044900Y-60452000D03*
%TD*%
D16*
%TO.C,D30*%
X138334000Y-138176000D03*
X136134000Y-138176000D03*
%TD*%
%TO.C,D27*%
X138334000Y-135636000D03*
X136134000Y-135636000D03*
%TD*%
D18*
%TO.C,AN6*%
X138430000Y-75184000D03*
D19*
X136930000Y-75184000D03*
X135430000Y-75184000D03*
%TD*%
D20*
%TO.C,J4*%
X139319000Y-96774000D03*
D39*
X136779000Y-96774000D03*
X134239000Y-96774000D03*
X131699000Y-96774000D03*
X129159000Y-96774000D03*
X126619000Y-96774000D03*
X124079000Y-96774000D03*
X121539000Y-96774000D03*
X118999000Y-96774000D03*
X116459000Y-96774000D03*
X113919000Y-96774000D03*
X111379000Y-96774000D03*
X108839000Y-96774000D03*
X106299000Y-96774000D03*
X103759000Y-96774000D03*
X101219000Y-96774000D03*
X98679000Y-96774000D03*
X96139000Y-96774000D03*
X93599000Y-96774000D03*
X91059000Y-96774000D03*
%TD*%
%LPD*%
M02*
