%TF.GenerationSoftware,KiCad,Pcbnew,9.0.3*%
%TF.CreationDate,2025-07-24T06:46:12-03:00*%
%TF.ProjectId,pi_controller,70695f63-6f6e-4747-926f-6c6c65722e6b,1.0*%
%TF.SameCoordinates,Original*%
%TF.FileFunction,Legend,Bot*%
%TF.FilePolarity,Positive*%
%FSLAX46Y46*%
G04 Gerber Fmt 4.6, Leading zero omitted, Abs format (unit mm)*
G04 Created by KiCad (PCBNEW 9.0.3) date 2025-07-24 06:46:12*
%MOMM*%
%LPD*%
G01*
G04 APERTURE LIST*
G04 Aperture macros list*
%AMRoundRect*
0 Rectangle with rounded corners*
0 $1 Rounding radius*
0 $2 $3 $4 $5 $6 $7 $8 $9 X,Y pos of 4 corners*
0 Add a 4 corners polygon primitive as box body*
4,1,4,$2,$3,$4,$5,$6,$7,$8,$9,$2,$3,0*
0 Add four circle primitives for the rounded corners*
1,1,$1+$1,$2,$3*
1,1,$1+$1,$4,$5*
1,1,$1+$1,$6,$7*
1,1,$1+$1,$8,$9*
0 Add four rect primitives between the rounded corners*
20,1,$1+$1,$2,$3,$4,$5,0*
20,1,$1+$1,$4,$5,$6,$7,0*
20,1,$1+$1,$6,$7,$8,$9,0*
20,1,$1+$1,$8,$9,$2,$3,0*%
G04 Aperture macros list end*
%ADD10C,0.200000*%
%ADD11C,0.150000*%
%ADD12C,0.120000*%
%ADD13C,0.000000*%
%ADD14R,1.700000X1.700000*%
%ADD15C,1.700000*%
%ADD16RoundRect,0.250000X0.265000X0.615000X-0.265000X0.615000X-0.265000X-0.615000X0.265000X-0.615000X0*%
%ADD17O,1.030000X1.730000*%
%ADD18O,1.700000X1.700000*%
%ADD19C,2.600000*%
%ADD20C,3.800000*%
%ADD21RoundRect,0.250000X-0.615000X0.265000X-0.615000X-0.265000X0.615000X-0.265000X0.615000X0.265000X0*%
%ADD22O,1.730000X1.030000*%
%ADD23R,3.500000X3.500000*%
%ADD24RoundRect,0.750000X-0.750000X-1.000000X0.750000X-1.000000X0.750000X1.000000X-0.750000X1.000000X0*%
%ADD25RoundRect,0.875000X-0.875000X-0.875000X0.875000X-0.875000X0.875000X0.875000X-0.875000X0.875000X0*%
%ADD26C,4.000000*%
G04 APERTURE END LIST*
D10*
X94117219Y-100683816D02*
X95117219Y-101017149D01*
X95117219Y-101017149D02*
X94117219Y-101350482D01*
X95117219Y-101683816D02*
X94117219Y-101683816D01*
X94117219Y-101683816D02*
X94117219Y-101921911D01*
X94117219Y-101921911D02*
X94164838Y-102064768D01*
X94164838Y-102064768D02*
X94260076Y-102160006D01*
X94260076Y-102160006D02*
X94355314Y-102207625D01*
X94355314Y-102207625D02*
X94545790Y-102255244D01*
X94545790Y-102255244D02*
X94688647Y-102255244D01*
X94688647Y-102255244D02*
X94879123Y-102207625D01*
X94879123Y-102207625D02*
X94974361Y-102160006D01*
X94974361Y-102160006D02*
X95069600Y-102064768D01*
X95069600Y-102064768D02*
X95117219Y-101921911D01*
X95117219Y-101921911D02*
X95117219Y-101683816D01*
X95117219Y-102683816D02*
X94117219Y-102683816D01*
X94117219Y-102683816D02*
X94117219Y-102921911D01*
X94117219Y-102921911D02*
X94164838Y-103064768D01*
X94164838Y-103064768D02*
X94260076Y-103160006D01*
X94260076Y-103160006D02*
X94355314Y-103207625D01*
X94355314Y-103207625D02*
X94545790Y-103255244D01*
X94545790Y-103255244D02*
X94688647Y-103255244D01*
X94688647Y-103255244D02*
X94879123Y-103207625D01*
X94879123Y-103207625D02*
X94974361Y-103160006D01*
X94974361Y-103160006D02*
X95069600Y-103064768D01*
X95069600Y-103064768D02*
X95117219Y-102921911D01*
X95117219Y-102921911D02*
X95117219Y-102683816D01*
X109230219Y-99286816D02*
X110230219Y-99620149D01*
X110230219Y-99620149D02*
X109230219Y-99953482D01*
X110230219Y-100286816D02*
X109230219Y-100286816D01*
X109230219Y-100286816D02*
X109230219Y-100524911D01*
X109230219Y-100524911D02*
X109277838Y-100667768D01*
X109277838Y-100667768D02*
X109373076Y-100763006D01*
X109373076Y-100763006D02*
X109468314Y-100810625D01*
X109468314Y-100810625D02*
X109658790Y-100858244D01*
X109658790Y-100858244D02*
X109801647Y-100858244D01*
X109801647Y-100858244D02*
X109992123Y-100810625D01*
X109992123Y-100810625D02*
X110087361Y-100763006D01*
X110087361Y-100763006D02*
X110182600Y-100667768D01*
X110182600Y-100667768D02*
X110230219Y-100524911D01*
X110230219Y-100524911D02*
X110230219Y-100286816D01*
X110230219Y-101286816D02*
X109230219Y-101286816D01*
X109230219Y-101286816D02*
X109230219Y-101524911D01*
X109230219Y-101524911D02*
X109277838Y-101667768D01*
X109277838Y-101667768D02*
X109373076Y-101763006D01*
X109373076Y-101763006D02*
X109468314Y-101810625D01*
X109468314Y-101810625D02*
X109658790Y-101858244D01*
X109658790Y-101858244D02*
X109801647Y-101858244D01*
X109801647Y-101858244D02*
X109992123Y-101810625D01*
X109992123Y-101810625D02*
X110087361Y-101763006D01*
X110087361Y-101763006D02*
X110182600Y-101667768D01*
X110182600Y-101667768D02*
X110230219Y-101524911D01*
X110230219Y-101524911D02*
X110230219Y-101286816D01*
X109944504Y-102239197D02*
X109944504Y-102715387D01*
X110230219Y-102143959D02*
X109230219Y-102477292D01*
X109230219Y-102477292D02*
X110230219Y-102810625D01*
D11*
X186035792Y-140839819D02*
X186369125Y-140363628D01*
X186607220Y-140839819D02*
X186607220Y-139839819D01*
X186607220Y-139839819D02*
X186226268Y-139839819D01*
X186226268Y-139839819D02*
X186131030Y-139887438D01*
X186131030Y-139887438D02*
X186083411Y-139935057D01*
X186083411Y-139935057D02*
X186035792Y-140030295D01*
X186035792Y-140030295D02*
X186035792Y-140173152D01*
X186035792Y-140173152D02*
X186083411Y-140268390D01*
X186083411Y-140268390D02*
X186131030Y-140316009D01*
X186131030Y-140316009D02*
X186226268Y-140363628D01*
X186226268Y-140363628D02*
X186607220Y-140363628D01*
X185607220Y-140316009D02*
X185273887Y-140316009D01*
X185131030Y-140839819D02*
X185607220Y-140839819D01*
X185607220Y-140839819D02*
X185607220Y-139839819D01*
X185607220Y-139839819D02*
X185131030Y-139839819D01*
X184845315Y-139839819D02*
X184511982Y-140839819D01*
X184511982Y-140839819D02*
X184178649Y-139839819D01*
X182559601Y-140839819D02*
X183131029Y-140839819D01*
X182845315Y-140839819D02*
X182845315Y-139839819D01*
X182845315Y-139839819D02*
X182940553Y-139982676D01*
X182940553Y-139982676D02*
X183035791Y-140077914D01*
X183035791Y-140077914D02*
X183131029Y-140125533D01*
X103120819Y-101142969D02*
X103120819Y-100666779D01*
X103120819Y-100666779D02*
X102120819Y-100666779D01*
X102597009Y-101476303D02*
X102597009Y-101809636D01*
X103120819Y-101952493D02*
X103120819Y-101476303D01*
X103120819Y-101476303D02*
X102120819Y-101476303D01*
X102120819Y-101476303D02*
X102120819Y-101952493D01*
X103120819Y-102381065D02*
X102120819Y-102381065D01*
X102120819Y-102381065D02*
X102120819Y-102619160D01*
X102120819Y-102619160D02*
X102168438Y-102762017D01*
X102168438Y-102762017D02*
X102263676Y-102857255D01*
X102263676Y-102857255D02*
X102358914Y-102904874D01*
X102358914Y-102904874D02*
X102549390Y-102952493D01*
X102549390Y-102952493D02*
X102692247Y-102952493D01*
X102692247Y-102952493D02*
X102882723Y-102904874D01*
X102882723Y-102904874D02*
X102977961Y-102857255D01*
X102977961Y-102857255D02*
X103073200Y-102762017D01*
X103073200Y-102762017D02*
X103120819Y-102619160D01*
X103120819Y-102619160D02*
X103120819Y-102381065D01*
X115376438Y-100936588D02*
X115328819Y-100841350D01*
X115328819Y-100841350D02*
X115328819Y-100698493D01*
X115328819Y-100698493D02*
X115376438Y-100555636D01*
X115376438Y-100555636D02*
X115471676Y-100460398D01*
X115471676Y-100460398D02*
X115566914Y-100412779D01*
X115566914Y-100412779D02*
X115757390Y-100365160D01*
X115757390Y-100365160D02*
X115900247Y-100365160D01*
X115900247Y-100365160D02*
X116090723Y-100412779D01*
X116090723Y-100412779D02*
X116185961Y-100460398D01*
X116185961Y-100460398D02*
X116281200Y-100555636D01*
X116281200Y-100555636D02*
X116328819Y-100698493D01*
X116328819Y-100698493D02*
X116328819Y-100793731D01*
X116328819Y-100793731D02*
X116281200Y-100936588D01*
X116281200Y-100936588D02*
X116233580Y-100984207D01*
X116233580Y-100984207D02*
X115900247Y-100984207D01*
X115900247Y-100984207D02*
X115900247Y-100793731D01*
X116328819Y-101412779D02*
X115328819Y-101412779D01*
X115328819Y-101412779D02*
X116328819Y-101984207D01*
X116328819Y-101984207D02*
X115328819Y-101984207D01*
X116328819Y-102460398D02*
X115328819Y-102460398D01*
X115328819Y-102460398D02*
X115328819Y-102698493D01*
X115328819Y-102698493D02*
X115376438Y-102841350D01*
X115376438Y-102841350D02*
X115471676Y-102936588D01*
X115471676Y-102936588D02*
X115566914Y-102984207D01*
X115566914Y-102984207D02*
X115757390Y-103031826D01*
X115757390Y-103031826D02*
X115900247Y-103031826D01*
X115900247Y-103031826D02*
X116090723Y-102984207D01*
X116090723Y-102984207D02*
X116185961Y-102936588D01*
X116185961Y-102936588D02*
X116281200Y-102841350D01*
X116281200Y-102841350D02*
X116328819Y-102698493D01*
X116328819Y-102698493D02*
X116328819Y-102460398D01*
X113881819Y-104529095D02*
X113881819Y-105100523D01*
X114881819Y-104814809D02*
X113881819Y-104814809D01*
X114881819Y-105433857D02*
X113881819Y-105433857D01*
X113881819Y-105433857D02*
X113881819Y-105814809D01*
X113881819Y-105814809D02*
X113929438Y-105910047D01*
X113929438Y-105910047D02*
X113977057Y-105957666D01*
X113977057Y-105957666D02*
X114072295Y-106005285D01*
X114072295Y-106005285D02*
X114215152Y-106005285D01*
X114215152Y-106005285D02*
X114310390Y-105957666D01*
X114310390Y-105957666D02*
X114358009Y-105910047D01*
X114358009Y-105910047D02*
X114405628Y-105814809D01*
X114405628Y-105814809D02*
X114405628Y-105433857D01*
X114881819Y-106957666D02*
X114881819Y-106386238D01*
X114881819Y-106671952D02*
X113881819Y-106671952D01*
X113881819Y-106671952D02*
X114024676Y-106576714D01*
X114024676Y-106576714D02*
X114119914Y-106481476D01*
X114119914Y-106481476D02*
X114167533Y-106386238D01*
X92926819Y-104402095D02*
X92926819Y-104973523D01*
X93926819Y-104687809D02*
X92926819Y-104687809D01*
X93926819Y-105306857D02*
X92926819Y-105306857D01*
X92926819Y-105306857D02*
X92926819Y-105687809D01*
X92926819Y-105687809D02*
X92974438Y-105783047D01*
X92974438Y-105783047D02*
X93022057Y-105830666D01*
X93022057Y-105830666D02*
X93117295Y-105878285D01*
X93117295Y-105878285D02*
X93260152Y-105878285D01*
X93260152Y-105878285D02*
X93355390Y-105830666D01*
X93355390Y-105830666D02*
X93403009Y-105783047D01*
X93403009Y-105783047D02*
X93450628Y-105687809D01*
X93450628Y-105687809D02*
X93450628Y-105306857D01*
X93260152Y-106735428D02*
X93926819Y-106735428D01*
X92879200Y-106497333D02*
X93593485Y-106259238D01*
X93593485Y-106259238D02*
X93593485Y-106878285D01*
X107150819Y-104402095D02*
X107150819Y-104973523D01*
X108150819Y-104687809D02*
X107150819Y-104687809D01*
X108150819Y-105306857D02*
X107150819Y-105306857D01*
X107150819Y-105306857D02*
X107150819Y-105687809D01*
X107150819Y-105687809D02*
X107198438Y-105783047D01*
X107198438Y-105783047D02*
X107246057Y-105830666D01*
X107246057Y-105830666D02*
X107341295Y-105878285D01*
X107341295Y-105878285D02*
X107484152Y-105878285D01*
X107484152Y-105878285D02*
X107579390Y-105830666D01*
X107579390Y-105830666D02*
X107627009Y-105783047D01*
X107627009Y-105783047D02*
X107674628Y-105687809D01*
X107674628Y-105687809D02*
X107674628Y-105306857D01*
X107246057Y-106259238D02*
X107198438Y-106306857D01*
X107198438Y-106306857D02*
X107150819Y-106402095D01*
X107150819Y-106402095D02*
X107150819Y-106640190D01*
X107150819Y-106640190D02*
X107198438Y-106735428D01*
X107198438Y-106735428D02*
X107246057Y-106783047D01*
X107246057Y-106783047D02*
X107341295Y-106830666D01*
X107341295Y-106830666D02*
X107436533Y-106830666D01*
X107436533Y-106830666D02*
X107579390Y-106783047D01*
X107579390Y-106783047D02*
X108150819Y-106211619D01*
X108150819Y-106211619D02*
X108150819Y-106830666D01*
X100038819Y-104402095D02*
X100038819Y-104973523D01*
X101038819Y-104687809D02*
X100038819Y-104687809D01*
X101038819Y-105306857D02*
X100038819Y-105306857D01*
X100038819Y-105306857D02*
X100038819Y-105687809D01*
X100038819Y-105687809D02*
X100086438Y-105783047D01*
X100086438Y-105783047D02*
X100134057Y-105830666D01*
X100134057Y-105830666D02*
X100229295Y-105878285D01*
X100229295Y-105878285D02*
X100372152Y-105878285D01*
X100372152Y-105878285D02*
X100467390Y-105830666D01*
X100467390Y-105830666D02*
X100515009Y-105783047D01*
X100515009Y-105783047D02*
X100562628Y-105687809D01*
X100562628Y-105687809D02*
X100562628Y-105306857D01*
X100038819Y-106211619D02*
X100038819Y-106830666D01*
X100038819Y-106830666D02*
X100419771Y-106497333D01*
X100419771Y-106497333D02*
X100419771Y-106640190D01*
X100419771Y-106640190D02*
X100467390Y-106735428D01*
X100467390Y-106735428D02*
X100515009Y-106783047D01*
X100515009Y-106783047D02*
X100610247Y-106830666D01*
X100610247Y-106830666D02*
X100848342Y-106830666D01*
X100848342Y-106830666D02*
X100943580Y-106783047D01*
X100943580Y-106783047D02*
X100991200Y-106735428D01*
X100991200Y-106735428D02*
X101038819Y-106640190D01*
X101038819Y-106640190D02*
X101038819Y-106354476D01*
X101038819Y-106354476D02*
X100991200Y-106259238D01*
X100991200Y-106259238D02*
X100943580Y-106211619D01*
D12*
%TO.C,TP1*%
X119852000Y-105791000D02*
G75*
G02*
X115352000Y-105791000I-2250000J0D01*
G01*
X115352000Y-105791000D02*
G75*
G02*
X119852000Y-105791000I2250000J0D01*
G01*
%TO.C,TP4*%
X98897000Y-105664000D02*
G75*
G02*
X94397000Y-105664000I-2250000J0D01*
G01*
X94397000Y-105664000D02*
G75*
G02*
X98897000Y-105664000I2250000J0D01*
G01*
%TO.C,TP2*%
X113121000Y-105664000D02*
G75*
G02*
X108621000Y-105664000I-2250000J0D01*
G01*
X108621000Y-105664000D02*
G75*
G02*
X113121000Y-105664000I2250000J0D01*
G01*
%TO.C,TP3*%
X106062666Y-105664000D02*
G75*
G02*
X101562666Y-105664000I-2250000J0D01*
G01*
X101562666Y-105664000D02*
G75*
G02*
X106062666Y-105664000I2250000J0D01*
G01*
D13*
%TO.C,G\u002A\u002A\u002A*%
G36*
X101404322Y-88550626D02*
G01*
X101404322Y-88832067D01*
X100999752Y-88832067D01*
X100595181Y-88832067D01*
X100595181Y-88550626D01*
X100595181Y-88269186D01*
X100999752Y-88269186D01*
X101404322Y-88269186D01*
X101404322Y-88550626D01*
G37*
G36*
X101404322Y-90124934D02*
G01*
X101404322Y-91171540D01*
X100999752Y-91171540D01*
X100595181Y-91171540D01*
X100595181Y-90124934D01*
X100595181Y-89078327D01*
X100999752Y-89078327D01*
X101404322Y-89078327D01*
X101404322Y-90124934D01*
G37*
G36*
X105502799Y-82701942D02*
G01*
X105502799Y-82851457D01*
X105353284Y-82851457D01*
X105203768Y-82851457D01*
X105203768Y-82701942D01*
X105203768Y-82552427D01*
X105353284Y-82552427D01*
X105502799Y-82552427D01*
X105502799Y-82701942D01*
G37*
G36*
X107244212Y-89720363D02*
G01*
X107244212Y-91171540D01*
X106839641Y-91171540D01*
X106435070Y-91171540D01*
X106435070Y-89720363D01*
X106435070Y-88269186D01*
X106839641Y-88269186D01*
X107244212Y-88269186D01*
X107244212Y-89720363D01*
G37*
G36*
X107138671Y-81145225D02*
G01*
X107138671Y-81303535D01*
X106980361Y-81303535D01*
X106822051Y-81303535D01*
X106822051Y-81145225D01*
X106822051Y-80986914D01*
X106980361Y-80986914D01*
X107138671Y-80986914D01*
X107138671Y-81145225D01*
G37*
G36*
X107138671Y-82701942D02*
G01*
X107138671Y-82851457D01*
X106989156Y-82851457D01*
X106839641Y-82851457D01*
X106839641Y-82701942D01*
X106839641Y-82552427D01*
X106989156Y-82552427D01*
X107138671Y-82552427D01*
X107138671Y-82701942D01*
G37*
G36*
X116690057Y-88550626D02*
G01*
X116690057Y-88832067D01*
X116285486Y-88832067D01*
X115880915Y-88832067D01*
X115880915Y-88550626D01*
X115880915Y-88269186D01*
X116285486Y-88269186D01*
X116690057Y-88269186D01*
X116690057Y-88550626D01*
G37*
G36*
X116690057Y-90124934D02*
G01*
X116690057Y-91171540D01*
X116285486Y-91171540D01*
X115880915Y-91171540D01*
X115880915Y-90124934D01*
X115880915Y-89078327D01*
X116285486Y-89078327D01*
X116690057Y-89078327D01*
X116690057Y-90124934D01*
G37*
G36*
X105357681Y-80990627D02*
G01*
X105511594Y-80995709D01*
X105516818Y-81125988D01*
X105517082Y-81132931D01*
X105518197Y-81198965D01*
X105516737Y-81251570D01*
X105512972Y-81279901D01*
X105509435Y-81285190D01*
X105484808Y-81295844D01*
X105434497Y-81301728D01*
X105353836Y-81303535D01*
X105203768Y-81303535D01*
X105203768Y-81144540D01*
X105203768Y-80985545D01*
X105357681Y-80990627D01*
G37*
G36*
X101335571Y-82596023D02*
G01*
X101396644Y-82644805D01*
X101435248Y-82720650D01*
X101445117Y-82789364D01*
X101427776Y-82868541D01*
X101380893Y-82936002D01*
X101307577Y-82985308D01*
X101275054Y-82996421D01*
X101199204Y-82999342D01*
X101128033Y-82974428D01*
X101068536Y-82926522D01*
X101027708Y-82860464D01*
X101012545Y-82781097D01*
X101015437Y-82743757D01*
X101043149Y-82667979D01*
X101096229Y-82611816D01*
X101169758Y-82579388D01*
X101258817Y-82574815D01*
X101335571Y-82596023D01*
G37*
G36*
X111152645Y-81035887D02*
G01*
X111233911Y-81058670D01*
X111299860Y-81106906D01*
X111344110Y-81174466D01*
X111360278Y-81255219D01*
X111353299Y-81291318D01*
X111324920Y-81348996D01*
X111283012Y-81403179D01*
X111236620Y-81440330D01*
X111198819Y-81453957D01*
X111124438Y-81457219D01*
X111049584Y-81437397D01*
X110988214Y-81396930D01*
X110961374Y-81364436D01*
X110930881Y-81293577D01*
X110927648Y-81219543D01*
X110948854Y-81149497D01*
X110991677Y-81090599D01*
X111053294Y-81050008D01*
X111130885Y-81034887D01*
X111152645Y-81035887D01*
G37*
G36*
X111236620Y-82592520D02*
G01*
X111270075Y-82616402D01*
X111314080Y-82666687D01*
X111347201Y-82724648D01*
X111360278Y-82776643D01*
X111360218Y-82781328D01*
X111341987Y-82859944D01*
X111296114Y-82928670D01*
X111229687Y-82976653D01*
X111216435Y-82982297D01*
X111132844Y-82999552D01*
X111055380Y-82986207D01*
X110990696Y-82944592D01*
X110945443Y-82877039D01*
X110926322Y-82819338D01*
X110924060Y-82754660D01*
X110947197Y-82686237D01*
X110956323Y-82669337D01*
X111009431Y-82612341D01*
X111080164Y-82578495D01*
X111159051Y-82570865D01*
X111236620Y-82592520D01*
G37*
G36*
X101260487Y-81029621D02*
G01*
X101307913Y-81050030D01*
X101319010Y-81055927D01*
X101371726Y-81092612D01*
X101411583Y-81132786D01*
X101433665Y-81172981D01*
X101447123Y-81247677D01*
X101433089Y-81323282D01*
X101393993Y-81390391D01*
X101332267Y-81439598D01*
X101312760Y-81448249D01*
X101236173Y-81461643D01*
X101158868Y-81448875D01*
X101091325Y-81412951D01*
X101044025Y-81356881D01*
X101025052Y-81306554D01*
X101020355Y-81224257D01*
X101044848Y-81147342D01*
X101095404Y-81083703D01*
X101168901Y-81041235D01*
X101176278Y-81038691D01*
X101223232Y-81026261D01*
X101260487Y-81029621D01*
G37*
G36*
X102088417Y-89045100D02*
G01*
X102171996Y-89073534D01*
X102201868Y-89091664D01*
X102280136Y-89157625D01*
X102354592Y-89244339D01*
X102416473Y-89342177D01*
X102458086Y-89421333D01*
X102458905Y-89249830D01*
X102459724Y-89078327D01*
X102837910Y-89078327D01*
X103216095Y-89078327D01*
X103216095Y-90124934D01*
X103216095Y-91171540D01*
X102811525Y-91171540D01*
X102406954Y-91171540D01*
X102406821Y-90753777D01*
X102406342Y-90637504D01*
X102402868Y-90445014D01*
X102395574Y-90282539D01*
X102383915Y-90146796D01*
X102367346Y-90034500D01*
X102345324Y-89942369D01*
X102317304Y-89867117D01*
X102282741Y-89805463D01*
X102241091Y-89754122D01*
X102177481Y-89699529D01*
X102106490Y-89668026D01*
X102024450Y-89662440D01*
X101923228Y-89680900D01*
X101873037Y-89692398D01*
X101827674Y-89698927D01*
X101805589Y-89696920D01*
X101799023Y-89685649D01*
X101780005Y-89646159D01*
X101751708Y-89583970D01*
X101716675Y-89504698D01*
X101677448Y-89413954D01*
X101670225Y-89397033D01*
X101627902Y-89295580D01*
X101599327Y-89221665D01*
X101583292Y-89171594D01*
X101578589Y-89141670D01*
X101584008Y-89128197D01*
X101650631Y-89093425D01*
X101755750Y-89058880D01*
X101870370Y-89038695D01*
X101984567Y-89033794D01*
X102088417Y-89045100D01*
G37*
G36*
X106220389Y-81188910D02*
G01*
X106300699Y-81223675D01*
X106366493Y-81288352D01*
X106374050Y-81299106D01*
X106384354Y-81316054D01*
X106392444Y-81335817D01*
X106398636Y-81362440D01*
X106403245Y-81399970D01*
X106406584Y-81452451D01*
X106408970Y-81523930D01*
X106410718Y-81618450D01*
X106412141Y-81740059D01*
X106413556Y-81892801D01*
X106413640Y-81902290D01*
X106414867Y-82065650D01*
X106414923Y-82197904D01*
X106413164Y-82302923D01*
X106408950Y-82384575D01*
X106401638Y-82446729D01*
X106390587Y-82493255D01*
X106375154Y-82528020D01*
X106354697Y-82554895D01*
X106328575Y-82577748D01*
X106296146Y-82600449D01*
X106253832Y-82622258D01*
X106171858Y-82637720D01*
X106088762Y-82625672D01*
X106014276Y-82588214D01*
X105958129Y-82527450D01*
X105949131Y-82510604D01*
X105941773Y-82489725D01*
X105936081Y-82461259D01*
X105931844Y-82421263D01*
X105928850Y-82365797D01*
X105926889Y-82290919D01*
X105925749Y-82192686D01*
X105925220Y-82067157D01*
X105925091Y-81910391D01*
X105925098Y-81857340D01*
X105925419Y-81700149D01*
X105926713Y-81573349D01*
X105929656Y-81473246D01*
X105934920Y-81396146D01*
X105943183Y-81338355D01*
X105955117Y-81296181D01*
X105971398Y-81265930D01*
X105992701Y-81243908D01*
X106019700Y-81226423D01*
X106053069Y-81209779D01*
X106131923Y-81185650D01*
X106220389Y-81188910D01*
G37*
G36*
X111355656Y-89044429D02*
G01*
X111515834Y-89093896D01*
X111663802Y-89176109D01*
X111801005Y-89291597D01*
X111923159Y-89413751D01*
X111923159Y-89246039D01*
X111923159Y-89078327D01*
X112292550Y-89078327D01*
X112661940Y-89078327D01*
X112661940Y-90124934D01*
X112661940Y-91171540D01*
X112258373Y-91171540D01*
X111854806Y-91171540D01*
X111849405Y-90533902D01*
X111844004Y-89896263D01*
X111795880Y-89814400D01*
X111762873Y-89768215D01*
X111692176Y-89707420D01*
X111610003Y-89671041D01*
X111523195Y-89659564D01*
X111438595Y-89673474D01*
X111363045Y-89713258D01*
X111303388Y-89779403D01*
X111298164Y-89787924D01*
X111288883Y-89805064D01*
X111281376Y-89824704D01*
X111275420Y-89850473D01*
X111270787Y-89886004D01*
X111267252Y-89934927D01*
X111264591Y-90000873D01*
X111262577Y-90087474D01*
X111260985Y-90198361D01*
X111259590Y-90337165D01*
X111258165Y-90507517D01*
X111252797Y-91171540D01*
X110848057Y-91171540D01*
X110443318Y-91171540D01*
X110450169Y-90384387D01*
X110450194Y-90381426D01*
X110452096Y-90185955D01*
X110454174Y-90022472D01*
X110456549Y-89887829D01*
X110459341Y-89778876D01*
X110462672Y-89692466D01*
X110466663Y-89625450D01*
X110471435Y-89574680D01*
X110477109Y-89537007D01*
X110483805Y-89509283D01*
X110508815Y-89437995D01*
X110579970Y-89302407D01*
X110673864Y-89193634D01*
X110790208Y-89111904D01*
X110928714Y-89057444D01*
X111089095Y-89030482D01*
X111181821Y-89027176D01*
X111355656Y-89044429D01*
G37*
G36*
X105907370Y-91171540D02*
G01*
X105529184Y-91171540D01*
X105150998Y-91171540D01*
X105150998Y-91028032D01*
X105150998Y-90884524D01*
X105040706Y-90990432D01*
X104993132Y-91034204D01*
X104897679Y-91107484D01*
X104800339Y-91159467D01*
X104689248Y-91197131D01*
X104661264Y-91204128D01*
X104498321Y-91224484D01*
X104336661Y-91211687D01*
X104181396Y-91167110D01*
X104037640Y-91092127D01*
X103910506Y-90988108D01*
X103882969Y-90959355D01*
X103786145Y-90836667D01*
X103711928Y-90700845D01*
X103658633Y-90547322D01*
X103624573Y-90371532D01*
X103608063Y-90168909D01*
X103607873Y-90158395D01*
X104408177Y-90158395D01*
X104415156Y-90260630D01*
X104428259Y-90352555D01*
X104446540Y-90421864D01*
X104468807Y-90470667D01*
X104531328Y-90554402D01*
X104612762Y-90610323D01*
X104681769Y-90634047D01*
X104780251Y-90639427D01*
X104880395Y-90610188D01*
X104953216Y-90563879D01*
X105020776Y-90483136D01*
X105067050Y-90375367D01*
X105091729Y-90241337D01*
X105094503Y-90081811D01*
X105092465Y-90047768D01*
X105075556Y-89923355D01*
X105043408Y-89825108D01*
X104993664Y-89747545D01*
X104923968Y-89685183D01*
X104903881Y-89671536D01*
X104857107Y-89646740D01*
X104807556Y-89635229D01*
X104739146Y-89632413D01*
X104709625Y-89632746D01*
X104651688Y-89638023D01*
X104608259Y-89652986D01*
X104564598Y-89681805D01*
X104550402Y-89693223D01*
X104484818Y-89768400D01*
X104439813Y-89866732D01*
X104413496Y-89992096D01*
X104408269Y-90058159D01*
X104408177Y-90158395D01*
X103607873Y-90158395D01*
X103606178Y-90064819D01*
X103617246Y-89862164D01*
X103649610Y-89684245D01*
X103704144Y-89528201D01*
X103781725Y-89391170D01*
X103883230Y-89270289D01*
X103970878Y-89194705D01*
X104109436Y-89111779D01*
X104260658Y-89056864D01*
X104419274Y-89030229D01*
X104580011Y-89032147D01*
X104737598Y-89062885D01*
X104886766Y-89122715D01*
X105022242Y-89211907D01*
X105098228Y-89274173D01*
X105098228Y-88771679D01*
X105098228Y-88269186D01*
X105502799Y-88269186D01*
X105907370Y-88269186D01*
X105907370Y-89720363D01*
X105907370Y-90081811D01*
X105907370Y-91171540D01*
G37*
G36*
X100162622Y-90098549D02*
G01*
X100162110Y-90164280D01*
X100156276Y-90301184D01*
X100142295Y-90417506D01*
X100118122Y-90523262D01*
X100081712Y-90628467D01*
X100031021Y-90743138D01*
X99977902Y-90841075D01*
X99878109Y-90975319D01*
X99761318Y-91082175D01*
X99630095Y-91159461D01*
X99487009Y-91204997D01*
X99376309Y-91219754D01*
X99214981Y-91217614D01*
X99060248Y-91188680D01*
X98917727Y-91134692D01*
X98793032Y-91057389D01*
X98691779Y-90958514D01*
X98671882Y-90934882D01*
X98640739Y-90902713D01*
X98622154Y-90890100D01*
X98620082Y-90891513D01*
X98613674Y-90916262D01*
X98609194Y-90965472D01*
X98607508Y-91030820D01*
X98607508Y-91171540D01*
X98238117Y-91171540D01*
X97868727Y-91171540D01*
X97868727Y-90136111D01*
X98674014Y-90136111D01*
X98680160Y-90253840D01*
X98698165Y-90360355D01*
X98728033Y-90444704D01*
X98775183Y-90516780D01*
X98841438Y-90583249D01*
X98912081Y-90625130D01*
X98959053Y-90638737D01*
X99055031Y-90642121D01*
X99145783Y-90614727D01*
X99226314Y-90559471D01*
X99291631Y-90479271D01*
X99336739Y-90377044D01*
X99336856Y-90376649D01*
X99352151Y-90298863D01*
X99360841Y-90199686D01*
X99362698Y-90092243D01*
X99357493Y-89989659D01*
X99344995Y-89905058D01*
X99328976Y-89850747D01*
X99279485Y-89757399D01*
X99211934Y-89688266D01*
X99131695Y-89644070D01*
X99044138Y-89625530D01*
X98954634Y-89633366D01*
X98868553Y-89668299D01*
X98791267Y-89731049D01*
X98728146Y-89822336D01*
X98726717Y-89825167D01*
X98697295Y-89910822D01*
X98679726Y-90018121D01*
X98674014Y-90136111D01*
X97868727Y-90136111D01*
X97868727Y-89720363D01*
X97868727Y-88269186D01*
X98273298Y-88269186D01*
X98677868Y-88269186D01*
X98677868Y-88772548D01*
X98677868Y-89275911D01*
X98747436Y-89213061D01*
X98825034Y-89152223D01*
X98935678Y-89093670D01*
X99068693Y-89052127D01*
X99233414Y-89028004D01*
X99402159Y-89033995D01*
X99562200Y-89070605D01*
X99709832Y-89136168D01*
X99841352Y-89229016D01*
X99953057Y-89347483D01*
X100041243Y-89489902D01*
X100064237Y-89538483D01*
X100104740Y-89637538D01*
X100132944Y-89733612D01*
X100150735Y-89836166D01*
X100159999Y-89954658D01*
X100162507Y-90092243D01*
X100162622Y-90098549D01*
G37*
G36*
X94765652Y-90054574D02*
G01*
X94766594Y-90071015D01*
X94761099Y-90276899D01*
X94722705Y-90470600D01*
X94651315Y-90652635D01*
X94605752Y-90736255D01*
X94500594Y-90883211D01*
X94376089Y-91002287D01*
X94230288Y-91094860D01*
X94061240Y-91162305D01*
X93866996Y-91205997D01*
X93853447Y-91207806D01*
X93788416Y-91212877D01*
X93700914Y-91216173D01*
X93600718Y-91217417D01*
X93497605Y-91216338D01*
X93485262Y-91216035D01*
X93290156Y-91205195D01*
X93123358Y-91182571D01*
X92979765Y-91146531D01*
X92854271Y-91095447D01*
X92741772Y-91027688D01*
X92637163Y-90941626D01*
X92621247Y-90926391D01*
X92566413Y-90869379D01*
X92512686Y-90807687D01*
X92464699Y-90747344D01*
X92427081Y-90694382D01*
X92404464Y-90654832D01*
X92401480Y-90634724D01*
X92405609Y-90633314D01*
X92438106Y-90628037D01*
X92498317Y-90620557D01*
X92581061Y-90611457D01*
X92681157Y-90601318D01*
X92793426Y-90590722D01*
X93176265Y-90555826D01*
X93245218Y-90624779D01*
X93270891Y-90648590D01*
X93367423Y-90711365D01*
X93470755Y-90743879D01*
X93575630Y-90747841D01*
X93676790Y-90724961D01*
X93768979Y-90676947D01*
X93846938Y-90605508D01*
X93905410Y-90512354D01*
X93939138Y-90399193D01*
X93950647Y-90327219D01*
X93145464Y-90327219D01*
X92340282Y-90327219D01*
X92350971Y-90120536D01*
X92355544Y-90049709D01*
X92371275Y-89922648D01*
X93153929Y-89922648D01*
X93552288Y-89922648D01*
X93950647Y-89922648D01*
X93939138Y-89850674D01*
X93936462Y-89835514D01*
X93900098Y-89725582D01*
X93840479Y-89635232D01*
X93762749Y-89566352D01*
X93672054Y-89520826D01*
X93573539Y-89500540D01*
X93472348Y-89507381D01*
X93373627Y-89543235D01*
X93282522Y-89609988D01*
X93240351Y-89663457D01*
X93198540Y-89753209D01*
X93164620Y-89874276D01*
X93153929Y-89922648D01*
X92371275Y-89922648D01*
X92378040Y-89868001D01*
X92416149Y-89711744D01*
X92471904Y-89575544D01*
X92547339Y-89454002D01*
X92644489Y-89341723D01*
X92672033Y-89314883D01*
X92801366Y-89211685D01*
X92945951Y-89133413D01*
X93113897Y-89075466D01*
X93135447Y-89069825D01*
X93195772Y-89056600D01*
X93259484Y-89047372D01*
X93334526Y-89041432D01*
X93428842Y-89038075D01*
X93550375Y-89036591D01*
X93662456Y-89036460D01*
X93751663Y-89038016D01*
X93821124Y-89041977D01*
X93878686Y-89049032D01*
X93932198Y-89059871D01*
X93989508Y-89075184D01*
X94077012Y-89103047D01*
X94220563Y-89165160D01*
X94346756Y-89245522D01*
X94466515Y-89350438D01*
X94534268Y-89423437D01*
X94629458Y-89556519D01*
X94698191Y-89702395D01*
X94742809Y-89866577D01*
X94749622Y-89922648D01*
X94765652Y-90054574D01*
G37*
G36*
X118386298Y-89039693D02*
G01*
X118543944Y-89051485D01*
X118676751Y-89072579D01*
X118789416Y-89104272D01*
X118886636Y-89147863D01*
X118973109Y-89204651D01*
X119053531Y-89275934D01*
X119133693Y-89375695D01*
X119191606Y-89495494D01*
X119220043Y-89622405D01*
X119219640Y-89751232D01*
X119191034Y-89876775D01*
X119134865Y-89993836D01*
X119051770Y-90097217D01*
X118942387Y-90181720D01*
X118909734Y-90200497D01*
X118862809Y-90224016D01*
X118810659Y-90245195D01*
X118748380Y-90265431D01*
X118671066Y-90286125D01*
X118573811Y-90308674D01*
X118451712Y-90334477D01*
X118299862Y-90364933D01*
X118257940Y-90373255D01*
X118136300Y-90398267D01*
X118043238Y-90419512D01*
X117974040Y-90438666D01*
X117923994Y-90457405D01*
X117888388Y-90477404D01*
X117862509Y-90500339D01*
X117841646Y-90527887D01*
X117828285Y-90554192D01*
X117823497Y-90610539D01*
X117847842Y-90664149D01*
X117897241Y-90711686D01*
X117967617Y-90749809D01*
X118054893Y-90775181D01*
X118154991Y-90784462D01*
X118230901Y-90778072D01*
X118335294Y-90742980D01*
X118421324Y-90678378D01*
X118486894Y-90585524D01*
X118521306Y-90518414D01*
X118612710Y-90528385D01*
X118639670Y-90531192D01*
X118706157Y-90537727D01*
X118794252Y-90546104D01*
X118895693Y-90555540D01*
X119002221Y-90565255D01*
X119079829Y-90572480D01*
X119168759Y-90581375D01*
X119240253Y-90589241D01*
X119288437Y-90595423D01*
X119307441Y-90599266D01*
X119310000Y-90608879D01*
X119302728Y-90645145D01*
X119283258Y-90698537D01*
X119255239Y-90760576D01*
X119222317Y-90822781D01*
X119188139Y-90876673D01*
X119109466Y-90969779D01*
X119001751Y-91057156D01*
X118872742Y-91124414D01*
X118718888Y-91173347D01*
X118536641Y-91205748D01*
X118527565Y-91206842D01*
X118420907Y-91215196D01*
X118295739Y-91218580D01*
X118160990Y-91217343D01*
X118025588Y-91211835D01*
X117898463Y-91202404D01*
X117788542Y-91189402D01*
X117704756Y-91173177D01*
X117683769Y-91167508D01*
X117515079Y-91106714D01*
X117373283Y-91026479D01*
X117259491Y-90927968D01*
X117174812Y-90812348D01*
X117120355Y-90680784D01*
X117097230Y-90534443D01*
X117101197Y-90415754D01*
X117133809Y-90281174D01*
X117197092Y-90163700D01*
X117290905Y-90063516D01*
X117415107Y-89980807D01*
X117569558Y-89915756D01*
X117606873Y-89904840D01*
X117687330Y-89885530D01*
X117787502Y-89864843D01*
X117898178Y-89844641D01*
X118010152Y-89826782D01*
X118058938Y-89819573D01*
X118193254Y-89798712D01*
X118297539Y-89780007D01*
X118375529Y-89761955D01*
X118430961Y-89743053D01*
X118467570Y-89721794D01*
X118489094Y-89696677D01*
X118499268Y-89666196D01*
X118501829Y-89628847D01*
X118491306Y-89576813D01*
X118452283Y-89524800D01*
X118389251Y-89487741D01*
X118307289Y-89467489D01*
X118211472Y-89465894D01*
X118106879Y-89484809D01*
X118103209Y-89485885D01*
X118049020Y-89511369D01*
X117992712Y-89551197D01*
X117945797Y-89596034D01*
X117919788Y-89636542D01*
X117910929Y-89643076D01*
X117885461Y-89646690D01*
X117839843Y-89646698D01*
X117770378Y-89642973D01*
X117673368Y-89635392D01*
X117545117Y-89623827D01*
X117510408Y-89620539D01*
X117403749Y-89609976D01*
X117310991Y-89600104D01*
X117237420Y-89591531D01*
X117188321Y-89584862D01*
X117168979Y-89580703D01*
X117168649Y-89580340D01*
X117169906Y-89557319D01*
X117187851Y-89513876D01*
X117218190Y-89457429D01*
X117256626Y-89395400D01*
X117298864Y-89335206D01*
X117340607Y-89284268D01*
X117373850Y-89249504D01*
X117447882Y-89184552D01*
X117527869Y-89133433D01*
X117618614Y-89094735D01*
X117724917Y-89067045D01*
X117851582Y-89048951D01*
X118003412Y-89039041D01*
X118185209Y-89035903D01*
X118199117Y-89035903D01*
X118386298Y-89039693D01*
G37*
G36*
X115444657Y-90175234D02*
G01*
X115434244Y-90289284D01*
X115417649Y-90379989D01*
X115373518Y-90514357D01*
X115288762Y-90681018D01*
X115176875Y-90826205D01*
X115156241Y-90847582D01*
X115025961Y-90955243D01*
X114882676Y-91030452D01*
X114727868Y-91072774D01*
X114563017Y-91081775D01*
X114389607Y-91057020D01*
X114383192Y-91055490D01*
X114256924Y-91015621D01*
X114150806Y-90959326D01*
X114051627Y-90879673D01*
X114010137Y-90842489D01*
X113973870Y-90813323D01*
X113954663Y-90802150D01*
X113953502Y-90802991D01*
X113949572Y-90826339D01*
X113947899Y-90876903D01*
X113948567Y-90948212D01*
X113951658Y-91033796D01*
X113959900Y-91149885D01*
X113977656Y-91266421D01*
X114006079Y-91354870D01*
X114047708Y-91418877D01*
X114105085Y-91462087D01*
X114180752Y-91488142D01*
X114277249Y-91500687D01*
X114355285Y-91499895D01*
X114453399Y-91478093D01*
X114530417Y-91433527D01*
X114582111Y-91368036D01*
X114586556Y-91359219D01*
X114606760Y-91321266D01*
X114618834Y-91301997D01*
X114620706Y-91301095D01*
X114647994Y-91295594D01*
X114702326Y-91287571D01*
X114777506Y-91277719D01*
X114867340Y-91266731D01*
X114965633Y-91255299D01*
X115066190Y-91244117D01*
X115162818Y-91233876D01*
X115249321Y-91225270D01*
X115319505Y-91218992D01*
X115367175Y-91215734D01*
X115386136Y-91216189D01*
X115386170Y-91216223D01*
X115390186Y-91237091D01*
X115392471Y-91283140D01*
X115392531Y-91344464D01*
X115381011Y-91456979D01*
X115338560Y-91593795D01*
X115267340Y-91714354D01*
X115169788Y-91814780D01*
X115048346Y-91891198D01*
X114971270Y-91921980D01*
X114858065Y-91955537D01*
X114729675Y-91984142D01*
X114596843Y-92005083D01*
X114585675Y-92006278D01*
X114516533Y-92009758D01*
X114423277Y-92010338D01*
X114314377Y-92008375D01*
X114198303Y-92004224D01*
X114083526Y-91998243D01*
X113978516Y-91990787D01*
X113891743Y-91982214D01*
X113831677Y-91972880D01*
X113685027Y-91929991D01*
X113529927Y-91854779D01*
X113399112Y-91754709D01*
X113293577Y-91630759D01*
X113214315Y-91483907D01*
X113162323Y-91315129D01*
X113161361Y-91310417D01*
X113156072Y-91276530D01*
X113151571Y-91231137D01*
X113147801Y-91171606D01*
X113144707Y-91095309D01*
X113142231Y-90999615D01*
X113140319Y-90881894D01*
X113138914Y-90739514D01*
X113137959Y-90569847D01*
X113137399Y-90370261D01*
X113137176Y-90138126D01*
X113137160Y-90080959D01*
X113955007Y-90080959D01*
X113958003Y-90161821D01*
X113978120Y-90283402D01*
X114018395Y-90379234D01*
X114080264Y-90452213D01*
X114165160Y-90505236D01*
X114241868Y-90530021D01*
X114342874Y-90534225D01*
X114437935Y-90508247D01*
X114521479Y-90454816D01*
X114587938Y-90376663D01*
X114631741Y-90276518D01*
X114641576Y-90225933D01*
X114648434Y-90134125D01*
X114647129Y-90031863D01*
X114638000Y-89933044D01*
X114621385Y-89851568D01*
X114592525Y-89779880D01*
X114532761Y-89696966D01*
X114456429Y-89639535D01*
X114368986Y-89609190D01*
X114275892Y-89607537D01*
X114182606Y-89636180D01*
X114094586Y-89696723D01*
X114091162Y-89699905D01*
X114027306Y-89773032D01*
X113985172Y-89855843D01*
X113961994Y-89955948D01*
X113955007Y-90080959D01*
X113137160Y-90080959D01*
X113136871Y-89078327D01*
X113515057Y-89078327D01*
X113893242Y-89078327D01*
X113893242Y-89228845D01*
X113893242Y-89379363D01*
X113989248Y-89275665D01*
X114008169Y-89255843D01*
X114130806Y-89153757D01*
X114268744Y-89081941D01*
X114424154Y-89039505D01*
X114599208Y-89025557D01*
X114721869Y-89033253D01*
X114886300Y-89070817D01*
X115033939Y-89138267D01*
X115162863Y-89234075D01*
X115271153Y-89356716D01*
X115356887Y-89504663D01*
X115418144Y-89676388D01*
X115424329Y-89702969D01*
X115438723Y-89801708D01*
X115446904Y-89920578D01*
X115448879Y-90048709D01*
X115446029Y-90134125D01*
X115444657Y-90175234D01*
G37*
G36*
X97467649Y-90175234D02*
G01*
X97457236Y-90289284D01*
X97440640Y-90379989D01*
X97396509Y-90514357D01*
X97311754Y-90681018D01*
X97199867Y-90826205D01*
X97179232Y-90847582D01*
X97048953Y-90955243D01*
X96905668Y-91030452D01*
X96750860Y-91072774D01*
X96586009Y-91081775D01*
X96412598Y-91057020D01*
X96406184Y-91055490D01*
X96279915Y-91015621D01*
X96173798Y-90959326D01*
X96074619Y-90879673D01*
X96033129Y-90842489D01*
X95996862Y-90813323D01*
X95977655Y-90802150D01*
X95976494Y-90802991D01*
X95972564Y-90826339D01*
X95970891Y-90876903D01*
X95971558Y-90948212D01*
X95974650Y-91033796D01*
X95982892Y-91149885D01*
X96000648Y-91266421D01*
X96029070Y-91354870D01*
X96070699Y-91418877D01*
X96128077Y-91462087D01*
X96203743Y-91488142D01*
X96300240Y-91500687D01*
X96378277Y-91499895D01*
X96476390Y-91478093D01*
X96553409Y-91433527D01*
X96605102Y-91368036D01*
X96609548Y-91359219D01*
X96629752Y-91321266D01*
X96641825Y-91301997D01*
X96643697Y-91301095D01*
X96670986Y-91295594D01*
X96725318Y-91287571D01*
X96800498Y-91277719D01*
X96890331Y-91266731D01*
X96988624Y-91255299D01*
X97089182Y-91244117D01*
X97185810Y-91233876D01*
X97272313Y-91225270D01*
X97342497Y-91218992D01*
X97390166Y-91215734D01*
X97409128Y-91216189D01*
X97409161Y-91216223D01*
X97413178Y-91237091D01*
X97415463Y-91283140D01*
X97415523Y-91344464D01*
X97404002Y-91456979D01*
X97361552Y-91593795D01*
X97290331Y-91714354D01*
X97192780Y-91814780D01*
X97071338Y-91891198D01*
X96994262Y-91921980D01*
X96881057Y-91955537D01*
X96752666Y-91984142D01*
X96619835Y-92005083D01*
X96608666Y-92006278D01*
X96539525Y-92009758D01*
X96446269Y-92010338D01*
X96337369Y-92008375D01*
X96221295Y-92004224D01*
X96106518Y-91998243D01*
X96001508Y-91990787D01*
X95914734Y-91982214D01*
X95854669Y-91972880D01*
X95708019Y-91929991D01*
X95552919Y-91854779D01*
X95422104Y-91754709D01*
X95316568Y-91630759D01*
X95237307Y-91483907D01*
X95185315Y-91315129D01*
X95184353Y-91310417D01*
X95179064Y-91276530D01*
X95174562Y-91231137D01*
X95170793Y-91171606D01*
X95167698Y-91095309D01*
X95165223Y-90999615D01*
X95163311Y-90881894D01*
X95161906Y-90739514D01*
X95160951Y-90569847D01*
X95160390Y-90370261D01*
X95160168Y-90138126D01*
X95160152Y-90080959D01*
X95978198Y-90080959D01*
X95981072Y-90161480D01*
X96001051Y-90283136D01*
X96041276Y-90379066D01*
X96103169Y-90452141D01*
X96188152Y-90505236D01*
X96264859Y-90530021D01*
X96365866Y-90534225D01*
X96460926Y-90508247D01*
X96544471Y-90454816D01*
X96610930Y-90376663D01*
X96654733Y-90276518D01*
X96664813Y-90223666D01*
X96671412Y-90132656D01*
X96670242Y-90031780D01*
X96661601Y-89935010D01*
X96645786Y-89856315D01*
X96643004Y-89847282D01*
X96595548Y-89746486D01*
X96528921Y-89671369D01*
X96448312Y-89623167D01*
X96358912Y-89603113D01*
X96265910Y-89612439D01*
X96174496Y-89652380D01*
X96089860Y-89724170D01*
X96083713Y-89731080D01*
X96033204Y-89800072D01*
X96000713Y-89875210D01*
X95983344Y-89965753D01*
X95978198Y-90080959D01*
X95160152Y-90080959D01*
X95159863Y-89078327D01*
X95538048Y-89078327D01*
X95916234Y-89078327D01*
X95916234Y-89228845D01*
X95916234Y-89379363D01*
X96012240Y-89275665D01*
X96031161Y-89255843D01*
X96153798Y-89153757D01*
X96291735Y-89081941D01*
X96447145Y-89039505D01*
X96622200Y-89025557D01*
X96744861Y-89033253D01*
X96909292Y-89070817D01*
X97056930Y-89138267D01*
X97185855Y-89234075D01*
X97294145Y-89356716D01*
X97379879Y-89504663D01*
X97441135Y-89676388D01*
X97447321Y-89702969D01*
X97461715Y-89801708D01*
X97469896Y-89920578D01*
X97471871Y-90048709D01*
X97469070Y-90132656D01*
X97467649Y-90175234D01*
G37*
G36*
X110048106Y-90608659D02*
G01*
X110041481Y-90726373D01*
X110017146Y-90825475D01*
X109970807Y-90914482D01*
X109898182Y-91004702D01*
X109820169Y-91075406D01*
X109693307Y-91149617D01*
X109541438Y-91199391D01*
X109491656Y-91208413D01*
X109377138Y-91217316D01*
X109231885Y-91216039D01*
X109084430Y-91205477D01*
X108934972Y-91180374D01*
X108804380Y-91139142D01*
X108684853Y-91079217D01*
X108568592Y-90998036D01*
X108479057Y-90927263D01*
X108467361Y-90989608D01*
X108467245Y-90990222D01*
X108450594Y-91051599D01*
X108427151Y-91111747D01*
X108398638Y-91171540D01*
X108023710Y-91171540D01*
X107982252Y-91171513D01*
X107875810Y-91171182D01*
X107784150Y-91170519D01*
X107712372Y-91169585D01*
X107665575Y-91168440D01*
X107648859Y-91167143D01*
X107649005Y-91166396D01*
X107656026Y-91144583D01*
X107671485Y-91099479D01*
X107692463Y-91039615D01*
X107702878Y-91009576D01*
X107712609Y-90977917D01*
X107720229Y-90945159D01*
X107726002Y-90907041D01*
X107730193Y-90859304D01*
X107733066Y-90797686D01*
X107734886Y-90717929D01*
X107735916Y-90615773D01*
X107736422Y-90486956D01*
X107736667Y-90327219D01*
X107737078Y-90181490D01*
X107737149Y-90173713D01*
X108528284Y-90173713D01*
X108528284Y-90286652D01*
X108531466Y-90367129D01*
X108553402Y-90488111D01*
X108597914Y-90585705D01*
X108667032Y-90663716D01*
X108762789Y-90725951D01*
X108845983Y-90759416D01*
X108950834Y-90779522D01*
X109050118Y-90775990D01*
X109136634Y-90749249D01*
X109203183Y-90699727D01*
X109225217Y-90665196D01*
X109243271Y-90596063D01*
X109240465Y-90521381D01*
X109216037Y-90455601D01*
X109199817Y-90432415D01*
X109173085Y-90404687D01*
X109136627Y-90379364D01*
X109085592Y-90354141D01*
X109015130Y-90326709D01*
X108920393Y-90294761D01*
X108796532Y-90255989D01*
X108528284Y-90173713D01*
X107737149Y-90173713D01*
X107738548Y-90021116D01*
X107741517Y-89888594D01*
X107746459Y-89779796D01*
X107753851Y-89690593D01*
X107764168Y-89616855D01*
X107777887Y-89554453D01*
X107795482Y-89499259D01*
X107817431Y-89447145D01*
X107844208Y-89393980D01*
X107884325Y-89327828D01*
X107963006Y-89236900D01*
X108061776Y-89164945D01*
X108185192Y-89108934D01*
X108337814Y-89065836D01*
X108341024Y-89065134D01*
X108421281Y-89052872D01*
X108528089Y-89043735D01*
X108653751Y-89037715D01*
X108790566Y-89034806D01*
X108930833Y-89035002D01*
X109066854Y-89038297D01*
X109190929Y-89044683D01*
X109295358Y-89054155D01*
X109372441Y-89066706D01*
X109373457Y-89066941D01*
X109543730Y-89118025D01*
X109683824Y-89185520D01*
X109795088Y-89270244D01*
X109878872Y-89373012D01*
X109896221Y-89402962D01*
X109925382Y-89462223D01*
X109952044Y-89525607D01*
X109972869Y-89584233D01*
X109984516Y-89629218D01*
X109983646Y-89651682D01*
X109981114Y-89652623D01*
X109952636Y-89657757D01*
X109897689Y-89665691D01*
X109822410Y-89675693D01*
X109732935Y-89687031D01*
X109635399Y-89698973D01*
X109535938Y-89710786D01*
X109440686Y-89721738D01*
X109355781Y-89731097D01*
X109287357Y-89738130D01*
X109241549Y-89742105D01*
X109224495Y-89742290D01*
X109222426Y-89737891D01*
X109208391Y-89710559D01*
X109185796Y-89667593D01*
X109158959Y-89626164D01*
X109090566Y-89565307D01*
X108996842Y-89525591D01*
X108875606Y-89505880D01*
X108862703Y-89504989D01*
X108743198Y-89505274D01*
X108652598Y-89523852D01*
X108589328Y-89561622D01*
X108551816Y-89619482D01*
X108538488Y-89698331D01*
X108537079Y-89770098D01*
X108682272Y-89819422D01*
X108738856Y-89836775D01*
X108827153Y-89860722D01*
X108933550Y-89887391D01*
X109049385Y-89914619D01*
X109165998Y-89940243D01*
X109166952Y-89940445D01*
X109335289Y-89977058D01*
X109473213Y-90009819D01*
X109585041Y-90040340D01*
X109675090Y-90070233D01*
X109747677Y-90101109D01*
X109807119Y-90134582D01*
X109857733Y-90172262D01*
X109903835Y-90215762D01*
X109951507Y-90271400D01*
X110006718Y-90366897D01*
X110037947Y-90476675D01*
X110047136Y-90596063D01*
X110048106Y-90608659D01*
G37*
G36*
X107947813Y-81162815D02*
G01*
X108594446Y-81162815D01*
X109241080Y-81162815D01*
X109529353Y-80874143D01*
X109817627Y-80585472D01*
X109807202Y-80497451D01*
X109805640Y-80482022D01*
X109810790Y-80373147D01*
X109843812Y-80278448D01*
X109902267Y-80202716D01*
X109983714Y-80150744D01*
X109990806Y-80147868D01*
X110086769Y-80125752D01*
X110175805Y-80133552D01*
X110254531Y-80166503D01*
X110319563Y-80219837D01*
X110367516Y-80288791D01*
X110395005Y-80368597D01*
X110398646Y-80454491D01*
X110375055Y-80541705D01*
X110320847Y-80625476D01*
X110297048Y-80650036D01*
X110227155Y-80696532D01*
X110142312Y-80717540D01*
X110036034Y-80715103D01*
X109929598Y-80703061D01*
X109703872Y-80928286D01*
X109636517Y-80996107D01*
X109573161Y-81061208D01*
X109523011Y-81114171D01*
X109490021Y-81150815D01*
X109478145Y-81166958D01*
X109490210Y-81170689D01*
X109532257Y-81174568D01*
X109599053Y-81177645D01*
X109684956Y-81179673D01*
X109784321Y-81180405D01*
X110090496Y-81180405D01*
X110154710Y-81091024D01*
X110176113Y-81063389D01*
X110254977Y-80990675D01*
X110341677Y-80948904D01*
X110431844Y-80938799D01*
X110521111Y-80961082D01*
X110605109Y-81016478D01*
X110662710Y-81085775D01*
X110697285Y-81172157D01*
X110701998Y-81262786D01*
X110677624Y-81351493D01*
X110624934Y-81432106D01*
X110544702Y-81498457D01*
X110475823Y-81526053D01*
X110388270Y-81530588D01*
X110300342Y-81507649D01*
X110220053Y-81459505D01*
X110155421Y-81388419D01*
X110110887Y-81321125D01*
X109029350Y-81321125D01*
X107947813Y-81321125D01*
X107947813Y-81637745D01*
X107947813Y-81931035D01*
X107947813Y-81954366D01*
X109037943Y-81954366D01*
X110128073Y-81954366D01*
X110154011Y-81904207D01*
X110187804Y-81851126D01*
X110255536Y-81786131D01*
X110334652Y-81745673D01*
X110419326Y-81729012D01*
X110503735Y-81735405D01*
X110582054Y-81764108D01*
X110648458Y-81814379D01*
X110697125Y-81885476D01*
X110722229Y-81976656D01*
X110724660Y-82026088D01*
X110707528Y-82125501D01*
X110661422Y-82207896D01*
X110588876Y-82269631D01*
X110492420Y-82307067D01*
X110465663Y-82312761D01*
X110414115Y-82319168D01*
X110371182Y-82312987D01*
X110318990Y-82292741D01*
X110295586Y-82281091D01*
X110242520Y-82245879D01*
X110206086Y-82209775D01*
X110191128Y-82186852D01*
X110178480Y-82166663D01*
X110165909Y-82149640D01*
X110150703Y-82135528D01*
X110130149Y-82124072D01*
X110101536Y-82115015D01*
X110062152Y-82108103D01*
X110009284Y-82103080D01*
X109940220Y-82099690D01*
X109852250Y-82097679D01*
X109742659Y-82096790D01*
X109608737Y-82096767D01*
X109447772Y-82097357D01*
X109257051Y-82098302D01*
X109033862Y-82099348D01*
X107956608Y-82103881D01*
X107955050Y-82205154D01*
X107951804Y-82416104D01*
X107948361Y-82639905D01*
X107947001Y-82728327D01*
X109036826Y-82728327D01*
X110126651Y-82728327D01*
X110176186Y-82655347D01*
X110194664Y-82630529D01*
X110267508Y-82564723D01*
X110350895Y-82527219D01*
X110438614Y-82517115D01*
X110524458Y-82533511D01*
X110602215Y-82575504D01*
X110665678Y-82642193D01*
X110708637Y-82732675D01*
X110708886Y-82733511D01*
X110717090Y-82814737D01*
X110700657Y-82903643D01*
X110662218Y-82985880D01*
X110639629Y-83014895D01*
X110571539Y-83066484D01*
X110489481Y-83094121D01*
X110401509Y-83098065D01*
X110315675Y-83078577D01*
X110240031Y-83035919D01*
X110182629Y-82970351D01*
X110165988Y-82942323D01*
X110146848Y-82914331D01*
X110125454Y-82894556D01*
X110096317Y-82881572D01*
X110053952Y-82873955D01*
X109992870Y-82870278D01*
X109907584Y-82869117D01*
X109792606Y-82869047D01*
X109727328Y-82869298D01*
X109621308Y-82871143D01*
X109543349Y-82874672D01*
X109495817Y-82879755D01*
X109481077Y-82886262D01*
X109492544Y-82901624D01*
X109524772Y-82938787D01*
X109573706Y-82992957D01*
X109635372Y-83059738D01*
X109705793Y-83134734D01*
X109924646Y-83365993D01*
X110040003Y-83355529D01*
X110065694Y-83353690D01*
X110175772Y-83360319D01*
X110264082Y-83393644D01*
X110332997Y-83454971D01*
X110384893Y-83545611D01*
X110392081Y-83564935D01*
X110404762Y-83654128D01*
X110387938Y-83741115D01*
X110345913Y-83819647D01*
X110282994Y-83883477D01*
X110203486Y-83926357D01*
X110111695Y-83942039D01*
X110047680Y-83936190D01*
X109955231Y-83903154D01*
X109882005Y-83845092D01*
X109831737Y-83766716D01*
X109808164Y-83672739D01*
X109815023Y-83567873D01*
X109833832Y-83480171D01*
X109537450Y-83183404D01*
X109241068Y-82886637D01*
X108594440Y-82886637D01*
X107947813Y-82886637D01*
X107947813Y-83184928D01*
X107947813Y-83483218D01*
X108475406Y-83488356D01*
X109003000Y-83493493D01*
X109441234Y-83931489D01*
X109879468Y-84369485D01*
X109972713Y-84358441D01*
X110042560Y-84355711D01*
X110145493Y-84374130D01*
X110232536Y-84418137D01*
X110298698Y-84484831D01*
X110338988Y-84571312D01*
X110349155Y-84649874D01*
X110333272Y-84741441D01*
X110290124Y-84822164D01*
X110224075Y-84886583D01*
X110139486Y-84929239D01*
X110040718Y-84944671D01*
X109994850Y-84940936D01*
X109907365Y-84910600D01*
X109835446Y-84854099D01*
X109783195Y-84776653D01*
X109754714Y-84683483D01*
X109754103Y-84579811D01*
X109764819Y-84501625D01*
X109335779Y-84072317D01*
X108906739Y-83643008D01*
X108351639Y-83643008D01*
X108245472Y-83643153D01*
X108097406Y-83644062D01*
X107980531Y-83645884D01*
X107892372Y-83648710D01*
X107830454Y-83652630D01*
X107792298Y-83657735D01*
X107775431Y-83664117D01*
X107770415Y-83672594D01*
X107761444Y-83716216D01*
X107756095Y-83793803D01*
X107754322Y-83905875D01*
X107754322Y-84126525D01*
X108295109Y-84667523D01*
X108835896Y-85208521D01*
X108928915Y-85208521D01*
X108943185Y-85208727D01*
X109052500Y-85226392D01*
X109141414Y-85271488D01*
X109207841Y-85342519D01*
X109249690Y-85437991D01*
X109257433Y-85479852D01*
X109251348Y-85570090D01*
X109217642Y-85652927D01*
X109161511Y-85722822D01*
X109088151Y-85774239D01*
X109002760Y-85801637D01*
X108910532Y-85799479D01*
X108866543Y-85787365D01*
X108781740Y-85740609D01*
X108718564Y-85671363D01*
X108680032Y-85585271D01*
X108669165Y-85487980D01*
X108688980Y-85385137D01*
X108708956Y-85327833D01*
X108152484Y-84771157D01*
X107596012Y-84214481D01*
X107596012Y-83963925D01*
X107596012Y-83713369D01*
X107323367Y-83713369D01*
X107050721Y-83713369D01*
X107050721Y-84538915D01*
X107050735Y-84689173D01*
X107050862Y-84855830D01*
X107051232Y-84992623D01*
X107051976Y-85102560D01*
X107053225Y-85188647D01*
X107055109Y-85253891D01*
X107057758Y-85301297D01*
X107061304Y-85333872D01*
X107065876Y-85354622D01*
X107071605Y-85366555D01*
X107078622Y-85372677D01*
X107087057Y-85375993D01*
X107113350Y-85387142D01*
X107175321Y-85432965D01*
X107228130Y-85496521D01*
X107260913Y-85565944D01*
X107265732Y-85585563D01*
X107269411Y-85683658D01*
X107239076Y-85776801D01*
X107175690Y-85861653D01*
X107175403Y-85861939D01*
X107096709Y-85918340D01*
X107009453Y-85944149D01*
X106919963Y-85940631D01*
X106834565Y-85909052D01*
X106759586Y-85850677D01*
X106701352Y-85766772D01*
X106682745Y-85722162D01*
X106667650Y-85628570D01*
X106686656Y-85540999D01*
X106739126Y-85461400D01*
X106824418Y-85391722D01*
X106892762Y-85348578D01*
X106888189Y-84535371D01*
X106883616Y-83722164D01*
X106562598Y-83717369D01*
X106241580Y-83712575D01*
X106241580Y-84819958D01*
X106241585Y-84950208D01*
X106241650Y-85156209D01*
X106241858Y-85331066D01*
X106242289Y-85477366D01*
X106243026Y-85597694D01*
X106244150Y-85694636D01*
X106245742Y-85770777D01*
X106247885Y-85828704D01*
X106250658Y-85871000D01*
X106254145Y-85900253D01*
X106258427Y-85919047D01*
X106263585Y-85929969D01*
X106269700Y-85935604D01*
X106276855Y-85938537D01*
X106298549Y-85947805D01*
X106353720Y-85985446D01*
X106406800Y-86036575D01*
X106444497Y-86089244D01*
X106459053Y-86124620D01*
X106470379Y-86211268D01*
X106454410Y-86300159D01*
X106414550Y-86383013D01*
X106354199Y-86451550D01*
X106276760Y-86497491D01*
X106240476Y-86505625D01*
X106172532Y-86508255D01*
X106100366Y-86501316D01*
X106041049Y-86485664D01*
X105996052Y-86460336D01*
X105935153Y-86398754D01*
X105893426Y-86320208D01*
X105873621Y-86233463D01*
X105878488Y-86147283D01*
X105910775Y-86070432D01*
X105917655Y-86060868D01*
X105964786Y-86009333D01*
X106017872Y-85966343D01*
X106083270Y-85923818D01*
X106083270Y-84818593D01*
X106083270Y-83713369D01*
X105766649Y-83713369D01*
X105450029Y-83713369D01*
X105450076Y-84535702D01*
X105450124Y-85358036D01*
X105515494Y-85393216D01*
X105574493Y-85435440D01*
X105630494Y-85509196D01*
X105659028Y-85596952D01*
X105658253Y-85692146D01*
X105626327Y-85788211D01*
X105614471Y-85809787D01*
X105554394Y-85882338D01*
X105476953Y-85924681D01*
X105379669Y-85938324D01*
X105287986Y-85929056D01*
X105196491Y-85893916D01*
X105129015Y-85833983D01*
X105087127Y-85750752D01*
X105072394Y-85645713D01*
X105076970Y-85578544D01*
X105099140Y-85511978D01*
X105144559Y-85454315D01*
X105218567Y-85396451D01*
X105291719Y-85346916D01*
X105291719Y-84529696D01*
X105291719Y-83712475D01*
X105014676Y-83717319D01*
X104737633Y-83722164D01*
X104732850Y-83968424D01*
X104728068Y-84214684D01*
X104189207Y-84754036D01*
X103650345Y-85293388D01*
X103680272Y-85400048D01*
X103691047Y-85445079D01*
X103697188Y-85542688D01*
X103673641Y-85628373D01*
X103619047Y-85708994D01*
X103549360Y-85766997D01*
X103467975Y-85798199D01*
X103383092Y-85802278D01*
X103300549Y-85781637D01*
X103226185Y-85738676D01*
X103165839Y-85675796D01*
X103125349Y-85595399D01*
X103110555Y-85499885D01*
X103120911Y-85413621D01*
X103158734Y-85334942D01*
X103227876Y-85266598D01*
X103246439Y-85253105D01*
X103288757Y-85230313D01*
X103337986Y-85218746D01*
X103408193Y-85214327D01*
X103523921Y-85211337D01*
X104056019Y-84686140D01*
X104588117Y-84160943D01*
X104588117Y-83923084D01*
X104587444Y-83842840D01*
X104583850Y-83750583D01*
X104577071Y-83691403D01*
X104567009Y-83664117D01*
X104559282Y-83660121D01*
X104529902Y-83654513D01*
X104477735Y-83650129D01*
X104400306Y-83646878D01*
X104295136Y-83644667D01*
X104159748Y-83643408D01*
X103991666Y-83643008D01*
X103437430Y-83643008D01*
X103010623Y-84069567D01*
X102583816Y-84496125D01*
X102601091Y-84571228D01*
X102609342Y-84638953D01*
X102596222Y-84733724D01*
X102556765Y-84817373D01*
X102495218Y-84884202D01*
X102415826Y-84928511D01*
X102322836Y-84944605D01*
X102248192Y-84937425D01*
X102156848Y-84901478D01*
X102077734Y-84833332D01*
X102051184Y-84798558D01*
X102014032Y-84715488D01*
X102006082Y-84630548D01*
X102024024Y-84548775D01*
X102064546Y-84475210D01*
X102124339Y-84414890D01*
X102200091Y-84372855D01*
X102288492Y-84354142D01*
X102386233Y-84363791D01*
X102465639Y-84383786D01*
X102916403Y-83934242D01*
X103367167Y-83484698D01*
X103880897Y-83484698D01*
X104394627Y-83484698D01*
X104394627Y-83185668D01*
X104394627Y-82886637D01*
X103756989Y-82887507D01*
X103119350Y-82888376D01*
X102829940Y-83167210D01*
X102540529Y-83446043D01*
X102563062Y-83559402D01*
X102571681Y-83606165D01*
X102576858Y-83657715D01*
X102572117Y-83698138D01*
X102557000Y-83741198D01*
X102537881Y-83781337D01*
X102475444Y-83864475D01*
X102394326Y-83917921D01*
X102311063Y-83939916D01*
X102214465Y-83935397D01*
X102124831Y-83900818D01*
X102050397Y-83838091D01*
X102046837Y-83833793D01*
X101996395Y-83748526D01*
X101976967Y-83660349D01*
X101985523Y-83574311D01*
X102019031Y-83495456D01*
X102074459Y-83428832D01*
X102148775Y-83379485D01*
X102238948Y-83352461D01*
X102341945Y-83352807D01*
X102415749Y-83363505D01*
X102652970Y-83125071D01*
X102890191Y-82886637D01*
X102565020Y-82887193D01*
X102239849Y-82887749D01*
X102194208Y-82963048D01*
X102188934Y-82971471D01*
X102124566Y-83042097D01*
X102040844Y-83083935D01*
X101936364Y-83097718D01*
X101914723Y-83097038D01*
X101823028Y-83075381D01*
X101748027Y-83022941D01*
X101689010Y-82939265D01*
X101677403Y-82914493D01*
X101653477Y-82817191D01*
X101663373Y-82723213D01*
X101706055Y-82636829D01*
X101780487Y-82562309D01*
X101815873Y-82542033D01*
X101866977Y-82529591D01*
X101940818Y-82526042D01*
X102004031Y-82529355D01*
X102078269Y-82549232D01*
X102138203Y-82592112D01*
X102194423Y-82663743D01*
X102236948Y-82728327D01*
X103316193Y-82728327D01*
X104395439Y-82728327D01*
X104395033Y-82701942D01*
X105063048Y-82701942D01*
X105063939Y-82797504D01*
X105067648Y-82887307D01*
X105074349Y-82944674D01*
X105084156Y-82971069D01*
X105103659Y-82979354D01*
X105155178Y-82986557D01*
X105238717Y-82990792D01*
X105355804Y-82992177D01*
X105409805Y-82992212D01*
X105505667Y-82990936D01*
X105573434Y-82984091D01*
X105617971Y-82967143D01*
X105644141Y-82935559D01*
X105656811Y-82884805D01*
X105660846Y-82810347D01*
X105661109Y-82707651D01*
X105660216Y-82641750D01*
X105656170Y-82558120D01*
X105649447Y-82493720D01*
X105640696Y-82456509D01*
X105620282Y-82411707D01*
X105362773Y-82411707D01*
X105253394Y-82412803D01*
X105165663Y-82416597D01*
X105109810Y-82423225D01*
X105084156Y-82432815D01*
X105076099Y-82451336D01*
X105068772Y-82502246D01*
X105064460Y-82585292D01*
X105063048Y-82701942D01*
X104395033Y-82701942D01*
X104390636Y-82416104D01*
X104387305Y-82199641D01*
X105065775Y-82199641D01*
X105066983Y-82228060D01*
X105091125Y-82265603D01*
X105116702Y-82275519D01*
X105168843Y-82282957D01*
X105249549Y-82287218D01*
X105362079Y-82288576D01*
X105392538Y-82288511D01*
X105497699Y-82286532D01*
X105572815Y-82280810D01*
X105621968Y-82270028D01*
X105649238Y-82252867D01*
X105658710Y-82228009D01*
X105654464Y-82194134D01*
X105642631Y-82146989D01*
X105357237Y-82151820D01*
X105071843Y-82156651D01*
X105065775Y-82199641D01*
X104387305Y-82199641D01*
X104385832Y-82103881D01*
X103348021Y-82099021D01*
X103179699Y-82098353D01*
X102999490Y-82097915D01*
X102831965Y-82097796D01*
X102680340Y-82097986D01*
X102547828Y-82098470D01*
X102437641Y-82099238D01*
X102352993Y-82100276D01*
X102297098Y-82101573D01*
X102273168Y-82103117D01*
X102260406Y-82108751D01*
X102225001Y-82138348D01*
X102189691Y-82182244D01*
X102158415Y-82221846D01*
X102081832Y-82280267D01*
X101991895Y-82310292D01*
X101895639Y-82310190D01*
X101800098Y-82278226D01*
X101766938Y-82258267D01*
X101700646Y-82192325D01*
X101663293Y-82106743D01*
X101655392Y-82002502D01*
X101657550Y-81976931D01*
X101677651Y-81892098D01*
X101720779Y-81824492D01*
X101792920Y-81763716D01*
X101801007Y-81758290D01*
X101843001Y-81736518D01*
X101888998Y-81728053D01*
X101954247Y-81729676D01*
X102008108Y-81736205D01*
X102081289Y-81760491D01*
X102142440Y-81806836D01*
X102201525Y-81881350D01*
X102251151Y-81954637D01*
X103318492Y-81950104D01*
X104385832Y-81945571D01*
X104386330Y-81913218D01*
X105013936Y-81913218D01*
X105015144Y-81935662D01*
X105037920Y-81961904D01*
X105076628Y-81984806D01*
X105120270Y-81984467D01*
X105154647Y-81961377D01*
X105168588Y-81919186D01*
X105166704Y-81907208D01*
X105256539Y-81907208D01*
X105258288Y-81919186D01*
X105260552Y-81934688D01*
X105277647Y-81968438D01*
X105291592Y-81978833D01*
X105332690Y-81987112D01*
X105374386Y-81975236D01*
X105404879Y-81948229D01*
X105411939Y-81913218D01*
X105488867Y-81913218D01*
X105490075Y-81935662D01*
X105512850Y-81961904D01*
X105555239Y-81986414D01*
X105598172Y-81984894D01*
X105632581Y-81962793D01*
X105649641Y-81925801D01*
X105644863Y-81901596D01*
X105775444Y-81901596D01*
X105775478Y-81925801D01*
X105775599Y-82011765D01*
X105776570Y-82166326D01*
X105777540Y-82228009D01*
X105778520Y-82290298D01*
X105781551Y-82386530D01*
X105785765Y-82457870D01*
X105791264Y-82507169D01*
X105798149Y-82537275D01*
X105816274Y-82576416D01*
X105871015Y-82650804D01*
X105933417Y-82707651D01*
X105943701Y-82717020D01*
X106023707Y-82764366D01*
X106099884Y-82797019D01*
X106104769Y-83048511D01*
X106109655Y-83300003D01*
X106153753Y-83305156D01*
X106162723Y-83306052D01*
X106192987Y-83304560D01*
X106214429Y-83291330D01*
X106228528Y-83261679D01*
X106236766Y-83210924D01*
X106240623Y-83134383D01*
X106241580Y-83027373D01*
X106241580Y-82788164D01*
X106304309Y-82765481D01*
X106316694Y-82760644D01*
X106399795Y-82711229D01*
X106410858Y-82700686D01*
X106681331Y-82700686D01*
X106681945Y-82793025D01*
X106684410Y-82866427D01*
X106689335Y-82915644D01*
X106697321Y-82946430D01*
X106708972Y-82964536D01*
X106710411Y-82965914D01*
X106728924Y-82976852D01*
X106760239Y-82984390D01*
X106809946Y-82989087D01*
X106883635Y-82991498D01*
X106986895Y-82992177D01*
X107085789Y-82991238D01*
X107175081Y-82987507D01*
X107232072Y-82980823D01*
X107258284Y-82971069D01*
X107266568Y-82951567D01*
X107273771Y-82900048D01*
X107278006Y-82816508D01*
X107279392Y-82699421D01*
X107279454Y-82639905D01*
X107278129Y-82545536D01*
X107270854Y-82479019D01*
X107252807Y-82435494D01*
X107219165Y-82410101D01*
X107165106Y-82397981D01*
X107085808Y-82394273D01*
X106976447Y-82394117D01*
X106927598Y-82394098D01*
X106834201Y-82395545D01*
X106768004Y-82403012D01*
X106724330Y-82421357D01*
X106698503Y-82455439D01*
X106685845Y-82510115D01*
X106681680Y-82590245D01*
X106681331Y-82700686D01*
X106410858Y-82700686D01*
X106473668Y-82640830D01*
X106525396Y-82561373D01*
X106532778Y-82543336D01*
X106540173Y-82518054D01*
X106545950Y-82485501D01*
X106550309Y-82441690D01*
X106553449Y-82382634D01*
X106555569Y-82304346D01*
X106556734Y-82213545D01*
X106682677Y-82213545D01*
X106699219Y-82242618D01*
X106703739Y-82246163D01*
X106731831Y-82256669D01*
X106782184Y-82264510D01*
X106859100Y-82270193D01*
X106966878Y-82274227D01*
X107026646Y-82275673D01*
X107124523Y-82276482D01*
X107193938Y-82273594D01*
X107239351Y-82266013D01*
X107265221Y-82252744D01*
X107276009Y-82232789D01*
X107276175Y-82205154D01*
X107270597Y-82156651D01*
X106991073Y-82156651D01*
X106885815Y-82157036D01*
X106808687Y-82158570D01*
X106756121Y-82161799D01*
X106722772Y-82167268D01*
X106703293Y-82175521D01*
X106692341Y-82187104D01*
X106682677Y-82213545D01*
X106556734Y-82213545D01*
X106556871Y-82202840D01*
X106557552Y-82074128D01*
X106557814Y-81914223D01*
X106557816Y-81910933D01*
X106557816Y-81910391D01*
X106698921Y-81910391D01*
X106699069Y-81910933D01*
X106704134Y-81929515D01*
X106726562Y-81961904D01*
X106747173Y-81978012D01*
X106778076Y-81989546D01*
X106811385Y-81976500D01*
X106843233Y-81945050D01*
X106857231Y-81910391D01*
X106953976Y-81910391D01*
X106955630Y-81937384D01*
X106969924Y-81960027D01*
X107008245Y-81968457D01*
X107047139Y-81966616D01*
X107086380Y-81944995D01*
X107097806Y-81925785D01*
X107096699Y-81908406D01*
X107177513Y-81908406D01*
X107183700Y-81925785D01*
X107190218Y-81944096D01*
X107211097Y-81959216D01*
X107253583Y-81970543D01*
X107296592Y-81968966D01*
X107323985Y-81953366D01*
X107328767Y-81931035D01*
X107324419Y-81890732D01*
X107318327Y-81871886D01*
X107298827Y-81853089D01*
X107258575Y-81852154D01*
X107237036Y-81855835D01*
X107194808Y-81876714D01*
X107177513Y-81908406D01*
X107096699Y-81908406D01*
X107095649Y-81891924D01*
X107065920Y-81867198D01*
X107013624Y-81857621D01*
X106975598Y-81860145D01*
X106957582Y-81874546D01*
X106953976Y-81910391D01*
X106857231Y-81910391D01*
X106844185Y-81877082D01*
X106812735Y-81845233D01*
X106778076Y-81831236D01*
X106744767Y-81844282D01*
X106712918Y-81875731D01*
X106698921Y-81910391D01*
X106557816Y-81910391D01*
X106557680Y-81748103D01*
X106557075Y-81640644D01*
X106681331Y-81640644D01*
X106687830Y-81662317D01*
X106715354Y-81689897D01*
X106719755Y-81691651D01*
X106756966Y-81698112D01*
X106819963Y-81703336D01*
X106901236Y-81706831D01*
X106993277Y-81708105D01*
X106994208Y-81708105D01*
X107101417Y-81707128D01*
X107178333Y-81703431D01*
X107229771Y-81695829D01*
X107260549Y-81683136D01*
X107275484Y-81664170D01*
X107279392Y-81637745D01*
X107279271Y-81631969D01*
X107273884Y-81607587D01*
X107257045Y-81590140D01*
X107224013Y-81578512D01*
X107170049Y-81571587D01*
X107090412Y-81568250D01*
X106980361Y-81567385D01*
X106947399Y-81567436D01*
X106846219Y-81568820D01*
X106774136Y-81572973D01*
X106726377Y-81581062D01*
X106698170Y-81594258D01*
X106684745Y-81613729D01*
X106681331Y-81640644D01*
X106557075Y-81640644D01*
X106556940Y-81616581D01*
X106555435Y-81512569D01*
X106553008Y-81432268D01*
X106549499Y-81371878D01*
X106544748Y-81327601D01*
X106538595Y-81295637D01*
X106530882Y-81272187D01*
X106506916Y-81224587D01*
X106440170Y-81145225D01*
X106681331Y-81145225D01*
X106681488Y-81189011D01*
X106683477Y-81277088D01*
X106688254Y-81338456D01*
X106696455Y-81379139D01*
X106708713Y-81405161D01*
X106709870Y-81406800D01*
X106722792Y-81421936D01*
X106740306Y-81432334D01*
X106768530Y-81438878D01*
X106813581Y-81442456D01*
X106881576Y-81443953D01*
X106978632Y-81444255D01*
X107038015Y-81444341D01*
X107131211Y-81443166D01*
X107196737Y-81436129D01*
X107239451Y-81418348D01*
X107264215Y-81384943D01*
X107275886Y-81331032D01*
X107279325Y-81251734D01*
X107279392Y-81142168D01*
X107279475Y-81082446D01*
X107278228Y-80991311D01*
X107271039Y-80927209D01*
X107253039Y-80885397D01*
X107219361Y-80861132D01*
X107165137Y-80849671D01*
X107085498Y-80846273D01*
X106975576Y-80846194D01*
X106930494Y-80846157D01*
X106835374Y-80847284D01*
X106768155Y-80854086D01*
X106724002Y-80871477D01*
X106698079Y-80904371D01*
X106685551Y-80957685D01*
X106681580Y-81036331D01*
X106681331Y-81145225D01*
X106440170Y-81145225D01*
X106437041Y-81141505D01*
X106341435Y-81082294D01*
X106319983Y-81072847D01*
X106279321Y-81054139D01*
X106259170Y-81043634D01*
X106259024Y-81043495D01*
X106254926Y-81023067D01*
X106250280Y-80974791D01*
X106245644Y-80905698D01*
X106241580Y-80822818D01*
X106232785Y-80608729D01*
X106171220Y-80608729D01*
X106109655Y-80608729D01*
X106098777Y-80811014D01*
X106094657Y-80885614D01*
X106090576Y-80955357D01*
X106087397Y-81005145D01*
X106085584Y-81027389D01*
X106084629Y-81029681D01*
X106063409Y-81046536D01*
X106023828Y-81066316D01*
X105972977Y-81092180D01*
X105882301Y-81164720D01*
X105860956Y-81193783D01*
X105814251Y-81257375D01*
X105807805Y-81269714D01*
X105798422Y-81290603D01*
X105791053Y-81314413D01*
X105785454Y-81345177D01*
X105781384Y-81386927D01*
X105778598Y-81443694D01*
X105776854Y-81519513D01*
X105775909Y-81618415D01*
X105775854Y-81636381D01*
X105775520Y-81744431D01*
X105775444Y-81901596D01*
X105644863Y-81901596D01*
X105640523Y-81879608D01*
X105619840Y-81859131D01*
X105578050Y-81848654D01*
X105534062Y-81856683D01*
X105503418Y-81882849D01*
X105489876Y-81911113D01*
X105488867Y-81913218D01*
X105411939Y-81913218D01*
X105412364Y-81911113D01*
X105409170Y-81899976D01*
X105383382Y-81867777D01*
X105344290Y-81852127D01*
X105302829Y-81853299D01*
X105269934Y-81871568D01*
X105256539Y-81907208D01*
X105166704Y-81907208D01*
X105165470Y-81899360D01*
X105140660Y-81866054D01*
X105101300Y-81850058D01*
X105059780Y-81854586D01*
X105028487Y-81882849D01*
X105013936Y-81913218D01*
X104386330Y-81913218D01*
X104390636Y-81633348D01*
X104390677Y-81630665D01*
X105063841Y-81630665D01*
X105073825Y-81668528D01*
X105081197Y-81677346D01*
X105098769Y-81687083D01*
X105129489Y-81693935D01*
X105178865Y-81698599D01*
X105252406Y-81701770D01*
X105355618Y-81704145D01*
X105399407Y-81704864D01*
X105499051Y-81705180D01*
X105569986Y-81702202D01*
X105616937Y-81694880D01*
X105644626Y-81682168D01*
X105657775Y-81663018D01*
X105661109Y-81636381D01*
X105660961Y-81630343D01*
X105655042Y-81606219D01*
X105637105Y-81589109D01*
X105602531Y-81578037D01*
X105546700Y-81572028D01*
X105464993Y-81570108D01*
X105352791Y-81571301D01*
X105282038Y-81572823D01*
X105199438Y-81575685D01*
X105142855Y-81579822D01*
X105106751Y-81585942D01*
X105085587Y-81594753D01*
X105073823Y-81606963D01*
X105063841Y-81630665D01*
X104390677Y-81630665D01*
X104395439Y-81321125D01*
X103322735Y-81321125D01*
X103299410Y-81321126D01*
X103071092Y-81321305D01*
X102875579Y-81321816D01*
X102710706Y-81322703D01*
X102574302Y-81324009D01*
X102464202Y-81325780D01*
X102378236Y-81328057D01*
X102314236Y-81330885D01*
X102270036Y-81334308D01*
X102243466Y-81338369D01*
X102232359Y-81343112D01*
X102219709Y-81358728D01*
X102151098Y-81436949D01*
X102091875Y-81489083D01*
X102035142Y-81518973D01*
X101973998Y-81530463D01*
X101901543Y-81527397D01*
X101884194Y-81524950D01*
X101793988Y-81493619D01*
X101723267Y-81436333D01*
X101675037Y-81357693D01*
X101652306Y-81262301D01*
X101658079Y-81154758D01*
X101660339Y-81143989D01*
X101694422Y-81064851D01*
X101751113Y-81004927D01*
X101823797Y-80964987D01*
X101905863Y-80945804D01*
X101990697Y-80948148D01*
X102071685Y-80972791D01*
X102142214Y-81020503D01*
X102195671Y-81092058D01*
X102203682Y-81106691D01*
X102232553Y-81147649D01*
X102258128Y-81169440D01*
X102272028Y-81171913D01*
X102318133Y-81175286D01*
X102388481Y-81177978D01*
X102476471Y-81179760D01*
X102575498Y-81180405D01*
X102590228Y-81180397D01*
X102699125Y-81179592D01*
X102777143Y-81177262D01*
X102828119Y-81173111D01*
X102855890Y-81166843D01*
X102864295Y-81158163D01*
X102854247Y-81141584D01*
X102822760Y-81103893D01*
X102773725Y-81050000D01*
X102711129Y-80984273D01*
X102638953Y-80911080D01*
X102413611Y-80686238D01*
X102334843Y-80707306D01*
X102320350Y-80710852D01*
X102218289Y-80717613D01*
X102123321Y-80693740D01*
X102042057Y-80641899D01*
X101981110Y-80564754D01*
X101975941Y-80554407D01*
X101956142Y-80481534D01*
X101953296Y-80397283D01*
X101966726Y-80316066D01*
X101995758Y-80252294D01*
X102031201Y-80215565D01*
X102099629Y-80170245D01*
X102177408Y-80137562D01*
X102249604Y-80125003D01*
X102287427Y-80128128D01*
X102374580Y-80157249D01*
X102451873Y-80211517D01*
X102508431Y-80284241D01*
X102523628Y-80314401D01*
X102539209Y-80359026D01*
X102543348Y-80407404D01*
X102538470Y-80474936D01*
X102526742Y-80587404D01*
X102814051Y-80875109D01*
X103101360Y-81162815D01*
X103747994Y-81162815D01*
X104394627Y-81162815D01*
X104394627Y-81145225D01*
X105063048Y-81145225D01*
X105063048Y-81146952D01*
X105063784Y-81248380D01*
X105066339Y-81320397D01*
X105071290Y-81368665D01*
X105079215Y-81398849D01*
X105090690Y-81416614D01*
X105103518Y-81424084D01*
X105149387Y-81435134D01*
X105217149Y-81442651D01*
X105298674Y-81446660D01*
X105385830Y-81447185D01*
X105470489Y-81444253D01*
X105544519Y-81437887D01*
X105599791Y-81428113D01*
X105628173Y-81414956D01*
X105636062Y-81396954D01*
X105644494Y-81347137D01*
X105649247Y-81276763D01*
X105650543Y-81193783D01*
X105648604Y-81106152D01*
X105643651Y-81021823D01*
X105635907Y-80948749D01*
X105625592Y-80894884D01*
X105612929Y-80868182D01*
X105597324Y-80861214D01*
X105547521Y-80852776D01*
X105466030Y-80847816D01*
X105351178Y-80846194D01*
X105263738Y-80846755D01*
X105189688Y-80849177D01*
X105140025Y-80854088D01*
X105108956Y-80862103D01*
X105090690Y-80873836D01*
X105090494Y-80874033D01*
X105079075Y-80891938D01*
X105071198Y-80922345D01*
X105066286Y-80970920D01*
X105063761Y-81043325D01*
X105063048Y-81145225D01*
X104394627Y-81145225D01*
X104394627Y-80854989D01*
X104394627Y-80547164D01*
X103871195Y-80547164D01*
X103347762Y-80547164D01*
X102899345Y-80098325D01*
X102450929Y-79649486D01*
X102351835Y-79660614D01*
X102316165Y-79663608D01*
X102218791Y-79657132D01*
X102138251Y-79624503D01*
X102066941Y-79563118D01*
X102015436Y-79487544D01*
X101988955Y-79394878D01*
X101996310Y-79298205D01*
X102037825Y-79201527D01*
X102061676Y-79169638D01*
X102129183Y-79117256D01*
X102211832Y-79087756D01*
X102301674Y-79081175D01*
X102390755Y-79097547D01*
X102471123Y-79136910D01*
X102534828Y-79199298D01*
X102554690Y-79232307D01*
X102566554Y-79269921D01*
X102571806Y-79321752D01*
X102572416Y-79398231D01*
X102570773Y-79542165D01*
X103004180Y-79974304D01*
X103437587Y-80406443D01*
X103926044Y-80406443D01*
X104414501Y-80406443D01*
X104501309Y-80317321D01*
X104588117Y-80228198D01*
X104588117Y-80023380D01*
X104588117Y-79818563D01*
X104056019Y-79294573D01*
X103523921Y-78770583D01*
X103435971Y-78780600D01*
X103341040Y-78778757D01*
X103250245Y-78746615D01*
X103175737Y-78683711D01*
X103133805Y-78621322D01*
X103103579Y-78531996D01*
X103102103Y-78442994D01*
X103126566Y-78359782D01*
X103174157Y-78287823D01*
X103242065Y-78232582D01*
X103327478Y-78199525D01*
X103427587Y-78194114D01*
X103483186Y-78204177D01*
X103569879Y-78243832D01*
X103634996Y-78307183D01*
X103675790Y-78389756D01*
X103689518Y-78487079D01*
X103673434Y-78594679D01*
X103655841Y-78656021D01*
X104191954Y-79192624D01*
X104728068Y-79729227D01*
X104732850Y-79975488D01*
X104737633Y-80221748D01*
X105014676Y-80226592D01*
X105291719Y-80231436D01*
X105291719Y-79378231D01*
X105291719Y-78525025D01*
X105220668Y-78488778D01*
X105180793Y-78463850D01*
X105117160Y-78396149D01*
X105079007Y-78311832D01*
X105069038Y-78218453D01*
X105089955Y-78123564D01*
X105114157Y-78075386D01*
X105176469Y-78002334D01*
X105255594Y-77953544D01*
X105344671Y-77932590D01*
X105436836Y-77943041D01*
X105449276Y-77946909D01*
X105544941Y-77990763D01*
X105610814Y-78052157D01*
X105648859Y-78133677D01*
X105661043Y-78237908D01*
X105661032Y-78240499D01*
X105645537Y-78334730D01*
X105599477Y-78414187D01*
X105521076Y-78481969D01*
X105450029Y-78528985D01*
X105450029Y-79379764D01*
X105450029Y-80230543D01*
X105766649Y-80230543D01*
X106083270Y-80230543D01*
X106083270Y-79081343D01*
X106083270Y-77932144D01*
X106017872Y-77889619D01*
X106003368Y-77879713D01*
X105928706Y-77807291D01*
X105883906Y-77721043D01*
X105870733Y-77626007D01*
X105890951Y-77527221D01*
X105907981Y-77490581D01*
X105964547Y-77420040D01*
X106038749Y-77371679D01*
X106123630Y-77346073D01*
X106212233Y-77343797D01*
X106297602Y-77365423D01*
X106372780Y-77411527D01*
X106430811Y-77482681D01*
X106446269Y-77515479D01*
X106467346Y-77601830D01*
X106466988Y-77690408D01*
X106444497Y-77766718D01*
X106430511Y-77789526D01*
X106384344Y-77842986D01*
X106328694Y-77889602D01*
X106276855Y-77917424D01*
X106270913Y-77919712D01*
X106264728Y-77924623D01*
X106259479Y-77934295D01*
X106255091Y-77951266D01*
X106251486Y-77978068D01*
X106248586Y-78017238D01*
X106246316Y-78071309D01*
X106244598Y-78142816D01*
X106243355Y-78234296D01*
X106242511Y-78348281D01*
X106241988Y-78487307D01*
X106241710Y-78653909D01*
X106241600Y-78850621D01*
X106241580Y-79079978D01*
X106241580Y-80231337D01*
X106562598Y-80226542D01*
X106883616Y-80221748D01*
X106888181Y-79376084D01*
X106892745Y-78530421D01*
X106827181Y-78487788D01*
X106762867Y-78434285D01*
X106703348Y-78353872D01*
X106670864Y-78266531D01*
X106668496Y-78219953D01*
X106685577Y-78139972D01*
X106723144Y-78064030D01*
X106775567Y-78006125D01*
X106830865Y-77973132D01*
X106904373Y-77945047D01*
X106977076Y-77929953D01*
X107035215Y-77931788D01*
X107104315Y-77959572D01*
X107179116Y-78017518D01*
X107235543Y-78093835D01*
X107268121Y-78180679D01*
X107271374Y-78270205D01*
X107268110Y-78287234D01*
X107233804Y-78369984D01*
X107175187Y-78444524D01*
X107100880Y-78499276D01*
X107050721Y-78525214D01*
X107050721Y-79377878D01*
X107050721Y-80230543D01*
X107323367Y-80230543D01*
X107596012Y-80230543D01*
X107596012Y-79988576D01*
X107596012Y-79746608D01*
X108148310Y-79194519D01*
X108198812Y-79144030D01*
X108321805Y-79020930D01*
X108422737Y-78919465D01*
X108503695Y-78837278D01*
X108566765Y-78772012D01*
X108614034Y-78721312D01*
X108647588Y-78682820D01*
X108669515Y-78654180D01*
X108681901Y-78633035D01*
X108686833Y-78617028D01*
X108686396Y-78603803D01*
X108682679Y-78591002D01*
X108677899Y-78572559D01*
X108671754Y-78514871D01*
X108673217Y-78451477D01*
X108673806Y-78445809D01*
X108700377Y-78348444D01*
X108754021Y-78271909D01*
X108831479Y-78219471D01*
X108929493Y-78194398D01*
X109028045Y-78196257D01*
X109117960Y-78224820D01*
X109186871Y-78280024D01*
X109235601Y-78357609D01*
X109259408Y-78447150D01*
X109255145Y-78536063D01*
X109225790Y-78618848D01*
X109174319Y-78690007D01*
X109103708Y-78744040D01*
X109016934Y-78775446D01*
X108916973Y-78778726D01*
X108821937Y-78767368D01*
X108288130Y-79300959D01*
X107754322Y-79834551D01*
X107754322Y-80031375D01*
X107754322Y-80228198D01*
X107841131Y-80317321D01*
X107927939Y-80406443D01*
X108425283Y-80406443D01*
X108922628Y-80406443D01*
X109359840Y-79970228D01*
X109797053Y-79534013D01*
X109776912Y-79454029D01*
X109767520Y-79379066D01*
X109782742Y-79283170D01*
X109826234Y-79198020D01*
X109894250Y-79130295D01*
X109983040Y-79086676D01*
X109990455Y-79084541D01*
X110085127Y-79073080D01*
X110168948Y-79090133D01*
X110239839Y-79130494D01*
X110295719Y-79188955D01*
X110334510Y-79260310D01*
X110354132Y-79339352D01*
X110352505Y-79420874D01*
X110327550Y-79499669D01*
X110277187Y-79570530D01*
X110199336Y-79628251D01*
X110170044Y-79643104D01*
X110124539Y-79659378D01*
X110075679Y-79664030D01*
X110007854Y-79659619D01*
X109895526Y-79648603D01*
X109447547Y-80097883D01*
X108999568Y-80547164D01*
X108473691Y-80547164D01*
X107947813Y-80547164D01*
X107947813Y-80854989D01*
X107947813Y-81082446D01*
X107947813Y-81162815D01*
G37*
%TD*%
%LPC*%
D14*
%TO.C,J4*%
X139319000Y-96774000D03*
D15*
X136779000Y-96774000D03*
X134239000Y-96774000D03*
X131699000Y-96774000D03*
X129159000Y-96774000D03*
X126619000Y-96774000D03*
X124079000Y-96774000D03*
X121539000Y-96774000D03*
X118999000Y-96774000D03*
X116459000Y-96774000D03*
X113919000Y-96774000D03*
X111379000Y-96774000D03*
X108839000Y-96774000D03*
X106299000Y-96774000D03*
X103759000Y-96774000D03*
X101219000Y-96774000D03*
X98679000Y-96774000D03*
X96139000Y-96774000D03*
X93599000Y-96774000D03*
X91059000Y-96774000D03*
%TD*%
D14*
%TO.C,J3*%
X91059000Y-114554000D03*
D15*
X93599000Y-114554000D03*
X96139000Y-114554000D03*
X98679000Y-114554000D03*
X101219000Y-114554000D03*
X103759000Y-114554000D03*
X106299000Y-114554000D03*
X108839000Y-114554000D03*
X111379000Y-114554000D03*
X113919000Y-114554000D03*
X116459000Y-114554000D03*
X118999000Y-114554000D03*
X121539000Y-114554000D03*
X124079000Y-114554000D03*
X126619000Y-114554000D03*
X129159000Y-114554000D03*
X131699000Y-114554000D03*
X134239000Y-114554000D03*
X136779000Y-114554000D03*
X139319000Y-114554000D03*
%TD*%
D16*
%TO.C,AN14*%
X130937000Y-70104000D03*
D17*
X129437000Y-70104000D03*
X127937000Y-70104000D03*
%TD*%
D14*
%TO.C,JR1*%
X93980000Y-140716000D03*
D18*
X91440000Y-140716000D03*
X93980000Y-138176000D03*
X91440000Y-138176000D03*
X93980000Y-135636000D03*
X91440000Y-135636000D03*
X93980000Y-133096000D03*
X91440000Y-133096000D03*
X93980000Y-130556000D03*
X91440000Y-130556000D03*
X93980000Y-128016000D03*
X91440000Y-128016000D03*
X93980000Y-125476000D03*
X91440000Y-125476000D03*
X93980000Y-122936000D03*
X91440000Y-122936000D03*
%TD*%
D16*
%TO.C,AN10*%
X123444000Y-70104000D03*
D17*
X121944000Y-70104000D03*
X120444000Y-70104000D03*
%TD*%
D16*
%TO.C,AN8*%
X138430000Y-65024000D03*
D17*
X136930000Y-65024000D03*
X135430000Y-65024000D03*
%TD*%
D16*
%TO.C,AN9*%
X123444000Y-65024000D03*
D17*
X121944000Y-65024000D03*
X120444000Y-65024000D03*
%TD*%
D16*
%TO.C,AN5*%
X138430000Y-80137000D03*
D17*
X136930000Y-80137000D03*
X135430000Y-80137000D03*
%TD*%
D14*
%TO.C,JR6*%
X143510000Y-140716000D03*
D18*
X140970000Y-140716000D03*
X143510000Y-138176000D03*
X140970000Y-138176000D03*
X143510000Y-135636000D03*
X140970000Y-135636000D03*
X143510000Y-133096000D03*
X140970000Y-133096000D03*
X143510000Y-130556000D03*
X140970000Y-130556000D03*
X143510000Y-128016000D03*
X140970000Y-128016000D03*
X143510000Y-125476000D03*
X140970000Y-125476000D03*
X143510000Y-122936000D03*
X140970000Y-122936000D03*
%TD*%
D14*
%TO.C,JR3*%
X113792000Y-140716000D03*
D18*
X111252000Y-140716000D03*
X113792000Y-138176000D03*
X111252000Y-138176000D03*
X113792000Y-135636000D03*
X111252000Y-135636000D03*
X113792000Y-133096000D03*
X111252000Y-133096000D03*
X113792000Y-130556000D03*
X111252000Y-130556000D03*
X113792000Y-128016000D03*
X111252000Y-128016000D03*
X113792000Y-125476000D03*
X111252000Y-125476000D03*
X113792000Y-122936000D03*
X111252000Y-122936000D03*
%TD*%
D16*
%TO.C,AN1*%
X146026000Y-80137000D03*
D17*
X144526000Y-80137000D03*
X143026000Y-80137000D03*
%TD*%
D16*
%TO.C,AN13*%
X123444000Y-80137000D03*
D17*
X121944000Y-80137000D03*
X120444000Y-80137000D03*
%TD*%
D19*
%TO.C,H4*%
X186309000Y-144907000D03*
D20*
X186309000Y-144907000D03*
%TD*%
D16*
%TO.C,AN11*%
X123444000Y-75184000D03*
D17*
X121944000Y-75184000D03*
X120444000Y-75184000D03*
%TD*%
D16*
%TO.C,JSPI7*%
X160722000Y-63569000D03*
D17*
X159222000Y-63569000D03*
X157722000Y-63569000D03*
X156222000Y-63569000D03*
X154722000Y-63569000D03*
X153222000Y-63569000D03*
%TD*%
D21*
%TO.C,JSPI2*%
X157295000Y-79562000D03*
D22*
X157295000Y-81062000D03*
X157295000Y-82562000D03*
X157295000Y-84062000D03*
X157295000Y-85562000D03*
X157295000Y-87062000D03*
%TD*%
D16*
%TO.C,AN3*%
X146026000Y-70104000D03*
D17*
X144526000Y-70104000D03*
X143026000Y-70104000D03*
%TD*%
D16*
%TO.C,AN12*%
X130937000Y-65024000D03*
D17*
X129437000Y-65024000D03*
X127937000Y-65024000D03*
%TD*%
D16*
%TO.C,AN2*%
X146026000Y-75184000D03*
D17*
X144526000Y-75184000D03*
X143026000Y-75184000D03*
%TD*%
D21*
%TO.C,JSPI4*%
X152469000Y-67751000D03*
D22*
X152469000Y-69251000D03*
X152469000Y-70751000D03*
X152469000Y-72251000D03*
X152469000Y-73751000D03*
X152469000Y-75251000D03*
%TD*%
D14*
%TO.C,J28*%
X169037000Y-73242714D03*
D18*
X169037000Y-70702714D03*
X171577000Y-73242714D03*
X171577000Y-70702714D03*
X174117000Y-73242714D03*
X174117000Y-70702714D03*
X176657000Y-73242714D03*
X176657000Y-70702714D03*
X179197000Y-73242714D03*
X179197000Y-70702714D03*
X181737000Y-73242714D03*
X181737000Y-70702714D03*
X184277000Y-73242714D03*
X184277000Y-70702714D03*
X186817000Y-73242714D03*
X186817000Y-70702714D03*
%TD*%
D16*
%TO.C,AN7*%
X138430000Y-70104000D03*
D17*
X136930000Y-70104000D03*
X135430000Y-70104000D03*
%TD*%
D14*
%TO.C,JR4*%
X123698000Y-140700210D03*
D18*
X121158000Y-140700210D03*
X123698000Y-138160210D03*
X121158000Y-138160210D03*
X123698000Y-135620210D03*
X121158000Y-135620210D03*
X123698000Y-133080210D03*
X121158000Y-133080210D03*
X123698000Y-130540210D03*
X121158000Y-130540210D03*
X123698000Y-128000210D03*
X121158000Y-128000210D03*
X123698000Y-125460210D03*
X121158000Y-125460210D03*
X123698000Y-122920210D03*
X121158000Y-122920210D03*
%TD*%
D19*
%TO.C,H2*%
X186436000Y-58674000D03*
D20*
X186436000Y-58674000D03*
%TD*%
D23*
%TO.C,J2*%
X103409000Y-66098500D03*
D24*
X97409000Y-66098500D03*
D25*
X100409000Y-70798500D03*
%TD*%
D14*
%TO.C,J27*%
X169037000Y-88410142D03*
D18*
X169037000Y-85870142D03*
X171577000Y-88410142D03*
X171577000Y-85870142D03*
X174117000Y-88410142D03*
X174117000Y-85870142D03*
X176657000Y-88410142D03*
X176657000Y-85870142D03*
X179197000Y-88410142D03*
X179197000Y-85870142D03*
X181737000Y-88410142D03*
X181737000Y-85870142D03*
X184277000Y-88410142D03*
X184277000Y-85870142D03*
X186817000Y-88410142D03*
X186817000Y-85870142D03*
%TD*%
D14*
%TO.C,J29*%
X169037000Y-65659000D03*
D18*
X169037000Y-63119000D03*
X171577000Y-65659000D03*
X171577000Y-63119000D03*
X174117000Y-65659000D03*
X174117000Y-63119000D03*
X176657000Y-65659000D03*
X176657000Y-63119000D03*
X179197000Y-65659000D03*
X179197000Y-63119000D03*
X181737000Y-65659000D03*
X181737000Y-63119000D03*
X184277000Y-65659000D03*
X184277000Y-63119000D03*
X186817000Y-65659000D03*
X186817000Y-63119000D03*
%TD*%
D21*
%TO.C,J30*%
X147135000Y-96810000D03*
D22*
X147135000Y-98310000D03*
X147135000Y-99810000D03*
X147135000Y-101310000D03*
%TD*%
D14*
%TO.C,J35*%
X169037000Y-95993856D03*
D18*
X169037000Y-93453856D03*
X171577000Y-95993856D03*
X171577000Y-93453856D03*
X174117000Y-95993856D03*
X174117000Y-93453856D03*
X176657000Y-95993856D03*
X176657000Y-93453856D03*
X179197000Y-95993856D03*
X179197000Y-93453856D03*
X181737000Y-95993856D03*
X181737000Y-93453856D03*
X184277000Y-95993856D03*
X184277000Y-93453856D03*
X186817000Y-95993856D03*
X186817000Y-93453856D03*
%TD*%
D14*
%TO.C,J33*%
X168910000Y-118745000D03*
D18*
X168910000Y-116205000D03*
X171450000Y-118745000D03*
X171450000Y-116205000D03*
X173990000Y-118745000D03*
X173990000Y-116205000D03*
X176530000Y-118745000D03*
X176530000Y-116205000D03*
X179070000Y-118745000D03*
X179070000Y-116205000D03*
X181610000Y-118745000D03*
X181610000Y-116205000D03*
X184150000Y-118745000D03*
X184150000Y-116205000D03*
X186690000Y-118745000D03*
X186690000Y-116205000D03*
%TD*%
D19*
%TO.C,H3*%
X91694000Y-144907000D03*
D20*
X91694000Y-144907000D03*
%TD*%
D16*
%TO.C,AN16*%
X130937000Y-80137000D03*
D17*
X129437000Y-80137000D03*
X127937000Y-80137000D03*
%TD*%
D14*
%TO.C,JR7*%
X153416000Y-140716000D03*
D18*
X150876000Y-140716000D03*
X153416000Y-138176000D03*
X150876000Y-138176000D03*
X153416000Y-135636000D03*
X150876000Y-135636000D03*
X153416000Y-133096000D03*
X150876000Y-133096000D03*
X153416000Y-130556000D03*
X150876000Y-130556000D03*
X153416000Y-128016000D03*
X150876000Y-128016000D03*
X153416000Y-125476000D03*
X150876000Y-125476000D03*
X153416000Y-122936000D03*
X150876000Y-122936000D03*
%TD*%
D14*
%TO.C,JR2*%
X103886000Y-140716000D03*
D18*
X101346000Y-140716000D03*
X103886000Y-138176000D03*
X101346000Y-138176000D03*
X103886000Y-135636000D03*
X101346000Y-135636000D03*
X103886000Y-133096000D03*
X101346000Y-133096000D03*
X103886000Y-130556000D03*
X101346000Y-130556000D03*
X103886000Y-128016000D03*
X101346000Y-128016000D03*
X103886000Y-125476000D03*
X101346000Y-125476000D03*
X103886000Y-122936000D03*
X101346000Y-122936000D03*
%TD*%
D14*
%TO.C,J26*%
X169037000Y-80826428D03*
D18*
X169037000Y-78286428D03*
X171577000Y-80826428D03*
X171577000Y-78286428D03*
X174117000Y-80826428D03*
X174117000Y-78286428D03*
X176657000Y-80826428D03*
X176657000Y-78286428D03*
X179197000Y-80826428D03*
X179197000Y-78286428D03*
X181737000Y-80826428D03*
X181737000Y-78286428D03*
X184277000Y-80826428D03*
X184277000Y-78286428D03*
X186817000Y-80826428D03*
X186817000Y-78286428D03*
%TD*%
D16*
%TO.C,AN4*%
X146026000Y-65024000D03*
D17*
X144526000Y-65024000D03*
X143026000Y-65024000D03*
%TD*%
D14*
%TO.C,J34*%
X169037000Y-111161284D03*
D18*
X169037000Y-108621284D03*
X171577000Y-111161284D03*
X171577000Y-108621284D03*
X174117000Y-111161284D03*
X174117000Y-108621284D03*
X176657000Y-111161284D03*
X176657000Y-108621284D03*
X179197000Y-111161284D03*
X179197000Y-108621284D03*
X181737000Y-111161284D03*
X181737000Y-108621284D03*
X184277000Y-111161284D03*
X184277000Y-108621284D03*
X186817000Y-111161284D03*
X186817000Y-108621284D03*
%TD*%
D14*
%TO.C,J32*%
X169037000Y-103577570D03*
D18*
X169037000Y-101037570D03*
X171577000Y-103577570D03*
X171577000Y-101037570D03*
X174117000Y-103577570D03*
X174117000Y-101037570D03*
X176657000Y-103577570D03*
X176657000Y-101037570D03*
X179197000Y-103577570D03*
X179197000Y-101037570D03*
X181737000Y-103577570D03*
X181737000Y-101037570D03*
X184277000Y-103577570D03*
X184277000Y-101037570D03*
X186817000Y-103577570D03*
X186817000Y-101037570D03*
%TD*%
D14*
%TO.C,JR8*%
X163228000Y-140716000D03*
D18*
X160688000Y-140716000D03*
X163228000Y-138176000D03*
X160688000Y-138176000D03*
X163228000Y-135636000D03*
X160688000Y-135636000D03*
X163228000Y-133096000D03*
X160688000Y-133096000D03*
X163228000Y-130556000D03*
X160688000Y-130556000D03*
X163228000Y-128016000D03*
X160688000Y-128016000D03*
X163228000Y-125476000D03*
X160688000Y-125476000D03*
X163228000Y-122936000D03*
X160688000Y-122936000D03*
%TD*%
D19*
%TO.C,H1*%
X91694000Y-58801000D03*
D20*
X91694000Y-58801000D03*
%TD*%
D14*
%TO.C,J1*%
X109235000Y-63119000D03*
D15*
X111775000Y-63119000D03*
X114315000Y-63119000D03*
%TD*%
D21*
%TO.C,JSPI5*%
X157295000Y-67751000D03*
D22*
X157295000Y-69251000D03*
X157295000Y-70751000D03*
X157295000Y-72251000D03*
X157295000Y-73751000D03*
X157295000Y-75251000D03*
%TD*%
D21*
%TO.C,J31*%
X147135000Y-109891000D03*
D22*
X147135000Y-111391000D03*
X147135000Y-112891000D03*
X147135000Y-114391000D03*
%TD*%
D21*
%TO.C,JSPI1*%
X152469000Y-79562000D03*
D22*
X152469000Y-81062000D03*
X152469000Y-82562000D03*
X152469000Y-84062000D03*
X152469000Y-85562000D03*
X152469000Y-87062000D03*
%TD*%
D16*
%TO.C,AN15*%
X130937000Y-75184000D03*
D17*
X129437000Y-75184000D03*
X127937000Y-75184000D03*
%TD*%
D21*
%TO.C,JSPI6*%
X162121000Y-67751000D03*
D22*
X162121000Y-69251000D03*
X162121000Y-70751000D03*
X162121000Y-72251000D03*
X162121000Y-73751000D03*
X162121000Y-75251000D03*
%TD*%
D14*
%TO.C,JR5*%
X133604000Y-140716000D03*
D18*
X131064000Y-140716000D03*
X133604000Y-138176000D03*
X131064000Y-138176000D03*
X133604000Y-135636000D03*
X131064000Y-135636000D03*
X133604000Y-133096000D03*
X131064000Y-133096000D03*
X133604000Y-130556000D03*
X131064000Y-130556000D03*
X133604000Y-128016000D03*
X131064000Y-128016000D03*
X133604000Y-125476000D03*
X131064000Y-125476000D03*
X133604000Y-122936000D03*
X131064000Y-122936000D03*
%TD*%
D21*
%TO.C,JSPI3*%
X162121000Y-79562000D03*
D22*
X162121000Y-81062000D03*
X162121000Y-82562000D03*
X162121000Y-84062000D03*
X162121000Y-85562000D03*
X162121000Y-87062000D03*
%TD*%
D16*
%TO.C,AN6*%
X138430000Y-75184000D03*
D17*
X136930000Y-75184000D03*
X135430000Y-75184000D03*
%TD*%
D26*
%TO.C,TP1*%
X117602000Y-105791000D03*
%TD*%
%TO.C,TP4*%
X96647000Y-105664000D03*
%TD*%
%TO.C,TP2*%
X110871000Y-105664000D03*
%TD*%
%TO.C,TP3*%
X103812666Y-105664000D03*
%TD*%
%LPD*%
M02*
