M48
; DRILL file {KiCad 9.0.3} date 2025-07-20T16:41:56-0300
; FORMAT={-:-/ absolute / inch / decimal}
; #@! TF.CreationDate,2025-07-20T16:41:56-03:00
; #@! TF.GenerationSoftware,Kicad,Pcbnew,9.0.3
; #@! TF.FileFunction,Plated,1,4,PTH
FMAT,2
INCH
; #@! TA.AperFunction,Plated,PTH,ViaDrill
T1C0.0157
; #@! TA.AperFunction,Plated,PTH,ComponentDrill
T2C0.0287
; #@! TA.AperFunction,Plated,PTH,ComponentDrill
T3C0.0394
; #@! TA.AperFunction,Plated,PTH,ComponentDrill
T4C0.0866
%
G90
G05
T1
X3.575Y-3.08
X3.575Y-3.63
X3.576Y-2.858
X3.655Y-2.485
X3.655Y-2.545
X3.655Y-2.605
X3.655Y-2.665
X3.655Y-2.73
X3.655Y-2.79
X3.655Y-2.85
X3.71Y-2.485
X3.71Y-2.545
X3.71Y-2.605
X3.71Y-2.665
X3.71Y-2.73
X3.71Y-2.79
X3.72Y-4.73
X3.765Y-2.485
X3.805Y-4.035
X3.805Y-4.28
X3.815Y-3.125
X3.815Y-3.195
X3.82Y-2.485
X3.83Y-3.47
X3.865Y-3.195
X3.875Y-2.485
X3.88Y-3.47
X3.915Y-3.195
X3.93Y-3.47
X3.96Y-3.3782
X3.98Y-3.095
X4.03Y-3.095
X4.035Y-3.47
X4.05Y-3.375
X4.0623Y-3.5503
X4.08Y-3.095
X4.09Y-5.705
X4.1Y-3.375
X4.115Y-4.73
X4.14Y-3.095
X4.175Y-2.415
X4.2Y-3.095
X4.2Y-3.1577
X4.205Y-3.6569
X4.25Y-3.365
X4.335Y-3.54
X4.338Y-3.458
X4.34Y-3.2871
X4.415Y-3.195
X4.4378Y-2.9314
X4.4378Y-2.9714
X4.4378Y-3.0114
X4.48Y-5.705
X4.495Y-4.73
X4.6314Y-4.05
X4.6314Y-4.285
X4.64Y-3.285
X4.665Y-4.7
X4.665Y-4.765
X4.68Y-3.285
X4.695Y-2.56
X4.695Y-2.76
X4.695Y-2.96
X4.695Y-3.155
X4.72Y-3.285
X4.75Y-3.635
X4.77Y-5.705
X4.895Y-4.73
X4.975Y-4.125
X4.985Y-2.56
X4.985Y-2.76
X4.985Y-2.96
X4.985Y-4.4
X5.005Y-3.575
X5.03Y-3.095
X5.22Y-3.575
X5.275Y-2.56
X5.275Y-2.76
X5.275Y-2.96
X5.285Y-4.73
X5.325Y-3.09
X5.485Y-3.585
X5.575Y-2.56
X5.575Y-2.76
X5.575Y-4.48
X5.5816Y-2.965
X5.585Y-3.925
X5.605Y-3.805
X5.605Y-3.8444
X5.63Y-3.09
X5.65Y-3.96
X5.65Y-5.705
X5.66Y-4.385
X5.6646Y-4.73
X5.685Y-3.585
X5.695Y-4.17
X5.6989Y-4.1102
X5.8198Y-4.6178
X5.845Y-3.41
X5.8787Y-4.3563
X5.922Y-3.634
X5.93Y-4.48
X5.94Y-5.705
X5.9415Y-4.02
X5.9415Y-4.07
X5.9431Y-4.27
X5.944Y-4.115
X5.9448Y-4.3165
X5.9465Y-4.17
X5.9465Y-4.22
X5.955Y-3.825
X5.982Y-3.536
X6.065Y-4.73
X6.12Y-4.485
X6.195Y-3.905
X6.245Y-3.905
X6.395Y-3.91
X6.425Y-5.705
X6.44Y-4.73
X6.475Y-4.02
X6.475Y-4.07
X6.475Y-4.12
X6.475Y-4.17
X6.475Y-4.22
X6.744Y-5.452
X6.794Y-5.452
X7.0774Y-5.275
X7.0774Y-5.325
X7.08Y-5.175
X7.08Y-5.225
X7.0824Y-5.07
X7.0824Y-5.125
X7.0874Y-4.975
X7.355Y-2.685
X7.355Y-2.985
X7.355Y-3.27
X7.355Y-3.58
X7.355Y-3.88
X7.355Y-4.175
X7.355Y-4.47
T2
X4.7419Y-2.56
X4.7419Y-2.76
X4.7419Y-2.96
X4.7419Y-3.155
X4.8009Y-2.56
X4.8009Y-2.76
X4.8009Y-2.96
X4.8009Y-3.155
X4.86Y-2.56
X4.86Y-2.76
X4.86Y-2.96
X4.86Y-3.155
X5.0369Y-2.56
X5.0369Y-2.76
X5.0369Y-2.96
X5.0369Y-3.155
X5.0959Y-2.56
X5.0959Y-2.76
X5.0959Y-2.96
X5.0959Y-3.155
X5.155Y-2.56
X5.155Y-2.76
X5.155Y-2.96
X5.155Y-3.155
X5.3319Y-2.56
X5.3319Y-2.76
X5.3319Y-2.96
X5.3319Y-3.155
X5.3909Y-2.56
X5.3909Y-2.76
X5.3909Y-2.96
X5.3909Y-3.155
X5.45Y-2.56
X5.45Y-2.76
X5.45Y-2.96
X5.45Y-3.155
X5.6309Y-2.56
X5.6309Y-2.76
X5.6309Y-2.96
X5.6309Y-3.155
X5.69Y-2.56
X5.69Y-2.76
X5.69Y-2.96
X5.69Y-3.155
X5.7491Y-2.56
X5.7491Y-2.76
X5.7491Y-2.96
X5.7491Y-3.155
X5.7927Y-3.8114
X5.7927Y-3.8705
X5.7927Y-3.9295
X5.7927Y-3.9886
X5.7927Y-4.3264
X5.7927Y-4.3855
X5.7927Y-4.4445
X5.7927Y-4.5036
X6.0027Y-2.6674
X6.0027Y-2.7264
X6.0027Y-2.7855
X6.0027Y-2.8445
X6.0027Y-2.9036
X6.0027Y-2.9626
X6.0027Y-3.1324
X6.0027Y-3.1914
X6.0027Y-3.2505
X6.0027Y-3.3095
X6.0027Y-3.3686
X6.0027Y-3.4276
X6.0324Y-2.5027
X6.0914Y-2.5027
X6.1505Y-2.5027
X6.1927Y-2.6674
X6.1927Y-2.7264
X6.1927Y-2.7855
X6.1927Y-2.8445
X6.1927Y-2.9036
X6.1927Y-2.9626
X6.1927Y-3.1324
X6.1927Y-3.1914
X6.1927Y-3.2505
X6.1927Y-3.3095
X6.1927Y-3.3686
X6.1927Y-3.4276
X6.2095Y-2.5027
X6.2686Y-2.5027
X6.3276Y-2.5027
X6.3827Y-2.6674
X6.3827Y-2.7264
X6.3827Y-2.7855
X6.3827Y-2.8445
X6.3827Y-2.9036
X6.3827Y-2.9626
X6.3827Y-3.1324
X6.3827Y-3.1914
X6.3827Y-3.2505
X6.3827Y-3.3095
X6.3827Y-3.3686
X6.3827Y-3.4276
T3
X3.585Y-3.81
X3.585Y-4.51
X3.6Y-4.84
X3.6Y-4.94
X3.6Y-5.04
X3.6Y-5.14
X3.6Y-5.24
X3.6Y-5.34
X3.6Y-5.44
X3.6Y-5.54
X3.685Y-3.81
X3.685Y-4.51
X3.7Y-4.84
X3.7Y-4.94
X3.7Y-5.04
X3.7Y-5.14
X3.7Y-5.24
X3.7Y-5.34
X3.7Y-5.44
X3.7Y-5.54
X3.785Y-3.81
X3.785Y-4.51
X3.885Y-3.81
X3.885Y-4.51
X3.985Y-3.81
X3.985Y-4.51
X3.99Y-4.84
X3.99Y-4.94
X3.99Y-5.04
X3.99Y-5.14
X3.99Y-5.24
X3.99Y-5.34
X3.99Y-5.44
X3.99Y-5.54
X4.085Y-3.81
X4.085Y-4.51
X4.09Y-4.84
X4.09Y-4.94
X4.09Y-5.04
X4.09Y-5.14
X4.09Y-5.24
X4.09Y-5.34
X4.09Y-5.44
X4.09Y-5.54
X4.185Y-3.81
X4.185Y-4.51
X4.285Y-3.81
X4.285Y-4.51
X4.3006Y-2.485
X4.38Y-4.84
X4.38Y-4.94
X4.38Y-5.04
X4.38Y-5.14
X4.38Y-5.24
X4.38Y-5.34
X4.38Y-5.44
X4.38Y-5.54
X4.385Y-3.81
X4.385Y-4.51
X4.4006Y-2.485
X4.48Y-4.84
X4.48Y-4.94
X4.48Y-5.04
X4.48Y-5.14
X4.48Y-5.24
X4.48Y-5.34
X4.48Y-5.44
X4.48Y-5.54
X4.485Y-3.81
X4.485Y-4.51
X4.5006Y-2.485
X4.585Y-3.81
X4.585Y-4.51
X4.685Y-3.81
X4.685Y-4.51
X4.77Y-4.8394
X4.77Y-4.9394
X4.77Y-5.0394
X4.77Y-5.1394
X4.77Y-5.2394
X4.77Y-5.3394
X4.77Y-5.4394
X4.77Y-5.5394
X4.785Y-3.81
X4.785Y-4.51
X4.87Y-4.8394
X4.87Y-4.9394
X4.87Y-5.0394
X4.87Y-5.1394
X4.87Y-5.2394
X4.87Y-5.3394
X4.87Y-5.4394
X4.87Y-5.5394
X4.885Y-3.81
X4.885Y-4.51
X4.985Y-3.81
X4.985Y-4.51
X5.085Y-3.81
X5.085Y-4.51
X5.16Y-4.84
X5.16Y-4.94
X5.16Y-5.04
X5.16Y-5.14
X5.16Y-5.24
X5.16Y-5.34
X5.16Y-5.44
X5.16Y-5.54
X5.185Y-3.81
X5.185Y-4.51
X5.26Y-4.84
X5.26Y-4.94
X5.26Y-5.04
X5.26Y-5.14
X5.26Y-5.24
X5.26Y-5.34
X5.26Y-5.44
X5.26Y-5.54
X5.285Y-3.81
X5.285Y-4.51
X5.385Y-3.81
X5.385Y-4.51
X5.485Y-3.81
X5.485Y-4.51
X5.55Y-4.84
X5.55Y-4.94
X5.55Y-5.04
X5.55Y-5.14
X5.55Y-5.24
X5.55Y-5.34
X5.55Y-5.44
X5.55Y-5.54
X5.65Y-4.84
X5.65Y-4.94
X5.65Y-5.04
X5.65Y-5.14
X5.65Y-5.24
X5.65Y-5.34
X5.65Y-5.44
X5.65Y-5.54
X5.94Y-4.84
X5.94Y-4.94
X5.94Y-5.04
X5.94Y-5.14
X5.94Y-5.24
X5.94Y-5.34
X5.94Y-5.44
X5.94Y-5.54
X6.04Y-4.84
X6.04Y-4.94
X6.04Y-5.04
X6.04Y-5.14
X6.04Y-5.24
X6.04Y-5.34
X6.04Y-5.44
X6.04Y-5.54
X6.3263Y-4.84
X6.3263Y-4.94
X6.3263Y-5.04
X6.3263Y-5.14
X6.3263Y-5.24
X6.3263Y-5.34
X6.3263Y-5.44
X6.3263Y-5.54
X6.4263Y-4.84
X6.4263Y-4.94
X6.4263Y-5.04
X6.4263Y-5.14
X6.4263Y-5.24
X6.4263Y-5.34
X6.4263Y-5.44
X6.4263Y-5.54
X6.65Y-4.575
X6.65Y-4.675
X6.655Y-2.485
X6.655Y-2.585
X6.655Y-2.7836
X6.655Y-2.8836
X6.655Y-3.0821
X6.655Y-3.1821
X6.655Y-3.3807
X6.655Y-3.4807
X6.655Y-3.6793
X6.655Y-3.7793
X6.655Y-3.9779
X6.655Y-4.0779
X6.655Y-4.2764
X6.655Y-4.3764
X6.75Y-4.575
X6.75Y-4.675
X6.755Y-2.485
X6.755Y-2.585
X6.755Y-2.7836
X6.755Y-2.8836
X6.755Y-3.0821
X6.755Y-3.1821
X6.755Y-3.3807
X6.755Y-3.4807
X6.755Y-3.6793
X6.755Y-3.7793
X6.755Y-3.9779
X6.755Y-4.0779
X6.755Y-4.2764
X6.755Y-4.3764
X6.85Y-4.575
X6.85Y-4.675
X6.855Y-2.485
X6.855Y-2.585
X6.855Y-2.7836
X6.855Y-2.8836
X6.855Y-3.0821
X6.855Y-3.1821
X6.855Y-3.3807
X6.855Y-3.4807
X6.855Y-3.6793
X6.855Y-3.7793
X6.855Y-3.9779
X6.855Y-4.0779
X6.855Y-4.2764
X6.855Y-4.3764
X6.95Y-4.575
X6.95Y-4.675
X6.955Y-2.485
X6.955Y-2.585
X6.955Y-2.7836
X6.955Y-2.8836
X6.955Y-3.0821
X6.955Y-3.1821
X6.955Y-3.3807
X6.955Y-3.4807
X6.955Y-3.6793
X6.955Y-3.7793
X6.955Y-3.9779
X6.955Y-4.0779
X6.955Y-4.2764
X6.955Y-4.3764
X7.05Y-4.575
X7.05Y-4.675
X7.055Y-2.485
X7.055Y-2.585
X7.055Y-2.7836
X7.055Y-2.8836
X7.055Y-3.0821
X7.055Y-3.1821
X7.055Y-3.3807
X7.055Y-3.4807
X7.055Y-3.6793
X7.055Y-3.7793
X7.055Y-3.9779
X7.055Y-4.0779
X7.055Y-4.2764
X7.055Y-4.3764
X7.15Y-4.575
X7.15Y-4.675
X7.155Y-2.485
X7.155Y-2.585
X7.155Y-2.7836
X7.155Y-2.8836
X7.155Y-3.0821
X7.155Y-3.1821
X7.155Y-3.3807
X7.155Y-3.4807
X7.155Y-3.6793
X7.155Y-3.7793
X7.155Y-3.9779
X7.155Y-4.0779
X7.155Y-4.2764
X7.155Y-4.3764
X7.25Y-4.575
X7.25Y-4.675
X7.255Y-2.485
X7.255Y-2.585
X7.255Y-2.7836
X7.255Y-2.8836
X7.255Y-3.0821
X7.255Y-3.1821
X7.255Y-3.3807
X7.255Y-3.4807
X7.255Y-3.6793
X7.255Y-3.7793
X7.255Y-3.9779
X7.255Y-4.0779
X7.255Y-4.2764
X7.255Y-4.3764
X7.35Y-4.575
X7.35Y-4.675
X7.355Y-2.485
X7.355Y-2.585
X7.355Y-2.7836
X7.355Y-2.8836
X7.355Y-3.0821
X7.355Y-3.1821
X7.355Y-3.3807
X7.355Y-3.4807
X7.355Y-3.6793
X7.355Y-3.7793
X7.355Y-3.9779
X7.355Y-4.0779
X7.355Y-4.2764
X7.355Y-4.3764
T4
X3.61Y-2.315
X3.61Y-5.705
X7.335Y-5.705
X7.34Y-2.31
T3
G00X3.835Y-2.5629
M15
G01X3.835Y-2.6417
M16
G05
G00X3.9137Y-2.7873
M15
G01X3.9925Y-2.7873
M16
G05
G00X4.0712Y-2.5629
M15
G01X4.0712Y-2.6417
M16
G05
M30
